# Blender 4.0.2
# www.blender.org
o boden1_boden1.001
v 0.702000 0.605000 0.394000
v 0.240000 -0.000000 0.394000
v -0.858000 0.727000 0.394000
v 0.702000 0.605000 0.634000
v -0.499000 0.727000 1.650000
v 0.240000 0.727000 1.020000
v 0.110000 0.727000 1.500000
v -0.858000 0.727000 1.020000
v -0.858000 0.727000 1.500000
v -0.451994 0.000000 0.394000
v -0.309000 0.727000 1.020000
v 0.240000 0.363500 0.394000
v -0.451994 0.363500 0.394000
v 0.449101 0.671783 0.394000
v 0.240000 0.435000 0.394000
v 0.449101 0.435000 0.394000
v 0.424264 0.678342 0.424264
v 0.240000 0.727000 0.548774
v 0.333342 0.702351 0.498882
v -0.117054 0.727000 0.588471
v 0.117054 0.727000 0.588471
v 0.229610 0.727000 0.554328
v 0.000000 0.727000 0.600000
v -0.309000 0.727000 0.511893
v -0.229610 0.727000 0.554328
v -0.449101 0.727000 0.394000
v -0.451994 0.435000 0.394000
v 0.702000 -0.605000 0.394000
v 0.240000 -0.000000 0.394000
v -0.858000 -0.727000 0.394000
v 0.702000 -0.605000 0.634000
v -0.499000 -0.727000 1.650000
v 0.240000 -0.727000 1.020000
v 0.110000 -0.727000 1.500000
v -0.858000 -0.727000 1.020000
v -0.858000 -0.727000 1.500000
v -0.451994 0.000000 0.394000
v -0.309000 -0.727000 1.020000
v 0.240000 -0.363500 0.394000
v -0.451994 -0.363500 0.394000
v 0.449101 -0.671783 0.394000
v 0.240000 -0.435000 0.394000
v 0.449101 -0.435000 0.394000
v 0.424264 -0.678342 0.424264
v 0.240000 -0.727000 0.548774
v 0.333342 -0.702351 0.498882
v -0.117054 -0.727000 0.588471
v 0.117054 -0.727000 0.588471
v 0.229610 -0.727000 0.554328
v -0.000000 -0.727000 0.600000
v -0.309000 -0.727000 0.511893
v -0.229610 -0.727000 0.554328
v -0.449101 -0.727000 0.394000
v -0.451994 -0.435000 0.394000
vn -0.0000 -0.0000 1.0000
vn -0.2553 -0.9669 -0.0000
vn -0.0000 -1.0000 -0.0000
vn -0.2553 0.9669 -0.0000
vn -0.0000 1.0000 -0.0000
vn 0.2392 -0.0000 0.9710
vn -1.0000 -0.0000 -0.0000
vn 0.3218 0.9428 0.0871
vn -0.3855 -0.0000 0.9227
vn 0.8255 -0.0000 0.5643
vn 0.3218 -0.9428 0.0871
vn 0.6438 0.0064 -0.7651
vt 0.000000 0.000000
s 0
f 29/1/1 39/1/1 42/1/1 43/1/1 41/1/1 28/1/1
f 14/1/2 1/1/2 4/1/2 6/1/2 18/1/2 19/1/2 17/1/2
f 18/1/3 6/1/3 11/1/3 24/1/3 25/1/3 20/1/3 23/1/3 21/1/3 22/1/3
f 12/1/1 13/1/1 10/1/1 2/1/1
f 27/1/1 13/1/1 12/1/1 15/1/1
f 41/1/4 44/1/4 46/1/4 45/1/4 33/1/4 31/1/4 28/1/4
f 45/1/5 49/1/5 48/1/5 50/1/5 47/1/5 52/1/5 51/1/5 38/1/5 33/1/5
f 35/1/3 30/1/3 53/1/3 38/1/3
f 8/1/5 26/1/5 3/1/5
f 39/1/1 29/1/1 37/1/1 40/1/1
f 54/1/1 42/1/1 39/1/1 40/1/1
f 34/1/6 7/1/6 5/1/6 32/1/6
f 31/1/7 4/1/7 1/1/7 28/1/7
f 7/1/8 4/1/8 6/1/8
f 8/1/5 9/1/5 5/1/5
f 53/1/3 51/1/3 38/1/3
f 33/1/3 34/1/3 32/1/3 35/1/3
f 32/1/9 5/1/9 9/1/9 36/1/9
f 3/1/7 30/1/7 35/1/7 8/1/7
f 4/1/10 7/1/10 34/1/10 31/1/10
f 33/1/11 31/1/11 34/1/11
f 32/1/3 36/1/3 35/1/3
f 7/1/5 6/1/5 8/1/5 5/1/5
f 9/1/7 8/1/7 35/1/7 36/1/7
f 54/1/12 51/1/12 53/1/12
f 11/1/3 8/1/3 26/1/3 24/1/3
f 2/1/1 1/1/1 14/1/1 16/1/1 15/1/1 12/1/1
l 27 54
l 26 27
l 27 25
l 25 26
l 11 25
o BumperLinks_Plane
v 0.920000 0.630000 0.264000
v 0.920000 0.630000 0.373383
v 0.848261 0.759076 0.264000
v 0.808261 0.759076 0.264000
v 0.848261 0.759076 0.373383
v 0.808261 0.759076 0.373383
v 0.920000 -0.630000 0.264000
v 0.920000 -0.630000 0.373383
v 0.848261 -0.759076 0.264000
v 0.808261 -0.759076 0.264000
v 0.848261 -0.759076 0.373383
v 0.808261 -0.759076 0.373383
vn -0.0000 1.0000 -0.0000
vn 0.8741 0.4858 -0.0000
vn -0.0000 -1.0000 -0.0000
vn 0.8741 -0.4858 -0.0000
vn -0.0000 -0.0000 1.0000
vn -0.0000 -0.0000 -1.0000
vn 1.0000 -0.0000 -0.0000
vn -1.0000 -0.0000 -0.0000
vt 1.000000 1.000000
vt 0.000000 1.000000
vt 0.000000 0.000000
s 0
f 57/2/13 58/3/13 60/3/13 59/2/13
f 56/2/14 55/2/14 57/2/14 59/2/14
f 63/2/15 65/2/15 66/3/15 64/3/15
f 62/2/16 65/2/16 63/2/16 61/2/16
f 60/3/17 66/4/17 65/2/17 59/2/17
f 58/3/18 57/2/18 55/2/18
f 58/3/18 55/2/18 61/4/18
f 58/3/18 61/4/18 63/2/18
f 58/3/18 63/2/18 64/3/18
f 65/2/17 62/2/17 56/4/17
f 65/2/17 56/4/17 59/2/17
f 62/2/19 61/2/19 55/2/19 56/2/19
f 58/3/20 64/3/20 66/4/20 60/3/20
o KFF_L_Cylinder.007
v 0.000000 0.765000 0.600000
v 0.000000 0.505000 0.600000
v 0.117054 0.765000 0.588471
v 0.117054 0.505000 0.588471
v 0.229610 0.765000 0.554328
v 0.229610 0.505000 0.554328
v 0.333342 0.765000 0.498882
v 0.333342 0.505000 0.498882
v 0.424264 0.765000 0.424264
v 0.424264 0.505000 0.424264
v 0.498882 0.765000 0.333342
v 0.498882 0.505000 0.333342
v -0.498882 0.765000 0.333342
v -0.498882 0.505000 0.333342
v -0.424264 0.765000 0.424264
v -0.424264 0.505000 0.424264
v -0.333342 0.765000 0.498882
v -0.333342 0.505000 0.498882
v -0.229610 0.765000 0.554328
v -0.229610 0.505000 0.554328
v -0.117054 0.765000 0.588471
v -0.117054 0.505000 0.588471
v 0.115103 0.505000 0.578663
v -0.115103 0.505000 0.578663
v -0.327786 0.505000 0.490567
v -0.490567 0.505000 0.327786
v 0.490567 0.505000 0.327786
v 0.327786 0.505000 0.490567
v 0.000000 0.505000 0.590000
v -0.417193 0.505000 0.417193
v 0.417193 0.505000 0.417193
v -0.225783 0.505000 0.545089
v 0.225783 0.505000 0.545089
v 0.000000 0.765000 0.590000
v 0.225783 0.765000 0.545089
v 0.417193 0.765000 0.417193
v -0.417193 0.765000 0.417193
v -0.225783 0.765000 0.545089
v 0.115103 0.765000 0.578663
v 0.490567 0.765000 0.327786
v -0.327786 0.765000 0.490567
v 0.327786 0.765000 0.490567
v -0.490567 0.765000 0.327786
v -0.115103 0.765000 0.578663
v 0.548774 0.505000 0.240000
v 0.548774 0.765000 0.240000
v -0.548774 0.505000 0.240000
v -0.548774 0.765000 0.240000
v -0.537490 0.505000 0.240000
v 0.537490 0.505000 0.240000
v -0.537490 0.765000 0.240000
v 0.537490 0.765000 0.240000
vn 0.0980 -0.0000 0.9952
vn 0.2903 -0.0000 0.9569
vn 0.4714 -0.0000 0.8819
vn 0.6344 -0.0000 0.7730
vn 0.7730 -0.0000 0.6344
vn 0.8819 -0.0000 0.4714
vn -0.8819 -0.0000 0.4714
vn -0.7730 -0.0000 0.6344
vn -0.6344 -0.0000 0.7730
vn -0.4714 -0.0000 0.8819
vn -0.0000 -1.0000 -0.0000
vn -0.2903 -0.0000 0.9569
vn -0.0980 -0.0000 0.9952
vn -0.0000 1.0000 -0.0000
vn -0.0980 -0.0000 -0.9952
vn -0.2903 -0.0000 -0.9569
vn -0.4714 -0.0000 -0.8819
vn -0.6344 -0.0000 -0.7730
vn -0.7730 -0.0000 -0.6344
vn -0.8819 -0.0000 -0.4714
vn 0.8819 -0.0000 -0.4714
vn 0.7730 -0.0000 -0.6344
vn 0.6344 -0.0000 -0.7730
vn 0.4714 -0.0000 -0.8819
vn 0.2903 -0.0000 -0.9569
vn 0.0980 -0.0000 -0.9952
vn -0.0000 -0.0000 -1.0000
vt 1.000000 0.500000
vt 1.000000 1.000000
vt 0.968750 1.000000
vt 0.968750 0.500000
vt 0.937500 1.000000
vt 0.937500 0.500000
vt 0.906250 1.000000
vt 0.906250 0.500000
vt 0.875000 1.000000
vt 0.875000 0.500000
vt 0.843750 1.000000
vt 0.843750 0.500000
vt 0.815630 0.500000
vt 0.815630 1.000000
vt 0.184370 1.000000
vt 0.156250 1.000000
vt 0.156250 0.500000
vt 0.184370 0.500000
vt 0.125000 1.000000
vt 0.125000 0.500000
vt 0.093750 1.000000
vt 0.093750 0.500000
vt 0.062500 1.000000
vt 0.062500 0.500000
vt 0.118885 0.446227
vt 0.116663 0.449553
vt 0.080294 0.419706
vt 0.050447 0.383337
vt 0.030490 0.346000
vt 0.035004 0.346000
vt 0.053773 0.381115
vt 0.083123 0.416877
vt 0.469510 0.346000
vt 0.449553 0.383337
vt 0.419706 0.419706
vt 0.383337 0.449553
vt 0.381115 0.446227
vt 0.416877 0.416877
vt 0.446227 0.381115
vt 0.464996 0.346000
vt 0.340313 0.468036
vt 0.341844 0.471731
vt 0.296822 0.485388
vt 0.250000 0.490000
vt 0.203178 0.485388
vt 0.158156 0.471731
vt 0.159687 0.468036
vt 0.203959 0.481465
vt 0.250000 0.486000
vt 0.296041 0.481465
vt 0.031250 1.000000
vt 0.031250 0.500000
vt 0.000000 1.000000
vt 0.000000 0.500000
vt 0.530490 0.346000
vt 0.550447 0.383337
vt 0.553773 0.381115
vt 0.535004 0.346000
vt 0.583123 0.416877
vt 0.580294 0.419706
vt 0.616663 0.449553
vt 0.658156 0.471731
vt 0.703178 0.485388
vt 0.750000 0.490000
vt 0.796822 0.485388
vt 0.841844 0.471731
vt 0.883337 0.449553
vt 0.919706 0.419706
vt 0.949553 0.383337
vt 0.969510 0.346000
vt 0.964996 0.346000
vt 0.946227 0.381115
vt 0.916877 0.416877
vt 0.881115 0.446227
vt 0.840313 0.468036
vt 0.796041 0.481465
vt 0.750000 0.486000
vt 0.703959 0.481465
vt 0.659687 0.468036
vt 0.618885 0.446227
vt 0.968750 0.587500
vt 0.968750 0.912500
vt 1.000000 0.912500
vt 1.000000 0.587500
vt 0.937500 0.587500
vt 0.937500 0.912500
vt 0.906250 0.587500
vt 0.906250 0.912500
vt 0.875000 0.587500
vt 0.875000 0.912500
vt 0.843750 0.912500
vt 0.843750 0.587500
vt 0.816855 0.587500
vt 0.816855 0.912500
vt 0.183145 0.587500
vt 0.156250 0.587500
vt 0.156250 0.912500
vt 0.183145 0.912500
vt 0.125000 0.587500
vt 0.125000 0.912500
vt 0.093750 0.587500
vt 0.093750 0.912500
vt 0.062500 0.587500
vt 0.062500 0.912500
vt 0.031250 0.587500
vt 0.031250 0.912500
vt 0.000000 0.587500
vt 0.000000 0.912500
vt 0.861977 0.500000
vt 0.864328 0.500000
vt 0.635672 0.500000
vt 0.638023 0.500000
s 0
f 67/5/21 68/6/21 70/7/21 69/8/21
f 69/8/22 70/7/22 72/9/22 71/10/22
f 71/10/23 72/9/23 74/11/23 73/12/23
f 73/12/24 74/11/24 76/13/24 75/14/24
f 75/14/25 76/13/25 78/15/25 77/16/25
f 112/17/26 77/16/26 78/15/26 111/18/26
f 113/19/27 80/20/27 79/21/27 114/22/27
f 79/21/28 80/20/28 82/23/28 81/24/28
f 81/24/29 82/23/29 84/25/29 83/26/29
f 83/26/30 84/25/30 86/27/30 85/28/30
f 91/29/31 84/30/31 82/31/31 80/32/31 113/33/31 115/34/31 92/35/31 96/36/31
f 111/37/31 78/38/31 76/39/31 74/40/31 94/41/31 97/42/31 93/43/31 116/44/31
f 99/45/31 94/41/31 74/40/31 72/46/31 70/47/31 68/48/31 88/49/31 86/50/31 84/30/31 91/29/31 98/51/31 90/52/31 95/53/31 89/54/31
f 85/28/32 86/27/32 88/55/32 87/56/32
f 87/56/33 88/55/33 68/57/33 67/58/33
f 114/59/34 79/60/34 109/61/34 117/62/34
f 103/63/34 109/61/34 79/60/34 81/64/34 83/65/34 85/66/34 87/67/34 67/68/34 69/69/34 71/70/34 73/71/34 75/72/34 77/73/34 112/74/34 118/75/34 106/76/34 102/77/34 108/78/34 101/79/34 105/80/34 100/81/34 110/82/34 104/83/34 107/84/34
f 105/85/35 89/86/35 95/87/35 100/88/35
f 101/89/36 99/90/36 89/86/36 105/85/36
f 108/91/37 94/92/37 99/90/37 101/89/37
f 102/93/38 97/94/38 94/92/38 108/91/38
f 93/95/39 97/94/39 102/93/39 106/96/39
f 93/95/40 106/96/40 118/97/40 116/98/40
f 117/99/41 109/100/41 92/101/41 115/102/41
f 103/103/42 96/104/42 92/101/42 109/100/42
f 107/105/43 91/106/43 96/104/43 103/103/43
f 104/107/44 98/108/44 91/106/44 107/105/44
f 110/109/45 90/110/45 98/108/45 104/107/45
f 100/111/46 95/112/46 90/110/46 110/109/46
f 115/113/47 113/114/47 114/114/47 117/113/47
f 112/115/47 111/115/47 116/116/47 118/116/47
o KFF_R_Cylinder.009
v -0.000000 -0.505000 0.600000
v -0.000000 -0.765000 0.600000
v 0.117054 -0.505000 0.588471
v 0.117054 -0.765000 0.588471
v 0.229610 -0.505000 0.554328
v 0.229610 -0.765000 0.554328
v 0.333342 -0.505000 0.498882
v 0.333342 -0.765000 0.498882
v 0.424264 -0.505000 0.424264
v 0.424264 -0.765000 0.424264
v 0.498882 -0.505000 0.333342
v 0.498882 -0.765000 0.333342
v -0.498882 -0.505000 0.333342
v -0.498882 -0.765000 0.333342
v -0.424264 -0.505000 0.424264
v -0.424264 -0.765000 0.424264
v -0.333342 -0.505000 0.498882
v -0.333342 -0.765000 0.498882
v -0.229610 -0.505000 0.554328
v -0.229610 -0.765000 0.554328
v -0.117054 -0.505000 0.588471
v -0.117054 -0.765000 0.588471
v 0.115103 -0.765000 0.578663
v -0.115103 -0.765000 0.578663
v -0.327786 -0.765000 0.490567
v -0.490567 -0.765000 0.327786
v 0.490567 -0.765000 0.327786
v 0.327786 -0.765000 0.490567
v -0.000000 -0.765000 0.590000
v -0.417193 -0.765000 0.417193
v 0.417193 -0.765000 0.417193
v -0.225783 -0.765000 0.545089
v 0.225783 -0.765000 0.545089
v -0.000000 -0.505000 0.590000
v 0.225783 -0.505000 0.545089
v 0.417193 -0.505000 0.417193
v -0.417193 -0.505000 0.417193
v -0.225783 -0.505000 0.545089
v 0.115103 -0.505000 0.578663
v 0.490567 -0.505000 0.327786
v -0.327786 -0.505000 0.490567
v 0.327786 -0.505000 0.490567
v -0.490567 -0.505000 0.327786
v -0.115103 -0.505000 0.578663
v 0.548774 -0.765000 0.240000
v 0.548774 -0.505000 0.240000
v -0.548774 -0.765000 0.240000
v -0.548774 -0.505000 0.240000
v -0.537490 -0.765000 0.240000
v 0.537490 -0.765000 0.240000
v -0.537490 -0.505000 0.240000
v 0.537490 -0.505000 0.240000
vn 0.0980 -0.0000 0.9952
vn 0.2903 -0.0000 0.9569
vn 0.4714 -0.0000 0.8819
vn 0.6344 -0.0000 0.7730
vn 0.7730 -0.0000 0.6344
vn 0.8819 -0.0000 0.4714
vn -0.8819 -0.0000 0.4714
vn -0.7730 -0.0000 0.6344
vn -0.6344 -0.0000 0.7730
vn -0.4714 -0.0000 0.8819
vn -0.0000 -1.0000 -0.0000
vn -0.2903 -0.0000 0.9569
vn -0.0980 -0.0000 0.9952
vn -0.0000 1.0000 -0.0000
vn -0.0980 -0.0000 -0.9952
vn -0.2903 -0.0000 -0.9569
vn -0.4714 -0.0000 -0.8819
vn -0.6344 -0.0000 -0.7730
vn -0.7730 -0.0000 -0.6344
vn -0.8819 -0.0000 -0.4714
vn 0.8819 -0.0000 -0.4714
vn 0.7730 -0.0000 -0.6344
vn 0.6344 -0.0000 -0.7730
vn 0.4714 -0.0000 -0.8819
vn 0.2903 -0.0000 -0.9569
vn 0.0980 -0.0000 -0.9952
vn -0.0000 -0.0000 -1.0000
vt 1.000000 0.500000
vt 1.000000 1.000000
vt 0.968750 1.000000
vt 0.968750 0.500000
vt 0.937500 1.000000
vt 0.937500 0.500000
vt 0.906250 1.000000
vt 0.906250 0.500000
vt 0.875000 1.000000
vt 0.875000 0.500000
vt 0.843750 1.000000
vt 0.843750 0.500000
vt 0.815630 0.500000
vt 0.815630 1.000000
vt 0.184370 1.000000
vt 0.156250 1.000000
vt 0.156250 0.500000
vt 0.184370 0.500000
vt 0.125000 1.000000
vt 0.125000 0.500000
vt 0.093750 1.000000
vt 0.093750 0.500000
vt 0.062500 1.000000
vt 0.062500 0.500000
vt 0.118885 0.446227
vt 0.116663 0.449553
vt 0.080294 0.419706
vt 0.050447 0.383337
vt 0.030490 0.346000
vt 0.035004 0.346000
vt 0.053773 0.381115
vt 0.083123 0.416877
vt 0.469510 0.346000
vt 0.449553 0.383337
vt 0.419706 0.419706
vt 0.383337 0.449553
vt 0.381115 0.446227
vt 0.416877 0.416877
vt 0.446227 0.381115
vt 0.464996 0.346000
vt 0.340313 0.468036
vt 0.341844 0.471731
vt 0.296822 0.485388
vt 0.250000 0.490000
vt 0.203178 0.485388
vt 0.158156 0.471731
vt 0.159687 0.468036
vt 0.203959 0.481465
vt 0.250000 0.486000
vt 0.296041 0.481465
vt 0.031250 1.000000
vt 0.031250 0.500000
vt 0.000000 1.000000
vt 0.000000 0.500000
vt 0.530490 0.346000
vt 0.550447 0.383337
vt 0.553773 0.381115
vt 0.535004 0.346000
vt 0.583123 0.416877
vt 0.580294 0.419706
vt 0.616663 0.449553
vt 0.658156 0.471731
vt 0.703178 0.485388
vt 0.750000 0.490000
vt 0.796822 0.485388
vt 0.841844 0.471731
vt 0.883337 0.449553
vt 0.919706 0.419706
vt 0.949553 0.383337
vt 0.969510 0.346000
vt 0.964996 0.346000
vt 0.946227 0.381115
vt 0.916877 0.416877
vt 0.881115 0.446227
vt 0.840313 0.468036
vt 0.796041 0.481465
vt 0.750000 0.486000
vt 0.703959 0.481465
vt 0.659687 0.468036
vt 0.618885 0.446227
vt 0.968750 0.587500
vt 0.968750 0.912500
vt 1.000000 0.912500
vt 1.000000 0.587500
vt 0.937500 0.587500
vt 0.937500 0.912500
vt 0.906250 0.587500
vt 0.906250 0.912500
vt 0.875000 0.587500
vt 0.875000 0.912500
vt 0.843750 0.912500
vt 0.843750 0.587500
vt 0.816855 0.587500
vt 0.816855 0.912500
vt 0.183145 0.587500
vt 0.156250 0.587500
vt 0.156250 0.912500
vt 0.183145 0.912500
vt 0.125000 0.587500
vt 0.125000 0.912500
vt 0.093750 0.587500
vt 0.093750 0.912500
vt 0.062500 0.587500
vt 0.062500 0.912500
vt 0.031250 0.587500
vt 0.031250 0.912500
vt 0.000000 0.587500
vt 0.000000 0.912500
vt 0.861977 0.500000
vt 0.864328 0.500000
vt 0.635672 0.500000
vt 0.638023 0.500000
s 0
f 119/117/48 120/118/48 122/119/48 121/120/48
f 121/120/49 122/119/49 124/121/49 123/122/49
f 123/122/50 124/121/50 126/123/50 125/124/50
f 125/124/51 126/123/51 128/125/51 127/126/51
f 127/126/52 128/125/52 130/127/52 129/128/52
f 164/129/53 129/128/53 130/127/53 163/130/53
f 165/131/54 132/132/54 131/133/54 166/134/54
f 131/133/55 132/132/55 134/135/55 133/136/55
f 133/136/56 134/135/56 136/137/56 135/138/56
f 135/138/57 136/137/57 138/139/57 137/140/57
f 143/141/58 136/142/58 134/143/58 132/144/58 165/145/58 167/146/58 144/147/58 148/148/58
f 163/149/58 130/150/58 128/151/58 126/152/58 146/153/58 149/154/58 145/155/58 168/156/58
f 151/157/58 146/153/58 126/152/58 124/158/58 122/159/58 120/160/58 140/161/58 138/162/58 136/142/58 143/141/58 150/163/58 142/164/58 147/165/58 141/166/58
f 137/140/59 138/139/59 140/167/59 139/168/59
f 139/168/60 140/167/60 120/169/60 119/170/60
f 166/171/61 131/172/61 161/173/61 169/174/61
f 155/175/61 161/173/61 131/172/61 133/176/61 135/177/61 137/178/61 139/179/61 119/180/61 121/181/61 123/182/61 125/183/61 127/184/61 129/185/61 164/186/61 170/187/61 158/188/61 154/189/61 160/190/61 153/191/61 157/192/61 152/193/61 162/194/61 156/195/61 159/196/61
f 157/197/62 141/198/62 147/199/62 152/200/62
f 153/201/63 151/202/63 141/198/63 157/197/63
f 160/203/64 146/204/64 151/202/64 153/201/64
f 154/205/65 149/206/65 146/204/65 160/203/65
f 145/207/66 149/206/66 154/205/66 158/208/66
f 145/207/67 158/208/67 170/209/67 168/210/67
f 169/211/68 161/212/68 144/213/68 167/214/68
f 155/215/69 148/216/69 144/213/69 161/212/69
f 159/217/70 143/218/70 148/216/70 155/215/70
f 156/219/71 150/220/71 143/218/71 159/217/71
f 162/221/72 142/222/72 150/220/72 156/219/72
f 152/223/73 147/224/73 142/222/73 162/221/73
f 167/225/74 165/226/74 166/226/74 169/225/74
f 164/227/74 163/227/74 168/228/74 170/228/74
o KFH_HL_Cube.021
v -2.274527 0.525000 0.191203
v -1.953133 0.525000 0.574225
v -2.274527 0.745000 0.191203
v -1.953133 0.745000 0.574225
v -2.266867 0.525000 0.184775
v -1.945473 0.525000 0.567797
v -2.266867 0.745000 0.184775
v -1.945473 0.745000 0.567797
vn -0.7660 -0.0000 0.6428
vn -0.0000 1.0000 -0.0000
vn 0.7660 -0.0000 -0.6428
vn -0.0000 -1.0000 -0.0000
vn -0.6428 -0.0000 -0.7660
vn 0.6428 -0.0000 0.7660
vt 0.375000 0.000000
vt 0.625000 0.000000
vt 0.625000 0.250000
vt 0.375000 0.250000
vt 0.625000 0.500000
vt 0.375000 0.500000
vt 0.625000 0.750000
vt 0.375000 0.750000
vt 0.625000 1.000000
vt 0.375000 1.000000
vt 0.125000 0.500000
vt 0.125000 0.750000
vt 0.875000 0.500000
vt 0.875000 0.750000
s 0
f 171/229/75 172/230/75 174/231/75 173/232/75
f 173/232/76 174/231/76 178/233/76 177/234/76
f 177/234/77 178/233/77 176/235/77 175/236/77
f 175/236/78 176/235/78 172/237/78 171/238/78
f 173/239/79 177/234/79 175/236/79 171/240/79
f 178/233/80 174/241/80 172/242/80 176/235/80
o KFH_HR_Cube.022
v -2.274527 -0.745000 0.191203
v -1.953133 -0.745000 0.574225
v -2.274527 -0.525000 0.191203
v -1.953133 -0.525000 0.574225
v -2.266867 -0.745000 0.184775
v -1.945473 -0.745000 0.567797
v -2.266867 -0.525000 0.184775
v -1.945473 -0.525000 0.567797
vn -0.7660 -0.0000 0.6428
vn -0.0000 1.0000 -0.0000
vn 0.7660 -0.0000 -0.6428
vn -0.0000 -1.0000 -0.0000
vn -0.6428 -0.0000 -0.7660
vn 0.6428 -0.0000 0.7660
vt 0.375000 0.000000
vt 0.625000 0.000000
vt 0.625000 0.250000
vt 0.375000 0.250000
vt 0.625000 0.500000
vt 0.375000 0.500000
vt 0.625000 0.750000
vt 0.375000 0.750000
vt 0.625000 1.000000
vt 0.375000 1.000000
vt 0.125000 0.500000
vt 0.125000 0.750000
vt 0.875000 0.500000
vt 0.875000 0.750000
s 0
f 179/243/81 180/244/81 182/245/81 181/246/81
f 181/246/82 182/245/82 186/247/82 185/248/82
f 185/248/83 186/247/83 184/249/83 183/250/83
f 183/250/84 184/249/84 180/251/84 179/252/84
f 181/253/85 185/248/85 183/250/85 179/254/85
f 186/247/86 182/255/86 180/256/86 184/249/86
o KFH_VL_Cube.019
v -1.173133 0.525000 0.184775
v -1.494527 0.525000 0.567797
v -1.173133 0.745000 0.184775
v -1.494527 0.745000 0.567797
v -1.165473 0.525000 0.191203
v -1.486867 0.525000 0.574225
v -1.165473 0.745000 0.191203
v -1.486867 0.745000 0.574225
vn -0.7660 -0.0000 -0.6428
vn -0.0000 1.0000 -0.0000
vn 0.7660 -0.0000 0.6428
vn -0.0000 -1.0000 -0.0000
vn 0.6428 -0.0000 -0.7660
vn -0.6428 -0.0000 0.7660
vt 0.375000 0.000000
vt 0.625000 0.000000
vt 0.625000 0.250000
vt 0.375000 0.250000
vt 0.625000 0.500000
vt 0.375000 0.500000
vt 0.625000 0.750000
vt 0.375000 0.750000
vt 0.625000 1.000000
vt 0.375000 1.000000
vt 0.125000 0.500000
vt 0.125000 0.750000
vt 0.875000 0.500000
vt 0.875000 0.750000
s 0
f 187/257/87 188/258/87 190/259/87 189/260/87
f 189/260/88 190/259/88 194/261/88 193/262/88
f 193/262/89 194/261/89 192/263/89 191/264/89
f 191/264/90 192/263/90 188/265/90 187/266/90
f 189/267/91 193/262/91 191/264/91 187/268/91
f 194/261/92 190/269/92 188/270/92 192/263/92
o KFH_VR_Cube.020
v -1.173133 -0.745000 0.184775
v -1.494527 -0.745000 0.567797
v -1.173133 -0.525000 0.184775
v -1.494527 -0.525000 0.567797
v -1.165473 -0.745000 0.191203
v -1.486867 -0.745000 0.574225
v -1.165473 -0.525000 0.191203
v -1.486867 -0.525000 0.574225
vn -0.7660 -0.0000 -0.6428
vn -0.0000 1.0000 -0.0000
vn 0.7660 -0.0000 0.6428
vn -0.0000 -1.0000 -0.0000
vn 0.6428 -0.0000 -0.7660
vn -0.6428 -0.0000 0.7660
vt 0.375000 0.000000
vt 0.625000 0.000000
vt 0.625000 0.250000
vt 0.375000 0.250000
vt 0.625000 0.500000
vt 0.375000 0.500000
vt 0.625000 0.750000
vt 0.375000 0.750000
vt 0.625000 1.000000
vt 0.375000 1.000000
vt 0.125000 0.500000
vt 0.125000 0.750000
vt 0.875000 0.500000
vt 0.875000 0.750000
s 0
f 195/271/93 196/272/93 198/273/93 197/274/93
f 197/274/94 198/273/94 202/275/94 201/276/94
f 201/276/95 202/275/95 200/277/95 199/278/95
f 199/278/96 200/277/96 196/279/96 195/280/96
f 197/281/97 201/276/97 199/278/97 195/282/97
f 202/275/98 198/283/98 196/284/98 200/277/98
o PfostenHL_Cube.009
v -2.400000 0.750000 0.967500
v -2.400000 -0.750000 0.967500
v -0.900000 -0.750000 0.967500
v -2.400000 -0.750000 0.567500
v -2.400000 0.750000 0.567500
v -0.900000 -0.750000 0.567500
v -0.900000 0.750000 0.567500
v -0.900000 0.750000 0.967500
vn -0.0000 -0.0000 -1.0000
vn -0.0000 1.0000 -0.0000
vn -0.0000 -0.0000 1.0000
vn -0.0000 -1.0000 -0.0000
vn -1.0000 -0.0000 -0.0000
vn 1.0000 -0.0000 -0.0000
vt 0.125000 0.500000
vt 0.375000 0.500000
vt 0.375000 0.750000
vt 0.125000 0.750000
vt 0.000000 0.000000
vt 0.375000 0.250000
vt 0.375000 1.000000
vt 0.375000 0.000000
s 0
f 207/285/99 209/286/99 208/287/99 206/288/99
f 203/289/100 210/289/100 209/286/100 207/290/100
f 205/289/101 210/289/101 203/289/101 204/289/101
f 208/287/102 205/289/102 204/289/102 206/291/102
f 204/289/103 203/289/103 207/290/103 206/292/103
f 209/286/104 210/289/104 205/289/104 208/287/104
o TraegerRechts_Cube.001
v 0.807936 -0.342500 0.376000
v 0.807936 -0.342500 0.264000
v -2.140000 -0.342500 0.376000
v -2.140000 -0.342500 0.264000
v 0.807936 0.342500 0.376000
v 0.807936 0.342500 0.264000
v -2.140000 0.342500 0.376000
v -2.140000 0.342500 0.264000
vn -0.0000 -1.0000 -0.0000
vn 1.0000 -0.0000 -0.0000
vn -0.0000 1.0000 -0.0000
vn -0.0000 -0.0000 -1.0000
vn -1.0000 -0.0000 -0.0000
vn -0.0000 -0.0000 1.0000
vt 0.375000 0.750000
vt 0.625000 0.750000
vt 0.625000 1.000000
vt 0.375000 1.000000
vt 0.000000 0.000000
vt 0.625000 0.500000
vt 0.375000 0.250000
vt 0.625000 0.250000
vt 0.375000 0.500000
vt 0.875000 0.750000
s 0
f 212/293/105 211/294/105 213/295/105 214/296/105
f 216/297/106 215/298/106 211/294/106 212/293/106
f 218/299/107 217/300/107 215/298/107 216/301/107
f 218/297/108 216/301/108 212/293/108 214/296/108
f 213/295/109 217/297/109 218/297/109 214/296/109
f 211/294/110 215/298/110 217/297/110 213/302/110
