# Blender v2.91.0 OBJ File: ''
# www.blender.org
mtllib F_R_arm.mtl
o F_R_arm
v 0.160712 -0.184618 -0.006144
v 0.160646 -0.196337 0.011860
v 0.758468 -0.375034 -0.140451
v 0.758402 -0.386752 -0.122447
v 0.156829 -0.182838 -0.027197
v 0.754584 -0.373253 -0.161504
v 0.747792 -0.381887 -0.179964
v 0.150037 -0.191472 -0.045657
v 0.142156 -0.208208 -0.056579
v 0.739912 -0.398623 -0.190886
v 0.135298 -0.228561 -0.057036
v 0.733054 -0.418976 -0.191343
v 0.729056 -0.437492 -0.181211
v 0.131301 -0.247077 -0.046905
v 0.131235 -0.258795 -0.028900
v 0.728991 -0.449211 -0.163207
v 0.135118 -0.260576 -0.007848
v 0.732874 -0.450991 -0.142154
v 0.739666 -0.442357 -0.123694
v 0.141910 -0.251942 0.010613
v 0.149791 -0.235206 0.021535
v 0.747547 -0.425621 -0.112772
v 0.754405 -0.405268 -0.112316
v 0.156649 -0.214853 0.021991
v -0.656669 -0.187413 -0.165900
v -0.656186 -0.205275 -0.167386
v -0.154731 -0.186309 0.003771
v -0.154159 -0.207449 0.002013
v -0.653008 -0.219963 -0.177167
v -0.150398 -0.224832 -0.009563
v -0.144455 -0.233800 -0.027854
v -0.647986 -0.227541 -0.192622
v -0.642466 -0.225978 -0.209610
v -0.137922 -0.231950 -0.047960
v -0.637928 -0.215694 -0.223579
v -0.132550 -0.219779 -0.064492
v -0.129779 -0.200546 -0.073021
v -0.635586 -0.199443 -0.230786
v -0.636069 -0.181581 -0.229300
v -0.130351 -0.179407 -0.071262
v -0.639247 -0.166893 -0.219519
v -0.134112 -0.162024 -0.059686
v -0.140055 -0.153056 -0.041395
v -0.644269 -0.159315 -0.204064
v -0.649789 -0.160878 -0.187076
v -0.146588 -0.154905 -0.021290
v -0.654327 -0.171162 -0.173106
v -0.151959 -0.167077 -0.004758
vn 0.2168 0.9245 0.3134
vn 0.1971 0.6516 0.7325
vn 0.8745 0.4787 0.0780
vn 0.8756 0.2625 0.4054
vn 0.1795 0.9650 -0.1912
vn 0.8016 0.5132 -0.3067
vn 0.6765 0.3556 -0.6449
vn 0.0973 0.7487 -0.6557
vn -0.0086 0.3211 -0.9470
vn 0.5329 0.0486 -0.8448
vn -0.1115 -0.1974 -0.9740
vn 0.4097 -0.3247 -0.8525
vn 0.3400 -0.6632 -0.6667
vn -0.1844 -0.6580 -0.7301
vn -0.2084 -0.9357 -0.2847
vn 0.3424 -0.8765 -0.3384
vn -0.1772 -0.9541 0.2416
vn 0.4156 -0.9085 0.0442
vn 0.5399 -0.7515 0.3792
vn -0.0962 -0.7084 0.6992
vn 0.0145 -0.2771 0.9607
vn 0.6824 -0.4474 0.5781
vn 0.8052 -0.0766 0.5880
vn 0.1231 0.2170 0.9684
vn 0.0101 -0.9413 -0.3373
vn -0.0871 -0.9804 0.1769
vn 0.1021 -0.6428 -0.7592
vn 0.1645 -0.1677 -0.9720
vn 0.1814 0.3544 -0.9173
vn 0.1482 0.7792 -0.6089
vn 0.0721 0.9880 -0.1363
vn -0.1635 -0.7522 0.6383
vn -0.0272 0.9307 0.3649
vn -0.1216 0.6334 0.7642
vn -0.1844 0.1765 0.9669
vn -0.1993 -0.3276 0.9236
vn -0.5851 0.7418 -0.3277
vn -0.6659 -0.7419 -0.0788
vn -0.7751 -0.5771 0.2573
vn -0.8442 -0.2576 0.4700
vn -0.7051 0.7079 0.0418
vn -0.8038 0.4842 0.3456
vn -0.8548 0.1308 0.5023
vn -0.5459 -0.7079 -0.4483
vn -0.4759 0.5770 -0.6638
vn -0.4068 0.2576 -0.8765
vn -0.4472 -0.4842 -0.7520
vn -0.3962 -0.1308 -0.9088
usemtl Default_OBJ.003
s 1
f 1//1 2//2 3//3
f 4//4 3//3 2//2
f 5//5 1//1 6//6
f 3//3 6//6 1//1
f 6//6 7//7 5//5
f 8//8 5//5 7//7
f 9//9 8//8 10//10
f 7//7 10//10 8//8
f 11//11 9//9 12//12
f 10//10 12//12 9//9
f 12//12 13//13 11//11
f 14//14 11//11 13//13
f 15//15 14//14 16//16
f 13//13 16//16 14//14
f 17//17 15//15 18//18
f 16//16 18//18 15//15
f 18//18 19//19 17//17
f 20//20 17//17 19//19
f 21//21 20//20 22//22
f 19//19 22//22 20//20
f 22//22 23//23 21//21
f 24//24 21//21 23//23
f 2//2 24//24 4//4
f 23//23 4//4 24//24
f 34//25 15//15 31//26
f 15//15 17//17 31//26
f 18//18 6//6 3//3
f 3//3 19//19 18//18
f 16//16 6//6 18//18
f 4//4 22//22 19//19
f 19//19 3//3 4//4
f 22//22 4//4 23//23
f 16//16 13//13 7//7
f 7//7 13//13 10//10
f 7//7 6//6 16//16
f 14//14 36//27 11//11
f 12//12 10//10 13//13
f 11//11 36//27 37//28
f 37//28 9//9 11//11
f 9//9 40//29 8//8
f 37//28 40//29 9//9
f 8//8 42//30 5//5
f 40//29 42//30 8//8
f 42//30 43//31 5//5
f 5//5 43//31 1//1
f 15//15 34//25 14//14
f 36//27 14//14 34//25
f 31//26 17//17 30//32
f 46//33 2//2 1//1
f 2//2 48//34 24//24
f 48//34 2//2 46//33
f 24//24 27//35 21//21
f 48//34 27//35 24//24
f 21//21 28//36 20//20
f 28//36 21//21 27//35
f 17//17 20//20 30//32
f 30//32 20//20 28//36
f 44//37 32//38 29//39
f 29//39 26//40 45//41
f 45//41 44//37 29//39
f 47//42 26//40 25//43
f 45//41 26//40 47//42
f 33//44 32//38 41//45
f 44//37 41//45 32//38
f 39//46 33//44 41//45
f 35//47 33//44 39//46
f 38//48 35//47 39//46
f 25//43 26//40 27//35
f 28//36 27//35 26//40
f 26//40 29//39 28//36
f 30//32 28//36 29//39
f 31//26 30//32 32//38
f 29//39 32//38 30//32
f 32//38 33//44 31//26
f 34//25 31//26 33//44
f 33//44 35//47 34//25
f 36//27 34//25 35//47
f 37//28 36//27 38//48
f 35//47 38//48 36//27
f 38//48 39//46 37//28
f 40//29 37//28 39//46
f 39//46 41//45 40//29
f 42//30 40//29 41//45
f 43//31 42//30 44//37
f 41//45 44//37 42//30
f 44//37 45//41 43//31
f 46//33 43//31 45//41
f 45//41 47//42 46//33
f 48//34 46//33 47//42
f 47//42 25//43 48//34
f 27//35 48//34 25//43
f 43//31 46//33 1//1
