# Blender v2.91.0 OBJ File: ''
# www.blender.org
mtllib B_R_arm.mtl
o B_R_arm
v -0.484040 -0.219037 0.071212
v -0.485048 -0.223279 0.054964
v -0.093636 -0.129974 0.026846
v -0.094645 -0.134216 0.010597
v -0.094842 -0.118383 0.038979
v -0.488001 -0.219037 0.038954
v -0.097598 -0.129974 -0.005412
v -0.102099 -0.086716 0.039870
v -0.485246 -0.207446 0.083346
v -0.097940 -0.102549 0.043746
v -0.492107 -0.207446 0.027474
v -0.101703 -0.118383 -0.016893
v -0.488343 -0.191613 0.088113
v -0.496265 -0.191613 0.023598
v -0.105862 -0.102549 -0.020769
v -0.108960 -0.086716 -0.016002
v -0.110166 -0.075125 -0.003868
v -0.106205 -0.075125 0.028389
v -0.492502 -0.175779 0.084237
v -0.109157 -0.070882 0.012380
v -0.499363 -0.175779 0.028366
v -0.496608 -0.164188 0.072756
v -0.500569 -0.164188 0.040498
v -0.499561 -0.159946 0.056746
v 0.396657 -0.089905 -0.194649
v 0.384204 -0.110727 -0.216112
v 0.397391 -0.073202 -0.193385
v 0.393835 -0.058006 -0.199514
v 0.098590 -0.088827 -0.025244
v 0.099252 -0.073750 -0.024102
v 0.391831 -0.103640 -0.202967
v 0.094233 -0.101226 -0.032753
v 0.096042 -0.060032 -0.029635
v 0.386942 -0.048388 -0.211395
v 0.087349 -0.107622 -0.044618
v 0.378559 -0.046927 -0.225842
v 0.089819 -0.051351 -0.040359
v 0.368930 -0.099648 -0.242440
v 0.365373 -0.084452 -0.248569
v 0.366106 -0.067748 -0.247305
v 0.370933 -0.054013 -0.238987
v 0.079782 -0.106303 -0.057659
v 0.375822 -0.109265 -0.230560
v 0.082252 -0.050032 -0.053401
v 0.073561 -0.097622 -0.068384
v 0.075369 -0.056428 -0.065266
v 0.070350 -0.083904 -0.073916
v 0.071012 -0.068826 -0.072775
vn -0.4427 -0.7847 0.4339
vn -0.4645 -0.8838 0.0559
vn -0.4195 -0.7889 0.4491
vn 0.2130 -0.7510 0.6250
vn -0.4139 -0.5366 0.7354
vn -0.2879 -0.4012 0.8696
vn 0.4744 -0.1581 0.8660
vn -0.5313 -0.7855 -0.3174
vn 0.1661 -0.9761 0.1401
vn -0.2872 0.0080 0.9578
vn -0.4714 -0.5152 0.7158
vn -0.4658 -0.1500 0.8721
vn -0.6254 -0.5154 -0.5859
vn 0.0747 -0.9218 -0.3804
vn -0.3730 0.4020 0.8362
vn -0.5431 -0.1472 0.8267
vn -0.5586 0.2479 0.7915
vn -0.7213 -0.1457 -0.6771
vn -0.0324 -0.6125 -0.7898
vn -0.5199 0.6609 0.5412
vn 0.1383 0.3175 0.9381
vn -0.6386 0.2214 0.7370
vn -0.4817 0.8745 0.0569
vn -0.0254 0.7406 0.6715
vn -0.7934 0.2241 -0.5660
vn -0.1247 -0.1422 -0.9820
vn -0.7325 0.4922 0.4702
vn -0.8221 0.4945 -0.2824
vn -0.1794 0.3580 -0.9163
vn -0.7998 0.5924 0.0971
vn -0.8218 0.5264 -0.2179
vn -0.8803 0.2009 -0.4298
vn 0.9205 -0.2600 0.2918
vn 0.6283 -0.7486 -0.2119
vn 0.9377 0.1320 0.3215
vn 0.8542 0.4886 0.1776
vn 0.8072 -0.5823 0.0966
vn 0.6925 0.7143 -0.1012
vn 0.6404 -0.7407 -0.2032
vn 0.4958 0.7486 -0.4402
vn 0.2700 -0.4885 -0.8297
vn 0.1865 -0.1320 -0.9735
vn 0.2037 0.2599 -0.9439
vn 0.3170 0.5822 -0.7487
vn 0.4868 -0.6965 -0.5272
vn 0.4316 -0.7142 -0.5509
vn 0.3427 -0.4822 -0.8062
vn 0.2501 -0.1192 -0.9609
usemtl Default_OBJ.001
s 1
f 1//1 2//2 3//3
f 2//2 4//4 3//3
f 5//5 1//1 3//3
f 29//6 3//3 32//7
f 2//2 6//8 4//4
f 5//5 3//3 29//6
f 6//8 7//9 4//4
f 5//5 29//6 30//10
f 9//11 1//1 5//5
f 10//12 9//11 5//5
f 30//10 10//12 5//5
f 11//13 12//14 7//9
f 30//10 33//15 10//12
f 6//8 11//13 7//9
f 13//16 9//11 10//12
f 8//17 13//16 10//12
f 14//18 15//19 12//14
f 11//13 14//18 12//14
f 10//12 33//15 8//17
f 37//20 8//17 33//15
f 8//17 37//20 18//21
f 18//21 19//22 8//17
f 44//23 18//21 37//20
f 18//21 44//23 20//24
f 19//22 13//16 8//17
f 14//18 21//25 15//19
f 21//25 16//26 15//19
f 22//27 19//22 18//21
f 20//24 22//27 18//21
f 23//28 17//29 16//26
f 21//25 23//28 16//26
f 17//29 24//30 20//24
f 24//30 22//27 20//24
f 23//28 24//30 17//29
f 24//30 2//2 1//1
f 9//11 24//30 1//1
f 24//30 6//8 2//2
f 13//16 24//30 9//11
f 24//30 11//13 6//8
f 19//22 24//30 13//16
f 24//30 14//18 11//13
f 22//27 24//30 19//22
f 24//30 21//25 14//18
f 24//30 23//28 21//25
f 17//29 20//24 46//31
f 20//24 44//23 46//31
f 48//32 16//26 17//29
f 48//32 17//29 46//31
f 25//33 26//34 27//35
f 26//34 28//36 27//35
f 29//6 25//33 27//35
f 28//36 30//10 27//35
f 30//10 29//6 27//35
f 31//37 26//34 25//33
f 32//7 31//37 25//33
f 29//6 32//7 25//33
f 33//15 30//10 28//36
f 26//34 34//38 28//36
f 34//38 33//15 28//36
f 35//39 26//34 31//37
f 32//7 35//39 31//37
f 26//34 36//40 34//38
f 36//40 37//20 34//38
f 37//20 33//15 34//38
f 38//41 39//42 26//34
f 39//42 40//43 26//34
f 40//43 41//44 26//34
f 41//44 36//40 26//34
f 35//39 42//45 26//34
f 43//46 38//41 26//34
f 42//45 43//46 26//34
f 41//44 44//23 36//40
f 44//23 37//20 36//40
f 42//45 45//47 43//46
f 45//47 38//41 43//46
f 46//31 44//23 41//44
f 40//43 46//31 41//44
f 47//48 39//42 38//41
f 45//47 47//48 38//41
f 48//32 46//31 40//43
f 39//42 48//32 40//43
f 47//48 48//32 39//42
f 16//26 48//32 47//48
f 16//26 47//48 15//19
f 47//48 45//47 15//19
f 15//19 45//47 12//14
f 42//45 12//14 45//47
f 7//9 12//14 42//45
f 35//39 7//9 42//45
f 7//9 35//39 4//4
f 35//39 32//7 4//4
f 3//3 4//4 32//7
