# Blender v2.91.0 OBJ File: ''
# www.blender.org
mtllib B_L_arm.mtl
o B_L_arm
v 0.396662 0.089905 -0.194643
v 0.098590 0.088827 -0.025241
v 0.397395 0.073202 -0.193379
v 0.393838 0.058005 -0.199508
v 0.099253 0.073749 -0.024101
v 0.094234 0.101226 -0.032750
v 0.391836 0.103640 -0.202961
v 0.096043 0.060032 -0.029634
v 0.386946 0.048388 -0.211388
v 0.378563 0.046927 -0.225836
v 0.370937 0.054013 -0.238980
v 0.366111 0.067748 -0.247298
v 0.384209 0.110727 -0.216105
v 0.375826 0.109265 -0.230553
v 0.368934 0.099648 -0.242433
v 0.365377 0.084451 -0.248562
v 0.087350 0.107622 -0.044616
v 0.089821 0.051351 -0.040358
v 0.079783 0.106303 -0.057659
v 0.082254 0.050031 -0.053399
v 0.073562 0.097622 -0.068383
v 0.075370 0.056428 -0.065265
v 0.070351 0.083904 -0.073915
v 0.071014 0.068826 -0.072774
v -0.484041 0.219037 0.071204
v -0.094842 0.118383 0.038978
v -0.093635 0.129974 0.026845
v -0.094644 0.134216 0.010596
v -0.485049 0.223279 0.054957
v -0.102098 0.086716 0.039869
v -0.106204 0.075125 0.028388
v -0.097940 0.102549 0.043746
v -0.488000 0.219037 0.038946
v -0.097597 0.129974 -0.005413
v -0.101702 0.118383 -0.016894
v -0.109157 0.070882 0.012378
v -0.110166 0.075125 -0.003870
v -0.105861 0.102549 -0.020771
v -0.108959 0.086716 -0.016003
v -0.485247 0.207446 0.083338
v -0.492107 0.207446 0.027466
v -0.488344 0.191613 0.088105
v -0.496265 0.191613 0.023589
v -0.492502 0.175779 0.084229
v -0.499363 0.175779 0.028356
v -0.496608 0.164188 0.072748
v -0.500569 0.164188 0.040490
v -0.499560 0.159945 0.056738
vn 0.9205 0.2600 0.2918
vn 0.8979 0.2357 0.3719
vn 0.9377 -0.1320 0.3215
vn 0.8542 -0.4886 0.1777
vn 0.8997 -0.1474 0.4109
vn 0.4724 0.2181 0.8540
vn 0.8072 0.5823 0.0966
vn 0.8094 -0.5263 0.2605
vn 0.6925 -0.7143 -0.1012
vn 0.4958 -0.7485 -0.4402
vn 0.3169 -0.5822 -0.7487
vn 0.2037 -0.2599 -0.9439
vn 0.6283 0.7486 -0.2119
vn 0.4316 0.7142 -0.5509
vn 0.2700 0.4885 -0.8297
vn 0.1865 0.1320 -0.9736
vn 0.3823 0.7217 0.5771
vn 0.6486 -0.7599 -0.0443
vn 0.2446 0.9391 0.2412
vn 0.4672 -0.7817 -0.4131
vn 0.0021 0.9704 -0.2415
vn 0.3203 -0.5935 -0.7383
vn -0.2351 0.7304 -0.6413
vn 0.2458 -0.2615 -0.9334
vn 0.7117 -0.5054 0.4880
vn 0.0255 -0.6737 0.7385
vn 0.1263 -0.2163 0.9681
vn 0.1954 0.3102 0.9304
vn 0.2102 0.7482 0.6293
vn 0.1264 0.9838 -0.1269
vn -0.4427 0.7847 0.4339
vn 0.4393 -0.0545 -0.8967
vn -0.4645 0.8838 0.0559
vn -0.1301 0.1418 -0.9813
vn -0.1845 -0.3586 -0.9151
vn -0.5312 0.7855 -0.3175
vn -0.1919 -0.7609 -0.6198
vn -0.1534 -0.9728 -0.1735
vn -0.4714 0.5152 0.7158
vn -0.6253 0.5154 -0.5859
vn -0.6648 0.5042 -0.5512
vn -0.5431 0.1472 0.8267
vn -0.7212 0.1457 -0.6772
vn -0.6386 -0.2214 0.7370
vn -0.7934 -0.2242 -0.5660
vn -0.7326 -0.4922 0.4702
vn -0.8221 -0.4944 -0.2823
vn -0.7998 -0.5924 0.0971
usemtl Default_OBJ
s 1
f 1//1 2//2 3//3
f 4//4 1//1 3//3
f 2//2 5//5 3//3
f 5//5 4//4 3//3
f 6//6 2//2 1//1
f 7//7 6//6 1//1
f 4//4 7//7 1//1
f 5//5 8//8 4//4
f 8//8 9//9 4//4
f 9//9 10//10 4//4
f 10//10 11//11 4//4
f 11//11 12//12 4//4
f 13//13 7//7 4//4
f 14//14 13//13 4//4
f 15//15 14//14 4//4
f 16//16 15//15 4//4
f 12//12 16//16 4//4
f 17//17 6//6 7//7
f 13//13 17//17 7//7
f 8//8 18//18 9//9
f 18//18 10//10 9//9
f 19//19 17//17 13//13
f 14//14 19//19 13//13
f 18//18 20//20 10//10
f 20//20 11//11 10//10
f 21//21 19//19 14//14
f 15//15 21//21 14//14
f 20//20 22//22 11//11
f 22//22 12//12 11//11
f 23//23 21//21 15//15
f 16//16 23//23 15//15
f 22//22 24//24 12//12
f 24//24 16//16 12//12
f 24//24 23//23 16//16
f 8//8 5//5 30//25
f 32//26 30//25 5//5
f 5//5 2//2 32//26
f 32//26 2//2 26//27
f 2//2 6//6 26//27
f 27//28 26//27 6//6
f 17//17 27//28 6//6
f 28//29 27//28 17//17
f 34//30 28//29 17//17
f 19//19 34//30 17//17
f 25//31 26//27 27//28
f 24//24 38//32 23//23
f 29//33 25//31 27//28
f 28//29 29//33 27//28
f 39//34 38//32 24//24
f 22//22 39//34 24//24
f 37//35 39//34 22//22
f 33//36 29//33 28//29
f 34//30 33//36 28//29
f 20//20 37//35 22//22
f 37//35 20//20 36//37
f 36//37 20//20 18//18
f 36//37 18//18 31//38
f 18//18 8//8 31//38
f 31//38 8//8 30//25
f 40//39 32//26 26//27
f 25//31 40//39 26//27
f 41//40 33//36 34//30
f 35//41 41//40 34//30
f 42//42 30//25 32//26
f 40//39 42//42 32//26
f 43//43 41//40 35//41
f 38//32 43//43 35//41
f 44//44 31//38 30//25
f 42//42 44//44 30//25
f 45//45 43//43 38//32
f 39//34 45//45 38//32
f 44//44 46//46 31//38
f 46//46 36//37 31//38
f 37//35 47//47 39//34
f 47//47 45//45 39//34
f 46//46 48//48 36//37
f 48//48 37//35 36//37
f 48//48 47//47 37//35
f 41//40 40//39 25//31
f 29//33 41//40 25//31
f 33//36 41//40 29//33
f 41//40 42//42 40//39
f 41//40 44//44 42//42
f 46//46 44//44 41//40
f 48//48 46//46 41//40
f 47//47 48//48 41//40
f 43//43 45//45 41//40
f 45//45 47//47 41//40
f 38//32 35//41 23//23
f 23//23 35//41 21//21
f 35//41 34//30 21//21
f 34//30 19//19 21//21
