# Blender v2.93.1 OBJ File: ''
# www.blender.org
mtllib blade.mtl
o blade
v 0.000000 0.000000 0.000000
v 0.050000 0.000000 0.000000
v -0.750000 -0.800000 -0.000000
v -0.800000 -0.800000 -0.000000
v -0.750000 0.800000 0.000000
v -0.800000 0.800000 0.000000
v 0.400000 0.000000 -0.400000
v 0.450000 0.000000 -0.400000
v -0.350000 -0.800000 -0.400000
v -0.400000 -0.800000 -0.400000
v -0.350000 0.800000 -0.400000
v -0.400000 0.800000 -0.400000
vn 0.0000 0.0000 -1.0000
vn 0.0000 -0.0000 1.0000
vn 0.0000 1.0000 0.0000
vn 0.0000 -1.0000 -0.0000
vn 0.5774 -0.5774 0.5774
vn -0.5774 0.5774 -0.5774
vn -0.5774 -0.5774 -0.5774
vn 0.5774 0.5774 0.5774
usemtl Default_OBJ.008
s off
f 1//1 2//1 3//1
f 1//2 4//2 3//2
f 1//2 2//2 5//2
f 1//1 6//1 5//1
f 7//1 8//1 9//1
f 7//2 10//2 9//2
f 7//2 8//2 11//2
f 7//1 12//1 11//1
f 4//3 3//3 10//3
f 3//4 10//4 9//4
f 6//3 5//3 12//3
f 5//4 12//4 11//4
f 2//5 3//5 9//5
f 2//6 8//6 9//6
f 1//5 4//5 10//5
f 1//6 7//6 10//6
f 1//7 6//7 12//7
f 1//8 7//8 12//8
f 2//7 5//7 11//7
f 2//8 8//8 11//8
