# Blender v2.93.1 OBJ File: ''
# www.blender.org
mtllib l_bt_sus.mtl
o viper_L_bt_sus
v 0.040000 0.319844 0.021723
v -0.040000 0.319844 0.021723
v -0.040000 0.005591 0.039681
v 0.040000 0.005591 0.039681
v -0.040000 0.305857 0.004997
v -0.040000 0.305216 0.002535
v -0.040000 0.310090 0.011260
v -0.040000 0.308330 0.009423
v -0.040000 0.306905 0.007315
v -0.040000 0.314407 0.013918
v -0.040000 0.312136 0.012773
v -0.040000 0.017839 0.024120
v -0.040000 0.013506 0.026788
v -0.040000 0.008785 0.028685
v -0.040000 0.003811 0.029757
v -0.040000 0.002576 0.039625
v 0.040000 0.305857 0.004997
v 0.040000 0.306905 0.007315
v 0.040000 0.308330 0.009423
v 0.040000 0.312136 0.012773
v 0.040000 0.310090 0.011260
v 0.040000 0.002576 0.039625
v 0.040000 0.003811 0.029757
v 0.040000 0.305216 0.002535
v -0.040000 -0.001273 0.029973
v -0.040000 -0.000396 0.039117
v 0.040000 -0.000396 0.039117
v 0.040000 -0.001273 0.029973
v -0.040000 -0.003258 0.038168
v 0.040000 -0.003258 0.038168
v -0.040000 -0.006320 0.029327
v -0.040000 -0.005944 0.036800
v 0.040000 -0.005944 0.036800
v 0.040000 -0.006320 0.029327
v -0.040000 -0.015729 0.025546
v -0.040000 -0.040394 0.015843
v -0.040000 -0.011186 0.027837
v 0.040000 -0.040394 0.015843
v 0.040000 -0.015729 0.025546
v 0.040000 -0.011186 0.027837
v 0.040000 0.008785 0.028685
v 0.040000 0.305000 0.000000
v 0.040000 0.013506 0.026788
v 0.040000 0.017839 0.024120
v -0.040000 -0.019820 0.022520
v 0.040000 -0.019820 0.022520
v -0.040000 0.021659 0.020758
v 0.040000 0.021659 0.020758
v -0.040000 -0.023341 0.018847
v 0.040000 -0.023341 0.018847
v -0.040000 0.316840 0.014663
v -0.040000 0.323171 0.021250
v -0.040000 0.321905 0.014879
v -0.040000 0.319364 0.014986
v 0.040000 0.323171 0.021250
v 0.040000 0.314407 0.013918
v 0.040000 0.316840 0.014663
v 0.040000 0.319364 0.014986
v -0.040000 0.326371 0.020228
v -0.040000 0.324393 0.014343
v 0.040000 0.326371 0.020228
v 0.040000 0.321905 0.014879
v -0.040000 0.024855 0.016799
v 0.040000 0.024855 0.016799
v -0.040000 0.329355 0.018683
v -0.040000 0.326753 0.013394
v 0.040000 0.329355 0.018683
v 0.040000 0.324393 0.014343
v -0.040000 -0.026190 0.014631
v 0.040000 -0.026190 0.014631
v -0.040000 0.332038 0.016661
v -0.040000 0.328920 0.012060
v 0.040000 0.332038 0.016661
v 0.040000 0.326753 0.013394
v -0.040000 0.027337 0.012357
v 0.040000 0.027337 0.012357
v -0.040000 0.334345 0.014219
v -0.040000 0.330830 0.010379
v 0.040000 0.334345 0.014219
v 0.040000 0.328920 0.012060
v -0.040000 -0.042989 0.013965
v 0.040000 -0.028286 0.009994
v 0.040000 -0.042989 0.013965
v -0.040000 -0.028286 0.009994
v -0.040000 0.336211 0.011424
v -0.040000 0.332428 0.008400
v 0.040000 0.336211 0.011424
v 0.040000 0.330830 0.010379
v -0.040000 -0.045250 0.011696
v 0.040000 -0.045250 0.011696
v -0.040000 0.029032 0.007559
v 0.040000 0.029032 0.007559
v -0.040000 -0.029568 0.005070
v -0.040000 -0.047121 0.009095
v 0.040000 -0.029568 0.005070
v 0.040000 -0.047121 0.009095
v -0.040000 0.337582 0.008357
v -0.040000 0.333669 0.006179
v 0.040000 0.337582 0.008357
v 0.040000 0.332428 0.008400
v -0.040000 -0.048552 0.006229
v 0.040000 -0.030000 -0.000000
v 0.040000 -0.048552 0.006229
v 0.040000 0.333669 0.006179
v -0.040000 0.338421 0.005104
v -0.040000 0.334516 0.003780
v 0.040000 0.338421 0.005104
v -0.040000 0.029892 0.002544
v 0.040000 0.029892 0.002544
v -0.040000 -0.030000 -0.000000
v -0.040000 -0.049507 0.003171
v 0.040000 -0.049507 0.003171
v 0.040000 0.334516 0.003780
v -0.040000 0.338703 0.001756
v -0.040000 0.334946 0.001272
v 0.040000 0.338703 0.001756
v 0.040000 0.334946 0.001272
v -0.040000 -0.049961 -0.000000
v 0.040000 -0.049961 -0.000000
v -0.040000 0.305000 0.000000
v -0.040000 0.029892 -0.002544
v 0.040000 0.029892 -0.002544
v 0.040000 0.305216 -0.002535
v -0.040000 0.338703 -0.001756
v -0.040000 0.334946 -0.001272
v 0.040000 0.338703 -0.001756
v 0.040000 0.334946 -0.001272
v -0.040000 -0.029568 -0.005070
v -0.040000 -0.048552 -0.006229
v -0.040000 -0.049507 -0.003171
v 0.040000 -0.049507 -0.003171
v 0.040000 -0.048552 -0.006229
v 0.040000 -0.029568 -0.005070
v -0.040000 0.305216 -0.002535
v -0.040000 0.334516 -0.003780
v 0.040000 0.334516 -0.003780
v 0.040000 0.338421 -0.005104
v -0.040000 0.338421 -0.005104
v -0.040000 0.305857 -0.004997
v 0.040000 0.005591 -0.039681
v 0.040000 0.305857 -0.004997
v 0.040000 0.017839 -0.024120
v 0.040000 0.021659 -0.020758
v 0.040000 0.029032 -0.007559
v 0.040000 0.027337 -0.012357
v 0.040000 0.024855 -0.016799
v -0.040000 0.306905 -0.007315
v -0.040000 0.308330 -0.009423
v -0.040000 0.310090 -0.011260
v -0.040000 0.312136 -0.012773
v -0.040000 0.319844 -0.021723
v -0.040000 0.029032 -0.007559
v -0.040000 0.333669 -0.006179
v 0.040000 0.333669 -0.006179
v 0.040000 0.337582 -0.008357
v 0.040000 0.306905 -0.007315
v -0.040000 -0.028286 -0.009994
v -0.040000 -0.045250 -0.011696
v -0.040000 -0.047121 -0.009095
v 0.040000 -0.045250 -0.011696
v 0.040000 -0.028286 -0.009994
v 0.040000 -0.047121 -0.009095
v -0.040000 0.337582 -0.008357
v -0.040000 0.332428 -0.008400
v 0.040000 0.332428 -0.008400
v 0.040000 0.336211 -0.011424
v 0.040000 0.308330 -0.009423
v -0.040000 0.027337 -0.012357
v -0.040000 0.336211 -0.011424
v -0.040000 0.330830 -0.010379
v 0.040000 0.330830 -0.010379
v 0.040000 0.334345 -0.014219
v 0.040000 0.310090 -0.011260
v -0.040000 -0.026190 -0.014631
v -0.040000 -0.040394 -0.015843
v -0.040000 -0.042989 -0.013965
v 0.040000 -0.042989 -0.013965
v 0.040000 -0.026190 -0.014631
v -0.040000 0.334345 -0.014219
v -0.040000 0.328920 -0.012060
v 0.040000 0.328920 -0.012060
v 0.040000 0.332038 -0.016661
v 0.040000 0.312136 -0.012773
v -0.040000 0.332038 -0.016661
v -0.040000 0.326753 -0.013394
v 0.040000 0.326753 -0.013394
v 0.040000 0.329355 -0.018683
v -0.040000 0.024855 -0.016799
v -0.040000 0.314407 -0.013918
v 0.040000 0.314407 -0.013918
v -0.040000 0.329355 -0.018683
v -0.040000 0.324393 -0.014342
v 0.040000 0.324393 -0.014342
v 0.040000 0.326371 -0.020228
v -0.040000 0.316840 -0.014663
v 0.040000 0.319844 -0.021723
v 0.040000 0.316840 -0.014663
v 0.040000 -0.040394 -0.015843
v -0.040000 0.326371 -0.020228
v -0.040000 0.321905 -0.014879
v 0.040000 0.321905 -0.014879
v 0.040000 0.323171 -0.021250
v -0.040000 -0.023341 -0.018847
v 0.040000 -0.023341 -0.018847
v -0.040000 0.319364 -0.014986
v 0.040000 0.319364 -0.014986
v -0.040000 0.323171 -0.021250
v -0.040000 -0.019820 -0.022520
v -0.040000 -0.015729 -0.025546
v -0.040000 -0.005944 -0.036800
v 0.040000 -0.015729 -0.025546
v 0.040000 -0.019820 -0.022520
v 0.040000 -0.005944 -0.036800
v -0.040000 0.021659 -0.020758
v -0.040000 0.017839 -0.024120
v -0.040000 0.005591 -0.039681
v -0.040000 0.013506 -0.026788
v 0.040000 0.013506 -0.026788
v -0.040000 -0.011186 -0.027837
v 0.040000 -0.011186 -0.027837
v -0.040000 0.008785 -0.028685
v 0.040000 0.008785 -0.028685
v -0.040000 -0.006320 -0.029327
v 0.040000 -0.006320 -0.029327
v -0.040000 0.003811 -0.029757
v 0.040000 0.003811 -0.029757
v -0.040000 -0.003258 -0.038168
v -0.040000 -0.001273 -0.029973
v 0.040000 -0.003258 -0.038168
v 0.040000 -0.001273 -0.029973
v -0.040000 0.002576 -0.039625
v 0.040000 0.002576 -0.039625
v -0.040000 -0.000396 -0.039117
v 0.040000 -0.000396 -0.039117
vn 0.6978 0.0709 0.7128
vn -0.6978 0.0709 0.7128
vn -0.6987 0.0138 0.7153
vn 0.6987 0.0138 0.7153
vn -0.7267 0.6477 -0.2289
vn -0.7267 0.6771 -0.1161
vn -0.7267 0.4539 -0.5156
vn -0.7267 0.5345 -0.4316
vn -0.7267 0.5997 -0.3351
vn -0.7267 0.2561 -0.6374
vn -0.7267 0.3602 -0.5850
vn -0.7267 -0.4085 -0.5523
vn -0.7267 -0.3093 -0.6134
vn -0.7267 -0.2012 -0.6568
vn -0.7267 -0.0873 -0.6814
vn -0.6905 -0.0678 0.7201
vn 0.7267 0.6477 -0.2289
vn 0.7267 0.5997 -0.3351
vn 0.7267 0.5345 -0.4315
vn 0.7267 0.3602 -0.5850
vn 0.7267 0.4539 -0.5156
vn 0.6905 -0.0678 0.7201
vn 0.7267 -0.0873 -0.6814
vn 0.7267 0.6771 -0.1161
vn -0.7267 0.0291 -0.6863
vn -0.6905 -0.1753 0.7018
vn 0.6905 -0.1753 0.7018
vn 0.7267 0.0291 -0.6863
vn -0.6905 -0.2787 0.6674
vn 0.6905 -0.2787 0.6674
vn -0.7267 0.1447 -0.6715
vn -0.6987 -0.3485 0.6248
vn 0.6987 -0.3485 0.6248
vn 0.7267 0.1447 -0.6715
vn -0.7267 0.3602 -0.5849
vn -0.6982 -0.3962 0.5962
vn 0.6982 -0.3962 0.5962
vn 0.7267 0.3602 -0.5849
vn 0.7267 0.2561 -0.6374
vn 0.7267 -0.2012 -0.6568
vn 0.7267 0.6869 -0.0000
vn 0.7267 -0.3093 -0.6134
vn 0.7267 -0.4085 -0.5523
vn -0.7267 0.4539 -0.5157
vn 0.7267 0.4539 -0.5157
vn -0.7267 -0.4960 -0.4753
vn 0.7267 -0.4960 -0.4753
vn -0.7267 0.5345 -0.4315
vn -0.6887 0.1619 0.7067
vn -0.7267 -0.0871 -0.6814
vn -0.7266 0.0293 -0.6864
vn 0.6887 0.1619 0.7067
vn 0.7266 0.0293 -0.6864
vn -0.6886 0.2780 0.6697
vn 0.6886 0.2780 0.6697
vn 0.7267 -0.0871 -0.6814
vn -0.7267 -0.5692 -0.3847
vn 0.7267 -0.5692 -0.3847
vn -0.6887 0.3862 0.6136
vn 0.6887 0.3862 0.6136
vn -0.7267 0.5997 -0.3350
vn 0.7267 0.5997 -0.3350
vn -0.6887 0.4834 0.5404
vn 0.6887 0.4834 0.5404
vn -0.7267 -0.6259 -0.2830
vn 0.7267 -0.6259 -0.2830
vn -0.6887 0.5671 0.4519
vn -0.7267 -0.4959 -0.4753
vn 0.6887 0.5671 0.4519
vn 0.7267 -0.4084 -0.5523
vn -0.6895 -0.4704 0.5508
vn 0.7267 0.6477 -0.2288
vn 0.6895 -0.4704 0.5508
vn -0.7267 0.6477 -0.2288
vn -0.6887 0.6347 0.3505
vn -0.7267 -0.5691 -0.3847
vn 0.6887 0.6347 0.3505
vn 0.7267 -0.4959 -0.4753
vn -0.6895 -0.5522 0.4686
vn 0.6895 -0.5522 0.4686
vn -0.7267 -0.6648 -0.1731
vn 0.7267 -0.6648 -0.1731
vn -0.6895 -0.6200 0.3745
vn 0.6895 -0.6200 0.3745
vn -0.6887 0.6844 0.2393
vn -0.7267 -0.6260 -0.2829
vn 0.6887 0.6844 0.2393
vn 0.7267 -0.5691 -0.3847
vn -0.6895 -0.6718 0.2706
vn 0.6895 -0.6718 0.2706
vn 0.7267 -0.6260 -0.2829
vn -0.6887 0.7148 0.1214
vn -0.7267 -0.6648 -0.1730
vn 0.6887 0.7148 0.1214
vn -0.7267 -0.6845 -0.0583
vn 0.7267 -0.6845 -0.0583
vn -0.7267 0.6869 -0.0000
vn -0.6895 -0.7064 0.1598
vn 0.6895 -0.7064 0.1598
vn 0.7267 -0.6648 -0.1730
vn -0.6978 0.7157 0.0301
vn 0.6978 0.7157 0.0301
vn -0.6766 -0.7364 -0.0000
vn 0.6766 -0.7364 0.0000
vn -0.7267 -0.6845 0.0583
vn 0.7267 -0.6845 0.0583
vn 0.7267 0.6771 0.1161
vn -0.6978 0.7157 -0.0301
vn 0.6978 0.7157 -0.0301
vn -0.7267 0.6771 0.1161
vn -0.6895 -0.6718 -0.2706
vn -0.6895 -0.7064 -0.1598
vn 0.6895 -0.7064 -0.1598
vn 0.6895 -0.6718 -0.2706
vn -0.7267 -0.6648 0.1730
vn 0.7267 -0.6648 0.1730
vn 0.6887 0.7148 -0.1214
vn -0.6887 0.7148 -0.1214
vn -0.7267 0.6477 0.2289
vn 0.6987 0.0138 -0.7153
vn 0.7267 0.6477 0.2289
vn 0.7267 -0.4085 0.5523
vn 0.7267 -0.4960 0.4753
vn 0.7267 -0.6648 0.1731
vn 0.7267 -0.6259 0.2830
vn 0.7267 -0.5692 0.3847
vn -0.7267 0.5997 0.3351
vn -0.7267 0.5345 0.4315
vn -0.7267 0.4539 0.5156
vn -0.7267 0.3602 0.5850
vn -0.6978 0.0709 -0.7128
vn -0.7267 -0.6648 0.1731
vn -0.7267 -0.6260 0.2829
vn 0.7267 -0.6260 0.2829
vn 0.6887 0.6844 -0.2393
vn 0.7267 0.5997 0.3351
vn -0.7267 0.6477 0.2288
vn -0.6895 -0.5522 -0.4686
vn -0.6895 -0.6200 -0.3745
vn 0.6895 -0.5522 -0.4686
vn 0.7267 0.6477 0.2288
vn 0.6895 -0.6200 -0.3745
vn -0.6887 0.6844 -0.2393
vn -0.7267 -0.5691 0.3847
vn 0.7267 -0.5691 0.3847
vn 0.6887 0.6347 -0.3505
vn 0.7267 0.5345 0.4316
vn -0.7267 -0.6259 0.2830
vn -0.6887 0.6347 -0.3505
vn -0.7267 -0.4959 0.4753
vn 0.7267 -0.4959 0.4753
vn 0.6887 0.5671 -0.4519
vn 0.7267 0.4539 0.5156
vn -0.7267 0.5997 0.3350
vn -0.6982 -0.3962 -0.5962
vn -0.6895 -0.4704 -0.5508
vn 0.6895 -0.4704 -0.5508
vn 0.7267 0.5997 0.3350
vn -0.6887 0.5671 -0.4519
vn -0.7267 -0.4084 0.5523
vn 0.6887 0.4834 -0.5404
vn 0.7267 0.3602 0.5850
vn -0.6887 0.4834 -0.5404
vn -0.7267 -0.3092 0.6134
vn 0.7267 -0.3092 0.6134
vn 0.6887 0.3862 -0.6136
vn -0.7267 -0.5692 0.3847
vn -0.7267 0.2561 0.6374
vn 0.7267 0.2561 0.6374
vn -0.6887 0.3862 -0.6136
vn -0.7267 -0.2012 0.6569
vn 0.7267 -0.2012 0.6569
vn 0.6886 0.2780 -0.6697
vn -0.7267 0.1447 0.6715
vn 0.6978 0.0709 -0.7128
vn 0.7267 0.1447 0.6715
vn 0.6982 -0.3962 -0.5962
vn -0.6886 0.2780 -0.6697
vn -0.7268 -0.0872 0.6813
vn 0.7268 -0.0872 0.6813
vn 0.6887 0.1619 -0.7067
vn 0.7267 0.5345 0.4315
vn -0.7266 0.0293 0.6864
vn 0.7266 0.0293 0.6864
vn -0.6887 0.1619 -0.7067
vn -0.7267 0.4539 0.5157
vn -0.7267 0.3602 0.5849
vn -0.6987 -0.3485 -0.6248
vn 0.7267 0.3602 0.5849
vn 0.7267 0.4539 0.5157
vn 0.6987 -0.3485 -0.6248
vn -0.7267 -0.4960 0.4753
vn -0.7267 -0.4085 0.5523
vn -0.6987 0.0138 -0.7153
vn -0.7267 -0.3093 0.6134
vn 0.7267 -0.3093 0.6134
vn -0.7267 -0.2012 0.6568
vn 0.7267 -0.2012 0.6568
vn -0.7267 -0.0873 0.6814
vn 0.7267 -0.0873 0.6814
vn -0.6905 -0.2787 -0.6674
vn -0.7267 0.0291 0.6863
vn 0.6905 -0.2787 -0.6674
vn 0.7267 0.0291 0.6863
vn -0.6905 -0.0678 -0.7201
vn 0.6905 -0.0678 -0.7201
vn -0.6905 -0.1753 -0.7018
vn 0.6905 -0.1753 -0.7018
usemtl Default_OBJ.004
s 1
f 1//1 2//2 3//3
f 4//4 1//1 3//3
f 5//5 6//6 3//3
f 7//7 8//8 3//3
f 8//8 9//9 3//3
f 9//9 5//5 3//3
f 2//2 10//10 3//3
f 10//10 11//11 3//3
f 11//11 7//7 3//3
f 12//12 13//13 3//3
f 6//6 12//12 3//3
f 13//13 14//14 3//3
f 14//14 15//15 3//3
f 15//15 16//16 3//3
f 16//16 4//4 3//3
f 17//17 18//18 4//4
f 18//18 19//19 4//4
f 20//20 1//1 4//4
f 21//21 20//20 4//4
f 19//19 21//21 4//4
f 22//22 23//23 4//4
f 23//23 24//24 4//4
f 24//24 17//17 4//4
f 16//16 22//22 4//4
f 15//15 25//25 16//16
f 25//25 26//26 16//16
f 26//26 22//22 16//16
f 27//27 28//28 22//22
f 28//28 23//23 22//22
f 26//26 27//27 22//22
f 25//25 29//29 26//26
f 29//29 27//27 26//26
f 30//30 28//28 27//27
f 29//29 30//30 27//27
f 25//25 31//31 29//29
f 31//31 32//32 29//29
f 32//32 30//30 29//29
f 33//33 34//34 30//30
f 34//34 28//28 30//30
f 32//32 33//33 30//30
f 35//35 36//36 32//32
f 37//10 35//35 32//32
f 31//31 37//10 32//32
f 36//36 33//33 32//32
f 38//37 39//38 33//33
f 39//38 40//39 33//33
f 40//39 34//34 33//33
f 36//36 38//37 33//33
f 15//15 23//23 25//25
f 23//23 28//28 25//25
f 28//28 31//31 25//25
f 34//34 31//31 28//28
f 14//14 41//40 15//15
f 41//40 23//23 15//15
f 42//41 24//24 23//23
f 41//40 42//41 23//23
f 34//34 37//10 31//31
f 40//39 37//10 34//34
f 13//13 43//42 14//14
f 43//42 41//40 14//14
f 43//42 42//41 41//40
f 40//39 35//35 37//10
f 39//38 35//35 40//39
f 12//12 44//43 13//13
f 44//43 43//42 13//13
f 44//43 42//41 43//42
f 45//44 36//36 35//35
f 39//38 45//44 35//35
f 38//37 46//45 39//38
f 46//45 45//44 39//38
f 6//6 47//46 12//12
f 47//46 48//47 12//12
f 48//47 44//43 12//12
f 48//47 42//41 44//43
f 49//48 36//36 45//44
f 46//45 49//48 45//44
f 38//37 50//19 46//45
f 50//19 49//48 46//45
f 51//31 10//10 2//2
f 52//49 53//50 2//2
f 53//50 54//51 2//2
f 54//51 51//31 2//2
f 55//52 52//49 2//2
f 1//1 55//52 2//2
f 20//20 56//39 1//1
f 56//39 57//34 1//1
f 57//34 58//53 1//1
f 58//53 55//52 1//1
f 59//54 60//14 52//49
f 60//14 53//50 52//49
f 61//55 59//54 52//49
f 55//52 61//55 52//49
f 58//53 62//56 55//52
f 62//56 61//55 55//52
f 6//6 63//57 47//46
f 63//57 64//58 47//46
f 64//58 48//47 47//46
f 64//58 42//41 48//47
f 65//59 66//13 59//54
f 66//13 60//14 59//54
f 67//60 65//59 59//54
f 61//55 67//60 59//54
f 62//56 68//40 61//55
f 68//40 67//60 61//55
f 69//61 36//36 49//48
f 50//19 69//61 49//48
f 38//37 70//62 50//19
f 70//62 69//61 50//19
f 71//63 72//12 65//59
f 72//12 66//13 65//59
f 73//64 71//63 65//59
f 67//60 73//64 65//59
f 68//40 74//42 67//60
f 74//42 73//64 67//60
f 6//6 75//65 63//57
f 75//65 76//66 63//57
f 76//66 64//58 63//57
f 76//66 42//41 64//58
f 77//67 78//68 71//63
f 78//68 72//12 71//63
f 79//69 77//67 71//63
f 73//64 79//69 71//63
f 74//42 80//70 73//64
f 80//70 79//69 73//64
f 69//61 81//71 36//36
f 81//71 38//37 36//36
f 82//72 70//62 38//37
f 83//73 82//72 38//37
f 81//71 83//73 38//37
f 53//50 62//56 54//51
f 62//56 58//53 54//51
f 58//53 51//31 54//51
f 57//34 51//31 58//53
f 60//14 68//40 53//50
f 68//40 62//56 53//50
f 57//34 10//10 51//31
f 56//39 10//10 57//34
f 84//74 81//71 69//61
f 70//62 84//74 69//61
f 82//72 84//74 70//62
f 66//13 74//42 60//14
f 74//42 68//40 60//14
f 85//75 86//76 77//67
f 86//76 78//68 77//67
f 87//77 85//75 77//67
f 79//69 87//77 77//67
f 80//70 88//78 79//69
f 88//78 87//77 79//69
f 84//74 89//79 81//71
f 89//79 83//73 81//71
f 90//80 82//72 83//73
f 89//79 90//80 83//73
f 56//39 11//11 10//10
f 20//20 11//11 56//39
f 72//12 80//70 66//13
f 80//70 74//42 66//13
f 20//20 7//7 11//11
f 21//21 7//7 20//20
f 6//6 91//81 75//65
f 91//81 92//82 75//65
f 92//82 76//66 75//65
f 92//82 42//41 76//66
f 78//68 88//78 72//12
f 88//78 80//70 72//12
f 84//74 93//6 89//79
f 93//6 94//83 89//79
f 94//83 90//80 89//79
f 95//24 82//72 90//80
f 96//84 95//24 90//80
f 94//83 96//84 90//80
f 97//85 98//86 85//75
f 98//86 86//76 85//75
f 99//87 97//85 85//75
f 87//77 99//87 85//75
f 88//78 100//88 87//77
f 100//88 99//87 87//77
f 21//21 8//8 7//7
f 19//19 8//8 21//21
f 86//76 100//88 78//68
f 100//88 88//78 78//68
f 82//72 93//6 84//74
f 95//24 93//6 82//72
f 19//19 9//9 8//8
f 18//18 9//9 19//19
f 93//6 101//89 94//83
f 101//89 96//84 94//83
f 102//41 95//24 96//84
f 103//90 102//41 96//84
f 101//89 103//90 96//84
f 98//86 104//91 86//76
f 104//91 100//88 86//76
f 104//91 99//87 100//88
f 105//92 106//93 97//85
f 106//93 98//86 97//85
f 107//94 105//92 97//85
f 99//87 107//94 97//85
f 104//91 107//94 99//87
f 6//6 108//95 91//81
f 108//95 109//96 91//81
f 109//96 92//82 91//81
f 109//96 42//41 92//82
f 18//18 5//5 9//9
f 17//17 5//5 18//18
f 110//97 111//98 101//89
f 93//6 110//97 101//89
f 111//98 103//90 101//89
f 112//99 102//41 103//90
f 111//98 112//99 103//90
f 106//93 113//100 98//86
f 113//100 104//91 98//86
f 113//100 107//94 104//91
f 114//101 115//95 105//92
f 115//95 106//93 105//92
f 116//102 114//101 105//92
f 107//94 116//102 105//92
f 113//100 116//102 107//94
f 95//24 110//97 93//6
f 102//41 110//97 95//24
f 17//17 6//6 5//5
f 24//24 6//6 17//17
f 115//95 117//96 106//93
f 117//96 113//100 106//93
f 117//96 116//102 113//100
f 110//97 118//103 111//98
f 118//103 112//99 111//98
f 119//104 102//41 112//99
f 118//103 119//104 112//99
f 120//97 121//105 108//95
f 6//6 120//97 108//95
f 121//105 122//106 108//95
f 122//106 109//96 108//95
f 123//107 42//41 109//96
f 122//106 123//107 109//96
f 24//24 120//97 6//6
f 42//41 120//97 24//24
f 124//108 125//105 114//101
f 125//105 115//95 114//101
f 116//102 126//109 114//101
f 126//109 124//108 114//101
f 117//96 126//109 116//102
f 125//105 127//106 115//95
f 127//106 117//96 115//95
f 127//106 126//109 117//96
f 128//110 129//111 110//97
f 129//111 130//112 110//97
f 130//112 118//103 110//97
f 102//41 128//110 110//97
f 119//104 131//113 102//41
f 131//113 132//114 102//41
f 132//114 133//107 102//41
f 133//107 128//110 102//41
f 134//110 121//105 120//97
f 42//41 134//110 120//97
f 123//107 134//110 42//41
f 130//112 119//104 118//103
f 130//112 131//113 119//104
f 124//108 135//115 125//105
f 135//115 136//116 125//105
f 136//116 127//106 125//105
f 137//117 126//109 127//106
f 136//116 137//117 127//106
f 138//118 135//115 124//108
f 126//109 137//117 124//108
f 137//117 138//118 124//108
f 139//119 121//105 134//110
f 123//107 139//119 134//110
f 140//120 141//121 123//107
f 142//122 140//120 123//107
f 143//123 142//122 123//107
f 144//124 145//125 123//107
f 145//125 146//126 123//107
f 146//126 143//123 123//107
f 122//106 144//124 123//107
f 141//121 139//119 123//107
f 139//119 147//127 121//105
f 147//127 148//128 121//105
f 148//128 149//129 121//105
f 149//129 150//130 121//105
f 150//130 151//131 121//105
f 151//131 152//132 121//105
f 152//132 144//124 121//105
f 144//124 122//106 121//105
f 129//111 131//113 130//112
f 129//111 132//114 131//113
f 138//118 153//133 135//115
f 153//133 154//134 135//115
f 154//134 136//116 135//115
f 155//135 137//117 136//116
f 154//134 155//135 136//116
f 141//121 147//127 139//119
f 140//120 156//136 141//121
f 156//136 147//127 141//121
f 157//137 158//138 128//110
f 158//138 159//139 128//110
f 159//139 129//111 128//110
f 133//107 157//137 128//110
f 160//140 161//141 133//107
f 132//114 162//142 133//107
f 162//142 160//140 133//107
f 161//141 157//137 133//107
f 163//143 153//133 138//118
f 137//117 155//135 138//118
f 155//135 163//143 138//118
f 163//143 164//144 153//133
f 164//144 165//145 153//133
f 165//145 154//134 153//133
f 166//146 155//135 154//134
f 165//145 166//146 154//134
f 159//139 132//114 129//111
f 159//139 162//142 132//114
f 156//136 148//128 147//127
f 140//120 167//147 156//136
f 167//147 148//128 156//136
f 151//131 168//148 152//132
f 168//148 145//125 152//132
f 145//125 144//124 152//132
f 169//149 164//144 163//143
f 155//135 166//146 163//143
f 166//146 169//149 163//143
f 169//149 170//150 164//144
f 170//150 171//151 164//144
f 171//151 165//145 164//144
f 172//152 166//146 165//145
f 171//151 172//152 165//145
f 158//138 162//142 159//139
f 158//138 160//140 162//142
f 167//147 149//129 148//128
f 140//120 173//153 167//147
f 173//153 149//129 167//147
f 174//154 175//155 157//137
f 175//155 176//156 157//137
f 176//156 158//138 157//137
f 161//141 174//154 157//137
f 177//157 178//158 161//141
f 160//140 177//157 161//141
f 178//158 174//154 161//141
f 179//159 180//160 170//150
f 169//149 179//159 170//150
f 180//160 181//122 170//150
f 181//122 171//151 170//150
f 182//161 172//152 171//151
f 181//122 182//161 171//151
f 173//153 150//130 149//129
f 140//120 183//162 173//153
f 183//162 150//130 173//153
f 166//146 172//152 169//149
f 172//152 179//159 169//149
f 176//156 160//140 158//138
f 176//156 177//157 160//140
f 184//163 185//164 180//160
f 179//159 184//163 180//160
f 185//164 186//165 180//160
f 186//165 181//122 180//160
f 187//166 182//161 181//122
f 186//165 187//166 181//122
f 151//131 188//167 168//148
f 188//167 146//126 168//148
f 146//126 145//125 168//148
f 189//168 151//131 150//130
f 183//162 189//168 150//130
f 140//120 190//169 183//162
f 190//169 189//168 183//162
f 191//170 192//171 185//164
f 184//163 191//170 185//164
f 192//171 193//172 185//164
f 193//172 186//165 185//164
f 194//173 187//166 186//165
f 193//172 194//173 186//165
f 195//174 151//131 189//168
f 190//169 195//174 189//168
f 196//175 197//176 190//169
f 140//120 196//175 190//169
f 197//176 195//174 190//169
f 175//155 177//157 176//156
f 198//177 178//158 177//157
f 175//155 198//177 177//157
f 172//152 182//161 179//159
f 182//161 184//163 179//159
f 199//178 200//179 192//171
f 191//170 199//178 192//171
f 200//179 201//180 192//171
f 201//180 193//172 192//171
f 202//181 194//173 193//172
f 201//180 202//181 193//172
f 203//128 175//155 174//154
f 178//158 203//128 174//154
f 198//177 204//182 178//158
f 204//182 203//128 178//158
f 205//183 151//131 195//174
f 197//176 205//183 195//174
f 196//175 206//184 197//176
f 206//184 205//183 197//176
f 207//185 205//183 200//179
f 199//178 207//185 200//179
f 205//183 206//184 200//179
f 206//184 201//180 200//179
f 196//175 202//181 201//180
f 206//184 196//175 201//180
f 207//185 151//131 205//183
f 203//128 208//186 175//155
f 208//186 209//187 175//155
f 209//187 210//188 175//155
f 210//188 198//177 175//155
f 211//189 212//190 198//177
f 213//191 211//189 198//177
f 212//190 204//182 198//177
f 210//188 213//191 198//177
f 182//161 187//166 184//163
f 187//166 191//170 184//163
f 151//131 214//192 188//167
f 214//192 143//123 188//167
f 143//123 146//126 188//167
f 187//166 194//173 191//170
f 194//173 199//178 191//170
f 204//182 208//186 203//128
f 212//190 208//186 204//182
f 194//173 202//181 199//178
f 202//181 207//185 199//178
f 151//131 215//193 214//192
f 215//193 142//122 214//192
f 142//122 143//123 214//192
f 202//181 196//175 207//185
f 196//175 151//131 207//185
f 196//175 140//120 151//131
f 140//120 216//194 151//131
f 217//195 215//193 151//131
f 216//194 217//195 151//131
f 212//190 209//187 208//186
f 211//189 209//187 212//190
f 217//195 218//196 215//193
f 218//196 142//122 215//193
f 218//196 140//120 142//122
f 219//168 210//188 209//187
f 211//189 219//168 209//187
f 213//191 220//169 211//189
f 220//169 219//168 211//189
f 216//194 221//197 217//195
f 221//197 222//198 217//195
f 222//198 218//196 217//195
f 222//198 140//120 218//196
f 223//174 210//188 219//168
f 220//169 223//174 219//168
f 213//191 224//176 220//169
f 224//176 223//174 220//169
f 216//194 225//199 221//197
f 225//199 226//200 221//197
f 226//200 222//198 221//197
f 226//200 140//120 222//198
f 227//201 210//188 223//174
f 228//202 227//201 223//174
f 224//176 228//202 223//174
f 229//203 230//204 224//176
f 213//191 229//203 224//176
f 230//204 228//202 224//176
f 231//205 228//202 225//199
f 216//194 231//205 225//199
f 228//202 230//204 225//199
f 230//204 226//200 225//199
f 232//206 140//120 226//200
f 230//204 232//206 226//200
f 233//207 227//201 228//202
f 231//205 233//207 228//202
f 234//208 232//206 230//204
f 229//203 234//208 230//204
f 227//201 213//191 210//188
f 227//201 229//203 213//191
f 233//207 229//203 227//201
f 233//207 234//208 229//203
f 231//205 234//208 233//207
f 231//205 232//206 234//208
f 216//194 232//206 231//205
f 216//194 140//120 232//206
