# Blender v2.82 (sub 7) OBJ File: ''
# www.blender.org
o Nissan_Collision_0502.001
v -0.816066 -1.090472 0.691904
v 0.484945 -1.107730 0.682694
v 0.484945 -0.974749 0.951111
v -0.715599 -0.875172 0.960321
v -1.096446 1.096446 -0.001874
v 0.478136 1.126728 -0.001587
v 0.363388 1.112451 -0.170998
v -1.096446 1.096446 -0.221041
v -1.096446 -0.974749 -0.221041
v 0.363388 -0.988977 -0.170998
v 0.363388 -1.112451 -0.170998
v -1.096446 -1.096446 -0.221041
v 0.478136 -1.126728 -0.001586
v -1.096446 -1.096446 -0.001874
v 0.478136 -0.986327 -0.001586
v -4.246965 -1.096446 -0.221041
v -4.246965 -1.096446 -0.001874
v -4.246965 -0.974749 -0.001874
v -4.246965 -0.974749 -0.221041
v -4.029830 -1.090472 0.691904
v -4.036052 -0.875172 0.960321
v -0.816066 1.090472 0.691904
v 0.484945 1.107730 0.682694
v 0.946163 -1.096446 0.465896
v 0.921430 -1.109470 0.023535
v 0.921430 -0.986327 0.023535
v 0.946163 -0.974749 0.465896
v 0.742710 -1.109470 0.013407
v 0.799324 -1.096446 0.581696
v 0.742710 -0.986327 0.013407
v 0.799324 1.096446 0.581696
v 0.742710 1.109470 0.013407
v 0.799324 -0.974749 0.861376
v 0.946163 1.096446 0.465896
v 0.921430 1.109470 0.023535
v -0.715599 0.000000 0.960321
v 0.484945 0.000000 0.951111
v 0.484945 0.974749 0.951111
v -0.715599 0.875172 0.960321
v -4.246965 0.974749 -0.001874
v -4.246965 0.000000 -0.001874
v -4.036052 0.000000 0.960321
v -4.036052 0.875172 0.960321
v -4.246965 0.000000 -0.221041
v -4.246965 0.974749 -0.221041
v -1.096446 0.974749 -0.221041
v 0.363388 0.988977 -0.170998
v 0.363388 0.000000 -0.170998
v -1.096446 0.000000 -0.221041
v 0.478136 0.986327 -0.001587
v 0.478136 0.000000 -0.001587
v 0.742710 0.000000 0.013407
v 0.742710 0.986327 0.013407
v 0.921430 0.000000 0.023535
v 0.921430 0.986327 0.023535
v 0.946163 0.000000 0.465896
v 0.946163 0.974749 0.465896
v 0.799324 0.974749 0.861376
v 0.799324 0.000000 0.861376
v -4.246965 1.096446 -0.001874
v -4.029830 1.090472 0.691904
v -4.246965 1.096446 -0.221041
v -1.189232 -1.096446 -0.001874
v -1.189232 -1.096446 -0.221041
v -1.189232 -0.974749 -0.221041
v -0.910715 -1.090472 0.691904
v -0.813390 -0.875172 0.936468
v -1.297932 0.000000 1.649239
v -1.297932 0.580666 1.649239
v -1.368202 0.581207 1.646706
v -1.368202 0.000000 1.646706
v -1.189232 0.000000 -0.221041
v -1.189232 0.974749 -0.221041
v -1.297932 -0.580666 1.649239
v -1.368202 -0.581207 1.646706
v -0.910715 1.090472 0.691904
v -0.813390 0.875172 0.936468
v -1.189232 1.096446 -0.001874
v -1.189232 1.096446 -0.221041
v -0.823801 0.820450 1.088327
v -0.823801 0.000000 1.088327
v -0.887298 0.820551 1.087856
v -3.970627 0.000000 1.072346
v -3.970627 0.823867 1.072346
v -0.823801 -0.820450 1.088327
v -3.970627 -0.823867 1.072346
v -0.887298 -0.820551 1.087856
v -3.683938 -0.599055 1.563229
v -3.683938 0.000000 1.563229
v -3.683938 0.599055 1.563229
v -0.968428 0.875172 0.936468
v -1.010772 0.820711 1.087110
v -1.479609 0.582066 1.642690
v -1.479609 0.000000 1.642690
v -1.479609 -0.582066 1.642690
v -1.010772 -0.820711 1.087110
v -0.968428 -0.875172 0.936468
v -1.060771 -1.090472 0.691904
v -1.336336 -1.096446 -0.001874
v -1.336336 -1.096446 -0.221041
v -1.336336 -0.974749 -0.221041
v -1.336336 0.000000 -0.221041
v -1.336336 0.974749 -0.221041
v -1.336336 1.096446 -0.221041
v -1.336336 1.096446 -0.001874
v -1.060771 1.090472 0.691904
v -0.813390 1.071346 0.936468
v -0.968428 1.071346 0.936468
v -1.010772 1.067852 1.087110
v -0.887298 1.067693 1.087856
v -0.968428 -1.071346 0.936468
v -0.813390 -1.071346 0.936468
v -0.887298 -1.067693 1.087856
v -1.010772 -1.067852 1.087110
vt 0.375000 0.236126
vt 0.375000 0.236126
vt 0.375000 0.236126
vt 0.375000 0.013874
vt 0.375000 0.013874
vt 0.375000 0.013874
vt 0.375000 0.236126
vt 0.375000 0.236126
vt 0.375000 0.236126
vt 0.375000 0.236126
vt 0.375000 0.236126
vt 0.375000 0.013874
vt 0.375000 0.013874
vt 0.375000 0.013874
vt 0.375000 0.013874
vt 0.375000 0.013874
vt 0.625000 0.000000
vt 0.375000 0.013874
vt 0.375000 0.000000
vt 0.375000 0.453432
vt 0.625000 0.500000
vt 0.375000 0.500000
vt 0.625000 0.736126
vt 0.375000 0.750000
vt 0.375000 0.736126
vt 0.625000 0.750000
vt 0.375000 0.796568
vt 0.828432 0.013874
vt 0.875000 0.000000
vt 0.875000 0.013874
vt 0.171568 0.000000
vt 0.125000 0.013874
vt 0.125000 0.000000
vt 0.625000 0.796568
vt 0.375000 1.000000
vt 0.171568 0.013874
vt 0.375000 0.000000
vt 0.375000 0.013874
vt 0.375000 0.250000
vt 0.625000 0.453432
vt 0.625000 0.000000
vt 0.828432 0.013874
vt 0.625000 0.013874
vt 0.828432 0.000000
vt 0.625000 0.000000
vt 0.828432 0.000000
vt 0.828432 0.250000
vt 0.625000 0.250000
vt 0.828432 0.250000
vt 0.625000 0.013874
vt 0.625000 0.250000
vt 0.828432 0.250000
vt 0.828432 0.000000
vt 0.625000 0.125000
vt 0.375000 0.236126
vt 0.375000 0.125000
vt 0.171568 0.125000
vt 0.375000 0.236126
vt 0.171568 0.236126
vt 0.125000 0.236126
vt 0.125000 0.125000
vt 0.375000 0.513874
vt 0.625000 0.625000
vt 0.375000 0.625000
vt 0.828432 0.236126
vt 0.875000 0.125000
vt 0.875000 0.236126
vt 0.828432 0.125000
vt 0.828432 0.236126
vt 0.828432 0.125000
vt 0.828432 0.236126
vt 0.828432 0.125000
vt 0.625000 0.236126
vt 0.625000 0.125000
vt 0.625000 0.125000
vt 0.625000 0.236126
vt 0.625000 0.236126
vt 0.375000 0.125000
vt 0.828432 0.013874
vt 0.625000 0.250000
vt 0.375000 0.250000
vt 0.171568 0.250000
vt 0.125000 0.250000
vt 0.625000 0.513874
vt 0.875000 0.250000
vt 0.171568 0.000000
vt 0.125000 0.000000
vt 0.125000 0.000000
vt 0.125000 0.013874
vt 0.125000 0.013874
vt 0.375000 0.000000
vt 0.171568 0.000000
vt 0.375000 0.236126
vt 0.375000 0.125000
vt 0.375000 0.125000
vt 0.125000 0.125000
vt 0.125000 0.236126
vt 0.125000 0.236126
vt 0.375000 0.013874
vt 0.375000 0.013874
vt 0.125000 0.125000
vt 0.171568 0.250000
vt 0.375000 0.250000
vt 0.125000 0.250000
vt 0.171568 0.250000
vt 0.125000 0.250000
vt 0.375000 0.236126
vt 0.375000 0.125000
vt 0.375000 0.236126
vt 0.375000 0.013874
vt 0.375000 0.013874
vt 0.375000 0.125000
vt 0.375000 0.013874
vt 0.375000 0.125000
vt 0.375000 0.236126
vt 0.375000 0.236126
vt 0.375000 0.125000
vt 0.375000 0.013874
vt 0.375000 0.000000
vt 0.171568 0.000000
vt 0.125000 0.000000
vt 0.125000 0.013874
vt 0.125000 0.125000
vt 0.125000 0.236126
vt 0.125000 0.250000
vt 0.171568 0.250000
vt 0.375000 0.250000
vt 0.375000 0.236126
vt 0.625000 0.013874
vt 0.625000 1.000000
vn 0.0000 0.9997 0.0241
vn 0.0011 -0.9997 0.0235
vn 0.0000 0.0000 -1.0000
vn -0.9627 0.0000 -0.2706
vn -0.0060 0.0000 1.0000
vn 0.8986 0.0000 0.4387
vn 0.0011 0.9997 0.0235
vn 0.0000 -0.9997 0.0241
vn -0.0594 -0.8766 0.4775
vn 0.0090 -0.2195 0.9756
vn -0.0059 -0.7790 0.6270
vn -0.0154 0.9997 0.0212
vn -0.0186 0.9976 -0.0662
vn -0.0110 0.9999 0.0000
vn 0.0343 0.0000 -0.9994
vn -0.0186 -0.9976 -0.0662
vn -0.0154 -0.9997 0.0212
vn -0.0110 -0.9999 0.0000
vn 0.8280 -0.0000 -0.5608
vn -0.9683 -0.0747 0.2385
vn -1.0000 0.0000 0.0000
vn -0.0169 -0.9999 -0.0019
vn -0.0177 -0.9997 0.0192
vn -0.9973 -0.0377 0.0631
vn -0.9241 -0.2978 0.2395
vn -0.9769 -0.0335 0.2109
vn -0.0177 0.9997 0.0192
vn -0.0169 0.9999 -0.0019
vn 0.9984 0.0000 -0.0558
vn 0.0577 -0.9981 0.0200
vn 0.0484 -0.9986 0.0230
vn 0.0446 -0.9986 0.0273
vn 0.0566 -0.0000 -0.9984
vn 0.0577 0.9981 0.0200
vn 0.0484 0.9986 0.0230
vn 0.0444 0.9988 0.0211
vn 0.4812 -0.2275 0.8466
vn 0.1415 -0.8971 0.4186
vn 0.5066 -0.7424 0.4384
vn 0.0137 0.9997 0.0226
vn -0.0017 0.9996 0.0295
vn 0.0444 -0.9988 0.0211
vn 0.0137 -0.9997 0.0226
vn 0.8944 0.0637 0.4427
vn 0.0077 0.0000 1.0000
vn 0.0090 0.2195 0.9756
vn -0.9865 0.0448 0.1572
vn -0.9769 0.0335 0.2109
vn -0.9818 -0.0208 0.1889
vn 0.6945 0.0589 0.7170
vn 0.8945 -0.0654 0.4422
vn 0.6990 0.1801 0.6921
vn 0.2620 0.1482 0.9536
vn -0.9768 0.0000 0.2141
vn 0.9375 0.0000 0.3481
vn 0.2745 0.0000 0.9616
vn -0.0594 0.8766 0.4775
vn -0.0059 0.7790 0.6270
vn -0.9241 0.2978 0.2395
vn -0.9684 0.0743 0.2381
vn 0.5066 0.7424 0.4384
vn 0.6192 0.0000 0.7852
vn 0.1415 0.8971 0.4186
vn 0.0000 -1.0000 0.0000
vn -0.0000 -1.0000 0.0086
vn -0.0240 -0.7502 0.6607
vn -0.0749 -0.7481 0.6594
vn 0.0058 -0.7506 0.6608
vn -0.0360 0.0000 0.9994
vn -0.0240 0.7502 0.6607
vn -0.0749 0.7481 0.6594
vn -0.1594 0.7401 0.6533
vn -0.0000 1.0000 0.0086
vn 0.0000 1.0000 0.0000
vn 0.7637 0.0000 0.6456
vn -0.0647 0.9402 0.3344
vn 0.0008 0.9274 0.3741
vn -0.0812 0.9394 0.3330
vn -0.8635 0.0000 0.5043
vn -0.0647 -0.9402 0.3344
vn 0.0008 -0.9274 0.3741
vn 0.0065 -0.9218 0.3875
vn -0.0067 -0.9213 0.3888
vn -0.0067 -0.9210 0.3895
vn 0.0065 0.9218 0.3875
vn -0.0067 0.9213 0.3888
vn -0.0006 0.9396 0.3422
vn -0.0020 0.9053 0.4247
vn -0.0015 0.9242 0.3818
vn -0.0032 0.9174 0.3979
vn -0.0082 0.9073 0.4203
vn -0.0020 -0.9053 0.4247
vn -0.0032 -0.9174 0.3980
vn -0.0082 -0.9073 0.4203
vn -0.0006 -0.9396 0.3422
vn 0.0032 -0.9099 0.4148
vn 0.0038 -0.7580 0.6522
vn 0.0004 -0.7781 0.6281
vn 0.0000 -0.7801 0.6257
vn 0.0038 0.7580 0.6522
vn 0.0004 0.7781 0.6281
vn 0.0035 0.7593 0.6508
vn -0.0067 0.9210 0.3895
vn -0.0015 -0.9242 0.3818
vn 0.0035 -0.7593 0.6508
vn 0.0058 0.7506 0.6607
vn -0.0305 -0.3205 0.9467
vn -0.0131 -0.9995 0.0279
vn -0.0131 0.9995 0.0279
vn 0.0446 0.9986 0.0273
vn 0.2620 -0.1530 0.9529
vn -0.0017 -0.9996 0.0295
vn -0.0305 0.3205 0.9467
vn -0.1594 -0.7401 0.6533
vn -0.0812 -0.9394 0.3330
vn 0.0032 0.9099 0.4148
vn 0.0000 0.7801 0.6257
s off
f 108/1/1 110/2/1 107/3/1
f 111/4/2 113/5/2 114/6/2
f 91/7/3 107/3/3 77/8/3
f 91/7/4 109/9/4 108/1/4
f 92/10/5 110/2/5 109/9/5
f 77/8/6 110/2/6 82/11/6
f 97/12/3 112/13/3 111/4/3
f 67/14/6 113/5/6 112/13/6
f 96/15/5 113/5/5 87/16/5
f 97/12/4 114/6/4 96/15/4
f 108/1/7 109/9/7 110/2/7
f 111/4/8 112/13/8 113/5/8
f 91/7/3 108/1/3 107/3/3
f 91/7/4 92/10/4 109/9/4
f 92/10/5 82/11/5 110/2/5
f 77/8/6 107/3/6 110/2/6
f 97/12/3 67/14/3 112/13/3
f 67/14/6 87/16/6 113/5/6
f 96/15/5 114/6/5 113/5/5
f 97/12/4 111/4/4 114/6/4
s 1
f 2/17/9 4/18/10 1/19/11
f 5/20/12 7/21/13 8/22/14
f 10/23/15 12/24/15 9/25/15
f 11/26/16 14/27/17 12/24/18
f 15/28/19 11/29/19 10/30/19
f 17/31/20 19/32/21 16/33/21
f 13/34/22 1/35/23 14/27/17
f 18/36/24 20/37/25 21/38/26
f 22/39/27 6/40/28 5/20/12
f 24/41/29 26/42/29 27/43/29
f 13/44/30 29/45/31 2/17/32
f 15/28/33 28/46/33 13/44/33
f 6/47/34 31/48/35 32/49/36
f 33/50/37 2/17/38 29/45/39
f 32/49/36 34/51/40 35/52/41
f 28/46/33 26/42/33 25/53/33
f 28/46/42 24/41/43 29/45/31
f 29/45/39 27/43/44 33/50/37
f 37/54/45 39/55/46 36/56/45
f 41/57/47 43/58/48 40/59/49
f 41/57/47 45/60/21 44/61/21
f 46/62/15 48/63/15 49/64/15
f 50/65/19 48/66/19 47/67/19
f 51/68/33 53/69/33 52/70/33
f 52/70/33 55/71/33 54/72/33
f 54/72/29 57/73/29 56/74/29
f 59/75/50 57/73/51 58/76/52
f 38/77/53 59/75/50 58/76/52
f 4/18/10 37/54/45 36/56/45
f 41/57/47 21/38/26 42/78/54
f 18/36/24 44/61/21 19/32/21
f 48/63/15 9/25/15 49/64/15
f 15/28/19 48/66/19 51/68/19
f 15/28/33 52/70/33 30/79/33
f 30/79/33 54/72/33 26/42/33
f 27/43/29 54/72/29 56/74/29
f 33/50/37 56/74/55 59/75/50
f 37/54/56 33/50/37 59/75/50
f 39/55/46 23/80/57 22/39/58
f 40/59/49 61/81/59 60/82/60
f 40/59/49 62/83/21 45/60/21
f 8/22/15 47/84/15 46/62/15
f 50/65/19 7/85/19 6/47/19
f 50/65/33 32/49/33 53/69/33
f 55/71/33 32/49/33 35/52/33
f 55/71/29 34/51/29 57/73/29
f 31/48/61 57/73/51 34/51/62
f 23/80/63 58/76/52 31/48/61
f 14/86/64 64/87/64 12/88/64
f 9/89/3 64/87/3 65/90/3
f 14/86/65 66/91/65 63/92/65
f 1/19/66 67/14/67 66/91/68
f 69/93/69 71/94/69 68/95/69
f 49/96/3 73/97/3 46/98/3
f 74/99/69 71/94/69 75/100/69
f 9/89/3 72/101/3 49/96/3
f 22/39/70 77/8/71 39/55/72
f 5/102/73 76/103/73 22/39/73
f 8/104/74 78/105/74 5/102/74
f 46/98/3 79/106/3 8/104/3
f 36/56/75 80/107/75 81/108/75
f 77/8/76 80/107/77 39/55/78
f 42/78/79 84/109/79 43/58/79
f 36/56/75 85/110/75 4/18/75
f 42/78/79 86/111/79 83/112/79
f 67/14/80 85/110/81 87/16/82
f 81/108/75 69/93/75 68/95/75
f 81/108/75 74/99/75 85/110/75
f 87/16/82 74/99/83 75/100/84
f 83/112/79 88/113/79 89/114/79
f 83/112/79 90/115/79 84/109/79
f 82/11/85 69/93/86 80/107/77
f 91/7/87 84/109/88 92/10/89
f 93/116/90 84/109/88 90/115/91
f 93/116/69 89/114/69 94/117/69
f 95/118/69 89/114/69 88/113/69
f 86/111/92 95/118/93 88/113/94
f 97/12/95 86/111/92 21/38/96
f 98/119/97 21/38/98 20/37/99
f 99/120/65 20/37/65 17/31/65
f 99/120/64 16/33/64 100/121/64
f 100/121/3 19/32/3 101/122/3
f 101/122/3 44/61/3 102/123/3
f 102/123/3 45/60/3 103/124/3
f 103/124/3 62/83/3 104/125/3
f 104/125/74 60/82/74 105/126/74
f 105/126/73 61/81/73 106/127/73
f 106/127/100 43/58/101 91/7/102
f 70/128/103 92/10/89 93/116/90
f 70/128/69 94/117/69 71/94/69
f 75/100/69 94/117/69 95/118/69
f 96/15/104 75/100/84 95/118/93
f 66/91/68 97/12/105 98/119/97
f 63/92/65 98/119/65 99/120/65
f 63/92/64 100/121/64 64/87/64
f 64/87/3 101/122/3 65/90/3
f 65/90/3 102/123/3 72/101/3
f 72/101/3 103/124/3 73/97/3
f 73/97/3 104/125/3 79/106/3
f 79/106/74 105/126/74 78/105/74
f 78/105/73 106/127/73 76/103/73
f 76/103/106 91/7/102 77/8/71
f 2/17/9 3/129/107 4/18/10
f 5/20/12 6/40/28 7/21/13
f 10/23/15 11/26/15 12/24/15
f 11/26/16 13/34/22 14/27/17
f 15/28/19 13/44/19 11/29/19
f 17/31/20 18/36/24 19/32/21
f 13/34/22 2/130/108 1/35/23
f 18/36/24 17/31/20 20/37/25
f 22/39/27 23/80/109 6/40/28
f 24/41/29 25/53/29 26/42/29
f 13/44/30 28/46/42 29/45/31
f 15/28/33 30/79/33 28/46/33
f 6/47/34 23/80/110 31/48/35
f 33/50/37 3/129/111 2/17/38
f 32/49/36 31/48/35 34/51/40
f 28/46/33 30/79/33 26/42/33
f 28/46/42 25/53/112 24/41/43
f 29/45/39 24/41/62 27/43/44
f 37/54/45 38/77/113 39/55/46
f 41/57/47 42/78/54 43/58/48
f 41/57/47 40/59/49 45/60/21
f 46/62/15 47/84/15 48/63/15
f 50/65/19 51/68/19 48/66/19
f 51/68/33 50/65/33 53/69/33
f 52/70/33 53/69/33 55/71/33
f 54/72/29 55/71/29 57/73/29
f 59/75/50 56/74/55 57/73/51
f 38/77/53 37/54/56 59/75/50
f 4/18/10 3/129/107 37/54/45
f 41/57/47 18/36/24 21/38/26
f 18/36/24 41/57/47 44/61/21
f 48/63/15 10/23/15 9/25/15
f 15/28/19 10/30/19 48/66/19
f 15/28/33 51/68/33 52/70/33
f 30/79/33 52/70/33 54/72/33
f 27/43/29 26/42/29 54/72/29
f 33/50/37 27/43/44 56/74/55
f 37/54/56 3/129/111 33/50/37
f 39/55/46 38/77/113 23/80/57
f 40/59/49 43/58/48 61/81/59
f 40/59/49 60/82/60 62/83/21
f 8/22/15 7/21/15 47/84/15
f 50/65/19 47/67/19 7/85/19
f 50/65/33 6/47/33 32/49/33
f 55/71/33 53/69/33 32/49/33
f 55/71/29 35/52/29 34/51/29
f 31/48/61 58/76/52 57/73/51
f 23/80/63 38/77/53 58/76/52
f 14/86/64 63/92/64 64/87/64
f 9/89/3 12/88/3 64/87/3
f 14/86/65 1/19/65 66/91/65
f 1/19/66 4/18/114 67/14/67
f 69/93/69 70/128/69 71/94/69
f 49/96/3 72/101/3 73/97/3
f 74/99/69 68/95/69 71/94/69
f 9/89/3 65/90/3 72/101/3
f 22/39/70 76/103/106 77/8/71
f 5/102/73 78/105/73 76/103/73
f 8/104/74 79/106/74 78/105/74
f 46/98/3 73/97/3 79/106/3
f 36/56/75 39/55/75 80/107/75
f 77/8/76 82/11/85 80/107/77
f 42/78/79 83/112/79 84/109/79
f 36/56/75 81/108/75 85/110/75
f 42/78/79 21/38/79 86/111/79
f 67/14/80 4/18/115 85/110/81
f 81/108/75 80/107/75 69/93/75
f 81/108/75 68/95/75 74/99/75
f 87/16/82 85/110/81 74/99/83
f 83/112/79 86/111/79 88/113/79
f 83/112/79 89/114/79 90/115/79
f 82/11/85 70/128/103 69/93/86
f 91/7/87 43/58/116 84/109/88
f 93/116/90 92/10/89 84/109/88
f 93/116/69 90/115/69 89/114/69
f 95/118/69 94/117/69 89/114/69
f 86/111/92 96/15/104 95/118/93
f 97/12/95 96/15/104 86/111/92
f 98/119/97 97/12/105 21/38/98
f 99/120/65 98/119/65 20/37/65
f 99/120/64 17/31/64 16/33/64
f 100/121/3 16/33/3 19/32/3
f 101/122/3 19/32/3 44/61/3
f 102/123/3 44/61/3 45/60/3
f 103/124/3 45/60/3 62/83/3
f 104/125/74 62/83/74 60/82/74
f 105/126/73 60/82/73 61/81/73
f 106/127/100 61/81/117 43/58/101
f 70/128/103 82/11/85 92/10/89
f 70/128/69 93/116/69 94/117/69
f 75/100/69 71/94/69 94/117/69
f 96/15/104 87/16/82 75/100/84
f 66/91/68 67/14/67 97/12/105
f 63/92/65 66/91/65 98/119/65
f 63/92/64 99/120/64 100/121/64
f 64/87/3 100/121/3 101/122/3
f 65/90/3 101/122/3 102/123/3
f 72/101/3 102/123/3 103/124/3
f 73/97/3 103/124/3 104/125/3
f 79/106/74 104/125/74 105/126/74
f 78/105/73 105/126/73 106/127/73
f 76/103/106 106/127/100 91/7/102
