# Blender v2.82 (sub 7) OBJ File: ''
# www.blender.org
mtllib suv_rim.mtl
o Nissan_Wheel_OBJ_0331
v 0.052955 0.117255 -0.249135
v 0.103597 0.092435 -0.232681
v 0.052955 0.092435 -0.249135
v 0.000000 0.092435 -0.254701
v 0.103597 0.117212 -0.232681
v 0.000000 0.117210 -0.254701
v 0.149710 0.092435 -0.206057
v -0.052955 0.117255 -0.249135
v 0.149710 0.117212 -0.206057
v -0.052955 0.092435 -0.249135
v 0.189280 0.117212 -0.170428
v -0.103596 0.092435 -0.232681
v 0.189280 0.092434 -0.170428
v -0.103596 0.117210 -0.232681
v 0.220577 0.092434 -0.127350
v -0.149710 0.117212 -0.206057
v 0.220577 0.117210 -0.127351
v -0.149710 0.092435 -0.206057
v 0.242234 0.117212 -0.078707
v -0.189280 0.117210 -0.170428
v 0.242235 0.092389 -0.078707
v -0.189280 0.092435 -0.170428
v 0.253306 0.117212 -0.026624
v -0.220578 0.092435 -0.127350
v 0.253306 0.092389 -0.026624
v -0.220578 0.117210 -0.127350
v 0.253306 0.092480 0.026714
v -0.242235 0.117210 -0.078707
v 0.253306 0.117255 0.026623
v -0.242235 0.092389 -0.078707
v 0.242235 0.117302 0.078707
v -0.253305 0.117210 -0.026624
v 0.242235 0.092434 0.078752
v -0.253305 0.092389 -0.026623
v 0.220577 0.092434 0.127350
v -0.253305 0.117302 0.026623
v 0.220577 0.117255 0.127350
v -0.253305 0.092434 0.026623
v 0.189280 0.092435 0.170428
v -0.242235 0.092435 0.078752
v 0.189280 0.117210 0.170428
v -0.242235 0.117302 0.078707
v 0.149710 0.117257 0.206057
v -0.220578 0.092435 0.127350
v 0.149710 0.092434 0.206057
v -0.220578 0.117255 0.127350
v 0.103597 0.092435 0.232681
v -0.189280 0.117210 0.170428
v 0.103597 0.117210 0.232681
v -0.189280 0.092435 0.170428
v 0.052955 0.092435 0.249135
v -0.149710 0.117257 0.206057
v 0.052955 0.117210 0.249135
v -0.149710 0.092435 0.206057
v 0.000000 0.092435 0.254701
v -0.103596 0.092435 0.232681
v 0.000000 0.117210 0.254701
v -0.103596 0.117210 0.232681
v -0.052955 0.117210 0.249135
v -0.052955 0.092435 0.249135
v 0.000000 0.117210 0.000000
v 0.000000 0.092390 0.000000
vt 0.944766 0.976938
vt 0.968068 0.988358
vt 0.944766 0.988358
vt 0.920400 0.988358
vt 0.968068 0.976958
vt 0.920400 0.976959
vt 0.989286 0.988358
vt 0.896034 0.976938
vt 0.989286 0.976958
vt 0.896034 0.988358
vt 0.608760 0.963409
vt 0.626003 0.951418
vt 0.626003 0.963409
vt 0.872733 0.988358
vt 0.608760 0.951418
vt 0.872733 0.976959
vt 0.587911 0.951418
vt 0.623695 0.976983
vt 0.637099 0.976984
vt 0.637099 0.989458
vt 0.587911 0.963408
vt 0.623695 0.989458
vt 0.564369 0.963409
vt 0.605756 0.976984
vt 0.564369 0.951396
vt 0.605756 0.989458
vt 0.539163 0.963409
vt 0.584068 0.989458
vt 0.539163 0.951396
vt 0.584068 0.976984
vt 0.513349 0.951440
vt 0.559577 0.976984
vt 0.513393 0.963430
vt 0.559577 0.989481
vt 0.488186 0.963453
vt 0.533354 0.976984
vt 0.488164 0.951418
vt 0.533354 0.989481
vt 0.464644 0.951418
vt 0.506545 0.976938
vt 0.464644 0.963430
vt 0.506545 0.989458
vt 0.443796 0.951418
vt 0.480299 0.989458
vt 0.443795 0.963408
vt 0.480322 0.976938
vt 0.426552 0.963431
vt 0.455831 0.989458
vt 0.426552 0.951418
vt 0.455831 0.976961
vt 0.989281 0.988358
vt 0.968065 0.976938
vt 0.989281 0.976938
vt 0.434143 0.976984
vt 0.968065 0.988337
vt 0.434143 0.989458
vt 0.944766 0.976938
vt 0.416204 0.976961
vt 0.944766 0.988337
vt 0.416204 0.989458
vt 0.920401 0.976938
vt 0.402800 0.989458
vt 0.920401 0.988337
vt 0.402800 0.976984
vt 0.896037 0.988337
vt 0.872738 0.988337
vt 0.872738 0.976938
vt 0.896037 0.976938
vt 0.202123 0.205689
vt 0.212972 0.184395
vt 0.308845 0.246656
vt 0.195937 0.228773
vt 0.228012 0.165823
vt 0.194687 0.252638
vt 0.246584 0.150783
vt 0.198425 0.276242
vt 0.267878 0.139933
vt 0.206990 0.298553
vt 0.290962 0.133748
vt 0.220005 0.318596
vt 0.314828 0.132497
vt 0.236904 0.335495
vt 0.338432 0.136236
vt 0.256947 0.348511
vt 0.360743 0.144800
vt 0.279258 0.357075
vt 0.380785 0.157816
vt 0.302862 0.360814
vt 0.397684 0.174715
vt 0.326727 0.359563
vt 0.410700 0.194758
vt 0.349811 0.353378
vt 0.419265 0.217069
vt 0.371105 0.342528
vt 0.423003 0.240673
vt 0.389678 0.327488
vt 0.421752 0.264538
vt 0.404717 0.308916
vt 0.415567 0.287622
vt 0.202123 0.205689
vt 0.212973 0.184395
vt 0.308845 0.246656
vt 0.195938 0.228773
vt 0.228013 0.165823
vt 0.194687 0.252638
vt 0.246585 0.150783
vt 0.198425 0.276242
vt 0.267879 0.139934
vt 0.206990 0.298553
vt 0.290963 0.133749
vt 0.220005 0.318596
vt 0.314828 0.132498
vt 0.236904 0.335494
vt 0.338472 0.136243
vt 0.256947 0.348510
vt 0.360763 0.144804
vt 0.279258 0.357075
vt 0.380785 0.157817
vt 0.302861 0.360813
vt 0.397684 0.174716
vt 0.326747 0.359566
vt 0.410700 0.194758
vt 0.349811 0.353378
vt 0.419264 0.217069
vt 0.371104 0.342528
vt 0.423002 0.240673
vt 0.389677 0.327488
vt 0.421752 0.264539
vt 0.404716 0.308916
vt 0.415566 0.287623
vn 0.2052 0.0000 -0.9787
vn 0.4025 0.0000 -0.9154
vn -0.0000 -0.0000 -1.0000
vn 0.5887 -0.0000 -0.8084
vn -0.2127 0.0000 -0.9771
vn -0.2128 -0.0000 -0.9771
vn 0.7452 -0.0000 -0.6668
vn -0.4090 -0.0000 -0.9125
vn 0.8644 0.0000 -0.5029
vn -0.5924 0.0000 -0.8057
vn 0.8643 0.0000 -0.5029
vn 0.9541 0.0000 -0.2996
vn -0.7491 0.0000 -0.6624
vn 0.9955 0.0000 -0.0948
vn -0.8677 -0.0000 -0.4970
vn 0.9947 0.0000 0.1026
vn -0.9541 -0.0000 -0.2996
vn 0.9947 0.0000 0.1027
vn 0.9518 0.0000 0.3068
vn -0.9963 0.0000 -0.0863
vn 0.8644 0.0000 0.5029
vn -0.9955 0.0000 0.0948
vn 0.8643 -0.0000 0.5029
vn 0.7417 0.0000 0.6707
vn -0.9541 0.0000 0.2996
vn 0.5835 -0.0000 0.8121
vn -0.8644 0.0000 0.5029
vn -0.8643 0.0000 0.5029
vn 0.4025 0.0000 0.9154
vn -0.7452 0.0000 0.6668
vn 0.1976 -0.0000 0.9803
vn -0.5887 -0.0000 0.8084
vn -0.5886 -0.0000 0.8084
vn -0.0000 0.0000 1.0000
vn -0.4025 -0.0000 0.9154
vn -0.2052 -0.0000 0.9787
vn 0.0001 1.0000 0.0000
vn 0.0000 1.0000 -0.0002
vn 0.0000 1.0000 -0.0000
vn 0.0000 1.0000 0.0002
vn -0.0001 1.0000 0.0000
vn -0.0000 1.0000 -0.0001
vn -0.0001 1.0000 -0.0001
vn 0.0001 1.0000 -0.0001
vn 0.0000 -1.0000 -0.0002
vn 0.0001 -1.0000 -0.0002
vn 0.0000 -1.0000 0.0000
vn -0.0000 -1.0000 0.0002
vn 0.0001 -1.0000 -0.0001
vn -0.0001 -1.0000 -0.0002
vn -0.0000 -1.0000 -0.0001
vn 0.0001 -1.0000 0.0001
vn -0.0001 -1.0000 -0.0001
vn -0.0001 -1.0000 0.0001
vn 0.0002 -1.0000 0.0001
vn -0.0002 -1.0000 0.0001
vn 0.0001 -1.0000 0.0002
vn -0.0001 -1.0000 0.0002
usemtl lambert7SG
s 1
f 1/1/1 2/2/2 3/3/1
f 4/4/3 1/1/1 3/3/1
f 2/2/2 1/1/1 5/5/2
f 1/1/1 4/4/3 6/6/3
f 5/5/2 7/7/4 2/2/2
f 8/8/5 6/6/3 4/4/3
f 5/5/2 9/9/4 7/7/4
f 8/8/5 4/4/3 10/10/6
f 11/11/7 7/12/4 9/13/4
f 12/14/8 8/8/5 10/10/6
f 7/12/4 11/11/7 13/15/7
f 8/8/5 12/14/8 14/16/8
f 11/11/7 15/17/9 13/15/7
f 16/18/10 14/19/8 12/20/8
f 11/11/7 17/21/11 15/17/9
f 16/18/10 12/20/8 18/22/10
f 19/23/12 15/17/9 17/21/11
f 18/22/10 20/24/13 16/18/10
f 15/17/9 19/23/12 21/25/12
f 20/24/13 18/22/10 22/26/13
f 23/27/14 21/25/12 19/23/12
f 24/28/15 20/24/13 22/26/13
f 21/25/12 23/27/14 25/29/14
f 20/24/13 24/28/15 26/30/15
f 23/27/14 27/31/16 25/29/14
f 28/32/17 26/30/15 24/28/15
f 23/27/14 29/33/18 27/31/16
f 28/32/17 24/28/15 30/34/17
f 31/35/19 27/31/16 29/33/18
f 32/36/20 28/32/17 30/34/17
f 27/31/16 31/35/19 33/37/19
f 32/36/20 30/34/17 34/38/20
f 31/35/19 35/39/21 33/37/19
f 36/40/22 32/36/20 34/38/20
f 31/35/19 37/41/23 35/39/21
f 36/40/22 34/38/20 38/42/22
f 37/41/23 39/43/24 35/39/21
f 40/44/25 36/40/22 38/42/22
f 37/41/23 41/45/24 39/43/24
f 36/40/22 40/44/25 42/46/25
f 43/47/26 39/43/24 41/45/24
f 44/48/27 42/46/25 40/44/25
f 39/43/24 43/47/26 45/49/26
f 42/46/25 44/48/27 46/50/28
f 43/51/26 47/52/29 45/53/26
f 48/54/30 46/50/28 44/48/27
f 43/51/26 49/55/29 47/52/29
f 48/54/30 44/48/27 50/56/30
f 49/55/29 51/57/31 47/52/29
f 48/54/30 50/56/30 52/58/32
f 49/55/29 53/59/31 51/57/31
f 52/58/32 50/56/30 54/60/33
f 53/59/31 55/61/34 51/57/31
f 56/62/35 52/58/32 54/60/33
f 53/59/31 57/63/34 55/61/34
f 52/58/32 56/62/35 58/64/35
f 59/65/36 55/61/34 57/63/34
f 59/65/36 58/66/35 56/67/35
f 55/61/34 59/65/36 60/68/36
f 59/65/36 56/67/35 60/68/36
f 5/69/37 1/70/38 61/71/39
f 9/72/39 5/69/37 61/71/39
f 1/70/38 6/73/39 61/71/39
f 11/74/39 9/72/39 61/71/39
f 6/73/39 8/75/40 61/71/39
f 17/76/39 11/74/39 61/71/39
f 8/75/40 14/77/41 61/71/39
f 19/78/39 17/76/39 61/71/39
f 14/77/41 16/79/39 61/71/39
f 23/80/42 19/78/39 61/71/39
f 16/79/39 20/81/39 61/71/39
f 29/82/39 23/80/42 61/71/39
f 20/81/39 26/83/39 61/71/39
f 31/84/39 29/82/39 61/71/39
f 26/83/39 28/85/39 61/71/39
f 37/86/39 31/84/39 61/71/39
f 28/85/39 32/87/39 61/71/39
f 41/88/39 37/86/39 61/71/39
f 32/87/39 36/89/39 61/71/39
f 43/90/43 41/88/39 61/71/39
f 36/89/39 42/91/39 61/71/39
f 49/92/41 43/90/43 61/71/39
f 42/91/39 46/93/39 61/71/39
f 53/94/39 49/92/41 61/71/39
f 46/93/39 48/95/39 61/71/39
f 57/96/39 53/94/39 61/71/39
f 48/95/39 52/97/44 61/71/39
f 59/98/39 57/96/39 61/71/39
f 52/97/44 58/99/37 61/71/39
f 58/99/37 59/98/39 61/71/39
f 3/100/45 2/101/46 62/102/47
f 4/103/48 3/100/45 62/102/47
f 2/101/46 7/104/49 62/102/47
f 10/105/45 4/103/48 62/102/47
f 7/104/49 13/106/49 62/102/47
f 12/107/50 10/105/45 62/102/47
f 13/106/49 15/108/51 62/102/47
f 18/109/52 12/107/50 62/102/47
f 15/108/51 21/110/47 62/102/47
f 22/111/53 18/109/52 62/102/47
f 21/110/47 25/112/47 62/102/47
f 24/113/51 22/111/53 62/102/47
f 25/112/47 27/114/47 62/102/47
f 30/115/51 24/113/51 62/102/47
f 27/114/47 33/116/54 62/102/47
f 34/117/51 30/115/51 62/102/47
f 33/116/54 35/118/55 62/102/47
f 38/119/47 34/117/51 62/102/47
f 35/118/55 39/120/53 62/102/47
f 40/121/56 38/119/47 62/102/47
f 39/120/53 45/122/52 62/102/47
f 44/123/49 40/121/56 62/102/47
f 45/122/52 47/124/57 62/102/47
f 50/125/54 44/123/49 62/102/47
f 47/124/57 51/126/45 62/102/47
f 54/127/54 50/125/54 62/102/47
f 51/126/45 55/128/48 62/102/47
f 56/129/58 54/127/54 62/102/47
f 55/128/48 60/130/45 62/102/47
f 60/130/45 56/129/58 62/102/47
