# Blender v2.76 (sub 0) OBJ File: ''
# www.blender.org
mtllib pallet2.mtl
o pallet
v -0.400000 0.075018 0.600000
v -0.400000 0.055018 0.600000
v -0.400000 0.055018 -0.600000
v 0.250000 0.075018 -0.600000
v 0.250000 0.075018 0.600000
v 0.400000 0.075018 -0.600000
v 0.400000 0.055018 -0.600000
v 0.075000 0.075018 0.600000
v 0.075000 0.055018 0.600000
v -0.075000 0.055018 0.600000
v 0.075000 0.055018 -0.600000
v -0.075000 0.055018 -0.600000
v -0.075000 0.075018 -0.600000
v -0.075000 0.075018 0.600000
v 0.075000 0.075018 -0.600000
v 0.212337 0.075018 -0.600000
v 0.113541 0.075018 -0.600000
v 0.113541 0.075018 0.600000
v 0.212337 0.075018 0.600000
v 0.212337 0.055018 0.600000
v 0.113541 0.055018 -0.600000
v 0.212337 0.055018 -0.600000
v 0.113541 0.055018 0.600000
v -0.113950 0.075018 0.600000
v -0.212746 0.055018 0.600000
v -0.113950 0.055018 0.600000
v -0.113950 0.055018 -0.600000
v -0.212746 0.055018 -0.600000
v -0.212746 0.075018 -0.600000
v -0.113950 0.075018 -0.600000
v -0.212746 0.075018 0.600000
v 0.400000 0.075018 0.600000
v 0.250000 0.055018 -0.600000
v 0.250000 0.055018 0.600000
v 0.400000 0.055018 0.600000
v -0.250000 0.075018 0.600000
v -0.250000 0.055018 0.600000
v -0.250000 0.055018 -0.600000
v -0.250000 0.075018 -0.600000
v -0.400000 0.075018 -0.600000
v 0.075000 -0.054982 -0.600000
v -0.075000 -0.054982 0.600000
v 0.075000 -0.054982 0.600000
v 0.075000 -0.074982 0.600000
v 0.075000 -0.074982 -0.600000
v -0.075000 -0.074982 -0.600000
v -0.075000 -0.054982 -0.600000
v -0.075000 -0.074982 0.600000
v -0.250000 -0.054982 -0.600000
v -0.400000 -0.054982 0.600000
v -0.250000 -0.074982 0.600000
v -0.400000 -0.054982 -0.600000
v -0.400000 -0.074982 -0.600000
v -0.400000 -0.074982 0.600000
v -0.250000 -0.074982 -0.600000
v -0.250000 -0.054982 0.600000
v 0.250000 -0.054982 0.600000
v 0.400000 -0.074982 0.600000
v 0.400000 -0.074982 -0.600000
v 0.250000 -0.074982 -0.600000
v 0.250000 -0.054982 -0.600000
v 0.250000 -0.074982 0.600000
v 0.400000 -0.054982 -0.600000
v 0.400000 -0.054982 0.600000
v 0.400000 0.054488 0.600000
v 0.400000 0.054488 0.450000
v 0.400000 0.035871 0.450000
v 0.400000 0.035871 0.600000
v -0.400000 0.035871 0.450000
v -0.400000 0.035871 0.600000
v -0.400000 0.054488 0.600000
v -0.400000 0.054488 0.450000
v 0.400000 0.054488 -0.600000
v 0.400000 0.035872 -0.600000
v 0.400000 0.035872 -0.450000
v -0.400000 0.035872 -0.450000
v -0.400000 0.035872 -0.600000
v -0.400000 0.054488 -0.450000
v 0.400000 0.054488 -0.450000
v -0.400000 0.054488 -0.600000
v 0.400000 0.054488 -0.075000
v 0.400000 0.054488 0.075000
v 0.400000 0.035871 0.075000
v -0.400000 0.035872 -0.075000
v -0.400000 0.054488 -0.075000
v -0.400000 0.054488 0.075000
v -0.400000 0.035871 0.075000
v 0.400000 0.035872 -0.075000
v -0.400000 0.035018 -0.075000
v -0.250000 0.035018 -0.075000
v -0.250000 -0.053743 0.075000
v -0.250000 -0.053743 -0.075000
v -0.400000 -0.053743 -0.075000
v -0.400000 -0.053743 0.075000
v -0.400000 0.035018 0.075000
v -0.250000 0.035018 0.075000
v -0.400000 0.035018 -0.450000
v -0.250000 0.035018 -0.450000
v -0.250000 0.035018 -0.600000
v -0.400000 -0.053743 -0.450000
v -0.250000 -0.053743 -0.450000
v -0.400000 -0.053743 -0.600000
v -0.400000 0.035018 -0.600000
v -0.250000 -0.053743 -0.600000
v -0.400000 0.035018 0.600000
v -0.250000 0.035018 0.600000
v -0.250000 -0.053743 0.600000
v -0.250000 -0.053743 0.450000
v -0.400000 -0.053743 0.450000
v -0.400000 -0.053743 0.600000
v -0.400000 0.035018 0.450000
v -0.250000 0.035018 0.450000
v 0.075000 0.035018 0.075000
v 0.075000 0.035018 -0.075000
v -0.075000 -0.053743 -0.075000
v -0.075000 -0.053743 0.075000
v -0.075000 0.035018 0.075000
v 0.075000 -0.053743 0.075000
v -0.075000 0.035018 -0.075000
v 0.075000 -0.053743 -0.075000
v 0.075000 0.035018 -0.450000
v 0.075000 -0.053743 -0.450000
v -0.075000 -0.053743 -0.450000
v -0.075000 -0.053743 -0.600000
v -0.075000 0.035018 -0.450000
v -0.075000 0.035018 -0.600000
v 0.075000 0.035018 -0.600000
v 0.075000 -0.053743 -0.600000
v -0.075000 0.035018 0.450000
v -0.075000 0.035018 0.600000
v 0.075000 0.035018 0.450000
v 0.075000 0.035018 0.600000
v 0.075000 -0.053743 0.600000
v -0.075000 -0.053743 0.600000
v -0.075000 -0.053743 0.450000
v 0.075000 -0.053743 0.450000
v 0.250000 0.035018 0.075000
v 0.400000 0.035018 -0.075000
v 0.400000 -0.053743 0.075000
v 0.250000 -0.053743 -0.075000
v 0.250000 -0.053743 0.075000
v 0.250000 0.035018 -0.075000
v 0.400000 0.035018 0.075000
v 0.400000 -0.053743 -0.075000
v 0.250000 0.035018 -0.450000
v 0.400000 0.035018 -0.600000
v 0.400000 -0.053743 -0.450000
v 0.400000 -0.053743 -0.600000
v 0.250000 -0.053743 -0.600000
v 0.250000 0.035018 -0.600000
v 0.250000 -0.053743 -0.450000
v 0.400000 0.035018 -0.450000
v 0.250000 0.035018 0.600000
v 0.400000 0.035018 0.450000
v 0.400000 0.035018 0.600000
v 0.400000 -0.053743 0.600000
v 0.250000 -0.053743 0.600000
v 0.250000 -0.053743 0.450000
v 0.250000 0.035018 0.450000
v 0.400000 -0.053743 0.450000
vt 0.200000 0.325000
vt 0.500000 0.325000
vt 0.500000 0.000000
vt 0.200000 0.000000
vt 0.515784 0.325000
vt 0.815784 0.325000
vt 0.815784 0.000000
vt 0.515784 0.000000
vt 0.200000 0.666411
vt 0.500000 0.666411
vt 0.500000 0.991411
vt 0.200000 0.991411
vt 0.200000 0.656902
vt 0.500000 0.656902
vt 0.500000 0.331902
vt 0.200000 0.331902
vt 0.514105 0.657822
vt 0.814105 0.657822
vt 0.814105 0.332822
vt 0.514105 0.332822
vt 0.514105 0.993021
vt 0.814105 0.993021
vt 0.814105 0.668021
vt 0.514105 0.668021
vn 0.000000 1.000000 0.000000
vn 0.000000 0.000000 1.000000
vn 0.000000 -1.000000 -0.000000
vn 0.000000 0.000000 -1.000000
vn -1.000000 0.000000 0.000000
vn 1.000000 0.000000 0.000000
usemtl None
s off
f 40/1/1 1/2/1 36/3/1 39/4/1
f 1/5/2 2/6/2 37/7/2 36/8/2
f 2/9/3 3/10/3 38/11/3 37/12/3
f 3/13/4 40/14/4 39/15/4 38/16/4
f 40/17/5 3/18/5 2/19/5 1/20/5
f 39/21/6 36/22/6 37/23/6 38/24/6
f 4/1/1 5/2/1 32/3/1 6/4/1
f 5/5/2 34/6/2 35/7/2 32/8/2
f 33/16/4 4/15/4 6/14/4 7/13/4
f 33/17/5 34/18/5 5/19/5 4/20/5
f 6/21/6 32/22/6 35/23/6 7/24/6
f 15/4/1 13/1/1 14/2/1 8/3/1
f 14/5/2 10/6/2 9/7/2 8/8/2
f 10/12/3 12/11/3 11/10/3 9/9/3
f 12/13/4 13/14/4 15/15/4 11/16/4
f 13/20/5 12/17/5 10/18/5 14/19/5
f 15/21/6 8/22/6 9/23/6 11/24/6
f 17/1/1 18/2/1 19/3/1 16/4/1
f 18/5/2 23/6/2 20/7/2 19/8/2
f 23/12/3 21/11/3 22/10/3 20/9/3
f 22/16/4 21/13/4 17/14/4 16/15/4
f 21/17/5 23/18/5 18/19/5 17/20/5
f 16/21/6 19/22/6 20/23/6 22/24/6
f 29/1/1 31/2/1 24/3/1 30/4/1
f 24/8/2 31/5/2 25/6/2 26/7/2
f 25/12/3 28/11/3 27/10/3 26/9/3
f 28/13/4 29/14/4 30/15/4 27/16/4
f 28/17/5 25/18/5 31/19/5 29/20/5
f 27/24/6 30/21/6 24/22/6 26/23/6
f 34/12/3 33/11/3 7/10/3 35/9/3
f 41/4/1 47/1/1 42/2/1 43/3/1
f 42/5/2 48/6/2 44/7/2 43/8/2
f 48/12/3 46/11/3 45/10/3 44/9/3
f 46/13/4 47/14/4 41/15/4 45/16/4
f 47/20/5 46/17/5 48/18/5 42/19/5
f 41/21/6 43/22/6 44/23/6 45/24/6
f 52/1/1 50/2/1 56/3/1 49/4/1
f 50/5/2 54/6/2 51/7/2 56/8/2
f 51/9/3 54/12/3 53/11/3 55/10/3
f 53/13/4 52/14/4 49/15/4 55/16/4
f 53/17/5 54/18/5 50/19/5 52/20/5
f 49/21/6 56/22/6 51/23/6 55/24/6
f 63/4/1 61/1/1 57/2/1 64/3/1
f 57/5/2 62/6/2 58/7/2 64/8/2
f 62/12/3 60/11/3 59/10/3 58/9/3
f 60/13/4 61/14/4 63/15/4 59/16/4
f 61/20/5 60/17/5 62/18/5 57/19/5
f 63/21/6 64/22/6 58/23/6 59/24/6
f 71/1/1 65/2/1 66/3/1 72/4/1
f 65/5/6 68/6/6 67/7/6 66/8/6
f 67/9/3 68/12/3 70/11/3 69/10/3
f 70/13/5 71/14/5 72/15/5 69/16/5
f 70/17/2 68/18/2 65/19/2 71/20/2
f 72/21/4 66/22/4 67/23/4 69/24/4
f 80/4/1 78/1/1 79/2/1 73/3/1
f 79/5/6 75/6/6 74/7/6 73/8/6
f 75/12/3 76/11/3 77/10/3 74/9/3
f 76/13/5 78/14/5 80/15/5 77/16/5
f 76/17/2 75/18/2 79/19/2 78/20/2
f 77/24/4 80/21/4 73/22/4 74/23/4
f 86/1/1 82/2/1 81/3/1 85/4/1
f 82/5/6 83/6/6 88/7/6 81/8/6
f 83/12/3 87/11/3 84/10/3 88/9/3
f 84/16/5 87/13/5 86/14/5 85/15/5
f 87/17/2 83/18/2 82/19/2 86/20/2
f 85/21/4 81/22/4 88/23/4 84/24/4
f 95/1/1 96/2/1 90/3/1 89/4/1
f 90/8/6 96/5/6 91/6/6 92/7/6
f 91/12/3 94/11/3 93/10/3 92/9/3
f 94/13/5 95/14/5 89/15/5 93/16/5
f 94/17/2 91/18/2 96/19/2 95/20/2
f 93/24/4 89/21/4 90/22/4 92/23/4
f 97/1/1 98/2/1 99/3/1 103/4/1
f 98/5/6 101/6/6 104/7/6 99/8/6
f 101/12/3 100/11/3 102/10/3 104/9/3
f 102/16/5 100/13/5 97/14/5 103/15/5
f 100/17/2 101/18/2 98/19/2 97/20/2
f 103/21/4 99/22/4 104/23/4 102/24/4
f 105/1/1 106/2/1 112/3/1 111/4/1
f 112/8/6 106/5/6 107/6/6 108/7/6
f 107/12/3 110/11/3 109/10/3 108/9/3
f 110/13/5 105/14/5 111/15/5 109/16/5
f 110/17/2 107/18/2 106/19/2 105/20/2
f 109/24/4 111/21/4 112/22/4 108/23/4
f 117/1/1 113/2/1 114/3/1 119/4/1
f 113/5/6 118/6/6 120/7/6 114/8/6
f 118/12/3 116/11/3 115/10/3 120/9/3
f 115/16/5 116/13/5 117/14/5 119/15/5
f 116/17/2 118/18/2 113/19/2 117/20/2
f 119/21/4 114/22/4 120/23/4 115/24/4
f 125/1/1 121/2/1 127/3/1 126/4/1
f 121/5/6 122/6/6 128/7/6 127/8/6
f 128/9/3 122/12/3 123/11/3 124/10/3
f 123/13/5 125/14/5 126/15/5 124/16/5
f 123/17/2 122/18/2 121/19/2 125/20/2
f 126/21/4 127/22/4 128/23/4 124/24/4
f 129/4/1 130/1/1 132/2/1 131/3/1
f 132/5/6 133/6/6 136/7/6 131/8/6
f 133/12/3 134/11/3 135/10/3 136/9/3
f 134/13/5 130/14/5 129/15/5 135/16/5
f 130/20/2 134/17/2 133/18/2 132/19/2
f 129/21/4 131/22/4 136/23/4 135/24/4
f 137/1/1 143/2/1 138/3/1 142/4/1
f 143/5/6 139/6/6 144/7/6 138/8/6
f 144/9/3 139/12/3 141/11/3 140/10/3
f 141/13/5 137/14/5 142/15/5 140/16/5
f 141/17/2 139/18/2 143/19/2 137/20/2
f 142/21/4 138/22/4 144/23/4 140/24/4
f 150/4/1 145/1/1 152/2/1 146/3/1
f 152/5/6 147/6/6 148/7/6 146/8/6
f 147/12/3 151/11/3 149/10/3 148/9/3
f 151/13/5 145/14/5 150/15/5 149/16/5
f 145/20/2 151/17/2 147/18/2 152/19/2
f 150/21/4 146/22/4 148/23/4 149/24/4
f 153/1/1 155/2/1 154/3/1 159/4/1
f 155/5/6 156/6/6 160/7/6 154/8/6
f 160/9/3 156/12/3 157/11/3 158/10/3
f 157/13/5 153/14/5 159/15/5 158/16/5
f 157/17/2 156/18/2 155/19/2 153/20/2
f 159/21/4 154/22/4 160/23/4 158/24/4
