####
#
# OBJ File Generated by Meshlab
#
####
# Object steering_temp_ml.obj
#
# Vertices: 62
# Faces: 122
#
####
vn 0.000000 0.000000 6.283185
v 0.087051 0.000000 -0.017370
vn 0.000000 0.000000 6.283186
v 0.075389 -0.043526 -0.017370
vn 0.000000 0.000000 6.283185
v 0.043526 -0.075389 -0.017370
vn 0.000000 0.000000 6.283185
v 0.000000 -0.087051 -0.017370
vn 0.000000 0.000000 6.283186
v -0.043526 -0.075389 -0.017370
vn 0.000000 0.000000 6.283185
v -0.075389 -0.043526 -0.017370
vn 0.000000 0.000000 6.283185
v -0.043526 0.075389 -0.017370
vn 0.000000 0.000000 6.283186
v 0.000000 0.087051 -0.017370
vn 0.000000 0.000000 6.283185
v 0.043526 0.075389 -0.017370
vn 0.000000 0.000000 6.283185
v 0.075389 0.043526 -0.017370
vn 0.000000 0.000000 6.283185
v -0.087051 0.000000 -0.017370
vn 0.000000 0.000000 6.283186
v -0.075389 0.043525 -0.017370
vn -0.000015 3.034548 2.618001
v -0.000001 0.105095 -0.017370
vn 1.517260 2.627997 2.617986
v 0.052548 0.091015 -0.017370
vn 1.610771 3.237764 -2.552372
v 0.052548 0.091015 -0.055349
vn -0.000007 3.698119 -2.546566
v -0.000001 0.105095 -0.052282
vn -1.517289 2.627979 2.617982
v -0.052548 0.091015 -0.017370
vn -1.610840 3.237785 -2.552360
v -0.052548 0.091015 -0.055349
vn -2.628007 1.517260 2.618008
v -0.091015 0.052547 -0.017370
vn -2.720273 2.021417 -2.563720
v -0.091015 0.052547 -0.063730
vn -3.034546 0.000007 2.617996
v -0.105095 0.000000 -0.017370
vn -3.034415 0.452391 -2.569205
v -0.105095 0.000000 -0.075179
vn 2.627995 1.517267 2.617990
v 0.091015 0.052548 -0.017370
vn 3.034546 -0.000007 2.617996
v 0.105095 0.000000 -0.017370
vn 3.034573 0.452373 -2.569205
v 0.105095 0.000000 -0.075178
vn 2.720251 2.021405 -2.563707
v 0.091015 0.052548 -0.063730
vn -2.794286 -0.593809 -2.899767
v -0.091015 -0.052548 -0.086627
vn -2.929198 -1.094930 2.949750
v -0.091015 -0.052548 -0.017370
vn -3.231374 -1.707467 -3.452914
v -0.040655 -0.155840 -0.095008
vn -2.761687 -2.670196 3.499251
v -0.040655 -0.155840 -0.017370
vn 3.233383 -1.670532 -3.468029
v 0.040656 -0.155839 -0.095008
vn 2.762746 -2.651097 3.515265
v 0.040655 -0.155839 -0.017370
vn 2.794274 -0.593784 -2.899766
v 0.091015 -0.052547 -0.086627
vn 2.929197 -1.094937 2.949755
v 0.091015 -0.052547 -0.017370
vn -2.045609 2.280812 1.410231
v -0.037000 -0.138105 -0.372501
vn 2.045609 2.280812 1.410231
v 0.038000 -0.138105 -0.372501
vn 1.378249 1.279094 -1.534405
v 0.038000 -0.137675 -0.446940
vn 2.782635 -1.106985 -2.886115
v 0.038000 -0.187989 -0.437432
vn -2.782635 -1.106985 -2.886115
v -0.037000 -0.187989 -0.437432
vn -1.378249 1.279094 -1.534405
v -0.037000 -0.137675 -0.446940
vn -3.638607 2.002252 2.294239
v -0.037000 -0.181931 -0.350292
vn 3.638607 2.002252 2.294239
v 0.038000 -0.181931 -0.350292
vn 2.683740 -2.140120 -2.186601
v 0.038000 -0.235530 -0.408563
vn -2.683740 -2.140120 -2.186601
v -0.037000 -0.235530 -0.408563
vn -3.640050 2.854142 1.059725
v -0.037000 -0.248311 -0.254246
vn 3.640050 2.854142 1.059725
v 0.038000 -0.248311 -0.254246
vn 2.640315 -2.892195 -0.947461
v 0.038000 -0.322328 -0.272312
vn -2.640315 -2.892195 -0.947461
v -0.037000 -0.322328 -0.272312
vn -3.266651 3.132452 0.137163
v -0.037000 -0.252202 -0.217776
vn 3.266651 3.132452 0.137163
v 0.038000 -0.252202 -0.217776
vn 3.006802 -3.134458 0.004575
v 0.038000 -0.326680 -0.206404
vn -3.006802 -3.134457 0.004575
v -0.037000 -0.326680 -0.206404
vn -3.464697 3.050411 -0.556094
v -0.037000 -0.251426 -0.176437
vn 3.464708 3.050402 -0.556121
v 0.038000 -0.251426 -0.176437
vn 2.480419 -2.737563 1.155620
v 0.038000 -0.322843 -0.150766
vn -2.480420 -2.737564 1.155619
v -0.037000 -0.322843 -0.150766
vn -3.535359 2.644499 -1.580696
v -0.037000 -0.239044 -0.141641
vn 3.535268 2.644509 -1.580715
v 0.038000 -0.239043 -0.141641
vn -3.656582 1.596092 -2.603302
v -0.037000 -0.214260 -0.114258
vn 3.657485 1.612503 -2.587636
v 0.038000 -0.214260 -0.114258
vn 2.517712 -1.600734 2.623005
v 0.038000 -0.215293 -0.030594
vn -2.515899 -1.634200 2.638806
v -0.037000 -0.215294 -0.030594
# 62 vertices, 0 vertices normals

f 32//32 62//62 61//61
f 30//30 62//62 32//32
f 31//31 32//32 61//61
f 31//31 61//61 60//60
f 60//60 61//61 55//55
f 62//62 56//56 61//61
f 13//13 14//14 15//15
f 15//15 16//16 13//13
f 17//17 13//13 16//16
f 16//16 18//18 17//17
f 19//19 17//17 18//18
f 18//18 20//20 19//19
f 21//21 19//19 20//20
f 20//20 22//22 21//21
f 23//23 24//24 25//25
f 25//25 26//26 23//23
f 14//14 23//23 26//26
f 26//26 15//15 14//14
f 21//21 22//22 27//27
f 27//27 28//28 21//21
f 28//28 27//27 29//29
f 29//29 30//30 28//28
f 30//30 29//29 31//31
f 31//31 32//32 30//30
f 32//32 31//31 33//33
f 33//33 34//34 32//32
f 34//34 33//33 25//25
f 25//25 24//24 34//34
f 20//20 18//18 16//16
f 27//27 22//22 20//20
f 31//31 29//29 27//27
f 15//15 27//27 20//20
f 20//20 16//16 15//15
f 26//26 25//25 27//27
f 27//27 15//15 26//26
f 27//27 25//25 33//33
f 33//33 31//31 27//27
f 30//30 4//4 5//5
f 13//13 8//8 9//9
f 9//9 14//14 13//13
f 19//19 12//12 7//7
f 7//7 17//17 19//19
f 21//21 11//11 12//12
f 12//12 19//19 21//21
f 34//34 2//2 3//3
f 3//3 32//32 34//34
f 23//23 10//10 1//1
f 1//1 24//24 23//23
f 28//28 6//6 11//11
f 11//11 21//21 28//28
f 14//14 9//9 10//10
f 10//10 23//23 14//14
f 17//17 7//7 8//8
f 8//8 13//13 17//17
f 30//30 5//5 6//6
f 6//6 28//28 30//30
f 32//32 3//3 4//4
f 4//4 30//30 32//32
f 24//24 1//1 2//2
f 2//2 34//34 24//24
f 35//35 36//36 37//37
f 37//37 38//38 39//39
f 39//39 40//40 37//37
f 41//41 42//42 36//36
f 36//36 35//35 41//41
f 38//38 43//43 44//44
f 44//44 39//39 38//38
f 42//42 41//41 45//45
f 45//45 46//46 42//42
f 43//43 47//47 48//48
f 48//48 44//44 43//43
f 46//46 45//45 49//49
f 49//49 50//50 46//46
f 47//47 51//51 52//52
f 52//52 48//48 47//47
f 53//53 54//54 50//50
f 50//50 49//49 53//53
f 51//51 55//55 56//56
f 56//56 52//52 51//51
f 57//57 58//58 54//54
f 54//54 53//53 57//57
f 59//59 60//60 58//58
f 58//58 57//57 59//59
f 29//29 62//62 30//30
f 55//55 54//54 58//58
f 57//57 53//53 56//56
f 51//51 50//50 54//54
f 54//54 55//55 51//51
f 52//52 56//56 53//53
f 53//53 49//49 52//52
f 50//50 51//51 47//47
f 47//47 46//46 50//50
f 48//48 52//52 49//49
f 49//49 45//45 48//48
f 46//46 47//47 43//43
f 43//43 42//42 46//46
f 44//44 48//48 45//45
f 45//45 41//41 44//44
f 42//42 43//43 38//38
f 38//38 36//36 42//42
f 39//39 44//44 41//41
f 41//41 35//35 39//39
f 36//36 38//38 37//37
f 40//40 39//39 35//35
f 40//40 35//35 37//37
f 29//29 60//60 59//59
f 60//60 29//29 31//31
f 29//29 59//59 62//62
f 58//58 60//60 55//55
f 57//57 56//56 59//59
f 59//59 56//56 62//62
f 55//55 61//61 56//56
f 8//8 4//4 3//3
f 9//9 8//8 3//3
f 3//3 2//2 9//9
f 9//9 2//2 10//10
f 2//2 1//1 10//10
f 8//8 7//7 4//4
f 4//4 7//7 5//5
f 7//7 12//12 5//5
f 5//5 12//12 6//6
f 11//11 6//6 12//12
# 122 faces, 0 coords texture

# End of File
