####
#
# OBJ File Generated by Meshlab
#
####
# Object bar_l_repaired.obj
#
# Vertices: 134
# Faces: 246
#
####
vn -2.125012 -2.052440 -1.421183
v -0.030388 -0.053413 -0.049803
vn 0.051006 2.482975 2.972345
v -0.022301 -0.012875 0.035642
vn 0.051006 -2.482975 2.972345
v -0.022301 -0.053413 0.035642
vn -1.867557 2.374040 2.235660
v -0.027442 -0.012875 0.033983
vn -1.867557 -2.374040 2.235660
v -0.027442 -0.053413 0.033983
vn -2.955879 2.660200 0.756008
v -0.029617 -0.012875 0.029916
vn -2.955879 -2.660200 0.756008
v -0.029617 -0.053413 0.029916
vn -3.141446 3.141536 0.030385
v -0.029696 -0.012875 0.021772
vn -3.141446 -3.141536 0.030385
v -0.029696 -0.053413 0.021772
vn -3.141446 3.141624 0.030346
v -0.029865 -0.012875 0.004248
vn -3.141446 -3.141624 0.030346
v -0.029865 -0.053413 0.004248
vn -2.263047 2.081613 -1.375619
v -0.030388 -0.012875 -0.049803
vn 2.029173 -1.613895 -0.898233
v 0.045519 -0.053413 -0.044614
vn 2.070326 1.617758 -0.886062
v 0.045519 -0.012875 -0.044614
vn 2.597022 -2.738575 1.652184
v 0.025538 -0.053413 0.007661
vn 2.597022 2.738576 1.652184
v 0.025538 -0.012875 0.007661
vn 1.663163 -2.685374 2.568810
v 0.009652 -0.053413 0.024106
vn 1.663163 2.685374 2.568810
v 0.009652 -0.012875 0.024106
vn 0.000000 -6.283185 0.000000
v 0.000000 -0.061352 0.000000
vn 2.902424 -2.356155 -0.005534
v 0.014573 -0.061352 -0.000028
vn 2.056271 -2.356234 2.048444
v 0.010324 -0.061352 0.010285
vn 0.005534 -2.356155 2.902424
v 0.000028 -0.061352 0.014573
vn -2.048444 -2.356234 2.056271
v -0.010285 -0.061352 0.010324
vn -2.902424 -2.356155 0.005534
v -0.014573 -0.061352 0.000028
vn -2.056271 -2.356234 -2.048444
v -0.010324 -0.061352 -0.010285
vn -0.005535 -2.356155 -2.902424
v -0.000028 -0.061352 -0.014573
vn 2.048444 -2.356234 -2.056271
v 0.010285 -0.061352 -0.010324
vn -0.000000 6.283185 -0.000000
v 0.000000 0.000000 0.000000
vn 2.902424 2.356155 -0.005535
v 0.014573 0.000000 -0.000028
vn 2.056271 2.356234 2.048444
v 0.010324 0.000000 0.010285
vn 0.005534 2.356155 2.902424
v 0.000028 0.000000 0.014573
vn -2.048444 2.356234 2.056271
v -0.010285 -0.000000 0.010324
vn -2.902424 2.356155 0.005535
v -0.014573 -0.000000 0.000028
vn -2.056271 2.356234 -2.048444
v -0.010324 -0.000000 -0.010285
vn -0.005535 2.356155 -2.902424
v -0.000028 -0.000000 -0.014573
vn 2.048443 2.356234 -2.056271
v 0.010285 0.000000 -0.010324
vn 0.028365 -4.111565 4.104690
v -0.234295 -0.041167 0.007680
vn 0.004870 -5.806265 -0.003440
v -0.234310 -0.044425 -0.000185
vn 0.007706 -4.113011 -4.101320
v -0.234326 -0.041167 -0.008050
vn 0.025121 -0.003622 -5.813497
v -0.234332 -0.033303 -0.011307
vn 0.017563 4.114882 -4.103348
v -0.234325 -0.025438 -0.008050
vn 0.004905 5.806267 0.003423
v -0.234310 -0.022180 -0.000185
vn 0.023416 4.112865 4.101323
v -0.234295 -0.025438 0.007680
vn 0.042390 -0.000131 5.811971
v -0.234289 -0.033303 0.010937
vn -0.329356 -4.270906 4.020624
v -0.134357 -0.041167 0.007488
vn -0.126562 -5.836246 0.049197
v -0.134372 -0.044425 -0.000377
vn -0.424046 -4.246799 -4.067256
v -0.134387 -0.041167 -0.008241
vn -0.600898 0.053387 -5.887372
v -0.134393 -0.033303 -0.011499
vn -0.281802 4.228082 -4.049309
v -0.134387 -0.025438 -0.008241
vn -0.126747 5.836241 -0.048976
v -0.134372 -0.022180 -0.000377
vn -0.408429 4.246730 4.068782
v -0.134357 -0.025438 0.007488
vn -0.653972 -0.000137 5.897200
v -0.134351 -0.033303 0.010746
vn 1.170049 -4.530832 2.783455
v -0.032415 -0.045806 0.024004
vn 1.300895 -5.602656 -0.047433
v -0.032462 -0.050985 -0.000572
vn 1.432869 -4.283916 -2.738644
v -0.032509 -0.045806 -0.025148
vn 1.118695 -0.072948 -3.896113
v -0.032528 -0.033303 -0.035328
vn 0.891155 4.570003 -3.067446
v -0.032509 -0.020799 -0.025148
vn 0.281608 6.065118 -0.063196
v -0.032462 -0.015620 -0.000572
vn 0.412213 4.829750 3.111628
v -0.032415 -0.020799 0.024004
vn 0.808272 -0.112477 4.242598
v -0.032395 -0.033303 0.034184
vn -0.092221 -4.590155 3.547558
v -0.321518 -0.041167 0.011442
vn -0.113447 -6.018983 -0.004864
v -0.321540 -0.044425 -0.000018
vn -0.099434 -4.591765 -3.542142
v -0.321562 -0.041167 -0.011477
vn -0.097207 -0.005923 -5.302150
v -0.321571 -0.033303 -0.016224
vn -0.114941 4.596231 -3.543753
v -0.321562 -0.025438 -0.011477
vn -0.113423 6.018974 0.005141
v -0.321540 -0.022180 -0.000018
vn -0.085843 4.591398 3.542645
v -0.321518 -0.025438 0.011442
vn -0.068104 -0.000147 5.299105
v -0.321509 -0.033303 0.016188
vn -0.773300 -4.842153 3.051363
v -0.065391 -0.045152 0.022883
vn -1.032306 -4.832214 3.312920
v -0.099879 -0.041676 0.012839
vn -0.533535 -6.066805 0.017280
v -0.065436 -0.050060 -0.000509
vn -0.580318 -6.100905 0.062392
v -0.099904 -0.045145 -0.000443
vn -0.769917 -4.841188 -3.063542
v -0.065481 -0.045152 -0.023901
vn -1.055204 -4.810848 -3.368189
v -0.099930 -0.041676 -0.013724
vn -0.923534 0.013262 -4.453675
v -0.065499 -0.033303 -0.033590
vn -1.595804 0.076599 -5.222111
v -0.099940 -0.033303 -0.019226
vn -1.069224 4.764360 -3.356798
v -0.099929 -0.024929 -0.013724
vn -0.825892 4.813954 -3.055683
v -0.065481 -0.021454 -0.023901
vn -0.533621 6.066834 -0.015241
v -0.065436 -0.016546 -0.000509
vn -0.580446 6.100897 -0.060289
v -0.099904 -0.021460 -0.000443
vn -0.758147 4.841231 3.066513
v -0.065391 -0.021454 0.022883
vn -1.042261 4.810559 3.372354
v -0.099879 -0.024929 0.012839
vn -0.882289 -0.000009 4.477170
v -0.065372 -0.033303 0.032572
vn -1.589127 -0.000154 5.264125
v -0.099868 -0.033303 0.018340
vn 0.046362 -5.845160 -0.034308
v -0.263387 -0.044425 -0.000129
vn 0.041074 -6.012657 -0.030084
v -0.292463 -0.044425 -0.000073
vn 0.217241 -4.208261 4.049328
v -0.263371 -0.041167 0.008026
vn 0.229768 -4.481413 3.670067
v -0.292443 -0.041167 0.010804
vn 0.159191 -4.223027 -4.015427
v -0.263402 -0.041167 -0.008285
vn 0.238629 -4.489844 -3.641346
v -0.292484 -0.041167 -0.010951
vn 0.368527 -0.037349 -5.829272
v -0.263409 -0.033303 -0.011663
vn 0.363210 -0.031934 -5.361448
v -0.292493 -0.033303 -0.015457
vn 0.239018 4.240954 -4.031415
v -0.263402 -0.025438 -0.008285
vn 0.178942 4.517859 -3.654789
v -0.292484 -0.025438 -0.010951
vn 0.046475 5.845162 0.034364
v -0.263387 -0.022180 -0.000129
vn 0.041170 6.012650 0.030103
v -0.292463 -0.022180 -0.000073
vn 0.174588 4.222870 4.014967
v -0.263371 -0.025438 0.008026
vn 0.252629 4.489687 3.640534
v -0.292443 -0.025438 0.010804
vn 0.347664 -0.000136 5.817375
v -0.263365 -0.033303 0.011404
vn 0.413195 -0.000144 5.337525
v -0.292434 -0.033303 0.015310
vn -2.527448 -2.352713 1.788404
v -0.360723 -0.040058 0.009901
vn -2.709387 -3.040664 0.005289
v -0.360742 -0.042856 0.000058
vn -2.534271 -2.352712 -1.778686
v -0.360761 -0.040058 -0.009786
vn -2.220462 -0.000097 -2.733465
v -0.360769 -0.033303 -0.013863
vn -2.534195 2.352592 -1.778670
v -0.360761 -0.026547 -0.009786
vn -2.709368 3.040656 0.005252
v -0.360742 -0.023749 0.000058
vn -2.527393 2.352625 1.788469
v -0.360723 -0.026547 0.009901
vn -2.209949 -0.000089 2.741461
v -0.360716 -0.033303 0.013978
vn 1.555285 -2.492076 1.503089
v -0.010477 -0.036020 0.017529
vn 1.557372 -2.888254 0.057732
v -0.010504 -0.039073 0.003042
vn 1.912216 -2.467685 -1.304337
v -0.010532 -0.036020 -0.011444
vn 2.062626 0.273099 -2.606681
v -0.010544 -0.028649 -0.017445
vn 0.867871 2.746681 -1.295619
v -0.010532 -0.021279 -0.011444
vn 0.356855 3.100334 0.067540
v -0.010505 -0.018226 0.003042
vn 0.483374 2.664135 1.440373
v -0.010477 -0.021279 0.017529
vn 1.242402 0.272944 2.676570
v -0.010465 -0.028649 0.023530
vn -1.148745 2.575446 -2.793279
v -0.019588 -0.043947 -0.056079
vn 0.802371 2.699990 -3.219153
v 0.018499 -0.043947 -0.056447
vn -0.816687 -2.586074 -2.450824
v -0.019588 -0.019951 -0.056079
vn 0.634664 -2.684145 -2.551064
v 0.018499 -0.019951 -0.056447
vn -0.005672 1.096431 -2.693298
v 0.045519 -0.047883 -0.044614
vn -0.593711 -1.124081 -2.527912
v 0.045519 -0.018405 -0.044614
vn -0.558568 1.024377 -2.665994
v -0.030388 -0.047883 -0.049803
vn 0.017054 -1.133916 -2.611650
v -0.030388 -0.018405 -0.049803
vn 0.834942 -2.495525 -2.479492
v -0.011247 -0.017356 -0.036353
vn 0.852725 2.476277 -3.323400
v -0.011247 -0.041352 -0.036353
vn 0.113697 -3.136447 -2.798348
v 0.016657 -0.017356 -0.036623
vn -0.912861 -2.311817 -2.013919
v 0.036369 -0.015810 -0.036475
vn -0.698440 2.365615 -2.924712
v 0.036369 -0.045288 -0.036475
vn 0.275754 3.085186 -3.711627
v 0.016657 -0.041352 -0.036623
vn -0.914638 -2.003292 -4.768544
v -0.019588 -0.048001 -0.056079
vn 0.677152 -2.449871 -4.272103
v 0.018499 -0.048001 -0.056447
vn 0.639277 2.672455 -3.545284
v 0.018499 -0.015001 -0.056447
vn -0.841532 2.495078 -3.807451
v -0.019588 -0.015001 -0.056079
# 134 vertices, 0 vertices normals

f 4//4 5//5 3//3
f 4//4 3//3 2//2
f 6//6 7//7 5//5
f 6//6 5//5 4//4
f 8//8 9//9 7//7
f 8//8 7//7 6//6
f 10//10 11//11 9//9
f 10//10 9//9 8//8
f 12//12 1//1 11//11
f 12//12 11//11 10//10
f 14//14 16//16 15//15
f 14//14 15//15 13//13
f 16//16 18//18 17//17
f 16//16 17//17 15//15
f 18//18 2//2 3//3
f 18//18 3//3 17//17
f 19//19 27//27 20//20
f 19//19 20//20 21//21
f 19//19 21//21 22//22
f 19//19 22//22 23//23
f 19//19 23//23 24//24
f 19//19 24//24 25//25
f 19//19 25//25 26//26
f 27//27 19//19 26//26
f 28//28 29//29 36//36
f 28//28 30//30 29//29
f 28//28 31//31 30//30
f 28//28 32//32 31//31
f 28//28 33//33 32//32
f 28//28 34//34 33//33
f 28//28 35//35 34//34
f 28//28 36//36 35//35
f 45//45 46//46 72//72
f 45//45 72//72 70//70
f 70//70 72//72 71//71
f 70//70 71//71 69//69
f 69//69 71//71 54//54
f 69//69 54//54 53//53
f 46//46 47//47 74//74
f 46//46 74//74 72//72
f 72//72 74//74 73//73
f 72//72 73//73 71//71
f 71//71 73//73 55//55
f 71//71 55//55 54//54
f 47//47 48//48 76//76
f 47//47 76//76 74//74
f 74//74 76//76 75//75
f 74//74 75//75 73//73
f 73//73 75//75 56//56
f 73//73 56//56 55//55
f 48//48 49//49 77//77
f 48//48 77//77 76//76
f 76//76 77//77 78//78
f 76//76 78//78 75//75
f 75//75 78//78 57//57
f 75//75 57//57 56//56
f 49//49 50//50 80//80
f 49//49 80//80 77//77
f 77//77 80//80 79//79
f 77//77 79//79 78//78
f 78//78 79//79 58//58
f 78//78 58//58 57//57
f 50//50 51//51 82//82
f 50//50 82//82 80//80
f 80//80 82//82 81//81
f 80//80 81//81 79//79
f 79//79 81//81 59//59
f 79//79 59//59 58//58
f 51//51 52//52 84//84
f 51//51 84//84 82//82
f 82//82 84//84 83//83
f 82//82 83//83 81//81
f 81//81 83//83 60//60
f 81//81 60//60 59//59
f 45//45 70//70 84//84
f 45//45 84//84 52//52
f 70//70 69//69 83//83
f 70//70 83//83 84//84
f 69//69 53//53 60//60
f 69//69 60//60 83//83
f 87//87 85//85 38//38
f 87//87 38//38 37//37
f 85//85 87//87 88//88
f 85//85 88//88 86//86
f 86//86 88//88 61//61
f 86//86 61//61 62//62
f 39//39 38//38 85//85
f 39//39 85//85 89//89
f 89//89 85//85 86//86
f 89//89 86//86 90//90
f 90//90 86//86 62//62
f 90//90 62//62 63//63
f 40//40 39//39 89//89
f 40//40 89//89 91//91
f 91//91 89//89 90//90
f 91//91 90//90 92//92
f 92//92 90//90 63//63
f 92//92 63//63 64//64
f 41//41 40//40 91//91
f 41//41 91//91 93//93
f 93//93 91//91 92//92
f 93//93 92//92 94//94
f 94//94 92//92 64//64
f 94//94 64//64 65//65
f 42//42 41//41 93//93
f 42//42 93//93 95//95
f 95//95 93//93 94//94
f 95//95 94//94 96//96
f 96//96 94//94 65//65
f 96//96 65//65 66//66
f 43//43 42//42 95//95
f 43//43 95//95 97//97
f 97//97 95//95 96//96
f 97//97 96//96 98//98
f 98//98 96//96 66//66
f 98//98 66//66 67//67
f 44//44 43//43 97//97
f 44//44 97//97 99//99
f 99//99 97//97 98//98
f 99//99 98//98 100//100
f 100//100 98//98 67//67
f 100//100 67//67 68//68
f 87//87 37//37 44//44
f 87//87 44//44 99//99
f 99//99 100//100 88//88
f 99//99 88//88 87//87
f 100//100 68//68 61//61
f 100//100 61//61 88//88
f 61//61 101//101 102//102
f 61//61 102//102 62//62
f 62//62 102//102 103//103
f 62//62 103//103 63//63
f 63//63 103//103 104//104
f 63//63 104//104 64//64
f 64//64 104//104 105//105
f 64//64 105//105 65//65
f 65//65 105//105 106//106
f 65//65 106//106 66//66
f 66//66 106//106 107//107
f 66//66 107//107 67//67
f 67//67 107//107 108//108
f 67//67 108//108 68//68
f 61//61 68//68 108//108
f 61//61 108//108 101//101
f 54//54 110//110 109//109
f 54//54 109//109 53//53
f 55//55 111//111 110//110
f 55//55 110//110 54//54
f 56//56 112//112 111//111
f 56//56 111//111 55//55
f 57//57 113//113 112//112
f 57//57 112//112 56//56
f 58//58 114//114 113//113
f 58//58 113//113 57//57
f 59//59 115//115 114//114
f 59//59 114//114 58//58
f 115//115 59//59 60//60
f 115//115 60//60 116//116
f 109//109 116//116 60//60
f 109//109 60//60 53//53
f 44//44 37//37 45//45
f 44//44 45//45 52//52
f 44//44 52//52 51//51
f 44//44 51//51 43//43
f 43//43 51//51 50//50
f 43//43 50//50 42//42
f 42//42 50//50 49//49
f 42//42 49//49 41//41
f 41//41 49//49 48//48
f 41//41 48//48 40//40
f 40//40 48//48 47//47
f 40//40 47//47 39//39
f 39//39 47//47 46//46
f 39//39 46//46 38//38
f 38//38 46//46 45//45
f 38//38 45//45 37//37
f 27//27 26//26 35//35
f 27//27 35//35 36//36
f 26//26 25//25 34//34
f 26//26 34//34 35//35
f 25//25 24//24 33//33
f 25//25 33//33 34//34
f 24//24 23//23 32//32
f 24//24 32//32 33//33
f 23//23 22//22 31//31
f 23//23 31//31 32//32
f 22//22 21//21 30//30
f 22//22 30//30 31//31
f 21//21 20//20 29//29
f 21//21 29//29 30//30
f 36//36 29//29 20//20
f 36//36 20//20 27//27
f 124//124 119//119 125//125
f 123//123 124//124 125//125
f 123//123 125//125 126//126
f 117//117 123//123 126//126
f 120//120 122//122 128//128
f 120//120 128//128 127//127
f 122//122 121//121 129//129
f 122//122 129//129 128//128
f 121//121 118//118 130//130
f 121//121 130//130 129//129
f 119//119 120//120 127//127
f 119//119 127//127 125//125
f 118//118 117//117 126//126
f 118//118 126//126 130//130
f 127//127 128//128 129//129
f 127//127 129//129 130//130
f 126//126 125//125 127//127
f 126//126 127//127 130//130
f 1//1 13//13 15//15
f 1//1 15//15 11//11
f 11//11 15//15 17//17
f 11//11 17//17 9//9
f 3//3 7//7 9//9
f 3//3 9//9 17//17
f 7//7 3//3 5//5
f 131//131 132//132 13//13
f 131//131 13//13 1//1
f 133//133 14//14 122//122
f 133//133 122//122 120//120
f 13//13 132//132 118//118
f 13//13 118//118 121//121
f 12//12 134//134 119//119
f 12//12 119//119 124//124
f 131//131 1//1 123//123
f 131//131 123//123 117//117
f 134//134 133//133 120//120
f 134//134 120//120 119//119
f 132//132 131//131 117//117
f 132//132 117//117 118//118
f 134//134 12//12 14//14
f 134//134 14//14 133//133
f 6//6 4//4 2//2
f 8//8 6//6 2//2
f 8//8 2//2 18//18
f 10//10 8//8 18//18
f 10//10 18//18 16//16
f 12//12 10//10 16//16
f 12//12 16//16 14//14
f 107//107 106//106 101//101
f 107//107 101//101 108//108
f 101//101 106//106 105//105
f 101//101 105//105 102//102
f 102//102 105//105 104//104
f 102//102 104//104 103//103
# 246 faces, 0 coords texture

# End of File
