####
#
# OBJ File Generated by Meshlab
#
####
# Object fingers_rh.obj
#
# Vertices: 127
# Faces: 250
#
####
vn 1.810190 -5.418931 2.496056
v 0.046059 -0.161847 0.017249
vn -0.212502 -5.858457 2.200515
v 0.046947 -0.162285 0.015753
vn 1.345861 -4.306326 3.952237
v 0.047813 -0.161855 0.016602
vn 0.171956 -6.121967 1.008089
v 0.045819 -0.162088 0.016636
vn 2.763268 -3.257544 4.496054
v 0.047144 -0.161178 0.017455
vn 1.332426 -5.028728 2.533651
v 0.044895 -0.161979 0.018110
vn 0.374418 -4.397522 4.151485
v 0.049857 -0.162555 0.015397
vn -1.415341 -5.828070 1.196381
v 0.050163 -0.163457 0.013730
vn -2.145842 -5.650852 0.326290
v 0.042394 -0.161788 0.015568
vn 3.734132 -0.539760 4.579252
v 0.047794 -0.160908 0.017148
vn 3.068675 -0.059544 4.596777
v 0.048847 -0.161372 0.016446
vn -2.562444 -0.878267 0.831271
v 0.042512 -0.161731 0.016539
vn -1.032685 -5.709405 0.693417
v 0.044100 -0.162113 0.017617
vn 0.069436 -1.821906 4.669926
v 0.044394 -0.160782 0.019556
vn 2.985301 -0.087081 4.846633
v 0.045373 -0.159706 0.019448
vn -0.753808 -4.926419 2.905657
v 0.044157 -0.161802 0.018563
vn -0.878369 -3.284158 4.184348
v 0.044131 -0.161266 0.019206
vn -0.946544 -5.587645 1.845855
v 0.053033 -0.164426 0.013174
vn 0.714803 -1.578757 5.281407
v 0.051288 -0.162351 0.015443
vn 1.620359 0.689224 5.262329
v 0.050415 -0.162008 0.015572
vn -1.540233 -5.798259 -0.634163
v 0.052710 -0.164411 0.012590
vn -1.622005 -5.553154 -2.012964
v 0.050038 -0.163283 0.011876
vn -1.268204 -5.462202 -2.489491
v 0.045754 -0.161991 0.011779
vn -1.917522 -0.445165 -0.392228
v 0.041619 -0.161354 0.012269
vn -2.358795 -0.413187 0.370166
v 0.041856 -0.161571 0.014423
vn 4.308675 3.362501 2.372028
v 0.047945 -0.159941 0.016571
vn 3.804012 2.407263 3.584126
v 0.046018 -0.159019 0.018747
vn 2.827027 4.921443 2.319243
v 0.050477 -0.161422 0.014963
vn 3.918692 4.086740 2.243475
v 0.048938 -0.160537 0.015687
vn -3.820826 -1.669539 1.971518
v 0.043522 -0.161450 0.018628
vn -4.246765 4.356985 0.977369
v 0.043187 -0.160643 0.014152
vn -5.352314 2.472307 1.263650
v 0.043990 -0.159601 0.014515
vn 0.157628 1.164574 4.846887
v 0.044814 -0.159463 0.019677
vn -3.205089 2.035931 2.843758
v 0.044132 -0.159067 0.019264
vn -3.298266 0.630013 2.050220
v 0.043702 -0.160228 0.019347
vn 1.427623 3.797007 3.971057
v 0.045210 -0.158539 0.018965
vn -1.638200 -5.689262 1.922761
v 0.055030 -0.164243 0.014094
vn -1.861638 -4.806098 3.311592
v 0.052439 -0.162623 0.015273
vn -0.204122 -6.166362 0.128747
v 0.056456 -0.164778 0.012307
vn -0.179917 3.530607 4.125550
v 0.051625 -0.162000 0.015298
vn -0.242103 -5.376925 -2.165660
v 0.055615 -0.164644 0.010750
vn -2.131672 -5.212740 -2.711715
v 0.052760 -0.163871 0.011252
vn -1.783836 -2.185589 -4.988283
v 0.051127 -0.162400 0.010350
vn -1.082957 -4.181174 -4.116984
v 0.049824 -0.162656 0.010871
vn 0.127717 -1.767897 -5.441107
v 0.048146 -0.161401 0.010489
vn 0.474529 -2.977372 -5.050810
v 0.046773 -0.160889 0.010241
vn 0.106294 -4.309259 -4.244968
v 0.044872 -0.160651 0.009956
vn -2.722538 -1.768203 -1.866732
v 0.042598 -0.160640 0.010128
vn -4.324166 4.430012 0.336109
v 0.042338 -0.160826 0.011155
vn -5.149245 2.857320 0.470849
v 0.043821 -0.159804 0.013630
vn 2.529341 4.701687 -1.173217
v 0.045760 -0.157193 0.010652
vn 2.208783 4.788703 1.832210
v 0.045312 -0.157608 0.017554
vn 3.074331 5.366991 -0.168926
v 0.050256 -0.160973 0.013091
vn -5.689399 -0.790745 0.349859
v 0.044366 -0.158308 0.015163
vn -5.595276 0.407951 1.634967
v 0.044275 -0.158670 0.014589
vn -5.152647 3.556622 0.106874
v 0.043552 -0.160169 0.014154
vn -5.961616 1.381646 0.971510
v 0.044011 -0.159112 0.014156
vn -3.000390 1.705928 1.207237
v 0.044182 -0.158532 0.018824
vn -2.169182 4.372641 2.684218
v 0.044394 -0.157656 0.017714
vn -4.591121 1.994517 0.618475
v 0.044054 -0.157550 0.016825
vn -0.388347 -4.658834 3.179194
v 0.055819 -0.164301 0.014903
vn -0.203133 -5.349285 1.480823
v 0.056218 -0.164728 0.014041
vn -2.324279 -3.509941 3.529940
v 0.052697 -0.162351 0.016289
vn -4.141204 -1.837414 2.886585
v 0.052203 -0.162258 0.015670
vn 0.925736 -4.827144 -0.998625
v 0.056778 -0.164903 0.012701
vn 0.588142 -5.381323 -0.124162
v 0.056637 -0.164886 0.011799
vn 3.290725 -1.205524 0.396274
v 0.057779 -0.164460 0.013025
vn 3.115550 -4.282967 -1.032704
v 0.057217 -0.164679 0.011714
vn 1.367309 6.076396 -0.053813
v 0.051679 -0.161495 0.012939
vn -1.716971 5.969726 -0.082587
v 0.052369 -0.161681 0.014617
vn -1.435370 5.146137 0.111339
v 0.052622 -0.161458 0.015469
vn -1.369822 -4.235307 -3.699435
v 0.053941 -0.163589 0.009531
vn 2.171247 -0.868333 -3.358068
v 0.056088 -0.163722 0.009634
vn 2.726588 -0.925800 -2.140319
v 0.057165 -0.164290 0.010722
vn -3.501167 -3.405648 -3.536711
v 0.052013 -0.162269 0.009529
vn -2.577559 -4.193135 -3.789519
v 0.051779 -0.162618 0.010315
vn -1.160192 -0.498300 -5.751907
v 0.050650 -0.162253 0.010426
vn -3.947381 0.049308 -4.008438
v 0.051579 -0.162123 0.010076
vn -1.178756 3.947845 -3.735549
v 0.051066 -0.161902 0.010470
vn -0.391408 0.450558 -5.547001
v 0.049780 -0.162024 0.010590
vn 2.023338 4.582509 -3.346824
v 0.049923 -0.161430 0.011066
vn 3.183220 1.627108 -4.323214
v 0.047610 -0.159743 0.010330
vn 2.024890 -1.336749 -5.581849
v 0.045852 -0.159561 0.009550
vn -0.321007 -2.308939 -5.230094
v 0.043676 -0.159390 0.008825
vn -2.874669 -1.767207 -2.769675
v 0.042840 -0.160280 0.009627
vn -4.755440 2.322380 -0.671327
v 0.042444 -0.160488 0.010692
vn -6.042913 1.129428 0.912390
v 0.043018 -0.159212 0.010167
vn -5.391669 2.985450 0.813311
v 0.042789 -0.160118 0.010801
vn -5.612597 -0.029114 0.769785
v 0.044246 -0.158168 0.012956
vn 3.437522 2.258788 -3.974442
v 0.046105 -0.158231 0.009726
vn 1.363894 3.629445 -3.906381
v 0.045010 -0.157588 0.009424
vn -1.123801 4.574015 -2.914242
v 0.043832 -0.157261 0.009775
vn -1.434040 5.040094 -0.457641
v 0.043827 -0.156844 0.010955
vn -1.942985 2.370435 0.265612
v 0.043916 -0.156957 0.013647
vn -0.992502 5.276024 1.491174
v 0.044467 -0.157383 0.017193
vn -6.139368 -0.955111 0.287202
v 0.044045 -0.157879 0.014331
vn 2.567225 -0.718169 4.175699
v 0.056563 -0.163615 0.015321
vn 1.663781 -0.443462 4.669373
v 0.055732 -0.163148 0.015770
vn 3.028839 -1.155220 3.170991
v 0.056922 -0.163850 0.015025
vn 1.313181 -0.175421 4.632643
v 0.053973 -0.162262 0.016405
vn 3.431370 -1.341144 1.720718
v 0.057465 -0.164243 0.014132
vn -0.311653 0.515341 3.895215
v 0.052933 -0.161871 0.016658
vn -3.326517 1.087715 2.378810
v 0.052422 -0.161788 0.016346
vn 4.680092 3.198617 1.583757
v 0.056884 -0.163316 0.014681
vn 4.674380 1.559604 -0.988176
v 0.057605 -0.163968 0.012100
vn 3.348593 5.002806 -0.012825
v 0.056367 -0.162729 0.013886
vn 1.320812 6.133755 0.014977
v 0.052933 -0.161776 0.012669
vn -1.556585 5.964482 0.658141
v 0.051946 -0.161663 0.010867
vn -0.547714 4.347518 1.462901
v 0.052833 -0.161390 0.016172
vn 2.153920 4.547019 1.775125
v 0.054011 -0.161723 0.015983
vn 0.361981 -0.009124 -4.452327
v 0.053678 -0.162489 0.008813
vn -0.712708 0.182254 -4.436758
v 0.053042 -0.162174 0.008845
vn 2.897385 3.241729 -2.890417
v 0.055459 -0.162731 0.009569
vn -1.557782 0.853796 -4.461217
v 0.052569 -0.161975 0.009008
vn -2.522057 1.062779 -2.420691
v 0.051862 -0.161784 0.009324
vn -1.908436 5.442921 0.174789
v 0.052106 -0.161452 0.010266
vn 1.245468 0.494018 -5.298034
v 0.044558 -0.158714 0.008803
vn -3.570747 -0.223750 -2.981463
v 0.042985 -0.159060 0.008961
vn -0.180043 0.498241 -5.690453
v 0.043824 -0.158891 0.008726
vn -5.545217 -0.603187 1.905735
v 0.043871 -0.157988 0.011730
vn -5.846545 0.544493 1.385773
v 0.043027 -0.158150 0.010151
vn -1.558100 2.034985 -5.319814
v 0.043345 -0.158601 0.008889
vn -3.313400 1.989267 -2.228816
v 0.043005 -0.158092 0.009287
vn -4.532700 2.538780 0.191151
v 0.043216 -0.157434 0.010429
vn 3.475334 3.641696 2.501784
v 0.056258 -0.162839 0.015206
vn 1.226486 4.658363 -2.411882
v 0.053185 -0.161659 0.009277
vn -1.223188 4.712313 -0.943265
v 0.052190 -0.161392 0.009766
# 127 vertices, 0 vertices normals

f 1//1 2//2 3//3
f 4//4 2//2 1//1
f 5//5 6//6 1//1
f 6//6 4//4 1//1
f 5//5 1//1 3//3
f 7//7 3//3 2//2
f 8//8 7//7 2//2
f 8//8 2//2 9//9
f 2//2 4//4 9//9
f 10//10 5//5 3//3
f 11//11 3//3 7//7
f 11//11 10//10 3//3
f 12//12 4//4 13//13
f 9//9 4//4 12//12
f 4//4 6//6 13//13
f 6//6 5//5 14//14
f 14//14 5//5 15//15
f 5//5 10//10 15//15
f 16//16 13//13 6//6
f 17//17 16//16 6//6
f 6//6 14//14 17//17
f 8//8 18//18 7//7
f 19//19 20//20 7//7
f 20//20 11//11 7//7
f 18//18 19//19 7//7
f 21//21 18//18 8//8
f 22//22 8//8 9//9
f 22//22 21//21 8//8
f 23//23 22//22 9//9
f 9//9 24//24 23//23
f 24//24 9//9 25//25
f 12//12 25//25 9//9
f 10//10 11//11 26//26
f 27//27 10//10 26//26
f 15//15 10//10 27//27
f 28//28 29//29 11//11
f 28//28 11//11 20//20
f 29//29 26//26 11//11
f 12//12 13//13 30//30
f 25//25 12//12 31//31
f 31//31 12//12 32//32
f 12//12 30//30 32//32
f 13//13 16//16 30//30
f 33//33 14//14 15//15
f 34//34 35//35 14//14
f 17//17 14//14 35//35
f 14//14 33//33 34//34
f 27//27 36//36 15//15
f 33//33 15//15 36//36
f 17//17 30//30 16//16
f 30//30 17//17 35//35
f 37//37 38//38 18//18
f 18//18 38//38 19//19
f 18//18 21//21 39//39
f 37//37 18//18 39//39
f 38//38 40//40 19//19
f 20//20 19//19 40//40
f 28//28 20//20 40//40
f 39//39 21//21 41//41
f 42//42 41//41 21//21
f 22//22 42//42 21//21
f 42//42 22//22 43//43
f 44//44 43//43 22//22
f 23//23 44//44 22//22
f 45//45 44//44 23//23
f 46//46 45//45 23//23
f 47//47 23//23 24//24
f 46//46 23//23 47//47
f 48//48 47//47 24//24
f 49//49 48//48 24//24
f 31//31 24//24 25//25
f 49//49 24//24 50//50
f 24//24 31//31 50//50
f 26//26 29//29 51//51
f 52//52 26//26 51//51
f 27//27 26//26 52//52
f 36//36 27//27 52//52
f 53//53 29//29 28//28
f 40//40 53//53 28//28
f 51//51 29//29 53//53
f 34//34 30//30 35//35
f 30//30 34//34 54//54
f 32//32 30//30 55//55
f 30//30 54//54 55//55
f 50//50 31//31 56//56
f 32//32 56//56 31//31
f 32//32 57//57 56//56
f 32//32 55//55 57//57
f 33//33 36//36 34//34
f 58//58 34//34 36//36
f 58//58 59//59 34//34
f 60//60 34//34 59//59
f 54//54 34//34 60//60
f 59//59 58//58 36//36
f 59//59 36//36 52//52
f 61//61 37//37 62//62
f 62//62 37//37 39//39
f 63//63 37//37 61//61
f 63//63 38//38 37//37
f 63//63 64//64 38//38
f 38//38 64//64 40//40
f 62//62 39//39 65//65
f 41//41 66//66 39//39
f 67//67 65//65 39//39
f 66//66 68//68 39//39
f 67//67 39//39 68//68
f 69//69 40//40 70//70
f 40//40 69//69 53//53
f 40//40 64//64 71//71
f 70//70 40//40 71//71
f 72//72 73//73 41//41
f 68//68 66//66 41//41
f 68//68 41//41 74//74
f 73//73 74//74 41//41
f 72//72 41//41 42//42
f 72//72 42//42 75//75
f 43//43 76//76 42//42
f 76//76 75//75 42//42
f 43//43 44//44 77//77
f 76//76 43//43 78//78
f 77//77 79//79 43//43
f 78//78 43//43 79//79
f 45//45 80//80 44//44
f 80//80 77//77 44//44
f 80//80 45//45 81//81
f 82//82 81//81 45//45
f 45//45 46//46 82//82
f 46//46 47//47 83//83
f 46//46 83//83 82//82
f 84//84 47//47 85//85
f 84//84 83//83 47//47
f 48//48 85//85 47//47
f 49//49 86//86 48//48
f 85//85 48//48 87//87
f 88//88 48//48 86//86
f 48//48 88//88 87//87
f 86//86 49//49 88//88
f 88//88 49//49 50//50
f 50//50 56//56 57//57
f 89//89 88//88 50//50
f 89//89 50//50 57//57
f 90//90 51//51 82//82
f 82//82 51//51 53//53
f 91//91 51//51 90//90
f 51//51 91//91 92//92
f 51//51 92//92 93//93
f 51//51 93//93 52//52
f 93//93 94//94 52//52
f 95//95 52//52 94//94
f 95//95 59//59 52//52
f 81//81 82//82 53//53
f 81//81 53//53 69//69
f 54//54 60//60 96//96
f 54//54 96//96 55//55
f 55//55 96//96 57//57
f 57//57 96//96 89//89
f 59//59 95//95 60//60
f 95//95 94//94 60//60
f 60//60 94//94 96//96
f 97//97 98//98 61//61
f 99//99 97//97 61//61
f 100//100 61//61 98//98
f 99//99 61//61 101//101
f 61//61 62//62 101//101
f 102//102 63//63 61//61
f 102//102 61//61 100//100
f 62//62 67//67 101//101
f 65//65 67//67 62//62
f 63//63 103//103 64//64
f 102//102 103//103 63//63
f 103//103 71//71 64//64
f 104//104 101//101 67//67
f 67//67 68//68 105//105
f 105//105 106//106 67//67
f 67//67 106//106 104//104
f 68//68 74//74 105//105
f 69//69 79//79 81//81
f 70//70 107//107 69//69
f 107//107 108//108 69//69
f 69//69 108//108 79//79
f 71//71 107//107 70//70
f 103//103 109//109 71//71
f 107//107 71//71 106//106
f 106//106 71//71 110//110
f 109//109 110//110 71//71
f 72//72 111//111 73//73
f 72//72 112//112 111//111
f 72//72 75//75 112//112
f 111//111 113//113 73//73
f 74//74 73//73 105//105
f 113//113 105//105 73//73
f 75//75 114//114 112//112
f 75//75 115//115 114//114
f 75//75 76//76 78//78
f 78//78 115//115 75//75
f 80//80 79//79 77//77
f 78//78 79//79 116//116
f 115//115 78//78 116//116
f 80//80 81//81 79//79
f 79//79 108//108 116//116
f 90//90 82//82 83//83
f 83//83 117//117 90//90
f 117//117 83//83 84//84
f 85//85 118//118 84//84
f 84//84 118//118 119//119
f 84//84 119//119 117//117
f 118//118 85//85 87//87
f 87//87 88//88 89//89
f 87//87 89//89 120//120
f 118//118 87//87 121//121
f 120//120 121//121 87//87
f 89//89 94//94 120//120
f 96//96 94//94 89//89
f 91//91 90//90 117//117
f 122//122 91//91 117//117
f 91//91 122//122 92//92
f 122//122 123//123 92//92
f 124//124 93//93 92//92
f 123//123 124//124 92//92
f 124//124 94//94 93//93
f 94//94 124//124 120//120
f 125//125 98//98 97//97
f 99//99 104//104 97//97
f 104//104 125//125 97//97
f 98//98 125//125 110//110
f 98//98 110//110 100//100
f 104//104 99//99 101//101
f 110//110 102//102 100//100
f 109//109 102//102 110//110
f 103//103 102//102 109//109
f 125//125 104//104 106//106
f 106//106 105//105 113//113
f 126//126 106//106 113//113
f 127//127 107//107 106//106
f 110//110 125//125 106//106
f 126//126 127//127 106//106
f 107//107 116//116 108//108
f 107//107 127//127 116//116
f 113//113 111//111 126//126
f 111//111 112//112 126//126
f 114//114 126//126 112//112
f 115//115 126//126 114//114
f 115//115 127//127 126//126
f 127//127 115//115 116//116
f 122//122 117//117 119//119
f 122//122 119//119 118//118
f 118//118 123//123 122//122
f 121//121 123//123 118//118
f 120//120 124//124 121//121
f 123//123 121//121 124//124
# 250 faces, 0 coords texture

# End of File
