####
#
# OBJ File Generated by Meshlab
#
####
# Object index_proximal_rvs.obj
#
# Vertices: 116
# Faces: 227
#
####
vn -4.888284 -1.428811 3.245486
v 0.017906 -0.136291 0.023189
vn -3.573822 -1.791437 3.218904
v 0.018744 -0.138557 0.023689
vn -2.849473 0.086294 5.043987
v 0.019025 -0.135168 0.024391
vn -5.166183 -3.037622 -0.169581
v 0.012101 -0.128174 0.019542
vn -5.499368 -2.918241 0.388400
v 0.017361 -0.136156 0.021333
vn -2.246694 0.693669 5.479839
v 0.018914 -0.134444 0.024175
vn -4.559852 -2.260767 3.482439
v 0.015407 -0.132276 0.022157
vn 1.322479 0.212244 5.097673
v 0.024450 -0.136713 0.025397
vn -2.352941 -3.052007 3.512058
v 0.020801 -0.141051 0.023786
vn -4.161061 -3.981129 0.607313
v 0.019680 -0.140809 0.022046
vn -0.187675 2.094861 4.911241
v 0.021551 -0.134310 0.025027
vn -4.832357 -2.598688 1.373500
v 0.009299 -0.123015 0.020387
vn -4.651122 -2.592283 -2.928970
v 0.011666 -0.126005 0.017303
vn -3.850244 -1.964892 -1.662351
v 0.017876 -0.136064 0.017009
vn -5.303968 -2.502964 -1.457072
v 0.018679 -0.138737 0.017635
vn -4.499325 -4.058083 -0.187493
v 0.019617 -0.140549 0.019606
vn -1.962072 -1.145483 5.221705
v 0.014782 -0.126729 0.024178
vn 2.129304 0.739206 5.598252
v 0.016705 -0.126226 0.024034
vn 1.463812 4.480039 3.039396
v 0.020694 -0.133519 0.023500
vn -1.299651 3.573746 3.551418
v 0.020570 -0.133892 0.024617
vn -0.588070 -3.607747 3.328612
v 0.021621 -0.141356 0.023897
vn 1.534197 -2.841169 4.137211
v 0.024092 -0.140310 0.024467
vn 1.587445 -1.578539 5.002662
v 0.024655 -0.138599 0.024992
vn 3.065419 2.836913 2.210116
v 0.024897 -0.135115 0.024564
vn 4.720769 0.477348 2.299483
v 0.025831 -0.137304 0.024291
vn -0.991218 -5.506628 0.430805
v 0.021316 -0.141764 0.022257
vn 1.637159 4.862249 1.828897
v 0.022622 -0.133608 0.024002
vn -4.696475 -2.605747 -2.276989
v 0.004746 -0.112919 0.016314
vn -2.663558 -1.614476 5.143063
v 0.012389 -0.121230 0.024483
vn -1.369865 -2.505748 5.183056
v 0.009171 -0.112493 0.026386
vn -4.791760 -2.963326 1.813054
v 0.003927 -0.111470 0.022659
vn -2.349149 -2.091103 -5.251354
v 0.007657 -0.113507 0.014293
vn -3.079752 -1.245096 -4.305264
v 0.020290 -0.138961 0.015213
vn -1.572034 -0.197778 -4.631143
v 0.018721 -0.134695 0.015706
vn -4.088521 -3.212034 -2.224433
v 0.020429 -0.141016 0.016084
vn -0.753722 -5.134910 0.439210
v 0.021733 -0.142173 0.017164
vn -0.892346 -5.907438 0.348192
v 0.021425 -0.141576 0.019555
vn 2.516916 -0.114764 5.609157
v 0.012139 -0.115072 0.025330
vn 4.440197 0.932701 4.335396
v 0.014007 -0.117588 0.024223
vn 5.629486 2.018127 1.476418
v 0.015408 -0.120538 0.023160
vn 3.795344 4.498197 0.293995
v 0.021326 -0.133245 0.021680
vn 2.575299 -4.798018 1.073638
v 0.024027 -0.141171 0.023137
vn 4.882780 -1.628461 2.252896
v 0.025754 -0.138301 0.024098
vn 4.449623 -3.430204 1.359365
v 0.024862 -0.140272 0.023528
vn 4.558728 3.570931 -0.918111
v 0.025150 -0.135529 0.021985
vn 5.770133 0.585315 -0.467313
v 0.026020 -0.137595 0.021987
vn 3.091653 -4.896509 -0.634811
v 0.023845 -0.141127 0.020449
vn 3.244637 5.018967 -0.809193
v 0.023183 -0.133915 0.022029
vn -5.682406 -1.366955 1.006524
v 0.002022 -0.107642 0.021912
vn -5.435286 -1.643080 -1.602026
v 0.002435 -0.107910 0.015800
vn -4.309429 -1.198629 -3.413822
v 0.002907 -0.106327 0.013814
vn 2.148499 -1.266963 5.588460
v 0.010243 -0.112381 0.026277
vn -4.293714 -2.059566 3.059317
v 0.003498 -0.108867 0.025202
vn -0.984699 -1.658215 5.200399
v 0.007508 -0.107590 0.028663
vn 0.687863 -1.647554 -5.940296
v 0.009280 -0.110776 0.013130
vn 2.215776 0.065695 -4.697386
v 0.010926 -0.113198 0.013722
vn -0.339316 -1.275322 -5.535877
v 0.007680 -0.108747 0.012306
vn 3.075591 1.331861 -4.371379
v 0.017625 -0.128646 0.015640
vn -1.872648 -0.243414 -5.692456
v 0.021436 -0.136457 0.014316
vn -0.652974 0.987135 -5.625967
v 0.022187 -0.136196 0.014120
vn 1.318269 -1.742876 -4.677174
v 0.024476 -0.139832 0.014173
vn -1.787061 -2.372486 -4.763977
v 0.021608 -0.140980 0.015012
vn 0.937947 0.838922 -5.198115
v 0.024170 -0.137361 0.013868
vn 1.497266 -0.060576 -4.938425
v 0.024632 -0.138139 0.013874
vn 1.360666 3.351500 -4.644977
v 0.020313 -0.133909 0.015894
vn 0.725062 3.867718 -3.386752
v 0.022073 -0.134576 0.014889
vn -1.348086 -4.397265 -2.269715
v 0.021762 -0.142009 0.015819
vn 1.648469 -4.040575 -1.700752
v 0.023740 -0.141799 0.015567
vn 3.054671 -5.320953 -0.154677
v 0.023708 -0.141013 0.019659
vn 5.399140 0.366682 1.894177
v 0.012527 -0.109837 0.024651
vn 5.751849 1.262367 -1.902819
v 0.012037 -0.112294 0.016001
vn 5.716107 2.437504 -0.492698
v 0.016675 -0.123003 0.020196
vn 4.507862 3.862508 -0.399084
v 0.021250 -0.133472 0.019610
vn 5.628809 -2.016399 -0.671009
v 0.025852 -0.138443 0.021767
vn 5.219867 3.215423 -0.350489
v 0.025102 -0.136787 0.019481
vn 6.090836 -0.008648 -0.043950
v 0.025384 -0.137737 0.019498
vn 5.062848 -3.572821 0.317792
v 0.024450 -0.140250 0.019627
vn -4.910912 1.768385 0.012008
v 0.001732 -0.105580 0.018894
vn -4.907269 1.883866 0.394298
v 0.001773 -0.105514 0.021364
vn -4.351825 1.707057 2.898329
v 0.003939 -0.103609 0.026719
vn -2.659937 0.345018 -4.659280
v 0.004139 -0.103953 0.012308
vn -4.843005 1.654915 -0.948430
v 0.002306 -0.104116 0.014897
vn 2.353212 -0.674723 5.287467
v 0.009959 -0.107132 0.028303
vn 4.645703 -0.430812 3.766981
v 0.010824 -0.107269 0.027563
vn -4.114671 -0.394873 4.171426
v 0.004339 -0.105198 0.027308
vn 1.443304 1.014486 5.836056
v 0.008160 -0.105052 0.028649
vn -1.236513 0.186753 5.341147
v 0.006752 -0.105267 0.028873
vn 3.799991 0.165957 -4.729044
v 0.010463 -0.111578 0.013600
vn -0.821121 1.804574 -5.281769
v 0.004899 -0.103350 0.012219
vn 1.957226 0.593300 -5.536083
v 0.009008 -0.105208 0.012403
vn 4.024439 4.173609 -1.782675
v 0.021191 -0.133433 0.017330
vn 2.833704 3.211029 -3.124133
v 0.024177 -0.135908 0.014576
vn 4.141316 -2.634120 -2.347634
v 0.025054 -0.140213 0.014895
vn 4.453177 0.520939 -2.570802
v 0.025471 -0.138091 0.014563
vn 2.881425 5.325870 -0.861615
v 0.022644 -0.134213 0.017013
vn 4.137030 4.123182 -0.349830
v 0.024489 -0.135425 0.016836
vn 4.997660 -2.519926 0.539139
v 0.025561 -0.139874 0.017278
vn 4.167666 2.587270 0.996689
v 0.011648 -0.101844 0.024413
vn 4.215078 1.256173 -2.901453
v 0.010763 -0.104564 0.013566
vn 5.489032 1.077959 -0.072480
v 0.025895 -0.137692 0.017096
vn -3.093577 3.180964 -1.493981
v 0.003591 -0.102520 0.013459
vn -3.380568 5.086733 0.495312
v 0.007107 -0.102246 0.018880
vn -3.809819 4.208791 0.323370
v 0.004184 -0.102453 0.025132
vn -2.274864 4.804294 1.527612
v 0.005844 -0.101538 0.026462
vn -1.650022 2.735373 4.310793
v 0.006074 -0.102570 0.027958
vn 3.965785 0.850458 4.094205
v 0.010584 -0.105984 0.027829
vn 1.580959 2.675447 4.901916
v 0.008600 -0.102662 0.027847
vn 3.285948 2.798629 3.461429
v 0.010419 -0.102395 0.026727
vn -1.301794 4.370574 -2.073090
v 0.005202 -0.101789 0.013285
vn 1.514580 2.968795 -4.725972
v 0.007971 -0.102561 0.012860
vn 3.442225 3.287076 -2.754933
v 0.009758 -0.102599 0.013867
vn 1.361173 4.764629 0.016595
v 0.010138 -0.100530 0.023351
vn 2.456281 5.230161 -1.776501
v 0.008453 -0.101388 0.014870
vn 0.204279 4.975772 2.252874
v 0.007969 -0.101064 0.026443
vn -0.633111 5.490654 -0.118136
v 0.007688 -0.100981 0.015700
vn 0.551971 5.146576 -2.676259
v 0.007163 -0.101416 0.013884
# 116 vertices, 0 vertices normals

f 1//1 2//2 3//3
f 4//4 5//5 1//1
f 3//3 6//6 1//1
f 7//7 1//1 6//6
f 2//2 1//1 5//5
f 1//1 7//7 4//4
f 8//8 2//2 9//9
f 3//3 2//2 8//8
f 10//10 9//9 2//2
f 2//2 5//5 10//10
f 11//11 3//3 8//8
f 3//3 11//11 6//6
f 4//4 7//7 12//12
f 4//4 12//12 13//13
f 13//13 14//14 4//4
f 5//5 4//4 14//14
f 5//5 14//14 15//15
f 5//5 16//16 10//10
f 15//15 16//16 5//5
f 6//6 17//17 7//7
f 17//17 6//6 18//18
f 19//19 18//18 6//6
f 20//20 19//19 6//6
f 11//11 20//20 6//6
f 12//12 7//7 17//17
f 9//9 21//21 8//8
f 21//21 22//22 8//8
f 22//22 23//23 8//8
f 11//11 8//8 24//24
f 8//8 25//25 24//24
f 25//25 8//8 23//23
f 21//21 9//9 26//26
f 9//9 10//10 26//26
f 26//26 10//10 16//16
f 27//27 20//20 11//11
f 24//24 27//27 11//11
f 12//12 28//28 13//13
f 29//29 12//12 17//17
f 12//12 29//29 30//30
f 12//12 30//30 31//31
f 28//28 12//12 31//31
f 32//32 14//14 13//13
f 13//13 28//28 32//32
f 14//14 33//33 15//15
f 34//34 14//14 32//32
f 35//35 15//15 33//33
f 35//35 16//16 15//15
f 36//36 16//16 35//35
f 26//26 16//16 37//37
f 37//37 16//16 36//36
f 17//17 38//38 29//29
f 18//18 38//38 17//17
f 18//18 39//39 38//38
f 19//19 40//40 18//18
f 40//40 39//39 18//18
f 19//19 20//20 27//27
f 19//19 41//41 40//40
f 19//19 27//27 41//41
f 42//42 21//21 26//26
f 42//42 22//22 21//21
f 22//22 43//43 23//23
f 22//22 42//42 44//44
f 43//43 22//22 44//44
f 23//23 43//43 25//25
f 24//24 25//25 45//45
f 27//27 24//24 45//45
f 46//46 45//45 25//25
f 25//25 43//43 46//46
f 26//26 47//47 42//42
f 37//37 47//47 26//26
f 27//27 45//45 48//48
f 48//48 41//41 27//27
f 49//49 28//28 31//31
f 50//50 28//28 49//49
f 28//28 50//50 51//51
f 32//32 28//28 51//51
f 30//30 29//29 38//38
f 38//38 52//52 30//30
f 30//30 53//53 31//31
f 52//52 54//54 30//30
f 30//30 54//54 53//53
f 53//53 49//49 31//31
f 32//32 55//55 56//56
f 32//32 51//51 57//57
f 57//57 55//55 32//32
f 32//32 58//58 34//34
f 56//56 58//58 32//32
f 33//33 59//59 60//60
f 61//61 62//62 33//33
f 33//33 62//62 35//35
f 63//63 33//33 60//60
f 64//64 33//33 63//63
f 64//64 61//61 33//33
f 33//33 34//34 59//59
f 58//58 65//65 34//34
f 66//66 34//34 65//65
f 60//60 59//59 34//34
f 66//66 60//60 34//34
f 35//35 67//67 36//36
f 62//62 67//67 35//35
f 67//67 68//68 36//36
f 68//68 37//37 36//36
f 69//69 37//37 68//68
f 69//69 47//47 37//37
f 70//70 52//52 38//38
f 38//38 39//39 70//70
f 40//40 70//70 39//39
f 71//71 70//70 40//40
f 72//72 71//71 40//40
f 40//40 41//41 72//72
f 72//72 41//41 73//73
f 41//41 48//48 73//73
f 44//44 42//42 47//47
f 43//43 44//44 74//74
f 74//74 46//46 43//43
f 74//74 44//44 47//47
f 45//45 75//75 48//48
f 75//75 45//45 46//46
f 75//75 46//46 76//76
f 46//46 74//74 76//76
f 47//47 77//77 74//74
f 47//47 69//69 77//77
f 73//73 48//48 75//75
f 78//78 50//50 49//49
f 79//79 78//78 49//49
f 49//49 80//80 79//79
f 80//80 49//49 53//53
f 51//51 50//50 78//78
f 51//51 81//81 57//57
f 78//78 82//82 51//51
f 81//81 51//51 82//82
f 54//54 52//52 83//83
f 84//84 52//52 70//70
f 83//83 52//52 84//84
f 80//80 53//53 85//85
f 53//53 54//54 85//85
f 86//86 54//54 83//83
f 87//87 85//85 54//54
f 87//87 54//54 86//86
f 88//88 56//56 55//55
f 88//88 55//55 57//57
f 58//58 56//56 71//71
f 71//71 56//56 88//88
f 89//89 57//57 81//81
f 90//90 88//88 57//57
f 89//89 90//90 57//57
f 72//72 91//91 58//58
f 65//65 58//58 91//91
f 71//71 72//72 58//58
f 63//63 60//60 92//92
f 66//66 92//92 60//60
f 61//61 68//68 67//67
f 62//62 61//61 67//67
f 64//64 93//93 61//61
f 93//93 68//68 61//61
f 92//92 64//64 63//63
f 64//64 94//94 93//93
f 92//92 94//94 64//64
f 91//91 95//95 65//65
f 66//66 65//65 95//95
f 92//92 66//66 96//96
f 66//66 95//95 96//96
f 69//69 68//68 77//77
f 68//68 97//97 77//77
f 93//93 97//97 68//68
f 70//70 98//98 84//84
f 71//71 99//99 70//70
f 99//99 98//98 70//70
f 99//99 71//71 88//88
f 91//91 72//72 73//73
f 73//73 75//75 96//96
f 95//95 73//73 96//96
f 95//95 91//91 73//73
f 77//77 76//76 74//74
f 96//96 75//75 100//100
f 76//76 100//100 75//75
f 76//76 77//77 97//97
f 76//76 97//97 100//100
f 101//101 82//82 78//78
f 79//79 102//102 78//78
f 101//101 78//78 102//102
f 79//79 103//103 102//102
f 103//103 79//79 80//80
f 80//80 104//104 103//103
f 105//105 104//104 80//80
f 105//105 80//80 85//85
f 101//101 81//81 82//82
f 81//81 101//101 89//89
f 84//84 106//106 83//83
f 86//86 83//83 106//106
f 106//106 84//84 98//98
f 85//85 87//87 105//105
f 86//86 107//107 87//87
f 106//106 108//108 86//86
f 107//107 86//86 108//108
f 107//107 105//105 87//87
f 90//90 99//99 88//88
f 89//89 101//101 109//109
f 90//90 89//89 110//110
f 89//89 109//109 110//110
f 110//110 111//111 90//90
f 99//99 90//90 111//111
f 94//94 92//92 100//100
f 92//92 96//96 100//100
f 93//93 94//94 97//97
f 97//97 94//94 100//100
f 112//112 98//98 113//113
f 111//111 113//113 98//98
f 111//111 98//98 99//99
f 108//108 106//106 98//98
f 108//108 98//98 114//114
f 112//112 114//114 98//98
f 109//109 101//101 102//102
f 112//112 102//102 104//104
f 102//102 103//103 104//104
f 115//115 109//109 102//102
f 102//102 112//112 115//115
f 114//114 104//104 105//105
f 104//104 114//114 112//112
f 107//107 114//114 105//105
f 107//107 108//108 114//114
f 116//116 110//110 109//109
f 109//109 115//115 116//116
f 111//111 110//110 116//116
f 111//111 116//116 113//113
f 112//112 113//113 115//115
f 113//113 116//116 115//115
# 227 faces, 0 coords texture

# End of File
