####
#
# OBJ File Generated by Meshlab
#
####
# Object l_fibula.obj
#
# Vertices: 122
# Faces: 240
#
####
vn 0.000049 -0.000233 0.000268
v -0.016014 -0.400747 -0.020869
vn -2.577618 -0.652852 -1.158398
v -0.021024 -0.407066 -0.021717
vn -2.360832 -0.899882 0.690899
v -0.021445 -0.399877 -0.018225
vn -0.941310 -1.538302 2.357981
v -0.019393 -0.392631 -0.014918
vn -1.169273 -1.098456 -2.315714
v -0.018448 -0.405716 -0.023461
vn -0.135338 -1.643248 2.475368
v -0.015249 -0.392526 -0.014196
vn 0.949699 -1.196739 2.392887
v -0.009856 -0.395169 -0.014426
vn 2.302691 -0.780248 0.827398
v -0.004985 -0.397859 -0.018958
vn 2.106406 -0.933020 -1.714348
v -0.010007 -0.401116 -0.023805
vn 0.946654 -1.375854 -2.465795
v -0.014948 -0.404321 -0.022692
vn 0.134166 -1.488894 -2.551614
v -0.016224 -0.404354 -0.022915
vn -5.537738 -1.594371 -0.939560
v -0.021767 -0.397634 -0.021885
vn -4.689713 -1.289435 1.981379
v -0.024712 -0.391143 -0.016799
vn -3.721025 -2.384821 -3.479856
v -0.021048 -0.396184 -0.025984
vn -2.679430 -0.818271 3.889481
v -0.022529 -0.384512 -0.009429
vn 0.181584 -0.194007 5.113839
v -0.014559 -0.384309 -0.008040
vn -0.433007 -3.251626 -4.742971
v -0.017344 -0.394655 -0.029216
vn 3.183666 0.340380 4.141714
v -0.007083 -0.385299 -0.011405
vn 4.945967 0.419814 0.219743
v -0.002937 -0.386399 -0.018647
vn 4.333698 -0.631428 -3.131671
v -0.006381 -0.390453 -0.025794
vn 2.641140 -2.405253 -4.098242
v -0.012243 -0.394525 -0.028327
vn -5.834900 -0.473979 -0.080237
v -0.025901 -0.386656 -0.022650
vn -5.492083 0.512076 1.744773
v -0.024268 -0.380218 -0.017235
vn -4.736483 -1.299359 -2.525108
v -0.024630 -0.387497 -0.029535
vn -2.802681 1.348347 4.505312
v -0.020215 -0.373741 -0.014378
vn -1.254660 -1.988001 -4.708930
v -0.018312 -0.388206 -0.034973
vn 0.876933 1.579422 5.254869
v -0.015591 -0.373623 -0.013572
vn 4.137046 1.473717 3.434426
v -0.012445 -0.370804 -0.016695
vn 3.335287 -1.576422 -3.206813
v -0.009705 -0.387987 -0.033474
vn 5.338803 1.110387 0.817691
v -0.012152 -0.368056 -0.020328
vn 5.227695 0.027480 -0.068065
v -0.008093 -0.377941 -0.025205
vn -5.678087 0.916859 -0.663164
v -0.024001 -0.369007 -0.022390
vn -5.092011 0.465238 2.183578
v -0.023001 -0.364387 -0.018172
vn -3.316995 1.650960 -2.880632
v -0.024380 -0.375103 -0.029073
vn -2.696567 0.389382 4.997298
v -0.019938 -0.359729 -0.015651
vn -0.997614 2.193325 -4.180010
v -0.018595 -0.381049 -0.035811
vn 0.970712 0.333734 5.524379
v -0.016112 -0.359632 -0.014985
vn 1.765548 0.885572 -4.567307
v -0.009508 -0.380818 -0.034228
vn 4.118353 0.208432 3.555307
v -0.013294 -0.346871 -0.017175
vn 5.247977 0.145024 2.735145
v -0.012448 -0.334167 -0.020516
vn 4.787457 0.187433 0.109393
v -0.007996 -0.357408 -0.025663
vn -5.632714 0.271046 -0.758694
v -0.022430 -0.359191 -0.022156
vn -4.788435 -0.013983 3.009133
v -0.022110 -0.342698 -0.019041
vn -2.843419 1.259602 -3.928259
v -0.021893 -0.368502 -0.026399
vn -2.254069 0.008789 5.352539
v -0.020130 -0.326175 -0.017084
vn 0.486609 2.524376 -4.991223
v -0.017861 -0.377726 -0.030133
vn 0.985457 0.066535 5.425568
v -0.017099 -0.326098 -0.016556
vn -0.002374 2.097590 -4.903988
v -0.012281 -0.377584 -0.029161
vn 4.687235 0.158831 3.342267
v -0.015421 -0.280931 -0.018281
vn 2.713656 0.424209 -3.643260
v -0.011918 -0.306649 -0.024754
vn 5.475195 0.229840 1.277916
v -0.015063 -0.235804 -0.021370
vn -4.920979 -0.262294 -0.759014
v -0.026907 -0.301616 -0.023169
vn -4.375586 -0.236933 3.589733
v -0.026074 -0.280371 -0.018344
vn -2.167008 -0.045220 -4.402610
v -0.022541 -0.330059 -0.026434
vn -2.167157 -0.156226 5.452228
v -0.022839 -0.259085 -0.015552
vn 0.441406 0.368485 -5.883199
v -0.017768 -0.358463 -0.026402
vn 1.953606 -0.024886 4.653257
v -0.018376 -0.258971 -0.014774
vn 0.850656 0.453331 -5.802155
v -0.014579 -0.358382 -0.025846
vn 5.328895 0.077063 1.783365
v -0.017273 -0.199821 -0.018853
vn 1.704550 0.113556 -1.748196
v -0.015992 -0.249537 -0.023898
vn 4.939567 0.090474 -0.821412
v -0.019406 -0.140746 -0.022511
vn -4.573322 -0.155164 -1.611747
v -0.029507 -0.236171 -0.023887
vn -4.724513 -0.107341 3.159549
v -0.028865 -0.208081 -0.018419
vn -1.018928 -0.068790 -5.321057
v -0.023829 -0.264904 -0.026687
vn -2.444697 -0.011167 5.244893
v -0.025349 -0.179939 -0.015045
vn 1.246781 0.023956 -5.864169
v -0.019062 -0.293623 -0.025120
vn 1.702631 0.053105 4.827801
v -0.020089 -0.179805 -0.014129
vn 1.845919 0.023377 -5.620987
v -0.016991 -0.293570 -0.024759
vn 4.626115 -0.081828 1.272466
v -0.017154 -0.143912 -0.017809
vn 3.189543 -0.070685 -0.655864
v -0.016689 -0.200832 -0.024529
vn 4.716253 -0.205037 1.699261
v -0.017350 -0.108102 -0.022285
vn -4.628284 -0.054255 -1.824884
v -0.030671 -0.187638 -0.024286
vn -4.978279 0.018172 2.766558
v -0.029561 -0.159376 -0.019050
vn -1.045700 -0.052416 -5.426765
v -0.025748 -0.192436 -0.027471
vn -2.558267 0.103917 5.152141
v -0.026030 -0.131076 -0.016373
vn 1.212085 -0.027962 -5.871199
v -0.021447 -0.197214 -0.026432
vn 0.373540 0.081570 5.698978
v -0.021406 -0.130959 -0.015567
vn 1.083738 -0.084201 -5.809478
v -0.019055 -0.197153 -0.026015
vn 3.193236 -0.378505 3.087330
v -0.016689 -0.106247 -0.016707
vn 3.553044 -0.418131 -1.109002
v -0.015692 -0.139383 -0.026244
vn 5.169821 -0.769882 2.468681
v -0.013081 -0.081593 -0.021648
vn -5.086831 0.066959 -1.958721
v -0.030310 -0.138090 -0.024423
vn -4.965509 0.050547 1.964910
v -0.029556 -0.110493 -0.020028
vn -2.109991 -0.073866 -5.209196
v -0.026575 -0.135090 -0.027378
vn -2.506781 -0.108994 5.189546
v -0.026695 -0.082864 -0.017695
vn 0.702210 -0.179482 -5.900463
v -0.023009 -0.132069 -0.026967
vn -0.862073 -0.246539 5.919724
v -0.022710 -0.082763 -0.017000
vn 0.646631 -0.198481 -5.947076
v -0.020616 -0.132008 -0.026550
vn 1.865338 -0.570383 4.601616
v -0.015113 -0.076857 -0.014599
vn 2.477467 -0.262930 -3.815106
v -0.013188 -0.101532 -0.028227
vn 4.478406 -0.529060 2.384149
v -0.005851 -0.070981 -0.020430
vn -5.524540 0.017304 -1.173871
v -0.028519 -0.105125 -0.024244
vn -4.634452 -0.350857 0.876409
v -0.029656 -0.086707 -0.020454
vn -4.211491 -0.365350 -3.313307
v -0.027165 -0.102838 -0.027455
vn -2.423073 -1.643906 4.628892
v -0.027782 -0.068213 -0.016427
vn -0.587703 -0.766580 -5.506733
v -0.024061 -0.100497 -0.029301
vn -0.190207 -2.246923 4.834404
v -0.022839 -0.068088 -0.015566
vn 2.092949 -0.694317 -5.187406
v -0.020394 -0.100404 -0.028662
vn 2.402445 -0.303955 4.914056
v -0.015073 -0.063328 -0.014333
vn 3.328385 0.100054 -4.268972
v -0.013009 -0.079532 -0.028754
vn 3.820221 1.181137 0.517315
v -0.006664 -0.058616 -0.020622
vn -5.296760 0.041475 -0.767933
v -0.027306 -0.069569 -0.024176
vn -4.737842 -0.367673 -0.282894
v -0.031653 -0.067194 -0.019865
vn -5.491549 0.358135 -0.372458
v -0.030927 -0.063842 -0.030691
vn -2.927446 -1.062469 2.964948
v -0.030440 -0.064653 -0.011596
vn -2.001563 0.848597 -4.123456
v -0.026523 -0.057945 -0.039763
vn 0.892464 -0.225846 4.690799
v -0.022150 -0.064442 -0.010151
vn 2.633147 1.148853 -4.176692
v -0.016640 -0.057694 -0.038041
vn 2.463347 2.223389 4.495097
v -0.016014 -0.058306 -0.015222
vn 4.562243 1.786348 -1.923833
v -0.012541 -0.054917 -0.029474
vn 3.917464 2.744752 1.057294
v -0.014558 -0.052297 -0.022023
vn -2.513591 0.043704 -0.851722
v -0.028134 -0.056553 -0.024373
vn -2.723095 0.444575 -0.331258
v -0.029595 -0.054932 -0.021118
vn -2.786177 0.340961 0.479002
v -0.027706 -0.049884 -0.027138
vn -1.296012 1.093411 1.908274
v -0.028018 -0.053229 -0.016781
vn -1.729391 1.103709 -1.328977
v -0.025361 -0.043164 -0.029254
vn 0.380851 1.425349 2.534845
v -0.023236 -0.053107 -0.015947
vn 0.954148 1.723627 -2.032688
v -0.022013 -0.043079 -0.028671
vn 1.295701 1.743365 2.006098
v -0.020033 -0.050450 -0.019235
vn 2.143631 1.831699 -0.691514
v -0.019942 -0.045453 -0.026037
vn 1.999732 1.938023 0.833644
v -0.019826 -0.047868 -0.022960
vn -0.000134 0.000196 0.000122
v -0.024375 -0.051895 -0.023737
# 122 vertices, 0 vertices normals

f 3//3 2//2 1//1
f 4//4 3//3 1//1
f 2//2 5//5 1//1
f 6//6 4//4 1//1
f 7//7 6//6 1//1
f 8//8 7//7 1//1
f 9//9 8//8 1//1
f 10//10 9//9 1//1
f 11//11 10//10 1//1
f 5//5 11//11 1//1
f 3//3 13//13 12//12
f 3//3 12//12 2//2
f 2//2 12//12 14//14
f 2//2 14//14 5//5
f 4//4 15//15 13//13
f 4//4 13//13 3//3
f 6//6 16//16 15//15
f 6//6 15//15 4//4
f 5//5 14//14 17//17
f 5//5 17//17 11//11
f 7//7 18//18 16//16
f 7//7 16//16 6//6
f 8//8 19//19 18//18
f 8//8 18//18 7//7
f 9//9 20//20 19//19
f 9//9 19//19 8//8
f 10//10 21//21 20//20
f 10//10 20//20 9//9
f 11//11 17//17 21//21
f 11//11 21//21 10//10
f 13//13 23//23 22//22
f 13//13 22//22 12//12
f 12//12 22//22 24//24
f 12//12 24//24 14//14
f 15//15 25//25 23//23
f 15//15 23//23 13//13
f 14//14 24//24 26//26
f 14//14 26//26 17//17
f 16//16 27//27 25//25
f 16//16 25//25 15//15
f 18//18 28//28 27//27
f 18//18 27//27 16//16
f 17//17 26//26 29//29
f 17//17 29//29 21//21
f 19//19 30//30 28//28
f 19//19 28//28 18//18
f 20//20 31//31 30//30
f 20//20 30//30 19//19
f 21//21 29//29 31//31
f 21//21 31//31 20//20
f 23//23 33//33 32//32
f 23//23 32//32 22//22
f 22//22 32//32 34//34
f 22//22 34//34 24//24
f 25//25 35//35 33//33
f 25//25 33//33 23//23
f 24//24 34//34 36//36
f 24//24 36//36 26//26
f 27//27 37//37 35//35
f 27//27 35//35 25//25
f 26//26 36//36 38//38
f 26//26 38//38 29//29
f 28//28 39//39 37//37
f 28//28 37//37 27//27
f 30//30 40//40 39//39
f 30//30 39//39 28//28
f 29//29 38//38 41//41
f 29//29 41//41 31//31
f 31//31 41//41 40//40
f 31//31 40//40 30//30
f 33//33 43//43 42//42
f 33//33 42//42 32//32
f 32//32 42//42 44//44
f 32//32 44//44 34//34
f 35//35 45//45 43//43
f 35//35 43//43 33//33
f 34//34 44//44 46//46
f 34//34 46//46 36//36
f 37//37 47//47 45//45
f 37//37 45//45 35//35
f 36//36 46//46 48//48
f 36//36 48//48 38//38
f 39//39 49//49 47//47
f 39//39 47//47 37//37
f 38//38 48//48 50//50
f 38//38 50//50 41//41
f 40//40 51//51 49//49
f 40//40 49//49 39//39
f 41//41 50//50 51//51
f 41//41 51//51 40//40
f 43//43 53//53 52//52
f 43//43 52//52 42//42
f 42//42 52//52 54//54
f 42//42 54//54 44//44
f 45//45 55//55 53//53
f 45//45 53//53 43//43
f 44//44 54//54 56//56
f 44//44 56//56 46//46
f 47//47 57//57 55//55
f 47//47 55//55 45//45
f 46//46 56//56 58//58
f 46//46 58//58 48//48
f 49//49 59//59 57//57
f 49//49 57//57 47//47
f 48//48 58//58 60//60
f 48//48 60//60 50//50
f 51//51 61//61 59//59
f 51//51 59//59 49//49
f 50//50 60//60 61//61
f 50//50 61//61 51//51
f 53//53 63//63 62//62
f 53//53 62//62 52//52
f 52//52 62//62 64//64
f 52//52 64//64 54//54
f 55//55 65//65 63//63
f 55//55 63//63 53//53
f 54//54 64//64 66//66
f 54//54 66//66 56//56
f 57//57 67//67 65//65
f 57//57 65//65 55//55
f 56//56 66//66 68//68
f 56//56 68//68 58//58
f 59//59 69//69 67//67
f 59//59 67//67 57//57
f 58//58 68//68 70//70
f 58//58 70//70 60//60
f 61//61 71//71 69//69
f 61//61 69//69 59//59
f 60//60 70//70 71//71
f 60//60 71//71 61//61
f 63//63 73//73 72//72
f 63//63 72//72 62//62
f 62//62 72//72 74//74
f 62//62 74//74 64//64
f 65//65 75//75 73//73
f 65//65 73//73 63//63
f 64//64 74//74 76//76
f 64//64 76//76 66//66
f 67//67 77//77 75//75
f 67//67 75//75 65//65
f 66//66 76//76 78//78
f 66//66 78//78 68//68
f 69//69 79//79 77//77
f 69//69 77//77 67//67
f 68//68 78//78 80//80
f 68//68 80//80 70//70
f 71//71 81//81 79//79
f 71//71 79//79 69//69
f 70//70 80//80 81//81
f 70//70 81//81 71//71
f 73//73 83//83 82//82
f 73//73 82//82 72//72
f 72//72 82//82 84//84
f 72//72 84//84 74//74
f 75//75 85//85 83//83
f 75//75 83//83 73//73
f 74//74 84//84 86//86
f 74//74 86//86 76//76
f 77//77 87//87 85//85
f 77//77 85//85 75//75
f 76//76 86//86 88//88
f 76//76 88//88 78//78
f 79//79 89//89 87//87
f 79//79 87//87 77//77
f 78//78 88//88 90//90
f 78//78 90//90 80//80
f 81//81 91//91 89//89
f 81//81 89//89 79//79
f 80//80 90//90 91//91
f 80//80 91//91 81//81
f 83//83 93//93 92//92
f 83//83 92//92 82//82
f 82//82 92//92 94//94
f 82//82 94//94 84//84
f 85//85 95//95 93//93
f 85//85 93//93 83//83
f 84//84 94//94 96//96
f 84//84 96//96 86//86
f 87//87 97//97 95//95
f 87//87 95//95 85//85
f 86//86 96//96 98//98
f 86//86 98//98 88//88
f 89//89 99//99 97//97
f 89//89 97//97 87//87
f 88//88 98//98 100//100
f 88//88 100//100 90//90
f 91//91 101//101 99//99
f 91//91 99//99 89//89
f 90//90 100//100 101//101
f 90//90 101//101 91//91
f 93//93 103//103 102//102
f 93//93 102//102 92//92
f 92//92 102//102 104//104
f 92//92 104//104 94//94
f 95//95 105//105 103//103
f 95//95 103//103 93//93
f 94//94 104//104 106//106
f 94//94 106//106 96//96
f 97//97 107//107 105//105
f 97//97 105//105 95//95
f 96//96 106//106 108//108
f 96//96 108//108 98//98
f 99//99 109//109 107//107
f 99//99 107//107 97//97
f 98//98 108//108 110//110
f 98//98 110//110 100//100
f 101//101 111//111 109//109
f 101//101 109//109 99//99
f 100//100 110//110 111//111
f 100//100 111//111 101//101
f 103//103 113//113 112//112
f 103//103 112//112 102//102
f 102//102 112//112 114//114
f 102//102 114//114 104//104
f 105//105 115//115 113//113
f 105//105 113//113 103//103
f 104//104 114//114 116//116
f 104//104 116//116 106//106
f 107//107 117//117 115//115
f 107//107 115//115 105//105
f 106//106 116//116 118//118
f 106//106 118//118 108//108
f 109//109 119//119 117//117
f 109//109 117//117 107//107
f 108//108 118//118 120//120
f 108//108 120//120 110//110
f 111//111 121//121 119//119
f 111//111 119//119 109//109
f 110//110 120//120 121//121
f 110//110 121//121 111//111
f 113//113 122//122 112//112
f 112//112 122//122 114//114
f 115//115 122//122 113//113
f 114//114 122//122 116//116
f 117//117 122//122 115//115
f 116//116 122//122 118//118
f 119//119 122//122 117//117
f 118//118 122//122 120//120
f 121//121 122//122 119//119
f 120//120 122//122 121//121
# 240 faces, 0 coords texture

# End of File
