####
#
# OBJ File Generated by Meshlab
#
####
# Object l_patella.obj
#
# Vertices: 72
# Faces: 140
#
####
vn 1.680099 2.368210 0.406911
v 0.005482 0.049127 0.007546
vn 0.205844 2.249856 1.258842
v 0.000000 0.050274 0.012600
vn 0.000090 0.000308 0.000014
v 0.000000 0.052920 0.000000
vn 1.735400 2.443471 0.003642
v 0.005758 0.047980 0.001871
vn 3.933115 3.193621 1.996739
v 0.010147 0.044365 0.013966
vn -0.525398 2.697234 3.404663
v 0.000000 0.044982 0.021764
vn 4.672998 3.212069 0.218637
v 0.012139 0.043747 0.003944
vn -2.225143 1.390412 0.661349
v -0.004954 0.050979 0.006818
vn -5.130713 1.039237 0.655711
v -0.007935 0.043395 0.010922
vn 1.710918 2.458076 0.138377
v 0.005758 0.047980 -0.001871
vn 1.392954 2.613687 -0.235779
v 0.003895 0.049744 -0.005362
vn -0.754499 2.432500 -0.704390
v 0.000000 0.051509 -0.007200
vn -2.506565 1.187296 0.061136
v -0.003367 0.051596 -0.004633
vn -2.954024 0.399168 0.168544
v -0.004046 0.051685 -0.001315
vn -2.904805 0.392273 -0.515724
v -0.004046 0.051685 0.001315
vn 4.496479 3.418538 -0.299834
v 0.012139 0.043747 -0.003944
vn 4.487942 0.422482 3.256725
v 0.012023 0.033957 0.016548
vn -0.905469 -0.065358 4.047367
v 0.000000 0.035280 0.024709
vn 5.781795 0.685496 0.756827
v 0.015407 0.032634 0.005006
vn -5.264182 -0.366262 0.404844
v -0.008176 0.035015 0.011253
vn 5.763591 0.726341 -0.728729
v 0.015407 0.032634 -0.005006
vn -5.750409 -0.135349 -1.008093
v -0.004981 0.041807 0.001618
vn -5.649758 -0.575269 -1.231065
v -0.002957 0.034751 0.000961
vn 3.633486 3.803384 -1.538056
v 0.008993 0.046569 -0.012378
vn -0.827614 3.695280 -2.204552
v 0.000000 0.049392 -0.017836
vn -4.801340 1.973667 -0.134062
v -0.006781 0.045599 -0.009333
vn -5.774368 -0.083640 0.700217
v -0.004981 0.041807 -0.001618
vn 4.487491 0.716468 -2.942914
v 0.012600 0.034927 -0.017343
vn 3.937143 -1.812202 3.601326
v 0.011013 0.023814 0.015158
vn -1.229111 -1.887271 4.024218
v 0.000000 0.023814 0.021436
vn 5.633900 -1.069253 1.100469
v 0.015251 0.023814 0.004955
vn -5.006950 -0.245456 0.946925
v -0.007358 0.025577 0.010128
vn 5.657544 -1.081032 -0.973767
v 0.015251 0.023814 -0.004955
vn -5.703752 1.152911 -0.594524
v -0.003424 0.027342 0.001112
vn 4.109886 -1.873204 -3.113212
v 0.011590 0.023460 -0.015953
vn -5.715245 -0.239033 1.168355
v -0.002957 0.034751 -0.000961
vn -5.535781 1.244862 1.010891
v -0.003424 0.027342 -0.001112
vn -0.815825 0.866717 -3.667836
v 0.000000 0.037220 -0.026673
vn -5.203475 0.499142 -0.224290
v -0.008752 0.035986 -0.012047
vn -0.812872 -1.451807 -4.164511
v 0.000000 0.023109 -0.023400
vn 3.492180 -2.581008 3.676930
v 0.008512 0.016493 0.011716
vn -0.716189 -1.709519 4.721009
v 0.000000 0.018345 0.015546
vn 5.186722 -2.312432 1.315132
v 0.012761 0.014641 0.004146
vn -4.406689 -0.219734 2.665316
v -0.007887 0.015435 0.010856
vn 5.395039 -2.103302 -1.048590
v 0.012761 0.014641 -0.004146
vn -5.505829 0.579428 0.740863
v -0.010738 0.012524 0.003489
vn 3.959952 -2.170411 -3.424870
v 0.009089 0.016229 -0.012511
vn -5.691176 0.421483 -0.049929
v -0.010738 0.012524 -0.003489
vn -0.527770 -2.009134 -4.548483
v 0.000000 0.017816 -0.017509
vn -5.220370 0.139594 -0.996774
v -0.007935 0.025225 -0.010922
vn -4.807428 -0.665287 -2.620024
v -0.008464 0.015171 -0.011650
vn 3.352427 -2.953776 3.348930
v 0.006925 0.008732 0.009531
vn -0.056236 -2.808232 4.461484
v 0.000000 0.008643 0.013418
vn 4.681638 -3.235712 1.173881
v 0.009649 0.008820 0.003135
vn -3.411331 -2.666353 3.378220
v -0.006925 0.007937 0.009531
vn 4.898569 -3.242638 -0.627455
v 0.009649 0.008820 -0.003135
vn -4.980034 -2.469442 1.193848
v -0.009649 0.007232 0.003135
vn 3.904097 -2.953792 -2.843022
v 0.007551 0.008556 -0.010392
vn -5.215286 -2.361712 -0.861535
v -0.009649 0.007232 -0.003135
vn 0.125078 -2.661844 -4.353356
v 0.000000 0.008291 -0.015546
vn -3.904505 -2.428456 -3.100553
v -0.007551 0.007761 -0.010392
vn 1.389460 -2.109311 1.473333
v 0.003991 0.003969 0.005495
vn -0.164961 -2.153567 1.895393
v 0.000000 0.004233 0.008182
vn 2.128284 -2.004507 0.544740
v 0.005135 0.003705 0.001669
vn -1.583369 -1.994463 1.429251
v -0.004424 0.003616 0.006089
vn 2.263029 -1.954099 -0.139288
v 0.005135 0.003705 -0.001669
vn -2.274145 -1.823519 0.390900
v -0.006536 0.002999 0.002124
vn 1.993502 -1.925107 -0.863261
v 0.004617 0.003440 -0.006355
vn -2.316399 -1.799824 -0.509896
v -0.006536 0.002999 -0.002124
vn 0.537019 -1.991091 -1.803862
v 0.000000 0.003174 -0.010309
vn -1.547778 -1.931083 -1.523948
v -0.005049 0.003087 -0.006950
vn 0.000017 -0.000325 0.000015
v 0.000000 0.000000 0.000000
# 72 vertices, 0 vertices normals

f 3//3 2//2 1//1
f 3//3 1//1 4//4
f 2//2 6//6 5//5
f 2//2 5//5 1//1
f 1//1 5//5 7//7
f 1//1 7//7 4//4
f 3//3 8//8 2//2
f 8//8 9//9 6//6
f 8//8 6//6 2//2
f 3//3 4//4 10//10
f 3//3 10//10 11//11
f 3//3 11//11 12//12
f 3//3 12//12 13//13
f 3//3 13//13 14//14
f 3//3 14//14 15//15
f 3//3 15//15 8//8
f 4//4 7//7 16//16
f 4//4 16//16 10//10
f 6//6 18//18 17//17
f 6//6 17//17 5//5
f 5//5 17//17 19//19
f 5//5 19//19 7//7
f 9//9 20//20 18//18
f 9//9 18//18 6//6
f 7//7 19//19 21//21
f 7//7 21//21 16//16
f 15//15 22//22 9//9
f 15//15 9//9 8//8
f 22//22 23//23 20//20
f 22//22 20//20 9//9
f 10//10 16//16 24//24
f 10//10 24//24 11//11
f 11//11 24//24 25//25
f 11//11 25//25 12//12
f 12//12 25//25 26//26
f 12//12 26//26 13//13
f 13//13 26//26 27//27
f 13//13 27//27 14//14
f 14//14 27//27 22//22
f 14//14 22//22 15//15
f 16//16 21//21 28//28
f 16//16 28//28 24//24
f 18//18 30//30 29//29
f 18//18 29//29 17//17
f 17//17 29//29 31//31
f 17//17 31//31 19//19
f 20//20 32//32 30//30
f 20//20 30//30 18//18
f 19//19 31//31 33//33
f 19//19 33//33 21//21
f 23//23 34//34 32//32
f 23//23 32//32 20//20
f 21//21 33//33 35//35
f 21//21 35//35 28//28
f 27//27 36//36 23//23
f 27//27 23//23 22//22
f 36//36 37//37 34//34
f 36//36 34//34 23//23
f 24//24 28//28 38//38
f 24//24 38//38 25//25
f 25//25 38//38 39//39
f 25//25 39//39 26//26
f 26//26 39//39 36//36
f 26//26 36//36 27//27
f 28//28 35//35 40//40
f 28//28 40//40 38//38
f 30//30 42//42 41//41
f 30//30 41//41 29//29
f 29//29 41//41 43//43
f 29//29 43//43 31//31
f 32//32 44//44 42//42
f 32//32 42//42 30//30
f 31//31 43//43 45//45
f 31//31 45//45 33//33
f 34//34 46//46 44//44
f 34//34 44//44 32//32
f 33//33 45//45 47//47
f 33//33 47//47 35//35
f 37//37 48//48 46//46
f 37//37 46//46 34//34
f 35//35 47//47 49//49
f 35//35 49//49 40//40
f 39//39 50//50 37//37
f 39//39 37//37 36//36
f 50//50 51//51 48//48
f 50//50 48//48 37//37
f 38//38 40//40 50//50
f 38//38 50//50 39//39
f 40//40 49//49 51//51
f 40//40 51//51 50//50
f 42//42 53//53 52//52
f 42//42 52//52 41//41
f 41//41 52//52 54//54
f 41//41 54//54 43//43
f 44//44 55//55 53//53
f 44//44 53//53 42//42
f 43//43 54//54 56//56
f 43//43 56//56 45//45
f 46//46 57//57 55//55
f 46//46 55//55 44//44
f 45//45 56//56 58//58
f 45//45 58//58 47//47
f 48//48 59//59 57//57
f 48//48 57//57 46//46
f 47//47 58//58 60//60
f 47//47 60//60 49//49
f 51//51 61//61 59//59
f 51//51 59//59 48//48
f 49//49 60//60 61//61
f 49//49 61//61 51//51
f 53//53 63//63 62//62
f 53//53 62//62 52//52
f 52//52 62//62 64//64
f 52//52 64//64 54//54
f 55//55 65//65 63//63
f 55//55 63//63 53//53
f 54//54 64//64 66//66
f 54//54 66//66 56//56
f 57//57 67//67 65//65
f 57//57 65//65 55//55
f 56//56 66//66 68//68
f 56//56 68//68 58//58
f 59//59 69//69 67//67
f 59//59 67//67 57//57
f 58//58 68//68 70//70
f 58//58 70//70 60//60
f 61//61 71//71 69//69
f 61//61 69//69 59//59
f 60//60 70//70 71//71
f 60//60 71//71 61//61
f 63//63 72//72 62//62
f 62//62 72//72 64//64
f 65//65 72//72 63//63
f 64//64 72//72 66//66
f 67//67 72//72 65//65
f 66//66 72//72 68//68
f 69//69 72//72 67//67
f 68//68 72//72 70//70
f 71//71 72//72 69//69
f 70//70 72//72 71//71
# 140 faces, 0 coords texture

# End of File
