####
#
# OBJ File Generated by Meshlab
#
####
# Object little_proximal_rvs.obj
#
# Vertices: 137
# Faces: 270
#
####
vn 0.920560 -3.604041 2.987775
v 0.017104 -0.118801 -0.040698
vn 1.223045 -1.072708 4.918464
v 0.017964 -0.115112 -0.038993
vn -1.201262 -1.979113 5.580647
v 0.015775 -0.116212 -0.040419
vn -3.114103 -2.399041 3.188546
v 0.012575 -0.116619 -0.040680
vn -2.331885 -3.303117 2.966512
v 0.013766 -0.118370 -0.041032
vn -0.697033 -3.768730 2.544371
v 0.015253 -0.119120 -0.041025
vn 1.928272 -2.919251 3.866414
v 0.018001 -0.117695 -0.040090
vn 2.748155 -4.624555 -0.303666
v 0.017521 -0.118845 -0.041714
vn 0.293038 0.270299 5.038759
v 0.016220 -0.113480 -0.038647
vn 3.274032 2.404262 2.589132
v 0.018411 -0.113550 -0.039467
vn 4.679749 -0.134588 2.225010
v 0.019205 -0.115383 -0.040075
vn -1.415610 -1.184249 5.470124
v 0.012883 -0.113091 -0.039166
vn -4.830614 -3.399032 -0.271646
v 0.013068 -0.117739 -0.041662
vn -4.548542 -3.010701 2.762468
v 0.008726 -0.109109 -0.040509
vn -3.992447 -4.571332 0.456481
v 0.013584 -0.118333 -0.041684
vn -1.017126 -5.529169 -0.695000
v 0.014899 -0.119126 -0.042502
vn 4.737846 -2.564188 1.324226
v 0.018898 -0.117153 -0.040767
vn 5.219880 -2.441838 -1.498670
v 0.018888 -0.116730 -0.042743
vn 3.279623 -5.037009 -0.899242
v 0.017059 -0.117859 -0.044672
vn -0.201877 -6.078712 -0.800609
v 0.014928 -0.118401 -0.044815
vn -1.544370 1.326320 4.081193
v 0.013759 -0.112848 -0.038864
vn -0.567415 3.091171 4.276586
v 0.014445 -0.112588 -0.038843
vn 1.730736 4.557720 2.649828
v 0.016335 -0.112182 -0.039608
vn 4.671777 3.596283 -0.064127
v 0.018591 -0.113437 -0.041783
vn 5.652217 0.551429 -0.643673
v 0.019333 -0.115213 -0.042131
vn 1.649413 4.064919 3.717761
v 0.014551 -0.112054 -0.039768
vn -2.080278 -2.080877 5.057886
v 0.009335 -0.106533 -0.038169
vn 0.637383 -1.341610 6.086059
v 0.010289 -0.106414 -0.038156
vn -5.591961 -2.662714 -0.314446
v 0.013067 -0.117364 -0.042349
vn -3.753375 -3.622214 3.393574
v 0.002863 -0.097950 -0.037875
vn -5.071308 -2.637110 -0.218097
v 0.004112 -0.102624 -0.041538
vn -1.724562 -2.306053 5.279022
v 0.007264 -0.101823 -0.037071
vn -5.236240 -2.999429 -1.049006
v 0.012696 -0.116797 -0.044479
vn -4.351799 -3.743652 0.017273
v 0.013379 -0.118239 -0.042493
vn -3.194207 -5.205314 -1.162031
v 0.013915 -0.118081 -0.044722
vn 5.879837 -1.129295 -0.363399
v 0.018569 -0.115656 -0.044412
vn 5.058338 -2.574644 -0.155517
v 0.018764 -0.116366 -0.046591
vn 2.866176 -4.898814 -1.048373
v 0.017117 -0.117938 -0.047375
vn -1.099711 -5.497686 -0.465549
v 0.014877 -0.118458 -0.045983
vn 1.199083 -5.613400 -1.389859
v 0.016106 -0.118234 -0.047634
vn 2.905838 5.301229 0.211719
v 0.016820 -0.112096 -0.041441
vn 3.722867 4.629389 0.981710
v 0.015110 -0.111486 -0.041543
vn 4.845236 3.664284 -0.079747
v 0.018068 -0.113276 -0.044020
vn 3.879039 1.488535 3.407612
v 0.012172 -0.107777 -0.038878
vn 2.375224 -0.089347 4.653735
v 0.010169 -0.103958 -0.037439
vn -0.944264 -2.754719 5.214289
v 0.005466 -0.097050 -0.035345
vn -3.622728 -3.188704 3.090744
v 0.000493 -0.094776 -0.036094
vn -4.899322 -3.447567 1.565671
v 0.002244 -0.098009 -0.038969
vn -5.112674 -3.354670 0.680645
v 0.000042 -0.094687 -0.037366
vn -5.502418 -2.758831 -0.856858
v 0.002044 -0.097902 -0.041162
vn -4.228493 -1.555399 -3.765222
v 0.006262 -0.104716 -0.044079
vn 3.209652 0.216124 3.342055
v 0.009257 -0.101610 -0.037059
vn -5.875298 -1.795785 -1.209486
v 0.012585 -0.114317 -0.046657
vn -4.002544 -2.711723 -2.744370
v 0.013968 -0.117317 -0.047729
vn -5.295189 -1.714933 -2.781707
v 0.012198 -0.112799 -0.046861
vn 5.277244 1.088974 0.119382
v 0.019136 -0.114417 -0.046403
vn 4.044400 -2.284312 -2.865173
v 0.018247 -0.116248 -0.048712
vn 2.740043 -3.725574 -3.182619
v 0.017633 -0.117004 -0.048531
vn -1.377987 -3.950638 -2.910119
v 0.015166 -0.118092 -0.048143
vn 0.935701 -4.115640 -3.913538
v 0.016036 -0.117950 -0.048238
vn 3.576186 5.139511 0.164854
v 0.017203 -0.112625 -0.043904
vn 4.202746 4.485695 -0.079474
v 0.014819 -0.110719 -0.045573
vn 1.702315 1.248232 -3.032305
v 0.009681 -0.102042 -0.045860
vn 3.305002 3.720162 -1.960467
v 0.017463 -0.112269 -0.048262
vn -3.227013 -3.580516 3.906456
v 0.000515 -0.093337 -0.035177
vn 0.454818 -3.526646 4.817522
v 0.003417 -0.091494 -0.032172
vn 3.067047 -1.869209 5.027134
v 0.006105 -0.093147 -0.033949
vn 1.980261 -1.278720 5.729636
v 0.007212 -0.096587 -0.035468
vn -5.252191 -2.780542 1.486765
v -0.000558 -0.093474 -0.036839
vn -5.704455 -1.142457 0.507310
v -0.002322 -0.090140 -0.038480
vn -5.476005 -2.629854 -1.303023
v -0.001579 -0.091279 -0.040130
vn -4.635476 -1.840593 -3.306565
v -0.000972 -0.090814 -0.042414
vn -2.427654 -0.230175 -5.142858
v 0.009651 -0.107251 -0.046526
vn -2.060667 -0.983259 -5.728835
v 0.002327 -0.092522 -0.044097
vn 5.550401 -0.510341 1.958535
v 0.007693 -0.091829 -0.035175
vn 5.752372 1.383127 -1.639982
v 0.007640 -0.094211 -0.042567
vn -5.034745 -1.568020 -2.221495
v 0.012643 -0.114400 -0.047224
vn -5.031366 -1.082081 -3.020850
v 0.012401 -0.113087 -0.047330
vn -1.859382 -1.468397 -5.150303
v 0.015041 -0.117052 -0.048676
vn -4.534615 -1.432641 -4.070860
v 0.012135 -0.111749 -0.047295
vn -4.128510 -0.675658 -4.484427
v 0.012501 -0.111893 -0.047704
vn 4.336697 0.931307 -2.501846
v 0.018690 -0.114321 -0.048665
vn 1.137528 -1.013398 -5.058613
v 0.017713 -0.115804 -0.049269
vn 1.888328 4.289096 -3.637709
v 0.013683 -0.110335 -0.047090
vn 1.380759 4.135326 -2.117220
v 0.015307 -0.110743 -0.047795
vn 2.423525 1.564624 -4.700093
v 0.006777 -0.095011 -0.044629
vn 0.615409 1.938897 -5.102658
v 0.016800 -0.112654 -0.048922
vn -2.354315 -3.118814 4.331418
v 0.001125 -0.090478 -0.031652
vn -4.425208 -2.237838 2.849257
v -0.000546 -0.091485 -0.034050
vn 0.820290 -3.175901 4.771292
v 0.003112 -0.090636 -0.031389
vn 2.092034 -1.044968 5.401193
v 0.004974 -0.088174 -0.030971
vn 4.147166 -1.606120 3.841379
v 0.006875 -0.090026 -0.033016
vn -5.435405 -1.342221 -1.444116
v -0.002245 -0.090037 -0.039999
vn -5.177283 2.377064 0.691303
v -0.002147 -0.087768 -0.039251
vn -5.698982 1.319687 -0.576374
v -0.002037 -0.087042 -0.041164
vn -6.102901 -0.237677 -1.113655
v -0.002129 -0.088490 -0.040638
vn -4.348060 2.310341 1.096067
v -0.001705 -0.087510 -0.035879
vn -5.837871 -1.270159 -1.509644
v -0.001739 -0.089451 -0.041148
vn -5.245393 -1.114058 -2.549022
v -0.001706 -0.089035 -0.042147
vn -2.643952 -1.587086 -5.167388
v 0.001034 -0.090155 -0.044354
vn -1.804255 1.197044 -5.194562
v 0.012451 -0.110961 -0.047712
vn -0.025822 -0.337958 -6.238944
v 0.004729 -0.091802 -0.044466
vn 5.486587 0.885987 1.215186
v 0.007731 -0.086612 -0.034098
vn 2.621930 0.423149 -5.386174
v 0.005655 -0.091526 -0.044355
vn 3.996161 1.344607 -3.012073
v 0.006116 -0.085388 -0.043655
vn -3.066705 -0.789607 -5.233679
v 0.013267 -0.113701 -0.047975
vn -1.472452 0.911149 -5.391406
v 0.013594 -0.111910 -0.048380
vn 1.389719 0.989068 -4.925943
v 0.017896 -0.114252 -0.049258
vn -4.062678 -0.924349 4.152476
v 0.000695 -0.089577 -0.031570
vn -1.741652 -1.852476 5.455530
v 0.001712 -0.089581 -0.031011
vn -0.483891 -0.334471 5.527799
v 0.002581 -0.088828 -0.030605
vn 0.259806 1.748000 5.425474
v 0.004394 -0.086368 -0.030926
vn 2.726560 2.213683 3.950175
v 0.005942 -0.085599 -0.031620
vn 4.045234 -0.391011 4.051827
v 0.006500 -0.087790 -0.031795
vn -3.504861 3.177317 -1.156278
v -0.000306 -0.084109 -0.043322
vn -4.706757 2.245263 -0.871206
v -0.001534 -0.085783 -0.042384
vn 1.039916 4.892603 0.770846
v 0.005782 -0.083612 -0.034675
vn -4.362157 1.469050 3.274395
v 0.000076 -0.087259 -0.032333
vn -2.826000 4.019421 2.042750
v 0.001109 -0.085663 -0.032572
vn -4.271627 -0.259308 -3.873144
v -0.001111 -0.087389 -0.043515
vn -0.702903 -0.425543 -5.752900
v 0.002087 -0.088629 -0.045054
vn 4.332817 2.890660 1.397717
v 0.007129 -0.084844 -0.033918
vn 1.230353 2.718479 -4.330791
v 0.003513 -0.083542 -0.044499
vn 3.396299 3.512163 -2.314921
v 0.005149 -0.083614 -0.043458
vn 4.593875 3.711695 -0.196140
v 0.006630 -0.084295 -0.036356
vn -2.712152 0.615280 5.303181
v 0.001426 -0.088693 -0.031029
vn -2.646136 2.341751 5.011663
v 0.001089 -0.086915 -0.031775
vn -0.999132 4.134979 3.608561
v 0.003836 -0.084749 -0.031965
vn 0.696951 4.982156 2.484134
v 0.005062 -0.084123 -0.032882
vn -1.198773 5.592386 0.771361
v 0.002827 -0.082567 -0.042154
vn -2.766019 1.135204 -4.866808
v 0.000230 -0.085293 -0.044427
vn -2.316504 4.055509 -1.821636
v 0.001076 -0.083175 -0.043646
vn -2.091835 5.677634 0.824938
v 0.003969 -0.084338 -0.033043
vn 1.977573 5.406092 0.204903
v 0.005016 -0.083089 -0.038220
vn -0.494271 2.319843 -5.094487
v 0.002564 -0.083816 -0.044649
vn -0.099554 4.950067 -2.060043
v 0.002746 -0.082627 -0.043491
vn 2.068131 5.484533 -0.853209
v 0.003949 -0.082713 -0.042545
# 137 vertices, 0 vertices normals

f 1//1 2//2 3//3
f 3//3 4//4 1//1
f 4//4 5//5 1//1
f 5//5 6//6 1//1
f 7//7 2//2 1//1
f 8//8 1//1 6//6
f 7//7 1//1 8//8
f 9//9 3//3 2//2
f 9//9 2//2 10//10
f 2//2 11//11 10//10
f 11//11 2//2 7//7
f 9//9 12//12 3//3
f 12//12 4//4 3//3
f 13//13 5//5 4//4
f 13//13 4//4 14//14
f 14//14 4//4 12//12
f 15//15 5//5 13//13
f 6//6 5//5 15//15
f 16//16 6//6 15//15
f 8//8 6//6 16//16
f 17//17 11//11 7//7
f 17//17 7//7 8//8
f 17//17 8//8 18//18
f 8//8 19//19 18//18
f 19//19 8//8 20//20
f 20//20 8//8 16//16
f 21//21 9//9 22//22
f 23//23 22//22 9//9
f 12//12 9//9 21//21
f 10//10 23//23 9//9
f 10//10 11//11 24//24
f 23//23 10//10 24//24
f 25//25 24//24 11//11
f 11//11 17//17 25//25
f 21//21 26//26 12//12
f 12//12 27//27 14//14
f 27//27 12//12 28//28
f 12//12 26//26 28//28
f 15//15 13//13 29//29
f 13//13 14//14 29//29
f 30//30 31//31 14//14
f 27//27 32//32 14//14
f 30//30 14//14 32//32
f 29//29 14//14 33//33
f 31//31 33//33 14//14
f 29//29 34//34 15//15
f 34//34 16//16 15//15
f 16//16 34//34 35//35
f 35//35 20//20 16//16
f 18//18 25//25 17//17
f 18//18 19//19 36//36
f 25//25 18//18 36//36
f 19//19 37//37 36//36
f 37//37 19//19 38//38
f 19//19 39//39 40//40
f 19//19 40//40 38//38
f 20//20 39//39 19//19
f 20//20 35//35 39//39
f 22//22 26//26 21//21
f 26//26 22//22 23//23
f 23//23 24//24 41//41
f 26//26 23//23 42//42
f 41//41 42//42 23//23
f 24//24 43//43 41//41
f 43//43 24//24 25//25
f 43//43 25//25 36//36
f 44//44 26//26 42//42
f 26//26 44//44 28//28
f 28//28 45//45 27//27
f 32//32 27//27 45//45
f 44//44 45//45 28//28
f 33//33 34//34 29//29
f 46//46 30//30 32//32
f 47//47 30//30 46//46
f 48//48 31//31 30//30
f 49//49 48//48 30//30
f 49//49 30//30 47//47
f 31//31 50//50 51//51
f 31//31 48//48 50//50
f 33//33 31//31 51//51
f 52//52 46//46 32//32
f 32//32 45//45 52//52
f 33//33 53//53 54//54
f 33//33 54//54 34//34
f 33//33 51//51 55//55
f 55//55 53//53 33//33
f 35//35 34//34 54//54
f 35//35 54//54 39//39
f 37//37 56//56 36//36
f 36//36 56//56 43//43
f 37//37 57//57 56//56
f 57//57 37//37 38//38
f 38//38 40//40 58//58
f 57//57 38//38 58//58
f 59//59 39//39 54//54
f 59//59 40//40 39//39
f 60//60 58//58 40//40
f 60//60 40//40 59//59
f 42//42 41//41 61//61
f 43//43 61//61 41//41
f 62//62 63//63 42//42
f 44//44 42//42 63//63
f 62//62 42//42 61//61
f 43//43 64//64 61//61
f 64//64 43//43 56//56
f 52//52 44//44 63//63
f 52//52 45//45 44//44
f 65//65 46//46 66//66
f 65//65 47//47 46//46
f 67//67 66//66 46//46
f 68//68 67//67 46//46
f 68//68 46//46 52//52
f 47//47 65//65 69//69
f 69//69 49//49 47//47
f 49//49 50//50 48//48
f 70//70 49//49 69//69
f 70//70 50//50 49//49
f 70//70 71//71 50//50
f 72//72 51//51 50//50
f 72//72 50//50 71//71
f 51//51 63//63 73//73
f 51//51 72//72 74//74
f 74//74 63//63 51//51
f 55//55 51//51 73//73
f 75//75 52//52 76//76
f 63//63 76//76 52//52
f 68//68 52//52 75//75
f 77//77 53//53 78//78
f 54//54 53//53 77//77
f 55//55 78//78 53//53
f 79//79 54//54 77//77
f 79//79 59//59 54//54
f 55//55 73//73 80//80
f 81//81 78//78 55//55
f 81//81 55//55 80//80
f 56//56 57//57 82//82
f 82//82 64//64 56//56
f 57//57 83//83 82//82
f 57//57 58//58 83//83
f 58//58 60//60 83//83
f 79//79 60//60 59//59
f 79//79 83//83 60//60
f 62//62 61//61 64//64
f 63//63 62//62 84//84
f 62//62 64//64 85//85
f 85//85 84//84 62//62
f 63//63 74//74 86//86
f 63//63 84//84 73//73
f 76//76 63//63 86//86
f 82//82 87//87 64//64
f 85//85 64//64 87//87
f 88//88 65//65 66//66
f 89//89 69//69 65//65
f 65//65 88//88 89//89
f 66//66 90//90 88//88
f 91//91 90//90 66//66
f 91//91 66//66 92//92
f 66//66 67//67 92//92
f 75//75 67//67 68//68
f 92//92 67//67 75//75
f 89//89 70//70 69//69
f 70//70 93//93 71//71
f 70//70 94//94 95//95
f 93//93 70//70 96//96
f 70//70 95//95 96//96
f 94//94 70//70 97//97
f 70//70 89//89 97//97
f 71//71 98//98 99//99
f 71//71 93//93 98//98
f 99//99 72//72 71//71
f 100//100 72//72 99//99
f 74//74 72//72 100//100
f 73//73 101//101 80//80
f 73//73 84//84 101//101
f 74//74 102//102 86//86
f 100//100 102//102 74//74
f 103//103 75//75 76//76
f 92//92 75//75 103//103
f 104//104 76//76 86//86
f 76//76 104//104 105//105
f 76//76 105//105 103//103
f 77//77 78//78 81//81
f 106//106 79//79 77//77
f 106//106 77//77 81//81
f 83//83 79//79 106//106
f 101//101 81//81 80//80
f 81//81 101//101 107//107
f 106//106 81//81 107//107
f 108//108 87//87 82//82
f 108//108 82//82 83//83
f 108//108 83//83 106//106
f 84//84 85//85 101//101
f 85//85 107//107 101//101
f 87//87 107//107 85//85
f 104//104 86//86 102//102
f 108//108 106//106 87//87
f 106//106 107//107 87//87
f 109//109 89//89 88//88
f 110//110 109//109 88//88
f 88//88 90//90 110//110
f 97//97 89//89 109//109
f 110//110 90//90 111//111
f 111//111 90//90 91//91
f 112//112 91//91 113//113
f 91//91 92//92 114//114
f 111//111 91//91 112//112
f 114//114 113//113 91//91
f 92//92 103//103 114//114
f 96//96 98//98 93//93
f 94//94 115//115 116//116
f 116//116 95//95 94//94
f 94//94 97//97 117//117
f 94//94 117//117 115//115
f 95//95 99//99 96//96
f 95//95 116//116 99//99
f 99//99 98//98 96//96
f 97//97 109//109 118//118
f 97//97 119//119 117//117
f 119//119 97//97 118//118
f 99//99 120//120 100//100
f 116//116 120//120 99//99
f 100//100 121//121 102//102
f 100//100 120//120 121//121
f 102//102 121//121 104//104
f 103//103 105//105 122//122
f 103//103 122//122 114//114
f 123//123 105//105 104//104
f 123//123 104//104 121//121
f 123//123 124//124 105//105
f 124//124 125//125 105//105
f 122//122 105//105 125//125
f 126//126 118//118 109//109
f 126//126 109//109 110//110
f 111//111 126//126 110//110
f 126//126 111//111 127//127
f 112//112 127//127 111//111
f 127//127 112//112 128//128
f 112//112 113//113 128//128
f 129//129 128//128 113//113
f 122//122 113//113 114//114
f 113//113 122//122 129//129
f 115//115 120//120 116//116
f 130//130 115//115 117//117
f 131//131 120//120 115//115
f 115//115 132//132 131//131
f 130//130 132//132 115//115
f 119//119 133//133 117//117
f 117//117 122//122 134//134
f 117//117 129//129 122//122
f 117//117 134//134 130//130
f 129//129 117//117 133//133
f 119//119 118//118 127//127
f 127//127 118//118 126//126
f 128//128 119//119 127//127
f 119//119 128//128 133//133
f 120//120 131//131 121//121
f 135//135 121//121 131//131
f 135//135 123//123 121//121
f 125//125 134//134 122//122
f 135//135 132//132 123//123
f 136//136 123//123 132//132
f 136//136 137//137 123//123
f 124//124 123//123 137//137
f 124//124 137//137 125//125
f 134//134 125//125 137//137
f 128//128 129//129 133//133
f 132//132 130//130 136//136
f 130//130 137//137 136//136
f 134//134 137//137 130//130
f 132//132 135//135 131//131
# 270 faces, 0 coords texture

# End of File
