####
#
# OBJ File Generated by Meshlab
#
####
# Object little_distal_lvs.obj
#
# Vertices: 159
# Faces: 316
#
####
vn -0.851032 -3.826473 -3.999061
v 0.047332 -0.137461 0.047591
vn -1.987790 -5.285556 -2.596132
v 0.046574 -0.137410 0.048256
vn -1.600989 -2.567425 -4.743033
v 0.045478 -0.135995 0.047091
vn 1.580934 0.072868 -4.906225
v 0.047736 -0.136511 0.047157
vn -0.500305 -5.067104 -1.841002
v 0.047778 -0.138007 0.048268
vn 2.807724 -1.005434 -3.474189
v 0.048838 -0.137386 0.047819
vn -1.486338 -2.913941 -5.211515
v 0.044990 -0.135838 0.047248
vn -1.366676 -5.090050 -3.198183
v 0.041890 -0.136109 0.048180
vn -1.640829 -5.378337 -0.362099
v 0.044300 -0.137533 0.049516
vn 0.176898 -6.052735 -1.085646
v 0.047843 -0.138106 0.049663
vn 0.880137 0.746156 -5.494947
v 0.046315 -0.135589 0.046955
vn -0.680813 0.978167 -5.733308
v 0.045107 -0.135242 0.047069
vn 3.465861 3.264922 -2.259497
v 0.048195 -0.136295 0.047588
vn 2.932437 -1.275084 -1.331949
v 0.049128 -0.137643 0.048199
vn 3.170151 -1.687240 0.014963
v 0.049182 -0.137836 0.049069
vn 5.009053 2.603233 -0.282468
v 0.048822 -0.136855 0.048246
vn -0.386717 -2.110366 -5.395247
v 0.042775 -0.135368 0.047268
vn -0.402887 1.969246 -5.049542
v 0.044082 -0.135108 0.047173
vn 0.200315 -3.491725 -5.043802
v 0.039359 -0.134254 0.046548
vn -0.410235 -3.947474 -4.706596
v 0.042070 -0.135472 0.047419
vn -0.664414 -5.337145 -3.154169
v 0.038552 -0.134723 0.047148
vn -2.143818 -5.632834 0.338009
v 0.038719 -0.135358 0.049182
vn -1.472507 -5.946424 -1.167104
v 0.037789 -0.134715 0.047522
vn 0.600212 -5.482471 0.115108
v 0.047820 -0.138323 0.050425
vn -2.145313 -5.039325 2.747742
v 0.042746 -0.136686 0.050292
vn -1.701500 -3.811710 4.136449
v 0.045061 -0.136642 0.052010
vn -0.885088 -5.144525 2.495785
v 0.047278 -0.138138 0.050974
vn 4.078325 -2.598042 0.914225
v 0.048863 -0.137831 0.050144
vn 1.461805 3.577844 -2.454493
v 0.046023 -0.134823 0.047212
vn 0.303276 4.510273 -1.554571
v 0.045220 -0.134492 0.047530
vn 3.228834 3.907547 2.538405
v 0.047413 -0.136191 0.051508
vn 4.130556 4.266089 0.394207
v 0.048571 -0.136550 0.048598
vn 5.653452 2.073626 1.033160
v 0.048898 -0.137325 0.049804
vn 1.226022 -0.257602 -5.835259
v 0.041833 -0.135017 0.047221
vn 0.446662 3.188578 -4.474220
v 0.043083 -0.134947 0.047297
vn -0.580986 5.888904 -1.223499
v 0.044150 -0.134666 0.047851
vn 0.713284 -5.166824 -3.175406
v 0.037385 -0.134359 0.046495
vn 2.202051 -1.201654 -5.367547
v 0.039413 -0.133281 0.046109
vn 2.304563 -0.272444 -5.140202
v 0.040528 -0.133916 0.046558
vn -1.694631 -5.949626 0.801478
v 0.036832 -0.134491 0.049727
vn -1.682914 -4.456847 3.719554
v 0.039575 -0.135068 0.050728
vn -1.222701 -5.333622 -1.923875
v 0.035580 -0.134152 0.045759
vn 2.575388 -1.375366 1.887712
v 0.048632 -0.137808 0.051368
vn -2.474815 -3.765227 4.288084
v 0.042796 -0.135489 0.051437
vn -1.611174 -3.665298 4.605574
v 0.041087 -0.135468 0.051002
vn 1.670990 -1.129655 4.029037
v 0.048257 -0.137593 0.051656
vn 1.122201 -0.784841 4.868788
v 0.046615 -0.136603 0.052256
vn -0.017417 -0.147074 5.447576
v 0.045403 -0.135948 0.052423
vn -2.097195 -2.005958 4.768151
v 0.043234 -0.135298 0.052047
vn 4.242704 2.915426 2.585379
v 0.048324 -0.136997 0.051285
vn 5.234572 2.041954 1.619736
v 0.048761 -0.137228 0.050334
vn 1.730888 5.875685 0.990503
v 0.045489 -0.134974 0.049589
vn 0.681077 6.126230 0.445032
v 0.044719 -0.134925 0.049546
vn 2.448801 3.244638 3.901970
v 0.046341 -0.135826 0.052119
vn 1.205991 3.410833 3.434798
v 0.044845 -0.134992 0.052147
vn 0.866496 6.021957 -0.313318
v 0.044713 -0.134851 0.050301
vn 1.129844 5.718116 -0.101790
v 0.044168 -0.134567 0.051519
vn 2.820184 4.126103 -3.144686
v 0.042222 -0.134214 0.047717
vn 3.760902 3.512108 -2.694443
v 0.041464 -0.133716 0.047445
vn 1.988046 5.867292 0.363158
v 0.043482 -0.134536 0.049355
vn 3.182272 -2.197326 -4.753374
v 0.038138 -0.132566 0.045237
vn -0.792418 -3.360003 -3.924942
v 0.035960 -0.133357 0.044354
vn 2.481531 -3.208154 -4.360421
v 0.036585 -0.133004 0.044259
vn 4.169015 2.846277 -2.716898
v 0.039748 -0.132429 0.046504
vn 4.004510 1.718150 -3.791023
v 0.038235 -0.131478 0.045159
vn -0.820063 -5.141460 3.189034
v 0.036853 -0.134159 0.050903
vn -0.511161 -5.221633 2.933917
v 0.036309 -0.134050 0.051043
vn -1.920719 -0.367535 0.444770
v 0.033491 -0.133732 0.050058
vn -0.071419 -1.750479 5.833702
v 0.039991 -0.134370 0.051236
vn -0.069255 -2.706282 5.520562
v 0.037181 -0.133361 0.051639
vn -3.321540 -1.262386 -2.333614
v 0.035260 -0.133493 0.044862
vn -2.415780 0.840938 -1.694937
v 0.034514 -0.133458 0.045813
vn -2.844259 -0.819113 -0.781433
v 0.034179 -0.133810 0.046565
vn -1.920198 -0.213754 -0.343253
v 0.033486 -0.133715 0.048311
vn -1.420174 0.342479 5.272903
v 0.042139 -0.134957 0.051515
vn -3.033834 -1.377308 4.963702
v 0.042729 -0.134933 0.051864
vn -1.134988 -0.570985 5.837604
v 0.041306 -0.134850 0.051337
vn -1.049302 2.392850 2.171795
v 0.043136 -0.134575 0.052079
vn 0.423461 5.939665 -0.452464
v 0.044206 -0.134909 0.050339
vn 0.501871 5.300198 1.578327
v 0.043651 -0.134509 0.051894
vn 3.912918 4.858056 -0.009042
v 0.040692 -0.132971 0.048702
vn 1.599179 5.883993 0.805703
v 0.042597 -0.134530 0.050523
vn 3.011469 5.141110 1.921000
v 0.041904 -0.133881 0.049764
vn 2.975163 4.658503 2.853635
v 0.041794 -0.134128 0.050352
vn 3.710881 -0.528280 -4.778464
v 0.037451 -0.132071 0.044501
vn -1.129482 -0.618551 -3.957957
v 0.036056 -0.132757 0.043935
vn -3.836447 1.302536 -3.086467
v 0.035769 -0.132367 0.044222
vn 1.483638 -0.530681 -5.406329
v 0.036721 -0.132301 0.044056
vn 1.860091 4.322152 -3.061434
v 0.037255 -0.130289 0.045148
vn 2.643024 5.417642 -0.274311
v 0.037414 -0.129771 0.049893
vn 3.504092 4.218914 -1.602141
v 0.037804 -0.130251 0.045891
vn 1.617641 3.158859 -4.168956
v 0.037164 -0.130703 0.044656
vn 0.291567 -4.578527 4.163054
v 0.036150 -0.133589 0.051581
vn -2.980146 -1.047248 2.598253
v 0.034660 -0.132858 0.052242
vn -2.883134 -0.957339 1.925734
v 0.034383 -0.133165 0.051813
vn -3.654047 4.896064 -0.495876
v 0.034215 -0.133315 0.050977
vn 2.064404 -1.553540 5.643745
v 0.038260 -0.132032 0.051991
vn 3.545779 1.254509 4.514750
v 0.038655 -0.131563 0.051880
vn 3.080179 1.576759 4.058761
v 0.039921 -0.133006 0.051394
vn 1.170709 1.706710 5.704145
v 0.040698 -0.134314 0.051120
vn -3.970105 4.748884 -0.323214
v 0.035236 -0.132770 0.048525
vn -5.934455 1.566226 -0.921733
v 0.035957 -0.131811 0.044723
vn -5.670247 2.374689 -0.338685
v 0.035829 -0.132079 0.047448
vn -6.132913 1.215427 0.031388
v 0.035853 -0.131519 0.045782
vn -0.410748 5.473361 0.798752
v 0.042400 -0.134439 0.051053
vn 0.278662 3.640579 3.940007
v 0.041718 -0.134514 0.051323
vn 3.323210 4.042874 1.612015
v 0.037986 -0.130026 0.051477
vn 2.286752 4.031936 3.670977
v 0.041288 -0.134251 0.050877
vn 0.728246 1.063420 -4.701997
v 0.036807 -0.131599 0.044032
vn -2.893692 1.461341 -3.950548
v 0.036045 -0.131810 0.044217
vn -3.183937 1.693741 -3.177898
v 0.036052 -0.131292 0.044368
vn -2.439497 3.937639 -3.040022
v 0.036060 -0.130308 0.045242
vn 0.281328 5.544665 -1.876750
v 0.036759 -0.129839 0.045953
vn 0.660147 6.116931 1.152246
v 0.036914 -0.129770 0.051396
vn 0.153228 5.890759 0.466001
v 0.036552 -0.129552 0.050606
vn -1.261579 5.738480 0.261925
v 0.036033 -0.129555 0.049827
vn 1.423662 5.403987 1.451624
v 0.037487 -0.129792 0.051450
vn -1.170135 4.173885 -1.565975
v 0.036416 -0.129580 0.046651
vn 0.702858 -3.506405 4.285726
v 0.036307 -0.132497 0.052912
vn 3.078720 -3.298431 4.214334
v 0.037456 -0.132117 0.052413
vn -3.334384 0.113823 3.357635
v 0.035155 -0.131835 0.052905
vn -5.124305 3.370136 -0.628705
v 0.034646 -0.132631 0.051282
vn -5.336625 2.975768 -0.525774
v 0.034838 -0.132247 0.051578
vn -3.218685 2.057527 3.097149
v 0.035336 -0.131357 0.052904
vn -4.663774 3.797853 -0.556861
v 0.035545 -0.132485 0.049115
vn 3.286376 -0.645898 5.280615
v 0.037867 -0.131635 0.052297
vn 3.473857 1.939394 4.490685
v 0.037750 -0.130780 0.052348
vn -5.469920 2.871367 0.008250
v 0.035629 -0.132282 0.048350
vn -5.728356 -0.819276 0.382414
v 0.036073 -0.130777 0.046477
vn -5.651559 0.148111 -0.457547
v 0.036110 -0.131246 0.047499
vn -5.976639 0.056832 -0.804161
v 0.035938 -0.131264 0.048220
vn -5.879331 1.606477 0.055341
v 0.035756 -0.131638 0.048560
vn -6.226436 -0.336222 -0.152636
v 0.035882 -0.130961 0.045504
vn 1.631188 3.194467 4.491156
v 0.037263 -0.130464 0.052496
vn -3.993451 2.362285 -1.287933
v 0.035779 -0.130191 0.045825
vn -3.389185 2.143792 -0.589870
v 0.035734 -0.129968 0.046433
vn -4.151158 1.892530 -0.727869
v 0.035589 -0.129882 0.047593
vn -1.930620 5.205219 1.257442
v 0.036041 -0.129700 0.051292
vn 1.501711 4.936055 3.217111
v 0.037152 -0.129991 0.051975
vn 0.026967 5.154602 2.633553
v 0.036651 -0.129827 0.051871
vn -4.319002 1.729639 0.206740
v 0.035519 -0.129971 0.050650
vn -4.109513 1.650683 -0.201352
v 0.035446 -0.129884 0.048539
vn -0.873924 -0.291700 0.149599
v 0.035330 -0.129978 0.050151
vn 3.391144 -1.884485 4.699954
v 0.037159 -0.131869 0.052802
vn 1.973984 -2.387786 5.021070
v 0.036562 -0.132087 0.053078
vn -0.308685 -0.051225 5.263140
v 0.036164 -0.131792 0.053236
vn -5.404848 1.204522 -1.550852
v 0.035919 -0.131254 0.050584
vn -5.245093 2.769412 -2.007123
v 0.035500 -0.131309 0.051498
vn -5.609002 2.665191 -0.677662
v 0.035308 -0.131404 0.051984
vn -5.952480 1.517669 -0.454289
v 0.035464 -0.130926 0.051968
vn -2.488099 3.068181 3.137441
v 0.035702 -0.130576 0.052577
vn -5.789752 2.030910 -0.338395
v 0.035865 -0.131645 0.049798
vn -5.730237 1.579161 0.420899
v 0.035786 -0.132065 0.048838
vn 2.031999 0.489968 5.301633
v 0.036815 -0.131625 0.053081
vn -5.907112 0.393035 0.272650
v 0.035942 -0.131277 0.048915
vn -4.851759 2.061368 0.718424
v 0.035526 -0.130305 0.051730
vn -5.512639 -2.059541 -1.328173
v 0.035881 -0.130643 0.050332
vn -5.823498 -1.779174 0.570446
v 0.035888 -0.130678 0.049510
vn -5.352190 -0.109301 0.515809
v 0.036066 -0.131027 0.049937
# 159 vertices, 0 vertices normals

f 1//1 2//2 3//3
f 1//1 3//3 4//4
f 2//2 1//1 5//5
f 1//1 4//4 6//6
f 6//6 5//5 1//1
f 7//7 3//3 2//2
f 7//7 2//2 8//8
f 9//9 2//2 10//10
f 10//10 2//2 5//5
f 9//9 8//8 2//2
f 4//4 3//3 11//11
f 3//3 7//7 12//12
f 11//11 3//3 12//12
f 6//6 4//4 13//13
f 13//13 4//4 11//11
f 14//14 5//5 6//6
f 15//15 5//5 14//14
f 15//15 10//10 5//5
f 16//16 6//6 13//13
f 16//16 14//14 6//6
f 8//8 17//17 7//7
f 12//12 7//7 18//18
f 7//7 17//17 18//18
f 8//8 19//19 20//20
f 8//8 20//20 17//17
f 19//19 8//8 21//21
f 8//8 9//9 22//22
f 23//23 21//21 8//8
f 8//8 22//22 23//23
f 9//9 10//10 24//24
f 25//25 22//22 9//9
f 26//26 9//9 27//27
f 27//27 9//9 24//24
f 9//9 26//26 25//25
f 10//10 28//28 24//24
f 15//15 28//28 10//10
f 11//11 12//12 29//29
f 29//29 13//13 11//11
f 12//12 30//30 29//29
f 30//30 12//12 18//18
f 13//13 31//31 32//32
f 16//16 13//13 32//32
f 31//31 13//13 29//29
f 33//33 15//15 14//14
f 14//14 32//32 33//33
f 16//16 32//32 14//14
f 33//33 28//28 15//15
f 34//34 17//17 20//20
f 18//18 17//17 35//35
f 34//34 35//35 17//17
f 35//35 36//36 18//18
f 36//36 30//30 18//18
f 34//34 20//20 19//19
f 19//19 37//37 38//38
f 19//19 21//21 37//37
f 39//39 34//34 19//19
f 39//39 19//19 38//38
f 23//23 37//37 21//21
f 40//40 23//23 22//22
f 41//41 22//22 25//25
f 41//41 40//40 22//22
f 23//23 42//42 37//37
f 23//23 40//40 42//42
f 24//24 43//43 27//27
f 43//43 24//24 28//28
f 44//44 25//25 26//26
f 41//41 25//25 45//45
f 25//25 44//44 45//45
f 27//27 46//46 26//26
f 26//26 46//46 47//47
f 47//47 48//48 26//26
f 48//48 49//49 26//26
f 26//26 49//49 44//44
f 43//43 46//46 27//27
f 28//28 50//50 43//43
f 51//51 50//50 28//28
f 33//33 51//51 28//28
f 29//29 30//30 31//31
f 31//31 30//30 52//52
f 36//36 53//53 30//30
f 30//30 53//53 52//52
f 32//32 31//31 50//50
f 54//54 31//31 55//55
f 31//31 52//52 56//56
f 55//55 31//31 57//57
f 57//57 31//31 56//56
f 46//46 31//31 47//47
f 50//50 31//31 46//46
f 54//54 47//47 31//31
f 51//51 33//33 32//32
f 50//50 51//51 32//32
f 58//58 35//35 34//34
f 59//59 34//34 39//39
f 34//34 59//59 58//58
f 36//36 35//35 60//60
f 58//58 60//60 35//35
f 60//60 53//53 36//36
f 61//61 38//38 37//37
f 37//37 42//42 62//62
f 62//62 63//63 37//37
f 61//61 37//37 63//63
f 64//64 39//39 38//38
f 64//64 38//38 65//65
f 65//65 38//38 61//61
f 39//39 64//64 59//59
f 40//40 66//66 67//67
f 41//41 66//66 40//40
f 67//67 68//68 40//40
f 40//40 68//68 42//42
f 69//69 41//41 45//45
f 41//41 69//69 70//70
f 70//70 66//66 41//41
f 71//71 62//62 42//42
f 72//72 42//42 73//73
f 72//72 71//71 42//42
f 42//42 68//68 74//74
f 73//73 42//42 74//74
f 50//50 46//46 43//43
f 75//75 45//45 44//44
f 44//44 49//49 76//76
f 75//75 44//44 76//76
f 77//77 45//45 75//75
f 69//69 45//45 77//77
f 54//54 48//48 47//47
f 55//55 48//48 54//54
f 48//48 55//55 49//49
f 55//55 78//78 49//49
f 76//76 49//49 78//78
f 56//56 52//52 53//53
f 79//79 56//56 53//53
f 60//60 79//79 53//53
f 55//55 80//80 78//78
f 57//57 80//80 55//55
f 79//79 80//80 56//56
f 80//80 57//57 56//56
f 58//58 59//59 81//81
f 60//60 58//58 81//81
f 59//59 64//64 81//81
f 79//79 60//60 82//82
f 60//60 83//83 84//84
f 82//82 60//60 84//84
f 81//81 83//83 60//60
f 61//61 63//63 85//85
f 65//65 61//61 85//85
f 86//86 63//63 62//62
f 87//87 62//62 71//71
f 87//87 86//86 62//62
f 63//63 86//86 88//88
f 63//63 88//88 85//85
f 65//65 89//89 64//64
f 81//81 64//64 90//90
f 90//90 64//64 91//91
f 64//64 89//89 91//91
f 89//89 65//65 92//92
f 85//85 92//92 65//65
f 67//67 66//66 70//70
f 93//93 67//67 70//70
f 93//93 94//94 67//67
f 68//68 67//67 95//95
f 67//67 94//94 95//95
f 68//68 95//95 96//96
f 74//74 68//68 96//96
f 69//69 97//97 70//70
f 98//98 97//97 69//69
f 99//99 69//69 100//100
f 69//69 99//99 98//98
f 100//100 69//69 77//77
f 97//97 93//93 70//70
f 101//101 71//71 72//72
f 102//102 87//87 71//71
f 103//103 71//71 101//101
f 102//102 71//71 104//104
f 103//103 104//104 71//71
f 101//101 72//72 73//73
f 101//101 73//73 74//74
f 74//74 96//96 101//101
f 80//80 75//75 78//78
f 75//75 76//76 78//78
f 80//80 105//105 75//75
f 75//75 106//106 77//77
f 106//106 75//75 105//105
f 100//100 77//77 106//106
f 105//105 79//79 82//82
f 80//80 79//79 105//105
f 81//81 107//107 99//99
f 90//90 107//107 81//81
f 83//83 81//81 99//99
f 105//105 82//82 106//106
f 108//108 106//106 82//82
f 82//82 84//84 108//108
f 83//83 99//99 84//84
f 84//84 99//99 108//108
f 109//109 85//85 88//88
f 92//92 85//85 109//109
f 86//86 87//87 88//88
f 88//88 87//87 110//110
f 102//102 110//110 87//87
f 111//111 109//109 88//88
f 88//88 110//110 111//111
f 112//112 89//89 92//92
f 91//91 89//89 113//113
f 89//89 112//112 113//113
f 114//114 90//90 115//115
f 115//115 90//90 116//116
f 90//90 114//114 117//117
f 90//90 117//117 107//107
f 116//116 90//90 118//118
f 90//90 91//91 118//118
f 118//118 91//91 113//113
f 92//92 111//111 112//112
f 111//111 92//92 109//109
f 94//94 93//93 119//119
f 93//93 97//97 120//120
f 120//120 119//119 93//93
f 119//119 121//121 94//94
f 95//95 94//94 122//122
f 123//123 122//122 94//94
f 94//94 121//121 124//124
f 123//123 94//94 124//124
f 122//122 96//96 95//95
f 125//125 101//101 96//96
f 125//125 96//96 122//122
f 120//120 97//97 126//126
f 126//126 97//97 98//98
f 126//126 98//98 127//127
f 98//98 107//107 127//127
f 99//99 107//107 98//98
f 100//100 108//108 99//99
f 106//106 108//108 100//100
f 128//128 103//103 101//101
f 128//128 101//101 125//125
f 104//104 111//111 102//102
f 102//102 111//111 110//110
f 104//104 103//103 129//129
f 130//130 103//103 131//131
f 130//130 129//129 103//103
f 128//128 132//132 103//103
f 132//132 131//131 103//103
f 111//111 104//104 133//133
f 129//129 133//133 104//104
f 127//127 107//107 134//134
f 117//117 134//134 107//107
f 135//135 112//112 111//111
f 111//111 133//133 135//135
f 135//135 113//113 112//112
f 135//135 112//112 136//136
f 112//112 135//135 136//136
f 118//118 113//113 137//137
f 136//136 113//113 135//135
f 113//113 136//136 137//137
f 115//115 138//138 114//114
f 114//114 139//139 117//117
f 139//139 114//114 140//140
f 114//114 138//138 140//140
f 141//141 115//115 116//116
f 141//141 138//138 115//115
f 116//116 142//142 143//143
f 141//141 116//116 143//143
f 142//142 116//116 118//118
f 117//117 139//139 134//134
f 137//137 142//142 118//118
f 119//119 120//120 144//144
f 145//145 119//119 144//144
f 146//146 121//121 119//119
f 145//145 146//146 119//119
f 126//126 144//144 120//120
f 121//121 146//146 124//124
f 122//122 123//123 125//125
f 147//147 123//123 148//148
f 149//149 123//123 124//124
f 123//123 147//147 125//125
f 148//148 123//123 149//149
f 150//150 149//149 124//124
f 150//150 124//124 151//151
f 124//124 146//146 151//151
f 125//125 152//152 153//153
f 125//125 153//153 128//128
f 152//152 125//125 147//147
f 127//127 154//154 126//126
f 126//126 154//154 144//144
f 154//154 127//127 134//134
f 132//132 128//128 153//153
f 129//129 136//136 133//133
f 130//130 136//136 129//129
f 130//130 131//131 137//137
f 137//137 136//136 130//130
f 137//137 131//131 142//142
f 142//142 131//131 155//155
f 132//132 155//155 131//131
f 152//152 132//132 153//153
f 132//132 152//152 155//155
f 136//136 135//135 133//133
f 134//134 140//140 151//151
f 134//134 139//139 140//140
f 154//154 134//134 146//146
f 151//151 146//146 134//134
f 138//138 151//151 140//140
f 138//138 156//156 151//151
f 138//138 141//141 156//156
f 147//147 156//156 141//141
f 141//141 157//157 147//147
f 141//141 143//143 142//142
f 158//158 141//141 142//142
f 141//141 158//158 157//157
f 158//158 142//142 155//155
f 145//145 144//144 154//154
f 154//154 146//146 145//145
f 150//150 147//147 148//148
f 150//150 156//156 147//147
f 147//147 157//157 159//159
f 152//152 147//147 159//159
f 148//148 149//149 150//150
f 151//151 156//156 150//150
f 152//152 159//159 158//158
f 158//158 155//155 152//152
f 157//157 158//158 159//159
# 316 faces, 0 coords texture

# End of File
