####
#
# OBJ File Generated by Meshlab
#
####
# Object middle_distal_rvs.obj
#
# Vertices: 142
# Faces: 280
#
####
vn -0.492917 -6.207179 -0.349574
v 0.061452 -0.170771 -0.012174
vn -0.999658 -5.863203 1.702773
v 0.060256 -0.170253 -0.010058
vn -0.006777 -4.890016 3.110241
v 0.058993 -0.170264 -0.009820
vn 0.213040 -5.248515 1.579297
v 0.061592 -0.170769 -0.010243
vn 1.057964 -5.645537 0.188795
v 0.062248 -0.170902 -0.011754
vn -0.672096 -5.830837 -0.573517
v 0.057861 -0.170777 -0.012484
vn -1.039044 -5.357239 -2.699557
v 0.058004 -0.170592 -0.013045
vn 1.327593 -5.735486 -1.424927
v 0.062414 -0.170597 -0.013366
vn -0.126245 -4.438152 3.223948
v 0.060613 -0.170055 -0.008789
vn -1.486752 -4.940219 3.390952
v 0.058681 -0.169426 -0.009075
vn -0.657305 -5.385561 2.645967
v 0.057091 -0.170229 -0.010259
vn 3.539545 -1.182751 0.198124
v 0.063367 -0.170386 -0.011962
vn 3.333766 -0.779506 1.460962
v 0.062950 -0.170104 -0.010159
vn 1.944460 -4.557243 3.823952
v 0.062078 -0.170120 -0.009632
vn -0.622657 -6.033943 0.910415
v 0.051142 -0.169351 -0.010325
vn -1.408975 -4.941264 -3.376241
v 0.056759 -0.170268 -0.012984
vn -1.418337 -5.535153 -2.378474
v 0.054495 -0.169765 -0.012685
vn -0.479615 -5.050793 -3.527315
v 0.060831 -0.169963 -0.014977
vn 1.614074 -3.449233 -3.171916
v 0.061869 -0.170381 -0.014311
vn -1.461510 -4.528090 -3.855372
v 0.059028 -0.169498 -0.015193
vn -2.755203 -4.538336 -3.242822
v 0.056958 -0.168994 -0.014266
vn 3.503681 -1.321887 -1.325913
v 0.063165 -0.170362 -0.012969
vn 2.927407 -0.892967 -2.476445
v 0.062661 -0.170272 -0.013932
vn 2.955361 -0.905031 3.477457
v 0.061945 -0.169477 -0.008803
vn 1.135482 -0.158306 4.226156
v 0.059883 -0.168560 -0.007645
vn 1.929277 -4.405235 3.876951
v 0.061803 -0.169829 -0.009246
vn -0.242109 0.392373 4.537077
v 0.057770 -0.167831 -0.007434
vn -1.630244 -4.036286 3.961061
v 0.057646 -0.168431 -0.007843
vn -0.837610 -4.717010 3.524733
v 0.057148 -0.168632 -0.008724
vn -2.769966 -1.666358 4.137651
v 0.056768 -0.168307 -0.008340
vn 1.464454 -1.851171 4.311463
v 0.053678 -0.168291 -0.008108
vn 0.404881 -0.342561 4.661497
v 0.055754 -0.168515 -0.008471
vn 4.310314 3.737779 -0.753954
v 0.063064 -0.169825 -0.012451
vn 3.273209 -0.850387 2.549125
v 0.062648 -0.169908 -0.009641
vn 3.193240 3.708521 1.866086
v 0.061568 -0.168652 -0.008881
vn 1.833656 -5.117352 2.678189
v 0.049910 -0.168094 -0.006320
vn -0.267070 -6.245211 0.095484
v 0.047070 -0.168727 -0.008464
vn -0.920648 -5.966452 -1.346020
v 0.050987 -0.169244 -0.012005
vn -2.405596 -3.913473 -3.393257
v 0.056464 -0.168631 -0.014218
vn -0.769613 -4.225400 -4.465389
v 0.055247 -0.169172 -0.013774
vn -0.221026 -3.257872 -5.241005
v 0.056033 -0.168990 -0.014002
vn -0.278415 -2.336932 -4.638772
v 0.052914 -0.168450 -0.014276
vn 0.547041 -1.159538 -4.895943
v 0.059878 -0.169063 -0.015767
vn 2.034684 -1.751833 -3.787014
v 0.061287 -0.169793 -0.015205
vn 3.948656 3.440922 -2.073136
v 0.061736 -0.169347 -0.014363
vn 3.602647 2.376098 -2.951854
v 0.061371 -0.169286 -0.015054
vn -2.635015 -4.843349 -2.397711
v 0.056373 -0.168340 -0.015052
vn -0.567011 -0.267616 -4.737818
v 0.058490 -0.168581 -0.015789
vn 1.808936 3.736353 4.322513
v 0.059102 -0.167910 -0.007735
vn 2.431884 4.834859 1.838289
v 0.059784 -0.167912 -0.008187
vn -2.470568 0.621228 3.733078
v 0.057251 -0.167732 -0.007587
vn 1.284856 5.141576 1.873296
v 0.058114 -0.167352 -0.007987
vn -1.357833 3.843374 1.603003
v 0.057368 -0.167240 -0.007925
vn -0.142517 0.122284 0.020062
v 0.056824 -0.167770 -0.007847
vn -2.719722 4.941501 2.166214
v 0.056553 -0.167918 -0.008900
vn 2.730062 -3.237318 4.583206
v 0.050504 -0.167408 -0.006007
vn 3.782699 0.383762 4.855855
v 0.051761 -0.167180 -0.006767
vn 3.171021 4.259022 2.542814
v 0.053906 -0.167153 -0.008831
vn 0.628073 5.548626 2.460314
v 0.055898 -0.167904 -0.009196
vn 1.734456 3.414151 -3.019187
v 0.060006 -0.168551 -0.015591
vn 1.197016 6.051968 -0.450591
v 0.058477 -0.167697 -0.011918
vn 3.449743 -1.625073 4.669611
v 0.050015 -0.167211 -0.005542
vn 3.075547 -3.530024 3.741709
v 0.049600 -0.167790 -0.005569
vn 0.806253 -4.913809 2.627229
v 0.048073 -0.168560 -0.005527
vn -0.012255 -5.598372 0.966274
v 0.047590 -0.168820 -0.006305
vn -1.970165 -5.274767 1.162897
v 0.046138 -0.168728 -0.007345
vn -2.077215 -0.479512 0.304652
v 0.044665 -0.168404 -0.009794
vn -0.806411 -4.927355 -3.498806
v 0.051017 -0.168606 -0.013538
vn -0.234493 -4.907307 -3.700284
v 0.048819 -0.168241 -0.013680
vn -2.097601 -0.659995 -0.710804
v 0.044838 -0.168384 -0.012032
vn -3.112611 -2.191707 -1.738363
v 0.045753 -0.167978 -0.013633
vn -2.048393 0.810895 -4.712530
v 0.055811 -0.168353 -0.014211
vn -3.357019 0.612808 1.151239
v 0.055943 -0.168023 -0.014571
vn -0.068502 -0.224164 -5.541481
v 0.055084 -0.168601 -0.014124
vn 0.427307 -2.444973 -5.614969
v 0.050412 -0.167374 -0.014341
vn 0.944849 3.321523 -5.125911
v 0.054712 -0.168195 -0.013984
vn 1.515048 1.348433 -5.746648
v 0.053153 -0.167726 -0.014194
vn -0.083979 0.674057 -3.329069
v 0.057043 -0.168082 -0.015605
vn -1.752303 -0.222575 -0.748317
v 0.055753 -0.168034 -0.015189
vn -1.405986 6.057367 -0.058863
v 0.056941 -0.167673 -0.009616
vn 3.275218 2.679705 3.793479
v 0.049107 -0.164891 -0.004956
vn 2.884120 5.219257 -1.678291
v 0.054308 -0.167386 -0.012856
vn 3.423077 4.972157 0.865954
v 0.049566 -0.163561 -0.008380
vn 1.440744 5.004078 2.132720
v 0.048661 -0.163684 -0.006378
vn 0.554721 6.219816 -0.248180
v 0.056174 -0.167574 -0.011533
vn -0.612776 3.366151 -1.305370
v 0.056445 -0.167396 -0.015105
vn -1.955638 5.792953 0.194180
v 0.056483 -0.167794 -0.013768
vn 0.847191 1.030903 4.734570
v 0.048271 -0.165753 -0.004117
vn 0.802220 -2.026989 5.018088
v 0.047917 -0.167276 -0.004268
vn -0.402332 -3.484621 4.179532
v 0.047665 -0.167854 -0.004639
vn -2.959031 -3.531631 3.194988
v 0.046996 -0.168133 -0.005248
vn -3.864281 -1.448190 1.957178
v 0.046415 -0.168372 -0.006363
vn -3.161381 -0.521085 1.065714
v 0.045068 -0.168441 -0.008703
vn -3.702228 -0.168306 2.020727
v 0.045597 -0.168415 -0.007596
vn -4.658486 4.014646 0.234909
v 0.046812 -0.166777 -0.010174
vn -4.477415 4.369079 -0.510924
v 0.045087 -0.168103 -0.011627
vn -5.225924 3.350625 0.271619
v 0.045977 -0.167297 -0.013214
vn -2.797421 -2.146347 -2.532440
v 0.046000 -0.167088 -0.014897
vn 0.346670 -2.247651 -5.376375
v 0.047429 -0.166272 -0.015530
vn -3.029932 -2.169080 -2.334830
v 0.045935 -0.167568 -0.014354
vn -5.684348 1.686663 0.132503
v 0.045824 -0.167420 -0.013736
vn -0.109011 5.124749 -3.235360
v 0.055349 -0.168014 -0.013720
vn 2.058196 2.458073 -4.158178
v 0.052320 -0.166609 -0.014205
vn 2.505193 1.364971 -4.947021
v 0.051337 -0.166020 -0.014395
vn 2.345852 4.794049 -3.192148
v 0.054191 -0.167712 -0.013594
vn 0.873124 3.949332 4.087242
v 0.048633 -0.164701 -0.004856
vn 2.157434 4.727319 -1.711913
v 0.049106 -0.163342 -0.014058
vn 1.467907 6.032870 -0.084993
v 0.048922 -0.163289 -0.009224
vn 1.297993 5.595436 0.632472
v 0.049021 -0.163260 -0.008370
vn -2.878359 2.936147 1.328444
v 0.047631 -0.163818 -0.006205
vn -2.386558 0.667812 5.334973
v 0.047556 -0.166264 -0.004240
vn -3.459911 2.175926 2.825273
v 0.047465 -0.165381 -0.004570
vn -2.800517 -0.553928 4.334626
v 0.047307 -0.166944 -0.004289
vn -4.725593 -0.255484 2.288881
v 0.046878 -0.167294 -0.004896
vn -5.407872 2.598634 0.477904
v 0.047348 -0.166280 -0.008653
vn -5.270396 2.585504 0.117684
v 0.047142 -0.166374 -0.010753
vn -6.011137 1.492095 0.524794
v 0.047321 -0.165575 -0.010164
vn -5.545306 2.139947 1.464580
v 0.046132 -0.166954 -0.013629
vn -2.974022 -0.285375 -1.758029
v 0.045566 -0.165515 -0.015386
vn -6.148877 0.518199 0.264466
v 0.046021 -0.167017 -0.014255
vn -5.800107 0.735235 1.566323
v 0.045716 -0.164988 -0.014874
vn -0.421534 0.249508 -5.684167
v 0.046926 -0.165397 -0.015715
vn 1.622452 0.584650 -5.700458
v 0.048790 -0.164868 -0.015405
vn 2.461981 2.883224 -4.476596
v 0.048966 -0.164189 -0.015124
vn -3.154231 1.452373 1.242016
v 0.047473 -0.164790 -0.005028
vn 0.566757 3.528970 -4.399880
v 0.048308 -0.163910 -0.015170
vn -0.959859 5.350994 -1.055329
v 0.047371 -0.163055 -0.013748
vn -1.904385 5.155017 0.401900
v 0.047244 -0.163073 -0.010900
vn -1.873413 5.679118 0.877474
v 0.047371 -0.163212 -0.010001
vn -3.338265 1.716111 0.795635
v 0.047095 -0.163494 -0.008769
vn -5.974209 -0.301669 0.194536
v 0.047690 -0.164699 -0.007954
vn -5.562301 0.130119 1.653231
v 0.047580 -0.165044 -0.009686
vn -5.756577 -1.038645 0.526524
v 0.047651 -0.164614 -0.009046
vn -5.547536 1.079992 2.127933
v 0.047152 -0.165368 -0.012365
vn -5.869185 -2.031684 0.539957
v 0.047248 -0.164184 -0.009995
vn -5.599063 0.500655 -0.167372
v 0.047547 -0.165006 -0.010829
vn -3.052764 2.186177 -2.212717
v 0.045820 -0.164494 -0.015182
vn -4.393739 2.540033 0.637141
v 0.046342 -0.163713 -0.013689
vn -5.325092 -1.102262 1.277532
v 0.047445 -0.164629 -0.011785
vn -1.995306 4.105534 -3.404538
v 0.046325 -0.164043 -0.014986
vn -2.478674 3.518396 -0.267233
v 0.046925 -0.163341 -0.014241
vn -4.844162 1.128043 0.624431
v 0.046962 -0.163506 -0.010082
# 142 vertices, 0 vertices normals

f 1//1 2//2 3//3
f 4//4 2//2 1//1
f 5//5 4//4 1//1
f 6//6 1//1 3//3
f 6//6 7//7 1//1
f 7//7 8//8 1//1
f 5//5 1//1 8//8
f 9//9 10//10 2//2
f 4//4 9//9 2//2
f 2//2 10//10 3//3
f 6//6 3//3 11//11
f 3//3 10//10 11//11
f 12//12 4//4 5//5
f 13//13 4//4 12//12
f 14//14 9//9 4//4
f 13//13 14//14 4//4
f 8//8 12//12 5//5
f 15//15 6//6 11//11
f 16//16 7//7 6//6
f 17//17 16//16 6//6
f 17//17 6//6 15//15
f 18//18 19//19 7//7
f 20//20 18//18 7//7
f 20//20 7//7 21//21
f 7//7 16//16 21//21
f 19//19 8//8 7//7
f 22//22 8//8 23//23
f 23//23 8//8 19//19
f 12//12 8//8 22//22
f 24//24 25//25 9//9
f 24//24 9//9 26//26
f 27//27 9//9 25//25
f 28//28 10//10 9//9
f 28//28 9//9 27//27
f 26//26 9//9 14//14
f 11//11 10//10 29//29
f 28//28 30//30 10//10
f 30//30 29//29 10//10
f 15//15 11//11 31//31
f 31//31 11//11 32//32
f 29//29 30//30 11//11
f 30//30 32//32 11//11
f 13//13 12//12 33//33
f 12//12 22//22 33//33
f 34//34 14//14 13//13
f 13//13 33//33 35//35
f 34//34 13//13 35//35
f 26//26 14//14 34//34
f 15//15 31//31 36//36
f 15//15 36//36 37//37
f 38//38 17//17 15//15
f 38//38 15//15 37//37
f 21//21 16//16 39//39
f 16//16 17//17 40//40
f 41//41 39//39 16//16
f 40//40 41//41 16//16
f 17//17 38//38 42//42
f 42//42 40//40 17//17
f 43//43 44//44 18//18
f 20//20 43//43 18//18
f 18//18 44//44 19//19
f 19//19 45//45 23//23
f 19//19 46//46 45//45
f 44//44 46//46 19//19
f 21//21 47//47 20//20
f 20//20 48//48 43//43
f 20//20 47//47 48//48
f 47//47 21//21 39//39
f 22//22 23//23 33//33
f 45//45 33//33 23//23
f 25//25 24//24 35//35
f 24//24 26//26 34//34
f 35//35 24//24 34//34
f 49//49 27//27 25//25
f 25//25 35//35 50//50
f 25//25 50//50 49//49
f 27//27 51//51 28//28
f 52//52 27//27 49//49
f 27//27 53//53 51//51
f 53//53 27//27 52//52
f 51//51 54//54 28//28
f 28//28 54//54 30//30
f 54//54 51//51 30//30
f 55//55 30//30 51//51
f 30//30 55//55 32//32
f 56//56 36//36 31//31
f 57//57 56//56 31//31
f 57//57 31//31 58//58
f 58//58 31//31 32//32
f 58//58 32//32 59//59
f 55//55 59//59 32//32
f 35//35 33//33 45//45
f 35//35 45//45 60//60
f 61//61 50//50 35//35
f 61//61 35//35 60//60
f 62//62 63//63 36//36
f 36//36 63//63 64//64
f 36//36 56//56 62//62
f 36//36 64//64 65//65
f 36//36 65//65 37//37
f 66//66 37//37 65//65
f 67//67 38//38 37//37
f 67//67 37//37 66//66
f 68//68 42//42 38//38
f 69//69 68//68 38//38
f 67//67 70//70 38//38
f 70//70 71//71 38//38
f 71//71 69//69 38//38
f 39//39 72//72 73//73
f 73//73 47//47 39//39
f 72//72 39//39 41//41
f 41//41 40//40 74//74
f 40//40 42//42 74//74
f 72//72 41//41 74//74
f 42//42 68//68 75//75
f 74//74 42//42 76//76
f 42//42 75//75 77//77
f 42//42 77//77 76//76
f 43//43 60//60 44//44
f 43//43 48//48 60//60
f 46//46 44//44 60//60
f 46//46 60//60 45//45
f 78//78 47//47 79//79
f 47//47 78//78 48//48
f 79//79 47//47 73//73
f 60//60 48//48 78//78
f 49//49 50//50 52//52
f 52//52 50//50 61//61
f 55//55 51//51 53//53
f 53//53 52//52 61//61
f 61//61 80//80 53//53
f 80//80 55//55 53//53
f 55//55 80//80 59//59
f 56//56 57//57 62//62
f 81//81 57//57 58//58
f 62//62 57//57 81//81
f 82//82 83//83 58//58
f 81//81 58//58 84//84
f 58//58 83//83 84//84
f 59//59 85//85 58//58
f 85//85 82//82 58//58
f 85//85 59//59 80//80
f 78//78 61//61 60//60
f 78//78 86//86 61//61
f 80//80 61//61 85//85
f 61//61 86//86 87//87
f 87//87 85//85 61//61
f 88//88 89//89 62//62
f 81//81 88//88 62//62
f 89//89 63//63 62//62
f 64//64 63//63 89//89
f 90//90 91//91 64//64
f 65//65 64//64 91//91
f 89//89 90//90 64//64
f 66//66 65//65 92//92
f 65//65 91//91 92//92
f 66//66 93//93 67//67
f 92//92 94//94 66//66
f 66//66 94//94 93//93
f 93//93 95//95 67//67
f 96//96 70//70 67//67
f 96//96 67//67 97//97
f 95//95 97//97 67//67
f 68//68 69//69 75//75
f 69//69 98//98 99//99
f 71//71 100//100 69//69
f 100//100 98//98 69//69
f 75//75 69//69 99//99
f 96//96 71//71 70//70
f 71//71 96//96 97//97
f 71//71 97//97 101//101
f 71//71 101//101 100//100
f 74//74 102//102 72//72
f 73//73 72//72 86//86
f 87//87 72//72 102//102
f 72//72 87//87 86//86
f 86//86 79//79 73//73
f 102//102 74//74 76//76
f 103//103 77//77 75//75
f 75//75 99//99 104//104
f 75//75 104//104 103//103
f 76//76 77//77 105//105
f 76//76 105//105 102//102
f 103//103 105//105 77//77
f 79//79 86//86 78//78
f 81//81 84//84 106//106
f 81//81 106//106 88//88
f 105//105 103//103 82//82
f 103//103 104//104 82//82
f 107//107 82//82 104//104
f 105//105 82//82 85//85
f 107//107 83//83 82//82
f 83//83 107//107 108//108
f 83//83 108//108 109//109
f 83//83 109//109 84//84
f 84//84 109//109 110//110
f 110//110 106//106 84//84
f 85//85 87//87 102//102
f 85//85 102//102 105//105
f 111//111 88//88 112//112
f 89//89 88//88 111//111
f 106//106 112//112 88//88
f 111//111 113//113 89//89
f 90//90 89//89 113//113
f 91//91 90//90 114//114
f 90//90 113//113 114//114
f 114//114 92//92 91//91
f 92//92 114//114 115//115
f 94//94 92//92 115//115
f 93//93 94//94 115//115
f 115//115 95//95 93//93
f 95//95 116//116 97//97
f 95//95 115//115 117//117
f 116//116 95//95 117//117
f 101//101 97//97 118//118
f 116//116 118//118 97//97
f 98//98 119//119 99//99
f 120//120 98//98 100//100
f 98//98 120//120 121//121
f 119//119 98//98 121//121
f 99//99 119//119 122//122
f 123//123 104//104 99//99
f 123//123 99//99 122//122
f 120//120 100//100 101//101
f 118//118 120//120 101//101
f 124//124 104//104 123//123
f 124//124 107//107 104//104
f 110//110 125//125 106//106
f 125//125 112//112 106//106
f 126//126 107//107 124//124
f 107//107 126//126 127//127
f 127//127 128//128 107//107
f 108//108 107//107 128//128
f 108//108 129//129 109//109
f 129//129 108//108 128//128
f 110//110 109//109 130//130
f 130//130 109//109 129//129
f 125//125 110//110 112//112
f 112//112 110//110 131//131
f 131//131 110//110 130//130
f 111//111 112//112 113//113
f 131//131 114//114 112//112
f 112//112 114//114 113//113
f 114//114 131//131 115//115
f 132//132 115//115 133//133
f 131//131 133//133 115//115
f 115//115 132//132 117//117
f 116//116 134//134 118//118
f 116//116 117//117 134//134
f 132//132 135//135 117//117
f 117//117 135//135 136//136
f 136//136 134//134 117//117
f 120//120 118//118 121//121
f 134//134 121//121 118//118
f 121//121 137//137 119//119
f 137//137 122//122 119//119
f 121//121 138//138 137//137
f 139//139 138//138 121//121
f 139//139 121//121 134//134
f 126//126 123//123 122//122
f 137//137 126//126 122//122
f 124//124 123//123 126//126
f 126//126 137//137 140//140
f 140//140 141//141 126//126
f 126//126 141//141 127//127
f 137//137 127//127 141//141
f 138//138 127//127 137//137
f 128//128 127//127 138//138
f 138//138 142//142 128//128
f 128//128 142//142 129//129
f 142//142 130//130 129//129
f 130//130 133//133 131//131
f 135//135 133//133 130//130
f 142//142 135//135 130//130
f 133//133 135//135 132//132
f 136//136 139//139 134//134
f 135//135 142//142 139//139
f 135//135 139//139 136//136
f 141//141 140//140 137//137
f 139//139 142//142 138//138
# 280 faces, 0 coords texture

# End of File
