####
#
# OBJ File Generated by Meshlab
#
####
# Object middle_medial_rvs.obj
#
# Vertices: 166
# Faces: 328
#
####
vn -0.954138 -5.850094 -0.538845
v 0.043186 -0.168442 -0.007580
vn 1.711093 -5.595570 -0.601206
v 0.043861 -0.168407 -0.007553
vn 0.126383 -4.150112 2.662222
v 0.043568 -0.168348 -0.006173
vn -3.514677 -4.913672 -0.212142
v 0.042408 -0.168103 -0.007511
vn -2.576724 -5.189183 1.078848
v 0.042765 -0.168285 -0.006733
vn 2.087270 -5.763484 -0.797218
v 0.043741 -0.167742 -0.010287
vn -3.889927 -4.737298 -0.710054
v 0.041967 -0.167377 -0.010034
vn -1.363257 -5.806206 -0.938268
v 0.042905 -0.167701 -0.011203
vn 5.151902 -2.776489 -0.264139
v 0.045985 -0.166186 -0.009799
vn 4.048767 -3.130161 0.039140
v 0.046399 -0.167175 -0.006632
vn -2.834109 -3.260794 3.143871
v 0.039945 -0.165271 -0.005240
vn -2.122788 -3.952662 3.590378
v 0.042797 -0.168046 -0.006157
vn 2.054083 -3.363449 2.890458
v 0.045845 -0.167279 -0.005538
vn -4.819679 -2.906843 1.417346
v 0.039326 -0.164689 -0.005595
vn -5.036625 -3.248196 -0.841411
v 0.039872 -0.165339 -0.008365
vn -4.983348 -3.725041 -0.136806
v 0.041035 -0.166294 -0.009924
vn 1.409219 -5.347308 -1.428388
v 0.044298 -0.167423 -0.013359
vn 4.248969 -3.455396 -0.259275
v 0.046016 -0.166641 -0.011844
vn -3.620939 -4.744757 -1.379597
v 0.042253 -0.167172 -0.012169
vn -4.600512 -3.784344 0.296567
v 0.040312 -0.165513 -0.010645
vn -1.890300 -3.929459 -3.024023
v 0.043043 -0.167153 -0.013804
vn 5.773577 0.639332 -0.967159
v 0.046705 -0.164802 -0.007601
vn 5.553792 2.424548 0.123261
v 0.045886 -0.163840 -0.009339
vn 5.558602 0.315899 0.103226
v 0.046675 -0.164450 -0.011684
vn 5.282310 0.003408 1.518090
v 0.046779 -0.165128 -0.005505
vn -3.356556 -2.098482 4.275164
v 0.039250 -0.163128 -0.004550
vn 2.472399 -2.044735 3.698598
v 0.046146 -0.165993 -0.004749
vn 1.789727 -0.721411 4.649672
v 0.045491 -0.164410 -0.003926
vn -0.385238 0.385931 5.211553
v 0.042037 -0.162408 -0.003432
vn -1.758044 0.395821 5.306376
v 0.040368 -0.162338 -0.003876
vn -4.737767 -3.650191 1.293289
v 0.038903 -0.163872 -0.006054
vn -4.443763 -4.301093 -0.615822
v 0.039782 -0.164694 -0.009525
vn -4.180624 -2.832124 -0.077698
v 0.040684 -0.165324 -0.009812
vn 0.885259 -4.052540 -3.546788
v 0.044203 -0.167191 -0.013929
vn 3.037010 -2.369088 -3.172583
v 0.045594 -0.166201 -0.014118
vn -3.680637 -2.728952 -3.461260
v 0.041743 -0.166026 -0.013556
vn -4.631676 -3.696004 0.060870
v 0.039856 -0.165001 -0.010565
vn -0.891262 -1.549484 -5.413497
v 0.043521 -0.166176 -0.014496
vn 4.682697 3.433515 -0.326147
v 0.046191 -0.163236 -0.006804
vn 4.452847 3.630046 0.540130
v 0.045788 -0.162443 -0.011350
vn 3.209203 5.255370 0.736786
v 0.043850 -0.161640 -0.008783
vn 3.510223 4.976978 -0.038761
v 0.045308 -0.162476 -0.006615
vn 4.650964 -0.173571 -2.685100
v 0.046203 -0.164426 -0.014091
vn 4.662268 2.078709 -2.645428
v 0.045938 -0.163407 -0.014027
vn 4.204917 2.313721 2.472239
v 0.046038 -0.163510 -0.004655
vn -2.857144 -1.541641 4.807715
v 0.038779 -0.162457 -0.004688
vn -2.551552 1.386036 4.803020
v 0.039481 -0.162207 -0.004253
vn 1.833205 3.191868 2.753311
v 0.044023 -0.161915 -0.003931
vn -0.025084 4.215899 2.683347
v 0.041170 -0.160966 -0.004357
vn 0.106038 3.695339 4.494969
v 0.039655 -0.161192 -0.004933
vn -1.420647 -2.955955 5.009538
v 0.036971 -0.161004 -0.004753
vn -3.496064 -4.481613 1.562599
v 0.036227 -0.162016 -0.006368
vn -3.217596 -4.370071 -1.948431
v 0.027925 -0.154750 -0.009038
vn -4.723846 -3.436906 -2.007899
v 0.038788 -0.162870 -0.011451
vn 1.766389 0.274290 -5.143331
v 0.045463 -0.164090 -0.014680
vn -4.035068 -1.701492 -3.826094
v 0.039701 -0.163489 -0.013046
vn -5.156512 -2.369636 -2.060575
v 0.039119 -0.163221 -0.012271
vn -2.296274 0.675673 -5.274143
v 0.040712 -0.162409 -0.013869
vn 3.738646 3.397330 -2.238923
v 0.045442 -0.162419 -0.013918
vn 2.464720 4.855293 -2.097514
v 0.044338 -0.161609 -0.013722
vn 2.389924 5.583889 0.264399
v 0.043295 -0.160840 -0.011106
vn 2.517919 5.502297 1.227712
v 0.039865 -0.160507 -0.006383
vn 0.862003 1.669619 -4.808955
v 0.044670 -0.162584 -0.014605
vn 2.397778 1.666733 4.033665
v 0.038122 -0.159907 -0.004530
vn -0.988424 -3.853671 3.699329
v 0.030532 -0.154923 -0.001563
vn 1.748856 -0.613108 5.641887
v 0.035767 -0.158466 -0.003674
vn 2.615732 -0.113757 5.306833
v 0.033841 -0.156665 -0.002812
vn -2.163139 -2.627037 -5.124642
v 0.028539 -0.153517 -0.010445
vn -2.086472 -1.627205 -5.554679
v 0.031107 -0.155700 -0.010559
vn -2.716487 -4.795622 -1.711081
v 0.023092 -0.152452 -0.007671
vn -2.024609 -1.166433 -4.958395
v 0.037320 -0.160774 -0.012072
vn -1.753432 -1.431062 -5.192044
v 0.023913 -0.149200 -0.011133
vn -4.745832 -1.888205 -3.506171
v 0.038947 -0.162348 -0.012404
vn -3.913260 -3.515949 -3.297739
v 0.038515 -0.162034 -0.011988
vn -0.040402 2.635771 -4.590654
v 0.043075 -0.161610 -0.014279
vn -3.202753 -0.042346 -4.758108
v 0.038839 -0.161613 -0.012675
vn -1.004149 2.537937 -5.544346
v 0.038531 -0.160739 -0.012164
vn 0.167552 4.747484 -2.452144
v 0.041866 -0.160571 -0.013129
vn 2.534878 5.609610 -0.540890
v 0.039535 -0.159937 -0.010290
vn 1.285926 4.780111 -3.405701
v 0.038797 -0.160037 -0.011669
vn 4.052445 4.694952 0.914788
v 0.038140 -0.159062 -0.006956
vn 3.753207 2.878603 3.083560
v 0.036063 -0.157851 -0.003978
vn -2.447246 -4.923758 2.029964
v 0.023635 -0.152353 -0.001171
vn -2.317681 -3.932585 4.012947
v 0.023802 -0.150818 0.000897
vn -0.610507 -3.056531 4.952994
v 0.025432 -0.149846 0.002355
vn 2.745568 -0.979565 5.307387
v 0.030798 -0.153376 -0.000970
vn 4.565419 2.958479 2.160506
v 0.034176 -0.155821 -0.003443
vn 5.083051 1.806059 2.237655
v 0.030495 -0.150962 -0.000992
vn 0.339195 0.109420 -5.799215
v 0.026231 -0.149512 -0.011366
vn 0.612989 -0.077495 -6.026700
v 0.028341 -0.151230 -0.011022
vn 1.996175 3.627611 -4.181149
v 0.037371 -0.159040 -0.011475
vn 1.715530 1.807330 -4.013451
v 0.031888 -0.154080 -0.010902
vn -3.564997 -4.246541 -1.578702
v 0.020899 -0.151148 -0.007389
vn -3.068181 -3.116274 -4.182482
v 0.021515 -0.150114 -0.009129
vn -4.434284 -3.974377 -0.380973
v 0.019501 -0.150152 -0.004908
vn -3.549578 -4.408782 1.782998
v 0.020762 -0.150859 -0.002319
vn -2.874959 -2.204273 -3.598641
v 0.038289 -0.161686 -0.012315
vn -2.394578 0.967552 -4.157645
v 0.022513 -0.147527 -0.010833
vn -3.405356 1.943168 -1.804929
v 0.020029 -0.148670 -0.008361
vn -3.902148 -1.176091 -4.295033
v 0.020499 -0.149223 -0.008757
vn 4.378524 4.370420 -0.845641
v 0.032305 -0.153652 -0.008690
vn -2.279153 0.403559 4.115890
v 0.024746 -0.148491 0.002802
vn -3.671912 -0.351287 2.979622
v 0.022883 -0.150008 0.000932
vn 0.792973 -1.720769 5.826724
v 0.025965 -0.148807 0.002740
vn 2.440910 -1.037953 5.223424
v 0.027286 -0.148830 0.002423
vn 2.708014 -2.031851 5.027817
v 0.028055 -0.150081 0.001547
vn 5.175729 3.508531 -0.387117
v 0.030883 -0.151467 -0.004581
vn 5.019948 2.614840 0.856035
v 0.028937 -0.147030 -0.000169
vn 4.368776 4.208998 -0.222772
v 0.027450 -0.145199 -0.002495
vn 3.874231 0.907168 3.878404
v 0.028506 -0.148265 0.001688
vn 1.476548 2.678791 -4.757856
v 0.026236 -0.146841 -0.010665
vn 3.368207 2.389288 -3.934125
v 0.028890 -0.150812 -0.010763
vn -2.291541 2.592039 -1.721785
v 0.023205 -0.146161 -0.010324
vn -4.700337 -2.672600 -2.680983
v 0.020055 -0.149645 -0.007938
vn -2.582014 1.543493 -0.260333
v 0.019239 -0.148816 -0.006628
vn -3.854000 1.298897 -1.525967
v 0.019550 -0.148867 -0.007557
vn -3.262297 0.255973 1.535255
v 0.019125 -0.149594 -0.003601
vn -2.387438 1.424773 0.220199
v 0.018901 -0.149101 -0.004690
vn -3.580829 0.075269 2.600380
v 0.019979 -0.150005 -0.002338
vn -3.396929 0.876431 3.048474
v 0.021876 -0.150009 -0.000235
vn -4.400842 3.824389 -0.546878
v 0.022792 -0.146771 -0.010367
vn -1.350920 5.708530 2.115588
v 0.021184 -0.148272 -0.008192
vn -4.661119 2.924715 1.705031
v 0.023614 -0.148748 0.001390
vn 0.079497 0.906945 5.223389
v 0.025680 -0.148133 0.002929
vn -2.356226 3.385644 4.676718
v 0.025354 -0.147623 0.002484
vn -4.257774 3.451295 2.560141
v 0.025181 -0.147293 0.002077
vn -3.885447 4.847262 0.150925
v 0.023618 -0.148674 -0.001002
vn 1.993405 0.367599 5.253584
v 0.026858 -0.148309 0.002684
vn 1.280481 2.176828 5.485068
v 0.026461 -0.147788 0.002636
vn 2.766171 3.145504 4.046367
v 0.027483 -0.146822 0.001730
vn 3.659211 3.430363 -2.329993
v 0.027373 -0.146274 -0.009387
vn 3.652839 4.033472 1.560365
v 0.027971 -0.145682 -0.000157
vn -0.141493 4.743269 -0.586078
v 0.025504 -0.144243 -0.006230
vn -1.092058 3.490155 0.998965
v 0.026306 -0.144646 -0.000572
vn -0.803808 2.753845 0.226105
v 0.025660 -0.143863 -0.004102
vn -1.684954 2.816127 -0.738370
v 0.024090 -0.144947 -0.009431
vn -5.159662 2.396515 2.418538
v 0.024722 -0.146158 -0.007465
vn -0.973388 5.867436 1.158597
v 0.022596 -0.149224 -0.005473
vn -1.744495 5.211527 2.206590
v 0.022549 -0.148883 -0.006564
vn -1.387790 5.508967 1.797886
v 0.020464 -0.149568 -0.002529
vn -2.316136 5.225534 1.998409
v 0.021252 -0.149615 -0.001503
vn -2.653779 5.483370 1.142225
v 0.022599 -0.149214 -0.001139
vn -4.590552 3.715912 1.511590
v 0.024582 -0.147655 -0.005654
vn -1.621388 3.162286 1.808610
v 0.025783 -0.145796 0.001432
vn -5.207478 3.456382 -0.109431
v 0.025291 -0.146798 -0.000110
vn -3.945949 4.593070 -0.219857
v 0.024456 -0.148300 -0.002585
vn -0.951649 3.413777 -0.639982
v 0.025014 -0.144391 -0.008349
vn -0.913188 4.117603 2.242179
v 0.026250 -0.145433 0.000739
vn -5.822918 1.621527 0.913606
v 0.024882 -0.144889 -0.007643
vn -5.281030 1.969260 0.228280
v 0.025111 -0.144577 -0.005765
vn -5.376019 1.853966 0.557819
v 0.025838 -0.146539 -0.002619
vn -5.565120 0.001396 2.415841
v 0.025593 -0.146352 -0.003475
vn -5.994639 0.765534 1.135199
v 0.025232 -0.146034 -0.004183
vn -5.133923 1.736510 2.408987
v 0.024837 -0.144863 -0.008484
vn -5.483595 1.065085 1.236446
v 0.025282 -0.146109 -0.006324
vn -0.610681 5.844971 0.039591
v 0.021613 -0.149672 -0.002796
vn -2.956116 5.021759 0.900875
v 0.023162 -0.149059 -0.005333
vn -2.929239 5.472502 0.084493
v 0.022980 -0.149120 -0.004172
vn -1.092790 6.140779 -0.550563
v 0.021834 -0.149471 -0.001833
vn -4.992468 2.300029 -0.776370
v 0.025191 -0.146993 -0.004739
vn -4.784835 3.388292 1.021585
v 0.024616 -0.147539 -0.004337
vn -3.817765 3.854557 -0.698780
v 0.024303 -0.148268 -0.004766
vn -4.469431 1.631723 2.607134
v 0.025325 -0.147020 -0.003864
vn -3.773926 3.995600 1.830174
v 0.024449 -0.148209 -0.003853
vn -4.714902 1.430041 0.816242
v 0.024969 -0.146728 -0.004186
vn -3.456438 4.124887 0.932857
v 0.024039 -0.148143 -0.004242
# 166 vertices, 0 vertices normals

f 1//1 2//2 3//3
f 4//4 1//1 5//5
f 1//1 6//6 2//2
f 3//3 5//5 1//1
f 7//7 8//8 1//1
f 8//8 6//6 1//1
f 1//1 4//4 7//7
f 6//6 9//9 2//2
f 10//10 3//3 2//2
f 2//2 9//9 10//10
f 3//3 11//11 12//12
f 3//3 13//13 11//11
f 3//3 12//12 5//5
f 10//10 13//13 3//3
f 11//11 14//14 4//4
f 5//5 11//11 4//4
f 4//4 15//15 16//16
f 4//4 14//14 15//15
f 4//4 16//16 7//7
f 5//5 12//12 11//11
f 8//8 17//17 6//6
f 9//9 6//6 18//18
f 18//18 6//6 17//17
f 19//19 8//8 7//7
f 20//20 19//19 7//7
f 7//7 16//16 20//20
f 17//17 8//8 21//21
f 8//8 19//19 21//21
f 22//22 9//9 23//23
f 9//9 24//24 23//23
f 10//10 9//9 22//22
f 18//18 24//24 9//9
f 25//25 13//13 10//10
f 22//22 25//25 10//10
f 14//14 11//11 26//26
f 13//13 27//27 11//11
f 27//27 28//28 11//11
f 28//28 29//29 11//11
f 29//29 30//30 11//11
f 30//30 26//26 11//11
f 25//25 27//27 13//13
f 26//26 31//31 14//14
f 14//14 31//31 32//32
f 14//14 32//32 15//15
f 15//15 33//33 16//16
f 15//15 32//32 33//33
f 16//16 33//33 20//20
f 21//21 34//34 17//17
f 34//34 35//35 17//17
f 18//18 17//17 35//35
f 24//24 18//18 35//35
f 21//21 19//19 36//36
f 36//36 19//19 20//20
f 36//36 20//20 37//37
f 37//37 20//20 33//33
f 38//38 21//21 36//36
f 38//38 34//34 21//21
f 39//39 22//22 23//23
f 22//22 39//39 25//25
f 24//24 40//40 23//23
f 23//23 40//40 41//41
f 39//39 23//23 42//42
f 23//23 41//41 42//42
f 43//43 44//44 24//24
f 24//24 44//44 40//40
f 43//43 24//24 35//35
f 45//45 25//25 39//39
f 27//27 25//25 28//28
f 25//25 45//45 28//28
f 26//26 46//46 31//31
f 46//46 26//26 47//47
f 26//26 30//30 47//47
f 28//28 45//45 48//48
f 29//29 28//28 48//48
f 49//49 30//30 29//29
f 48//48 49//49 29//29
f 30//30 50//50 47//47
f 50//50 30//30 49//49
f 51//51 31//31 46//46
f 52//52 31//31 51//51
f 31//31 52//52 32//32
f 32//32 52//52 53//53
f 53//53 54//54 32//32
f 37//37 33//33 32//32
f 32//32 54//54 37//37
f 34//34 38//38 35//35
f 38//38 55//55 35//35
f 55//55 43//43 35//35
f 36//36 56//56 38//38
f 57//57 56//56 36//36
f 57//57 36//36 37//37
f 54//54 57//57 37//37
f 38//38 56//56 58//58
f 55//55 38//38 58//58
f 42//42 45//45 39//39
f 40//40 44//44 59//59
f 59//59 60//60 40//40
f 60//60 61//61 40//40
f 61//61 41//41 40//40
f 62//62 41//41 61//61
f 62//62 49//49 41//41
f 42//42 41//41 49//49
f 48//48 45//45 42//42
f 48//48 42//42 49//49
f 43//43 55//55 44//44
f 63//63 44//44 55//55
f 59//59 44//44 63//63
f 50//50 64//64 46//46
f 47//47 50//50 46//46
f 51//51 46//46 64//64
f 50//50 49//49 62//62
f 50//50 62//62 64//64
f 65//65 52//52 51//51
f 66//66 67//67 51//51
f 67//67 65//65 51//51
f 64//64 66//66 51//51
f 53//53 52//52 65//65
f 68//68 69//69 53//53
f 70//70 53//53 65//65
f 69//69 71//71 53//53
f 54//54 53//53 71//71
f 53//53 70//70 72//72
f 68//68 53//53 72//72
f 73//73 57//57 54//54
f 71//71 74//74 54//54
f 54//54 74//74 73//73
f 55//55 75//75 63//63
f 55//55 58//58 75//75
f 58//58 56//56 73//73
f 56//56 57//57 73//73
f 73//73 76//76 58//58
f 77//77 58//58 76//76
f 75//75 58//58 77//77
f 63//63 60//60 59//59
f 78//78 60//60 75//75
f 63//63 75//75 60//60
f 60//60 78//78 61//61
f 79//79 61//61 80//80
f 61//61 79//79 62//62
f 78//78 80//80 61//61
f 81//81 62//62 79//79
f 81//81 64//64 62//62
f 64//64 81//81 82//82
f 82//82 66//66 64//64
f 65//65 83//83 70//70
f 84//84 83//83 65//65
f 85//85 84//84 65//65
f 65//65 86//86 85//85
f 67//67 86//86 65//65
f 66//66 82//82 67//67
f 87//87 67//67 82//82
f 86//86 67//67 88//88
f 87//87 88//88 67//67
f 68//68 72//72 89//89
f 68//68 89//89 90//90
f 68//68 90//90 69//69
f 69//69 91//91 77//77
f 69//69 77//77 71//71
f 69//69 90//90 92//92
f 92//92 91//91 69//69
f 70//70 93//93 94//94
f 94//94 72//72 70//70
f 93//93 70//70 95//95
f 70//70 96//96 95//95
f 96//96 70//70 83//83
f 71//71 77//77 97//97
f 71//71 97//97 74//74
f 98//98 72//72 99//99
f 99//99 72//72 100//100
f 72//72 94//94 100//100
f 72//72 98//98 89//89
f 74//74 76//76 73//73
f 74//74 97//97 76//76
f 78//78 75//75 77//77
f 77//77 76//76 97//97
f 91//91 80//80 77//77
f 80//80 78//78 77//77
f 80//80 91//91 79//79
f 91//91 101//101 79//79
f 101//101 81//81 79//79
f 82//82 81//81 101//101
f 82//82 101//101 87//87
f 96//96 83//83 84//84
f 102//102 103//103 84//84
f 84//84 103//103 96//96
f 84//84 85//85 102//102
f 104//104 102//102 85//85
f 105//105 85//85 106//106
f 85//85 86//86 106//106
f 85//85 105//105 104//104
f 88//88 106//106 86//86
f 101//101 107//107 87//87
f 88//88 87//87 107//107
f 108//108 88//88 109//109
f 88//88 107//107 109//109
f 110//110 88//88 108//108
f 88//88 110//110 106//106
f 89//89 111//111 112//112
f 113//113 89//89 98//98
f 112//112 90//90 89//89
f 113//113 111//111 89//89
f 112//112 92//92 90//90
f 91//91 92//92 101//101
f 112//112 101//101 92//92
f 114//114 94//94 93//93
f 114//114 93//93 95//95
f 94//94 114//114 100//100
f 95//95 115//115 116//116
f 95//95 96//96 117//117
f 95//95 118//118 115//115
f 116//116 114//114 95//95
f 117//117 118//118 95//95
f 96//96 119//119 117//117
f 103//103 120//120 96//96
f 120//120 119//119 96//96
f 98//98 121//121 113//113
f 99//99 121//121 98//98
f 122//122 99//99 116//116
f 116//116 99//99 100//100
f 99//99 122//122 121//121
f 100//100 114//114 116//116
f 101//101 112//112 107//107
f 103//103 102//102 123//123
f 102//102 124//124 125//125
f 126//126 123//123 102//102
f 126//126 102//102 125//125
f 124//124 102//102 104//104
f 127//127 103//103 123//123
f 120//120 103//103 127//127
f 104//104 128//128 129//129
f 105//105 128//128 104//104
f 129//129 124//124 104//104
f 105//105 106//106 110//110
f 110//110 130//130 105//105
f 128//128 105//105 130//130
f 107//107 112//112 131//131
f 131//131 109//109 107//107
f 108//108 109//109 132//132
f 108//108 130//130 110//110
f 108//108 132//132 130//130
f 131//131 133//133 109//109
f 109//109 134//134 132//132
f 135//135 109//109 133//133
f 109//109 135//135 134//134
f 111//111 131//131 112//112
f 136//136 131//131 111//111
f 136//136 111//111 113//113
f 137//137 113//113 121//121
f 137//137 136//136 113//113
f 122//122 116//116 115//115
f 115//115 118//118 138//138
f 122//122 115//115 139//139
f 115//115 138//138 139//139
f 117//117 140//140 118//118
f 117//117 119//119 140//140
f 140//140 138//138 118//118
f 120//120 141//141 119//119
f 119//119 141//141 140//140
f 127//127 142//142 120//120
f 142//142 141//141 120//120
f 121//121 122//122 139//139
f 143//143 121//121 139//139
f 143//143 137//137 121//121
f 127//127 123//123 126//126
f 124//124 129//129 144//144
f 124//124 144//144 125//125
f 144//144 126//126 125//125
f 145//145 127//127 126//126
f 145//145 126//126 144//144
f 142//142 127//127 146//146
f 146//146 127//127 145//145
f 129//129 128//128 130//130
f 129//129 130//130 144//144
f 130//130 132//132 144//144
f 131//131 136//136 147//147
f 131//131 147//147 133//133
f 134//134 148//148 132//132
f 148//148 144//144 132//132
f 133//133 147//147 149//149
f 149//149 150//150 133//133
f 135//135 133//133 150//150
f 151//151 134//134 152//152
f 145//145 134//134 151//151
f 134//134 145//145 148//148
f 135//135 153//153 134//134
f 152//152 134//134 153//153
f 135//135 150//150 153//153
f 147//147 136//136 154//154
f 154//154 136//136 137//137
f 149//149 154//154 137//137
f 143//143 155//155 137//137
f 149//149 137//137 155//155
f 156//156 138//138 140//140
f 139//139 138//138 157//157
f 138//138 158//158 157//157
f 138//138 156//156 158//158
f 157//157 143//143 139//139
f 140//140 141//141 159//159
f 159//159 156//156 140//140
f 142//142 159//159 141//141
f 156//156 159//159 142//142
f 156//156 142//142 146//146
f 160//160 143//143 161//161
f 143//143 157//157 162//162
f 155//155 143//143 160//160
f 143//143 162//162 161//161
f 144//144 148//148 145//145
f 151//151 146//146 145//145
f 146//146 151//151 163//163
f 156//156 146//146 158//158
f 158//158 146//146 164//164
f 163//163 164//164 146//146
f 154//154 149//149 147//147
f 149//149 155//155 150//150
f 155//155 153//153 150//150
f 151//151 152//152 163//163
f 152//152 153//153 165//165
f 163//163 152//152 165//165
f 153//153 155//155 160//160
f 160//160 165//165 153//153
f 166//166 162//162 157//157
f 157//157 158//158 166//166
f 164//164 166//166 158//158
f 165//165 160//160 161//161
f 162//162 166//166 161//161
f 166//166 164//164 161//161
f 164//164 163//163 161//161
f 163//163 165//165 161//161
# 328 faces, 0 coords texture

# End of File
