####
#
# OBJ File Generated by Meshlab
#
####
# Object r_pelvis.obj
#
# Vertices: 122
# Faces: 246
#
####
vn 0.893469 -2.260091 2.425915
v -0.029819 -0.076501 0.068863
vn -2.632090 -0.692817 4.747334
v -0.045322 -0.072010 0.052929
vn -1.935056 3.745873 5.597198
v -0.044327 -0.080850 0.054677
vn -4.162973 -3.071316 0.465076
v -0.035282 -0.057528 0.079741
vn -3.993480 -3.317492 3.281942
v -0.042967 -0.062222 0.062107
vn 0.099298 -0.697346 1.850468
v -0.038811 -0.055471 0.094431
vn 4.384754 -0.879403 2.519664
v -0.031418 -0.051766 0.087808
vn 5.626988 -0.489204 1.531944
v -0.025297 -0.071682 0.060148
vn 0.321115 -2.570908 2.803807
v -0.034255 -0.084908 0.061013
vn 1.023207 1.877313 4.801134
v -0.059127 -0.078011 0.051587
vn -1.465425 -2.638097 4.728246
v -0.051217 -0.063678 0.053320
vn -0.209082 -0.980446 6.067667
v -0.055024 -0.068663 0.051879
vn 1.647733 3.542980 4.452732
v -0.062600 -0.083971 0.057797
vn -0.308276 4.597935 4.201660
v -0.053206 -0.085034 0.059938
vn 2.114425 -1.606812 2.913287
v -0.066647 -0.093034 0.065978
vn -0.500534 -5.427741 -0.251668
v -0.051734 -0.048677 0.085567
vn -2.381414 -5.057332 2.261219
v -0.048283 -0.054949 0.066246
vn -2.049456 -4.144597 3.784259
v -0.050719 -0.058978 0.057932
vn 0.026027 -1.183430 2.839326
v -0.062716 -0.052389 0.099876
vn 1.998886 -0.590719 0.716812
v -0.022260 -0.035255 0.096690
vn -0.741786 -0.277864 6.061822
v -0.052851 -0.035891 0.095170
vn 5.025474 3.066699 -0.677968
v -0.029869 -0.054046 0.063728
vn 5.325652 2.045761 -2.128401
v -0.034961 -0.044478 0.077175
vn 2.901485 -4.597298 2.067231
v -0.007545 -0.088843 0.018857
vn 4.937530 0.864194 3.373654
v -0.015992 -0.078453 0.037371
vn 2.204376 3.927668 -2.000695
v -0.025342 -0.066449 0.041354
vn -1.679788 -4.451721 -3.209548
v -0.035677 -0.082371 0.050467
vn 1.335024 -1.786798 -4.038286
v -0.061014 -0.087158 0.045616
vn 4.441891 1.469531 3.811477
v -0.070805 -0.077244 0.060373
vn 1.583645 -0.265757 5.548232
v -0.062172 -0.069728 0.051929
vn 0.583496 -3.217652 5.107094
v -0.060491 -0.061737 0.054657
vn 0.342470 -1.906518 2.572812
v -0.078097 -0.091478 0.074637
vn -0.955541 -3.300321 4.357023
v -0.084540 -0.093541 0.064794
vn 2.426735 -0.458943 -1.518331
v -0.076817 -0.104660 0.044220
vn 1.327650 -5.426487 0.869690
v -0.060880 -0.050643 0.073063
vn -0.629264 -1.469920 2.083379
v -0.077804 -0.060868 0.093843
vn -0.574844 -5.004587 3.129299
v -0.056570 -0.054964 0.060940
vn -4.344038 1.685182 3.796329
v -0.079371 -0.043451 0.085611
vn 4.291562 2.103377 -4.051273
v -0.030136 -0.023374 0.093810
vn 2.564845 -2.150278 -2.540075
v -0.020766 -0.012688 0.106588
vn -3.478015 -0.529168 4.984904
v -0.058845 -0.015489 0.094861
vn 2.079072 2.463891 -4.625618
v -0.047115 -0.040845 0.058661
vn 2.550982 -0.522120 -1.801098
v 0.000010 -0.083726 0.004923
vn -0.090391 -1.053572 -2.936463
v -0.027254 -0.106601 -0.000583
vn 1.966338 0.371414 1.174373
v 0.000000 -0.079469 0.026656
vn -2.446187 0.227995 -1.347656
v -0.036188 -0.073046 0.035638
vn -4.188148 -3.676932 -2.120585
v -0.033729 -0.075291 0.043025
vn -1.604967 -0.402996 0.767160
v -0.037579 -0.099974 0.017788
vn 2.906793 -3.406970 -0.135777
v -0.025952 -0.110440 0.005670
vn -1.766523 1.454959 -5.718161
v -0.046114 -0.064378 0.050000
vn -3.486082 2.305299 -2.211291
v -0.108512 -0.088166 0.051595
vn -1.488452 0.395496 -1.085703
v -0.108060 -0.072228 0.042708
vn 0.556704 1.401141 -5.928353
v -0.077588 -0.043167 0.059939
vn 2.989183 -0.644917 3.969345
v -0.069460 -0.066047 0.054626
vn 5.256726 -0.608568 1.657032
v -0.075574 -0.066825 0.066582
vn -0.505509 -1.036100 2.363341
v -0.084704 -0.074215 0.085320
vn 4.629034 -3.097033 0.919352
v -0.079861 -0.062776 0.083072
vn 1.895673 -4.468801 2.616912
v -0.064099 -0.055428 0.060779
vn 3.336392 -3.186778 2.033101
v -0.070113 -0.060373 0.058863
vn -5.362188 -1.926978 2.514416
v -0.089841 -0.078409 0.067783
vn -4.623375 0.659594 3.837188
v -0.094825 -0.075459 0.059127
vn 0.894014 -1.009049 4.926145
v -0.092707 -0.101931 0.064757
vn -2.782606 0.658150 -2.544850
v -0.114270 -0.103318 0.043711
vn 1.111411 2.261079 0.662713
v -0.071467 -0.116395 0.035196
vn 0.007258 -3.025990 0.856677
v -0.088941 -0.130816 0.045117
vn 0.091236 -2.329726 3.591282
v -0.097672 -0.117728 0.061403
vn -5.669214 0.559255 2.307480
v -0.088650 -0.062281 0.076225
vn -3.252610 -1.051342 -2.246490
v -0.086209 -0.025934 0.061845
vn 3.219820 -0.002363 -4.700627
v -0.076923 -0.000898 0.053148
vn 4.285114 1.307067 -4.029642
v -0.057751 0.022653 0.093126
vn 3.370592 -0.141891 -0.684862
v -0.000000 0.000000 0.120833
vn 0.863790 -1.838111 0.777966
v -0.007194 -0.014923 0.123270
vn -1.365457 -4.445827 2.167803
v -0.025767 -0.013557 0.111765
vn -4.679083 -2.165993 3.457865
v -0.050796 0.037341 0.118911
vn -3.844944 -0.247450 4.385241
v -0.075179 0.015460 0.072247
vn -1.664432 -2.604494 1.158755
v -0.094028 -0.020262 0.063989
vn -1.171256 2.749358 -3.471883
v -0.022294 -0.080640 0.002346
vn 1.885570 3.046235 -1.772272
v -0.002515 -0.076525 0.007104
vn -3.015465 0.625395 -3.233173
v -0.029246 -0.091680 0.001081
vn 0.984487 -1.612659 0.470132
v -0.044549 -0.127827 0.023459
vn -1.900349 -1.372304 -3.961988
v -0.079997 -0.126794 0.030146
vn 0.022455 2.151136 1.519671
v -0.039082 -0.105622 0.017475
vn -2.987632 2.198656 4.645749
v -0.101320 -0.083184 0.058633
vn -3.106398 1.079929 2.076931
v -0.113492 -0.094068 0.058714
vn -3.204537 -2.129148 0.171759
v -0.113448 -0.115644 0.050164
vn 0.563374 -1.858163 0.348368
v -0.064376 -0.133792 0.031678
vn 1.340683 -0.957451 -4.350599
v -0.095802 -0.005519 0.040828
vn 2.141334 0.759867 -5.593209
v -0.091164 0.009621 0.045500
vn -0.484069 -2.426771 0.381365
v -0.110692 -0.024093 0.051881
vn 4.675116 0.445034 -4.015629
v -0.080792 0.031718 0.057625
vn 2.286068 3.568417 -1.409278
v -0.075767 0.081005 0.076435
vn 4.155202 3.049731 -2.636482
v -0.011673 0.020720 0.123144
vn 4.388458 2.764768 -2.949859
v -0.032203 0.042817 0.117986
vn 2.715976 0.797446 2.050965
v -0.003795 0.011367 0.129272
vn -1.247731 -1.208495 5.240499
v -0.022141 0.017064 0.132168
vn -2.128062 0.253006 3.618684
v -0.049975 0.045190 0.127943
vn -4.162266 0.965774 4.034109
v -0.074054 0.072924 0.095217
vn -2.453962 -1.408175 4.849308
v -0.099992 0.057224 0.060352
vn -3.423579 0.368527 4.810455
v -0.125581 0.031049 0.054190
vn -1.225578 -1.429268 -0.469799
v -0.120638 -0.019939 0.044479
vn -2.045710 -0.879225 -1.351890
v -0.125632 -0.010078 0.042406
vn 0.618379 -0.336218 -5.319324
v -0.112670 0.004130 0.047053
vn 2.714452 -0.553847 -5.547034
v -0.106515 0.024731 0.040493
vn -3.775953 -1.356453 3.915262
v -0.126153 0.001275 0.050133
vn 3.694921 0.649120 -4.006474
v -0.084582 0.052767 0.050023
vn 1.024645 3.278276 1.722410
v -0.051691 0.065471 0.113834
vn -0.325994 3.436633 1.621636
v -0.072556 0.080010 0.092479
vn -1.481234 4.153337 -0.211561
v -0.092867 0.080280 0.065454
vn 2.329675 3.438529 -3.478204
v -0.085418 0.076531 0.060986
vn 1.916494 2.075469 2.471712
v -0.022800 0.036117 0.131464
vn -3.518662 1.606219 3.257592
v -0.109011 0.066410 0.060971
vn -4.991663 0.812817 1.563649
v -0.136826 0.027100 0.042425
vn -2.874931 2.363317 -0.776992
v -0.122957 0.056362 0.047167
vn -3.059156 -3.095654 -1.345691
v -0.129456 0.005228 0.042604
vn 0.378330 -0.790924 -4.257531
v -0.124117 0.016544 0.030060
vn 0.626142 1.620791 -5.585971
v -0.118317 0.036791 0.035422
vn -4.904846 -0.649816 1.346835
v -0.137926 0.016807 0.040577
vn 0.419838 2.961534 -4.785415
v -0.101838 0.064646 0.047068
vn -2.245105 4.410941 -1.585424
v -0.105080 0.071715 0.055333
vn -3.256683 1.868862 -2.854337
v -0.134522 0.032374 0.036368
vn -3.819403 -0.620643 -2.968205
v -0.136949 0.015755 0.035222
vn -2.089695 -1.282655 -0.254940
v -0.133523 0.006379 0.036939
# 122 vertices, 0 vertices normals

f 1//1 2//2 3//3
f 4//4 5//5 1//1
f 1//1 6//6 4//4
f 1//1 5//5 2//2
f 1//1 7//7 6//6
f 7//7 1//1 8//8
f 3//3 9//9 1//1
f 1//1 9//9 8//8
f 3//3 2//2 10//10
f 11//11 12//12 2//2
f 11//11 2//2 5//5
f 12//12 10//10 2//2
f 13//13 3//3 10//10
f 13//13 14//14 3//3
f 9//9 3//3 15//15
f 3//3 14//14 9//9
f 16//16 4//4 6//6
f 17//17 5//5 4//4
f 17//17 4//4 16//16
f 18//18 11//11 5//5
f 18//18 5//5 17//17
f 6//6 19//19 16//16
f 7//7 19//19 6//6
f 20//20 21//21 7//7
f 21//21 19//19 7//7
f 8//8 22//22 7//7
f 7//7 22//22 23//23
f 7//7 23//23 20//20
f 24//24 25//25 8//8
f 8//8 9//9 24//24
f 26//26 22//22 8//8
f 26//26 8//8 25//25
f 27//27 24//24 9//9
f 28//28 9//9 15//15
f 27//27 9//9 28//28
f 15//15 9//9 14//14
f 10//10 29//29 13//13
f 30//30 29//29 10//10
f 12//12 30//30 10//10
f 18//18 31//31 11//11
f 11//11 31//31 12//12
f 12//12 31//31 30//30
f 13//13 29//29 15//15
f 13//13 15//15 14//14
f 15//15 29//29 32//32
f 32//32 33//33 15//15
f 34//34 28//28 15//15
f 34//34 15//15 33//33
f 35//35 16//16 36//36
f 35//35 17//17 16//16
f 36//36 16//16 19//19
f 37//37 18//18 17//17
f 37//37 17//17 35//35
f 37//37 31//31 18//18
f 38//38 36//36 19//19
f 21//21 38//38 19//19
f 39//39 20//20 23//23
f 20//20 39//39 40//40
f 40//40 21//21 20//20
f 41//41 21//21 40//40
f 38//38 21//21 41//41
f 23//23 22//22 42//42
f 42//42 22//22 26//26
f 39//39 23//23 42//42
f 43//43 24//24 44//44
f 45//45 25//25 24//24
f 46//46 24//24 47//47
f 47//47 24//24 27//27
f 45//45 24//24 43//43
f 48//48 49//49 24//24
f 49//49 44//44 24//24
f 46//46 48//48 24//24
f 26//26 25//25 45//45
f 46//46 26//26 45//45
f 50//50 26//26 46//46
f 50//50 42//42 26//26
f 27//27 28//28 50//50
f 27//27 50//50 47//47
f 28//28 51//51 52//52
f 53//53 28//28 52//52
f 28//28 34//34 51//51
f 50//50 28//28 42//42
f 42//42 28//28 53//53
f 54//54 55//55 29//29
f 30//30 54//54 29//29
f 29//29 56//56 32//32
f 55//55 57//57 29//29
f 29//29 57//57 56//56
f 30//30 31//31 54//54
f 31//31 58//58 59//59
f 58//58 31//31 37//37
f 54//54 31//31 59//59
f 56//56 60//60 32//32
f 60//60 33//33 32//32
f 61//61 62//62 33//33
f 60//60 61//61 33//33
f 62//62 34//34 33//33
f 63//63 34//34 64//64
f 34//34 63//63 51//51
f 65//65 34//34 66//66
f 64//64 34//34 65//65
f 66//66 34//34 62//62
f 57//57 58//58 35//35
f 35//35 36//36 57//57
f 37//37 35//35 58//58
f 57//57 36//36 56//56
f 67//67 56//56 36//36
f 38//38 67//67 36//36
f 38//38 41//41 68//68
f 67//67 38//38 68//68
f 42//42 69//69 39//39
f 69//69 70//70 39//39
f 39//39 70//70 40//40
f 71//71 72//72 40//40
f 40//40 70//70 71//71
f 40//40 72//72 73//73
f 41//41 40//40 73//73
f 41//41 73//73 74//74
f 41//41 74//74 75//75
f 76//76 41//41 75//75
f 41//41 76//76 68//68
f 68//68 42//42 53//53
f 68//68 69//69 42//42
f 77//77 78//78 43//43
f 44//44 77//77 43//43
f 45//45 43//43 78//78
f 77//77 44//44 79//79
f 44//44 48//48 46//46
f 79//79 44//44 46//46
f 49//49 80//80 44//44
f 81//81 44//44 80//80
f 44//44 81//81 82//82
f 48//48 44//44 82//82
f 46//46 45//45 78//78
f 46//46 77//77 79//79
f 47//47 50//50 46//46
f 46//46 78//78 77//77
f 48//48 82//82 49//49
f 82//82 80//80 49//49
f 83//83 51//51 84//84
f 84//84 51//51 63//63
f 52//52 51//51 83//83
f 83//83 61//61 52//52
f 53//53 52//52 68//68
f 61//61 68//68 52//52
f 59//59 55//55 54//54
f 58//58 55//55 59//59
f 55//55 58//58 57//57
f 67//67 60//60 56//56
f 60//60 67//67 61//61
f 83//83 62//62 61//61
f 67//67 68//68 61//61
f 83//83 84//84 62//62
f 84//84 66//66 62//62
f 63//63 85//85 84//84
f 81//81 85//85 63//63
f 81//81 63//63 64//64
f 82//82 81//81 64//64
f 64//64 65//65 86//86
f 86//86 80//80 64//64
f 82//82 64//64 80//80
f 85//85 81//81 65//65
f 85//85 65//65 66//66
f 65//65 81//81 86//86
f 84//84 85//85 66//66
f 76//76 69//69 68//68
f 87//87 88//88 69//69
f 87//87 69//69 89//89
f 89//89 69//69 76//76
f 70//70 69//69 90//90
f 88//88 90//90 69//69
f 91//91 70//70 90//90
f 92//92 70//70 93//93
f 93//93 70//70 91//91
f 92//92 71//71 70//70
f 94//94 71//71 92//92
f 72//72 71//71 94//94
f 72//72 95//95 73//73
f 94//94 95//95 72//72
f 74//74 73//73 95//95
f 96//96 74//74 95//95
f 97//97 75//75 74//74
f 96//96 97//97 74//74
f 98//98 99//99 75//75
f 97//97 98//98 75//75
f 76//76 75//75 99//99
f 89//89 76//76 99//99
f 81//81 80//80 86//86
f 87//87 89//89 100//100
f 101//101 87//87 100//100
f 87//87 102//102 88//88
f 101//101 102//102 87//87
f 88//88 103//103 90//90
f 88//88 102//102 103//103
f 101//101 89//89 104//104
f 100//100 89//89 101//101
f 99//99 104//104 89//89
f 90//90 105//105 91//91
f 103//103 105//105 90//90
f 106//106 93//93 91//91
f 106//106 91//91 107//107
f 107//107 91//91 108//108
f 109//109 108//108 91//91
f 91//91 105//105 109//109
f 94//94 92//92 110//110
f 110//110 92//92 93//93
f 106//106 110//110 93//93
f 95//95 94//94 110//110
f 96//96 95//95 110//110
f 96//96 110//110 106//106
f 97//97 96//96 106//106
f 97//97 106//106 107//107
f 111//111 97//97 108//108
f 111//111 98//98 97//97
f 108//108 97//97 107//107
f 111//111 99//99 98//98
f 112//112 104//104 99//99
f 113//113 99//99 111//111
f 113//113 112//112 99//99
f 102//102 101//101 114//114
f 101//101 104//104 114//114
f 103//103 102//102 115//115
f 115//115 102//102 114//114
f 103//103 116//116 105//105
f 115//115 116//116 103//103
f 114//114 104//104 117//117
f 117//117 104//104 112//112
f 109//109 105//105 118//118
f 118//118 105//105 116//116
f 108//108 109//109 119//119
f 108//108 119//119 111//111
f 119//119 109//109 118//118
f 119//119 113//113 111//111
f 120//120 121//121 112//112
f 120//120 112//112 113//113
f 112//112 121//121 117//117
f 119//119 118//118 113//113
f 116//116 120//120 113//113
f 113//113 118//118 116//116
f 114//114 122//122 115//115
f 115//115 122//122 114//114
f 122//122 114//114 117//117
f 122//122 121//121 115//115
f 121//121 120//120 115//115
f 115//115 120//120 116//116
f 117//117 121//121 122//122
# 246 faces, 0 coords texture

# End of File
