####
#
# OBJ File Generated by Meshlab
#
####
# Object radius_rv.obj
#
# Vertices: 194
# Faces: 384
#
####
vn -2.263112 -2.813825 -4.018635
v -0.012807 -0.227620 0.011017
vn 0.003556 -5.682995 -2.598257
v -0.013906 -0.229378 0.014953
vn -1.629300 -3.178102 -4.587569
v -0.018792 -0.229397 0.015465
vn -0.775806 -2.580478 -3.487213
v -0.007831 -0.227726 0.008202
vn 1.303466 -2.923180 -3.398662
v -0.003959 -0.228413 0.009251
vn -1.422402 1.900754 -4.507144
v -0.010300 -0.222893 0.008970
vn 0.555934 1.472973 -4.036986
v -0.006925 -0.224190 0.007649
vn -1.701023 -4.149081 -0.753121
v -0.016840 -0.233137 0.020368
vn -0.203972 -5.205395 -2.669235
v -0.003570 -0.232487 0.027583
vn -3.809531 0.160809 -1.024100
v -0.020873 -0.226810 0.016046
vn -2.740211 -2.422714 -2.030051
v -0.019980 -0.229816 0.016064
vn 3.187987 1.314340 -3.852421
v -0.003494 -0.225922 0.009132
vn 1.840423 -3.432037 -2.351183
v -0.001507 -0.229580 0.011938
vn 4.516613 0.929617 -2.538028
v -0.000459 -0.227416 0.012410
vn 3.273058 3.649587 -3.607487
v -0.006535 -0.220379 0.013224
vn 0.398440 3.668084 -4.994242
v -0.011412 -0.218668 0.012810
vn -2.405548 2.969817 -4.711753
v -0.012698 -0.218634 0.013016
vn -5.413016 -2.267667 1.535172
v -0.016802 -0.231600 0.023950
vn -5.418098 -1.494372 1.792521
v -0.020038 -0.229244 0.017451
vn 0.961416 -5.739766 -2.287126
v -0.008889 -0.234115 0.027961
vn -0.964773 -5.586212 -0.715137
v -0.014345 -0.233849 0.023899
vn -4.107231 -4.614977 0.958562
v -0.015652 -0.232957 0.023784
vn 2.421532 -4.010118 -1.733161
v 0.002201 -0.233835 0.027081
vn 2.230640 -4.287638 -1.989613
v 0.001082 -0.236946 0.031757
vn 0.359637 -5.807020 -1.808491
v 0.001192 -0.232679 0.024164
vn -2.026729 -4.430129 -1.061522
v -0.004699 -0.237392 0.032661
vn -1.992998 -4.550553 -0.096148
v -0.007458 -0.235616 0.031222
vn -4.472431 2.038453 -2.140981
v -0.016402 -0.215415 0.017506
vn -5.648867 1.225393 2.357575
v -0.018751 -0.224172 0.019161
vn 4.141903 -3.827858 -1.838503
v 0.002611 -0.232528 0.025187
vn 4.959030 0.209892 -1.943917
v 0.002632 -0.228528 0.019733
vn 4.787634 2.981397 -2.435937
v 0.000960 -0.224825 0.023096
vn 3.176246 2.087456 -4.962056
v -0.006479 -0.214361 0.016863
vn 5.143187 1.647775 -3.190684
v -0.005214 -0.219404 0.015905
vn 0.451675 2.232576 -5.495990
v -0.010012 -0.214441 0.015198
vn -5.409208 -2.136514 1.794810
v -0.016276 -0.231489 0.026161
vn -4.610273 -3.999441 0.820129
v -0.015604 -0.232902 0.025442
vn -4.520425 -3.021335 2.648364
v -0.015321 -0.232827 0.026630
vn -1.870958 -4.936903 1.064434
v -0.010171 -0.234620 0.029519
vn -3.027756 -4.225173 1.808117
v -0.014596 -0.233642 0.026839
vn 5.100823 -3.076740 0.303061
v 0.001925 -0.236103 0.033050
vn 5.338617 -3.209587 0.030630
v 0.003622 -0.231543 0.031412
vn -0.211447 -4.439328 0.293868
v -0.001760 -0.238496 0.033939
vn 2.217992 -3.987483 2.071313
v 0.000171 -0.237757 0.034630
vn -3.598387 -2.773152 4.137358
v -0.007060 -0.234733 0.032732
vn -3.550933 -3.140745 3.024923
v -0.004768 -0.236899 0.033883
vn -3.311836 -1.998081 4.543429
v -0.012831 -0.230181 0.031432
vn 0.326175 0.891815 -5.713128
v -0.010531 -0.208876 0.016641
vn -4.372520 1.023575 -3.008613
v -0.014505 -0.209184 0.018183
vn -6.095124 -0.001854 -0.188162
v -0.016791 -0.226552 0.025854
vn 5.595032 -1.030483 -1.043811
v 0.004889 -0.229356 0.027259
vn 5.396196 -2.184267 0.198604
v 0.004817 -0.230221 0.030299
vn 5.625844 1.656663 -0.857566
v 0.004709 -0.225450 0.029131
vn 4.840993 0.317102 -3.705370
v -0.003106 -0.209231 0.021412
vn 3.667376 1.216497 2.071303
v 0.001638 -0.216138 0.032050
vn -4.873424 -0.488883 1.122530
v -0.017714 -0.225712 0.028610
vn 3.573729 -1.407049 3.275815
v 0.001706 -0.235556 0.035160
vn 4.018575 -0.759500 2.920909
v 0.004170 -0.230514 0.033350
vn -1.766392 -2.633965 4.173200
v -0.002656 -0.236867 0.035771
vn 0.231809 -0.860150 4.954360
v -0.001335 -0.235448 0.036616
vn -3.029156 -0.852176 5.422963
v -0.004100 -0.232077 0.035333
vn -3.607559 -0.172414 4.491564
v -0.016491 -0.225106 0.030221
vn -0.207892 0.388998 5.624089
v -0.002620 -0.230562 0.036240
vn -3.679670 0.490304 -3.935850
v -0.011755 -0.194929 0.017976
vn 1.267301 -0.088811 -5.981673
v -0.007865 -0.187825 0.017667
vn 4.048948 -0.226636 -4.439894
v -0.003824 -0.184567 0.019537
vn -6.218105 0.719308 -0.336864
v -0.015071 -0.208991 0.024859
vn 4.916407 0.589334 2.345052
v 0.004859 -0.227537 0.032199
vn 5.916520 -0.129651 -1.418785
v -0.000879 -0.187407 0.025051
vn 4.290943 0.630828 3.788387
v -0.001127 -0.194182 0.029375
vn 0.674466 1.015795 6.152098
v -0.004849 -0.208294 0.032003
vn -4.036530 0.955897 4.127123
v -0.016345 -0.222652 0.029893
vn -2.394683 0.635652 5.567536
v -0.011011 -0.196621 0.030061
vn -1.801399 -0.088154 -3.058114
v -0.008743 -0.146781 0.016471
vn -5.973760 0.618477 0.329729
v -0.013017 -0.187801 0.024766
vn 4.340630 -0.322667 -0.957697
v 0.001280 -0.141554 0.021405
vn 5.133432 0.003135 2.852546
v -0.000488 -0.170097 0.026568
vn 1.420513 0.381866 5.806920
v -0.004050 -0.183105 0.030044
vn -4.735581 0.671089 3.812513
v -0.010782 -0.180135 0.027759
vn -1.393722 0.387554 5.849996
v -0.006709 -0.169985 0.029394
vn -1.388679 -0.483986 -2.905298
v -0.006915 -0.108148 0.009187
vn -5.239534 0.598875 2.238153
v -0.009404 -0.150746 0.025524
vn -4.673676 0.559640 2.462029
v -0.007713 -0.101541 0.018654
vn -3.822867 0.498529 4.731529
v -0.008273 -0.154829 0.027435
vn 4.816258 -0.242541 -1.787147
v 0.004237 -0.074194 0.009913
vn 5.669254 -0.063364 1.718608
v 0.002744 -0.112028 0.020382
vn 2.899431 0.226297 4.933123
v -0.002631 -0.136804 0.027173
vn 3.378009 0.421508 4.726893
v 0.000514 -0.111550 0.023618
vn -1.179886 0.322261 5.712201
v -0.005385 -0.145584 0.028053
vn 0.628348 -0.865548 -5.621305
v -0.005447 -0.077090 0.004369
vn -3.905564 0.070759 -2.291039
v -0.007081 -0.077017 0.004865
vn -3.643211 0.642339 4.486072
v -0.007344 -0.136928 0.026499
vn -1.322746 1.193070 5.847843
v -0.002792 -0.075317 0.016380
vn -3.187138 0.741939 4.188794
v -0.004357 -0.039016 0.009127
vn -5.513167 -0.190853 -1.172331
v -0.006724 -0.046001 0.002282
vn -2.028217 -0.890638 -4.267403
v -0.005179 -0.061822 0.002923
vn -0.266648 1.015799 5.562423
v -0.001008 -0.106362 0.023414
vn 4.221090 -0.419858 -2.695295
v 0.003460 -0.066548 0.006608
vn 5.108409 0.736547 2.663791
v 0.003693 -0.075809 0.014133
vn 2.323517 0.961405 4.788483
v 0.001330 -0.084748 0.018840
vn -0.375016 0.810016 5.881031
v -0.003914 -0.131994 0.026995
vn 2.157625 1.389945 5.419235
v 0.001031 -0.075384 0.016241
vn 0.929451 1.246390 5.617566
v -0.000632 -0.032441 0.008162
vn -2.443190 1.060956 5.632977
v -0.003284 -0.023968 0.005203
vn -5.182371 0.558605 2.839546
v -0.006506 -0.030551 0.004339
vn -2.032888 -0.141871 -5.424081
v -0.003637 -0.027095 -0.004824
vn -4.703754 -0.160340 -3.132185
v -0.006663 -0.026528 -0.002639
vn -6.145522 -0.003046 0.132101
v -0.007226 -0.027171 0.000762
vn 4.596936 -0.919684 -2.387691
v 0.003416 -0.048575 0.002369
vn 0.857803 -1.794327 -5.611710
v -0.000447 -0.043640 -0.001803
vn 5.434540 0.605489 2.431365
v 0.002810 -0.061447 0.011018
vn 4.159977 0.295626 4.248465
v 0.002935 -0.018762 0.003659
vn 0.877398 0.083907 6.144364
v -0.000056 -0.018105 0.004702
vn -5.083802 -0.144955 3.405993
v -0.006578 -0.018017 0.002388
vn -2.781511 -0.732130 5.450305
v -0.004396 -0.013991 0.004581
vn -3.026442 0.327869 -5.479351
v -0.005425 -0.023554 -0.003148
vn -0.170031 0.100819 -6.036846
v -0.001207 -0.024063 -0.004948
vn 0.785536 -1.303343 -5.693600
v 0.000868 -0.035545 -0.003937
vn 1.128384 -0.714872 -5.694184
v 0.001047 -0.031617 -0.004724
vn -5.194274 -0.403657 -3.190575
v -0.006546 -0.018377 -0.002195
vn -6.056898 -0.423032 -0.097660
v -0.007401 -0.016017 0.000166
vn 5.613891 -0.808033 -2.005960
v 0.003479 -0.044503 0.001388
vn 3.886308 -1.911510 -4.462471
v 0.002715 -0.044268 0.000345
vn 3.449991 -1.562887 -4.387477
v 0.002340 -0.040314 -0.002064
vn 5.697811 0.098470 -1.264725
v 0.004772 -0.024184 -0.001531
vn 5.907672 0.303036 0.870457
v 0.004433 -0.018747 0.000697
vn 5.705923 -2.219972 0.133078
v 0.004551 -0.010046 -0.000245
vn 5.180273 -2.209043 2.329391
v 0.003862 -0.010011 0.002737
vn 3.420841 -2.310377 4.487438
v 0.002312 -0.009756 0.004922
vn 1.229154 -2.669138 5.389459
v 0.000061 -0.009267 0.006088
vn -1.511638 -2.554908 5.332729
v -0.002793 -0.009485 0.006204
vn -4.859856 -2.066864 3.040509
v -0.007544 -0.009581 0.002727
vn -3.305864 -0.617926 -5.248172
v -0.004422 -0.019166 -0.004021
vn 3.390277 0.048766 -5.138871
v 0.002231 -0.019494 -0.003887
vn 0.388292 -2.811684 -5.386425
v -0.000838 -0.011546 -0.006633
vn 3.967522 -0.772488 -4.719208
v 0.002006 -0.015365 -0.004294
vn 4.291887 -0.664296 -3.850885
v 0.003190 -0.031854 -0.003510
vn 3.998147 0.177428 -4.397402
v 0.003630 -0.024232 -0.003397
vn -5.047786 -0.569221 -3.125916
v -0.006674 -0.013473 -0.003189
vn -5.876023 -1.929853 0.358193
v -0.007898 -0.009528 0.001405
vn 5.392345 0.506858 -2.838810
v 0.003888 -0.019426 -0.002119
vn 5.544715 -0.350688 -2.693560
v 0.003811 -0.014798 -0.002163
vn 5.060420 -2.599839 -2.115769
v 0.003255 -0.010964 -0.003995
vn 4.130667 -2.268755 -2.851292
v 0.005935 -0.007421 -0.006119
vn 4.463841 -4.327678 0.450918
v 0.006295 -0.007474 -0.000012
vn 4.669088 -2.031790 2.254522
v 0.007758 -0.005096 0.004224
vn 3.794629 -1.907692 3.906552
v 0.005232 -0.004721 0.007624
vn 0.870287 -1.446050 5.249875
v 0.000527 -0.004327 0.010148
vn 2.189699 -1.327278 4.741432
v 0.003066 -0.004451 0.009379
vn -3.849033 -1.428104 3.643430
v -0.008384 -0.004303 0.006957
vn -1.490155 -1.894075 5.098503
v -0.003295 -0.004456 0.009921
vn -5.590784 -1.359227 1.185684
v -0.010383 -0.004497 0.002311
vn -3.056967 -2.066262 -4.910429
v -0.003923 -0.011275 -0.005973
vn 2.762722 -2.999044 -4.065087
v 0.003492 -0.009098 -0.007208
vn 3.551731 -2.950457 -4.004972
v 0.002209 -0.011468 -0.005278
vn 0.118129 -2.465346 -5.109203
v -0.000624 -0.009400 -0.008427
vn -5.287135 -1.716660 -2.623744
v -0.007047 -0.009992 -0.003084
vn -5.518906 -1.373293 -1.118703
v -0.010446 -0.004622 -0.000589
vn 2.390149 -0.846073 -5.441154
v 0.003387 -0.005394 -0.008432
vn 3.081897 2.033003 -3.180467
v 0.005580 -0.000392 -0.007261
vn 4.378398 -2.186873 -1.392273
v 0.007822 -0.006408 -0.003516
vn 4.659865 -1.980391 0.106244
v 0.008658 -0.005775 -0.000174
vn 5.475537 0.542569 2.161231
v 0.007988 -0.002455 0.004045
vn 4.134625 1.001553 4.168598
v 0.005633 -0.001649 0.007309
vn 0.647693 1.274358 5.789206
v -0.001340 -0.001469 0.010182
vn 2.021136 3.386950 3.567419
v 0.003438 0.000696 0.007988
vn -3.343826 1.640193 4.760731
v -0.006608 -0.000038 0.007873
vn -1.443186 0.863776 5.423118
v -0.003223 -0.001531 0.010182
vn -5.009232 0.734460 3.082461
v -0.009383 -0.001136 0.005472
vn -5.792192 0.513086 1.933654
v -0.009975 -0.001139 0.003982
vn -4.168827 2.832867 0.379978
v -0.010170 0.001355 0.001946
vn -5.666786 0.605146 -1.292531
v -0.010529 -0.001432 -0.001122
vn -2.740438 -1.974657 -4.702836
v -0.003776 -0.008705 -0.007860
vn -4.778256 -1.593526 -3.408020
v -0.008142 -0.006249 -0.004253
vn -2.531724 -0.393004 -5.321290
v -0.003608 -0.003195 -0.009032
vn -0.736749 -1.034134 -5.948678
v -0.001906 -0.004884 -0.009199
vn 0.726656 1.975656 -4.498980
v 0.000338 -0.000568 -0.009643
vn 2.775589 3.062280 -0.403275
v 0.007954 0.000446 -0.000758
vn 1.251904 5.353148 -1.202681
v 0.004665 0.000666 -0.006121
vn 4.547091 2.736407 1.368925
v 0.007756 -0.000034 0.003134
vn 3.507522 3.595418 2.615218
v 0.005622 0.000272 0.006268
vn -0.294661 3.894231 3.640583
v -0.002526 0.000936 0.009179
vn 1.034819 5.762559 0.698703
v 0.002673 0.001419 0.006609
vn -3.373043 3.549435 2.351834
v -0.008684 0.001556 0.004980
vn -1.803592 4.047966 3.296334
v -0.006185 0.001340 0.007391
vn -3.636177 2.895788 -2.663486
v -0.008504 0.001057 -0.004229
vn -1.137892 5.685694 -0.244097
v -0.008497 0.002203 0.001495
vn -4.853201 -0.041580 -3.346446
v -0.009200 -0.001812 -0.004161
vn -1.635898 2.112141 -4.328522
v -0.003293 -0.000065 -0.009131
vn -0.137061 5.285625 -1.979465
v -0.002797 0.001095 -0.007738
vn 1.806761 5.595064 0.427992
v 0.007013 0.000477 0.003040
vn 0.331146 5.987235 -0.081565
v 0.001661 -0.000403 -0.001182
vn -0.541617 5.782216 0.526703
v -0.007280 0.002313 0.004042
vn -0.865498 5.274977 -1.163508
v -0.007127 0.002063 -0.003676
# 194 vertices, 0 vertices normals

f 1//1 2//2 3//3
f 1//1 4//4 5//5
f 6//6 7//7 1//1
f 4//4 1//1 7//7
f 3//3 6//6 1//1
f 2//2 1//1 5//5
f 3//3 2//2 8//8
f 2//2 5//5 9//9
f 9//9 8//8 2//2
f 10//10 3//3 11//11
f 8//8 11//11 3//3
f 3//3 10//10 6//6
f 5//5 4//4 12//12
f 12//12 4//4 7//7
f 9//9 5//5 13//13
f 13//13 5//5 14//14
f 12//12 14//14 5//5
f 7//7 6//6 15//15
f 6//6 16//16 15//15
f 6//6 17//17 16//16
f 17//17 6//6 10//10
f 7//7 15//15 12//12
f 8//8 18//18 19//19
f 8//8 19//19 11//11
f 8//8 20//20 21//21
f 8//8 9//9 20//20
f 8//8 21//21 22//22
f 8//8 22//22 18//18
f 9//9 23//23 24//24
f 13//13 25//25 9//9
f 9//9 25//25 23//23
f 26//26 9//9 24//24
f 27//27 9//9 26//26
f 27//27 20//20 9//9
f 17//17 10//10 28//28
f 28//28 10//10 29//29
f 29//29 10//10 19//19
f 10//10 11//11 19//19
f 12//12 15//15 14//14
f 25//25 13//13 30//30
f 14//14 31//31 13//13
f 30//30 13//13 31//31
f 32//32 14//14 15//15
f 32//32 31//31 14//14
f 16//16 33//33 15//15
f 15//15 33//33 34//34
f 32//32 15//15 34//34
f 16//16 17//17 35//35
f 16//16 35//35 33//33
f 35//35 17//17 28//28
f 36//36 29//29 18//18
f 18//18 22//22 37//37
f 36//36 18//18 38//38
f 18//18 37//37 38//38
f 19//19 18//18 29//29
f 39//39 20//20 27//27
f 20//20 39//39 21//21
f 22//22 21//21 40//40
f 40//40 21//21 39//39
f 22//22 40//40 37//37
f 24//24 23//23 41//41
f 25//25 30//30 23//23
f 23//23 30//30 42//42
f 41//41 23//23 42//42
f 43//43 26//26 24//24
f 41//41 44//44 24//24
f 24//24 44//44 43//43
f 27//27 26//26 45//45
f 46//46 45//45 26//26
f 26//26 43//43 46//46
f 47//47 39//39 27//27
f 45//45 47//47 27//27
f 48//48 28//28 49//49
f 28//28 48//48 35//35
f 28//28 29//29 49//49
f 50//50 49//49 29//29
f 36//36 50//50 29//29
f 51//51 30//30 31//31
f 42//42 30//30 52//52
f 51//51 52//52 30//30
f 51//51 31//31 53//53
f 53//53 31//31 32//32
f 34//34 53//53 32//32
f 54//54 34//34 33//33
f 54//54 33//33 48//48
f 35//35 48//48 33//33
f 55//55 34//34 54//54
f 34//34 55//55 53//53
f 50//50 36//36 56//56
f 36//36 38//38 56//56
f 38//38 37//37 40//40
f 38//38 40//40 56//56
f 39//39 47//47 40//40
f 40//40 47//47 56//56
f 41//41 42//42 57//57
f 57//57 44//44 41//41
f 57//57 42//42 58//58
f 42//42 52//52 58//58
f 59//59 46//46 43//43
f 44//44 59//59 43//43
f 59//59 44//44 60//60
f 57//57 60//60 44//44
f 47//47 45//45 61//61
f 45//45 46//46 61//61
f 61//61 46//46 59//59
f 62//62 47//47 63//63
f 61//61 63//63 47//47
f 47//47 62//62 56//56
f 64//64 48//48 49//49
f 65//65 48//48 64//64
f 66//66 48//48 65//65
f 66//66 54//54 48//48
f 67//67 49//49 50//50
f 49//49 67//67 64//64
f 50//50 56//56 67//67
f 51//51 53//53 68//68
f 51//51 68//68 52//52
f 58//58 52//52 68//68
f 55//55 68//68 53//53
f 66//66 69//69 54//54
f 55//55 54//54 69//69
f 55//55 70//70 71//71
f 69//69 70//70 55//55
f 58//58 68//68 55//55
f 63//63 55//55 71//71
f 57//57 55//55 63//63
f 57//57 58//58 55//55
f 56//56 72//72 67//67
f 62//62 72//72 56//56
f 63//63 60//60 57//57
f 61//61 59//59 63//63
f 60//60 63//63 59//59
f 63//63 72//72 62//62
f 71//71 73//73 63//63
f 73//73 72//72 63//63
f 64//64 74//74 65//65
f 64//64 67//67 75//75
f 74//74 64//64 75//75
f 65//65 74//74 66//66
f 76//76 66//66 74//74
f 66//66 76//76 69//69
f 75//75 67//67 72//72
f 77//77 69//69 76//76
f 77//77 70//70 69//69
f 70//70 77//77 78//78
f 78//78 71//71 70//70
f 71//71 78//78 73//73
f 72//72 73//73 79//79
f 75//75 72//72 79//79
f 78//78 80//80 73//73
f 79//79 73//73 80//80
f 74//74 81//81 76//76
f 82//82 74//74 75//75
f 74//74 82//82 83//83
f 74//74 83//83 81//81
f 79//79 84//84 75//75
f 84//84 82//82 75//75
f 76//76 81//81 85//85
f 86//86 76//76 85//85
f 77//77 76//76 87//87
f 88//88 87//87 76//76
f 76//76 86//86 88//88
f 87//87 78//78 77//77
f 78//78 87//87 80//80
f 84//84 79//79 80//80
f 80//80 89//89 84//84
f 89//89 80//80 87//87
f 81//81 90//90 85//85
f 91//91 81//81 83//83
f 90//90 81//81 91//91
f 89//89 92//92 82//82
f 84//84 89//89 82//82
f 83//83 82//82 92//92
f 83//83 93//93 94//94
f 83//83 95//95 96//96
f 83//83 92//92 97//97
f 93//93 83//83 97//97
f 91//91 83//83 96//96
f 83//83 94//94 95//95
f 90//90 98//98 85//85
f 99//99 86//86 85//85
f 85//85 98//98 99//99
f 86//86 100//100 88//88
f 86//86 99//99 100//100
f 87//87 97//97 101//101
f 101//101 89//89 87//87
f 88//88 97//97 87//87
f 88//88 100//100 97//97
f 92//92 89//89 101//101
f 90//90 91//91 96//96
f 98//98 90//90 96//96
f 97//97 92//92 101//101
f 93//93 97//97 100//100
f 100//100 102//102 93//93
f 102//102 103//103 93//93
f 103//103 94//94 93//93
f 104//104 94//94 103//103
f 94//94 105//105 95//95
f 105//105 94//94 104//104
f 95//95 106//106 96//96
f 107//107 106//106 95//95
f 108//108 95//95 105//105
f 107//107 95//95 108//108
f 109//109 98//98 96//96
f 110//110 96//96 106//106
f 109//109 96//96 110//110
f 111//111 99//99 98//98
f 98//98 109//109 111//111
f 102//102 100//100 99//99
f 102//102 99//99 111//111
f 103//103 102//102 111//111
f 111//111 112//112 103//103
f 113//113 103//103 112//112
f 103//103 113//113 104//104
f 114//114 105//105 104//104
f 115//115 104//104 113//113
f 104//104 115//115 114//114
f 114//114 108//108 105//105
f 106//106 107//107 116//116
f 106//106 116//116 117//117
f 110//110 106//106 118//118
f 119//119 118//118 106//106
f 117//117 119//119 106//106
f 120//120 116//116 107//107
f 120//120 107//107 108//108
f 114//114 121//121 108//108
f 108//108 121//121 120//120
f 111//111 109//109 122//122
f 123//123 109//109 110//110
f 122//122 109//109 123//123
f 110//110 118//118 124//124
f 124//124 123//123 110//110
f 125//125 111//111 122//122
f 111//111 125//125 126//126
f 126//126 112//112 111//111
f 127//127 112//112 126//126
f 128//128 112//112 127//127
f 129//129 112//112 128//128
f 113//113 112//112 130//130
f 112//112 129//129 130//130
f 131//131 113//113 130//130
f 131//131 115//115 113//113
f 114//114 132//132 121//121
f 132//132 114//114 115//115
f 131//131 132//132 115//115
f 133//133 117//117 116//116
f 133//133 116//116 120//120
f 134//134 119//119 117//117
f 117//117 133//133 135//135
f 135//135 136//136 117//117
f 134//134 117//117 136//136
f 137//137 124//124 118//118
f 118//118 119//119 137//137
f 137//137 119//119 138//138
f 138//138 119//119 134//134
f 120//120 139//139 133//133
f 139//139 120//120 121//121
f 132//132 140//140 121//121
f 139//139 121//121 140//140
f 123//123 124//124 122//122
f 125//125 122//122 137//137
f 124//124 137//137 122//122
f 125//125 138//138 141//141
f 125//125 137//137 138//138
f 141//141 126//126 125//125
f 127//127 126//126 142//142
f 141//141 142//142 126//126
f 142//142 143//143 127//127
f 144//144 145//145 127//127
f 143//143 144//144 127//127
f 145//145 128//128 127//127
f 146//146 147//147 128//128
f 128//128 145//145 146//146
f 129//129 128//128 147//147
f 130//130 129//129 148//148
f 149//149 129//129 147//147
f 148//148 129//129 149//149
f 131//131 130//130 148//148
f 132//132 131//131 150//150
f 131//131 148//148 151//151
f 150//150 131//131 151//151
f 132//132 152//152 140//140
f 152//152 132//132 150//150
f 153//153 133//133 139//139
f 153//153 135//135 133//133
f 134//134 142//142 141//141
f 141//141 138//138 134//134
f 136//136 142//142 134//134
f 135//135 154//154 155//155
f 156//156 135//135 153//153
f 155//155 136//136 135//135
f 156//156 154//154 135//135
f 136//136 155//155 143//143
f 136//136 143//143 142//142
f 139//139 157//157 153//153
f 140//140 157//157 139//139
f 158//158 140//140 152//152
f 157//157 140//140 158//158
f 155//155 144//144 143//143
f 159//159 144//144 154//154
f 160//160 144//144 159//159
f 161//161 144//144 160//160
f 155//155 154//154 144//144
f 144//144 161//161 145//145
f 162//162 145//145 161//161
f 162//162 146//146 145//145
f 146//146 162//162 163//163
f 146//146 163//163 147//147
f 147//147 164//164 149//149
f 164//164 147//147 163//163
f 148//148 165//165 151//151
f 165//165 148//148 149//149
f 149//149 164//164 166//166
f 165//165 149//149 166//166
f 167//167 150//150 168//168
f 151//151 168//168 150//150
f 167//167 169//169 150//150
f 152//152 150//150 170//170
f 170//170 150//150 169//169
f 168//168 151//151 165//165
f 152//152 171//171 172//172
f 172//172 158//158 152//152
f 170//170 171//171 152//152
f 173//173 156//156 153//153
f 173//173 153//153 174//174
f 153//153 157//157 174//174
f 159//159 154//154 156//156
f 173//173 175//175 156//156
f 175//175 176//176 156//156
f 176//176 159//159 156//156
f 158//158 174//174 157//157
f 174//174 158//158 172//172
f 160//160 159//159 177//177
f 176//176 177//177 159//159
f 160//160 178//178 161//161
f 179//179 160//160 177//177
f 179//179 178//178 160//160
f 178//178 162//162 161//161
f 178//178 163//163 162//162
f 178//178 180//180 163//163
f 164//164 163//163 181//181
f 181//181 163//163 180//180
f 166//166 164//164 181//181
f 168//168 165//165 182//182
f 166//166 182//182 165//165
f 183//183 166//166 181//181
f 182//182 166//166 183//183
f 167//167 184//184 169//169
f 167//167 185//185 184//184
f 185//185 167//167 182//182
f 168//168 182//182 167//167
f 169//169 184//184 170//170
f 171//171 170//170 184//184
f 172//172 171//171 186//186
f 186//186 171//171 187//187
f 171//171 184//184 187//187
f 188//188 172//172 186//186
f 174//174 172//172 188//188
f 175//175 173//173 174//174
f 175//175 174//174 188//188
f 175//175 189//189 176//176
f 175//175 188//188 189//189
f 177//177 176//176 189//189
f 190//190 177//177 189//189
f 190//190 179//179 177//177
f 178//178 191//191 180//180
f 192//192 178//178 179//179
f 191//191 178//178 192//192
f 192//192 179//179 190//190
f 181//181 180//180 191//191
f 191//191 183//183 181//181
f 183//183 193//193 182//182
f 193//193 185//185 182//182
f 193//193 183//183 192//192
f 183//183 191//191 192//192
f 185//185 193//193 184//184
f 184//184 193//193 187//187
f 186//186 189//189 188//188
f 194//194 190//190 186//186
f 190//190 189//189 186//186
f 187//187 194//194 186//186
f 187//187 193//193 192//192
f 194//194 187//187 192//192
f 190//190 194//194 192//192
# 384 faces, 0 coords texture

# End of File
