####
#
# OBJ File Generated by Meshlab
#
####
# Object ring_proximal_lvs.obj
#
# Vertices: 132
# Faces: 260
#
####
vn -1.614008 -1.442222 -5.668936
v 0.022458 -0.138517 0.021596
vn 1.244339 -1.713919 -4.882702
v 0.025034 -0.139125 0.020639
vn -2.329848 -3.159654 -3.273141
v 0.021265 -0.141519 0.022207
vn -3.220496 -2.155308 -2.653599
v 0.019282 -0.139529 0.022141
vn -0.443281 1.029794 -4.958156
v 0.021487 -0.134385 0.020179
vn -2.048539 -1.055182 -5.060590
v 0.019237 -0.136079 0.020938
vn -1.902835 2.071102 -3.990812
v 0.019741 -0.134191 0.020685
vn 1.481380 -3.078472 -3.907787
v 0.024638 -0.140979 0.021391
vn 4.668593 0.564105 -2.505012
v 0.026101 -0.137579 0.021157
vn 4.952538 -1.288403 -2.278128
v 0.026131 -0.138686 0.021472
vn 0.946525 -0.379740 -5.040138
v 0.024622 -0.137040 0.020013
vn -0.789092 -3.768422 -2.972232
v 0.022149 -0.141916 0.022124
vn -4.262892 -3.970324 0.107595
v 0.020107 -0.141010 0.023920
vn -1.197883 -5.462845 0.254442
v 0.021880 -0.142144 0.023804
vn -4.956007 -2.181473 -2.149645
v 0.018020 -0.136276 0.022307
vn -4.808745 -2.046253 2.690817
v 0.017849 -0.135059 0.028388
vn -1.254601 3.584355 -3.883929
v 0.020474 -0.133904 0.020560
vn 1.687878 4.518791 -2.074996
v 0.022549 -0.133536 0.021099
vn 2.952885 2.666132 -2.404890
v 0.024960 -0.135212 0.020659
vn -2.202124 -0.089461 -5.544890
v 0.018857 -0.134441 0.021095
vn 2.458048 -4.809731 -0.882868
v 0.024661 -0.141766 0.022827
vn 4.588259 -3.172698 -1.374498
v 0.025439 -0.140850 0.022311
vn 5.653714 1.092256 0.362876
v 0.026346 -0.137626 0.023487
vn 5.511932 -1.872589 0.969251
v 0.026071 -0.139533 0.024088
vn -4.052184 -2.925006 2.483547
v 0.020951 -0.140513 0.029832
vn -1.035874 -5.858335 0.633618
v 0.021985 -0.141572 0.026450
vn 2.988675 -4.714724 0.920599
v 0.024672 -0.141700 0.023711
vn -1.052579 -1.032807 -5.409920
v 0.016815 -0.130866 0.020821
vn -5.268272 -3.047463 0.821371
v 0.013779 -0.129479 0.025319
vn -4.672381 -3.036225 -2.299177
v 0.012740 -0.127234 0.022320
vn -2.355330 0.243997 5.338910
v 0.018592 -0.133175 0.029488
vn -2.189237 -0.646515 5.714736
v 0.014818 -0.125887 0.028232
vn -4.186870 -2.153822 3.869227
v 0.013227 -0.127168 0.026861
vn -2.648808 0.885037 5.160952
v 0.020019 -0.134342 0.030413
vn -3.251237 -0.820524 4.949988
v 0.020080 -0.136661 0.030335
vn -2.227396 0.134432 5.413781
v 0.020495 -0.134957 0.030732
vn 1.232928 4.237695 -3.579762
v 0.020600 -0.133397 0.021627
vn 4.716754 3.984952 -0.251812
v 0.024846 -0.135452 0.025825
vn 4.059691 4.505820 -0.680746
v 0.021264 -0.132925 0.023394
vn 6.037725 0.732062 -0.062905
v 0.025728 -0.137459 0.025992
vn 5.250170 -3.191444 0.364058
v 0.024986 -0.140214 0.026178
vn -0.905846 -4.938210 -0.039944
v 0.022374 -0.141935 0.028884
vn -1.295001 -3.970268 2.791273
v 0.022421 -0.141624 0.030204
vn -1.856186 -1.728778 5.133286
v 0.022151 -0.140333 0.030864
vn 1.763515 -3.624898 2.077020
v 0.024420 -0.141374 0.030391
vn 3.215838 -5.130598 0.661549
v 0.024291 -0.141039 0.026249
vn -4.675608 -3.110725 -1.660685
v 0.002104 -0.109936 0.020569
vn -1.518222 -1.771963 -5.491751
v 0.009961 -0.117323 0.018846
vn 2.529496 0.290899 -5.393601
v 0.013471 -0.120273 0.019564
vn 4.170893 1.457256 -2.974126
v 0.016795 -0.125353 0.020981
vn -5.228686 -2.984342 0.696588
v 0.007032 -0.118814 0.024936
vn 2.671528 1.968931 3.384018
v 0.018774 -0.129593 0.028922
vn 1.447389 3.714074 4.262621
v 0.020115 -0.132449 0.029181
vn -1.382298 3.567959 4.958614
v 0.019791 -0.133107 0.029651
vn -3.963965 -1.788707 3.624483
v 0.007330 -0.118646 0.025990
vn -1.867032 -0.871874 5.860562
v 0.008414 -0.114314 0.027148
vn 2.699068 0.868935 4.632785
v 0.009490 -0.111167 0.027440
vn -1.497910 3.139339 5.039347
v 0.020576 -0.133326 0.030153
vn 1.324102 -1.092284 5.000710
v 0.025041 -0.139101 0.031531
vn -0.455408 1.699105 5.374120
v 0.022052 -0.134453 0.031080
vn 0.982522 1.359545 5.121155
v 0.024458 -0.136236 0.031511
vn 1.412127 0.716774 5.020378
v 0.025044 -0.137185 0.031613
vn 5.572478 1.158210 -0.191804
v 0.026295 -0.137167 0.028366
vn 4.870208 3.654035 0.007449
v 0.025559 -0.135869 0.028411
vn 3.219355 5.197255 -0.047980
v 0.022635 -0.133231 0.028088
vn 3.798914 4.567490 1.473690
v 0.020632 -0.132420 0.028487
vn 5.157401 -2.165133 -0.360365
v 0.026097 -0.139498 0.028436
vn 4.208142 -2.037694 2.548684
v 0.025660 -0.139621 0.030856
vn -1.387051 -2.512053 -5.265376
v 0.007294 -0.111250 0.017456
vn -5.169438 -2.801765 1.585116
v 0.005533 -0.116082 0.024518
vn -4.594019 -2.451273 2.279541
v 0.002686 -0.110957 0.025105
vn -4.960240 -1.948708 2.371954
v 0.000557 -0.105481 0.026281
vn -5.626743 -1.613639 -0.644559
v -0.000034 -0.105851 0.020776
vn -4.163124 -2.599830 -3.009530
v 0.001356 -0.107346 0.018258
vn 2.483212 -1.005916 -5.411803
v 0.009330 -0.110873 0.017564
vn 5.059581 1.877515 -2.122401
v 0.014386 -0.119624 0.020604
vn 5.261253 1.140475 -1.951089
v 0.010823 -0.110735 0.018941
vn -3.994184 -1.962624 4.270435
v 0.005984 -0.115719 0.025445
vn 5.474329 2.638348 1.261164
v 0.011004 -0.112349 0.025443
vn 0.461933 4.636193 2.322126
v 0.020955 -0.132649 0.029700
vn -1.287104 -0.702848 5.619196
v 0.002660 -0.102577 0.028845
vn 5.408706 0.331909 2.906601
v 0.008510 -0.107439 0.026743
vn 3.554107 1.084227 4.828726
v 0.008276 -0.108342 0.027474
vn 5.378248 2.220693 2.124534
v 0.010003 -0.110776 0.026308
vn 4.511977 0.986203 2.467302
v 0.025929 -0.137302 0.030931
vn 2.212648 4.090127 2.635477
v 0.023118 -0.133775 0.030436
vn 3.126823 3.591519 2.401862
v 0.024343 -0.134752 0.030646
vn 2.171859 -1.693548 -5.302519
v 0.008170 -0.107274 0.015829
vn -1.114087 -0.947029 -4.950906
v 0.004401 -0.104010 0.014096
vn -3.779510 -1.012024 4.060929
v 0.001016 -0.103641 0.027754
vn -5.189693 1.380910 -0.117541
v -0.000401 -0.103559 0.022298
vn -5.088565 1.166507 0.519127
v -0.000207 -0.102877 0.025420
vn -4.947659 -0.116590 -2.752040
v 0.000887 -0.103063 0.016860
vn -4.110799 0.623285 -3.677118
v 0.001612 -0.102240 0.015848
vn 3.608361 0.165101 -4.123096
v 0.008804 -0.103296 0.015315
vn 5.973851 0.558530 -1.176138
v 0.009747 -0.105433 0.017170
vn 5.767383 2.227003 0.933285
v 0.009725 -0.109909 0.025522
vn -2.021489 0.653947 5.460717
v 0.002443 -0.101502 0.028778
vn -0.907880 1.931495 5.199682
v 0.003836 -0.100113 0.028737
vn 2.649543 -0.741434 5.164527
v 0.007888 -0.105701 0.027877
vn 2.225308 0.312918 5.408254
v 0.007947 -0.101925 0.028293
vn 0.206337 2.172316 5.308259
v 0.004818 -0.099708 0.028635
vn 5.903685 -0.285889 0.648453
v 0.009574 -0.106012 0.025089
vn 5.303495 -0.813899 2.792257
v 0.009138 -0.105837 0.026441
vn 5.945683 0.471639 1.693711
v 0.009300 -0.107684 0.025276
vn -1.728780 1.620856 -5.569836
v 0.003765 -0.101454 0.014775
vn 0.567479 1.661652 -5.403423
v 0.006174 -0.101189 0.014445
vn -4.194070 2.521183 0.136647
v 0.000473 -0.101372 0.026470
vn -2.369038 2.439284 1.119131
v 0.001528 -0.099713 0.027893
vn -4.142101 3.478028 -0.262757
v 0.001080 -0.101456 0.017848
vn -3.746238 4.794858 -1.402535
v 0.000826 -0.102131 0.024598
vn -3.349300 5.200881 0.508268
v 0.000669 -0.102672 0.021366
vn -1.703882 2.983732 -2.060097
v 0.003247 -0.099667 0.015444
vn 3.946556 2.451059 -1.452483
v 0.009299 -0.099955 0.017378
vn 2.477515 2.282928 -4.671639
v 0.007153 -0.101021 0.014824
vn 6.210443 0.835824 0.413878
v 0.009163 -0.103094 0.023999
vn 6.262739 -0.031441 -0.130078
v 0.009457 -0.106047 0.024064
vn -1.498907 3.431029 1.641979
v 0.003103 -0.098899 0.027981
vn -1.136196 2.724871 5.447661
v 0.003599 -0.099690 0.028295
vn 4.327360 1.089764 2.840434
v 0.008599 -0.101702 0.027831
vn 3.330533 3.165973 2.509901
v 0.007679 -0.099670 0.027561
vn 1.489475 2.889192 4.747124
v 0.005920 -0.099566 0.028379
vn -0.067225 4.005318 4.724994
v 0.004505 -0.099158 0.028165
vn -0.578939 2.430466 -5.481676
v 0.004685 -0.100510 0.015285
vn 0.180563 4.069365 -3.394422
v 0.005469 -0.099357 0.015524
vn -3.051963 4.815941 -2.512330
v 0.002130 -0.100784 0.025881
vn 1.091332 4.528863 -0.559300
v 0.007707 -0.098457 0.018271
vn -3.595047 4.836508 -1.244328
v 0.004737 -0.099911 0.023549
vn 1.919934 5.428506 1.159030
v 0.006281 -0.098554 0.026561
vn 0.194871 4.490332 -0.253004
v 0.006560 -0.098252 0.023328
vn 0.388358 5.250062 2.000062
v 0.005022 -0.098517 0.027429
vn -1.856053 5.512483 -0.885161
v 0.004566 -0.098544 0.026740
# 132 vertices, 0 vertices normals

f 1//1 2//2 3//3
f 3//3 4//4 1//1
f 2//2 1//1 5//5
f 1//1 4//4 6//6
f 1//1 7//7 5//5
f 1//1 6//6 7//7
f 3//3 2//2 8//8
f 9//9 10//10 2//2
f 11//11 2//2 5//5
f 2//2 11//11 9//9
f 2//2 10//10 8//8
f 3//3 8//8 12//12
f 4//4 3//3 13//13
f 14//14 3//3 12//12
f 14//14 13//13 3//3
f 6//6 4//4 15//15
f 4//4 13//13 16//16
f 16//16 15//15 4//4
f 7//7 17//17 5//5
f 5//5 17//17 18//18
f 5//5 18//18 19//19
f 19//19 11//11 5//5
f 15//15 20//20 6//6
f 7//7 6//6 20//20
f 7//7 20//20 17//17
f 12//12 8//8 21//21
f 22//22 21//21 8//8
f 22//22 8//8 10//10
f 23//23 10//10 9//9
f 9//9 19//19 23//23
f 19//19 9//9 11//11
f 10//10 23//23 24//24
f 24//24 22//22 10//10
f 14//14 12//12 21//21
f 16//16 13//13 25//25
f 25//25 13//13 26//26
f 26//26 13//13 14//14
f 26//26 14//14 27//27
f 21//21 27//27 14//14
f 20//20 15//15 28//28
f 15//15 16//16 29//29
f 28//28 15//15 30//30
f 29//29 30//30 15//15
f 16//16 31//31 32//32
f 33//33 29//29 16//16
f 32//32 33//33 16//16
f 34//34 31//31 16//16
f 16//16 25//25 35//35
f 36//36 16//16 35//35
f 36//36 34//34 16//16
f 18//18 17//17 37//37
f 20//20 37//37 17//17
f 18//18 38//38 19//19
f 38//38 18//18 39//39
f 39//39 18//18 37//37
f 23//23 19//19 38//38
f 20//20 28//28 37//37
f 27//27 21//21 22//22
f 27//27 22//22 24//24
f 40//40 24//24 23//23
f 40//40 23//23 38//38
f 24//24 41//41 27//27
f 24//24 40//40 41//41
f 42//42 43//43 25//25
f 42//42 25//25 26//26
f 25//25 44//44 35//35
f 25//25 43//43 44//44
f 45//45 26//26 46//46
f 42//42 26//26 45//45
f 27//27 46//46 26//26
f 41//41 46//46 27//27
f 47//47 48//48 28//28
f 28//28 30//30 47//47
f 28//28 48//48 49//49
f 28//28 49//49 50//50
f 28//28 50//50 37//37
f 29//29 47//47 30//30
f 51//51 47//47 29//29
f 33//33 51//51 29//29
f 31//31 52//52 32//32
f 31//31 53//53 52//52
f 31//31 54//54 53//53
f 31//31 34//34 54//54
f 55//55 32//32 56//56
f 55//55 33//33 32//32
f 32//32 52//52 57//57
f 57//57 56//56 32//32
f 51//51 33//33 55//55
f 34//34 58//58 54//54
f 34//34 36//36 58//58
f 35//35 44//44 59//59
f 60//60 35//35 61//61
f 61//61 35//35 62//62
f 35//35 59//59 62//62
f 35//35 60//60 36//36
f 60//60 58//58 36//36
f 39//39 37//37 50//50
f 38//38 63//63 40//40
f 64//64 38//38 65//65
f 63//63 38//38 64//64
f 38//38 39//39 65//65
f 39//39 52//52 66//66
f 39//39 50//50 52//52
f 39//39 66//66 65//65
f 41//41 40//40 67//67
f 40//40 63//63 67//67
f 41//41 45//45 46//46
f 41//41 67//67 45//45
f 42//42 45//45 43//43
f 45//45 59//59 43//43
f 43//43 59//59 44//44
f 59//59 45//45 68//68
f 45//45 67//67 68//68
f 47//47 69//69 48//48
f 47//47 51//51 70//70
f 47//47 70//70 71//71
f 47//47 72//72 73//73
f 47//47 71//71 72//72
f 47//47 74//74 69//69
f 47//47 73//73 74//74
f 75//75 48//48 69//69
f 48//48 75//75 49//49
f 50//50 49//49 76//76
f 49//49 77//77 76//76
f 77//77 49//49 75//75
f 50//50 76//76 52//52
f 78//78 70//70 51//51
f 55//55 78//78 51//51
f 57//57 52//52 79//79
f 66//66 52//52 53//53
f 79//79 52//52 76//76
f 53//53 65//65 66//66
f 65//65 53//53 80//80
f 54//54 80//80 53//53
f 54//54 58//58 80//80
f 56//56 78//78 55//55
f 57//57 81//81 56//56
f 78//78 56//56 81//81
f 57//57 82//82 83//83
f 57//57 84//84 82//82
f 81//81 57//57 83//83
f 79//79 84//84 57//57
f 60//60 80//80 58//58
f 59//59 85//85 62//62
f 85//85 59//59 68//68
f 61//61 86//86 60//60
f 60//60 86//86 80//80
f 87//87 86//86 61//61
f 61//61 85//85 87//87
f 62//62 85//85 61//61
f 85//85 68//68 63//63
f 63//63 68//68 67//67
f 63//63 64//64 85//85
f 64//64 65//65 86//86
f 64//64 86//86 87//87
f 64//64 87//87 85//85
f 65//65 80//80 86//86
f 88//88 75//75 69//69
f 89//89 69//69 74//74
f 69//69 89//89 88//88
f 78//78 71//71 70//70
f 90//90 71//71 81//81
f 71//71 78//78 81//81
f 71//71 90//90 72//72
f 91//91 73//73 72//72
f 92//92 91//91 72//72
f 90//90 92//92 72//72
f 91//91 93//93 73//73
f 74//74 73//73 93//93
f 93//93 94//94 74//74
f 74//74 94//94 89//89
f 75//75 88//88 77//77
f 79//79 76//76 77//77
f 77//77 95//95 96//96
f 77//77 96//96 97//97
f 79//79 77//77 97//97
f 95//95 77//77 88//88
f 84//84 79//79 97//97
f 81//81 98//98 90//90
f 98//98 81//81 99//99
f 81//81 83//83 100//100
f 81//81 100//100 101//101
f 81//81 101//101 102//102
f 81//81 102//102 99//99
f 83//83 82//82 100//100
f 82//82 103//103 104//104
f 104//104 100//100 82//82
f 82//82 84//84 97//97
f 103//103 82//82 105//105
f 105//105 82//82 97//97
f 89//89 95//95 88//88
f 89//89 106//106 107//107
f 106//106 89//89 94//94
f 107//107 95//95 89//89
f 108//108 90//90 109//109
f 90//90 108//108 92//92
f 109//109 90//90 98//98
f 91//91 110//110 93//93
f 111//111 91//91 92//92
f 111//111 112//112 91//91
f 91//91 112//112 110//110
f 111//111 92//92 108//108
f 94//94 93//93 110//110
f 94//94 113//113 106//106
f 94//94 110//110 113//113
f 95//95 114//114 96//96
f 95//95 115//115 114//114
f 115//115 95//95 107//107
f 116//116 117//117 96//96
f 96//96 117//117 105//105
f 97//97 96//96 105//105
f 114//114 116//116 96//96
f 118//118 109//109 98//98
f 98//98 99//99 119//119
f 98//98 119//119 118//118
f 102//102 119//119 99//99
f 100//100 120//120 101//101
f 120//120 100//100 104//104
f 101//101 121//121 122//122
f 121//121 101//101 120//120
f 102//102 101//101 122//122
f 122//122 123//123 102//102
f 102//102 123//123 119//119
f 104//104 103//103 120//120
f 105//105 117//117 103//103
f 103//103 116//116 120//120
f 103//103 117//117 116//116
f 124//124 107//107 106//106
f 106//106 113//113 124//124
f 124//124 125//125 107//107
f 125//125 115//115 107//107
f 126//126 108//108 109//109
f 108//108 126//126 111//111
f 126//126 109//109 118//118
f 110//110 127//127 113//113
f 127//127 110//110 112//112
f 111//111 128//128 127//127
f 112//112 111//111 127//127
f 111//111 126//126 128//128
f 124//124 113//113 125//125
f 127//127 125//125 113//113
f 116//116 114//114 120//120
f 114//114 129//129 121//121
f 114//114 121//121 120//120
f 130//130 129//129 114//114
f 130//130 114//114 127//127
f 127//127 114//114 115//115
f 115//115 125//125 127//127
f 118//118 123//123 131//131
f 123//123 118//118 119//119
f 132//132 126//126 118//118
f 118//118 131//131 132//132
f 131//131 122//122 121//121
f 129//129 131//131 121//121
f 131//131 123//123 122//122
f 128//128 126//126 132//132
f 128//128 130//130 127//127
f 132//132 130//130 128//128
f 132//132 131//131 129//129
f 129//129 130//130 132//132
# 260 faces, 0 coords texture

# End of File
