####
#
# OBJ File Generated by Meshlab
#
####
# Object ring_medial_lvs.obj
#
# Vertices: 174
# Faces: 344
#
####
vn -1.768069 -5.447276 -1.266794
v 0.043977 -0.159486 0.025501
vn 1.368501 -5.382709 0.448539
v 0.044827 -0.159608 0.026171
vn -2.342370 -5.469593 0.181012
v 0.043698 -0.159427 0.026273
vn -4.154181 -4.564601 0.161908
v 0.042576 -0.158610 0.026321
vn -0.468115 -4.281309 -3.140289
v 0.044639 -0.159406 0.024902
vn -2.634542 -3.510608 -2.643389
v 0.042548 -0.158516 0.024906
vn -3.124014 -5.256444 0.733559
v 0.043473 -0.158958 0.028692
vn 1.003955 -3.874168 -2.816079
v 0.045208 -0.159288 0.024747
vn 0.107984 -5.733434 0.450818
v 0.044156 -0.159207 0.028748
vn 5.130519 -2.857831 -0.267888
v 0.046925 -0.157411 0.028306
vn 4.527794 -2.962453 -0.276078
v 0.047087 -0.158089 0.025180
vn -4.139081 -4.579427 0.960686
v 0.041346 -0.156965 0.028552
vn -3.524289 -4.957029 -0.230093
v 0.040845 -0.156500 0.026831
vn 0.846386 -0.504603 -5.622043
v 0.045858 -0.154977 0.022820
vn -3.039546 -2.975790 -3.266991
v 0.041642 -0.157289 0.024487
vn -3.854880 -4.280492 -2.071214
v 0.040555 -0.156160 0.025490
vn -2.846475 -4.955763 1.524062
v 0.043818 -0.158833 0.030553
vn -4.198702 -4.386222 1.241793
v 0.042753 -0.158215 0.029583
vn 2.284698 -3.111623 -3.328184
v 0.046558 -0.158215 0.024214
vn 1.659585 -5.185148 0.296713
v 0.045502 -0.159080 0.030946
vn 4.497833 -3.537610 -0.250903
v 0.046985 -0.157905 0.030266
vn 5.650441 1.866474 -0.598234
v 0.047023 -0.155305 0.028044
vn 5.612030 0.022492 -0.288163
v 0.047735 -0.155837 0.030234
vn 5.205907 -0.259138 -1.507874
v 0.047548 -0.156147 0.024277
vn 5.022084 1.806722 0.588325
v 0.047456 -0.155236 0.025962
vn -3.224232 -5.076718 1.093886
v 0.040098 -0.156243 0.028243
vn -3.224363 -4.182501 2.572580
v 0.033097 -0.150423 0.029931
vn -3.928658 -4.134891 2.536440
v 0.040929 -0.155738 0.030629
vn -2.974949 -5.224016 -0.528996
v 0.039654 -0.156092 0.026712
vn 2.330516 -1.923739 -3.846928
v 0.046899 -0.156981 0.023574
vn 1.650293 -0.834528 -4.757764
v 0.046417 -0.155543 0.022970
vn -1.130121 0.940067 -4.869576
v 0.043551 -0.154120 0.022754
vn -0.112478 0.521194 -5.728757
v 0.044367 -0.154222 0.022712
vn -2.416803 -1.953456 -4.943307
v 0.041579 -0.155973 0.023816
vn 1.260412 2.050380 -5.475005
v 0.045301 -0.153984 0.022857
vn 2.966811 2.063457 -4.931541
v 0.045978 -0.154422 0.023000
vn -2.643511 -1.154789 -5.070208
v 0.040792 -0.154984 0.024099
vn -3.152670 -4.409319 -2.673722
v 0.039566 -0.155700 0.025650
vn -1.719239 -3.737842 2.974702
v 0.044561 -0.158774 0.032026
vn -3.648687 -2.503040 3.675115
v 0.041842 -0.156096 0.031864
vn 1.096751 -4.060961 2.944438
v 0.045448 -0.158771 0.032162
vn 3.328332 -2.759824 2.821468
v 0.046740 -0.157680 0.032418
vn 2.767061 5.438589 -0.616896
v 0.045428 -0.153621 0.027815
vn 4.216958 3.576702 -0.442087
v 0.047128 -0.154162 0.030082
vn 4.810946 1.603222 2.526908
v 0.047273 -0.155125 0.032484
vn 4.808538 -0.641646 2.399727
v 0.047417 -0.155998 0.032494
vn 3.460450 3.205229 2.190432
v 0.046925 -0.154312 0.032453
vn 4.032022 2.366759 -2.057760
v 0.047007 -0.154742 0.023651
vn -3.692988 -4.805061 -0.652574
v 0.036116 -0.153315 0.026871
vn -2.956731 -3.977272 3.827125
v 0.040768 -0.155070 0.031284
vn -3.590023 -4.574069 -1.544839
v 0.035206 -0.152494 0.026247
vn -3.373574 -4.737698 1.696686
v 0.030638 -0.148513 0.029745
vn -1.436768 -2.223049 5.509692
v 0.034129 -0.149604 0.031037
vn -1.733633 -3.114079 4.745553
v 0.029697 -0.146345 0.031504
vn -1.527524 -1.327516 5.367298
v 0.039204 -0.153590 0.031403
vn -3.914060 -2.287872 4.271098
v 0.041253 -0.155162 0.031573
vn 1.545789 3.902184 -2.283796
v 0.045345 -0.153466 0.023151
vn -1.135952 4.382051 -2.151526
v 0.042991 -0.153139 0.023729
vn 1.273576 1.900618 -4.757318
v 0.040228 -0.153038 0.024136
vn -2.043020 -2.516432 -4.795837
v 0.039223 -0.154114 0.024352
vn -0.997544 3.956140 -4.094240
v 0.041631 -0.153767 0.024370
vn -0.395306 -2.231179 5.553063
v 0.045332 -0.158272 0.032445
vn -2.067153 -2.013265 5.322106
v 0.042846 -0.156329 0.032309
vn -2.400743 0.604182 5.236904
v 0.041861 -0.154609 0.032238
vn 0.489725 -1.541465 5.707204
v 0.046251 -0.157071 0.032848
vn 1.845532 -0.290652 5.025261
v 0.046828 -0.155838 0.033049
vn 1.698101 5.783947 -0.071508
v 0.045098 -0.153095 0.030134
vn 1.463799 5.869920 -1.002495
v 0.041979 -0.153121 0.025815
vn 1.299659 4.942051 2.310966
v 0.045027 -0.153287 0.032253
vn 1.070479 1.581813 4.832948
v 0.046269 -0.154609 0.033086
vn -0.087409 2.036837 5.008881
v 0.044960 -0.153965 0.032936
vn -2.302818 -2.072233 4.747468
v 0.040733 -0.154665 0.031676
vn -1.949195 -3.611758 -4.440874
v 0.036295 -0.151246 0.023635
vn -1.216932 -3.791875 -4.704241
v 0.034328 -0.149039 0.022623
vn -2.526113 -5.149129 -2.178172
v 0.031123 -0.148249 0.023224
vn -3.706546 -4.647766 -0.665997
v 0.022450 -0.144488 0.025150
vn -2.862215 -4.201246 2.571245
v 0.024091 -0.144983 0.029802
vn -2.815223 -2.924434 4.685750
v 0.024504 -0.143701 0.030980
vn -1.357685 -1.824822 5.213347
v 0.026698 -0.143382 0.032451
vn 2.012568 2.319504 3.839257
v 0.036942 -0.149851 0.031154
vn 1.933830 2.458587 3.665405
v 0.039255 -0.151765 0.031301
vn 0.919139 -0.419808 5.972154
v 0.031091 -0.145153 0.031941
vn 0.708164 -0.266611 5.758615
v 0.028999 -0.143589 0.032526
vn -0.612379 2.182003 5.741115
v 0.041016 -0.153773 0.031621
vn 1.961463 3.360321 3.704961
v 0.040133 -0.152397 0.031163
vn 2.599011 1.968640 -4.347823
v 0.039453 -0.152398 0.024178
vn 1.517560 -0.668860 -5.662803
v 0.038072 -0.151669 0.023675
vn -1.464547 -0.288325 5.685353
v 0.042834 -0.155021 0.032637
vn -0.571547 4.572587 2.780711
v 0.043957 -0.153164 0.032141
vn 1.025699 4.589058 3.712303
v 0.041290 -0.153082 0.031174
vn 1.433051 6.031565 0.590107
v 0.041889 -0.152819 0.029758
vn 3.849448 4.823940 -1.009091
v 0.039666 -0.151693 0.026333
vn 3.378078 5.251634 0.186629
v 0.040491 -0.152158 0.028414
vn 1.842355 -0.472891 -4.707061
v 0.037517 -0.150824 0.023253
vn 0.652810 -1.836499 -5.759746
v 0.035026 -0.148776 0.022416
vn -2.490695 -4.850528 -2.455792
v 0.025950 -0.145708 0.022247
vn -2.023204 -3.509240 -4.427734
v 0.026432 -0.144650 0.020692
vn -0.468263 -2.594802 -5.465059
v 0.027899 -0.143713 0.019763
vn 1.907062 -1.139124 -5.464471
v 0.030697 -0.145038 0.020555
vn -3.483608 -4.485753 -1.920128
v 0.023096 -0.144582 0.023717
vn -4.161709 -4.279480 0.734656
v 0.022260 -0.144274 0.026532
vn -3.613719 0.465736 -0.927401
v 0.021725 -0.143665 0.025281
vn -4.409783 -3.121968 2.480333
v 0.022763 -0.143837 0.029493
vn -3.367593 -1.217519 4.509185
v 0.023191 -0.143413 0.030282
vn -3.329504 1.394456 1.859415
v 0.023287 -0.142539 0.030649
vn -2.112830 0.715969 4.483596
v 0.025266 -0.141782 0.032349
vn -4.201462 1.097008 2.932744
v 0.022842 -0.142992 0.030042
vn 3.405093 2.102408 4.344720
v 0.031606 -0.144696 0.031680
vn 4.483272 4.333813 0.353310
v 0.035391 -0.147483 0.027756
vn -2.283103 2.403898 2.057006
v 0.025885 -0.140365 0.031895
vn 1.721026 2.384533 4.792922
v 0.028902 -0.140905 0.032010
vn 4.141798 2.876126 -2.826163
v 0.038380 -0.151020 0.024021
vn 3.138485 1.331821 -4.584505
v 0.035493 -0.148440 0.022523
vn -3.559820 -0.814590 -3.852609
v 0.024849 -0.143319 0.020702
vn -3.451247 -3.794989 -3.353334
v 0.024106 -0.144565 0.022426
vn -2.430607 0.763213 -3.386916
v 0.026599 -0.141658 0.019136
vn 0.531633 -1.285390 -5.923368
v 0.027828 -0.141939 0.019129
vn 1.337018 0.468933 -5.509166
v 0.028713 -0.141439 0.019177
vn 4.497710 2.618365 -2.707945
v 0.032237 -0.144514 0.021828
vn 4.389704 0.536233 -4.243695
v 0.031037 -0.143576 0.020793
vn -3.462924 0.497553 -1.766435
v 0.022308 -0.143780 0.023850
vn -3.884132 1.112730 1.349807
v 0.022290 -0.143127 0.029225
vn -3.868742 1.084699 0.096282
v 0.021681 -0.143367 0.026439
vn -1.727668 5.714298 -1.007622
v 0.022246 -0.143092 0.026248
vn -1.715798 5.833866 -0.859869
v 0.022872 -0.143411 0.024109
vn -4.478094 3.652471 1.070958
v 0.025495 -0.140990 0.031920
vn -2.760556 5.480811 -0.976916
v 0.023564 -0.142427 0.030221
vn 4.867431 2.847035 2.407321
v 0.031018 -0.143025 0.031099
vn 5.124342 3.588531 0.009763
v 0.032010 -0.143764 0.025564
vn -1.755910 2.731631 1.056529
v 0.026673 -0.139062 0.031036
vn -5.378284 2.397634 -1.897041
v 0.027201 -0.140091 0.028956
vn 3.717539 3.245991 2.083128
v 0.029928 -0.140201 0.030709
vn -4.015262 0.556820 -3.182949
v 0.023179 -0.143721 0.022799
vn -3.915127 3.941176 -1.542941
v 0.024765 -0.142913 0.021105
vn -4.025835 3.701449 -2.125822
v 0.023956 -0.143309 0.021959
vn -0.202954 1.418472 -5.208243
v 0.027524 -0.141267 0.019029
vn -2.746745 3.733555 -4.181529
v 0.027231 -0.140816 0.019515
vn -3.192503 5.295869 -0.271084
v 0.025141 -0.142744 0.021534
vn -4.684011 3.370811 -1.866811
v 0.027102 -0.140541 0.019938
vn -4.012346 4.733593 0.347216
v 0.025775 -0.142193 0.022584
vn 0.810175 2.553481 -5.500009
v 0.028335 -0.140936 0.019303
vn 2.545901 3.320185 -3.898610
v 0.029364 -0.140067 0.020057
vn 3.553128 0.761337 -3.875786
v 0.030263 -0.141533 0.019880
vn 5.493273 2.360322 -1.591611
v 0.031675 -0.143486 0.021920
vn 5.025633 2.382968 -2.613218
v 0.030487 -0.141020 0.020748
vn -2.930894 5.439672 -0.538530
v 0.024329 -0.142994 0.022363
vn -2.531506 5.412577 0.140986
v 0.022463 -0.142856 0.028188
vn -1.306570 6.011567 -0.379305
v 0.023142 -0.142689 0.028722
vn -1.053964 5.900043 0.211324
v 0.023935 -0.143399 0.024226
vn -2.472705 5.054942 -0.566916
v 0.025609 -0.142895 0.026724
vn -4.827386 3.643491 -0.937918
v 0.026985 -0.141452 0.027056
vn -0.124969 3.587656 -0.061834
v 0.028139 -0.137968 0.025805
vn 5.168631 2.751806 -1.006404
v 0.030648 -0.140565 0.021587
vn 3.885931 3.881732 -1.172886
v 0.029793 -0.139213 0.021727
vn -0.972425 3.335402 0.919477
v 0.027503 -0.138392 0.029943
vn -5.338840 1.740154 -1.938779
v 0.027348 -0.138876 0.030055
vn -6.074261 1.125594 -0.326557
v 0.027341 -0.138843 0.029212
vn -5.556929 0.888418 -0.793019
v 0.027686 -0.139944 0.027790
vn -1.902973 3.312029 -1.640744
v 0.027787 -0.139134 0.020533
vn -5.248150 3.366076 0.540746
v 0.027639 -0.139610 0.021419
vn -3.306840 5.244564 0.557173
v 0.025357 -0.142883 0.025558
vn -3.931689 4.017200 -1.023564
v 0.026757 -0.141884 0.025218
vn -4.871844 2.708826 -0.978354
v 0.027695 -0.140739 0.024843
vn -5.355424 2.181595 0.138258
v 0.027996 -0.140171 0.024095
vn -0.938965 4.488572 -2.007674
v 0.028264 -0.138824 0.021097
vn -3.947762 3.661542 1.200043
v 0.026670 -0.142011 0.026134
vn -3.694761 4.038170 -0.435305
v 0.026376 -0.141866 0.025634
vn -5.020756 3.259221 -0.344192
v 0.026936 -0.141247 0.025740
vn -5.001354 2.278429 1.154404
v 0.027525 -0.140719 0.026152
vn -0.841333 3.404188 -0.563182
v 0.028424 -0.138185 0.022272
vn -5.471486 1.621253 -0.387481
v 0.027410 -0.138622 0.028317
vn -6.024243 1.121176 -0.719747
v 0.027568 -0.139834 0.025672
vn -5.648861 0.599628 -2.019935
v 0.027852 -0.140051 0.024930
vn -4.882782 2.060955 -0.005237
v 0.027275 -0.140445 0.025632
# 174 vertices, 0 vertices normals

f 1//1 2//2 3//3
f 3//3 4//4 1//1
f 2//2 1//1 5//5
f 6//6 5//5 1//1
f 4//4 6//6 1//1
f 7//7 3//3 2//2
f 2//2 5//5 8//8
f 2//2 9//9 7//7
f 2//2 10//10 9//9
f 2//2 11//11 10//10
f 2//2 8//8 11//11
f 7//7 4//4 3//3
f 7//7 12//12 4//4
f 12//12 13//13 4//4
f 4//4 13//13 6//6
f 14//14 8//8 5//5
f 5//5 6//6 14//14
f 6//6 15//15 14//14
f 6//6 16//16 15//15
f 13//13 16//16 6//6
f 7//7 9//9 17//17
f 18//18 12//12 7//7
f 7//7 17//17 18//18
f 14//14 19//19 8//8
f 8//8 19//19 11//11
f 20//20 17//17 9//9
f 21//21 9//9 10//10
f 20//20 9//9 21//21
f 22//22 10//10 11//11
f 22//22 23//23 10//10
f 10//10 23//23 21//21
f 11//11 19//19 24//24
f 25//25 11//11 24//24
f 22//22 11//11 25//25
f 13//13 12//12 26//26
f 27//27 26//26 12//12
f 27//27 12//12 28//28
f 18//18 28//28 12//12
f 16//16 13//13 29//29
f 29//29 13//13 26//26
f 14//14 30//30 19//19
f 14//14 31//31 30//30
f 14//14 32//32 33//33
f 14//14 34//34 32//32
f 14//14 15//15 34//34
f 35//35 14//14 33//33
f 36//36 31//31 14//14
f 35//35 36//36 14//14
f 34//34 15//15 37//37
f 37//37 15//15 16//16
f 37//37 16//16 38//38
f 29//29 38//38 16//16
f 17//17 20//20 39//39
f 18//18 17//17 39//39
f 18//18 39//39 40//40
f 18//18 40//40 28//28
f 19//19 30//30 24//24
f 20//20 41//41 39//39
f 42//42 20//20 21//21
f 42//42 41//41 20//20
f 42//42 21//21 23//23
f 22//22 25//25 43//43
f 22//22 44//44 23//23
f 43//43 44//44 22//22
f 23//23 45//45 46//46
f 47//47 23//23 44//44
f 47//47 45//45 23//23
f 42//42 23//23 46//46
f 25//25 24//24 48//48
f 30//30 48//48 24//24
f 48//48 43//43 25//25
f 26//26 49//49 29//29
f 49//49 26//26 27//27
f 28//28 50//50 27//27
f 27//27 51//51 49//49
f 51//51 27//27 52//52
f 27//27 53//53 54//54
f 52//52 27//27 54//54
f 27//27 55//55 53//53
f 27//27 50//50 55//55
f 56//56 50//50 28//28
f 56//56 28//28 40//40
f 29//29 49//49 38//38
f 30//30 31//31 48//48
f 36//36 48//48 31//31
f 32//32 35//35 33//33
f 57//57 35//35 32//32
f 32//32 37//37 58//58
f 37//37 32//32 34//34
f 58//58 57//57 32//32
f 57//57 36//36 35//35
f 57//57 48//48 36//36
f 59//59 37//37 60//60
f 38//38 60//60 37//37
f 61//61 37//37 59//59
f 61//61 58//58 37//37
f 60//60 38//38 49//49
f 39//39 41//41 62//62
f 40//40 39//39 62//62
f 40//40 63//63 64//64
f 40//40 62//62 63//63
f 56//56 40//40 64//64
f 42//42 65//65 41//41
f 62//62 41//41 65//65
f 42//42 46//46 66//66
f 65//65 42//42 66//66
f 67//67 43//43 68//68
f 44//44 43//43 67//67
f 43//43 58//58 68//68
f 43//43 48//48 57//57
f 43//43 57//57 58//58
f 69//69 44//44 67//67
f 47//47 44//44 69//69
f 45//45 66//66 46//46
f 45//45 47//47 70//70
f 66//66 45//45 70//70
f 47//47 71//71 70//70
f 71//71 47//47 69//69
f 60//60 49//49 51//51
f 50//50 72//72 55//55
f 64//64 72//72 50//50
f 56//56 64//64 50//50
f 73//73 60//60 51//51
f 74//74 73//73 51//51
f 74//74 51//51 75//75
f 75//75 51//51 52//52
f 76//76 52//52 77//77
f 76//76 75//75 52//52
f 52//52 78//78 77//77
f 78//78 52//52 79//79
f 79//79 52//52 54//54
f 80//80 54//54 53//53
f 53//53 81//81 80//80
f 53//53 55//55 81//81
f 54//54 80//80 82//82
f 83//83 79//79 54//54
f 82//82 83//83 54//54
f 72//72 84//84 55//55
f 55//55 84//84 85//85
f 55//55 85//85 81//81
f 68//68 58//58 61//61
f 86//86 68//68 59//59
f 59//59 68//68 61//61
f 60//60 86//86 59//59
f 87//87 60//60 73//73
f 60//60 87//87 86//86
f 62//62 65//65 63//63
f 88//88 64//64 63//63
f 63//63 65//65 66//66
f 63//63 66//66 70//70
f 71//71 63//63 70//70
f 63//63 71//71 88//88
f 64//64 88//88 71//71
f 64//64 71//71 89//89
f 72//72 64//64 84//84
f 64//64 89//89 90//90
f 84//84 64//64 90//90
f 68//68 91//91 67//67
f 90//90 67//67 91//91
f 67//67 89//89 69//69
f 67//67 90//90 89//89
f 68//68 86//86 92//92
f 68//68 93//93 91//91
f 92//92 93//93 68//68
f 71//71 69//69 89//89
f 73//73 94//94 87//87
f 94//94 73//73 74//74
f 74//74 95//95 94//94
f 75//75 96//96 74//74
f 97//97 98//98 74//74
f 98//98 99//99 74//74
f 99//99 95//95 74//74
f 96//96 97//97 74//74
f 75//75 100//100 96//96
f 75//75 76//76 100//100
f 101//101 76//76 77//77
f 102//102 76//76 101//101
f 100//100 76//76 102//102
f 101//101 77//77 103//103
f 104//104 77//77 78//78
f 104//104 103//103 77//77
f 105//105 78//78 106//106
f 78//78 105//105 107//107
f 104//104 78//78 107//107
f 78//78 79//79 106//106
f 83//83 106//106 79//79
f 82//82 80//80 108//108
f 80//80 93//93 109//109
f 93//93 80//80 81//81
f 80//80 109//109 108//108
f 93//93 81//81 85//85
f 83//83 82//82 108//108
f 106//106 83//83 110//110
f 83//83 108//108 111//111
f 83//83 111//111 110//110
f 84//84 90//90 85//85
f 93//93 85//85 91//91
f 91//91 85//85 90//90
f 86//86 112//112 92//92
f 86//86 87//87 112//112
f 94//94 112//112 87//87
f 92//92 112//112 109//109
f 93//93 92//92 109//109
f 94//94 113//113 112//112
f 94//94 95//95 113//113
f 95//95 99//99 113//113
f 114//114 96//96 115//115
f 97//97 96//96 114//114
f 96//96 100//100 115//115
f 97//97 114//114 98//98
f 98//98 116//116 117//117
f 116//116 98//98 114//114
f 117//117 118//118 98//98
f 98//98 118//118 99//99
f 119//119 99//99 120//120
f 120//120 99//99 118//118
f 119//119 113//113 99//99
f 102//102 121//121 100//100
f 100//100 121//121 115//115
f 101//101 103//103 122//122
f 122//122 123//123 101//101
f 101//101 123//123 102//102
f 102//102 123//123 124//124
f 124//124 125//125 102//102
f 125//125 121//121 102//102
f 122//122 103//103 104//104
f 104//104 107//107 122//122
f 106//106 126//126 105//105
f 107//107 105//105 127//127
f 127//127 105//105 126//126
f 110//110 126//126 106//106
f 122//122 107//107 127//127
f 108//108 109//109 128//128
f 108//108 128//128 111//111
f 109//109 129//129 128//128
f 119//119 129//129 109//109
f 109//109 112//112 119//119
f 110//110 111//111 130//130
f 126//126 110//110 131//131
f 110//110 130//130 131//131
f 132//132 111//111 128//128
f 111//111 132//132 130//130
f 113//113 119//119 112//112
f 115//115 133//133 114//114
f 114//114 134//134 116//116
f 114//114 133//133 135//135
f 114//114 135//135 134//134
f 121//121 133//133 115//115
f 117//117 116//116 136//136
f 137//137 136//136 116//116
f 134//134 138//138 116//116
f 137//137 116//116 139//139
f 116//116 140//140 139//139
f 116//116 138//138 140//140
f 141//141 118//118 117//117
f 117//117 136//136 141//141
f 118//118 142//142 143//143
f 142//142 118//118 141//141
f 118//118 143//143 120//120
f 144//144 119//119 120//120
f 129//129 119//119 144//144
f 145//145 144//144 120//120
f 145//145 120//120 143//143
f 146//146 133//133 121//121
f 125//125 146//146 121//121
f 123//123 122//122 147//147
f 127//127 148//148 122//122
f 147//147 122//122 148//148
f 147//147 124//124 123//123
f 148//148 124//124 147//147
f 124//124 149//149 125//125
f 150//150 149//149 124//124
f 150//150 124//124 148//148
f 125//125 149//149 146//146
f 127//127 126//126 150//150
f 126//126 151//151 150//150
f 126//126 131//131 151//151
f 150//150 148//148 127//127
f 132//132 128//128 129//129
f 129//129 152//152 132//132
f 129//129 144//144 153//153
f 129//129 154//154 152//152
f 154//154 129//129 153//153
f 155//155 130//130 132//132
f 156//156 130//130 155//155
f 131//131 130//130 156//156
f 131//131 156//156 157//157
f 157//157 158//158 131//131
f 131//131 158//158 151//151
f 152//152 155//155 132//132
f 146//146 135//135 133//133
f 138//138 134//134 135//135
f 146//146 138//138 135//135
f 159//159 141//141 136//136
f 137//137 159//159 136//136
f 137//137 139//139 159//159
f 140//140 138//138 146//146
f 159//159 139//139 160//160
f 140//140 160//160 139//139
f 161//161 140//140 146//146
f 161//161 162//162 140//140
f 140//140 163//163 164//164
f 140//140 164//164 160//160
f 140//140 162//162 163//163
f 159//159 142//142 141//141
f 154//154 143//143 142//142
f 154//154 142//142 165//165
f 142//142 159//159 165//165
f 154//154 145//145 143//143
f 145//145 153//153 144//144
f 145//145 154//154 153//153
f 161//161 146//146 149//149
f 161//161 149//149 150//150
f 150//150 166//166 167//167
f 166//166 150//150 151//151
f 167//167 161//161 150//150
f 168//168 151//151 169//169
f 158//158 169//169 151//151
f 168//168 166//166 151//151
f 152//152 154//154 170//170
f 152//152 170//170 171//171
f 171//171 155//155 152//152
f 154//154 165//165 170//170
f 157//157 155//155 171//171
f 155//155 157//157 156//156
f 158//158 157//157 171//171
f 171//171 172//172 158//158
f 169//169 158//158 172//172
f 160//160 165//165 159//159
f 170//170 165//165 160//160
f 170//170 160//160 164//164
f 161//161 167//167 162//162
f 168//168 162//162 167//167
f 162//162 168//168 163//163
f 163//163 173//173 164//164
f 168//168 174//174 163//163
f 173//173 163//163 174//174
f 173//173 170//170 164//164
f 168//168 167//167 166//166
f 168//168 169//169 174//174
f 169//169 172//172 174//174
f 171//171 170//170 172//172
f 170//170 173//173 172//172
f 174//174 172//172 173//173
# 344 faces, 0 coords texture

# End of File
