####
#
# OBJ File Generated by Meshlab
#
####
# Object thumb_distal_rvs.obj
#
# Vertices: 174
# Faces: 344
#
####
vn -2.085922 -2.051308 5.306005
v 0.025451 -0.101773 0.050942
vn -0.888201 -2.235958 5.126472
v 0.026316 -0.106382 0.049673
vn 1.218923 -2.152797 5.609235
v 0.027920 -0.101946 0.051043
vn 0.954363 -2.196603 5.567400
v 0.027705 -0.101070 0.051429
vn -2.745416 -2.475977 4.877538
v 0.024755 -0.099559 0.051584
vn -4.801867 -1.540927 3.446777
v 0.023682 -0.101505 0.049606
vn -3.316400 -2.458200 4.618653
v 0.024799 -0.108247 0.047788
vn 0.939964 -0.387859 5.889320
v 0.029192 -0.103025 0.050270
vn 3.274193 -1.023927 5.073724
v 0.029192 -0.102332 0.050326
vn -2.532435 -2.975862 4.893525
v 0.026014 -0.109576 0.047623
vn -1.089861 -2.378431 5.669332
v 0.027045 -0.108637 0.048432
vn 3.999238 0.098477 3.386337
v 0.028633 -0.101229 0.050980
vn -1.338486 -3.427042 5.039520
v 0.025620 -0.097628 0.052933
vn 1.991487 -3.227923 4.755937
v 0.027938 -0.097404 0.053164
vn 4.031473 -1.744970 4.417725
v 0.028121 -0.100314 0.051427
vn -3.405193 -2.945715 4.149719
v 0.024792 -0.097531 0.052647
vn -5.758157 -1.486231 1.668661
v 0.022824 -0.097632 0.049331
vn -5.656945 -0.890985 2.209778
v 0.022943 -0.099586 0.048996
vn -4.785942 -1.268273 3.600653
v 0.023510 -0.104471 0.048229
vn -5.892431 -0.270793 2.069168
v 0.022933 -0.101953 0.047359
vn -2.289836 -4.331588 3.437994
v 0.025824 -0.110735 0.046712
vn -4.023092 -2.762240 1.945559
v 0.023785 -0.109766 0.046153
vn 1.300525 -1.668222 5.142761
v 0.029206 -0.106076 0.049564
vn 2.459413 -0.646353 5.359118
v 0.029672 -0.103325 0.050122
vn 4.123492 2.818872 2.077414
v 0.029645 -0.102324 0.049898
vn 3.757199 1.428515 3.985146
v 0.029920 -0.102912 0.049955
vn 4.667629 1.851213 1.982233
v 0.029040 -0.101621 0.050531
vn -0.355837 -3.127438 4.477255
v 0.027517 -0.110166 0.048081
vn 5.665508 -0.373329 2.078074
v 0.028464 -0.100255 0.051052
vn 5.169995 2.406833 -1.881410
v 0.028586 -0.100972 0.049943
vn 5.435190 0.191403 -2.937466
v 0.028288 -0.099939 0.049806
vn 6.157985 -0.343229 -0.991279
v 0.028477 -0.100015 0.050491
vn -0.439901 -4.595639 4.051414
v 0.026743 -0.095520 0.055213
vn -3.008577 -4.053217 3.669295
v 0.024598 -0.095133 0.054405
vn 1.989088 -4.624687 3.681893
v 0.027382 -0.095423 0.055107
vn 4.518525 -3.096813 2.626637
v 0.029064 -0.096641 0.052735
vn -3.489745 -4.845640 1.785401
v 0.021338 -0.093441 0.052917
vn -5.047465 -3.515473 0.924909
v 0.022159 -0.094927 0.051124
vn -6.178186 -0.420488 0.795525
v 0.022830 -0.098707 0.048899
vn -5.728162 -0.493940 -1.779072
v 0.022794 -0.097659 0.048761
vn -5.687383 0.489297 -0.981264
v 0.022846 -0.099534 0.048442
vn -5.481021 -0.807895 0.663848
v 0.022394 -0.105426 0.045982
vn -5.856213 0.289722 1.199248
v 0.022481 -0.102246 0.046406
vn -4.090140 2.230387 -1.980627
v 0.022894 -0.100903 0.046984
vn -5.292189 2.303155 0.177838
v 0.022726 -0.101354 0.046614
vn 0.513328 -3.946844 -0.748708
v 0.026933 -0.111572 0.045811
vn -0.522830 -3.696783 -1.445241
v 0.025959 -0.111438 0.045320
vn -1.623173 -2.904719 -2.023462
v 0.024366 -0.110644 0.044611
vn -3.291279 -1.892157 -2.911478
v 0.023970 -0.110009 0.044498
vn 4.830321 -1.515442 2.030504
v 0.030022 -0.107532 0.048229
vn 3.462716 -2.394187 1.176188
v 0.029454 -0.109990 0.047418
vn 4.666554 0.288622 2.211231
v 0.030356 -0.103416 0.049561
vn 4.397844 3.986917 -1.790524
v 0.028979 -0.101732 0.049817
vn 2.639751 4.695775 -2.478282
v 0.029567 -0.102375 0.048955
vn 4.413843 3.832608 0.579679
v 0.029975 -0.102588 0.049430
vn 2.054057 -3.402797 0.425674
v 0.028526 -0.111218 0.046709
vn 2.460887 4.068093 -4.013266
v 0.028632 -0.102113 0.048872
vn 2.984974 2.004942 -5.076135
v 0.026543 -0.101888 0.047540
vn 5.603418 -0.647068 -2.439629
v 0.029013 -0.096854 0.050868
vn 4.617454 0.127020 -4.208949
v 0.028791 -0.095703 0.050528
vn 5.629650 -2.682629 0.354411
v 0.029304 -0.096396 0.052088
vn -2.147866 -5.434943 2.186558
v 0.025022 -0.094366 0.056073
vn 1.532090 -5.188365 2.680552
v 0.027526 -0.094861 0.056065
vn 2.520402 -5.010254 2.741849
v 0.028638 -0.094163 0.056062
vn 4.186613 -3.695735 1.507545
v 0.030628 -0.093972 0.054888
vn 5.439892 -2.141187 -1.078498
v 0.030724 -0.093992 0.053056
vn -3.465699 -3.605688 3.061187
v 0.021318 -0.092303 0.056279
vn -4.137777 -3.573651 0.301261
v 0.019641 -0.092606 0.052612
vn -4.066250 -4.645582 0.847292
v 0.021053 -0.093473 0.051935
vn -2.566274 -4.794452 2.627168
v 0.024287 -0.093765 0.057219
vn -5.747063 -2.191671 -1.053371
v 0.022145 -0.094789 0.049621
vn -4.440405 -4.278900 -1.021433
v 0.020501 -0.092987 0.051417
vn -4.231130 -0.118545 -4.587521
v 0.023219 -0.098473 0.048258
vn -2.995141 -0.500384 -4.783221
v 0.023415 -0.097091 0.047721
vn -1.976638 2.907796 -4.115725
v 0.023276 -0.099818 0.047412
vn -3.469220 1.668800 -4.813797
v 0.023314 -0.098985 0.048139
vn -4.228901 0.012495 -3.377380
v 0.022668 -0.105213 0.044837
vn -3.651681 1.895182 -2.037567
v 0.022512 -0.101761 0.045896
vn 1.464935 3.777762 -4.006131
v 0.024000 -0.100504 0.046970
vn 2.638340 3.606602 -4.227742
v 0.023812 -0.101777 0.045909
vn -0.285368 4.051748 -2.520617
v 0.023056 -0.101288 0.046010
vn 2.275713 -2.070692 -5.265766
v 0.026710 -0.110792 0.045208
vn 3.539268 -2.472428 -3.718591
v 0.028394 -0.110991 0.046259
vn 0.729814 -1.042770 -5.773942
v 0.024845 -0.109526 0.044239
vn -0.732816 0.182133 -4.977820
v 0.024002 -0.107615 0.044022
vn 4.480277 0.544783 -2.033857
v 0.030444 -0.104302 0.048393
vn 4.626060 -0.493695 -2.679305
v 0.029740 -0.108724 0.046972
vn 4.287919 2.770818 -1.476901
v 0.030198 -0.102846 0.048937
vn 2.593865 3.076273 -4.314061
v 0.029744 -0.102903 0.048458
vn 2.821995 2.090645 -5.179870
v 0.026779 -0.104608 0.046292
vn 0.878962 -0.236853 -6.059577
v 0.024230 -0.094074 0.047579
vn 3.406768 0.711015 -5.147037
v 0.026286 -0.094085 0.048465
vn 2.051107 2.370423 -5.310061
v 0.024737 -0.100811 0.047252
vn -0.374528 0.514105 -6.213292
v 0.024932 -0.099497 0.047566
vn 5.325178 -0.657855 -2.993845
v 0.030717 -0.093136 0.052567
vn 3.671194 1.014351 -4.953758
v 0.029464 -0.091726 0.051393
vn 4.523848 0.246974 -4.096050
v 0.030189 -0.092938 0.051808
vn -0.796056 -4.537485 3.285386
v 0.026167 -0.094267 0.057636
vn 1.001523 -5.080396 2.760581
v 0.027114 -0.094424 0.057383
vn 3.341711 -3.245228 3.004236
v 0.030301 -0.093507 0.056230
vn 2.853848 -1.355641 3.991328
v 0.029624 -0.093124 0.057162
vn 3.763429 -0.258679 2.108483
v 0.031188 -0.092923 0.055571
vn 5.163123 0.773585 -0.498929
v 0.031316 -0.092176 0.053689
vn -1.652897 1.241218 0.420683
v 0.018875 -0.090734 0.053415
vn -3.622230 -2.037642 4.475737
v 0.020961 -0.091237 0.056647
vn -1.297137 1.121145 0.772342
v 0.019915 -0.090701 0.055809
vn -0.294274 1.432462 1.149942
v 0.022187 -0.090894 0.057510
vn -1.326501 -2.359115 4.731744
v 0.024952 -0.093186 0.058348
vn -5.058689 -3.290179 -1.398627
v 0.019533 -0.092056 0.051870
vn -4.573144 -3.428655 -0.988565
v 0.021656 -0.093522 0.049579
vn -4.924079 -3.793559 0.034130
v 0.019770 -0.091929 0.050222
vn -5.540961 -2.288952 -1.131471
v 0.019053 -0.091139 0.051318
vn -1.648232 1.177868 -5.651216
v 0.023843 -0.099092 0.047850
vn -2.529725 -1.574736 -5.284293
v 0.022460 -0.093861 0.047784
vn -4.716938 -3.103867 -2.369531
v 0.021965 -0.093831 0.048287
vn -0.302424 1.532933 -4.995637
v 0.023363 -0.103714 0.044718
vn 0.727051 2.828449 -4.794059
v 0.023398 -0.101964 0.045502
vn 2.806883 0.195791 -5.341985
v 0.026995 -0.109055 0.045002
vn -1.734225 -2.021143 -5.508565
v 0.022139 -0.093072 0.047617
vn 1.380909 0.925065 -5.166138
v 0.023665 -0.091626 0.047176
vn 4.046191 1.605326 -3.561408
v 0.030376 -0.091301 0.052097
vn 4.366607 0.218256 -4.456651
v 0.030222 -0.092198 0.052041
vn 2.021317 2.205155 -4.833283
v 0.023567 -0.090186 0.047641
vn 0.903218 4.516804 -2.881859
v 0.023355 -0.089300 0.048267
vn 2.411617 1.636548 -5.483425
v 0.023498 -0.090917 0.047514
vn 0.691799 0.786875 5.215487
v 0.026181 -0.092517 0.058502
vn 1.293558 -2.887957 4.512639
v 0.027494 -0.093705 0.058125
vn 3.607530 1.282089 2.687506
v 0.030378 -0.092709 0.056512
vn 2.748326 3.398685 2.680956
v 0.030762 -0.091799 0.055310
vn 1.880043 0.441245 5.319125
v 0.027649 -0.092853 0.058285
vn 4.940437 2.955264 -1.521633
v 0.030550 -0.090913 0.052838
vn 1.810162 5.713215 -1.140596
v 0.022529 -0.091355 0.056907
vn -3.817110 1.017251 0.238177
v 0.018776 -0.090817 0.052340
vn 0.664202 6.065244 0.403805
v 0.019440 -0.090868 0.053587
vn -0.757948 1.948465 1.257921
v 0.020911 -0.090743 0.056727
vn -0.191196 2.623537 3.167518
v 0.024810 -0.091846 0.058402
vn -4.268861 -4.097608 0.170468
v 0.019781 -0.092236 0.049259
vn -5.580623 -1.599742 -0.374785
v 0.019391 -0.091595 0.049131
vn -5.738354 -2.197721 -0.876816
v 0.019414 -0.091213 0.050253
vn -3.666116 2.770528 0.141572
v 0.019381 -0.090515 0.049408
vn -3.435971 -3.624146 -3.757000
v 0.021571 -0.093113 0.048024
vn -3.144506 -2.178614 -4.239434
v 0.020201 -0.091942 0.047845
vn -0.164796 0.225297 -5.921470
v 0.022692 -0.091499 0.047169
vn -1.766411 -0.908288 -5.715355
v 0.020923 -0.091707 0.047475
vn 3.556690 4.438635 -1.577012
v 0.030102 -0.090363 0.052892
vn 0.857983 3.671858 0.227905
v 0.027926 -0.089509 0.051657
vn -0.843927 3.521894 -4.171343
v 0.021888 -0.089825 0.047701
vn -2.205541 3.945922 -0.894946
v 0.020296 -0.089766 0.048597
vn -1.119422 5.165367 1.199143
v 0.022704 -0.089217 0.048949
vn -0.247870 3.694105 0.913733
v 0.025057 -0.088958 0.050196
vn 1.349118 3.947850 3.368962
v 0.027561 -0.092240 0.058043
vn -0.094597 5.449144 2.961826
v 0.029427 -0.091397 0.054714
vn 2.760022 3.652285 1.508000
v 0.030390 -0.090536 0.053651
vn 0.951509 6.129065 0.686221
v 0.019995 -0.090737 0.052975
vn 0.185087 6.061548 0.686737
v 0.023671 -0.091559 0.053237
vn 0.208680 6.212397 0.597991
v 0.024236 -0.091572 0.053978
vn -1.223237 5.128511 1.157445
v 0.019291 -0.090567 0.052759
vn -4.098314 -3.587964 -1.963297
v 0.019826 -0.092119 0.048468
vn -4.864156 -0.419388 -2.727592
v 0.019548 -0.091405 0.048352
vn -4.473856 2.295310 -2.977975
v 0.019653 -0.090652 0.048506
vn -2.226261 3.988479 3.552871
v 0.024626 -0.090577 0.050771
vn -1.543058 5.196491 2.604944
v 0.024694 -0.090976 0.051511
vn -3.388705 0.945866 -4.730288
v 0.020045 -0.091214 0.047877
vn -1.970447 1.537849 -5.360302
v 0.020868 -0.090929 0.047514
vn 0.596995 4.952921 1.558757
v 0.029722 -0.090139 0.053128
vn -1.431056 4.602767 3.443031
v 0.027255 -0.090847 0.052434
vn -0.281567 4.430219 1.810034
v 0.026362 -0.089166 0.051050
vn -1.955729 3.521010 4.765445
v 0.026067 -0.090046 0.051576
vn -0.723398 5.911550 1.599640
v 0.025941 -0.091542 0.053593
vn -0.059789 5.590731 1.497621
v 0.024773 -0.091315 0.053203
vn -1.143119 5.624916 0.822520
v 0.024508 -0.091452 0.052767
vn 0.177086 5.489681 2.257809
v 0.025249 -0.091493 0.053228
vn -0.914149 5.774189 1.735337
v 0.025179 -0.091088 0.052529
vn -1.109539 4.902298 3.316520
v 0.025993 -0.090982 0.052231
# 174 vertices, 0 vertices normals

f 1//1 2//2 3//3
f 1//1 4//4 5//5
f 6//6 1//1 5//5
f 3//3 4//4 1//1
f 1//1 7//7 2//2
f 6//6 7//7 1//1
f 8//8 9//9 2//2
f 2//2 10//10 11//11
f 9//9 3//3 2//2
f 11//11 8//8 2//2
f 2//2 7//7 10//10
f 9//9 12//12 3//3
f 4//4 3//3 12//12
f 13//13 4//4 14//14
f 13//13 5//5 4//4
f 4//4 12//12 15//15
f 14//14 4//4 15//15
f 16//16 5//5 13//13
f 5//5 16//16 6//6
f 17//17 6//6 16//16
f 17//17 18//18 6//6
f 19//19 6//6 20//20
f 18//18 20//20 6//6
f 6//6 19//19 7//7
f 10//10 7//7 21//21
f 22//22 21//21 7//7
f 19//19 22//22 7//7
f 8//8 11//11 23//23
f 24//24 8//8 23//23
f 8//8 25//25 9//9
f 24//24 26//26 8//8
f 26//26 25//25 8//8
f 27//27 9//9 25//25
f 27//27 12//12 9//9
f 10//10 21//21 28//28
f 28//28 11//11 10//10
f 28//28 23//23 11//11
f 15//15 12//12 29//29
f 30//30 12//12 27//27
f 31//31 12//12 30//30
f 32//32 29//29 12//12
f 32//32 12//12 31//31
f 33//33 13//13 14//14
f 34//34 16//16 13//13
f 34//34 13//13 33//33
f 14//14 35//35 33//33
f 36//36 35//35 14//14
f 36//36 14//14 15//15
f 29//29 36//36 15//15
f 16//16 37//37 38//38
f 34//34 37//37 16//16
f 17//17 16//16 38//38
f 39//39 17//17 40//40
f 18//18 17//17 39//39
f 40//40 17//17 38//38
f 20//20 18//18 41//41
f 41//41 18//18 39//39
f 42//42 19//19 43//43
f 19//19 42//42 22//22
f 20//20 43//43 19//19
f 44//44 20//20 41//41
f 45//45 43//43 20//20
f 45//45 20//20 44//44
f 46//46 28//28 21//21
f 22//22 47//47 21//21
f 46//46 21//21 47//47
f 47//47 22//22 48//48
f 49//49 48//48 22//22
f 42//42 49//49 22//22
f 50//50 23//23 51//51
f 52//52 23//23 50//50
f 24//24 23//23 52//52
f 51//51 23//23 28//28
f 24//24 52//52 26//26
f 27//27 25//25 53//53
f 53//53 25//25 54//54
f 55//55 54//54 25//25
f 26//26 55//55 25//25
f 52//52 55//55 26//26
f 53//53 30//30 27//27
f 28//28 46//46 56//56
f 51//51 28//28 56//56
f 36//36 29//29 32//32
f 53//53 57//57 30//30
f 58//58 30//30 57//57
f 30//30 58//58 31//31
f 59//59 31//31 60//60
f 60//60 31//31 58//58
f 31//31 59//59 32//32
f 36//36 32//32 61//61
f 61//61 32//32 59//59
f 33//33 62//62 34//34
f 63//63 33//33 35//35
f 33//33 63//63 62//62
f 62//62 37//37 34//34
f 63//63 35//35 64//64
f 64//64 35//35 65//65
f 35//35 36//36 65//65
f 65//65 36//36 66//66
f 36//36 61//61 66//66
f 37//37 67//67 68//68
f 69//69 38//38 37//37
f 68//68 69//69 37//37
f 70//70 67//67 37//37
f 70//70 37//37 62//62
f 71//71 40//40 38//38
f 72//72 38//38 69//69
f 71//71 38//38 72//72
f 40//40 41//41 39//39
f 41//41 40//40 73//73
f 40//40 71//71 74//74
f 40//40 74//74 73//73
f 75//75 44//44 41//41
f 41//41 73//73 76//76
f 41//41 76//76 75//75
f 77//77 49//49 42//42
f 43//43 77//77 42//42
f 43//43 45//45 78//78
f 43//43 78//78 77//77
f 44//44 75//75 79//79
f 44//44 79//79 80//80
f 81//81 45//45 44//44
f 81//81 44//44 80//80
f 78//78 45//45 81//81
f 82//82 83//83 46//46
f 83//83 56//56 46//46
f 46//46 47//47 82//82
f 84//84 82//82 47//47
f 84//84 47//47 48//48
f 48//48 49//49 84//84
f 77//77 85//85 49//49
f 84//84 49//49 85//85
f 52//52 50//50 86//86
f 50//50 87//87 86//86
f 87//87 50//50 51//51
f 87//87 51//51 56//56
f 88//88 52//52 86//86
f 52//52 88//88 55//55
f 57//57 53//53 54//54
f 55//55 88//88 54//54
f 88//88 89//89 54//54
f 89//89 57//57 54//54
f 87//87 56//56 83//83
f 89//89 90//90 57//57
f 90//90 58//58 57//57
f 58//58 91//91 92//92
f 92//92 60//60 58//58
f 93//93 58//58 90//90
f 94//94 91//91 58//58
f 94//94 58//58 93//93
f 66//66 61//61 59//59
f 66//66 59//59 60//60
f 66//66 60//60 95//95
f 92//92 96//96 60//60
f 97//97 60//60 96//96
f 60//60 97//97 95//95
f 63//63 98//98 62//62
f 98//98 70//70 62//62
f 63//63 64//64 99//99
f 63//63 99//99 98//98
f 100//100 101//101 64//64
f 99//99 64//64 101//101
f 65//65 100//100 64//64
f 100//100 65//65 102//102
f 66//66 103//103 65//65
f 102//102 65//65 103//103
f 103//103 66//66 95//95
f 104//104 68//68 67//67
f 105//105 106//106 67//67
f 67//67 106//106 104//104
f 67//67 107//107 105//105
f 107//107 67//67 108//108
f 108//108 67//67 70//70
f 72//72 69//69 68//68
f 68//68 109//109 72//72
f 109//109 68//68 104//104
f 108//108 70//70 98//98
f 71//71 72//72 110//110
f 71//71 110//110 74//74
f 111//111 72//72 112//112
f 109//109 112//112 72//72
f 110//110 72//72 111//111
f 76//76 73//73 113//113
f 74//74 113//113 73//73
f 114//114 91//91 74//74
f 114//114 74//74 115//115
f 110//110 115//115 74//74
f 91//91 94//94 74//74
f 113//113 74//74 94//94
f 76//76 113//113 75//75
f 93//93 75//75 113//113
f 75//75 93//93 79//79
f 77//77 116//116 85//85
f 78//78 116//116 77//77
f 78//78 117//117 116//116
f 117//117 78//78 81//81
f 93//93 90//90 79//79
f 79//79 90//90 80//80
f 90//90 117//117 80//80
f 117//117 81//81 80//80
f 82//82 118//118 83//83
f 84//84 118//118 82//82
f 83//83 118//118 87//87
f 84//84 85//85 118//118
f 90//90 85//85 116//116
f 90//90 118//118 85//85
f 89//89 86//86 90//90
f 86//86 87//87 118//118
f 118//118 90//90 86//86
f 88//88 86//86 89//89
f 116//116 117//117 90//90
f 119//119 91//91 114//114
f 91//91 119//119 120//120
f 120//120 92//92 91//91
f 96//96 92//92 120//120
f 113//113 94//94 93//93
f 103//103 95//95 121//121
f 122//122 121//121 95//95
f 97//97 122//122 95//95
f 122//122 96//96 121//121
f 123//123 124//124 96//96
f 125//125 123//123 96//96
f 125//125 96//96 120//120
f 96//96 124//124 121//121
f 97//97 96//96 122//122
f 126//126 98//98 127//127
f 108//108 98//98 126//126
f 127//127 98//98 99//99
f 127//127 99//99 101//101
f 101//101 100//100 128//128
f 100//100 102//102 129//129
f 100//100 129//129 128//128
f 128//128 130//130 101//101
f 101//101 130//130 127//127
f 102//102 103//103 129//129
f 131//131 129//129 103//103
f 103//103 121//121 131//131
f 132//132 104//104 106//106
f 109//109 104//104 133//133
f 134//134 104//104 132//132
f 133//133 104//104 134//134
f 107//107 135//135 105//105
f 135//135 106//106 105//105
f 132//132 106//106 135//135
f 107//107 108//108 136//136
f 132//132 135//135 107//107
f 136//136 132//132 107//107
f 136//136 108//108 126//126
f 112//112 109//109 133//133
f 137//137 110//110 111//111
f 110//110 137//137 115//115
f 111//111 138//138 137//137
f 112//112 139//139 111//111
f 139//139 138//138 111//111
f 133//133 140//140 112//112
f 139//139 112//112 140//140
f 119//119 114//114 141//141
f 114//114 115//115 141//141
f 141//141 115//115 137//137
f 141//141 142//142 119//119
f 143//143 120//120 119//119
f 143//143 119//119 144//144
f 119//119 142//142 144//144
f 120//120 143//143 125//125
f 145//145 131//131 121//121
f 145//145 121//121 146//146
f 124//124 146//146 121//121
f 147//147 123//123 143//143
f 143//143 123//123 125//125
f 123//123 147//147 124//124
f 148//148 124//124 147//147
f 149//149 124//124 148//148
f 149//149 150//150 124//124
f 146//146 124//124 150//150
f 126//126 127//127 130//130
f 136//136 126//126 130//130
f 128//128 151//151 130//130
f 128//128 129//129 152//152
f 128//128 152//152 151//151
f 153//153 152//152 129//129
f 153//153 129//129 131//131
f 151//151 136//136 130//130
f 145//145 153//153 131//131
f 154//154 134//134 132//132
f 154//154 132//132 155//155
f 132//132 136//136 156//156
f 156//156 155//155 132//132
f 134//134 157//157 133//133
f 140//140 133//133 157//157
f 134//134 154//154 157//157
f 136//136 151//151 156//156
f 137//137 138//138 158//158
f 141//141 137//137 158//158
f 139//139 140//140 138//138
f 138//138 140//140 159//159
f 138//138 159//159 158//158
f 148//148 160//160 140//140
f 160//160 159//159 140//140
f 157//157 154//154 140//140
f 140//140 149//149 148//148
f 140//140 161//161 149//149
f 140//140 154//154 155//155
f 162//162 140//140 155//155
f 161//161 140//140 162//162
f 142//142 141//141 158//158
f 158//158 159//159 142//142
f 163//163 142//142 159//159
f 163//163 144//144 142//142
f 164//164 143//143 144//144
f 147//147 143//143 164//164
f 164//164 144//144 163//163
f 153//153 145//145 165//165
f 165//165 145//145 146//146
f 166//166 165//165 146//146
f 167//167 146//146 150//150
f 146//146 167//167 168//168
f 168//168 166//166 146//146
f 148//148 147//147 164//164
f 148//148 163//163 160//160
f 148//148 164//164 163//163
f 150//150 149//149 161//161
f 167//167 150//150 161//161
f 166//166 169//169 151//151
f 151//151 152//152 166//166
f 169//169 156//156 151//151
f 165//165 152//152 153//153
f 152//152 165//165 166//166
f 155//155 156//156 170//170
f 171//171 155//155 170//170
f 162//162 155//155 171//171
f 169//169 172//172 156//156
f 172//172 170//170 156//156
f 163//163 159//159 160//160
f 167//167 161//161 162//162
f 162//162 171//171 173//173
f 168//168 167//167 162//162
f 174//174 168//168 162//162
f 174//174 162//162 173//173
f 174//174 169//169 166//166
f 166//166 168//168 174//174
f 172//172 169//169 173//173
f 169//169 174//174 173//173
f 170//170 172//172 173//173
f 171//171 170//170 173//173
# 344 faces, 0 coords texture

# End of File
