####
#
# OBJ File Generated by Meshlab
#
####
# Object trapezium_lvs.obj
#
# Vertices: 105
# Faces: 206
#
####
vn -3.036132 -2.205223 -4.192907
v -0.013378 -0.030132 -0.023299
vn -4.810452 -1.789617 -2.422808
v -0.014759 -0.029577 -0.021955
vn -3.801973 -0.127326 -4.699127
v -0.013478 -0.028482 -0.023544
vn -2.321568 -1.916183 -5.308426
v -0.010990 -0.026772 -0.025112
vn -2.546575 -3.900878 0.702971
v -0.014058 -0.031391 -0.020388
vn -1.621432 -3.927159 0.239724
v -0.010899 -0.033452 -0.022304
vn 1.088841 -2.509270 -5.467041
v -0.009159 -0.029500 -0.023953
vn 0.329779 -2.163166 -4.049532
v -0.010059 -0.032760 -0.023660
vn -5.147837 0.938851 -2.174751
v -0.014960 -0.027568 -0.021816
vn -5.645357 -0.722986 0.029407
v -0.015345 -0.029030 -0.019783
vn -4.228251 0.428559 -4.591843
v -0.012625 -0.026658 -0.023891
vn -3.095527 -2.740198 -4.561522
v -0.010508 -0.025801 -0.025726
vn -0.348122 -3.748358 -4.914919
v -0.008968 -0.026663 -0.025670
vn -1.355465 -0.977575 2.024791
v -0.014891 -0.029595 -0.016850
vn 0.758360 -2.821444 5.253436
v -0.010521 -0.029222 -0.018194
vn 0.169714 -3.585941 -0.154896
v -0.009873 -0.033762 -0.022566
vn 1.716044 -3.266011 -0.115698
v -0.008902 -0.033417 -0.022277
vn 1.322787 -4.615350 -3.937814
v -0.006700 -0.026355 -0.025429
vn 2.851728 -4.691747 -2.915077
v -0.002167 -0.026926 -0.022370
vn 2.733326 -3.354405 -4.522864
v -0.003558 -0.028474 -0.021903
vn 3.397071 -2.671087 -0.631003
v -0.002533 -0.029459 -0.020678
vn 1.604538 -3.565683 -0.144567
v -0.005456 -0.031668 -0.020837
vn -5.194356 1.820735 -2.176555
v -0.013815 -0.025067 -0.022343
vn -5.611810 2.170178 0.676169
v -0.014902 -0.026972 -0.019831
vn -5.023523 -0.584900 -3.569281
v -0.011736 -0.024530 -0.024965
vn -3.594321 -3.959479 -2.986699
v -0.010025 -0.024350 -0.027542
vn -0.934505 -5.100062 -3.408890
v -0.008699 -0.024955 -0.027509
vn -2.538057 1.517478 2.769687
v -0.012039 -0.022690 -0.017168
vn -2.116923 1.101061 4.596424
v -0.009591 -0.020332 -0.016713
vn 0.690895 -1.539688 6.011216
v -0.005885 -0.025107 -0.017849
vn 0.764335 -2.000952 5.692210
v -0.006876 -0.028655 -0.018262
vn 2.301112 -3.607720 2.890404
v -0.004056 -0.030579 -0.019846
vn 1.300277 -4.590504 -3.806127
v -0.004471 -0.023036 -0.030596
vn 4.751478 -2.857489 -0.027030
v -0.001450 -0.027266 -0.020885
vn 3.012536 -4.308892 -2.248910
v -0.000578 -0.025557 -0.024296
vn 4.523655 -3.780176 0.975941
v -0.000266 -0.025426 -0.022554
vn 1.478243 -5.153452 -2.911008
v -0.003290 -0.024116 -0.028294
vn 3.113255 -1.168110 4.288898
v -0.002142 -0.026613 -0.018900
vn -5.664696 1.417940 -2.129314
v -0.012207 -0.022703 -0.023746
vn -5.779475 2.304998 0.670435
v -0.011342 -0.020065 -0.022917
vn -5.363742 2.532449 1.640058
v -0.010156 -0.020327 -0.017999
vn -5.629306 -2.104323 -0.291255
v -0.010911 -0.022734 -0.027461
vn -4.081335 -0.560422 -1.111414
v -0.012453 -0.020541 -0.028862
vn -0.414116 -5.155323 -2.723565
v -0.008006 -0.024000 -0.030073
vn -3.307597 -3.826837 -3.119306
v -0.009687 -0.023024 -0.030425
vn -4.095597 2.452643 3.028039
v -0.009832 -0.019345 -0.017597
vn -0.935656 2.880249 4.591199
v -0.008492 -0.019202 -0.016823
vn -0.130401 -1.781402 5.932933
v -0.004335 -0.021510 -0.016502
vn 3.146739 -2.106993 2.761443
v 0.000023 -0.021811 -0.017076
vn 4.350246 -2.367866 3.219639
v -0.001261 -0.024995 -0.019414
vn -0.567798 -0.570323 -3.617192
v -0.007879 -0.021915 -0.032817
vn 2.628041 -1.308827 -3.759147
v -0.002836 -0.021991 -0.031109
vn 1.587428 0.795233 -4.671767
v -0.004730 -0.020990 -0.031989
vn 5.037772 -2.270918 2.156863
v -0.000387 -0.023757 -0.021157
vn 4.313516 -3.397077 -0.528585
v 0.001183 -0.024175 -0.023534
vn 4.048360 -1.266272 3.279288
v 0.001772 -0.022635 -0.022373
vn 3.893483 -2.271262 -3.331621
v -0.001471 -0.022517 -0.029116
vn -6.108243 0.364850 0.626167
v -0.011490 -0.020078 -0.025490
vn -5.470493 2.429370 1.612392
v -0.010737 -0.017821 -0.023901
vn -6.084742 1.150704 0.577384
v -0.010539 -0.018491 -0.020962
vn -4.827089 3.638357 -0.620760
v -0.009885 -0.016895 -0.022929
vn -5.067974 0.678975 -0.007529
v -0.012479 -0.019077 -0.027941
vn -3.064639 0.170062 -4.285116
v -0.009851 -0.021245 -0.031520
vn -4.542302 2.364817 -1.033247
v -0.012217 -0.018415 -0.027951
vn -3.171151 2.300803 1.451290
v -0.010476 -0.016731 -0.020158
vn -0.062591 4.620081 3.964653
v -0.007846 -0.017488 -0.018681
vn -0.152197 1.058249 5.122827
v -0.003628 -0.020184 -0.016119
vn -0.278161 4.930343 3.864643
v -0.004993 -0.016321 -0.020618
vn 1.829102 0.634718 2.149520
v 0.000639 -0.019188 -0.016258
vn 5.993149 -1.455519 0.783967
v 0.000130 -0.021502 -0.018520
vn 5.467796 -1.814404 0.956966
v 0.000467 -0.022136 -0.019816
vn -0.055144 3.412944 -5.208388
v -0.007133 -0.019841 -0.031365
vn 3.776513 1.487827 -4.519624
v -0.002452 -0.020227 -0.030090
vn 1.011609 3.383015 -5.140884
v -0.005468 -0.019390 -0.030757
vn 5.298754 0.352254 3.112246
v 0.001275 -0.018865 -0.022414
vn 4.408332 -0.756034 -0.060916
v 0.002789 -0.021309 -0.023832
vn -5.706506 1.567059 2.049558
v -0.011664 -0.018398 -0.026580
vn -3.651059 3.365837 -1.036003
v -0.011836 -0.017780 -0.027920
vn -2.920325 3.243736 0.611405
v -0.010229 -0.016254 -0.020862
vn -2.515892 4.637492 -1.074880
v -0.008539 -0.015414 -0.023029
vn -2.742007 5.132420 -1.758796
v -0.007883 -0.016026 -0.024376
vn -2.517256 3.907935 -3.294259
v -0.010175 -0.017343 -0.029140
vn -0.610443 3.486407 -4.765903
v -0.008338 -0.017966 -0.030325
vn -1.693782 5.407530 2.570656
v -0.003856 -0.014558 -0.022886
vn -0.531731 5.498631 2.442750
v -0.001233 -0.012933 -0.024164
vn 2.397199 3.592490 2.726984
v 0.000448 -0.014450 -0.021926
vn 2.843453 2.355166 1.919055
v 0.000777 -0.015797 -0.020333
vn 6.136492 0.752737 0.874531
v 0.000785 -0.015900 -0.021483
vn 1.428078 1.912877 -5.036129
v -0.002013 -0.016116 -0.028774
vn 1.039762 2.597184 -5.441454
v -0.004435 -0.018333 -0.030175
vn -0.211262 4.746541 -3.947170
v -0.006851 -0.016590 -0.028912
vn 0.027973 3.686326 -4.014726
v -0.005751 -0.016931 -0.029528
vn 4.752063 2.762411 2.803703
v 0.001087 -0.014687 -0.023347
vn 4.431374 1.416497 1.087612
v 0.002969 -0.015425 -0.024783
vn 3.905468 0.582693 -3.108548
v 0.002597 -0.015487 -0.026211
vn -1.507062 5.211112 -2.240300
v -0.009030 -0.016713 -0.028751
vn -2.702547 5.467489 -0.709354
v -0.004832 -0.014509 -0.024840
vn -2.308243 5.228994 -2.451441
v -0.004517 -0.015017 -0.026721
vn -1.977824 4.970984 0.441826
v -0.002484 -0.012955 -0.024647
vn -0.149470 5.128955 -1.190700
v -0.000706 -0.012608 -0.025673
vn 1.501376 4.724470 2.506807
v -0.000075 -0.013117 -0.023707
vn -0.139926 4.454838 -4.174979
v -0.004785 -0.016457 -0.028346
vn -1.712018 4.292674 -3.519588
v -0.003131 -0.014810 -0.027747
vn 0.728386 3.391812 -4.040732
v -0.000456 -0.013656 -0.027272
vn 2.756483 3.582762 -0.843267
v 0.001373 -0.013173 -0.025719
# 105 vertices, 0 vertices normals

f 1//1 2//2 3//3
f 1//1 3//3 4//4
f 1//1 5//5 2//2
f 6//6 5//5 1//1
f 7//7 1//1 4//4
f 1//1 7//7 8//8
f 6//6 1//1 8//8
f 2//2 9//9 3//3
f 10//10 9//9 2//2
f 5//5 10//10 2//2
f 9//9 11//11 3//3
f 4//4 3//3 11//11
f 4//4 11//11 12//12
f 4//4 13//13 7//7
f 13//13 4//4 12//12
f 5//5 14//14 10//10
f 5//5 15//15 14//14
f 6//6 15//15 5//5
f 6//6 8//8 16//16
f 6//6 16//16 17//17
f 15//15 6//6 17//17
f 18//18 7//7 13//13
f 7//7 19//19 20//20
f 7//7 20//20 21//21
f 7//7 21//21 22//22
f 8//8 7//7 17//17
f 17//17 7//7 22//22
f 18//18 19//19 7//7
f 17//17 16//16 8//8
f 11//11 9//9 23//23
f 24//24 23//23 9//9
f 9//9 10//10 24//24
f 14//14 24//24 10//10
f 23//23 25//25 11//11
f 11//11 25//25 12//12
f 12//12 25//25 26//26
f 27//27 12//12 26//26
f 27//27 13//13 12//12
f 27//27 18//18 13//13
f 24//24 14//14 28//28
f 15//15 28//28 14//14
f 15//15 29//29 28//28
f 15//15 30//30 29//29
f 31//31 30//30 15//15
f 32//32 15//15 22//22
f 32//32 31//31 15//15
f 15//15 17//17 22//22
f 33//33 19//19 18//18
f 27//27 33//33 18//18
f 20//20 19//19 34//34
f 35//35 36//36 19//19
f 35//35 19//19 37//37
f 19//19 33//33 37//37
f 19//19 36//36 34//34
f 34//34 21//21 20//20
f 32//32 21//21 38//38
f 21//21 34//34 38//38
f 22//22 21//21 32//32
f 39//39 25//25 23//23
f 24//24 40//40 23//23
f 23//23 40//40 39//39
f 24//24 28//28 41//41
f 24//24 41//41 40//40
f 42//42 25//25 39//39
f 26//26 25//25 42//42
f 26//26 42//42 43//43
f 44//44 26//26 45//45
f 44//44 27//27 26//26
f 26//26 43//43 45//45
f 27//27 44//44 33//33
f 28//28 29//29 41//41
f 41//41 29//29 46//46
f 47//47 46//46 29//29
f 30//30 48//48 29//29
f 47//47 29//29 48//48
f 31//31 38//38 30//30
f 30//30 49//49 48//48
f 49//49 30//30 50//50
f 38//38 50//50 30//30
f 31//31 32//32 38//38
f 33//33 44//44 51//51
f 33//33 52//52 37//37
f 51//51 53//53 33//33
f 52//52 33//33 53//53
f 38//38 34//34 50//50
f 34//34 54//54 50//50
f 54//54 34//34 36//36
f 35//35 55//55 36//36
f 37//37 55//55 35//35
f 36//36 56//56 54//54
f 56//56 36//36 55//55
f 55//55 37//37 57//57
f 52//52 57//57 37//37
f 58//58 42//42 39//39
f 59//59 58//58 39//39
f 59//59 39//39 40//40
f 60//60 40//40 41//41
f 40//40 60//60 61//61
f 40//40 61//61 59//59
f 41//41 46//46 60//60
f 62//62 43//43 42//42
f 62//62 42//42 58//58
f 63//63 43//43 64//64
f 64//64 43//43 62//62
f 63//63 45//45 43//43
f 51//51 44//44 45//45
f 51//51 45//45 63//63
f 46//46 65//65 60//60
f 46//46 47//47 66//66
f 65//65 46//46 66//66
f 67//67 68//68 47//47
f 47//47 68//68 66//66
f 48//48 67//67 47//47
f 48//48 69//69 67//67
f 69//69 48//48 49//49
f 50//50 70//70 49//49
f 69//69 49//49 70//70
f 71//71 70//70 50//50
f 50//50 54//54 71//71
f 72//72 51//51 63//63
f 51//51 72//72 53//53
f 53//53 73//73 52//52
f 73//73 57//57 52//52
f 53//53 72//72 74//74
f 53//53 74//74 73//73
f 56//56 75//75 54//54
f 54//54 75//75 71//71
f 56//56 55//55 76//76
f 76//76 55//55 57//57
f 56//56 76//76 75//75
f 57//57 73//73 76//76
f 58//58 77//77 62//62
f 58//58 59//59 77//77
f 77//77 59//59 78//78
f 61//61 78//78 59//59
f 60//60 65//65 79//79
f 61//61 60//60 79//79
f 61//61 79//79 80//80
f 81//81 61//61 80//80
f 61//61 81//81 78//78
f 62//62 77//77 64//64
f 63//63 64//64 82//82
f 63//63 82//82 83//83
f 63//63 83//83 72//72
f 77//77 78//78 64//64
f 64//64 78//78 82//82
f 66//66 79//79 65//65
f 66//66 68//68 79//79
f 67//67 69//69 68//68
f 79//79 68//68 84//84
f 68//68 85//85 84//84
f 86//86 85//85 68//68
f 68//68 69//69 87//87
f 86//86 68//68 87//87
f 87//87 69//69 88//88
f 88//88 69//69 70//70
f 88//88 70//70 75//75
f 71//71 75//75 70//70
f 83//83 74//74 72//72
f 76//76 73//73 89//89
f 73//73 90//90 89//89
f 90//90 73//73 74//74
f 74//74 83//83 91//91
f 74//74 92//92 90//90
f 74//74 91//91 92//92
f 93//93 88//88 75//75
f 76//76 94//94 75//75
f 93//93 75//75 94//94
f 89//89 95//95 76//76
f 94//94 76//76 95//95
f 78//78 96//96 82//82
f 96//96 78//78 81//81
f 79//79 84//84 80//80
f 84//84 97//97 80//80
f 81//81 80//80 97//97
f 81//81 98//98 96//96
f 81//81 97//97 98//98
f 83//83 82//82 96//96
f 91//91 83//83 96//96
f 85//85 99//99 84//84
f 84//84 99//99 97//97
f 100//100 99//99 85//85
f 101//101 100//100 85//85
f 86//86 101//101 85//85
f 87//87 88//88 86//86
f 88//88 93//93 86//86
f 93//93 101//101 86//86
f 102//102 89//89 90//90
f 103//103 104//104 89//89
f 89//89 104//104 95//95
f 89//89 102//102 103//103
f 102//102 90//90 92//92
f 98//98 91//91 96//96
f 102//102 91//91 98//98
f 91//91 102//102 92//92
f 94//94 105//105 93//93
f 93//93 105//105 101//101
f 105//105 94//94 95//95
f 95//95 104//104 105//105
f 98//98 97//97 99//99
f 104//104 98//98 100//100
f 103//103 102//102 98//98
f 98//98 104//104 103//103
f 98//98 99//99 100//100
f 104//104 100//100 105//105
f 100//100 101//101 105//105
# 206 faces, 0 coords texture

# End of File
