####
#
# OBJ File Generated by Meshlab
#
####
# Object ulna_rv.obj
#
# Vertices: 198
# Faces: 392
#
####
vn 1.513230 -3.644530 4.430991
v -0.019602 -0.238960 0.030211
vn 0.229266 -0.651964 5.654086
v -0.020598 -0.236623 0.031492
vn -0.146348 -3.593759 4.401241
v -0.020796 -0.238786 0.030619
vn 3.050296 -2.234488 4.504619
v -0.015001 -0.237222 0.029151
vn 0.453320 -5.343625 2.341274
v -0.019550 -0.240304 0.028368
vn 2.781709 -4.585809 2.099315
v -0.014827 -0.239447 0.026853
vn 2.242170 1.116843 4.803843
v -0.016592 -0.234173 0.030639
vn -0.464236 1.590991 5.642291
v -0.020074 -0.234608 0.031254
vn -2.520893 -0.830360 4.197695
v -0.022461 -0.237288 0.031144
vn -2.642156 -3.972537 3.128885
v -0.022925 -0.239228 0.029231
vn 4.125309 1.353980 3.140949
v -0.013506 -0.234774 0.028364
vn 4.454204 -2.345890 1.649463
v -0.012867 -0.237646 0.026801
vn -1.140165 -5.554915 2.507901
v -0.023960 -0.240267 0.026001
vn 1.072609 -5.873765 0.276465
v -0.018093 -0.241248 0.023140
vn 4.191530 -3.815363 -0.454611
v -0.014127 -0.239374 0.023570
vn 4.854178 2.687261 2.651330
v -0.016348 -0.229368 0.026166
vn 2.548121 2.757821 4.812732
v -0.018683 -0.228892 0.028238
vn -0.491622 1.997570 5.869840
v -0.022286 -0.221075 0.025288
vn 2.217016 2.296401 5.291730
v -0.019655 -0.223014 0.025690
vn -3.502149 0.950803 5.016263
v -0.024439 -0.218267 0.023754
vn -5.404174 0.285034 0.877708
v -0.028752 -0.231305 0.021221
vn -4.237700 -2.629023 3.007923
v -0.024535 -0.239315 0.027092
vn 5.524632 2.938725 -0.143917
v -0.014435 -0.232940 0.026270
vn 4.904767 1.491648 1.462868
v -0.012708 -0.235306 0.027118
vn 4.480828 -0.933893 -2.795883
v -0.014351 -0.238473 0.021053
vn 4.891129 0.728803 -0.485104
v -0.012323 -0.235948 0.025752
vn -1.178205 -4.440528 3.775640
v -0.024933 -0.240710 0.024899
vn 1.582102 -5.792394 0.543299
v -0.022666 -0.241687 0.022193
vn 2.597926 -5.049514 -1.271531
v -0.016326 -0.240596 0.021019
vn 1.099615 -3.217917 -3.292965
v -0.018460 -0.240483 0.018616
vn 0.280734 -3.803247 -4.129058
v -0.021840 -0.240434 0.018638
vn 3.561737 -1.766559 -3.431370
v -0.015435 -0.239252 0.019921
vn 5.032447 1.676881 2.865222
v -0.019543 -0.217718 0.023394
vn 5.787309 2.063967 -0.281593
v -0.015420 -0.230423 0.024107
vn 1.984369 1.283164 5.628195
v -0.021125 -0.207831 0.021445
vn -1.990897 0.924400 5.567653
v -0.024982 -0.205132 0.021004
vn 2.868994 1.669499 4.982108
v -0.020651 -0.214794 0.023242
vn -5.230849 -0.008302 2.021056
v -0.028787 -0.200952 0.017313
vn -3.766136 0.289298 0.872305
v -0.029739 -0.237921 0.021799
vn -4.310397 -0.729929 4.430655
v -0.026540 -0.240429 0.023772
vn -3.721030 -0.865201 -4.551990
v -0.028134 -0.238828 0.019600
vn -4.536477 -0.604165 -3.939333
v -0.027224 -0.223158 0.016887
vn -4.590711 -1.569071 3.752206
v -0.025774 -0.239834 0.024887
vn 5.480784 2.470590 -1.720194
v -0.014325 -0.234169 0.023413
vn 5.027828 1.426231 -3.296182
v -0.014711 -0.234788 0.021858
vn 0.214835 -3.138001 1.744000
v -0.027108 -0.244618 0.021918
vn 2.964021 -4.878207 1.414573
v -0.023748 -0.242262 0.022190
vn -0.114811 -0.778380 -5.328071
v -0.023095 -0.231412 0.015459
vn 0.113015 -3.108141 -4.443061
v -0.026769 -0.243308 0.020365
vn 3.225380 -5.117661 -1.590588
v -0.024744 -0.242852 0.021659
vn 3.939769 -0.228897 -4.851047
v -0.021228 -0.229195 0.016456
vn 5.504341 0.916241 2.349297
v -0.019493 -0.214483 0.021724
vn 5.593256 0.339572 -1.786542
v -0.018964 -0.216456 0.017597
vn 6.025859 0.184268 -0.642130
v -0.019069 -0.212975 0.018276
vn 5.064044 0.243853 -3.642402
v -0.017495 -0.227340 0.020382
vn 4.432159 0.681308 2.497464
v -0.020392 -0.192953 0.017966
vn -1.114002 0.364009 5.871807
v -0.026015 -0.175278 0.016865
vn -4.756506 -0.010598 1.657168
v -0.030457 -0.180366 0.014461
vn -4.956724 -0.675253 -3.023748
v -0.029059 -0.189430 0.011870
vn -3.742360 -0.963584 0.612229
v -0.029499 -0.240926 0.021762
vn -0.317303 -2.783153 0.331822
v -0.027493 -0.244777 0.021586
vn -1.587252 -1.890813 -0.286710
v -0.028073 -0.244580 0.021329
vn -2.781365 -1.020432 -5.205856
v -0.025840 -0.205109 0.011770
vn 0.671375 -1.042196 -5.121201
v -0.023043 -0.216794 0.013247
vn 4.885572 -0.430598 -3.794333
v -0.020211 -0.216132 0.015707
vn 3.991459 -0.227668 -3.492965
v -0.021529 -0.189452 0.009697
vn 3.526661 0.218490 2.380085
v -0.020283 -0.175327 0.016093
vn -1.935635 -0.128903 5.904103
v -0.029232 -0.134884 0.014987
vn -5.097146 -0.142422 1.323933
v -0.031826 -0.152449 0.012843
vn -4.954106 -0.337293 -3.382171
v -0.030633 -0.151948 0.009064
vn -4.466031 -0.608919 -4.257882
v -0.028274 -0.175899 0.008900
vn -1.003828 -0.738858 -5.622049
v -0.025427 -0.180939 0.007886
vn 2.006777 -0.868434 -5.061407
v -0.022368 -0.209042 0.011933
vn 0.559579 -0.829589 -5.682258
v -0.023365 -0.197314 0.009761
vn 3.713545 -0.211177 -3.881516
v -0.022124 -0.180402 0.008603
vn 2.147186 0.115643 1.526421
v -0.019574 -0.126417 0.016750
vn -3.642144 -0.144305 2.071681
v -0.033769 -0.107658 0.014034
vn -0.802200 -0.306099 -5.434105
v -0.026049 -0.166277 0.006546
vn -3.485851 -0.169420 -4.869340
v -0.028934 -0.126179 0.005644
vn -5.280151 -0.048329 -2.398149
v -0.033248 -0.072400 0.008988
vn -2.871829 -0.714841 -5.288364
v -0.026889 -0.175975 0.007732
vn 1.703434 0.015433 -4.491438
v -0.026337 -0.126436 0.004773
vn 2.362368 -0.146984 2.115713
v -0.021582 -0.092455 0.016932
vn -3.937316 0.017596 2.984042
v -0.033393 -0.072252 0.015033
vn -2.759182 -0.042166 -5.390316
v -0.028978 -0.095868 0.005336
vn -2.463044 -0.374422 -5.446955
v -0.027031 -0.064684 0.003121
vn -2.439704 -0.604372 -5.497346
v -0.026138 -0.055520 0.001971
vn -5.068639 -0.292557 -3.357420
v -0.031524 -0.049410 0.006074
vn -4.133036 0.230991 2.093769
v -0.033663 -0.048054 0.012832
vn 3.181148 -0.418855 -4.195506
v -0.025384 -0.082665 0.004606
vn 3.981819 -0.560333 3.499192
v -0.019819 -0.049427 0.014320
vn -0.297550 0.044436 5.971513
v -0.026366 -0.073390 0.017236
vn -1.113295 0.193894 5.889747
v -0.024396 -0.035679 0.015301
vn 2.334664 -0.894775 -4.778331
v -0.023687 -0.060506 0.002336
vn 2.027864 -1.488683 -4.886742
v -0.019653 -0.033872 -0.002055
vn -3.894067 -0.720374 -4.652573
v -0.029020 -0.028621 0.001208
vn -2.186176 -1.035931 -5.787094
v -0.020442 -0.030485 -0.002488
vn -5.152340 0.148101 0.250006
v -0.033849 -0.029147 0.008478
vn -2.739710 1.474899 5.411088
v -0.022679 -0.015032 0.012608
vn -4.474699 0.571810 3.673262
v -0.031840 -0.013943 0.007829
vn 5.774245 -1.157487 -1.354416
v -0.021403 -0.060483 0.006139
vn 3.335605 -0.914649 4.602354
v -0.018783 -0.035970 0.014411
vn 5.391364 -1.841252 -0.102002
v -0.013816 -0.032291 0.005964
vn -2.181406 -0.019509 5.173210
v -0.021578 -0.028452 0.016578
vn -2.098479 0.937423 5.327285
v -0.019979 -0.020119 0.016258
vn 4.886820 -2.986224 -2.467080
v -0.013392 -0.028892 0.003047
vn 1.357755 -2.315044 -4.742783
v -0.018185 -0.028518 -0.003645
vn -3.186570 -1.490173 -5.142563
v -0.017227 -0.022116 -0.005779
vn -4.785851 -0.682521 -2.850654
v -0.032349 -0.010488 0.000250
vn -6.217436 0.218182 0.601201
v -0.032589 -0.013376 0.004695
vn 1.277877 1.255582 3.512300
v -0.019150 -0.017595 0.015859
vn -4.154162 0.374611 4.414747
v -0.031428 -0.008476 0.007624
vn -1.706179 2.804770 5.211927
v -0.020441 -0.014538 0.013625
vn -1.740059 -0.239892 5.995787
v -0.028242 -0.004526 0.009126
vn 2.587212 1.188491 4.528016
v -0.018965 -0.005311 0.010492
vn 0.377266 1.751139 5.912349
v -0.019543 -0.009186 0.011443
vn -5.797855 0.273404 1.011443
v -0.032946 -0.005972 0.004770
vn 2.311358 -0.500935 4.111076
v -0.017705 -0.027983 0.016940
vn 5.205083 -2.777145 0.940541
v -0.011665 -0.026992 0.005706
vn 5.015754 -0.353867 3.567180
v -0.015341 -0.025108 0.012789
vn 2.288614 0.927449 5.079119
v -0.019107 -0.020105 0.016263
vn 0.539616 -4.089314 -4.037678
v -0.015123 -0.021187 -0.007333
vn 4.108757 -4.398912 -1.479731
v -0.008430 -0.020094 -0.000625
vn -3.500557 -2.265734 -4.428468
v -0.022819 -0.006853 -0.006341
vn -4.413134 -1.494181 -3.276161
v -0.017539 -0.014239 -0.007487
vn -3.827912 -2.464101 -3.548364
v -0.015966 -0.015150 -0.011937
vn -4.517644 0.031105 -3.241516
v -0.030838 0.002852 -0.005242
vn -2.668540 -1.004043 -5.284310
v -0.025068 0.000428 -0.009045
vn -3.149496 0.604557 -4.927690
v -0.027525 0.004236 -0.007977
vn 2.279849 1.960658 5.195744
v -0.018422 -0.013412 0.013001
vn -2.429504 1.127742 4.634468
v -0.026540 0.003071 0.010627
vn -5.032358 1.079538 2.968485
v -0.031751 -0.001448 0.006432
vn 4.223100 3.677933 2.126504
v -0.014484 -0.010425 0.005489
vn 5.969512 1.291540 0.596761
v -0.014457 -0.002359 -0.002204
vn 1.648088 0.170214 4.703954
v -0.020520 0.005925 0.011209
vn 3.647992 2.194566 3.926967
v -0.015873 -0.011001 0.010776
vn -4.741177 2.325990 -1.051227
v -0.031539 0.006980 -0.001610
vn -4.146538 3.043377 1.351416
v -0.031183 0.007355 0.001549
vn 4.599282 -3.999637 0.688698
v -0.009841 -0.023711 0.006194
vn 3.194153 -1.884691 2.095891
v -0.007115 -0.021409 0.007373
vn 2.790986 1.690595 4.888826
v -0.012734 -0.021631 0.009491
vn 0.038389 -2.712250 -4.814941
v -0.013942 -0.015155 -0.012941
vn 0.406504 -3.848474 -4.913678
v -0.012795 -0.016575 -0.011521
vn 1.081954 -4.288690 -3.721685
v -0.008620 -0.016937 -0.011184
vn 2.745504 0.007921 -1.126038
v -0.001717 -0.014774 -0.004354
vn 2.298150 0.901667 0.276532
v -0.000690 -0.012362 0.001165
vn 1.686544 0.050034 -1.417080
v -0.005008 -0.015836 -0.010910
vn 2.568603 0.448520 1.667567
v -0.002103 -0.013828 0.004727
vn -3.665478 -1.713249 -4.477713
v -0.021426 -0.005870 -0.008970
vn -4.046929 -0.409232 -3.787472
v -0.018690 -0.009547 -0.010447
vn -2.628611 -0.705487 -4.673006
v -0.015888 -0.012520 -0.013333
vn -3.661250 2.813686 -3.839682
v -0.028157 0.007003 -0.006320
vn 0.093770 -0.534146 -5.876167
v -0.021839 -0.001799 -0.009651
vn 0.155519 0.651405 -5.537976
v -0.021893 0.004190 -0.010036
vn -1.900485 3.300224 -4.262956
v -0.024070 0.009057 -0.007748
vn -1.600198 3.636267 3.500820
v -0.019967 0.010836 0.009842
vn 5.648139 2.346573 0.281330
v -0.013645 -0.005001 -0.002483
vn 4.364679 3.895445 -0.182254
v -0.011884 -0.007586 -0.002584
vn 2.269936 5.241986 2.506108
v -0.011258 -0.010491 0.002197
vn 2.203058 5.151848 1.991094
v -0.012302 -0.011907 0.005267
vn 5.886170 -1.254791 0.774388
v -0.014668 0.002915 -0.001289
vn 5.542950 0.230302 -2.772441
v -0.015427 -0.000138 -0.004547
vn 1.650608 0.299659 4.322907
v -0.018332 0.009735 0.010550
vn 3.092092 3.053772 3.523902
v -0.013303 -0.012243 0.009032
vn -3.106422 4.665555 -1.171042
v -0.028565 0.009398 -0.002816
vn -0.420202 5.440807 1.435994
v -0.015967 0.013787 0.005561
vn 1.617192 1.125223 -3.627653
v -0.013026 -0.012884 -0.013620
vn 1.574577 0.240630 -2.320068
v -0.005946 -0.015757 -0.011621
vn 2.616000 4.161014 -3.848442
v -0.007489 -0.012217 -0.004064
vn 2.187325 5.454612 -1.140539
v -0.006763 -0.010966 -0.001673
vn 2.234342 4.465328 -2.789798
v -0.008439 -0.013770 -0.005842
vn -0.223894 0.540619 -5.942079
v -0.020470 -0.004911 -0.009439
vn -3.289475 1.637856 -4.409753
v -0.016976 -0.010011 -0.012307
vn 2.181528 3.365265 -3.584223
v -0.016778 -0.007853 -0.010241
vn 0.860849 3.267658 -2.390167
v -0.015961 -0.009093 -0.012249
vn 1.404398 2.245023 -2.853957
v -0.014780 -0.010606 -0.013322
vn 3.560143 0.907158 -4.934607
v -0.018196 -0.002896 -0.008100
vn 2.608016 1.779406 -3.688695
v -0.014468 0.011355 -0.006511
vn 0.374083 3.591148 -4.253158
v -0.017574 0.012015 -0.006907
vn -0.795297 5.147984 -1.709864
v -0.018606 0.013463 -0.004779
vn 1.935452 0.803735 3.303823
v -0.015603 0.011397 0.009114
vn 5.092234 2.211479 -2.816169
v -0.013816 -0.005530 -0.003896
vn 3.153488 5.145235 0.030914
v -0.009526 -0.009620 -0.002196
vn 4.634412 2.603248 -3.331151
v -0.016502 -0.006231 -0.008040
vn 3.689162 3.600460 -3.469337
v -0.011589 -0.009399 -0.004907
vn 5.717412 -1.249315 -2.167936
v -0.014995 0.004075 -0.004556
vn 3.847587 -4.547626 1.357235
v -0.011751 0.009659 0.000700
vn 2.066117 5.039158 -1.458823
v -0.013313 0.013381 -0.002484
vn 3.089759 4.570175 0.452208
v -0.011656 0.013137 0.002664
vn 2.283596 4.443857 2.563303
v -0.013446 0.013086 0.006169
vn 4.726947 3.589795 -1.411513
v -0.015386 -0.009729 -0.009701
vn 2.867752 4.462601 -2.065753
v -0.011443 -0.012959 -0.007525
vn 3.328226 2.995662 -4.162293
v -0.017339 -0.006151 -0.009151
vn 3.731920 0.476758 -1.495865
v -0.010491 0.011122 -0.002263
vn 5.193101 -2.053447 -2.697196
v -0.013578 0.007945 -0.003882
vn 2.617029 -0.768954 2.041769
v -0.011629 0.011343 0.005950
vn 3.928384 3.004617 -3.300812
v -0.013545 -0.010500 -0.007061
vn 3.287620 -0.511922 0.384745
v -0.009763 0.010873 0.001580
# 198 vertices, 0 vertices normals

f 1//1 2//2 3//3
f 2//2 1//1 4//4
f 1//1 3//3 5//5
f 4//4 1//1 6//6
f 1//1 5//5 6//6
f 2//2 4//4 7//7
f 8//8 2//2 7//7
f 8//8 9//9 2//2
f 2//2 9//9 3//3
f 10//10 5//5 3//3
f 10//10 3//3 9//9
f 11//11 7//7 4//4
f 12//12 11//11 4//4
f 12//12 4//4 6//6
f 13//13 5//5 10//10
f 5//5 14//14 6//6
f 13//13 14//14 5//5
f 15//15 12//12 6//6
f 6//6 14//14 15//15
f 7//7 16//16 17//17
f 16//16 7//7 11//11
f 17//17 8//8 7//7
f 18//18 9//9 8//8
f 18//18 8//8 19//19
f 17//17 19//19 8//8
f 20//20 9//9 18//18
f 9//9 20//20 21//21
f 22//22 9//9 21//21
f 9//9 22//22 10//10
f 10//10 22//22 13//13
f 16//16 11//11 23//23
f 11//11 24//24 23//23
f 11//11 12//12 24//24
f 15//15 25//25 12//12
f 25//25 26//26 12//12
f 12//12 26//26 24//24
f 13//13 22//22 27//27
f 13//13 27//27 28//28
f 13//13 28//28 14//14
f 15//15 14//14 29//29
f 30//30 14//14 31//31
f 14//14 30//30 29//29
f 28//28 31//31 14//14
f 29//29 32//32 15//15
f 32//32 25//25 15//15
f 33//33 19//19 16//16
f 17//17 16//16 19//19
f 16//16 23//23 34//34
f 33//33 16//16 34//34
f 35//35 36//36 18//18
f 37//37 18//18 19//19
f 37//37 35//35 18//18
f 20//20 18//18 36//36
f 19//19 33//33 37//37
f 36//36 38//38 20//20
f 20//20 38//38 21//21
f 21//21 39//39 40//40
f 39//39 21//21 41//41
f 21//21 38//38 42//42
f 43//43 22//22 21//21
f 40//40 43//43 21//21
f 42//42 41//41 21//21
f 27//27 22//22 43//43
f 23//23 24//24 44//44
f 44//44 34//34 23//23
f 26//26 44//44 24//24
f 45//45 25//25 32//32
f 25//25 45//45 26//26
f 26//26 45//45 44//44
f 46//46 47//47 27//27
f 46//46 27//27 43//43
f 28//28 27//27 47//47
f 47//47 31//31 28//28
f 32//32 29//29 30//30
f 31//31 48//48 30//30
f 32//32 30//30 48//48
f 49//49 31//31 50//50
f 31//31 49//49 48//48
f 50//50 31//31 47//47
f 51//51 32//32 48//48
f 32//32 51//51 45//45
f 37//37 33//33 52//52
f 34//34 53//53 33//33
f 53//53 54//54 33//33
f 54//54 52//52 33//33
f 34//34 44//44 55//55
f 34//34 55//55 53//53
f 37//37 52//52 35//35
f 52//52 56//56 35//35
f 35//35 56//56 57//57
f 57//57 36//36 35//35
f 57//57 58//58 36//36
f 38//38 36//36 58//58
f 58//58 59//59 38//38
f 42//42 38//38 59//59
f 60//60 40//40 39//39
f 39//39 41//41 60//60
f 46//46 43//43 40//40
f 40//40 61//61 46//46
f 40//40 60//60 62//62
f 40//40 62//62 61//61
f 41//41 42//42 48//48
f 41//41 62//62 60//60
f 41//41 49//49 62//62
f 41//41 48//48 49//49
f 63//63 64//64 42//42
f 64//64 48//48 42//42
f 59//59 63//63 42//42
f 45//45 55//55 44//44
f 45//45 51//51 55//55
f 50//50 47//47 46//46
f 50//50 46//46 61//61
f 48//48 64//64 51//51
f 50//50 61//61 49//49
f 49//49 61//61 62//62
f 51//51 65//65 53//53
f 65//65 51//51 64//64
f 53//53 55//55 51//51
f 54//54 56//56 52//52
f 53//53 65//65 54//54
f 66//66 56//56 54//54
f 66//66 54//54 65//65
f 67//67 57//57 56//56
f 67//67 56//56 66//66
f 57//57 67//67 68//68
f 58//58 57//57 68//68
f 69//69 70//70 58//58
f 58//58 68//68 69//69
f 59//59 58//58 70//70
f 70//70 71//71 59//59
f 63//63 59//59 72//72
f 71//71 72//72 59//59
f 73//73 63//63 74//74
f 72//72 74//74 63//63
f 63//63 73//73 64//64
f 73//73 65//65 64//64
f 73//73 66//66 65//65
f 73//73 74//74 66//66
f 66//66 74//74 72//72
f 66//66 72//72 75//75
f 75//75 67//67 66//66
f 67//67 75//75 76//76
f 68//68 67//67 76//76
f 68//68 76//76 77//77
f 69//69 68//68 77//77
f 69//69 77//77 70//70
f 71//71 70//70 78//78
f 78//78 70//70 79//79
f 80//80 79//79 70//70
f 70//70 77//77 80//80
f 81//81 71//71 78//78
f 72//72 71//71 81//81
f 78//78 75//75 72//72
f 78//78 72//72 81//81
f 82//82 75//75 78//78
f 75//75 82//82 76//76
f 83//83 77//77 76//76
f 76//76 82//82 83//83
f 77//77 83//83 84//84
f 80//80 77//77 84//84
f 79//79 82//82 78//78
f 85//85 82//82 79//79
f 79//79 80//80 85//85
f 85//85 80//80 86//86
f 86//86 80//80 87//87
f 87//87 80//80 88//88
f 84//84 89//89 80//80
f 88//88 80//80 89//89
f 82//82 85//85 90//90
f 82//82 90//90 83//83
f 83//83 90//90 91//91
f 83//83 91//91 92//92
f 84//84 83//83 92//92
f 92//92 93//93 84//84
f 93//93 89//89 84//84
f 86//86 90//90 85//85
f 90//90 86//86 94//94
f 86//86 87//87 94//94
f 94//94 87//87 95//95
f 87//87 88//88 96//96
f 97//97 87//87 96//96
f 87//87 97//97 95//95
f 88//88 89//89 98//98
f 88//88 98//98 96//96
f 93//93 99//99 89//89
f 100//100 98//98 89//89
f 89//89 99//99 100//100
f 91//91 90//90 101//101
f 101//101 90//90 94//94
f 93//93 92//92 91//91
f 93//93 91//91 102//102
f 103//103 91//91 101//101
f 103//103 102//102 91//91
f 104//104 93//93 102//102
f 105//105 93//93 104//104
f 99//99 93//93 105//105
f 94//94 95//95 101//101
f 95//95 106//106 103//103
f 101//101 95//95 103//103
f 107//107 95//95 97//97
f 107//107 106//106 95//95
f 96//96 108//108 97//97
f 98//98 109//109 96//96
f 96//96 109//109 108//108
f 107//107 97//97 108//108
f 109//109 98//98 110//110
f 110//110 98//98 100//100
f 111//111 99//99 105//105
f 112//112 100//100 99//99
f 113//113 99//99 111//111
f 114//114 99//99 115//115
f 114//114 112//112 99//99
f 116//116 99//99 113//113
f 99//99 116//116 115//115
f 100//100 112//112 117//117
f 110//110 100//100 117//117
f 118//118 104//104 102//102
f 118//118 102//102 103//103
f 119//119 103//103 106//106
f 120//120 118//118 103//103
f 119//119 120//120 103//103
f 118//118 105//105 104//104
f 121//121 111//111 105//105
f 121//121 105//105 118//118
f 107//107 122//122 106//106
f 123//123 106//106 122//122
f 106//106 123//123 119//119
f 107//107 108//108 122//122
f 109//109 124//124 108//108
f 108//108 124//124 125//125
f 126//126 108//108 125//125
f 108//108 126//126 122//122
f 110//110 117//117 109//109
f 117//117 127//127 109//109
f 128//128 124//124 109//109
f 129//129 109//109 127//127
f 109//109 129//129 128//128
f 130//130 113//113 111//111
f 130//130 111//111 121//121
f 131//131 112//112 114//114
f 132//132 112//112 131//131
f 112//112 132//132 117//117
f 130//130 116//116 113//113
f 131//131 114//114 115//115
f 115//115 133//133 134//134
f 135//135 131//131 115//115
f 116//116 136//136 115//115
f 135//135 115//115 134//134
f 133//133 115//115 136//136
f 130//130 136//136 116//116
f 117//117 137//137 127//127
f 137//137 117//117 138//138
f 138//138 117//117 132//132
f 121//121 118//118 120//120
f 139//139 119//119 123//123
f 139//139 120//120 119//119
f 120//120 140//140 141//141
f 140//140 120//120 139//139
f 141//141 121//121 120//120
f 141//141 130//130 121//121
f 142//142 122//122 126//126
f 122//122 142//142 143//143
f 144//144 122//122 143//143
f 122//122 144//144 123//123
f 123//123 145//145 146//146
f 145//145 123//123 147//147
f 144//144 147//147 123//123
f 146//146 148//148 123//123
f 140//140 139//139 123//123
f 148//148 140//140 123//123
f 124//124 149//149 125//125
f 128//128 149//149 124//124
f 125//125 150//150 126//126
f 150//150 125//125 149//149
f 142//142 126//126 151//151
f 150//150 151//151 126//126
f 152//152 127//127 137//137
f 152//152 129//129 127//127
f 128//128 153//153 149//149
f 154//154 153//153 128//128
f 129//129 154//154 128//128
f 154//154 129//129 155//155
f 152//152 155//155 129//129
f 136//136 130//130 141//141
f 156//156 131//131 135//135
f 131//131 138//138 132//132
f 138//138 131//131 156//156
f 157//157 133//133 158//158
f 159//159 158//158 133//133
f 157//157 134//134 133//133
f 160//160 159//159 133//133
f 160//160 133//133 136//136
f 134//134 161//161 135//135
f 161//161 134//134 162//162
f 162//162 134//134 157//157
f 163//163 156//156 135//135
f 161//161 163//163 135//135
f 141//141 164//164 136//136
f 160//160 136//136 164//164
f 137//137 165//165 152//152
f 137//137 138//138 165//165
f 166//166 165//165 138//138
f 138//138 156//156 166//166
f 140//140 148//148 141//141
f 164//164 141//141 148//148
f 142//142 151//151 167//167
f 143//143 142//142 167//167
f 143//143 167//167 144//144
f 168//168 144//144 167//167
f 168//168 147//147 144//144
f 169//169 170//170 145//145
f 170//170 146//146 145//145
f 171//171 169//169 145//145
f 171//171 145//145 147//147
f 170//170 159//159 146//146
f 148//148 146//146 159//159
f 171//171 147//147 168//168
f 160//160 148//148 159//159
f 160//160 164//164 148//148
f 172//172 150//150 149//149
f 172//172 149//149 153//153
f 150//150 173//173 151//151
f 174//174 175//175 150//150
f 173//173 150//150 175//175
f 172//172 174//174 150//150
f 151//151 173//173 176//176
f 167//167 151//151 176//176
f 152//152 165//165 155//155
f 172//172 153//153 177//177
f 154//154 177//177 153//153
f 178//178 177//177 154//154
f 154//154 179//179 178//178
f 154//154 155//155 179//179
f 179//179 155//155 180//180
f 165//165 180//180 155//155
f 163//163 181//181 156//156
f 166//166 156//156 181//181
f 162//162 157//157 182//182
f 182//182 157//157 158//158
f 183//183 158//158 159//159
f 158//158 184//184 182//182
f 158//158 183//183 185//185
f 185//185 184//184 158//158
f 170//170 183//183 159//159
f 162//162 186//186 161//161
f 186//186 187//187 161//161
f 181//181 161//161 187//187
f 161//161 181//181 163//163
f 162//162 182//182 177//177
f 186//186 162//162 177//177
f 180//180 165//165 166//166
f 180//180 166//166 188//188
f 188//188 166//166 189//189
f 166//166 181//181 190//190
f 190//190 189//189 166//166
f 167//167 191//191 192//192
f 167//167 192//192 171//171
f 171//171 168//168 167//167
f 175//175 167//167 176//176
f 167//167 175//175 191//191
f 169//169 185//185 170//170
f 169//169 171//171 192//192
f 192//192 185//185 169//169
f 183//183 170//170 185//185
f 172//172 193//193 174//174
f 177//177 193//193 172//172
f 176//176 173//173 175//175
f 191//191 174//174 193//193
f 175//175 174//174 191//191
f 182//182 184//184 177//177
f 186//186 177//177 178//178
f 193//193 177//177 184//184
f 188//188 178//178 180//180
f 178//178 179//179 180//180
f 194//194 178//178 188//188
f 186//186 178//178 195//195
f 178//178 194//194 195//195
f 196//196 190//190 181//181
f 187//187 196//196 181//181
f 197//197 184//184 185//185
f 184//184 197//197 191//191
f 191//191 193//193 184//184
f 197//197 185//185 192//192
f 186//186 195//195 187//187
f 187//187 198//198 196//196
f 198//198 187//187 195//195
f 194//194 188//188 198//198
f 189//189 198//198 188//188
f 198//198 189//189 196//196
f 190//190 196//196 189//189
f 192//192 191//191 197//197
f 194//194 198//198 195//195
# 392 faces, 0 coords texture

# End of File
