mtllib ./cone.mtl
v 0 6.12323e-17 1
vn 0 -0.707107 0.707107
vt 0 1
v 0 -1 6.12323e-17
vn 0 -0.707107 0.707107
vt 0 0
v 0 -1 6.12323e-17
vn 0 -6.12323e-17 -1
vt 1 0
v 0 0 0
vn 0 -6.12323e-17 -1
vt 0 0.5
v 0 6.12323e-17 1
vn 0.353553 -0.612372 0.707107
vt 0.0833333 1
v 0.5 -0.866025 5.30288e-17
vn 0.353553 -0.612372 0.707107
vt 0.0833333 0
v 0.5 -0.866025 5.30288e-17
vn 0 -6.12323e-17 -1
vt 0.75 0.933013
v 0 0 0
vn 0 -6.12323e-17 -1
vt 0.5 0.5
v 0 6.12323e-17 1
vn 0.612372 -0.353553 0.707107
vt 0.166667 1
v 0.866025 -0.5 3.06162e-17
vn 0.612372 -0.353553 0.707107
vt 0.166667 0
v 0.866025 -0.5 3.06162e-17
vn 0 -6.12323e-17 -1
vt 0.933013 0.75
v 0 0 0
vn 0 -6.12323e-17 -1
vt 0.5 0.5
v 0 6.12323e-17 1
vn 0.707107 6.16298e-33 0.707107
vt 0.25 1
v 1 -6.12323e-17 3.7494e-33
vn 0.707107 6.16298e-33 0.707107
vt 0.25 0
v 1 -6.12323e-17 3.7494e-33
vn 0 -6.12323e-17 -1
vt 1 0.5
v 0 0 0
vn 0 -6.12323e-17 -1
vt 0.5 0.5
v 0 6.12323e-17 1
vn 0.612372 0.353553 0.707107
vt 0.333333 1
v 0.866025 0.5 -3.06162e-17
vn 0.612372 0.353553 0.707107
vt 0.333333 0
v 0.866025 0.5 -3.06162e-17
vn 0 -6.12323e-17 -1
vt 0.933013 0.25
v 0 0 0
vn 0 -6.12323e-17 -1
vt 0.5 0.5
v 0 6.12323e-17 1
vn 0.353553 0.612372 0.707107
vt 0.416667 1
v 0.5 0.866025 -5.30288e-17
vn 0.353553 0.612372 0.707107
vt 0.416667 0
v 0.5 0.866025 -5.30288e-17
vn 0 -6.12323e-17 -1
vt 0.75 0.0669873
v 0 0 0
vn 0 -6.12323e-17 -1
vt 0.5 0.5
v 0 6.12323e-17 1
vn 8.65956e-17 0.707107 0.707107
vt 0.5 1
v 1.22465e-16 1 -6.12323e-17
vn 8.65956e-17 0.707107 0.707107
vt 0.5 0
v 1.22465e-16 1 -6.12323e-17
vn 0 -6.12323e-17 -1
vt 0.5 0
v 0 0 0
vn 0 -6.12323e-17 -1
vt 0.5 0.5
v 0 6.12323e-17 1
vn -0.353553 0.612372 0.707107
vt 0.583333 1
v -0.5 0.866025 -5.30288e-17
vn -0.353553 0.612372 0.707107
vt 0.583333 0
v -0.5 0.866025 -5.30288e-17
vn 0 -6.12323e-17 -1
vt 0.25 0.0669873
v 0 0 0
vn 0 -6.12323e-17 -1
vt 0.5 0.5
v 0 6.12323e-17 1
vn -0.612372 0.353553 0.707107
vt 0.666667 1
v -0.866025 0.5 -3.06162e-17
vn -0.612372 0.353553 0.707107
vt 0.666667 0
v -0.866025 0.5 -3.06162e-17
vn 0 -6.12323e-17 -1
vt 0.0669873 0.25
v 0 0 0
vn 0 -6.12323e-17 -1
vt 0.5 0.5
v 0 6.12323e-17 1
vn -0.707107 1.73191e-16 0.707107
vt 0.75 1
v -1 1.83697e-16 -1.12482e-32
vn -0.707107 1.73191e-16 0.707107
vt 0.75 0
v -1 1.83697e-16 -1.12482e-32
vn 0 -6.12323e-17 -1
vt 0 0.5
v 0 0 0
vn 0 -6.12323e-17 -1
vt 0.5 0.5
v 0 6.12323e-17 1
vn -0.612372 -0.353553 0.707107
vt 0.833333 1
v -0.866025 -0.5 3.06162e-17
vn -0.612372 -0.353553 0.707107
vt 0.833333 0
v -0.866025 -0.5 3.06162e-17
vn 0 -6.12323e-17 -1
vt 0.0669873 0.75
v 0 0 0
vn 0 -6.12323e-17 -1
vt 0.5 0.5
v 0 6.12323e-17 1
vn -0.353553 -0.612372 0.707107
vt 0.916667 1
v -0.5 -0.866025 5.30288e-17
vn -0.353553 -0.612372 0.707107
vt 0.916667 0
v -0.5 -0.866025 5.30288e-17
vn 0 -6.12323e-17 -1
vt 0.25 0.933013
v 0 0 0
vn 0 -6.12323e-17 -1
vt 0.5 0.5
v 0 6.12323e-17 1
vn -1.73191e-16 -0.707107 0.707107
vt 1 1
v -2.44929e-16 -1 6.12323e-17
vn -1.73191e-16 -0.707107 0.707107
vt 1 0
v -2.44929e-16 -1 6.12323e-17
vn 0 -6.12323e-17 -1
vt 0.5 1
v 0 0 0
vn 0 -6.12323e-17 -1
vt 0.5 0.5
usemtl material_0
f 1/1/1 2/2/2 6/6/6
f 2/2/2 3/3/3 7/7/7
f 3/3/3 4/4/4 8/8/8
f 5/5/5 6/6/6 10/10/10
f 6/6/6 7/7/7 11/11/11
f 7/7/7 8/8/8 12/12/12
f 9/9/9 10/10/10 14/14/14
f 10/10/10 11/11/11 15/15/15
f 11/11/11 12/12/12 16/16/16
f 13/13/13 14/14/14 18/18/18
f 14/14/14 15/15/15 19/19/19
f 15/15/15 16/16/16 20/20/20
f 17/17/17 18/18/18 22/22/22
f 18/18/18 19/19/19 23/23/23
f 19/19/19 20/20/20 24/24/24
f 21/21/21 22/22/22 26/26/26
f 22/22/22 23/23/23 27/27/27
f 23/23/23 24/24/24 28/28/28
f 25/25/25 26/26/26 30/30/30
f 26/26/26 27/27/27 31/31/31
f 27/27/27 28/28/28 32/32/32
f 29/29/29 30/30/30 34/34/34
f 30/30/30 31/31/31 35/35/35
f 31/31/31 32/32/32 36/36/36
f 33/33/33 34/34/34 38/38/38
f 34/34/34 35/35/35 39/39/39
f 35/35/35 36/36/36 40/40/40
f 37/37/37 38/38/38 42/42/42
f 38/38/38 39/39/39 43/43/43
f 39/39/39 40/40/40 44/44/44
f 41/41/41 42/42/42 46/46/46
f 42/42/42 43/43/43 47/47/47
f 43/43/43 44/44/44 48/48/48
f 45/45/45 46/46/46 50/50/50
f 46/46/46 47/47/47 51/51/51
f 47/47/47 48/48/48 52/52/52
f 1/1/1 6/6/6 5/5/5
f 2/2/2 7/7/7 6/6/6
f 3/3/3 8/8/8 7/7/7
f 5/5/5 10/10/10 9/9/9
f 6/6/6 11/11/11 10/10/10
f 7/7/7 12/12/12 11/11/11
f 9/9/9 14/14/14 13/13/13
f 10/10/10 15/15/15 14/14/14
f 11/11/11 16/16/16 15/15/15
f 13/13/13 18/18/18 17/17/17
f 14/14/14 19/19/19 18/18/18
f 15/15/15 20/20/20 19/19/19
f 17/17/17 22/22/22 21/21/21
f 18/18/18 23/23/23 22/22/22
f 19/19/19 24/24/24 23/23/23
f 21/21/21 26/26/26 25/25/25
f 22/22/22 27/27/27 26/26/26
f 23/23/23 28/28/28 27/27/27
f 25/25/25 30/30/30 29/29/29
f 26/26/26 31/31/31 30/30/30
f 27/27/27 32/32/32 31/31/31
f 29/29/29 34/34/34 33/33/33
f 30/30/30 35/35/35 34/34/34
f 31/31/31 36/36/36 35/35/35
f 33/33/33 38/38/38 37/37/37
f 34/34/34 39/39/39 38/38/38
f 35/35/35 40/40/40 39/39/39
f 37/37/37 42/42/42 41/41/41
f 38/38/38 43/43/43 42/42/42
f 39/39/39 44/44/44 43/43/43
f 41/41/41 46/46/46 45/45/45
f 42/42/42 47/47/47 46/46/46
f 43/43/43 48/48/48 47/47/47
f 45/45/45 50/50/50 49/49/49
f 46/46/46 51/51/51 50/50/50
f 47/47/47 52/52/52 51/51/51
