# Blender v2.82 (sub 7) OBJ File: ''
# www.blender.org
o Bus_Collision_0430
v -10.131364 -1.259703 2.871112
v -9.906361 -1.259703 2.917103
v -9.906361 1.259703 2.917103
v -10.131364 1.259703 2.871112
v -9.792835 1.259703 2.489113
v -10.160951 1.259703 2.470789
v -10.330650 1.259703 0.382922
v -9.200026 1.259703 0.259856
v -9.200026 -1.259703 0.259856
v -10.330650 -1.259703 0.382922
v -10.160951 -1.259703 2.470789
v -9.792835 -1.259703 2.489113
v 2.061797 -1.259703 2.914122
v 2.109970 -1.259703 2.487141
v 2.109970 1.259703 2.487141
v 2.061797 1.259703 2.914122
v -6.563256 1.259703 0.262814
v -6.563256 -1.259703 0.262814
v -7.020789 -1.259703 2.485525
v -7.109013 -1.259703 2.914122
v -9.676964 1.259703 3.221015
v -9.676964 -1.259703 3.221015
v -7.152156 -1.259703 3.357339
v -7.152156 1.259703 3.357339
v -7.109013 1.259703 2.914122
v -7.020789 1.259703 2.485525
v 1.917369 1.259703 2.487121
v 1.868978 1.259703 2.914122
v 2.136787 -1.259703 0.272686
v 2.136787 1.259703 0.272686
v 2.327669 1.259703 0.272810
v 2.327669 -1.259703 0.272810
v 1.868978 -1.259703 2.914122
v 1.917369 -1.259703 2.487121
v -4.110351 -1.259703 2.914123
v -4.110351 1.259703 2.914123
v -4.446598 1.259703 3.358152
v -4.446598 -1.259703 3.358152
v -4.050114 1.259703 2.486038
v -3.737721 1.259703 0.265985
v -3.737721 -1.259703 0.265985
v -4.050114 -1.259703 2.486038
v 2.134696 1.259703 0.569472
v 2.326313 1.259703 0.569582
v -6.624576 1.259703 0.560710
v -3.779589 1.259703 0.563524
v -9.282998 1.259703 0.567023
v -10.293820 1.259703 0.672951
v -10.293820 -1.259703 0.672951
v -9.282998 -1.259703 0.567023
v -6.624576 -1.259703 0.560710
v -3.779589 -1.259703 0.563524
v 2.326313 -1.259703 0.569582
v 2.134696 -1.259703 0.569472
v 1.972075 1.259703 2.004401
v 2.164429 1.259703 2.004444
v -6.921052 1.259703 2.001001
v -3.982016 1.259703 2.002094
v -9.664497 1.259703 2.005275
v -10.194398 1.259703 2.018229
v -10.194397 -1.259703 2.018229
v -9.664497 -1.259703 2.005275
v -6.921052 -1.259703 2.001001
v -3.982016 -1.259703 2.002094
v 2.164429 -1.259703 2.004444
v 1.972075 -1.259703 2.004401
v 2.090859 1.451028 2.004401
v 2.047627 1.484552 2.487121
v 2.199828 1.366526 2.487141
v 2.242864 1.333154 2.004444
v 2.199828 -1.366526 2.487141
v 2.047627 -1.484552 2.487121
v 2.090859 -1.451028 2.004401
v 2.242864 -1.333154 2.004444
vt 0.379538 0.000000
vt 0.375000 0.250000
vt 0.375000 0.000000
vt 0.379538 0.250000
vt 0.379538 0.250000
vt 0.495686 0.250000
vt 0.495686 0.000000
vt 0.495686 0.000000
vt 0.622653 0.336101
vt 0.625000 0.290414
vt 0.625000 0.336101
vt 0.625000 0.959586
vt 0.622653 0.913899
vt 0.625000 0.913899
vt 0.622653 0.336101
vt 0.622653 0.290414
vt 0.625000 0.290414
vt 0.622653 0.290414
vt 0.625000 0.336101
vt 0.625000 0.959586
vt 0.622653 0.959586
vt 0.622653 0.913899
vt 0.622653 0.959586
vt 0.625000 0.913899
vt 0.379538 0.000000
vt 0.495686 0.250000
vt 0.379538 0.290414
vt 0.375000 0.290414
vt 0.379538 0.500000
vt 0.375000 0.750000
vt 0.375000 0.500000
vt 0.379538 0.959586
vt 0.375000 1.000000
vt 0.375000 0.959586
vt 0.665414 0.000000
vt 0.625000 0.250000
vt 0.625000 0.000000
vt 0.334586 0.250000
vt 0.334586 0.000000
vt 0.435605 0.500000
vt 0.379538 0.750000
vt 0.435605 1.000000
vt 0.379538 1.000000
vt 0.435605 0.250000
vt 0.435605 0.250000
vt 0.435605 0.290414
vt 0.622653 0.500000
vt 0.625000 0.750000
vt 0.622653 0.750000
vt 0.625000 1.000000
vt 0.622653 1.000000
vt 0.622653 0.000000
vt 0.622653 0.250000
vt 0.435605 0.000000
vt 0.495686 0.290414
vt 0.495686 0.750000
vt 0.435605 0.750000
vt 0.435605 0.959586
vt 0.495686 1.000000
vt 0.435605 0.000000
vt 0.625000 0.471911
vt 0.625000 0.500000
vt 0.495686 0.471911
vt 0.495686 0.500000
vt 0.435605 0.471911
vt 0.379538 0.471911
vt 0.375000 0.471911
vt 0.153089 0.000000
vt 0.125000 0.250000
vt 0.125000 0.000000
vt 0.379538 0.778089
vt 0.375000 0.778089
vt 0.435605 0.778089
vt 0.495686 0.778089
vt 0.625000 0.778089
vt 0.846911 0.000000
vt 0.875000 0.250000
vt 0.846911 0.250000
vt 0.622653 0.471911
vt 0.495686 0.336101
vt 0.435605 0.336101
vt 0.379538 0.336101
vt 0.375000 0.336101
vt 0.288899 0.000000
vt 0.153089 0.250000
vt 0.379538 0.913899
vt 0.375000 0.913899
vt 0.435605 0.913899
vt 0.495686 0.913899
vt 0.622653 0.778089
vt 0.711101 0.000000
vt 0.711101 0.250000
vt 0.288899 0.250000
vt 0.495686 0.959586
vt 0.665414 0.250000
vt 0.875000 0.000000
vn -0.2003 0.0000 0.9797
vn -0.7982 0.0000 0.6025
vn 0.7972 0.0000 0.6037
vn 0.6128 0.7902 0.0000
vn 0.6128 -0.7902 0.0000
vn -0.8442 0.5241 -0.1120
vn -0.0001 0.0001 1.0000
vn 0.7624 -0.6413 0.0860
vn 0.0002 -0.0002 -1.0000
vn -0.0001 -0.0001 1.0000
vn -0.8612 -0.4989 -0.0976
vn 0.0002 0.0001 -1.0000
vn 0.6793 0.7254 0.1107
vn -0.8612 0.4989 -0.0976
vn 0.6793 -0.7254 0.1107
vn 0.0002 -0.0001 -1.0000
vn -0.8442 -0.5241 -0.1120
vn 0.0002 0.0002 -1.0000
vn 0.7624 0.6413 0.0860
vn 0.0000 1.0000 0.0000
vn -0.0319 0.0000 -0.9995
vn -0.1082 0.0000 -0.9941
vn 0.0000 -1.0000 -0.0000
vn 0.9937 0.0000 0.1121
vn -0.9973 0.0000 0.0737
vn 0.0011 0.0000 -1.0000
vn -0.0539 0.0000 0.9985
vn -0.0263 0.0000 0.9997
vn 0.0009 0.0000 -1.0000
vn 0.0006 0.0000 -1.0000
vn 0.0000 0.0000 1.0000
vn -0.0003 0.0000 1.0000
vn -0.9966 0.0000 0.0830
vn -0.9920 0.0000 0.1260
vn 0.9956 0.0000 0.0937
vn 1.0000 0.0000 0.0046
vn 0.9956 0.0000 0.0938
vn -0.9965 -0.0000 0.0830
s off
f 2/1/1 4/2/1 1/3/1
f 2/1/2 21/4/2 3/5/2
f 36/6/3 38/7/3 35/8/3
f 67/9/4 69/10/4 70/11/4
f 71/12/5 73/13/5 74/14/5
f 55/15/6 68/16/6 67/9/6
f 15/17/7 68/16/7 27/18/7
f 56/19/8 69/10/8 15/17/8
f 56/19/9 67/9/9 70/11/9
f 14/20/10 72/21/10 71/12/10
f 66/22/11 72/21/11 34/23/11
f 65/24/12 73/13/12 66/22/12
f 65/24/13 71/12/13 74/14/13
f 2/1/1 3/5/1 4/2/1
f 2/1/2 22/25/2 21/4/2
f 36/6/3 37/26/3 38/7/3
f 67/9/4 68/16/4 69/10/4
f 71/12/5 72/21/5 73/13/5
f 55/15/14 27/18/14 68/16/14
f 15/17/7 69/10/7 68/16/7
f 56/19/15 70/11/15 69/10/15
f 56/19/16 55/15/16 67/9/16
f 14/20/10 34/23/10 72/21/10
f 66/22/17 73/13/17 72/21/17
f 65/24/18 74/14/18 73/13/18
f 65/24/19 14/20/19 71/12/19
s 1
f 4/2/20 5/27/20 6/28/20
f 8/29/21 10/30/22 7/31/22
f 12/32/23 1/33/23 11/34/23
f 14/35/24 16/36/24 13/37/24
f 1/3/25 6/38/25 11/39/25
f 17/40/26 9/41/21 8/29/21
f 12/32/23 20/42/23 2/43/23
f 22/25/27 24/44/28 21/4/27
f 5/27/20 25/45/20 26/46/20
f 27/18/20 16/36/20 15/17/20
f 30/47/29 32/48/30 29/49/29
f 34/23/23 13/50/23 33/51/23
f 33/52/31 16/36/31 28/53/31
f 20/54/23 22/25/23 2/1/23
f 25/45/20 21/4/20 24/44/20
f 25/45/20 37/26/20 36/6/20
f 26/46/20 36/6/20 39/55/20
f 17/40/26 41/56/26 18/57/26
f 19/58/23 35/59/23 20/42/23
f 20/54/23 38/7/23 23/60/23
f 23/60/28 37/26/32 24/44/28
f 30/47/20 44/61/20 31/62/20
f 17/40/20 46/63/20 40/64/20
f 8/29/20 45/65/20 17/40/20
f 47/66/20 7/31/20 48/67/20
f 49/68/33 7/69/34 10/70/34
f 10/30/23 50/71/23 49/72/23
f 51/73/23 9/41/23 18/57/23
f 52/74/23 18/57/23 41/56/23
f 53/75/23 29/49/23 32/48/23
f 53/76/35 31/77/36 44/78/37
f 43/79/20 56/19/20 44/61/20
f 45/65/20 58/80/20 46/63/20
f 47/66/20 57/81/20 45/65/20
f 59/82/20 48/67/20 60/83/20
f 61/84/25 48/85/38 49/68/33
f 49/72/23 62/86/23 61/87/23
f 63/88/23 50/71/23 51/73/23
f 64/89/23 51/73/23 52/74/23
f 65/24/23 54/90/23 53/75/23
f 65/91/24 44/78/37 56/92/24
f 57/81/20 39/55/20 58/80/20
f 59/82/20 26/46/20 57/81/20
f 5/27/20 60/83/20 6/28/20
f 11/39/25 60/93/25 61/84/25
f 61/87/23 12/32/23 11/34/23
f 19/58/23 62/86/23 63/88/23
f 42/94/23 63/88/23 64/89/23
f 14/35/24 56/92/24 15/95/24
f 39/55/20 28/53/20 27/18/20
f 35/8/31 28/53/31 36/6/31
f 42/94/23 33/51/23 35/59/23
f 34/23/23 64/89/23 66/22/23
f 66/22/23 52/74/23 54/90/23
f 54/90/23 41/56/23 29/49/23
f 40/64/26 29/49/29 41/56/26
f 40/64/20 43/79/20 30/47/20
f 46/63/20 55/15/20 43/79/20
f 58/80/20 27/18/20 55/15/20
f 4/2/20 3/5/20 5/27/20
f 8/29/21 9/41/21 10/30/22
f 12/32/23 2/43/23 1/33/23
f 14/35/24 15/95/24 16/36/24
f 1/3/25 4/2/25 6/38/25
f 17/40/26 18/57/26 9/41/21
f 12/32/23 19/58/23 20/42/23
f 22/25/27 23/60/28 24/44/28
f 5/27/20 3/5/20 25/45/20
f 27/18/20 28/53/20 16/36/20
f 30/47/29 31/62/30 32/48/30
f 34/23/23 14/20/23 13/50/23
f 33/52/31 13/37/31 16/36/31
f 20/54/23 23/60/23 22/25/23
f 25/45/20 3/5/20 21/4/20
f 25/45/20 24/44/20 37/26/20
f 26/46/20 25/45/20 36/6/20
f 17/40/26 40/64/26 41/56/26
f 19/58/23 42/94/23 35/59/23
f 20/54/23 35/8/23 38/7/23
f 23/60/28 38/7/32 37/26/32
f 30/47/20 43/79/20 44/61/20
f 17/40/20 45/65/20 46/63/20
f 8/29/20 47/66/20 45/65/20
f 47/66/20 8/29/20 7/31/20
f 49/68/33 48/85/38 7/69/34
f 10/30/23 9/41/23 50/71/23
f 51/73/23 50/71/23 9/41/23
f 52/74/23 51/73/23 18/57/23
f 53/75/23 54/90/23 29/49/23
f 53/76/35 32/96/36 31/77/36
f 43/79/20 55/15/20 56/19/20
f 45/65/20 57/81/20 58/80/20
f 47/66/20 59/82/20 57/81/20
f 59/82/20 47/66/20 48/67/20
f 61/84/25 60/93/25 48/85/38
f 49/72/23 50/71/23 62/86/23
f 63/88/23 62/86/23 50/71/23
f 64/89/23 63/88/23 51/73/23
f 65/24/23 66/22/23 54/90/23
f 65/91/24 53/76/35 44/78/37
f 57/81/20 26/46/20 39/55/20
f 59/82/20 5/27/20 26/46/20
f 5/27/20 59/82/20 60/83/20
f 11/39/25 6/38/25 60/93/25
f 61/87/23 62/86/23 12/32/23
f 19/58/23 12/32/23 62/86/23
f 42/94/23 19/58/23 63/88/23
f 14/35/24 65/91/24 56/92/24
f 39/55/20 36/6/20 28/53/20
f 35/8/31 33/52/31 28/53/31
f 42/94/23 34/23/23 33/51/23
f 34/23/23 42/94/23 64/89/23
f 66/22/23 64/89/23 52/74/23
f 54/90/23 52/74/23 41/56/23
f 40/64/26 30/47/29 29/49/29
f 40/64/20 46/63/20 43/79/20
f 46/63/20 58/80/20 55/15/20
f 58/80/20 39/55/20 27/18/20
