# Blender v2.82 (sub 7) OBJ File: ''
# www.blender.org
mtllib wheel_R.mtl
o wheel
v -0.042996 0.000000 -0.028347
v -0.042996 0.004630 -0.028347
v -0.039949 0.004630 -0.032501
v -0.035151 0.004630 -0.037638
v -0.029699 0.004630 -0.042074
v -0.023839 0.004630 -0.045650
v -0.023839 0.000000 -0.045650
v -0.003051 0.000000 0.051410
v -0.003051 0.004630 0.051410
v -0.003514 0.004630 0.051380
v -0.010478 0.004630 0.050423
v -0.017246 0.004630 0.048526
v -0.023693 0.004630 0.045726
v -0.027615 0.004630 0.043470
v -0.027615 0.000000 0.043470
v 0.042996 0.000000 0.028347
v 0.039949 0.000000 0.032501
v 0.035151 0.000000 0.037638
v 0.029699 0.000000 0.042074
v 0.042996 0.004630 0.028347
v 0.039949 0.004630 0.032501
v 0.035151 0.004630 0.037638
v 0.029699 0.004630 0.042074
v 0.023839 0.004630 0.045650
v 0.023839 0.000000 0.045650
v 0.046048 0.000000 -0.023062
v 0.046048 0.004630 -0.023062
v 0.047236 0.004630 -0.020518
v 0.049590 0.004630 -0.013895
v 0.051020 0.004630 -0.007013
v 0.051500 0.004630 0.000000
v 0.051454 0.004630 0.002180
v 0.051454 0.000000 0.002180
v 0.003051 0.000000 -0.051410
v 0.003051 0.004630 -0.051410
v 0.003514 0.004630 -0.051380
v 0.010478 0.004630 -0.050423
v 0.017246 0.004630 -0.048526
v 0.023693 0.004630 -0.045726
v 0.027615 0.004630 -0.043470
v 0.027615 0.000000 -0.043470
v -0.039949 0.000000 -0.032501
v -0.035151 0.000000 -0.037638
v -0.029699 0.000000 -0.042074
v 0.003514 0.000000 -0.051380
v 0.010478 0.000000 -0.050423
v 0.017246 0.000000 -0.048526
v 0.023693 0.000000 -0.045726
v 0.047236 0.000000 -0.020518
v 0.049590 0.000000 -0.013895
v 0.051020 0.000000 -0.007013
v 0.051500 0.000000 0.000000
v -0.003514 0.000000 0.051380
v -0.010478 0.000000 0.050423
v -0.017246 0.000000 0.048526
v -0.023693 0.000000 0.045726
v -0.046048 0.000000 0.023062
v -0.047236 0.000000 0.020518
v -0.049590 0.000000 0.013895
v -0.051020 0.000000 0.007013
v -0.051500 0.000000 0.000000
v -0.051454 0.000000 -0.002180
v -0.051454 0.004630 -0.002180
v -0.051500 0.004630 0.000000
v -0.051020 0.004630 0.007013
v -0.049590 0.004630 0.013895
v -0.047236 0.004630 0.020518
v -0.046048 0.004630 0.023062
v 0.006000 0.004630 0.000000
v 0.005909 0.004630 -0.001042
v 0.006000 0.000000 0.000000
v 0.005909 0.000000 -0.001042
v 0.005638 0.004630 -0.002052
v 0.005638 0.000000 -0.002052
v 0.005196 0.004630 -0.003000
v 0.005196 0.000000 -0.003000
v 0.004596 0.004630 -0.003857
v 0.004596 0.000000 -0.003857
v 0.003857 0.004630 -0.004596
v 0.003857 0.000000 -0.004596
v 0.003000 0.004630 -0.005196
v 0.003000 0.000000 -0.005196
v 0.002052 0.004630 -0.005638
v 0.002052 0.000000 -0.005638
v 0.001042 0.004630 -0.005909
v 0.001042 0.000000 -0.005909
v 0.000000 0.004630 -0.006000
v 0.000000 0.000000 -0.006000
v -0.001042 0.004630 -0.005909
v -0.001042 0.000000 -0.005909
v -0.002052 0.004630 -0.005638
v -0.002052 0.000000 -0.005638
v -0.003000 0.004630 -0.005196
v -0.003000 0.000000 -0.005196
v -0.003857 0.004630 -0.004596
v -0.003857 0.000000 -0.004596
v -0.004596 0.004630 -0.003857
v -0.004596 0.000000 -0.003857
v -0.005196 0.004630 -0.003000
v -0.005196 0.000000 -0.003000
v -0.005638 0.004630 -0.002052
v -0.005638 0.000000 -0.002052
v -0.005909 0.004630 -0.001042
v -0.005909 0.000000 -0.001042
v -0.006000 0.004630 0.000000
v -0.006000 0.000000 0.000000
v -0.005909 0.004630 0.001042
v -0.005909 0.000000 0.001042
v -0.005638 0.004630 0.002052
v -0.005638 0.000000 0.002052
v -0.005196 0.004630 0.003000
v -0.005196 0.000000 0.003000
v -0.004596 0.004630 0.003857
v -0.004596 0.000000 0.003857
v -0.003857 0.004630 0.004596
v -0.003857 0.000000 0.004596
v -0.003000 0.004630 0.005196
v -0.003000 0.000000 0.005196
v -0.002052 0.004630 0.005638
v -0.002052 0.000000 0.005638
v -0.001042 0.004630 0.005909
v -0.001042 0.000000 0.005909
v 0.000000 0.004630 0.006000
v 0.000000 0.000000 0.006000
v 0.001042 0.004630 0.005909
v 0.001042 0.000000 0.005909
v 0.002052 0.004630 0.005638
v 0.002052 0.000000 0.005638
v 0.003000 0.004630 0.005196
v 0.003000 0.000000 0.005196
v 0.003857 0.004630 0.004596
v 0.003857 0.000000 0.004596
v 0.004596 0.004630 0.003857
v 0.004596 0.000000 0.003857
v 0.005196 0.004630 0.003000
v 0.005196 0.000000 0.003000
v 0.005638 0.004630 0.002052
v 0.005638 0.000000 0.002052
v 0.005909 0.004630 0.001042
v 0.005909 0.000000 0.001042
v -0.012523 0.000000 -0.008257
v -0.012523 0.004630 -0.008257
v -0.042996 0.000000 -0.028347
v -0.015000 0.004630 0.000000
v -0.014841 0.000000 -0.002178
v -0.015000 0.000000 0.000000
v -0.014841 0.004630 -0.002178
v -0.014367 0.000000 -0.004310
v -0.014367 0.004630 -0.004310
v -0.013589 0.000000 -0.006351
v -0.013589 0.004630 -0.006351
v -0.012523 0.000000 -0.008257
v -0.015000 0.000000 0.000000
v -0.015000 0.004630 0.000000
v -0.013412 0.000000 0.006717
v -0.013412 0.004630 0.006717
v -0.007500 0.004630 0.012990
v -0.009307 0.000000 0.011764
v -0.007500 0.000000 0.012990
v -0.009307 0.004630 0.011764
v -0.010916 0.000000 0.010288
v -0.010916 0.004630 0.010288
v -0.012294 0.000000 0.008593
v -0.012294 0.004630 0.008593
v -0.027615 0.000000 0.043470
v -0.007500 0.000000 0.012990
v 0.012523 0.000000 0.008257
v 0.012523 0.004630 0.008257
v 0.042996 0.000000 0.028347
v 0.015000 0.004630 0.000000
v 0.014841 0.000000 0.002178
v 0.015000 0.000000 0.000000
v 0.014841 0.004630 0.002178
v 0.014367 0.000000 0.004310
v 0.014367 0.004630 0.004310
v 0.013589 0.000000 0.006351
v 0.013589 0.004630 0.006351
v 0.012523 0.000000 0.008257
v 0.051454 0.000000 0.002180
v 0.015000 0.000000 0.000000
v 0.015000 0.004630 0.000000
v -0.000889 0.000000 0.014974
v -0.000889 0.004630 0.014974
v -0.003051 0.000000 0.051410
v 0.007500 0.004630 0.012990
v 0.005534 0.000000 0.013942
v 0.007500 0.000000 0.012990
v 0.005534 0.004630 0.013942
v 0.003451 0.000000 0.014598
v 0.003451 0.004630 0.014598
v 0.001295 0.000000 0.014944
v 0.001295 0.004630 0.014944
v -0.000889 0.000000 0.014974
v 0.013412 0.000000 -0.006717
v 0.013412 0.004630 -0.006717
v 0.046048 0.000000 -0.023062
v 0.007500 0.004630 -0.012990
v 0.009307 0.000000 -0.011764
v 0.007500 0.000000 -0.012990
v 0.009307 0.004630 -0.011764
v 0.010916 0.000000 -0.010288
v 0.010916 0.004630 -0.010288
v 0.012294 0.000000 -0.008593
v 0.012294 0.004630 -0.008593
v 0.013412 0.000000 -0.006717
v 0.000889 0.000000 -0.014974
v 0.000889 0.004630 -0.014974
v -0.007500 0.004630 -0.012990
v -0.005534 0.000000 -0.013942
v -0.007500 0.000000 -0.012990
v -0.005534 0.004630 -0.013942
v -0.003451 0.000000 -0.014598
v -0.003451 0.004630 -0.014598
v -0.001295 0.000000 -0.014944
v -0.001295 0.004630 -0.014944
v -0.015000 0.000000 0.000000
v 0.015000 0.000000 0.000000
v 0.006000 0.000000 0.000000
v 0.015000 0.004630 0.000000
v -0.015000 0.004630 0.000000
v 0.051500 0.004630 0.000000
v -0.051500 0.004630 0.000000
v 0.000000 0.004630 -0.006000
v 0.006000 0.004630 0.000000
v -0.006000 0.004630 0.000000
v 0.000000 0.004630 0.006000
vn -0.3984 0.0000 0.9172
vn -0.2699 0.0000 0.9629
vn -0.1361 0.0000 0.9907
vn 0.7308 0.0000 0.6826
vn 0.6311 0.0000 0.7757
vn 0.9423 0.0000 -0.3349
vn 0.9791 0.0000 -0.2034
vn 0.9977 0.0000 -0.0683
vn 0.9061 0.0000 -0.4231
vn 0.0647 0.0000 -0.9979
vn 0.1361 0.0000 -0.9907
vn 0.2699 0.0000 -0.9629
vn 0.3984 0.0000 -0.9172
vn 0.4986 0.0000 -0.8668
vn -0.5209 0.0000 -0.8536
vn -0.6311 0.0000 -0.7757
vn -0.7308 0.0000 -0.6826
vn -0.9998 0.0000 -0.0211
vn -0.9977 0.0000 0.0683
vn -0.9791 0.0000 0.2034
vn -0.9423 0.0000 0.3349
vn -0.9061 0.0000 0.4231
vn -0.9962 -0.0000 0.0873
vn -0.9658 0.0000 0.2592
vn -0.9063 0.0000 0.4226
vn -0.8192 0.0000 0.5735
vn -0.7071 0.0000 0.7071
vn -0.5735 0.0000 0.8192
vn -0.4226 0.0000 0.9063
vn -0.2588 -0.0000 0.9659
vn -0.2592 0.0000 0.9658
vn -0.0870 0.0000 0.9962
vn 0.0870 0.0000 0.9962
vn 0.2592 0.0000 0.9658
vn 0.2588 0.0000 0.9659
vn 0.4226 0.0000 0.9063
vn 0.5735 0.0000 0.8192
vn 0.7071 0.0000 0.7071
vn 0.8192 0.0000 0.5735
vn 0.9063 0.0000 0.4226
vn 0.9658 0.0000 0.2592
vn 0.9962 0.0000 0.0873
vn 0.9962 -0.0000 -0.0873
vn 0.9658 0.0000 -0.2592
vn 0.9063 0.0000 -0.4226
vn 0.8192 0.0000 -0.5735
vn 0.7071 0.0000 -0.7071
vn 0.5735 0.0000 -0.8192
vn 0.4226 0.0000 -0.9063
vn 0.2588 -0.0000 -0.9659
vn 0.2592 0.0000 -0.9658
vn 0.0870 0.0000 -0.9962
vn -0.0870 0.0000 -0.9962
vn -0.2592 0.0000 -0.9658
vn -0.2588 0.0000 -0.9659
vn -0.4226 0.0000 -0.9063
vn -0.5735 0.0000 -0.8192
vn -0.7071 0.0000 -0.7071
vn -0.8192 0.0000 -0.5735
vn -0.9063 0.0000 -0.4226
vn -0.9658 0.0000 -0.2592
vn -0.9962 0.0000 -0.0873
vn -0.5504 0.0000 0.8349
vn -0.9973 0.0000 -0.0728
vn -0.9762 -0.0000 -0.2167
vn -0.9762 0.0000 -0.2170
vn -0.9344 0.0000 -0.3562
vn -0.8728 0.0000 -0.4881
vn 0.0597 0.0000 -0.9982
vn 0.4478 0.0000 0.8941
vn -0.5614 0.0000 0.8275
vn -0.6760 0.0000 0.7369
vn -0.7759 0.0000 0.6308
vn -0.7757 0.0000 0.6311
vn -0.8593 0.0000 0.5115
vn -0.8592 -0.0000 0.5116
vn -0.8346 0.0000 -0.5508
vn 0.5504 0.0000 -0.8349
vn 0.4272 0.0000 0.9042
vn 0.9843 0.0000 -0.1766
vn 0.9973 0.0000 0.0728
vn 0.9762 -0.0000 0.2167
vn 0.9762 0.0000 0.2170
vn 0.9344 0.0000 0.3562
vn 0.8728 0.0000 0.4881
vn -0.0597 0.0000 0.9982
vn 0.9982 0.0000 0.0592
vn 0.4358 0.0000 0.9000
vn 0.4355 -0.0000 0.9002
vn 0.3004 0.0000 0.9538
vn 0.1585 0.0000 0.9874
vn 0.0137 0.0000 0.9999
vn -0.8943 0.0000 0.4474
vn -0.4478 0.0000 -0.8941
vn -0.0187 0.0000 0.9998
vn 0.5614 0.0000 -0.8275
vn 0.6760 0.0000 -0.7369
vn 0.7759 0.0000 -0.6308
vn 0.7757 0.0000 -0.6311
vn 0.8592 0.0000 -0.5116
vn 0.8346 0.0000 0.5508
vn -0.9982 0.0000 -0.0592
vn -0.4358 0.0000 -0.9000
vn -0.4355 -0.0000 -0.9002
vn -0.3004 0.0000 -0.9538
vn -0.1585 0.0000 -0.9874
vn -0.0137 0.0000 -0.9999
vn 0.8943 0.0000 -0.4474
vn 0.0000 -1.0000 0.0000
vn 0.0000 1.0000 -0.0000
vn 0.4575 0.8892 0.0097
vn 0.7157 0.6982 0.0151
vn -0.4986 0.0000 0.8668
vn -0.0647 0.0000 0.9979
vn 0.2971 0.0000 0.9548
vn 0.5209 0.0000 0.8536
vn 0.8063 0.0000 0.5915
vn 0.9998 0.0000 0.0211
vn 0.0000 0.0000 1.0000
vn -0.8063 0.0000 -0.5915
usemtl Material.001
s off
f 12//1 13//1 56//1
f 12//1 56//1 55//1
f 11//2 12//2 55//2
f 11//2 55//2 54//2
f 10//3 11//3 54//3
f 10//3 54//3 53//3
f 18//4 17//4 21//4
f 18//4 21//4 22//4
f 19//5 18//5 22//5
f 19//5 22//5 23//5
f 29//6 49//6 28//6
f 29//6 50//6 49//6
f 30//7 50//7 29//7
f 30//7 51//7 50//7
f 221//8 51//8 30//8
f 221//8 52//8 51//8
f 27//9 49//9 196//9
f 45//10 34//10 35//10
f 45//10 35//10 36//10
f 46//11 45//11 36//11
f 46//11 36//11 37//11
f 47//12 46//12 37//12
f 47//12 37//12 38//12
f 48//13 47//13 38//13
f 48//13 38//13 39//13
f 41//14 48//14 39//14
f 41//14 39//14 40//14
f 5//15 6//15 7//15
f 5//15 7//15 44//15
f 4//16 5//16 44//16
f 4//16 44//16 43//16
f 3//17 4//17 43//17
f 3//17 43//17 42//17
f 222//18 63//18 62//18
f 222//18 62//18 61//18
f 65//19 222//19 61//19
f 65//19 61//19 60//19
f 66//20 65//20 60//20
f 66//20 60//20 59//20
f 67//21 66//21 59//21
f 67//21 59//21 58//21
f 68//22 67//22 58//22
f 68//22 58//22 57//22
f 27//9 28//9 49//9
s 1
f 69//23 70//23 71//23
f 70//23 72//23 71//23
f 70//24 73//24 72//24
f 73//24 74//24 72//24
f 73//25 75//25 74//25
f 75//25 76//25 74//25
f 75//26 77//26 76//26
f 77//26 78//26 76//26
f 77//27 79//27 78//27
f 79//27 80//27 78//27
f 79//28 81//28 80//28
f 81//28 82//28 80//28
f 81//29 83//29 82//29
f 83//29 84//29 82//29
f 83//30 85//31 84//31
f 85//31 86//31 84//31
f 85//32 87//32 86//32
f 87//32 88//32 86//32
f 87//33 89//33 88//33
f 89//33 90//33 88//33
f 89//34 91//34 90//34
f 91//34 92//35 90//34
f 91//36 93//36 92//36
f 93//36 94//36 92//36
f 93//37 95//37 94//37
f 95//37 96//37 94//37
f 95//38 97//38 96//38
f 97//38 98//38 96//38
f 97//39 99//39 98//39
f 99//39 100//39 98//39
f 99//40 101//40 100//40
f 101//40 102//40 100//40
f 101//41 103//41 102//41
f 103//41 104//41 102//41
f 103//42 105//42 104//42
f 105//42 106//42 104//42
f 105//43 107//43 106//43
f 107//43 108//43 106//43
f 107//44 109//44 108//44
f 109//44 110//44 108//44
f 109//45 111//45 110//45
f 111//45 112//45 110//45
f 111//46 113//46 112//46
f 113//46 114//46 112//46
f 113//47 115//47 114//47
f 115//47 116//47 114//47
f 115//48 117//48 116//48
f 117//48 118//48 116//48
f 117//49 119//49 118//49
f 119//49 120//49 118//49
f 119//50 121//51 120//51
f 121//51 122//51 120//51
f 121//52 123//52 122//52
f 123//52 124//52 122//52
f 123//53 125//53 124//53
f 125//53 126//53 124//53
f 125//54 127//54 126//54
f 127//54 128//55 126//54
f 127//56 129//56 128//56
f 129//56 130//56 128//56
f 129//57 131//57 130//57
f 131//57 132//57 130//57
f 131//58 133//58 132//58
f 133//58 134//58 132//58
f 133//59 135//59 134//59
f 135//59 136//59 134//59
f 135//60 137//60 136//60
f 137//60 138//60 136//60
f 137//61 139//61 138//61
f 139//61 140//61 138//61
f 139//62 69//62 140//62
f 69//62 71//62 140//62
f 141//63 142//63 143//63
f 142//63 2//63 143//63
f 144//64 145//64 146//64
f 144//64 147//64 145//64
f 147//65 148//66 145//66
f 147//65 149//66 148//66
f 149//67 150//67 148//67
f 149//67 151//67 150//67
f 151//68 152//68 150//68
f 151//68 142//68 152//68
f 62//69 63//69 153//69
f 63//69 154//69 153//69
f 155//70 156//70 57//70
f 156//70 68//70 57//70
f 157//71 158//71 159//71
f 157//71 160//71 158//71
f 160//72 161//72 158//72
f 160//72 162//72 161//72
f 162//73 163//74 161//73
f 162//73 164//73 163//74
f 164//75 155//75 163//76
f 164//75 156//76 155//75
f 165//77 14//77 166//77
f 14//77 157//77 166//77
f 167//78 168//78 169//79
f 168//78 20//80 169//79
f 170//81 171//81 172//81
f 170//81 173//81 171//81
f 173//82 174//83 171//83
f 173//82 175//83 174//83
f 175//84 176//84 174//84
f 175//84 177//84 176//84
f 177//85 178//85 176//85
f 177//85 168//85 178//85
f 179//86 32//86 180//86
f 32//86 181//86 180//86
f 182//87 183//87 184//87
f 183//87 9//87 184//87
f 185//88 186//88 187//89
f 185//88 188//89 186//88
f 188//90 189//90 186//90
f 188//90 190//90 189//90
f 190//91 191//91 189//91
f 190//91 192//91 191//91
f 192//92 193//92 191//92
f 192//92 183//92 193//92
f 25//93 24//93 187//93
f 24//93 185//93 187//93
f 194//94 195//94 196//95
f 195//94 27//94 196//94
f 197//96 198//96 199//96
f 197//96 200//96 198//96
f 200//97 201//97 198//97
f 200//97 202//97 201//97
f 202//98 203//99 201//98
f 202//98 204//98 203//99
f 204//100 205//100 203//100
f 204//100 195//100 205//100
f 41//101 40//101 199//101
f 40//101 197//101 199//101
f 206//102 207//102 34//102
f 207//102 35//102 34//102
f 208//103 209//103 210//104
f 208//103 211//104 209//103
f 211//105 212//105 209//105
f 211//105 213//105 212//105
f 213//106 214//106 212//106
f 213//106 215//106 214//106
f 215//107 206//107 214//107
f 215//107 207//107 206//107
f 7//108 6//108 210//108
f 6//108 208//108 210//108
f 58//109 155//109 57//109
f 187//109 159//109 178//109
f 49//109 205//109 26//109
f 199//109 48//109 41//109
f 212//109 214//109 199//109
f 214//109 206//109 199//109
f 210//109 150//109 152//109
f 159//109 56//109 15//109
f 159//109 191//109 193//109
f 48//109 199//109 47//109
f 199//109 46//109 47//109
f 199//109 206//109 46//109
f 206//109 45//109 46//109
f 206//109 34//109 45//109
f 7//109 210//109 44//109
f 210//109 43//109 44//109
f 210//109 152//109 43//109
f 152//109 42//109 43//109
f 152//109 1//109 42//109
f 62//109 216//109 61//109
f 216//109 60//109 61//109
f 216//109 59//109 60//109
f 150//109 210//109 148//109
f 210//109 145//109 148//109
f 210//109 163//109 145//109
f 163//109 216//109 145//109
f 163//109 155//109 216//109
f 155//109 59//109 216//109
f 155//109 58//109 59//109
f 84//109 205//109 82//109
f 205//109 80//109 82//109
f 205//109 78//109 80//109
f 191//109 159//109 189//109
f 159//109 186//109 189//109
f 159//109 187//109 186//109
f 25//109 187//109 19//109
f 187//109 18//109 19//109
f 187//109 178//109 18//109
f 178//109 17//109 18//109
f 178//109 16//109 17//109
f 78//109 205//109 76//109
f 205//109 74//109 76//109
f 205//109 217//109 74//109
f 56//109 159//109 55//109
f 159//109 54//109 55//109
f 159//109 193//109 54//109
f 193//109 53//109 54//109
f 193//109 8//109 53//109
f 33//109 217//109 52//109
f 217//109 51//109 52//109
f 217//109 205//109 51//109
f 205//109 50//109 51//109
f 205//109 49//109 50//109
f 100//109 210//109 98//109
f 210//109 96//109 98//109
f 210//109 94//109 96//109
f 74//109 217//109 72//109
f 217//109 218//109 72//109
f 217//109 171//109 218//109
f 171//109 140//109 218//109
f 171//109 174//109 140//109
f 174//109 138//109 140//109
f 174//109 176//109 138//109
f 176//109 136//109 138//109
f 176//109 178//109 136//109
f 178//109 134//109 136//109
f 178//109 132//109 134//109
f 159//109 122//109 124//109
f 122//109 159//109 120//109
f 159//109 118//109 120//109
f 159//109 158//109 118//109
f 158//109 116//109 118//109
f 158//109 161//109 116//109
f 161//109 114//109 116//109
f 161//109 163//109 114//109
f 114//109 163//109 112//109
f 163//109 110//109 112//109
f 163//109 108//109 110//109
f 94//109 210//109 92//109
f 210//109 90//109 92//109
f 210//109 88//109 90//109
f 132//109 178//109 130//109
f 178//109 128//109 130//109
f 178//109 159//109 128//109
f 159//109 126//109 128//109
f 159//109 124//109 126//109
f 108//109 163//109 106//109
f 163//109 104//109 106//109
f 163//109 210//109 104//109
f 210//109 102//109 104//109
f 210//109 100//109 102//109
f 203//109 205//109 88//109
f 205//109 86//109 88//109
f 205//109 84//109 86//109
f 212//109 199//109 209//109
f 199//109 210//109 209//109
f 199//109 198//109 210//109
f 198//109 88//109 210//109
f 198//109 201//109 88//109
f 201//109 203//109 88//109
f 23//110 185//110 24//110
f 13//110 157//110 14//110
f 195//110 28//110 27//110
f 200//110 197//110 219//110
f 197//110 173//110 219//110
f 197//110 175//110 173//110
f 157//110 188//110 185//110
f 188//110 157//110 190//110
f 157//110 192//110 190//110
f 157//110 183//110 192//110
f 220//110 160//110 157//110
f 200//110 219//110 202//110
f 219//110 204//110 202//110
f 219//110 195//110 204//110
f 20//110 168//110 21//110
f 168//110 22//110 21//110
f 156//110 67//110 68//110
f 28//110 195//110 29//110
f 195//110 30//110 29//110
f 195//110 219//110 30//110
f 219//110 221//111 30//110
f 219//110 32//112 221//111
f 175//110 197//110 177//110
f 197//110 168//110 177//110
f 197//110 185//110 168//110
f 185//110 22//110 168//110
f 185//110 23//110 22//110
f 160//110 220//110 162//110
f 220//110 164//110 162//110
f 220//110 156//110 164//110
f 197//110 207//110 73//110
f 207//110 75//110 73//110
f 207//110 36//110 35//110
f 9//110 183//110 10//110
f 183//110 11//110 10//110
f 183//110 157//110 11//110
f 157//110 12//110 11//110
f 157//110 13//110 12//110
f 67//110 156//110 66//110
f 156//110 65//110 66//110
f 156//110 220//110 65//110
f 220//110 222//110 65//110
f 220//110 63//110 222//110
f 81//110 208//110 83//110
f 208//110 85//110 83//110
f 208//110 142//110 85//110
f 142//110 223//110 85//110
f 142//110 89//110 223//110
f 95//110 142//110 97//110
f 142//110 99//110 97//110
f 142//110 151//110 99//110
f 151//110 101//110 99//110
f 151//110 149//110 101//110
f 149//110 147//110 101//110
f 2//110 142//110 3//110
f 142//110 4//110 3//110
f 142//110 208//110 4//110
f 208//110 5//110 4//110
f 208//110 6//110 5//110
f 81//110 79//110 208//110
f 79//110 211//110 208//110
f 79//110 213//110 211//110
f 135//110 185//110 137//110
f 89//110 142//110 91//110
f 142//110 93//110 91//110
f 142//110 95//110 93//110
f 75//110 207//110 77//110
f 207//110 79//110 77//110
f 207//110 215//110 79//110
f 215//110 213//110 79//110
f 36//110 207//110 37//110
f 207//110 38//110 37//110
f 207//110 197//110 38//110
f 197//110 39//110 38//110
f 197//110 40//110 39//110
f 127//110 185//110 129//110
f 129//110 185//110 131//110
f 185//110 133//110 131//110
f 185//110 135//110 133//110
f 137//110 185//110 139//110
f 185//110 224//110 139//110
f 185//110 197//110 224//110
f 197//110 70//110 224//110
f 197//110 73//110 70//110
f 101//110 147//110 103//110
f 147//110 225//110 103//110
f 147//110 220//110 225//110
f 220//110 107//110 225//110
f 113//110 111//110 157//110
f 111//110 220//110 157//110
f 111//110 109//110 220//110
f 109//110 107//110 220//110
f 113//110 157//110 115//110
f 157//110 117//110 115//110
f 157//110 119//110 117//110
f 119//110 157//110 121//110
f 157//110 226//110 121//110
f 157//110 185//110 226//110
f 185//110 125//110 226//110
f 185//110 127//110 125//110
f 14//113 56//113 13//113
f 14//113 15//113 56//113
f 9//114 53//114 8//114
f 9//114 10//114 53//114
f 16//115 169//79 20//80
f 25//116 23//116 24//116
f 16//115 21//117 17//117
f 16//115 20//80 21//117
f 33//118 221//111 32//112
f 26//119 196//95 27//119
f 2//120 42//120 1//120
f 16//115 167//78 169//79
f 25//116 19//116 23//116
f 33//118 52//118 221//111
f 26//119 194//94 196//95
f 2//120 3//120 42//120
l 30 31
l 31 32
l 63 64
l 64 65
l 17 169
l 42 143
