# Blender v2.79 (sub 6) OBJ File: 'repose_ledge.blend'
# www.blender.org
o BezierCircle
v -1.000000 0.000000 0.000000
v -0.990868 0.135661 0.000000
v -0.964268 0.265784 0.000000
v -0.921393 0.389178 0.000000
v -0.863435 0.504648 0.000000
v -0.791589 0.611002 0.000000
v -0.707047 0.707047 0.000000
v -0.611002 0.791589 0.000000
v -0.504648 0.863435 0.000000
v -0.389178 0.921393 0.000000
v -0.265784 0.964268 0.000000
v -0.135661 0.990868 0.000000
v 0.000000 1.000000 0.000000
v 0.135661 0.990868 0.000000
v 0.265784 0.964268 0.000000
v 0.389178 0.921393 0.000000
v 0.504648 0.863435 0.000000
v 0.611002 0.791589 0.000000
v 0.707047 0.707047 0.000000
v 0.791589 0.611002 0.000000
v 0.863435 0.504648 0.000000
v 0.921393 0.389178 0.000000
v 0.964268 0.265784 0.000000
v 0.990868 0.135661 0.000000
v 1.000000 0.000000 0.000000
v 0.990868 -0.135661 0.000000
v 0.964268 -0.265784 0.000000
v 0.921393 -0.389178 0.000000
v 0.863435 -0.504648 0.000000
v 0.791589 -0.611002 0.000000
v 0.707047 -0.707047 0.000000
v 0.611002 -0.791589 0.000000
v 0.504648 -0.863435 0.000000
v 0.389178 -0.921393 0.000000
v 0.265784 -0.964268 0.000000
v 0.135661 -0.990868 0.000000
v 0.000000 -1.000000 0.000000
v -0.135661 -0.990868 0.000000
v -0.265784 -0.964268 0.000000
v -0.389178 -0.921393 0.000000
v -0.504648 -0.863435 0.000000
v -0.611002 -0.791589 0.000000
v -0.707047 -0.707047 0.000000
v -0.791589 -0.611002 0.000000
v -0.863435 -0.504648 0.000000
v -0.921393 -0.389178 0.000000
v -0.964268 -0.265784 0.000000
v -0.990868 -0.135661 0.000000
l 1 2
l 2 3
l 3 4
l 4 5
l 5 6
l 6 7
l 7 8
l 8 9
l 9 10
l 10 11
l 11 12
l 12 13
l 13 14
l 14 15
l 15 16
l 16 17
l 17 18
l 18 19
l 19 20
l 20 21
l 21 22
l 22 23
l 23 24
l 24 25
l 25 26
l 26 27
l 27 28
l 28 29
l 29 30
l 30 31
l 31 32
l 32 33
l 33 34
l 34 35
l 35 36
l 36 37
l 37 38
l 38 39
l 39 40
l 40 41
l 41 42
l 42 43
l 43 44
l 44 45
l 45 46
l 46 47
l 47 48
l 48 1
o Circle_Circle.001
v 0.000000 1.300000 0.000000
v -0.253617 1.275021 0.000000
v -0.497488 1.201043 0.000000
v -0.722241 1.080910 0.000000
v -0.919239 0.919239 0.000000
v -1.080911 0.722241 0.000000
v -1.201043 0.497488 0.000000
v -1.275021 0.253617 0.000000
v -1.300000 0.000000 0.000000
v -1.275021 -0.253617 0.000000
v -1.201043 -0.497488 0.000000
v -1.080911 -0.722241 0.000000
v -0.919239 -0.919239 0.000000
v -0.722241 -1.080911 0.000000
v -0.497488 -1.201043 0.000000
v -0.253617 -1.275021 0.000000
v 0.000000 -1.300000 0.000000
v 0.253618 -1.275021 0.000000
v 0.497489 -1.201043 0.000000
v 0.722242 -1.080910 0.000000
v 0.919239 -0.919238 0.000000
v 1.080911 -0.722241 0.000000
v 1.201044 -0.497487 0.000000
v 1.275021 -0.253616 0.000000
v 1.300000 0.000001 0.000000
v 1.275021 0.253619 0.000000
v 1.201043 0.497490 0.000000
v 1.080910 0.722243 0.000000
v 0.919238 0.919240 0.000000
v 0.722240 1.080911 0.000000
v 0.497487 1.201044 0.000000
v 0.253615 1.275021 0.000000
v -0.990866 0.135660 0.000000
v -0.964266 0.265784 0.000000
v -0.921391 0.389177 0.000000
v -0.863433 0.504647 0.000000
v -0.791587 0.611001 0.000000
v -0.707045 0.707046 0.000000
v -0.611001 0.791587 0.000000
v -0.504647 0.863433 0.000000
v -0.389177 0.921391 0.000000
v -0.265784 0.964266 0.000000
v -0.135660 0.990866 0.000000
v -0.000000 0.999998 0.000000
v 0.135660 0.990866 0.000000
v 0.265784 0.964266 0.000000
v 0.389177 0.921390 0.000000
v 0.504647 0.863433 0.000000
v 0.611001 0.791587 0.000000
v 0.707045 0.707046 0.000000
v 0.791587 0.611001 0.000000
v 0.863433 0.504647 0.000000
v 0.921391 0.389177 0.000000
v 0.964266 0.265784 0.000000
v 0.990866 0.135660 0.000000
v 0.999998 0.000000 0.000000
v 0.990866 -0.135660 0.000000
v 0.964266 -0.265783 0.000000
v 0.921391 -0.389177 0.000000
v 0.863433 -0.504647 0.000000
v 0.791587 -0.611001 0.000000
v 0.707046 -0.707045 0.000000
v 0.611001 -0.791587 0.000000
v 0.504647 -0.863433 0.000000
v 0.389177 -0.921391 0.000000
v 0.265784 -0.964266 0.000000
v 0.135660 -0.990866 0.000000
v 0.000000 -0.999998 0.000000
v -0.135660 -0.990866 0.000000
v -0.265784 -0.964266 0.000000
v -0.389177 -0.921390 0.000000
v -0.504647 -0.863434 0.000000
v -0.611001 -0.791587 0.000000
v -0.707045 -0.707046 0.000000
v -0.791587 -0.611001 0.000000
v -0.863433 -0.504647 0.000000
v -0.921391 -0.389177 0.000000
v -0.964266 -0.265784 0.000000
v -0.990866 -0.135660 0.000000
v -0.999998 -0.000000 0.000000
v 0.000000 1.300000 -0.050000
v 0.253615 1.275021 -0.050000
v 0.497487 1.201044 -0.050000
v 0.722240 1.080911 -0.050000
v 0.919238 0.919240 -0.050000
v 1.080910 0.722243 -0.050000
v 1.201043 0.497490 -0.050000
v 1.275021 0.253619 -0.050000
v 1.300000 0.000001 -0.050000
v 0.999998 0.000000 -0.050000
v 0.990866 0.135660 -0.050000
v 0.964266 0.265784 -0.050000
v 0.921391 0.389177 -0.050000
v 0.863433 0.504647 -0.050000
v 0.791587 0.611001 -0.050000
v 0.707045 0.707046 -0.050000
v 0.611001 0.791587 -0.050000
v 0.504647 0.863433 -0.050000
v 0.389177 0.921390 -0.050000
v 0.265784 0.964266 -0.050000
v 0.135660 0.990866 -0.050000
v -0.000000 0.999998 -0.050000
v -0.135660 0.990866 -0.050000
v -0.265784 0.964266 -0.050000
v -0.389177 0.921391 -0.050000
v -0.504647 0.863433 -0.050000
v -0.611001 0.791587 -0.050000
v -0.707045 0.707046 -0.050000
v -0.791587 0.611001 -0.050000
v -0.863433 0.504647 -0.050000
v -0.921391 0.389177 -0.050000
v -0.964266 0.265784 -0.050000
v -0.990866 0.135660 -0.050000
v -0.999998 -0.000000 -0.050000
v -1.300000 0.000000 -0.050000
v -1.275021 0.253617 -0.050000
v -1.201043 0.497488 -0.050000
v -1.080911 0.722241 -0.050000
v -0.919239 0.919239 -0.050000
v -0.722241 1.080910 -0.050000
v -0.497488 1.201043 -0.050000
v -0.253617 1.275021 -0.050000
v 1.275021 -0.253616 -0.050000
v 1.201044 -0.497487 -0.050000
v 1.080911 -0.722241 -0.050000
v 0.919239 -0.919238 -0.050000
v 0.722242 -1.080910 -0.050000
v 0.497489 -1.201043 -0.050000
v 0.253618 -1.275021 -0.050000
v 0.000000 -1.300000 -0.050000
v -0.253617 -1.275021 -0.050000
v -0.497488 -1.201043 -0.050000
v -0.722241 -1.080911 -0.050000
v -0.919239 -0.919239 -0.050000
v -1.080911 -0.722241 -0.050000
v -1.201043 -0.497488 -0.050000
v -1.275021 -0.253617 -0.050000
v -0.990866 -0.135660 -0.050000
v -0.964266 -0.265784 -0.050000
v -0.921391 -0.389177 -0.050000
v -0.863433 -0.504647 -0.050000
v -0.791587 -0.611001 -0.050000
v -0.707045 -0.707046 -0.050000
v -0.611001 -0.791587 -0.050000
v -0.504647 -0.863434 -0.050000
v -0.389177 -0.921390 -0.050000
v -0.265784 -0.964266 -0.050000
v -0.135660 -0.990866 -0.050000
v 0.000000 -0.999998 -0.050000
v 0.135660 -0.990866 -0.050000
v 0.265784 -0.964266 -0.050000
v 0.389177 -0.921391 -0.050000
v 0.504647 -0.863433 -0.050000
v 0.611001 -0.791587 -0.050000
v 0.707046 -0.707045 -0.050000
v 0.791587 -0.611001 -0.050000
v 0.863433 -0.504647 -0.050000
v 0.921391 -0.389177 -0.050000
v 0.964266 -0.265783 -0.050000
v 0.990866 -0.135660 -0.050000
vn 0.0000 0.0000 1.0000
vn 0.0000 0.0000 -1.0000
vn 0.2903 -0.9569 0.0000
vn 0.4486 0.8937 0.0000
vn -0.2003 -0.9797 0.0000
vn 0.4714 -0.8819 0.0000
vn 0.5598 0.8286 0.0000
vn -0.3282 -0.9446 0.0000
vn 0.6344 -0.7730 0.0000
vn 0.6607 0.7506 0.0000
vn -0.4486 -0.8937 0.0000
vn 0.7730 -0.6344 0.0000
vn 0.7506 0.6607 0.0000
vn -0.5598 -0.8286 0.0000
vn 0.8819 -0.4714 0.0000
vn 0.8286 0.5598 0.0000
vn -0.6607 -0.7506 0.0000
vn 0.9569 -0.2903 0.0000
vn 0.8937 0.4486 0.0000
vn -0.7506 -0.6607 0.0000
vn 0.9952 -0.0980 0.0000
vn 0.9446 0.3282 0.0000
vn -0.8286 -0.5598 0.0000
vn 0.9952 0.0980 0.0000
vn 0.9797 0.2003 0.0000
vn -0.8937 -0.4486 0.0000
vn 0.9569 0.2903 0.0000
vn 0.9977 0.0672 0.0000
vn -0.9446 -0.3282 0.0000
vn 0.8819 0.4714 0.0000
vn -0.0980 0.9952 0.0000
vn 0.9977 -0.0672 0.0000
vn -0.9797 -0.2003 0.0000
vn 0.7730 0.6344 0.0000
vn -0.2903 0.9569 0.0000
vn -0.9977 -0.0672 0.0000
vn 0.6344 0.7730 0.0000
vn -0.4714 0.8819 0.0000
vn -0.9977 0.0672 0.0000
vn 0.4714 0.8819 0.0000
vn -0.6344 0.7730 0.0000
vn -0.9797 0.2003 0.0000
vn 0.2903 0.9569 0.0000
vn -0.7730 0.6344 0.0000
vn -0.9446 0.3282 0.0000
vn 0.0980 0.9952 0.0000
vn -0.8819 0.4714 0.0000
vn -0.8937 0.4486 0.0000
vn 0.9797 -0.2003 0.0000
vn -0.9569 0.2903 0.0000
vn -0.8286 0.5598 0.0000
vn 0.9446 -0.3282 0.0000
vn -0.9952 0.0980 0.0000
vn -0.7506 0.6607 0.0000
vn 0.8937 -0.4486 0.0000
vn -0.9952 -0.0980 0.0000
vn -0.6607 0.7506 0.0000
vn 0.8286 -0.5598 0.0000
vn -0.9569 -0.2903 0.0000
vn -0.5598 0.8286 0.0000
vn 0.7506 -0.6607 0.0000
vn -0.8819 -0.4714 0.0000
vn -0.4486 0.8937 0.0000
vn 0.6607 -0.7506 0.0000
vn -0.7730 -0.6344 0.0000
vn -0.3282 0.9446 0.0000
vn 0.5598 -0.8286 0.0000
vn -0.6344 -0.7730 0.0000
vn -0.2003 0.9797 0.0000
vn 0.4486 -0.8937 0.0000
vn -0.4714 -0.8819 0.0000
vn -0.0672 0.9977 0.0000
vn 0.3282 -0.9446 0.0000
vn -0.2903 -0.9569 0.0000
vn 0.0672 0.9977 0.0000
vn 0.2003 -0.9797 0.0000
vn -0.0980 -0.9952 0.0000
vn 0.2003 0.9797 0.0000
vn 0.0672 -0.9977 0.0000
vn 0.0980 -0.9952 0.0000
vn 0.3282 0.9446 0.0000
vn -0.0672 -0.9977 0.0000
s off
f 93//1 94//1 80//1
f 116//1 65//1 115//1
f 151//2 152//2 170//2
f 178//2 197//2 198//2
f 66//3 176//3 67//3
f 119//4 193//4 120//4
f 93//5 148//5 94//5
f 67//6 175//6 68//6
f 120//7 192//7 121//7
f 94//8 147//8 95//8
f 68//9 174//9 69//9
f 121//10 191//10 122//10
f 95//11 146//11 96//11
f 69//12 173//12 70//12
f 122//13 190//13 123//13
f 96//14 145//14 97//14
f 70//15 172//15 71//15
f 123//16 189//16 124//16
f 97//17 144//17 98//17
f 71//18 171//18 72//18
f 124//19 188//19 125//19
f 98//20 143//20 99//20
f 72//21 137//21 73//21
f 125//22 187//22 126//22
f 99//23 142//23 100//23
f 73//24 136//24 74//24
f 126//25 186//25 127//25
f 100//26 141//26 101//26
f 74//27 135//27 75//27
f 127//28 162//28 128//28
f 101//29 140//29 102//29
f 75//30 134//30 76//30
f 49//31 170//31 50//31
f 128//32 161//32 81//32
f 102//33 139//33 103//33
f 76//34 133//34 77//34
f 50//35 169//35 51//35
f 103//36 138//36 104//36
f 77//37 132//37 78//37
f 51//38 168//38 52//38
f 104//39 208//39 105//39
f 78//40 131//40 79//40
f 52//41 167//41 53//41
f 105//42 207//42 106//42
f 79//43 130//43 80//43
f 53//44 166//44 54//44
f 106//45 206//45 107//45
f 80//46 129//46 49//46
f 54//47 165//47 55//47
f 107//48 205//48 108//48
f 81//49 160//49 82//49
f 55//50 164//50 56//50
f 108//51 204//51 109//51
f 82//52 159//52 83//52
f 56//53 163//53 57//53
f 109//54 203//54 110//54
f 83//55 158//55 84//55
f 57//56 185//56 58//56
f 110//57 202//57 111//57
f 84//58 157//58 85//58
f 58//59 184//59 59//59
f 111//60 201//60 112//60
f 85//61 156//61 86//61
f 59//62 183//62 60//62
f 112//63 200//63 113//63
f 86//64 155//64 87//64
f 60//65 182//65 61//65
f 113//66 199//66 114//66
f 87//67 154//67 88//67
f 61//68 181//68 62//68
f 114//69 198//69 115//69
f 88//70 153//70 89//70
f 62//71 180//71 63//71
f 115//72 197//72 116//72
f 89//73 152//73 90//73
f 63//74 179//74 64//74
f 116//75 196//75 117//75
f 90//76 151//76 91//76
f 64//77 178//77 65//77
f 117//78 195//78 118//78
f 91//79 150//79 92//79
f 65//80 177//80 66//80
f 118//81 194//81 119//81
f 92//82 149//82 93//82
f 72//1 73//1 105//1
f 73//1 104//1 105//1
f 70//1 71//1 108//1
f 71//1 72//1 106//1
f 68//1 69//1 111//1
f 69//1 70//1 109//1
f 110//1 69//1 109//1
f 66//1 67//1 114//1
f 67//1 68//1 112//1
f 64//1 65//1 117//1
f 65//1 66//1 115//1
f 117//1 65//1 116//1
f 62//1 63//1 120//1
f 63//1 64//1 118//1
f 120//1 63//1 119//1
f 60//1 61//1 123//1
f 61//1 62//1 121//1
f 123//1 61//1 122//1
f 58//1 59//1 126//1
f 59//1 60//1 124//1
f 125//1 59//1 124//1
f 128//1 57//1 127//1
f 57//1 58//1 127//1
f 59//1 125//1 126//1
f 67//1 112//1 113//1
f 69//1 110//1 111//1
f 71//1 106//1 107//1
f 72//1 105//1 106//1
f 126//1 127//1 58//1
f 71//1 107//1 108//1
f 124//1 60//1 123//1
f 70//1 108//1 109//1
f 122//1 61//1 121//1
f 68//1 111//1 112//1
f 120//1 121//1 62//1
f 67//1 113//1 114//1
f 119//1 63//1 118//1
f 118//1 64//1 117//1
f 66//1 114//1 115//1
f 80//1 49//1 93//1
f 49//1 50//1 91//1
f 93//1 49//1 92//1
f 50//1 51//1 90//1
f 51//1 52//1 88//1
f 90//1 51//1 89//1
f 52//1 53//1 87//1
f 53//1 54//1 85//1
f 54//1 55//1 84//1
f 55//1 56//1 82//1
f 83//1 55//1 82//1
f 56//1 57//1 81//1
f 57//1 128//1 81//1
f 53//1 85//1 86//1
f 55//1 83//1 84//1
f 78//1 79//1 96//1
f 79//1 80//1 94//1
f 76//1 77//1 99//1
f 77//1 78//1 97//1
f 99//1 77//1 98//1
f 74//1 75//1 102//1
f 75//1 76//1 100//1
f 101//1 75//1 100//1
f 104//1 73//1 103//1
f 73//1 74//1 103//1
f 75//1 101//1 102//1
f 79//1 94//1 95//1
f 92//1 49//1 91//1
f 56//1 81//1 82//1
f 102//1 103//1 74//1
f 54//1 84//1 85//1
f 100//1 76//1 99//1
f 53//1 86//1 87//1
f 98//1 77//1 97//1
f 52//1 87//1 88//1
f 96//1 97//1 78//1
f 88//1 89//1 51//1
f 95//1 96//1 79//1
f 90//1 91//1 50//1
f 170//2 129//2 151//2
f 129//2 130//2 149//2
f 151//2 129//2 150//2
f 130//2 131//2 148//2
f 131//2 132//2 146//2
f 148//2 131//2 147//2
f 132//2 133//2 145//2
f 133//2 134//2 143//2
f 134//2 135//2 142//2
f 135//2 136//2 140//2
f 141//2 135//2 140//2
f 136//2 137//2 139//2
f 137//2 138//2 139//2
f 133//2 143//2 144//2
f 135//2 141//2 142//2
f 168//2 169//2 154//2
f 169//2 170//2 152//2
f 166//2 167//2 157//2
f 167//2 168//2 155//2
f 157//2 167//2 156//2
f 164//2 165//2 160//2
f 165//2 166//2 158//2
f 159//2 165//2 158//2
f 162//2 163//2 161//2
f 163//2 164//2 161//2
f 165//2 159//2 160//2
f 169//2 152//2 153//2
f 150//2 129//2 149//2
f 136//2 139//2 140//2
f 160//2 161//2 164//2
f 134//2 142//2 143//2
f 158//2 166//2 157//2
f 133//2 144//2 145//2
f 156//2 167//2 155//2
f 132//2 145//2 146//2
f 154//2 155//2 168//2
f 146//2 147//2 131//2
f 153//2 154//2 169//2
f 148//2 149//2 130//2
f 138//2 137//2 208//2
f 137//2 171//2 208//2
f 171//2 172//2 207//2
f 172//2 173//2 205//2
f 207//2 172//2 206//2
f 173//2 174//2 204//2
f 174//2 175//2 202//2
f 204//2 174//2 203//2
f 175//2 176//2 201//2
f 176//2 177//2 199//2
f 201//2 176//2 200//2
f 177//2 178//2 198//2
f 178//2 179//2 196//2
f 179//2 180//2 195//2
f 180//2 181//2 193//2
f 181//2 182//2 192//2
f 182//2 183//2 190//2
f 183//2 184//2 189//2
f 184//2 185//2 187//2
f 188//2 184//2 187//2
f 185//2 163//2 186//2
f 163//2 162//2 186//2
f 182//2 190//2 191//2
f 184//2 188//2 189//2
f 178//2 196//2 197//2
f 180//2 193//2 194//2
f 208//2 171//2 207//2
f 185//2 186//2 187//2
f 206//2 172//2 205//2
f 183//2 189//2 190//2
f 204//2 205//2 173//2
f 182//2 191//2 192//2
f 203//2 174//2 202//2
f 202//2 175//2 201//2
f 181//2 192//2 193//2
f 200//2 176//2 199//2
f 180//2 194//2 195//2
f 179//2 195//2 196//2
f 198//2 199//2 177//2
f 66//3 177//3 176//3
f 119//4 194//4 193//4
f 93//5 149//5 148//5
f 67//6 176//6 175//6
f 120//7 193//7 192//7
f 94//8 148//8 147//8
f 68//9 175//9 174//9
f 121//10 192//10 191//10
f 95//11 147//11 146//11
f 69//12 174//12 173//12
f 122//13 191//13 190//13
f 96//14 146//14 145//14
f 70//15 173//15 172//15
f 123//16 190//16 189//16
f 97//17 145//17 144//17
f 71//18 172//18 171//18
f 124//19 189//19 188//19
f 98//20 144//20 143//20
f 72//21 171//21 137//21
f 125//22 188//22 187//22
f 99//23 143//23 142//23
f 73//24 137//24 136//24
f 126//25 187//25 186//25
f 100//26 142//26 141//26
f 74//27 136//27 135//27
f 127//28 186//28 162//28
f 101//29 141//29 140//29
f 75//30 135//30 134//30
f 49//31 129//31 170//31
f 128//32 162//32 161//32
f 102//33 140//33 139//33
f 76//34 134//34 133//34
f 50//35 170//35 169//35
f 103//36 139//36 138//36
f 77//37 133//37 132//37
f 51//38 169//38 168//38
f 104//39 138//39 208//39
f 78//40 132//40 131//40
f 52//41 168//41 167//41
f 105//42 208//42 207//42
f 79//43 131//43 130//43
f 53//44 167//44 166//44
f 106//45 207//45 206//45
f 80//46 130//46 129//46
f 54//47 166//47 165//47
f 107//48 206//48 205//48
f 81//49 161//49 160//49
f 55//50 165//50 164//50
f 108//51 205//51 204//51
f 82//52 160//52 159//52
f 56//53 164//53 163//53
f 109//54 204//54 203//54
f 83//55 159//55 158//55
f 57//56 163//56 185//56
f 110//57 203//57 202//57
f 84//58 158//58 157//58
f 58//59 185//59 184//59
f 111//60 202//60 201//60
f 85//61 157//61 156//61
f 59//62 184//62 183//62
f 112//63 201//63 200//63
f 86//64 156//64 155//64
f 60//65 183//65 182//65
f 113//66 200//66 199//66
f 87//67 155//67 154//67
f 61//68 182//68 181//68
f 114//69 199//69 198//69
f 88//70 154//70 153//70
f 62//71 181//71 180//71
f 115//72 198//72 197//72
f 89//73 153//73 152//73
f 63//74 180//74 179//74
f 116//75 197//75 196//75
f 90//76 152//76 151//76
f 64//77 179//77 178//77
f 117//78 196//78 195//78
f 91//79 151//79 150//79
f 65//80 178//80 177//80
f 118//81 195//81 194//81
f 92//82 150//82 149//82
