# Blender v2.79 (sub 6) OBJ File: 'dish.blend'
# www.blender.org
o Cylinder
v 0.000000 1.000000 -0.050000
v 0.000000 1.000000 0.050000
v 0.195090 0.980785 -0.050000
v 0.195090 0.980785 0.050000
v 0.382683 0.923880 -0.050000
v 0.382683 0.923880 0.050000
v 0.555570 0.831470 -0.050000
v 0.555570 0.831470 0.050000
v 0.707107 0.707107 -0.050000
v 0.707107 0.707107 0.050000
v 0.831470 0.555570 -0.050000
v 0.831470 0.555570 0.050000
v 0.923880 0.382683 -0.050000
v 0.923880 0.382683 0.050000
v 0.980785 0.195090 -0.050000
v 0.980785 0.195090 0.050000
v 1.000000 0.000000 -0.050000
v 1.000000 0.000000 0.050000
v 0.980785 -0.195090 -0.050000
v 0.980785 -0.195090 0.050000
v 0.923880 -0.382683 -0.050000
v 0.923880 -0.382683 0.050000
v 0.831470 -0.555570 -0.050000
v 0.831470 -0.555570 0.050000
v 0.707107 -0.707107 -0.050000
v 0.707107 -0.707107 0.050000
v 0.555570 -0.831470 -0.050000
v 0.555570 -0.831470 0.050000
v 0.382683 -0.923880 -0.050000
v 0.382683 -0.923880 0.050000
v 0.195090 -0.980785 -0.050000
v 0.195090 -0.980785 0.050000
v -0.000000 -1.000000 -0.050000
v -0.000000 -1.000000 0.050000
v -0.195091 -0.980785 -0.050000
v -0.195091 -0.980785 0.050000
v -0.382684 -0.923879 -0.050000
v -0.382684 -0.923879 0.050000
v -0.555571 -0.831469 -0.050000
v -0.555571 -0.831469 0.050000
v -0.707107 -0.707106 -0.050000
v -0.707107 -0.707106 0.050000
v -0.831470 -0.555570 -0.050000
v -0.831470 -0.555570 0.050000
v -0.923880 -0.382683 -0.050000
v -0.923880 -0.382683 0.050000
v -0.980785 -0.195089 -0.050000
v -0.980785 -0.195089 0.050000
v -1.000000 0.000001 -0.050000
v -1.000000 0.000001 0.050000
v -0.980785 0.195091 -0.050000
v -0.980785 0.195091 0.050000
v -0.923879 0.382684 -0.050000
v -0.923879 0.382684 0.050000
v -0.831469 0.555571 -0.050000
v -0.831469 0.555571 0.050000
v -0.707106 0.707108 -0.050000
v -0.707106 0.707108 0.050000
v -0.555569 0.831470 -0.050000
v -0.555569 0.831470 0.050000
v -0.382682 0.923880 -0.050000
v -0.382682 0.923880 0.050000
v -0.195089 0.980786 -0.050000
v -0.195089 0.980786 0.050000
v 0.539110 -0.763782 -0.050000
v 0.671208 -0.573238 -0.050000
v 0.773900 -0.359568 -0.050000
v 0.843240 -0.130985 -0.050000
v 0.876563 0.103727 -0.050000
v 0.872589 0.335548 -0.050000
v 0.341360 -0.788365 -0.050000
v 0.469891 -0.564247 -0.050000
v 0.575745 -0.317043 -0.050000
v 0.654855 -0.056255 -0.050000
v 0.704179 0.208097 -0.050000
v 0.721822 0.465852 -0.050000
v 0.123775 -0.780614 -0.050000
v 0.239176 -0.530132 -0.050000
v 0.341767 -0.258179 -0.050000
v 0.427606 0.024793 -0.050000
v 0.493393 0.307909 -0.050000
v 0.536602 0.580291 -0.050000
v -0.102700 -0.741610 -0.050000
v -0.007713 -0.473526 -0.050000
v 0.086220 -0.186834 -0.050000
v 0.175489 0.107446 -0.050000
v 0.256664 0.398008 -0.050000
v 0.326625 0.673683 -0.050000
v -0.326625 -0.673683 -0.050000
v -0.256664 -0.398007 -0.050000
v -0.175489 -0.107446 -0.050000
v -0.086220 0.186835 -0.050000
v 0.007713 0.473526 -0.050000
v 0.102700 0.741610 -0.050000
v -0.536602 -0.580290 -0.050000
v -0.493394 -0.307909 -0.050000
v -0.427606 -0.024792 -0.050000
v -0.341768 0.258180 -0.050000
v -0.239177 0.530132 -0.050000
v -0.123776 0.780614 -0.050000
v -0.721822 -0.465852 -0.050000
v -0.704179 -0.208096 -0.050000
v -0.654854 0.056256 -0.050000
v -0.575745 0.317044 -0.050000
v -0.469890 0.564247 -0.050000
v -0.341358 0.788365 -0.050000
v -0.872589 -0.335547 -0.050000
v -0.876563 -0.103726 -0.050000
v -0.843240 0.130986 -0.050000
v -0.773899 0.359569 -0.050000
v -0.671207 0.573239 -0.050000
v -0.539109 0.763783 -0.050000
v -0.000000 0.947853 -0.001875
v 0.184917 0.929640 -0.001875
v 0.185289 0.931509 0.050000
v -0.000000 0.949758 0.050000
v 0.362728 0.875702 -0.001875
v 0.363457 0.877462 0.050000
v 0.526599 0.788111 -0.001875
v 0.527657 0.789695 0.050000
v 0.670233 0.670233 -0.001875
v 0.671580 0.671580 0.050000
v 0.788111 0.526599 -0.001875
v 0.789695 0.527657 0.050000
v 0.875702 0.362728 -0.001875
v 0.877462 0.363457 0.050000
v 0.929640 0.184917 -0.001875
v 0.931509 0.185289 0.050000
v 0.947853 0.000000 -0.001875
v 0.949758 0.000000 0.050000
v 0.929640 -0.184917 -0.001875
v 0.931509 -0.185288 0.050000
v 0.875702 -0.362728 -0.001875
v 0.877462 -0.363457 0.050000
v 0.788111 -0.526599 -0.001875
v 0.789695 -0.527657 0.050000
v 0.670233 -0.670233 -0.001875
v 0.671580 -0.671580 0.050000
v 0.526599 -0.788111 -0.001875
v 0.527657 -0.789695 0.050000
v 0.362728 -0.875702 -0.001875
v 0.363457 -0.877462 0.050000
v 0.184917 -0.929641 -0.001875
v 0.185288 -0.931509 0.050000
v -0.000000 -0.947853 -0.001875
v -0.000000 -0.949758 0.050000
v -0.184917 -0.929640 -0.001875
v -0.185289 -0.931509 0.050000
v -0.362728 -0.875702 -0.001875
v -0.363457 -0.877462 0.050000
v -0.526599 -0.788111 -0.001875
v -0.527658 -0.789695 0.050000
v -0.670234 -0.670233 -0.001875
v -0.671581 -0.671580 0.050000
v -0.788112 -0.526598 -0.001875
v -0.789695 -0.527657 0.050000
v -0.875703 -0.362727 -0.001875
v -0.877462 -0.363456 0.050000
v -0.929641 -0.184916 -0.001875
v -0.931509 -0.185288 0.050000
v -0.947853 0.000001 -0.001875
v -0.949758 0.000001 0.050000
v -0.929640 0.184918 -0.001875
v -0.931509 0.185290 0.050000
v -0.875702 0.362729 -0.001875
v -0.877462 0.363458 0.050000
v -0.788110 0.526600 -0.001875
v -0.789694 0.527658 0.050000
v -0.670233 0.670234 -0.001875
v -0.671580 0.671581 0.050000
v -0.526598 0.788112 -0.001875
v -0.527656 0.789696 0.050000
v -0.362726 0.875703 -0.001875
v -0.363455 0.877463 0.050000
v -0.184916 0.929641 -0.001875
v -0.185287 0.931509 0.050000
v 0.539110 -0.763782 0.000000
v 0.341360 -0.788365 -0.000000
v 0.123775 -0.780614 -0.000000
v -0.102700 -0.741610 -0.000000
v -0.326625 -0.673683 0.000000
v -0.536602 -0.580290 -0.000000
v -0.721822 -0.465852 -0.000000
v -0.872589 -0.335547 0.000000
v 0.671208 -0.573238 0.000000
v 0.469891 -0.564247 -0.000000
v 0.239176 -0.530132 -0.000000
v -0.007713 -0.473526 0.000000
v -0.256664 -0.398007 0.000000
v -0.493394 -0.307909 -0.000000
v -0.704179 -0.208096 0.000000
v -0.876563 -0.103726 0.000000
v 0.773900 -0.359568 0.000000
v 0.575745 -0.317043 0.000000
v 0.341767 -0.258179 0.000000
v 0.086220 -0.186834 0.000000
v -0.175489 -0.107446 0.000000
v -0.427606 -0.024792 0.000000
v -0.654854 0.056256 0.000000
v -0.843240 0.130986 0.000000
v 0.843240 -0.130985 0.000000
v 0.654855 -0.056255 0.000000
v 0.427606 0.024793 0.000000
v 0.175489 0.107446 0.000000
v -0.086220 0.186835 0.000000
v -0.341768 0.258180 0.000000
v -0.575745 0.317044 0.000000
v -0.773899 0.359569 0.000000
v 0.876563 0.103727 -0.000000
v 0.704179 0.208097 -0.000000
v 0.493393 0.307909 -0.000000
v 0.256664 0.398008 0.000000
v 0.007713 0.473526 0.000000
v -0.239177 0.530132 -0.000000
v -0.469890 0.564247 -0.000000
v -0.671207 0.573239 -0.000000
v 0.872589 0.335548 0.000000
v 0.721822 0.465852 -0.000000
v 0.536602 0.580291 -0.000000
v 0.326625 0.673683 -0.000000
v 0.102700 0.741610 -0.000000
v -0.123776 0.780614 0.000000
v -0.341358 0.788365 0.000000
v -0.539109 0.763783 -0.000000
vn 0.0980 0.9952 0.0000
vn 0.2903 0.9569 0.0000
vn 0.4714 0.8819 0.0000
vn 0.6344 0.7730 0.0000
vn 0.7730 0.6344 0.0000
vn 0.8819 0.4714 0.0000
vn 0.9569 0.2903 0.0000
vn 0.9952 0.0980 0.0000
vn 0.9952 -0.0980 0.0000
vn 0.9569 -0.2903 0.0000
vn 0.8819 -0.4714 0.0000
vn 0.7730 -0.6344 0.0000
vn 0.6344 -0.7730 0.0000
vn 0.4714 -0.8819 0.0000
vn 0.2903 -0.9569 0.0000
vn 0.0980 -0.9952 0.0000
vn -0.0980 -0.9952 0.0000
vn -0.2903 -0.9569 0.0000
vn -0.4714 -0.8819 0.0000
vn -0.6344 -0.7730 0.0000
vn -0.7730 -0.6344 0.0000
vn -0.8819 -0.4714 0.0000
vn -0.9569 -0.2903 0.0000
vn -0.9952 -0.0980 0.0000
vn -0.9952 0.0980 0.0000
vn -0.9569 0.2903 0.0000
vn -0.8819 0.4714 0.0000
vn -0.7730 0.6344 0.0000
vn -0.6344 0.7730 0.0000
vn -0.4714 0.8819 0.0000
vn -0.2903 0.9569 0.0000
vn -0.0980 0.9952 0.0000
vn 0.0000 -0.0000 -1.0000
vn -0.0980 -0.9945 0.0365
vn -0.2901 -0.9563 0.0365
vn -0.4711 -0.8813 0.0365
vn -0.6340 -0.7725 0.0365
vn -0.7725 -0.6340 0.0365
vn -0.8813 -0.4711 0.0365
vn -0.9563 -0.2901 0.0365
vn -0.9945 -0.0980 0.0365
vn -0.9945 0.0980 0.0365
vn -0.9563 0.2901 0.0365
vn -0.8813 0.4711 0.0365
vn -0.7725 0.6340 0.0365
vn -0.6340 0.7725 0.0365
vn -0.4711 0.8813 0.0365
vn -0.2901 0.9563 0.0365
vn -0.0980 0.9945 0.0365
vn 0.0980 0.9945 0.0365
vn 0.2901 0.9563 0.0365
vn 0.4711 0.8813 0.0365
vn 0.6340 0.7725 0.0365
vn 0.7725 0.6340 0.0365
vn 0.8813 0.4711 0.0365
vn 0.9563 0.2901 0.0365
vn 0.9945 0.0980 0.0365
vn 0.9945 -0.0980 0.0365
vn 0.9563 -0.2901 0.0365
vn 0.8813 -0.4711 0.0365
vn 0.7725 -0.6340 0.0365
vn 0.6340 -0.7725 0.0365
vn 0.4711 -0.8813 0.0365
vn 0.2901 -0.9563 0.0365
vn 0.0980 -0.9945 0.0365
vn 0.0564 -0.1055 0.9928
vn 0.0061 -0.0200 0.9998
vn 0.0012 -0.0121 0.9999
vn -0.0009 -0.0096 1.0000
vn -0.0027 -0.0088 1.0000
vn -0.0045 -0.0085 1.0000
vn -0.0077 -0.0094 0.9999
vn -0.0161 -0.0132 0.9998
vn -0.1055 -0.0564 0.9928
vn 0.0283 -0.0196 0.9994
vn -0.0000 0.0000 1.0000
vn -0.0344 -0.0006 0.9994
vn 0.0198 -0.0095 0.9998
vn -0.0218 0.0031 0.9998
vn 0.0182 -0.0055 0.9998
vn -0.0182 0.0055 0.9998
vn 0.0204 -0.0020 0.9998
vn -0.0181 0.0097 0.9998
vn 0.0307 0.0030 0.9995
vn -0.0238 0.0196 0.9995
vn 0.1627 0.0494 0.9854
vn 0.0137 0.0159 0.9998
vn 0.0067 0.0109 0.9999
vn 0.0041 0.0092 0.9999
vn 0.0027 0.0088 1.0000
vn 0.0017 0.0099 0.9999
vn 0.0005 0.0128 0.9999
vn -0.0026 0.0208 0.9998
vn -0.1079 0.1314 0.9854
vn 0.1079 -0.1314 0.9854
vn 0.0026 -0.0208 0.9998
vn -0.0005 -0.0128 0.9999
vn -0.0017 -0.0099 0.9999
vn -0.0041 -0.0092 0.9999
vn -0.0067 -0.0109 0.9999
vn -0.0137 -0.0159 0.9998
vn -0.1627 -0.0494 0.9854
vn 0.0238 -0.0196 0.9995
vn -0.0307 -0.0030 0.9995
vn 0.0181 -0.0097 0.9998
vn -0.0204 0.0020 0.9998
vn 0.0218 -0.0031 0.9998
vn -0.0198 0.0095 0.9998
vn 0.0344 0.0006 0.9994
vn -0.0283 0.0196 0.9994
vn 0.1055 0.0564 0.9928
vn 0.0161 0.0132 0.9998
vn 0.0077 0.0094 0.9999
vn 0.0045 0.0085 1.0000
vn 0.0009 0.0096 1.0000
vn -0.0012 0.0121 0.9999
vn -0.0061 0.0200 0.9998
vn -0.0564 0.1055 0.9928
s off
f 2//1 3//1 1//1
f 4//2 5//2 3//2
f 6//3 7//3 5//3
f 8//4 9//4 7//4
f 10//5 11//5 9//5
f 12//6 13//6 11//6
f 14//7 15//7 13//7
f 16//8 17//8 15//8
f 18//9 19//9 17//9
f 20//10 21//10 19//10
f 22//11 23//11 21//11
f 24//12 25//12 23//12
f 26//13 27//13 25//13
f 28//14 29//14 27//14
f 30//15 31//15 29//15
f 32//16 33//16 31//16
f 34//17 35//17 33//17
f 36//18 37//18 35//18
f 38//19 39//19 37//19
f 40//20 41//20 39//20
f 42//21 43//21 41//21
f 44//22 45//22 43//22
f 46//23 47//23 45//23
f 48//24 49//24 47//24
f 50//25 51//25 49//25
f 52//26 53//26 51//26
f 54//27 55//27 53//27
f 56//28 57//28 55//28
f 58//29 59//29 57//29
f 60//30 61//30 59//30
f 62//31 63//31 61//31
f 64//32 1//32 63//32
f 27//33 65//33 25//33
f 29//33 71//33 65//33
f 31//33 77//33 71//33
f 33//33 83//33 77//33
f 37//33 83//33 35//33
f 39//33 89//33 37//33
f 41//33 95//33 39//33
f 43//33 101//33 41//33
f 45//33 107//33 43//33
f 25//33 66//33 23//33
f 65//33 72//33 66//33
f 71//33 78//33 72//33
f 77//33 84//33 78//33
f 89//33 84//33 83//33
f 95//33 90//33 89//33
f 101//33 96//33 95//33
f 107//33 102//33 101//33
f 47//33 108//33 107//33
f 23//33 67//33 21//33
f 66//33 73//33 67//33
f 72//33 79//33 73//33
f 78//33 85//33 79//33
f 90//33 85//33 84//33
f 96//33 91//33 90//33
f 102//33 97//33 96//33
f 108//33 103//33 102//33
f 49//33 109//33 108//33
f 67//33 19//33 21//33
f 67//33 74//33 68//33
f 73//33 80//33 74//33
f 79//33 86//33 80//33
f 85//33 92//33 86//33
f 91//33 98//33 92//33
f 103//33 98//33 97//33
f 103//33 110//33 104//33
f 109//33 53//33 110//33
f 68//33 17//33 19//33
f 74//33 69//33 68//33
f 80//33 75//33 74//33
f 86//33 81//33 80//33
f 92//33 87//33 86//33
f 92//33 99//33 93//33
f 98//33 105//33 99//33
f 104//33 111//33 105//33
f 110//33 55//33 111//33
f 69//33 15//33 17//33
f 75//33 70//33 69//33
f 81//33 76//33 75//33
f 87//33 82//33 81//33
f 87//33 94//33 88//33
f 93//33 100//33 94//33
f 99//33 106//33 100//33
f 105//33 112//33 106//33
f 111//33 57//33 112//33
f 70//33 13//33 15//33
f 76//33 11//33 70//33
f 82//33 9//33 76//33
f 88//33 7//33 82//33
f 88//33 3//33 5//33
f 94//33 1//33 3//33
f 100//33 63//33 1//33
f 106//33 61//33 63//33
f 112//33 59//33 61//33
f 114//34 116//34 113//34
f 117//35 115//35 114//35
f 117//36 120//36 118//36
f 121//37 120//37 119//37
f 123//38 122//38 121//38
f 125//39 124//39 123//39
f 127//40 126//40 125//40
f 129//41 128//41 127//41
f 129//42 132//42 130//42
f 131//43 134//43 132//43
f 133//44 136//44 134//44
f 135//45 138//45 136//45
f 139//46 138//46 137//46
f 141//47 140//47 139//47
f 141//48 144//48 142//48
f 145//49 144//49 143//49
f 147//50 146//50 145//50
f 147//51 150//51 148//51
f 151//52 150//52 149//52
f 153//53 152//53 151//53
f 155//54 154//54 153//54
f 157//55 156//55 155//55
f 159//56 158//56 157//56
f 161//57 160//57 159//57
f 163//58 162//58 161//58
f 165//59 164//59 163//59
f 167//60 166//60 165//60
f 169//61 168//61 167//61
f 169//62 172//62 170//62
f 171//63 174//63 172//63
f 175//64 174//64 173//64
f 113//65 176//65 175//65
f 139//66 177//66 141//66
f 141//67 178//67 143//67
f 143//68 179//68 145//68
f 145//69 180//69 147//69
f 180//70 149//70 147//70
f 181//71 151//71 149//71
f 182//72 153//72 151//72
f 183//73 155//73 153//73
f 184//74 157//74 155//74
f 137//75 185//75 177//75
f 177//76 186//76 178//76
f 178//76 187//76 179//76
f 179//76 188//76 180//76
f 188//76 181//76 180//76
f 189//76 182//76 181//76
f 190//76 183//76 182//76
f 191//76 184//76 183//76
f 192//77 159//77 184//77
f 135//78 193//78 185//78
f 185//76 194//76 186//76
f 186//76 195//76 187//76
f 187//76 196//76 188//76
f 196//76 189//76 188//76
f 197//76 190//76 189//76
f 198//76 191//76 190//76
f 199//76 192//76 191//76
f 200//79 161//79 192//79
f 133//80 201//80 193//80
f 193//76 202//76 194//76
f 194//76 203//76 195//76
f 195//76 204//76 196//76
f 196//76 205//76 197//76
f 205//76 198//76 197//76
f 206//76 199//76 198//76
f 207//76 200//76 199//76
f 200//81 165//81 163//81
f 129//82 201//82 131//82
f 209//76 202//76 201//76
f 210//76 203//76 202//76
f 211//76 204//76 203//76
f 212//76 205//76 204//76
f 205//76 214//76 206//76
f 206//76 215//76 207//76
f 207//76 216//76 208//76
f 208//83 167//83 165//83
f 127//84 209//84 129//84
f 217//76 210//76 209//76
f 218//76 211//76 210//76
f 219//76 212//76 211//76
f 212//76 221//76 213//76
f 213//76 222//76 214//76
f 214//76 223//76 215//76
f 215//76 224//76 216//76
f 216//85 169//85 167//85
f 125//86 217//86 127//86
f 123//87 218//87 217//87
f 121//88 219//88 218//88
f 119//89 220//89 219//89
f 220//90 114//90 221//90
f 221//91 113//91 222//91
f 222//92 175//92 223//92
f 223//93 173//93 224//93
f 224//94 171//94 169//94
f 20//76 134//76 22//76
f 38//76 152//76 40//76
f 56//76 170//76 58//76
f 12//76 126//76 14//76
f 30//76 144//76 32//76
f 50//76 160//76 162//76
f 4//76 118//76 6//76
f 22//76 136//76 24//76
f 40//76 154//76 42//76
f 58//76 172//76 60//76
f 14//76 128//76 16//76
f 34//76 144//76 146//76
f 50//76 164//76 52//76
f 6//76 120//76 8//76
f 26//76 136//76 138//76
f 44//76 154//76 156//76
f 60//76 174//76 62//76
f 16//76 130//76 18//76
f 34//76 148//76 36//76
f 54//76 164//76 166//76
f 8//76 122//76 10//76
f 26//76 140//76 28//76
f 46//76 156//76 158//76
f 64//76 174//76 176//76
f 18//76 132//76 20//76
f 36//76 150//76 38//76
f 54//76 168//76 56//76
f 10//76 124//76 12//76
f 28//76 142//76 30//76
f 48//76 158//76 160//76
f 2//76 115//76 4//76
f 64//76 116//76 2//76
f 2//1 4//1 3//1
f 4//2 6//2 5//2
f 6//3 8//3 7//3
f 8//4 10//4 9//4
f 10//5 12//5 11//5
f 12//6 14//6 13//6
f 14//7 16//7 15//7
f 16//8 18//8 17//8
f 18//9 20//9 19//9
f 20//10 22//10 21//10
f 22//11 24//11 23//11
f 24//12 26//12 25//12
f 26//13 28//13 27//13
f 28//14 30//14 29//14
f 30//15 32//15 31//15
f 32//16 34//16 33//16
f 34//17 36//17 35//17
f 36//18 38//18 37//18
f 38//19 40//19 39//19
f 40//20 42//20 41//20
f 42//21 44//21 43//21
f 44//22 46//22 45//22
f 46//23 48//23 47//23
f 48//24 50//24 49//24
f 50//25 52//25 51//25
f 52//26 54//26 53//26
f 54//27 56//27 55//27
f 56//28 58//28 57//28
f 58//29 60//29 59//29
f 60//30 62//30 61//30
f 62//31 64//31 63//31
f 64//32 2//32 1//32
f 27//33 29//33 65//33
f 29//33 31//33 71//33
f 31//33 33//33 77//33
f 33//33 35//33 83//33
f 37//33 89//33 83//33
f 39//33 95//33 89//33
f 41//33 101//33 95//33
f 43//33 107//33 101//33
f 45//33 47//33 107//33
f 25//33 65//33 66//33
f 65//33 71//33 72//33
f 71//33 77//33 78//33
f 77//33 83//33 84//33
f 89//33 90//33 84//33
f 95//33 96//33 90//33
f 101//33 102//33 96//33
f 107//33 108//33 102//33
f 47//33 49//33 108//33
f 23//33 66//33 67//33
f 66//33 72//33 73//33
f 72//33 78//33 79//33
f 78//33 84//33 85//33
f 90//33 91//33 85//33
f 96//33 97//33 91//33
f 102//33 103//33 97//33
f 108//33 109//33 103//33
f 49//33 51//33 109//33
f 67//33 68//33 19//33
f 67//33 73//33 74//33
f 73//33 79//33 80//33
f 79//33 85//33 86//33
f 85//33 91//33 92//33
f 91//33 97//33 98//33
f 103//33 104//33 98//33
f 103//33 109//33 110//33
f 109//33 51//33 53//33
f 68//33 69//33 17//33
f 74//33 75//33 69//33
f 80//33 81//33 75//33
f 86//33 87//33 81//33
f 92//33 93//33 87//33
f 92//33 98//33 99//33
f 98//33 104//33 105//33
f 104//33 110//33 111//33
f 110//33 53//33 55//33
f 69//33 70//33 15//33
f 75//33 76//33 70//33
f 81//33 82//33 76//33
f 87//33 88//33 82//33
f 87//33 93//33 94//33
f 93//33 99//33 100//33
f 99//33 105//33 106//33
f 105//33 111//33 112//33
f 111//33 55//33 57//33
f 70//33 11//33 13//33
f 76//33 9//33 11//33
f 82//33 7//33 9//33
f 88//33 5//33 7//33
f 88//33 94//33 3//33
f 94//33 100//33 1//33
f 100//33 106//33 63//33
f 106//33 112//33 61//33
f 112//33 57//33 59//33
f 114//34 115//34 116//34
f 117//35 118//35 115//35
f 117//36 119//36 120//36
f 121//37 122//37 120//37
f 123//38 124//38 122//38
f 125//39 126//39 124//39
f 127//40 128//40 126//40
f 129//41 130//41 128//41
f 129//42 131//42 132//42
f 131//43 133//43 134//43
f 133//44 135//44 136//44
f 135//45 137//45 138//45
f 139//46 140//46 138//46
f 141//47 142//47 140//47
f 141//48 143//48 144//48
f 145//49 146//49 144//49
f 147//50 148//50 146//50
f 147//51 149//51 150//51
f 151//52 152//52 150//52
f 153//53 154//53 152//53
f 155//54 156//54 154//54
f 157//55 158//55 156//55
f 159//56 160//56 158//56
f 161//57 162//57 160//57
f 163//58 164//58 162//58
f 165//59 166//59 164//59
f 167//60 168//60 166//60
f 169//61 170//61 168//61
f 169//62 171//62 172//62
f 171//63 173//63 174//63
f 175//64 176//64 174//64
f 113//65 116//65 176//65
f 139//95 137//95 177//95
f 141//96 177//96 178//96
f 143//97 178//97 179//97
f 145//98 179//98 180//98
f 180//70 181//70 149//70
f 181//99 182//99 151//99
f 182//100 183//100 153//100
f 183//101 184//101 155//101
f 184//102 159//102 157//102
f 137//103 135//103 185//103
f 177//76 185//76 186//76
f 178//76 186//76 187//76
f 179//76 187//76 188//76
f 188//76 189//76 181//76
f 189//76 190//76 182//76
f 190//76 191//76 183//76
f 191//76 192//76 184//76
f 192//104 161//104 159//104
f 135//105 133//105 193//105
f 185//76 193//76 194//76
f 186//76 194//76 195//76
f 187//76 195//76 196//76
f 196//76 197//76 189//76
f 197//76 198//76 190//76
f 198//76 199//76 191//76
f 199//76 200//76 192//76
f 200//106 163//106 161//106
f 133//80 131//80 201//80
f 193//76 201//76 202//76
f 194//76 202//76 203//76
f 195//76 203//76 204//76
f 196//76 204//76 205//76
f 205//76 206//76 198//76
f 206//76 207//76 199//76
f 207//76 208//76 200//76
f 200//81 208//81 165//81
f 129//107 209//107 201//107
f 209//76 210//76 202//76
f 210//76 211//76 203//76
f 211//76 212//76 204//76
f 212//76 213//76 205//76
f 205//76 213//76 214//76
f 206//76 214//76 215//76
f 207//76 215//76 216//76
f 208//108 216//108 167//108
f 127//109 217//109 209//109
f 217//76 218//76 210//76
f 218//76 219//76 211//76
f 219//76 220//76 212//76
f 212//76 220//76 221//76
f 213//76 221//76 222//76
f 214//76 222//76 223//76
f 215//76 223//76 224//76
f 216//110 224//110 169//110
f 125//111 123//111 217//111
f 123//112 121//112 218//112
f 121//113 119//113 219//113
f 119//114 117//114 220//114
f 220//90 117//90 114//90
f 221//115 114//115 113//115
f 222//116 113//116 175//116
f 223//117 175//117 173//117
f 224//118 173//118 171//118
f 20//76 132//76 134//76
f 38//76 150//76 152//76
f 56//76 168//76 170//76
f 12//76 124//76 126//76
f 30//76 142//76 144//76
f 50//76 48//76 160//76
f 4//76 115//76 118//76
f 22//76 134//76 136//76
f 40//76 152//76 154//76
f 58//76 170//76 172//76
f 14//76 126//76 128//76
f 34//76 32//76 144//76
f 50//76 162//76 164//76
f 6//76 118//76 120//76
f 26//76 24//76 136//76
f 44//76 42//76 154//76
f 60//76 172//76 174//76
f 16//76 128//76 130//76
f 34//76 146//76 148//76
f 54//76 52//76 164//76
f 8//76 120//76 122//76
f 26//76 138//76 140//76
f 46//76 44//76 156//76
f 64//76 62//76 174//76
f 18//76 130//76 132//76
f 36//76 148//76 150//76
f 54//76 166//76 168//76
f 10//76 122//76 124//76
f 28//76 140//76 142//76
f 48//76 46//76 158//76
f 2//76 116//76 115//76
f 64//76 176//76 116//76
