# Blender v2.83.0 OBJ File: 'cube_with_normal_map.blend'
# www.blender.org
mtllib cube_bumpy.mtl
o Cube
v 1.000000 1.000000 1.000000
v 1.000000 1.000000 -1.000000
v 1.000000 -1.000000 1.000000
v 1.000000 -1.000000 -1.000000
v -1.000000 1.000000 1.000000
v -1.000000 1.000000 -1.000000
v -1.000000 -1.000000 1.000000
v -1.000000 -1.000000 -1.000000
vt 2.442816 0.500000
vt 1.147605 1.795211
vt 1.147605 0.500000
vt -0.147605 3.090421
vt -0.147605 1.795211
vt 1.147605 -2.090421
vt -0.147605 -0.795211
vt -0.147605 -2.090421
vt -0.147605 0.500000
vt -1.442816 1.795211
vt -1.442816 0.500000
vt 1.147605 -0.795211
vt 2.442816 1.795211
vt 1.147605 3.090421
vn 0.0000 0.0000 1.0000
vn 0.0000 -1.0000 0.0000
vn -1.0000 0.0000 0.0000
vn 0.0000 0.0000 -1.0000
vn 1.0000 0.0000 0.0000
vn 0.0000 1.0000 0.0000
usemtl Material
s off
f 5/1/1 3/2/1 1/3/1
f 3/2/2 8/4/2 4/5/2
f 7/6/3 6/7/3 8/8/3
f 2/9/4 8/10/4 6/11/4
f 1/3/5 4/5/5 2/9/5
f 5/12/6 2/9/6 6/7/6
f 5/1/1 7/13/1 3/2/1
f 3/2/2 7/14/2 8/4/2
f 7/6/3 5/12/3 6/7/3
f 2/9/4 4/5/4 8/10/4
f 1/3/5 3/2/5 4/5/5
f 5/12/6 1/3/6 2/9/6
