####
#
# OBJ File Generated by Meshlab
#
####
# Object support_rod.obj
#
# Vertices: 40
# Faces: 40
#
####
vn -0.000001 2.720874 -2.094619
v -0.000002 0.005773 0.000000
vn -2.356042 1.360437 -2.094284
v -0.005002 0.002887 0.000000
vn 2.356041 1.360438 -2.094283
v 0.004998 0.002887 0.000000
vn 0.000000 0.000000 0.000000
v 0.000239 0.001985 0.000000
vn 0.000000 0.000000 0.000000
v -0.000711 0.001870 0.000000
vn -1.381284 -1.559322 -4.833331
v 0.001134 0.001646 0.000000
vn 1.760309 -1.559323 -4.591447
v -0.001499 0.001326 0.000000
vn 0.000000 0.000000 0.000000
v 0.001769 0.000929 0.000000
vn 0.000000 0.000000 0.000000
v -0.001944 0.000479 0.000000
vn 0.000000 0.000000 0.000000
v -0.002002 0.000000 0.000000
vn 0.000000 0.000000 0.000000
v 0.001998 0.000000 0.000000
vn 0.000000 0.000000 0.000000
v -0.001944 -0.000479 0.000000
vn 0.000000 0.000000 0.000000
v 0.001769 -0.000929 0.000000
vn 1.760309 1.559323 -4.591447
v -0.001499 -0.001326 0.000000
vn -1.381283 1.559324 -4.833332
v 0.001134 -0.001646 0.000000
vn 0.000000 0.000000 0.000000
v -0.000711 -0.001870 0.000000
vn 0.000000 0.000000 0.000000
v 0.000239 -0.001985 0.000000
vn -2.356246 -1.360319 -2.094433
v -0.005002 -0.002887 0.000000
vn 2.356245 -1.360320 -2.094433
v 0.004998 -0.002887 0.000000
vn -0.000001 -2.720639 -2.094319
v -0.000002 -0.005774 0.000000
vn -0.000001 2.720875 2.094619
v -0.000002 0.005773 0.050000
vn -2.356042 1.360437 2.094284
v -0.005002 0.002887 0.050000
vn 2.356041 1.360437 2.094283
v 0.004998 0.002887 0.050000
vn 0.000000 0.000000 0.000000
v 0.000239 0.001985 0.050000
vn 0.000000 0.000000 0.000000
v -0.000711 0.001870 0.050000
vn -1.381283 -1.559324 4.833331
v 0.001134 0.001646 0.050000
vn 1.760309 -1.559323 4.591447
v -0.001499 0.001326 0.050000
vn 0.000000 0.000000 0.000000
v 0.001769 0.000929 0.050000
vn 0.000000 0.000000 0.000000
v -0.001944 0.000479 0.050000
vn 0.000000 0.000000 0.000000
v -0.002002 0.000000 0.050000
vn 0.000000 0.000000 0.000000
v 0.001998 0.000000 0.050000
vn 0.000000 0.000000 0.000000
v -0.001944 -0.000479 0.050000
vn 0.000000 0.000000 0.000000
v 0.001769 -0.000929 0.050000
vn 1.760309 1.559323 4.591447
v -0.001499 -0.001326 0.050000
vn -1.381284 1.559322 4.833331
v 0.001134 -0.001646 0.050000
vn 0.000000 0.000000 0.000000
v -0.000711 -0.001870 0.050000
vn 0.000000 0.000000 0.000000
v 0.000239 -0.001985 0.050000
vn -2.356246 -1.360320 2.094433
v -0.005002 -0.002887 0.050000
vn 2.356245 -1.360320 2.094432
v 0.004998 -0.002887 0.050000
vn -0.000001 -2.720640 2.094319
v -0.000002 -0.005774 0.050000
# 40 vertices, 0 vertices normals

f 7//7 2//2 1//1
f 3//3 6//6 1//1
f 6//6 7//7 1//1
f 21//21 23//23 1//1
f 23//23 3//3 1//1
f 2//2 21//21 1//1
f 7//7 18//18 2//2
f 22//22 21//21 2//2
f 18//18 22//22 2//2
f 19//19 6//6 3//3
f 23//23 39//39 3//3
f 39//39 19//19 3//3
f 6//6 26//26 7//7
f 26//26 27//27 7//7
f 19//19 15//15 6//6
f 15//15 35//35 6//6
f 35//35 26//26 6//6
f 14//14 18//18 7//7
f 27//27 14//14 7//7
f 20//20 18//18 14//14
f 27//27 34//34 14//14
f 19//19 14//14 15//15
f 14//14 34//34 15//15
f 34//34 35//35 15//15
f 19//19 20//20 14//14
f 38//38 22//22 18//18
f 20//20 38//38 18//18
f 39//39 40//40 19//19
f 40//40 20//20 19//19
f 40//40 38//38 20//20
f 22//22 27//27 21//21
f 27//27 23//23 21//21
f 38//38 27//27 22//22
f 27//27 26//26 23//23
f 26//26 39//39 23//23
f 35//35 39//39 26//26
f 38//38 34//34 27//27
f 40//40 39//39 35//35
f 34//34 40//40 35//35
f 38//38 40//40 34//34
# 40 faces, 0 coords texture

# End of File
