# Blender v2.91.0 OBJ File: ''
# www.blender.org
mtllib support_rod_long.mtl
o support_rod_short
v -0.001499 0.001326 0.000000
v -0.005002 0.002887 0.000000
v -0.000002 0.005773 0.000000
v 0.004998 0.002887 0.000000
v 0.001134 0.001646 0.000000
v -0.000002 0.005773 0.050000
v 0.004998 0.002887 0.050000
v -0.005002 -0.002887 -0.000000
v -0.005002 0.002887 0.050000
v 0.004998 -0.002887 -0.000000
v 0.004998 -0.002887 0.050000
v 0.001134 0.001646 0.050000
v -0.001499 0.001326 0.050000
v 0.001134 -0.001646 -0.000000
v 0.001134 -0.001646 0.050000
v -0.001499 -0.001326 -0.000000
v -0.000002 -0.005774 -0.000000
v -0.001499 -0.001326 0.050000
v -0.005002 -0.002887 0.050000
v -0.000002 -0.005774 0.050000
vn 0.3412 -0.3023 -0.8901
vn -0.6862 0.3962 -0.6100
vn 0.0000 0.7924 -0.6100
vn 0.6862 0.3962 -0.6100
vn -0.2624 -0.2963 -0.9183
vn 0.0000 0.7924 0.6100
vn 0.6862 0.3962 0.6100
vn -0.6862 -0.3962 -0.6100
vn -0.6862 0.3962 0.6100
vn 0.6862 -0.3962 -0.6100
vn 0.6862 -0.3962 0.6100
vn -0.2624 -0.2963 0.9183
vn 0.3412 -0.3023 0.8901
vn -0.2624 0.2963 -0.9183
vn -0.2624 0.2963 0.9183
vn 0.3412 0.3023 -0.8901
vn -0.0000 -0.7924 -0.6100
vn 0.3412 0.3023 0.8901
vn -0.6862 -0.3962 0.6100
vn 0.0000 -0.7924 0.6100
usemtl Default_OBJ
s 1
f 1//1 2//2 3//3
f 4//4 5//5 3//3
f 5//5 1//1 3//3
f 6//6 7//7 3//3
f 7//7 4//4 3//3
f 2//2 6//6 3//3
f 1//1 8//8 2//2
f 9//9 6//6 2//2
f 8//8 9//9 2//2
f 10//10 5//5 4//4
f 7//7 11//11 4//4
f 11//11 10//10 4//4
f 5//5 12//12 1//1
f 12//12 13//13 1//1
f 10//10 14//14 5//5
f 14//14 15//15 5//5
f 15//15 12//12 5//5
f 16//16 8//8 1//1
f 13//13 16//16 1//1
f 17//17 8//8 16//16
f 13//13 18//18 16//16
f 10//10 16//16 14//14
f 16//16 18//18 14//14
f 18//18 15//15 14//14
f 10//10 17//17 16//16
f 19//19 9//9 8//8
f 17//17 19//19 8//8
f 11//11 20//20 10//10
f 20//20 17//17 10//10
f 20//20 19//19 17//17
f 9//9 13//13 6//6
f 13//13 7//7 6//6
f 19//19 13//13 9//9
f 13//13 12//12 7//7
f 12//12 11//11 7//7
f 15//15 11//11 12//12
f 19//19 18//18 13//13
f 20//20 11//11 15//15
f 18//18 20//20 15//15
f 19//19 20//20 18//18
o support_rod_short.001
v -0.001499 0.001326 0.050000
v -0.005002 0.002887 0.050000
v -0.000002 0.005773 0.050000
v 0.004998 0.002887 0.050000
v 0.001134 0.001646 0.050000
v -0.000002 0.005773 0.100000
v 0.004998 0.002887 0.100000
v -0.005002 -0.002887 0.050000
v -0.005002 0.002887 0.100000
v 0.004998 -0.002887 0.050000
v 0.004998 -0.002887 0.100000
v 0.001134 0.001646 0.100000
v -0.001499 0.001326 0.100000
v 0.001134 -0.001646 0.050000
v 0.001134 -0.001646 0.100000
v -0.001499 -0.001326 0.050000
v -0.000002 -0.005774 0.050000
v -0.001499 -0.001326 0.100000
v -0.005002 -0.002887 0.100000
v -0.000002 -0.005774 0.100000
vn 0.3412 -0.3023 -0.8901
vn -0.6862 0.3962 -0.6100
vn 0.0000 0.7924 -0.6100
vn 0.6862 0.3962 -0.6100
vn -0.2624 -0.2963 -0.9183
vn 0.0000 0.7924 0.6100
vn 0.6862 0.3962 0.6100
vn -0.6862 -0.3962 -0.6100
vn -0.6862 0.3962 0.6100
vn 0.6862 -0.3962 -0.6100
vn 0.6862 -0.3962 0.6100
vn -0.2624 -0.2963 0.9183
vn 0.3412 -0.3023 0.8901
vn -0.2624 0.2963 -0.9183
vn -0.2624 0.2963 0.9183
vn 0.3412 0.3023 -0.8901
vn -0.0000 -0.7924 -0.6100
vn 0.3412 0.3023 0.8901
vn -0.6862 -0.3962 0.6100
vn 0.0000 -0.7924 0.6100
usemtl Default_OBJ.001
s 1
f 21//21 22//22 23//23
f 24//24 25//25 23//23
f 25//25 21//21 23//23
f 26//26 27//27 23//23
f 27//27 24//24 23//23
f 22//22 26//26 23//23
f 21//21 28//28 22//22
f 29//29 26//26 22//22
f 28//28 29//29 22//22
f 30//30 25//25 24//24
f 27//27 31//31 24//24
f 31//31 30//30 24//24
f 25//25 32//32 21//21
f 32//32 33//33 21//21
f 30//30 34//34 25//25
f 34//34 35//35 25//25
f 35//35 32//32 25//25
f 36//36 28//28 21//21
f 33//33 36//36 21//21
f 37//37 28//28 36//36
f 33//33 38//38 36//36
f 30//30 36//36 34//34
f 36//36 38//38 34//34
f 38//38 35//35 34//34
f 30//30 37//37 36//36
f 39//39 29//29 28//28
f 37//37 39//39 28//28
f 31//31 40//40 30//30
f 40//40 37//37 30//30
f 40//40 39//39 37//37
f 29//29 33//33 26//26
f 33//33 27//27 26//26
f 39//39 33//33 29//29
f 33//33 32//32 27//27
f 32//32 31//31 27//27
f 35//35 31//31 32//32
f 39//39 38//38 33//33
f 40//40 31//31 35//35
f 38//38 40//40 35//35
f 39//39 40//40 38//38
o support_rod_short.002
v -0.001499 0.001326 0.100000
v -0.005002 0.002887 0.100000
v -0.000002 0.005773 0.100000
v 0.004998 0.002887 0.100000
v 0.001134 0.001646 0.100000
v -0.000002 0.005773 0.150000
v 0.004998 0.002887 0.150000
v -0.005002 -0.002887 0.100000
v -0.005002 0.002887 0.150000
v 0.004998 -0.002887 0.100000
v 0.004998 -0.002887 0.150000
v 0.001134 0.001646 0.150000
v -0.001499 0.001326 0.150000
v 0.001134 -0.001646 0.100000
v 0.001134 -0.001646 0.150000
v -0.001499 -0.001326 0.100000
v -0.000002 -0.005774 0.100000
v -0.001499 -0.001326 0.150000
v -0.005002 -0.002887 0.150000
v -0.000002 -0.005774 0.150000
vn 0.3412 -0.3023 -0.8901
vn -0.6862 0.3962 -0.6100
vn 0.0000 0.7924 -0.6100
vn 0.6862 0.3962 -0.6100
vn -0.2624 -0.2963 -0.9183
vn 0.0000 0.7924 0.6100
vn 0.6862 0.3962 0.6100
vn -0.6862 -0.3962 -0.6100
vn -0.6862 0.3962 0.6100
vn 0.6862 -0.3962 -0.6100
vn 0.6862 -0.3962 0.6100
vn -0.2624 -0.2963 0.9183
vn 0.3412 -0.3023 0.8900
vn -0.2624 0.2963 -0.9183
vn -0.2624 0.2963 0.9183
vn 0.3412 0.3023 -0.8901
vn -0.0000 -0.7924 -0.6100
vn 0.3412 0.3023 0.8901
vn -0.6862 -0.3962 0.6100
vn -0.0000 -0.7924 0.6100
usemtl Default_OBJ.002
s 1
f 41//41 42//42 43//43
f 44//44 45//45 43//43
f 45//45 41//41 43//43
f 46//46 47//47 43//43
f 47//47 44//44 43//43
f 42//42 46//46 43//43
f 41//41 48//48 42//42
f 49//49 46//46 42//42
f 48//48 49//49 42//42
f 50//50 45//45 44//44
f 47//47 51//51 44//44
f 51//51 50//50 44//44
f 45//45 52//52 41//41
f 52//52 53//53 41//41
f 50//50 54//54 45//45
f 54//54 55//55 45//45
f 55//55 52//52 45//45
f 56//56 48//48 41//41
f 53//53 56//56 41//41
f 57//57 48//48 56//56
f 53//53 58//58 56//56
f 50//50 56//56 54//54
f 56//56 58//58 54//54
f 58//58 55//55 54//54
f 50//50 57//57 56//56
f 59//59 49//49 48//48
f 57//57 59//59 48//48
f 51//51 60//60 50//50
f 60//60 57//57 50//50
f 60//60 59//59 57//57
f 49//49 53//53 46//46
f 53//53 47//47 46//46
f 59//59 53//53 49//49
f 53//53 52//52 47//47
f 52//52 51//51 47//47
f 55//55 51//51 52//52
f 59//59 58//58 53//53
f 60//60 51//51 55//55
f 58//58 60//60 55//55
f 59//59 60//60 58//58
o support_rod_short.003
v -0.001499 0.001326 0.150000
v -0.005002 0.002887 0.150000
v -0.000002 0.005773 0.150000
v 0.004998 0.002887 0.150000
v 0.001134 0.001646 0.150000
v -0.000002 0.005773 0.200000
v 0.004998 0.002887 0.200000
v -0.005002 -0.002887 0.150000
v -0.005002 0.002887 0.200000
v 0.004998 -0.002887 0.150000
v 0.004998 -0.002887 0.200000
v 0.001134 0.001646 0.200000
v -0.001499 0.001326 0.200000
v 0.001134 -0.001646 0.150000
v 0.001134 -0.001646 0.200000
v -0.001499 -0.001326 0.150000
v -0.000002 -0.005774 0.150000
v -0.001499 -0.001326 0.200000
v -0.005002 -0.002887 0.200000
v -0.000002 -0.005774 0.200000
vn 0.3412 -0.3023 -0.8901
vn -0.6862 0.3962 -0.6100
vn 0.0000 0.7924 -0.6100
vn 0.6862 0.3962 -0.6100
vn -0.2624 -0.2963 -0.9183
vn 0.0000 0.7924 0.6100
vn 0.6862 0.3962 0.6100
vn -0.6862 -0.3962 -0.6100
vn -0.6862 0.3962 0.6100
vn 0.6862 -0.3962 -0.6100
vn 0.6862 -0.3962 0.6100
vn -0.2624 -0.2963 0.9183
vn 0.3412 -0.3023 0.8901
vn -0.2624 0.2963 -0.9183
vn -0.2624 0.2963 0.9183
vn 0.3412 0.3023 -0.8900
vn 0.0000 -0.7924 -0.6100
vn 0.3412 0.3023 0.8901
vn -0.6862 -0.3962 0.6100
vn 0.0000 -0.7924 0.6100
usemtl Default_OBJ.003
s 1
f 61//61 62//62 63//63
f 64//64 65//65 63//63
f 65//65 61//61 63//63
f 66//66 67//67 63//63
f 67//67 64//64 63//63
f 62//62 66//66 63//63
f 61//61 68//68 62//62
f 69//69 66//66 62//62
f 68//68 69//69 62//62
f 70//70 65//65 64//64
f 67//67 71//71 64//64
f 71//71 70//70 64//64
f 65//65 72//72 61//61
f 72//72 73//73 61//61
f 70//70 74//74 65//65
f 74//74 75//75 65//65
f 75//75 72//72 65//65
f 76//76 68//68 61//61
f 73//73 76//76 61//61
f 77//77 68//68 76//76
f 73//73 78//78 76//76
f 70//70 76//76 74//74
f 76//76 78//78 74//74
f 78//78 75//75 74//74
f 70//70 77//77 76//76
f 79//79 69//69 68//68
f 77//77 79//79 68//68
f 71//71 80//80 70//70
f 80//80 77//77 70//70
f 80//80 79//79 77//77
f 69//69 73//73 66//66
f 73//73 67//67 66//66
f 79//79 73//73 69//69
f 73//73 72//72 67//67
f 72//72 71//71 67//67
f 75//75 71//71 72//72
f 79//79 78//78 73//73
f 80//80 71//71 75//75
f 78//78 80//80 75//75
f 79//79 80//80 78//78
