# Blender v2.83.3 OBJ File: 'box.blend'
# www.blender.org
mtllib box.mtl
o Cube
v 2.184622 -2.184622 4.247777
v 2.184622 -2.184622 -0.121467
v -2.184622 -2.184622 4.247777
v -2.184622 -2.184622 -0.121467
v 2.184622 2.184622 4.247777
v 2.184622 2.184622 -0.121467
v -2.184622 2.184622 4.247777
v -2.184622 2.184622 -0.121467
vt 0.625000 0.500000
vt 0.625000 0.750000
vt 0.875000 0.750000
vt 0.875000 0.500000
vt 0.375000 0.000000
vt 0.375000 0.250000
vt 0.625000 0.250000
vt 0.625000 0.000000
vt 0.125000 0.500000
vt 0.125000 0.750000
vt 0.375000 0.750000
vt 0.375000 0.500000
vt 0.375000 1.000000
vt 0.625000 1.000000
vn 0.0000 0.0000 -1.0000
vn 0.0000 -1.0000 0.0000
vn 0.0000 0.0000 1.0000
vn 1.0000 0.0000 0.0000
vn -1.0000 0.0000 0.0000
usemtl White
s off
f 1/1/1 3/2/1 7/3/1 5/4/1
f 8/5/2 6/6/2 5/7/2 7/8/2
f 6/9/3 8/10/3 4/11/3 2/12/3
usemtl Green
f 4/11/4 8/13/4 7/14/4 3/2/4
usemtl Red
f 6/6/5 2/12/5 1/1/5 5/7/5
o Cube.001
v 0.852860 -0.460002 -0.187645
v 0.852860 -0.460002 0.920662
v 1.757150 -1.100785 -0.187645
v 1.757150 -1.100785 0.920662
v 0.212078 -1.364293 -0.187645
v 0.212078 -1.364293 0.920662
v 1.116368 -2.005075 -0.187645
v 1.116368 -2.005075 0.920662
vt 0.375000 0.000000
vt 0.625000 0.000000
vt 0.625000 0.250000
vt 0.375000 0.250000
vt 0.625000 0.500000
vt 0.375000 0.500000
vt 0.625000 0.750000
vt 0.375000 0.750000
vt 0.625000 1.000000
vt 0.375000 1.000000
vt 0.125000 0.500000
vt 0.125000 0.750000
vt 0.875000 0.500000
vt 0.875000 0.750000
vn 0.5782 0.8159 0.0000
vn 0.8159 -0.5782 0.0000
vn -0.5782 -0.8159 0.0000
vn -0.8159 0.5782 0.0000
vn 0.0000 0.0000 -1.0000
vn 0.0000 0.0000 1.0000
usemtl None
s off
f 9/15/6 10/16/6 12/17/6 11/18/6
f 11/18/7 12/17/7 16/19/7 15/20/7
f 15/20/8 16/19/8 14/21/8 13/22/8
f 13/22/9 14/21/9 10/23/9 9/24/9
f 11/25/10 15/20/10 13/22/10 9/26/10
f 16/19/11 12/27/11 10/28/11 14/21/11
o Cube.002
v -0.026094 0.085308 -0.163908
v -0.026094 0.085308 2.965323
v -0.809243 -0.698925 -0.163908
v -0.809243 -0.698925 2.965323
v -0.810327 0.868457 -0.163908
v -0.810327 0.868457 2.965323
v -1.593476 0.084224 -0.163908
v -1.593476 0.084224 2.965323
vt 0.375000 0.000000
vt 0.625000 0.000000
vt 0.625000 0.250000
vt 0.375000 0.250000
vt 0.625000 0.500000
vt 0.375000 0.500000
vt 0.625000 0.750000
vt 0.375000 0.750000
vt 0.625000 1.000000
vt 0.375000 1.000000
vt 0.125000 0.500000
vt 0.125000 0.750000
vt 0.875000 0.500000
vt 0.875000 0.750000
vn 0.7076 -0.7066 0.0000
vn -0.7066 -0.7076 0.0000
vn -0.7076 0.7066 0.0000
vn 0.7066 0.7076 0.0000
vn 0.0000 0.0000 -1.0000
vn 0.0000 0.0000 1.0000
usemtl None
s off
f 17/29/12 18/30/12 20/31/12 19/32/12
f 19/32/13 20/31/13 24/33/13 23/34/13
f 23/34/14 24/33/14 22/35/14 21/36/14
f 21/36/15 22/35/15 18/37/15 17/38/15
f 19/39/16 23/34/16 21/36/16 17/40/16
f 24/33/17 20/41/17 18/42/17 22/35/17
