# Blender v2.79 (sub 0) OBJ File: ''
# www.blender.org
mtllib grousery_wheel.mtl
o Cube.003
v 0.000000 -0.120000 -0.050000
v -0.005000 -0.126500 -0.050000
v 0.005000 -0.126500 -0.050000
v 0.000000 0.120000 0.060000
v 0.000000 0.120000 0.050000
v -0.005000 0.119508 0.050000
v 0.120000 0.000000 -0.060000
v 0.000000 -0.120000 -0.060000
v -0.120000 0.000000 -0.060000
v -0.043790 0.118784 0.050000
v -0.041114 0.112324 -0.050000
v -0.041114 0.112324 0.050000
v -0.080969 0.088040 -0.050000
v -0.085913 0.092985 0.050000
v -0.085913 0.092985 -0.050000
v -0.080969 -0.088040 0.050000
v -0.085913 -0.092984 -0.050000
v -0.085913 -0.092984 0.050000
v -0.043790 0.118784 -0.050000
v -0.053029 0.114957 0.050000
v -0.053029 0.114957 -0.050000
v 0.118784 0.043790 -0.050000
v 0.114957 0.053029 0.050000
v 0.114957 0.053029 -0.050000
v -0.126500 -0.005000 -0.050000
v -0.126500 0.005000 0.050000
v -0.126500 -0.005000 0.050000
v -0.118784 -0.043790 0.050000
v -0.112324 -0.041114 -0.050000
v -0.112324 -0.041114 0.050000
v 0.126500 -0.005000 0.050000
v 0.119508 -0.005000 0.050000
v 0.120000 -0.000000 0.050000
v -0.092985 -0.085913 -0.050000
v -0.088040 -0.080969 0.050000
v -0.092985 -0.085913 0.050000
v -0.092985 0.085913 0.050000
v -0.092985 0.085913 -0.050000
v -0.088040 0.080969 -0.050000
v 0.045922 -0.110866 0.050000
v 0.053029 -0.114957 0.050000
v 0.043790 -0.118784 0.050000
v -0.119508 0.005000 0.050000
v -0.117694 0.023411 0.060000
v -0.117694 0.023411 -0.060000
v 0.053029 -0.114957 -0.050000
v 0.080969 -0.088040 -0.050000
v 0.085913 -0.092984 0.050000
v 0.085913 -0.092984 -0.050000
v 0.023411 0.117694 0.060000
v 0.023411 0.117694 -0.060000
v 0.005000 0.119508 0.050000
v -0.050353 0.108497 -0.050000
v -0.066668 0.099776 -0.060000
v -0.066668 0.099776 0.060000
v 0.112324 0.041114 -0.050000
v 0.118784 0.043790 0.050000
v -0.080969 -0.088040 -0.050000
v -0.084853 -0.084853 -0.050000
v -0.005000 0.126500 -0.050000
v -0.005000 0.126500 0.050000
v 0.092984 0.085913 0.050000
v 0.088040 0.080969 -0.050000
v 0.088040 0.080969 0.050000
v 0.005000 0.126500 -0.050000
v 0.005000 0.126500 0.050000
v -0.118784 0.043790 0.050000
v -0.112324 0.041114 -0.050000
v -0.118784 0.043790 -0.050000
v -0.005000 -0.119508 -0.050000
v -0.005000 -0.126500 0.050000
v 0.120000 0.000000 -0.050000
v 0.119508 -0.005000 -0.050000
v 0.126500 -0.005000 -0.050000
v 0.043790 0.118784 0.050000
v 0.053029 0.114957 -0.050000
v 0.053029 0.114957 0.050000
v -0.053029 -0.114957 -0.050000
v -0.050353 -0.108497 0.050000
v -0.053029 -0.114957 0.050000
v 0.005000 0.119508 -0.050000
v 0.000000 0.120000 -0.050000
v 0.108497 -0.050353 -0.050000
v 0.114957 -0.053029 0.050000
v 0.114957 -0.053029 -0.050000
v 0.119508 0.005000 0.050000
v 0.126500 0.005000 -0.050000
v 0.126500 0.005000 0.050000
v -0.084853 -0.084853 0.050000
v -0.110866 -0.045922 0.050000
v -0.114957 -0.053029 0.050000
v 0.050353 0.108497 0.050000
v 0.050353 0.108497 -0.050000
v -0.023411 0.117694 -0.060000
v -0.023411 0.117694 0.060000
v -0.005000 0.119508 -0.050000
v 0.000000 0.120000 -0.060000
v 0.041114 0.112324 -0.050000
v -0.108497 -0.050353 -0.050000
v -0.099776 -0.066668 -0.060000
v -0.099776 -0.066668 0.060000
v 0.066668 0.099776 -0.060000
v 0.066668 0.099776 0.060000
v 0.080969 0.088040 -0.050000
v 0.099776 0.066668 0.060000
v 0.099776 0.066668 -0.060000
v -0.114957 0.053029 -0.050000
v 0.117694 -0.023411 0.060000
v 0.117694 -0.023411 -0.060000
v 0.112324 -0.041114 -0.050000
v 0.092984 0.085913 -0.050000
v 0.085913 0.092984 0.050000
v 0.085913 0.092984 -0.050000
v 0.108497 -0.050353 0.050000
v 0.099776 -0.066668 0.060000
v 0.099776 -0.066668 -0.060000
v 0.088040 -0.080969 -0.050000
v 0.041114 -0.112324 0.050000
v 0.023411 -0.117694 0.060000
v 0.023411 -0.117694 -0.060000
v -0.080969 0.088040 0.050000
v -0.084853 0.084853 0.050000
v -0.119508 -0.005000 -0.050000
v -0.119508 -0.005000 0.050000
v -0.041114 -0.112324 -0.050000
v -0.023411 -0.117694 -0.060000
v -0.023411 -0.117694 0.060000
v -0.126500 0.005000 -0.050000
v -0.117694 -0.023411 -0.060000
v -0.117694 -0.023411 0.060000
v -0.108497 0.050353 0.050000
v -0.099776 0.066669 0.060000
v -0.099776 0.066669 -0.060000
v -0.088040 0.080969 0.050000
v -0.005000 -0.119508 0.050000
v 0.000000 -0.120000 0.050000
v 0.108497 0.050353 -0.050000
v 0.045922 0.110866 0.050000
v 0.041114 0.112324 0.050000
v 0.005000 -0.119508 -0.050000
v -0.066668 -0.099776 -0.060000
v -0.066668 -0.099776 0.060000
v 0.110866 -0.045922 0.050000
v 0.118784 -0.043790 0.050000
v 0.119508 0.005000 -0.050000
v 0.117694 0.023411 -0.060000
v 0.117694 0.023411 0.060000
v -0.118784 -0.043790 -0.050000
v -0.114957 -0.053029 -0.050000
v 0.050353 -0.108497 -0.050000
v 0.066668 -0.099776 -0.060000
v 0.066668 -0.099776 0.060000
v -0.043790 -0.118784 -0.050000
v -0.043790 -0.118784 0.050000
v -0.041114 -0.112324 0.050000
v 0.005000 -0.126500 0.050000
v 0.041114 -0.112324 -0.050000
v 0.043790 -0.118784 -0.050000
v 0.092984 -0.085913 0.050000
v 0.092984 -0.085913 -0.050000
v 0.080969 -0.088040 0.050000
v 0.118784 -0.043790 -0.050000
v 0.112324 -0.041114 0.050000
v 0.108497 0.050353 0.050000
v -0.110865 0.045922 0.050000
v -0.114957 0.053029 0.050000
v -0.108497 0.050353 -0.050000
v 0.084853 0.084853 0.050000
v 0.088040 -0.080969 0.050000
v 0.084853 -0.084853 -0.050000
v -0.120000 -0.000000 0.050000
v -0.110865 0.045922 -0.050000
v 0.045922 -0.110866 -0.050000
v -0.045922 -0.110866 0.050000
v -0.120000 0.000000 -0.050000
v -0.045922 -0.110866 -0.050000
v 0.084853 0.084853 -0.050000
v 0.050353 -0.108497 0.050000
v -0.110866 -0.045922 -0.050000
v 0.084853 -0.084853 0.050000
v -0.045922 0.110866 0.050000
v 0.110866 0.045922 -0.050000
v -0.045922 0.110866 -0.050000
v 0.112324 0.041114 0.050000
v 0.110866 0.045922 0.050000
v -0.084853 0.084853 -0.050000
v 0.110866 -0.045922 -0.050000
v 0.043790 0.118784 -0.050000
v 0.045922 0.110866 -0.050000
v -0.110865 0.045922 -0.060000
v -0.084853 0.084853 -0.060000
v -0.045922 0.110866 -0.060000
v 0.045922 0.110866 -0.060000
v 0.084853 0.084853 -0.060000
v 0.110866 0.045922 -0.060000
v 0.110866 -0.045922 -0.060000
v 0.084853 -0.084853 -0.060000
v 0.045922 -0.110866 -0.060000
v -0.045922 -0.110866 -0.060000
v -0.084853 -0.084853 -0.060000
v -0.110866 -0.045922 -0.060000
v -0.088040 -0.080969 -0.050000
v -0.120000 -0.000000 0.060000
v -0.119508 0.005000 -0.050000
v -0.045922 0.110866 0.060000
v -0.050353 0.108497 0.050000
v -0.112324 0.041114 0.050000
v -0.050353 -0.108497 -0.050000
v -0.108497 -0.050353 0.050000
v 0.045922 0.110866 0.060000
v -0.110866 -0.045922 0.060000
v 0.084853 0.084853 0.060000
v 0.080969 0.088040 0.050000
v 0.120000 -0.000000 0.060000
v 0.110866 -0.045922 0.060000
v 0.084853 -0.084853 0.060000
v 0.045922 -0.110866 0.060000
v -0.045922 -0.110866 0.060000
v -0.110865 0.045922 0.060000
v -0.084853 0.084853 0.060000
v -0.084853 -0.084853 0.060000
v 0.000000 -0.120000 0.060000
v 0.110866 0.045922 0.060000
v 0.005000 -0.119508 0.050000
vn 0.0000 -0.6836 -0.7298
vn 0.0000 0.0000 -1.0000
vn -0.0980 0.9952 0.0000
vn -0.0979 0.9952 0.0000
vn 0.9239 0.3827 0.0000
vn 0.0157 0.9608 0.2768
vn 0.0157 0.9608 -0.2768
vn -0.3532 0.8937 -0.2769
vn 0.7072 0.7070 0.0000
vn -0.3532 -0.8937 0.2768
vn 0.7071 -0.7071 0.0000
vn -0.3827 0.9239 0.0000
vn -1.0000 0.0000 0.0000
vn -0.9608 0.0157 0.2768
vn -0.9608 0.0157 -0.2768
vn 0.0000 0.0000 1.0000
vn 0.6836 -0.0000 0.7298
vn 0.9485 -0.1075 0.2979
vn -0.7070 0.7072 0.0000
vn -0.7071 -0.7072 0.0000
vn -0.7071 0.7071 0.0000
vn -0.7070 -0.7072 0.0000
vn 0.2616 -0.6315 0.7299
vn -0.9485 0.1075 0.2979
vn -0.9952 0.0980 0.0000
vn 0.3827 -0.9239 0.0000
vn 0.3532 -0.8937 -0.2768
vn -0.7071 -0.7071 0.0000
vn 0.0980 0.9952 0.0000
vn -0.4624 0.8352 -0.2978
vn -0.4714 0.8819 0.0000
vn 0.9608 -0.0157 -0.2768
vn -0.4834 -0.4834 -0.7299
vn -0.3532 -0.8937 -0.2768
vn 0.8937 0.3532 0.2768
vn 0.8937 0.3532 -0.2768
vn 0.7071 0.7071 0.0000
vn 1.0000 0.0000 0.0000
vn -0.3827 -0.9239 -0.0000
vn -0.3821 -0.8817 -0.2769
vn 0.6836 0.0000 -0.7298
vn 0.8817 -0.3821 -0.2769
vn 0.3827 0.9239 0.0000
vn -0.9239 0.3827 0.0000
vn 0.6683 -0.6905 -0.2768
vn 0.8817 0.3821 0.2769
vn 0.0000 1.0000 0.0000
vn -0.9239 -0.3827 0.0000
vn -0.4834 -0.4834 0.7299
vn -0.7468 -0.5946 0.2978
vn -0.6315 -0.2616 0.7299
vn 0.0979 0.9952 0.0000
vn 0.4624 0.8352 0.2978
vn 0.6905 0.6683 -0.2768
vn 0.9239 -0.3827 0.0000
vn 0.0942 0.9956 0.0000
vn 0.2871 0.8950 0.3414
vn -0.0157 0.9608 -0.2768
vn 0.2903 0.9569 0.0000
vn -0.8352 -0.4624 -0.2978
vn -0.8819 -0.4714 0.0000
vn 0.6344 0.7730 0.0000
vn 0.5946 0.7468 -0.2978
vn 0.7730 0.6344 -0.0000
vn 0.9952 -0.0980 0.0000
vn 0.9608 0.0157 -0.2768
vn 0.9569 -0.2903 0.0000
vn 0.6683 -0.6905 0.2768
vn 0.8819 -0.4714 -0.0000
vn 0.8937 -0.3532 -0.2768
vn 0.7730 -0.6344 0.0000
vn -0.0157 -0.9608 0.2768
vn 0.2903 -0.9569 -0.0000
vn -0.4834 0.4834 0.7299
vn -0.3532 0.8937 0.2769
vn -0.9485 -0.1075 -0.2979
vn -0.8817 -0.3821 0.2769
vn 0.0000 -1.0000 -0.0000
vn 0.0157 -0.9608 -0.2768
vn -0.2903 -0.9569 0.0000
vn -0.9952 -0.0980 -0.0000
vn -0.6683 0.6904 0.2769
vn -0.8819 0.4714 0.0000
vn -0.8937 0.3532 0.2769
vn -0.7468 0.5947 -0.2978
vn -0.7730 0.6344 0.0000
vn -0.2903 0.9569 -0.0000
vn 0.0000 -0.6836 0.7298
vn -0.3821 -0.8817 0.2769
vn 0.6683 0.6905 -0.2768
vn 0.8819 0.4714 0.0000
vn 0.2616 0.6315 0.7299
vn -0.0157 0.9608 0.2768
vn 0.1075 -0.9485 -0.2979
vn 0.0980 -0.9952 -0.0000
vn -0.6344 -0.7730 0.0000
vn 0.6315 -0.2616 0.7299
vn -0.6344 0.7730 -0.0000
vn 0.4714 0.8819 -0.0000
vn -0.9569 -0.2903 -0.0000
vn 0.8817 0.3821 -0.2769
vn 0.9952 0.0980 -0.0000
vn 0.6905 -0.6683 -0.2768
vn 0.4714 -0.8819 0.0000
vn 0.0157 -0.9608 0.2768
vn -0.0157 -0.9608 -0.2768
vn 0.3532 -0.8937 0.2768
vn 0.6344 -0.7730 -0.0000
vn 0.9608 0.0157 0.2768
vn -0.4624 -0.8352 0.2978
vn -0.4714 -0.8819 -0.0000
vn -0.9175 0.2637 -0.2979
vn -0.9569 0.2903 -0.0000
vn 0.6683 0.6905 0.2768
vn -0.7730 -0.6344 -0.0000
vn -0.6316 0.2616 0.7298
vn -0.6683 0.6904 -0.2769
vn 0.4834 0.4834 0.7299
vn 0.8937 -0.3532 0.2768
vn 0.4834 -0.4834 -0.7299
vn -0.6836 -0.0000 0.7298
vn -0.6316 0.2616 -0.7298
vn 0.2616 -0.6315 -0.7299
vn -0.2616 -0.6315 0.7299
vn -0.6836 0.0000 -0.7298
vn -0.2616 -0.6315 -0.7299
vn 0.4834 0.4834 -0.7299
vn 0.6905 -0.6683 0.2768
vn -0.6315 -0.2616 -0.7299
vn 0.4834 -0.4834 0.7299
vn -0.0980 -0.9952 0.0000
vn -0.2616 0.6315 0.7299
vn 0.6315 0.2616 -0.7299
vn -0.2616 0.6315 -0.7299
vn 0.6315 0.2616 0.7299
vn 0.9608 -0.0157 0.2768
vn -0.4834 0.4834 -0.7299
vn 0.9569 0.2903 -0.0000
vn 0.6315 -0.2616 -0.7299
vn 0.2616 0.6315 -0.7299
vn -0.8937 -0.3532 -0.2769
vn -0.8817 0.3821 -0.2769
vn -0.6905 0.6683 0.2768
vn -0.9608 -0.0156 0.2769
vn -0.6905 -0.6683 -0.2768
vn -0.6683 -0.6905 0.2768
vn 0.2902 0.9570 0.0000
vn 0.3532 0.8937 0.2768
vn 0.9570 -0.2902 -0.0000
vn 0.2902 -0.9570 0.0000
vn -0.2902 -0.9570 -0.0000
vn -0.2902 0.9570 -0.0000
vn 0.3821 -0.8817 0.2769
vn -0.9570 -0.2902 -0.0000
vn 0.9570 0.2902 -0.0000
usemtl None.004
s 1
f 1//1 3//2 2//2
f 4//3 5//4 6//3
f 7//2 8//2 9//2
f 10//5 12//6 11//7
f 13//8 15//9 14//9
f 16//10 18//11 17//11
f 19//12 21//12 20//12
f 22//5 24//5 23//5
f 25//13 27//13 26//13
f 28//12 30//14 29//15
f 31//16 33//17 32//18
f 34//19 36//19 35//19
f 17//20 18//20 36//20
f 15//21 38//21 37//21
f 37//22 38//22 39//22
f 40//23 42//16 41//16
f 43//24 44//25 45//25
f 46//26 41//26 42//26
f 47//27 49//28 48//28
f 50//29 51//29 52//29
f 53//30 54//31 55//31
f 56//32 22//26 57//26
f 17//2 59//33 58//34
f 6//13 61//13 60//13
f 62//11 64//35 63//36
f 65//37 66//37 52//38
f 67//39 69//39 68//39
f 70//40 2//13 71//13
f 72//41 74//2 73//42
f 75//43 77//43 76//43
f 78//44 80//44 79//44
f 65//2 81//2 82//2
f 65//37 52//38 81//38
f 83//45 85//39 84//39
f 86//46 88//47 87//47
f 20//48 21//48 53//48
f 36//16 89//49 35//50
f 90//51 28//16 91//16
f 5//52 52//52 81//52
f 92//53 93//54 76//55
f 94//3 95//3 96//3
f 97//56 82//52 81//57
f 98//58 51//59 50//59
f 99//60 100//61 101//61
f 102//62 103//62 104//63
f 64//35 105//64 106//64
f 107//44 69//44 67//44
f 32//18 108//65 109//65
f 110//66 109//67 108//67
f 111//37 113//37 112//37
f 5//4 82//4 6//4
f 114//68 115//69 116//69
f 117//70 116//71 115//71
f 118//72 119//73 120//73
f 14//16 122//74 121//75
f 123//76 124//77 27//78
f 125//79 126//80 127//80
f 128//47 26//47 43//47
f 123//76 129//81 130//81
f 131//82 132//83 133//83
f 134//84 39//85 133//86
f 105//16 55//16 101//16
f 12//6 95//87 94//87
f 71//16 136//88 135//89
f 137//90 106//91 105//91
f 138//92 75//16 139//93
f 140//94 120//95 119//95
f 66//16 5//16 52//16
f 141//96 142//96 58//34
f 143//97 84//16 144//16
f 121//75 55//98 54//98
f 92//53 103//99 102//99
f 130//100 129//100 30//14
f 145//101 146//102 147//102
f 148//48 149//48 91//48
f 150//103 151//104 152//104
f 153//39 154//39 80//39
f 155//105 154//55 153//55
f 156//38 3//38 140//38
f 157//106 158//48 42//48
f 61//13 96//13 6//13
f 49//11 160//11 159//11
f 161//107 152//108 151//108
f 85//55 162//55 144//55
f 163//109 144//43 162//43
f 32//18 73//42 74//78
f 79//110 142//111 141//111
f 68//112 45//113 44//113
f 164//114 23//12 24//12
f 35//50 101//115 100//115
f 165//116 166//16 67//16
f 87//38 88//38 31//38
f 167//117 107//43 166//43
f 62//16 168//118 64//35
f 160//37 117//70 169//119
f 160//2 170//120 117//70
f 171//121 27//16 124//77
f 69//2 172//122 68//112
f 112//21 113//21 104//21
f 60//2 82//2 96//2
f 2//78 3//78 156//78
f 46//2 173//123 150//103
f 174//124 154//16 155//105
f 25//2 175//125 123//76
f 153//2 176//126 125//79
f 113//2 177//127 104//63
f 46//5 150//103 178//128
f 149//2 179//129 99//60
f 48//16 180//130 161//107
f 135//89 127//131 126//131
f 10//16 181//132 12//6
f 60//47 61//47 66//37
f 24//2 182//133 137//90
f 21//2 183//134 53//30
f 57//16 185//135 184//136
f 38//2 186//137 39//85
f 184//136 147//138 146//138
f 91//26 149//26 99//26
f 162//2 187//139 110//66
f 188//2 189//140 98//58
f 139//93 75//44 188//44
f 3//2 1//1 140//94
f 1//1 2//2 70//40
f 9//2 45//2 190//2
f 190//2 133//2 191//2
f 191//2 54//2 97//2
f 54//2 192//2 97//2
f 192//2 94//2 97//2
f 97//2 51//2 193//2
f 193//2 102//2 97//2
f 102//2 194//2 97//2
f 194//2 106//2 7//2
f 106//2 195//2 7//2
f 195//2 146//2 7//2
f 7//2 109//2 196//2
f 196//2 116//2 7//2
f 116//2 197//2 7//2
f 197//2 151//2 8//2
f 151//2 198//2 8//2
f 198//2 120//2 8//2
f 8//2 126//2 199//2
f 199//2 141//2 8//2
f 141//2 200//2 8//2
f 200//2 100//2 9//2
f 100//2 201//2 9//2
f 201//2 129//2 9//2
f 9//2 190//2 97//2
f 190//2 191//2 97//2
f 97//2 194//2 7//2
f 7//2 197//2 8//2
f 8//2 200//2 9//2
f 9//2 97//2 7//2
f 10//5 11//7 19//5
f 13//8 14//9 121//75
f 16//10 17//11 58//34
f 19//12 20//12 10//12
f 22//5 23//5 57//5
f 25//13 26//13 128//13
f 28//12 29//15 148//12
f 33//17 88//16 86//46
f 88//16 33//17 31//16
f 34//19 35//50 202//141
f 17//20 36//20 34//20
f 15//21 37//21 14//21
f 37//22 39//85 134//84
f 42//16 40//23 118//72
f 40//23 41//16 178//128
f 43//24 171//121 203//25
f 45//25 9//25 204//142
f 9//25 175//125 204//142
f 43//24 203//25 44//25
f 45//25 204//142 43//24
f 46//26 42//26 158//26
f 47//27 48//28 161//107
f 51//29 97//56 81//57
f 52//29 5//52 4//29
f 51//29 81//57 52//29
f 52//29 4//29 50//29
f 53//30 183//134 192//31
f 55//31 205//31 206//143
f 205//31 181//132 206//143
f 53//30 192//31 54//31
f 55//31 206//143 53//30
f 56//32 57//26 184//136
f 202//141 59//33 34//2
f 34//2 59//33 17//2
f 6//13 60//13 96//13
f 62//11 63//36 111//11
f 67//39 68//112 207//144
f 70//40 71//13 135//89
f 74//2 72//41 87//2
f 87//2 72//41 145//101
f 75//43 76//43 188//43
f 78//44 79//110 208//145
f 60//2 65//2 82//2
f 83//45 84//39 114//68
f 86//46 87//47 145//101
f 20//48 53//30 206//143
f 16//10 89//49 18//16
f 18//16 89//49 36//16
f 28//16 90//51 30//14
f 90//51 91//16 209//146
f 5//52 81//52 82//52
f 92//55 76//55 77//55
f 95//3 4//3 6//3
f 82//4 97//3 96//3
f 97//3 94//3 96//3
f 95//3 6//3 96//3
f 98//58 189//140 193//147
f 50//59 210//147 139//93
f 210//147 138//92 139//93
f 98//58 193//147 51//59
f 50//59 139//93 98//58
f 99//60 179//129 201//61
f 101//61 211//61 209//146
f 211//61 90//51 209//146
f 99//60 201//61 100//61
f 101//61 209//146 99//60
f 177//127 194//62 104//63
f 194//62 102//62 104//63
f 103//62 212//62 213//148
f 212//62 168//118 213//148
f 103//62 213//148 104//63
f 64//35 168//118 212//64
f 106//64 194//64 63//36
f 194//64 177//127 63//36
f 64//35 212//64 105//64
f 106//64 63//36 64//35
f 107//44 67//44 166//44
f 32//18 33//17 214//65
f 109//65 7//65 73//42
f 7//65 72//41 73//42
f 32//18 214//65 108//65
f 109//65 73//42 32//18
f 108//67 215//149 163//109
f 215//149 143//97 163//109
f 187//139 196//149 110//66
f 196//149 109//67 110//66
f 108//67 163//109 110//66
f 111//37 112//37 62//37
f 6//4 82//4 96//4
f 114//68 143//97 215//69
f 116//69 196//69 83//45
f 196//69 187//139 83//45
f 114//68 215//69 115//69
f 116//69 83//45 114//68
f 115//71 216//71 169//119
f 216//71 180//130 169//119
f 170//120 197//71 117//70
f 197//71 116//71 117//70
f 115//71 169//119 117//70
f 120//73 198//150 157//106
f 198//150 173//123 157//106
f 40//23 217//150 118//72
f 217//150 119//73 118//72
f 120//73 157//106 118//72
f 122//74 37//16 134//84
f 37//16 122//74 14//16
f 123//78 27//78 25//78
f 127//80 218//151 155//105
f 218//151 174//124 155//105
f 176//126 199//151 125//79
f 199//151 126//80 125//79
f 127//80 155//105 125//79
f 128//47 43//24 204//142
f 123//76 175//125 9//81
f 130//81 203//81 124//77
f 203//81 171//121 124//77
f 123//76 9//81 129//81
f 130//81 124//77 123//76
f 131//82 165//116 219//83
f 133//83 190//83 167//117
f 190//83 172//122 167//117
f 131//82 219//83 132//83
f 133//83 167//117 131//82
f 39//85 186//137 191//86
f 132//86 220//86 134//84
f 220//86 122//74 134//84
f 39//85 191//86 133//86
f 132//86 134//84 133//86
f 101//16 221//16 142//16
f 142//16 218//16 127//16
f 127//16 222//16 119//16
f 119//16 217//16 152//16
f 152//16 216//16 115//16
f 115//16 215//16 108//16
f 108//16 214//16 147//16
f 147//16 223//16 105//16
f 105//16 212//16 103//16
f 103//16 210//16 50//16
f 50//16 4//16 95//16
f 95//16 205//16 55//16
f 55//16 220//16 132//16
f 132//16 219//16 55//16
f 219//16 44//16 55//16
f 44//16 203//16 130//16
f 130//16 211//16 101//16
f 101//16 142//16 152//16
f 142//16 127//16 152//16
f 127//16 119//16 152//16
f 152//16 115//16 105//16
f 115//16 108//16 105//16
f 108//16 147//16 105//16
f 105//16 103//16 55//16
f 103//16 50//16 55//16
f 50//16 95//16 55//16
f 44//16 130//16 101//16
f 55//16 44//16 101//16
f 101//16 152//16 105//16
f 66//37 65//37 60//47
f 12//6 181//132 205//152
f 94//87 192//152 11//7
f 192//152 183//134 11//7
f 12//6 205//152 95//87
f 94//87 11//7 12//6
f 136//88 156//16 224//153
f 156//16 136//88 71//16
f 137//90 182//133 195//91
f 105//91 223//91 164//114
f 223//91 185//135 164//114
f 137//90 195//91 106//91
f 105//91 164//114 137//90
f 75//16 138//92 77//16
f 77//16 138//92 92//53
f 140//94 1//1 8//95
f 119//95 222//95 224//153
f 222//95 136//88 224//153
f 140//94 8//95 120//95
f 119//95 224//153 140//94
f 6//16 5//16 61//16
f 61//16 5//16 66//16
f 59//33 200//96 58//34
f 200//96 141//96 58//34
f 142//96 221//96 16//10
f 221//96 89//49 16//10
f 142//96 16//10 58//34
f 84//16 143//97 114//68
f 143//97 144//16 163//109
f 121//75 122//74 220//98
f 54//98 191//98 13//8
f 191//98 186//137 13//8
f 121//75 220//98 55//98
f 54//98 13//8 121//75
f 92//53 138//92 210//99
f 102//99 193//99 93//54
f 193//99 189//140 93//54
f 92//53 210//99 103//99
f 102//99 93//54 92//53
f 90//51 211//154 30//14
f 211//154 130//100 30//14
f 129//100 201//154 29//15
f 201//154 179//129 29//15
f 129//100 29//15 30//14
f 145//101 72//41 7//102
f 147//102 214//102 86//46
f 214//102 33//17 86//46
f 145//101 7//102 146//102
f 147//102 86//46 145//101
f 148//48 91//48 28//48
f 150//103 173//123 198//104
f 152//104 217//104 178//128
f 217//104 40//23 178//128
f 150//103 198//104 151//104
f 152//104 178//128 150//103
f 153//39 80//39 78//39
f 155//105 153//55 125//79
f 156//38 140//94 224//153
f 157//106 42//48 118//72
f 61//13 60//13 96//13
f 49//11 159//11 48//11
f 161//107 180//130 216//108
f 151//108 197//108 47//27
f 197//108 170//120 47//27
f 161//107 216//108 152//108
f 151//108 47//27 161//107
f 85//55 144//55 84//55
f 163//109 162//43 110//66
f 32//78 74//78 31//78
f 79//110 174//124 218//111
f 141//111 199//111 208//145
f 199//111 176//126 208//145
f 79//110 218//111 142//111
f 141//111 208//145 79//110
f 44//113 219//113 207//144
f 219//113 165//116 207//144
f 172//122 190//113 68//112
f 190//113 45//113 68//112
f 44//113 207//144 68//112
f 164//114 24//12 137//90
f 35//50 89//49 221//115
f 100//115 200//115 202//141
f 200//115 59//33 202//141
f 35//50 221//115 101//115
f 100//115 202//141 35//50
f 166//16 165//116 131//82
f 165//116 67//16 207//144
f 87//38 31//38 74//38
f 167//117 166//43 131//82
f 168//118 112//16 213//148
f 112//16 168//118 62//16
f 160//37 169//119 159//37
f 170//120 49//2 47//27
f 49//2 170//120 160//2
f 27//16 171//121 26//16
f 26//16 171//121 43//24
f 172//122 107//2 167//117
f 107//2 172//122 69//2
f 112//21 104//63 213//148
f 2//78 156//78 71//78
f 173//123 158//2 157//106
f 158//2 173//123 46//2
f 154//16 174//124 80//16
f 80//16 174//124 79//110
f 175//125 128//2 204//142
f 128//2 175//125 25//2
f 176//126 78//2 208//145
f 78//2 176//126 153//2
f 63//36 177//127 111//2
f 111//2 177//127 113//2
f 46//5 178//128 41//5
f 179//129 148//2 29//15
f 148//2 179//129 149//2
f 180//130 159//16 169//119
f 159//16 180//130 48//16
f 135//89 136//88 222//131
f 126//131 8//131 70//40
f 8//131 1//1 70//40
f 135//89 222//131 127//131
f 126//131 70//40 135//89
f 181//132 20//16 206//143
f 20//16 181//132 10//16
f 56//32 182//133 22//2
f 22//2 182//133 24//2
f 183//134 19//2 11//7
f 19//2 183//134 21//2
f 164//114 185//135 23//16
f 23//16 185//135 57//16
f 13//8 186//137 15//2
f 15//2 186//137 38//2
f 184//136 185//135 223//155
f 146//138 195//155 56//32
f 195//155 182//133 56//32
f 184//136 223//155 147//138
f 146//138 56//32 184//136
f 91//26 99//60 209//146
f 83//45 187//139 85//2
f 85//2 187//139 162//2
f 93//54 189//140 76//2
f 76//2 189//140 188//2
f 139//93 188//44 98//58
