# 
# Wavefront OBJ file
# Converted by the DEEP Exploration 2.1.10.1214
# Right Hemisphere, LTD
# http://www.righthemisphere.com/
# 
# object subdiv13
g subdiv13
v 7.97004 3.75927e-011 -5
v 5 -1 -5
v 5 -0.707107 -5.70711
v 5 4.08273e-011 -6
v 5 0.707107 -5.70711
v 5 1 -5
v 5 0.707107 -4.29289
v 5 1.02068e-011 -4
v 5 -0.707107 -4.29289
v 5 -1 -5
v 5 -0.707107 -5.70711
v 5 4.08273e-011 -6
v 5 0.707107 -5.70711
v 5 1 -5
v 5 0.707107 -4.29289
v 5 1.02068e-011 -4
v 5 -0.707107 -4.29289
# 17 verticies
vn 1 4.92481e-012 -2.03062e-011
vn 0.999675 -0.0255119 -2.06645e-011
vn 0.999675 -0.0180396 -0.0180396
vn 0.999675 5.32924e-012 -0.0255119
vn 0.999675 0.0180396 -0.0180396
vn 0.999675 0.0255119 -1.9993e-011
vn 0.999675 0.0180396 0.0180396
vn 0.999675 4.54806e-012 0.0255119
vn 0.999675 -0.0180396 0.0180396
vn -1 -5.10341e-012 2.04136e-011
# 10 normals
f  1//1 2//2 3//3
f  1//1 3//3 4//4
f  1//1 4//4 5//5
f  1//1 5//5 6//6
f  1//1 6//6 7//7
f  1//1 7//7 8//8
f  1//1 8//8 9//9
f  1//1 9//9 2//2
f  17//10 16//10 15//10 14//10 13//10 12//10 11//10 10//10
# object subdiv17
g subdiv17
v 1.02908 0.0420643 -5.51019
v 1.02908 0.390501 -5.33101
v 1.02908 0.510188 -4.95794
v 1.02908 0.331013 -4.6095
v 1.02908 -0.0420643 -4.48981
v 1.02908 -0.390501 -4.66899
v 1.02908 -0.510188 -5.04206
v 1.02908 -0.331013 -5.3905
v 5.1 0.0420643 -5.51019
v 5.1 0.390501 -5.33101
v 5.1 0.510188 -4.95794
v 5.1 0.331013 -4.6095
v 5.1 -0.0420643 -4.48981
v 5.1 -0.390501 -4.66899
v 5.1 -0.510188 -5.04206
v 5.1 -0.331013 -5.3905
# 16 verticies
vn -1.58027e-011 0.0821697 -0.996618
vn -1.38738e-011 0.762818 -0.646613
vn -3.81782e-012 0.996618 0.0821697
vn 8.47462e-012 0.646613 0.762818
vn 1.58027e-011 -0.0821697 0.996618
vn 1.38738e-011 -0.762818 0.646613
vn 3.81782e-012 -0.996618 -0.0821697
vn -8.47462e-012 -0.646613 -0.762818
# 8 normals
f  18//11 19//12 27//12 26//11
f  19//12 20//13 28//13 27//12
f  20//13 21//14 29//14 28//13
f  21//14 22//15 30//15 29//14
f  22//15 23//16 31//16 30//15
f  23//16 24//17 32//17 31//16
f  24//17 25//18 33//18 32//17
f  25//18 18//11 26//11 33//18
# object subdiv20
g subdiv20
v 1 1 -6
v 1 1 -4
v 1 -1 -4
v 1 -1 -6
v -1 1 -6
v -1 1 -4
v -1 -1 -4
v -1 -1 -6
v 1 1 -6
v 1 1 -6
v 1 1 -4
v 1 1 -4
v 1 -1 -4
v 1 -1 -4
v 1 -1 -6
v 1 -1 -6
v -1 1 -6
v -1 1 -6
v -1 1 -4
v -1 1 -4
v -1 -1 -4
v -1 -1 -4
v -1 -1 -6
v -1 -1 -6
# 24 verticies
vn 0 1 0
vn 2.04137e-011 0 1
vn 0 -1 0
vn -2.04137e-011 0 -1
vn 1 0 -1.53102e-011
vn -1 0 1.53102e-011
# 6 normals
f  34//19 38//19 39//19 35//19
f  44//20 53//20 40//20 36//20
f  46//21 55//21 41//21 37//21
f  48//22 57//22 50//22 42//22
f  43//23 45//23 47//23 49//23
f  51//24 56//24 54//24 52//24
# object Copy_of_subdiv13
g Copy_of_subdiv13
v 5.42503e-011 -3.08167e-012 2.97004
v -5.54371e-013 -1 5.9501e-016
v 0.707107 -0.707107 -1.44343e-011
v 1 1.02068e-011 -2.0413e-011
v 0.707107 0.707107 -1.44343e-011
v -1.07612e-011 1 5.9501e-016
v -0.707107 0.707107 1.44353e-011
v -1 -1.02068e-011 2.04142e-011
v -0.707107 -0.707107 1.44353e-011
v -5.54371e-013 -1 5.9501e-016
v 0.707107 -0.707107 -1.44343e-011
v 1 1.02068e-011 -2.0413e-011
v 0.707107 0.707107 -1.44343e-011
v -1.07612e-011 1 5.9501e-016
v -0.707107 0.707107 1.44353e-011
v -1 -1.02068e-011 2.04142e-011
v -0.707107 -0.707107 1.44353e-011
# 17 verticies
vn 2.03063e-011 -1.78602e-013 1
vn 2.05343e-011 -0.0255119 0.999675
vn 0.0180396 -0.0180396 0.999675
vn 0.0255119 9.72945e-014 0.999675
vn 0.0180396 0.0180396 0.999675
vn 2.01232e-011 0.0255119 0.999675
vn -0.0180396 0.0180396 0.999675
vn -0.0255119 -4.23496e-013 0.999675
vn -0.0180396 -0.0180396 0.999675
vn -2.04137e-011 1.79471e-027 -1
# 10 normals
f  58//25 59//26 60//27
f  58//25 60//27 61//28
f  58//25 61//28 62//29
f  58//25 62//29 63//30
f  58//25 63//30 64//31
f  58//25 64//31 65//32
f  58//25 65//32 66//33
f  58//25 66//33 59//26
f  74//34 73//34 72//34 71//34 70//34 69//34 68//34 67//34
# object Copy_of_subdiv17
g Copy_of_subdiv17
v 0.510188 0.0420643 -3.97092
v 0.331013 0.390501 -3.97092
v -0.0420643 0.510188 -3.97092
v -0.390501 0.331013 -3.97092
v -0.510188 -0.0420643 -3.97092
v -0.331013 -0.390501 -3.97092
v 0.0420643 -0.510188 -3.97092
v 0.390501 -0.331013 -3.97092
v 0.510188 0.0420643 0.1
v 0.331013 0.390501 0.1
v -0.0420643 0.510188 0.1
v -0.390501 0.331013 0.1
v -0.510188 -0.0420643 0.1
v -0.331013 -0.390501 0.1
v 0.0420643 -0.510188 0.1
v 0.390501 -0.331013 0.1
# 16 verticies
vn 0.996618 0.0821697 -1.53834e-011
vn 0.646613 0.762818 -9.98089e-012
vn -0.0821697 0.996618 1.26834e-012
vn -0.762818 0.646613 1.17746e-011
vn -0.996618 -0.0821697 1.53834e-011
vn -0.646613 -0.762818 9.98088e-012
vn 0.0821697 -0.996618 -1.26834e-012
vn 0.762818 -0.646613 -1.17746e-011
# 8 normals
f  75//35 76//36 84//36 83//35
f  76//36 77//37 85//37 84//36
f  77//37 78//38 86//38 85//37
f  78//38 79//39 87//39 86//38
f  79//39 80//40 88//40 87//39
f  80//40 81//41 89//41 88//40
f  81//41 82//42 90//42 89//41
f  82//42 75//35 83//35 90//42
# object Copy_1_of_subdiv13
g Copy_1_of_subdiv13
v -6.77729e-011 7.97004 -5
v -6.17953e-011 5 -4
v 0.707107 5 -4.29289
v 1 5 -5
v 0.707107 5 -5.70711
v -1.02623e-010 5 -6
v -0.707107 5 -5.70711
v -1 5 -5
v -0.707107 5 -4.29289
v -6.17953e-011 5 -4
v 0.707107 5 -4.29289
v 1 5 -5
v 0.707107 5 -5.70711
v -1.02623e-010 5 -6
v -0.707107 5 -5.70711
v -1 5 -5
v -0.707107 5 -4.29289
# 17 verticies
vn 4.99606e-012 1 1.78602e-013
vn 5.61969e-012 0.999675 0.0255119
vn 0.0180396 0.999675 0.0180396
vn 0.0255119 0.999675 -4.87888e-013
vn 0.0180396 0.999675 -0.0180396
vn 4.42739e-012 0.999675 -0.0255119
vn -0.0180396 0.999675 -0.0180396
vn -0.0255119 0.999675 8.14089e-013
vn -0.0180396 0.999675 0.0180396
vn -5.10346e-012 -1 7.81334e-023
# 10 normals
f  91//43 92//44 93//45
f  91//43 93//45 94//46
f  91//43 94//46 95//47
f  91//43 95//47 96//48
f  91//43 96//48 97//49
f  91//43 97//49 98//50
f  91//43 98//50 99//51
f  91//43 99//51 92//44
f  107//52 106//52 105//52 104//52 103//52 102//52 101//52 100//52
# object Copy_1_of_subdiv17
g Copy_1_of_subdiv17
v 0.510188 1.02908 -5.04206
v 0.331013 1.02908 -5.3905
v -0.0420643 1.02908 -5.51019
v -0.390501 1.02908 -5.33101
v -0.510188 1.02908 -4.95794
v -0.331013 1.02908 -4.6095
v 0.0420643 1.02908 -4.48981
v 0.390501 1.02908 -4.66899
v 0.510188 5.1 -5.04206
v 0.331013 5.1 -5.3905
v -0.0420643 5.1 -5.51019
v -0.390501 5.1 -5.33101
v -0.510188 5.1 -4.95794
v -0.331013 5.1 -4.6095
v 0.0420643 5.1 -4.48981
v 0.390501 5.1 -4.66899
# 16 verticies
vn 0.996618 -1.24984e-013 -0.0821697
vn 0.646613 -8.10914e-014 -0.762818
vn -0.0821697 1.03045e-014 -0.996618
vn -0.762818 9.56575e-014 -0.646613
vn -0.996618 1.24971e-013 0.0821697
vn -0.646613 8.10838e-014 0.762818
vn 0.0821697 -1.03048e-014 0.996618
vn 0.762818 -9.56631e-014 0.646613
# 8 normals
f  108//53 109//54 117//54 116//53
f  109//54 110//55 118//55 117//54
f  110//55 111//56 119//56 118//55
f  111//56 112//57 120//57 119//56
f  112//57 113//58 121//58 120//57
f  113//58 114//59 122//59 121//58
f  114//59 115//60 123//60 122//59
f  115//60 108//53 116//53 123//60
