# Blender v2.79 (sub 6) OBJ File: ''
# www.blender.org
mtllib Gran_cylinder_transparent.mtl
o Cylinder_Cylinder.001
v 0.000000 1.000000 -1.000000
v 0.000000 1.000000 1.000000
v 0.049068 0.998795 -1.000000
v 0.049068 0.998795 1.000000
v 0.098017 0.995185 -1.000000
v 0.098017 0.995185 1.000000
v 0.146730 0.989177 -1.000000
v 0.146730 0.989177 1.000000
v 0.195090 0.980785 -1.000000
v 0.195090 0.980785 1.000000
v 0.242980 0.970031 -1.000000
v 0.242980 0.970031 1.000000
v 0.290285 0.956940 -1.000000
v 0.290285 0.956940 1.000000
v 0.336890 0.941544 -1.000000
v 0.336890 0.941544 1.000000
v 0.382683 0.923880 -1.000000
v 0.382683 0.923880 1.000000
v 0.427555 0.903989 -1.000000
v 0.427555 0.903989 1.000000
v 0.471397 0.881921 -1.000000
v 0.471397 0.881921 1.000000
v 0.514103 0.857729 -1.000000
v 0.514103 0.857729 1.000000
v 0.555570 0.831470 -1.000000
v 0.555570 0.831470 1.000000
v 0.595699 0.803208 -1.000000
v 0.595699 0.803208 1.000000
v 0.634393 0.773010 -1.000000
v 0.634393 0.773010 1.000000
v 0.671559 0.740951 -1.000000
v 0.671559 0.740951 1.000000
v 0.707107 0.707107 -1.000000
v 0.707107 0.707107 1.000000
v 0.740951 0.671559 -1.000000
v 0.740951 0.671559 1.000000
v 0.773011 0.634393 -1.000000
v 0.773011 0.634393 1.000000
v 0.803208 0.595699 -1.000000
v 0.803208 0.595699 1.000000
v 0.831470 0.555570 -1.000000
v 0.831470 0.555570 1.000000
v 0.857729 0.514103 -1.000000
v 0.857729 0.514103 1.000000
v 0.881921 0.471397 -1.000000
v 0.881921 0.471397 1.000000
v 0.903989 0.427555 -1.000000
v 0.903989 0.427555 1.000000
v 0.923880 0.382683 -1.000000
v 0.923880 0.382683 1.000000
v 0.941544 0.336890 -1.000000
v 0.941544 0.336890 1.000000
v 0.956940 0.290284 -1.000000
v 0.956940 0.290284 1.000000
v 0.970031 0.242980 -1.000000
v 0.970031 0.242980 1.000000
v 0.980785 0.195090 -1.000000
v 0.980785 0.195090 1.000000
v 0.989177 0.146730 -1.000000
v 0.989177 0.146730 1.000000
v 0.995185 0.098017 -1.000000
v 0.995185 0.098017 1.000000
v 0.998795 0.049067 -1.000000
v 0.998795 0.049067 1.000000
v 1.000000 -0.000000 -1.000000
v 1.000000 -0.000000 1.000000
v 0.998795 -0.049068 -1.000000
v 0.998795 -0.049068 1.000000
v 0.995185 -0.098018 -1.000000
v 0.995185 -0.098018 1.000000
v 0.989176 -0.146731 -1.000000
v 0.989176 -0.146731 1.000000
v 0.980785 -0.195091 -1.000000
v 0.980785 -0.195091 1.000000
v 0.970031 -0.242981 -1.000000
v 0.970031 -0.242981 1.000000
v 0.956940 -0.290285 -1.000000
v 0.956940 -0.290285 1.000000
v 0.941544 -0.336890 -1.000000
v 0.941544 -0.336890 1.000000
v 0.923879 -0.382684 -1.000000
v 0.923879 -0.382684 1.000000
v 0.903989 -0.427556 -1.000000
v 0.903989 -0.427556 1.000000
v 0.881921 -0.471397 -1.000000
v 0.881921 -0.471397 1.000000
v 0.857728 -0.514103 -1.000000
v 0.857728 -0.514103 1.000000
v 0.831470 -0.555570 -1.000000
v 0.831470 -0.555570 1.000000
v 0.803208 -0.595699 -1.000000
v 0.803208 -0.595699 1.000000
v 0.773010 -0.634393 -1.000000
v 0.773010 -0.634393 1.000000
v 0.740951 -0.671559 -1.000000
v 0.740951 -0.671559 1.000000
v 0.707107 -0.707107 -1.000000
v 0.707107 -0.707107 1.000000
v 0.671559 -0.740951 -1.000000
v 0.671559 -0.740951 1.000000
v 0.634394 -0.773010 -1.000000
v 0.634394 -0.773010 1.000000
v 0.595700 -0.803207 -1.000000
v 0.595700 -0.803207 1.000000
v 0.555571 -0.831469 -1.000000
v 0.555571 -0.831469 1.000000
v 0.514103 -0.857728 -1.000000
v 0.514103 -0.857728 1.000000
v 0.471397 -0.881921 -1.000000
v 0.471397 -0.881921 1.000000
v 0.427556 -0.903989 -1.000000
v 0.427556 -0.903989 1.000000
v 0.382684 -0.923879 -1.000000
v 0.382684 -0.923879 1.000000
v 0.336891 -0.941544 -1.000000
v 0.336891 -0.941544 1.000000
v 0.290286 -0.956940 -1.000000
v 0.290286 -0.956940 1.000000
v 0.242981 -0.970031 -1.000000
v 0.242981 -0.970031 1.000000
v 0.195092 -0.980785 -1.000000
v 0.195092 -0.980785 1.000000
v 0.146732 -0.989176 -1.000000
v 0.146732 -0.989176 1.000000
v 0.098019 -0.995185 -1.000000
v 0.098019 -0.995185 1.000000
v 0.049069 -0.998795 -1.000000
v 0.049069 -0.998795 1.000000
v 0.000002 -1.000000 -1.000000
v 0.000002 -1.000000 1.000000
v -0.049066 -0.998796 -1.000000
v -0.049066 -0.998796 1.000000
v -0.098015 -0.995185 -1.000000
v -0.098015 -0.995185 1.000000
v -0.146728 -0.989177 -1.000000
v -0.146728 -0.989177 1.000000
v -0.195088 -0.980786 -1.000000
v -0.195088 -0.980786 1.000000
v -0.242978 -0.970032 -1.000000
v -0.242978 -0.970032 1.000000
v -0.290282 -0.956941 -1.000000
v -0.290282 -0.956941 1.000000
v -0.336887 -0.941545 -1.000000
v -0.336887 -0.941545 1.000000
v -0.382681 -0.923881 -1.000000
v -0.382681 -0.923881 1.000000
v -0.427553 -0.903990 -1.000000
v -0.427553 -0.903990 1.000000
v -0.471394 -0.881923 -1.000000
v -0.471394 -0.881923 1.000000
v -0.514100 -0.857730 -1.000000
v -0.514100 -0.857730 1.000000
v -0.555568 -0.831471 -1.000000
v -0.555568 -0.831471 1.000000
v -0.595697 -0.803209 -1.000000
v -0.595697 -0.803209 1.000000
v -0.634391 -0.773013 -1.000000
v -0.634391 -0.773013 1.000000
v -0.671557 -0.740953 -1.000000
v -0.671557 -0.740953 1.000000
v -0.707104 -0.707109 -1.000000
v -0.707104 -0.707109 1.000000
v -0.740949 -0.671562 -1.000000
v -0.740949 -0.671562 1.000000
v -0.773008 -0.634396 -1.000000
v -0.773008 -0.634396 1.000000
v -0.803206 -0.595702 -1.000000
v -0.803206 -0.595702 1.000000
v -0.831468 -0.555573 -1.000000
v -0.831468 -0.555573 1.000000
v -0.857727 -0.514105 -1.000000
v -0.857727 -0.514105 1.000000
v -0.881920 -0.471399 -1.000000
v -0.881920 -0.471399 1.000000
v -0.903988 -0.427557 -1.000000
v -0.903988 -0.427557 1.000000
v -0.923879 -0.382686 -1.000000
v -0.923879 -0.382686 1.000000
v -0.941543 -0.336892 -1.000000
v -0.941543 -0.336892 1.000000
v -0.956940 -0.290287 -1.000000
v -0.956940 -0.290287 1.000000
v -0.970031 -0.242982 -1.000000
v -0.970031 -0.242982 1.000000
v -0.980785 -0.195092 -1.000000
v -0.980785 -0.195092 1.000000
v -0.989176 -0.146732 -1.000000
v -0.989176 -0.146732 1.000000
v -0.995185 -0.098019 -1.000000
v -0.995185 -0.098019 1.000000
v -0.998795 -0.049069 -1.000000
v -0.998795 -0.049069 1.000000
v -1.000000 -0.000001 -1.000000
v -1.000000 -0.000001 1.000000
v -0.998796 0.049066 -1.000000
v -0.998796 0.049066 1.000000
v -0.995185 0.098016 -1.000000
v -0.995185 0.098016 1.000000
v -0.989177 0.146729 -1.000000
v -0.989177 0.146729 1.000000
v -0.980785 0.195089 -1.000000
v -0.980785 0.195089 1.000000
v -0.970031 0.242979 -1.000000
v -0.970031 0.242979 1.000000
v -0.956941 0.290284 -1.000000
v -0.956941 0.290284 1.000000
v -0.941544 0.336889 -1.000000
v -0.941544 0.336889 1.000000
v -0.923880 0.382683 -1.000000
v -0.923880 0.382683 1.000000
v -0.903989 0.427555 -1.000000
v -0.903989 0.427555 1.000000
v -0.881921 0.471397 -1.000000
v -0.881921 0.471397 1.000000
v -0.857729 0.514103 -1.000000
v -0.857729 0.514103 1.000000
v -0.831469 0.555570 -1.000000
v -0.831469 0.555570 1.000000
v -0.803207 0.595700 -1.000000
v -0.803207 0.595700 1.000000
v -0.773010 0.634394 -1.000000
v -0.773010 0.634394 1.000000
v -0.740951 0.671559 -1.000000
v -0.740951 0.671559 1.000000
v -0.707106 0.707107 -1.000000
v -0.707106 0.707107 1.000000
v -0.671558 0.740952 -1.000000
v -0.671558 0.740952 1.000000
v -0.634392 0.773011 -1.000000
v -0.634392 0.773011 1.000000
v -0.595698 0.803208 -1.000000
v -0.595698 0.803208 1.000000
v -0.555569 0.831470 -1.000000
v -0.555569 0.831470 1.000000
v -0.514101 0.857729 -1.000000
v -0.514101 0.857729 1.000000
v -0.471395 0.881922 -1.000000
v -0.471395 0.881922 1.000000
v -0.427553 0.903990 -1.000000
v -0.427553 0.903990 1.000000
v -0.382682 0.923880 -1.000000
v -0.382682 0.923880 1.000000
v -0.336888 0.941545 -1.000000
v -0.336888 0.941545 1.000000
v -0.290283 0.956941 -1.000000
v -0.290283 0.956941 1.000000
v -0.242978 0.970032 -1.000000
v -0.242978 0.970032 1.000000
v -0.195088 0.980786 -1.000000
v -0.195088 0.980786 1.000000
v -0.146728 0.989177 -1.000000
v -0.146728 0.989177 1.000000
v -0.098014 0.995185 -1.000000
v -0.098014 0.995185 1.000000
v -0.049065 0.998796 -1.000000
v -0.049065 0.998796 1.000000
vn 0.0245 0.9997 0.0000
vn 0.0736 0.9973 0.0000
vn 0.1224 0.9925 0.0000
vn 0.1710 0.9853 0.0000
vn 0.2191 0.9757 0.0000
vn 0.2667 0.9638 0.0000
vn 0.3137 0.9495 0.0000
vn 0.3599 0.9330 0.0000
vn 0.4052 0.9142 0.0000
vn 0.4496 0.8932 0.0000
vn 0.4929 0.8701 0.0000
vn 0.5350 0.8449 0.0000
vn 0.5758 0.8176 0.0000
vn 0.6152 0.7883 0.0000
vn 0.6532 0.7572 0.0000
vn 0.6895 0.7242 0.0000
vn 0.7242 0.6895 0.0000
vn 0.7572 0.6532 0.0000
vn 0.7883 0.6152 0.0000
vn 0.8176 0.5758 0.0000
vn 0.8449 0.5350 0.0000
vn 0.8701 0.4929 0.0000
vn 0.8932 0.4496 0.0000
vn 0.9142 0.4052 0.0000
vn 0.9330 0.3599 0.0000
vn 0.9495 0.3137 0.0000
vn 0.9638 0.2667 0.0000
vn 0.9757 0.2191 0.0000
vn 0.9853 0.1710 0.0000
vn 0.9925 0.1224 0.0000
vn 0.9973 0.0736 0.0000
vn 0.9997 0.0245 0.0000
vn 0.9997 -0.0245 0.0000
vn 0.9973 -0.0736 0.0000
vn 0.9925 -0.1224 0.0000
vn 0.9853 -0.1710 0.0000
vn 0.9757 -0.2191 0.0000
vn 0.9638 -0.2667 0.0000
vn 0.9495 -0.3137 0.0000
vn 0.9330 -0.3599 0.0000
vn 0.9142 -0.4052 0.0000
vn 0.8932 -0.4496 0.0000
vn 0.8701 -0.4929 0.0000
vn 0.8449 -0.5350 0.0000
vn 0.8176 -0.5758 0.0000
vn 0.7883 -0.6152 0.0000
vn 0.7572 -0.6532 0.0000
vn 0.7242 -0.6895 0.0000
vn 0.6895 -0.7242 0.0000
vn 0.6532 -0.7572 0.0000
vn 0.6152 -0.7883 0.0000
vn 0.5758 -0.8176 0.0000
vn 0.5350 -0.8449 0.0000
vn 0.4929 -0.8701 0.0000
vn 0.4496 -0.8932 0.0000
vn 0.4052 -0.9142 0.0000
vn 0.3599 -0.9330 0.0000
vn 0.3137 -0.9495 0.0000
vn 0.2667 -0.9638 0.0000
vn 0.2191 -0.9757 0.0000
vn 0.1710 -0.9853 0.0000
vn 0.1224 -0.9925 0.0000
vn 0.0736 -0.9973 0.0000
vn 0.0245 -0.9997 0.0000
vn -0.0245 -0.9997 0.0000
vn -0.0736 -0.9973 0.0000
vn -0.1224 -0.9925 0.0000
vn -0.1710 -0.9853 0.0000
vn -0.2191 -0.9757 0.0000
vn -0.2667 -0.9638 0.0000
vn -0.3137 -0.9495 0.0000
vn -0.3599 -0.9330 0.0000
vn -0.4052 -0.9142 0.0000
vn -0.4496 -0.8932 0.0000
vn -0.4929 -0.8701 0.0000
vn -0.5350 -0.8449 0.0000
vn -0.5758 -0.8176 0.0000
vn -0.6152 -0.7883 0.0000
vn -0.6532 -0.7572 0.0000
vn -0.6895 -0.7242 0.0000
vn -0.7242 -0.6895 0.0000
vn -0.7572 -0.6532 0.0000
vn -0.7883 -0.6152 0.0000
vn -0.8176 -0.5758 0.0000
vn -0.8449 -0.5350 0.0000
vn -0.8701 -0.4929 0.0000
vn -0.8932 -0.4496 0.0000
vn -0.9142 -0.4052 0.0000
vn -0.9330 -0.3599 0.0000
vn -0.9495 -0.3137 0.0000
vn -0.9638 -0.2667 0.0000
vn -0.9757 -0.2191 0.0000
vn -0.9853 -0.1710 0.0000
vn -0.9925 -0.1224 0.0000
vn -0.9973 -0.0736 0.0000
vn -0.9997 -0.0245 0.0000
vn -0.9997 0.0245 0.0000
vn -0.9973 0.0736 0.0000
vn -0.9925 0.1224 0.0000
vn -0.9853 0.1710 0.0000
vn -0.9757 0.2191 0.0000
vn -0.9638 0.2667 0.0000
vn -0.9495 0.3137 0.0000
vn -0.9330 0.3599 0.0000
vn -0.9142 0.4052 0.0000
vn -0.8932 0.4496 0.0000
vn -0.8701 0.4929 0.0000
vn -0.8449 0.5350 0.0000
vn -0.8176 0.5758 0.0000
vn -0.7883 0.6152 0.0000
vn -0.7572 0.6532 0.0000
vn -0.7242 0.6895 0.0000
vn -0.6895 0.7242 0.0000
vn -0.6532 0.7572 0.0000
vn -0.6152 0.7883 0.0000
vn -0.5758 0.8176 0.0000
vn -0.5350 0.8449 0.0000
vn -0.4929 0.8701 0.0000
vn -0.4496 0.8932 0.0000
vn -0.4052 0.9142 0.0000
vn -0.3599 0.9330 0.0000
vn -0.3137 0.9495 0.0000
vn -0.2667 0.9638 0.0000
vn -0.2191 0.9757 0.0000
vn -0.1710 0.9853 0.0000
vn -0.1224 0.9925 0.0000
vn -0.0000 0.0000 1.0000
vn -0.0736 0.9973 0.0000
vn -0.0245 0.9997 0.0000
vn -0.0000 0.0000 -1.0000
usemtl Material.002
s off
f 1//1 2//1 4//1 3//1
f 3//2 4//2 6//2 5//2
f 5//3 6//3 8//3 7//3
f 7//4 8//4 10//4 9//4
f 9//5 10//5 12//5 11//5
f 11//6 12//6 14//6 13//6
f 13//7 14//7 16//7 15//7
f 15//8 16//8 18//8 17//8
f 17//9 18//9 20//9 19//9
f 19//10 20//10 22//10 21//10
f 21//11 22//11 24//11 23//11
f 23//12 24//12 26//12 25//12
f 25//13 26//13 28//13 27//13
f 27//14 28//14 30//14 29//14
f 29//15 30//15 32//15 31//15
f 31//16 32//16 34//16 33//16
f 33//17 34//17 36//17 35//17
f 35//18 36//18 38//18 37//18
f 37//19 38//19 40//19 39//19
f 39//20 40//20 42//20 41//20
f 41//21 42//21 44//21 43//21
f 43//22 44//22 46//22 45//22
f 45//23 46//23 48//23 47//23
f 47//24 48//24 50//24 49//24
f 49//25 50//25 52//25 51//25
f 51//26 52//26 54//26 53//26
f 53//27 54//27 56//27 55//27
f 55//28 56//28 58//28 57//28
f 57//29 58//29 60//29 59//29
f 59//30 60//30 62//30 61//30
f 61//31 62//31 64//31 63//31
f 63//32 64//32 66//32 65//32
f 65//33 66//33 68//33 67//33
f 67//34 68//34 70//34 69//34
f 69//35 70//35 72//35 71//35
f 71//36 72//36 74//36 73//36
f 73//37 74//37 76//37 75//37
f 75//38 76//38 78//38 77//38
f 77//39 78//39 80//39 79//39
f 79//40 80//40 82//40 81//40
f 81//41 82//41 84//41 83//41
f 83//42 84//42 86//42 85//42
f 85//43 86//43 88//43 87//43
f 87//44 88//44 90//44 89//44
f 89//45 90//45 92//45 91//45
f 91//46 92//46 94//46 93//46
f 93//47 94//47 96//47 95//47
f 95//48 96//48 98//48 97//48
f 97//49 98//49 100//49 99//49
f 99//50 100//50 102//50 101//50
f 101//51 102//51 104//51 103//51
f 103//52 104//52 106//52 105//52
f 105//53 106//53 108//53 107//53
f 107//54 108//54 110//54 109//54
f 109//55 110//55 112//55 111//55
f 111//56 112//56 114//56 113//56
f 113//57 114//57 116//57 115//57
f 115//58 116//58 118//58 117//58
f 117//59 118//59 120//59 119//59
f 119//60 120//60 122//60 121//60
f 121//61 122//61 124//61 123//61
f 123//62 124//62 126//62 125//62
f 125//63 126//63 128//63 127//63
f 127//64 128//64 130//64 129//64
f 129//65 130//65 132//65 131//65
f 131//66 132//66 134//66 133//66
f 133//67 134//67 136//67 135//67
f 135//68 136//68 138//68 137//68
f 137//69 138//69 140//69 139//69
f 139//70 140//70 142//70 141//70
f 141//71 142//71 144//71 143//71
f 143//72 144//72 146//72 145//72
f 145//73 146//73 148//73 147//73
f 147//74 148//74 150//74 149//74
f 149//75 150//75 152//75 151//75
f 151//76 152//76 154//76 153//76
f 153//77 154//77 156//77 155//77
f 155//78 156//78 158//78 157//78
f 157//79 158//79 160//79 159//79
f 159//80 160//80 162//80 161//80
f 161//81 162//81 164//81 163//81
f 163//82 164//82 166//82 165//82
f 165//83 166//83 168//83 167//83
f 167//84 168//84 170//84 169//84
f 169//85 170//85 172//85 171//85
f 171//86 172//86 174//86 173//86
f 173//87 174//87 176//87 175//87
f 175//88 176//88 178//88 177//88
f 177//89 178//89 180//89 179//89
f 179//90 180//90 182//90 181//90
f 181//91 182//91 184//91 183//91
f 183//92 184//92 186//92 185//92
f 185//93 186//93 188//93 187//93
f 187//94 188//94 190//94 189//94
f 189//95 190//95 192//95 191//95
f 191//96 192//96 194//96 193//96
f 193//97 194//97 196//97 195//97
f 195//98 196//98 198//98 197//98
f 197//99 198//99 200//99 199//99
f 199//100 200//100 202//100 201//100
f 201//101 202//101 204//101 203//101
f 203//102 204//102 206//102 205//102
f 205//103 206//103 208//103 207//103
f 207//104 208//104 210//104 209//104
f 209//105 210//105 212//105 211//105
f 211//106 212//106 214//106 213//106
f 213//107 214//107 216//107 215//107
f 215//108 216//108 218//108 217//108
f 217//109 218//109 220//109 219//109
f 219//110 220//110 222//110 221//110
f 221//111 222//111 224//111 223//111
f 223//112 224//112 226//112 225//112
f 225//113 226//113 228//113 227//113
f 227//114 228//114 230//114 229//114
f 229//115 230//115 232//115 231//115
f 231//116 232//116 234//116 233//116
f 233//117 234//117 236//117 235//117
f 235//118 236//118 238//118 237//118
f 237//119 238//119 240//119 239//119
f 239//120 240//120 242//120 241//120
f 241//121 242//121 244//121 243//121
f 243//122 244//122 246//122 245//122
f 245//123 246//123 248//123 247//123
f 247//124 248//124 250//124 249//124
f 249//125 250//125 252//125 251//125
f 251//126 252//126 254//126 253//126
f 4//127 2//127 256//127 254//127 252//127 250//127 248//127 246//127 244//127 242//127 240//127 238//127 236//127 234//127 232//127 230//127 228//127 226//127 224//127 222//127 220//127 218//127 216//127 214//127 212//127 210//127 208//127 206//127 204//127 202//127 200//127 198//127 196//127 194//127 192//127 190//127 188//127 186//127 184//127 182//127 180//127 178//127 176//127 174//127 172//127 170//127 168//127 166//127 164//127 162//127 160//127 158//127 156//127 154//127 152//127 150//127 148//127 146//127 144//127 142//127 140//127 138//127 136//127 134//127 132//127 130//127 128//127 126//127 124//127 122//127 120//127 118//127 116//127 114//127 112//127 110//127 108//127 106//127 104//127 102//127 100//127 98//127 96//127 94//127 92//127 90//127 88//127 86//127 84//127 82//127 80//127 78//127 76//127 74//127 72//127 70//127 68//127 66//127 64//127 62//127 60//127 58//127 56//127 54//127 52//127 50//127 48//127 46//127 44//127 42//127 40//127 38//127 36//127 34//127 32//127 30//127 28//127 26//127 24//127 22//127 20//127 18//127 16//127 14//127 12//127 10//127 8//127 6//127
f 253//128 254//128 256//128 255//128
f 255//129 256//129 2//129 1//129
f 1//130 3//130 5//130 7//130 9//130 11//130 13//130 15//130 17//130 19//130 21//130 23//130 25//130 27//130 29//130 31//130 33//130 35//130 37//130 39//130 41//130 43//130 45//130 47//130 49//130 51//130 53//130 55//130 57//130 59//130 61//130 63//130 65//130 67//130 69//130 71//130 73//130 75//130 77//130 79//130 81//130 83//130 85//130 87//130 89//130 91//130 93//130 95//130 97//130 99//130 101//130 103//130 105//130 107//130 109//130 111//130 113//130 115//130 117//130 119//130 121//130 123//130 125//130 127//130 129//130 131//130 133//130 135//130 137//130 139//130 141//130 143//130 145//130 147//130 149//130 151//130 153//130 155//130 157//130 159//130 161//130 163//130 165//130 167//130 169//130 171//130 173//130 175//130 177//130 179//130 181//130 183//130 185//130 187//130 189//130 191//130 193//130 195//130 197//130 199//130 201//130 203//130 205//130 207//130 209//130 211//130 213//130 215//130 217//130 219//130 221//130 223//130 225//130 227//130 229//130 231//130 233//130 235//130 237//130 239//130 241//130 243//130 245//130 247//130 249//130 251//130 253//130 255//130
