# Blender v2.79 (sub 0) OBJ File: ''
# www.blender.org
o Plane
v 0.000000 0.000000 0.000000
v -1.000000 0.000000 0.000000
v 0.000000 -1.000000 0.000000
v 1.000000 0.000000 0.000000
v 0.000000 1.000000 0.000000
v -1.000000 1.000000 0.000000
v -1.000000 -1.000000 0.000000
v 1.000000 -1.000000 0.000000
v 1.000000 1.000000 0.000000
v 1.000000 2.000000 0.000000
v 0.000000 2.000000 0.000000
v -1.000000 2.000000 0.000000
v -2.000000 1.000000 0.000000
v -2.000000 0.000000 0.000000
v -2.000000 -1.000000 0.000000
v -1.000000 -2.000000 0.000000
v 0.000000 -2.000000 0.000000
v 1.000000 -2.000000 0.000000
v 2.000000 -1.000000 0.000000
v 2.000000 0.000000 0.000000
v 2.000000 1.000000 0.000000
v -2.000000 2.000000 0.000000
v -2.000000 -2.000000 0.000000
v 2.000000 2.000000 0.000000
v 2.000000 -2.000000 0.000000
vn 0.0000 0.0000 1.0000
s off
f 5//1 2//1 1//1
f 6//1 14//1 2//1
f 11//1 6//1 5//1
f 12//1 13//1 6//1
f 2//1 3//1 1//1
f 7//1 17//1 3//1
f 14//1 7//1 2//1
f 15//1 16//1 7//1
f 3//1 4//1 1//1
f 8//1 20//1 4//1
f 17//1 8//1 3//1
f 18//1 19//1 8//1
f 4//1 5//1 1//1
f 9//1 11//1 5//1
f 20//1 9//1 4//1
f 21//1 10//1 9//1
f 5//1 6//1 2//1
f 6//1 13//1 14//1
f 11//1 12//1 6//1
f 12//1 22//1 13//1
f 2//1 7//1 3//1
f 7//1 16//1 17//1
f 14//1 15//1 7//1
f 15//1 23//1 16//1
f 3//1 8//1 4//1
f 8//1 19//1 20//1
f 17//1 18//1 8//1
f 18//1 25//1 19//1
f 4//1 9//1 5//1
f 9//1 10//1 11//1
f 20//1 21//1 9//1
f 21//1 24//1 10//1
