# Blender v2.79 (sub 0) OBJ File: ''
# www.blender.org
o Plane_Plane.002
v 0.000000 0.000000 0.000000
v -0.500000 0.000000 0.000000
v -1.000000 0.000000 0.000000
v -1.500000 0.000000 0.000000
v 0.000000 -0.500000 0.000000
v 0.000000 -1.000000 0.000000
v 0.000000 -1.500000 0.000000
v 0.500000 0.000000 0.000000
v 1.000000 0.000000 0.000000
v 1.500000 0.000000 0.000000
v 0.000000 0.500000 0.000000
v 0.000000 1.000000 0.000000
v 0.000000 1.500000 0.000000
v -0.500000 0.500000 0.000000
v -1.000000 0.500000 0.000000
v -1.500000 0.500000 0.000000
v -0.500000 1.000000 0.000000
v -1.000000 1.000000 0.000000
v -1.500000 1.000000 0.000000
v -0.500000 1.500000 0.000000
v -1.000000 1.500000 0.000000
v -1.500000 1.500000 0.000000
v -0.500000 -0.500000 0.000000
v -0.500000 -1.000000 0.000000
v -0.500000 -1.500000 0.000000
v -1.000000 -0.500000 0.000000
v -1.000000 -1.000000 0.000000
v -1.000000 -1.500000 0.000000
v -1.500000 -0.500000 0.000000
v -1.500000 -1.000000 0.000000
v -1.500000 -1.500000 0.000000
v 0.500000 -0.500000 0.000000
v 1.000000 -0.500000 0.000000
v 1.500000 -0.500000 0.000000
v 0.500000 -1.000000 0.000000
v 1.000000 -1.000000 0.000000
v 1.500000 -1.000000 0.000000
v 0.500000 -1.500000 0.000000
v 1.000000 -1.500000 0.000000
v 1.500000 -1.500000 0.000000
v 0.500000 0.500000 0.000000
v 0.500000 1.000000 0.000000
v 0.500000 1.500000 0.000000
v 1.000000 0.500000 0.000000
v 1.000000 1.000000 0.000000
v 1.000000 1.500000 0.000000
v 1.500000 0.500000 0.000000
v 1.500000 1.000000 0.000000
v 1.500000 1.500000 0.000000
v 1.500000 2.000000 0.000000
v 1.000000 2.000000 0.000000
v 0.500000 2.000000 0.000000
v 0.000000 2.000000 0.000000
v -0.500000 2.000000 0.000000
v -1.000000 2.000000 0.000000
v -1.500000 2.000000 0.000000
v -2.000000 1.500000 0.000000
v -2.000000 1.000000 0.000000
v -2.000000 0.500000 0.000000
v -2.000000 0.000000 0.000000
v -2.000000 -0.500000 0.000000
v -2.000000 -1.000000 0.000000
v -2.000000 -1.500000 0.000000
v -1.500000 -2.000000 0.000000
v -1.000000 -2.000000 0.000000
v -0.500000 -2.000000 0.000000
v 0.000000 -2.000000 0.000000
v 0.500000 -2.000000 0.000000
v 1.000000 -2.000000 0.000000
v 1.500000 -2.000000 0.000000
v 2.000000 -1.500000 0.000000
v 2.000000 -1.000000 0.000000
v 2.000000 -0.500000 0.000000
v 2.000000 0.000000 0.000000
v 2.000000 0.500000 0.000000
v 2.000000 1.000000 0.000000
v 2.000000 1.500000 0.000000
v -2.000000 2.000000 0.000000
v -2.000000 -2.000000 0.000000
v 2.000000 2.000000 0.000000
v 2.000000 -2.000000 0.000000
vn 0.0000 0.0000 1.0000
s off
f 11//1 2//1 1//1
f 14//1 3//1 2//1
f 15//1 4//1 3//1
f 16//1 60//1 4//1
f 12//1 14//1 11//1
f 17//1 15//1 14//1
f 18//1 16//1 15//1
f 19//1 59//1 16//1
f 13//1 17//1 12//1
f 20//1 18//1 17//1
f 21//1 19//1 18//1
f 22//1 58//1 19//1
f 53//1 20//1 13//1
f 54//1 21//1 20//1
f 55//1 22//1 21//1
f 56//1 57//1 22//1
f 2//1 5//1 1//1
f 23//1 6//1 5//1
f 24//1 7//1 6//1
f 25//1 67//1 7//1
f 3//1 23//1 2//1
f 26//1 24//1 23//1
f 27//1 25//1 24//1
f 28//1 66//1 25//1
f 4//1 26//1 3//1
f 29//1 27//1 26//1
f 30//1 28//1 27//1
f 31//1 65//1 28//1
f 60//1 29//1 4//1
f 61//1 30//1 29//1
f 62//1 31//1 30//1
f 63//1 64//1 31//1
f 5//1 8//1 1//1
f 32//1 9//1 8//1
f 33//1 10//1 9//1
f 34//1 74//1 10//1
f 6//1 32//1 5//1
f 35//1 33//1 32//1
f 36//1 34//1 33//1
f 37//1 73//1 34//1
f 7//1 35//1 6//1
f 38//1 36//1 35//1
f 39//1 37//1 36//1
f 40//1 72//1 37//1
f 67//1 38//1 7//1
f 68//1 39//1 38//1
f 69//1 40//1 39//1
f 70//1 71//1 40//1
f 8//1 11//1 1//1
f 41//1 12//1 11//1
f 42//1 13//1 12//1
f 43//1 53//1 13//1
f 9//1 41//1 8//1
f 44//1 42//1 41//1
f 45//1 43//1 42//1
f 46//1 52//1 43//1
f 10//1 44//1 9//1
f 47//1 45//1 44//1
f 48//1 46//1 45//1
f 49//1 51//1 46//1
f 74//1 47//1 10//1
f 75//1 48//1 47//1
f 76//1 49//1 48//1
f 77//1 50//1 49//1
f 11//1 14//1 2//1
f 14//1 15//1 3//1
f 15//1 16//1 4//1
f 16//1 59//1 60//1
f 12//1 17//1 14//1
f 17//1 18//1 15//1
f 18//1 19//1 16//1
f 19//1 58//1 59//1
f 13//1 20//1 17//1
f 20//1 21//1 18//1
f 21//1 22//1 19//1
f 22//1 57//1 58//1
f 53//1 54//1 20//1
f 54//1 55//1 21//1
f 55//1 56//1 22//1
f 56//1 78//1 57//1
f 2//1 23//1 5//1
f 23//1 24//1 6//1
f 24//1 25//1 7//1
f 25//1 66//1 67//1
f 3//1 26//1 23//1
f 26//1 27//1 24//1
f 27//1 28//1 25//1
f 28//1 65//1 66//1
f 4//1 29//1 26//1
f 29//1 30//1 27//1
f 30//1 31//1 28//1
f 31//1 64//1 65//1
f 60//1 61//1 29//1
f 61//1 62//1 30//1
f 62//1 63//1 31//1
f 63//1 79//1 64//1
f 5//1 32//1 8//1
f 32//1 33//1 9//1
f 33//1 34//1 10//1
f 34//1 73//1 74//1
f 6//1 35//1 32//1
f 35//1 36//1 33//1
f 36//1 37//1 34//1
f 37//1 72//1 73//1
f 7//1 38//1 35//1
f 38//1 39//1 36//1
f 39//1 40//1 37//1
f 40//1 71//1 72//1
f 67//1 68//1 38//1
f 68//1 69//1 39//1
f 69//1 70//1 40//1
f 70//1 81//1 71//1
f 8//1 41//1 11//1
f 41//1 42//1 12//1
f 42//1 43//1 13//1
f 43//1 52//1 53//1
f 9//1 44//1 41//1
f 44//1 45//1 42//1
f 45//1 46//1 43//1
f 46//1 51//1 52//1
f 10//1 47//1 44//1
f 47//1 48//1 45//1
f 48//1 49//1 46//1
f 49//1 50//1 51//1
f 74//1 75//1 47//1
f 75//1 76//1 48//1
f 76//1 77//1 49//1
f 77//1 80//1 50//1
