# Wavefront .obj file exported from Realsoft3D
g subdiv5
v 0 1 0
v -0.25503 0.900969 0.351019
v 0 0.900969 0.433884
v -0.412648 0.900969 0.134077
v -0.412648 0.900969 -0.134077
v -0.25503 0.900969 -0.351019
v 0 0.900969 -0.433884
v 0.25503 0.900969 -0.351019
v 0.412648 0.900969 -0.134077
v 0.412648 0.900969 0.134077
v 0.25503 0.900969 0.351019
v -0.459549 0.62349 0.632515
v 0 0.62349 0.781831
v -0.743566 0.62349 0.241599
v -0.743566 0.62349 -0.241599
v -0.459549 0.62349 -0.632515
v 0 0.62349 -0.781831
v 0.459549 0.62349 -0.632515
v 0.743566 0.62349 -0.241599
v 0.743566 0.62349 0.241599
v 0.459549 0.62349 0.632515
v -0.573048 0.222521 0.788733
v 0 0.222521 0.974928
v -0.927212 0.222521 0.301269
v -0.927212 0.222521 -0.301269
v -0.573048 0.222521 -0.788733
v 0 0.222521 -0.974928
v 0.573048 0.222521 -0.788733
v 0.927212 0.222521 -0.301269
v 0.927212 0.222521 0.301269
v 0.573048 0.222521 0.788733
v -0.573048 -0.222521 0.788733
v 0 -0.222521 0.974928
v -0.927212 -0.222521 0.301269
v -0.927212 -0.222521 -0.301269
v -0.573048 -0.222521 -0.788733
v 0 -0.222521 -0.974928
v 0.573048 -0.222521 -0.788733
v 0.927212 -0.222521 -0.301269
v 0.927212 -0.222521 0.301269
v 0.573048 -0.222521 0.788733
v -0.459549 -0.62349 0.632515
v 0 -0.62349 0.781831
v -0.743566 -0.62349 0.241599
v -0.743566 -0.62349 -0.241599
v -0.459549 -0.62349 -0.632515
v 0 -0.62349 -0.781831
v 0.459549 -0.62349 -0.632515
v 0.743566 -0.62349 -0.241599
v 0.743566 -0.62349 0.241599
v 0.459549 -0.62349 0.632515
v -0.25503 -0.900969 0.351019
v 0 -0.900969 0.433884
v -0.412648 -0.900969 0.134077
v -0.412648 -0.900969 -0.134077
v -0.25503 -0.900969 -0.351019
v 0 -0.900969 -0.433884
v 0.25503 -0.900969 -0.351019
v 0.412648 -0.900969 -0.134077
v 0.412648 -0.900969 0.134077
v 0.25503 -0.900969 0.351019
v 0 -1 0
vt 0.513629 0.003631 0
vt 0.85 0.142857 0
vt 0.75 0.142857 0
vt 0.95 0.142857 0
vt 0.0499998 0.142857 0
vt 0.15 0.142857 0
vt 0.25 0.142857 0
vt 0.35 0.142857 0
vt 0.45 0.142857 0
vt 0.55 0.142857 0
vt 0.65 0.142857 0
vt 0.85 0.285714 0
vt 0.75 0.285714 0
vt 0.95 0.285714 0
vt 0.05 0.285714 0
vt 0.15 0.285714 0
vt 0.25 0.285714 0
vt 0.35 0.285714 0
vt 0.45 0.285714 0
vt 0.55 0.285714 0
vt 0.65 0.285714 0
vt 0.85 0.428571 0
vt 0.75 0.428571 0
vt 0.95 0.428571 0
vt 0.0499999 0.428571 0
vt 0.15 0.428571 0
vt 0.25 0.428571 0
vt 0.35 0.428571 0
vt 0.45 0.428571 0
vt 0.55 0.428571 0
vt 0.65 0.428571 0
vt 0.85 0.571429 0
vt 0.75 0.571429 0
vt 0.95 0.571429 0
vt 0.0499999 0.571429 0
vt 0.15 0.571429 0
vt 0.25 0.571429 0
vt 0.35 0.571429 0
vt 0.45 0.571429 0
vt 0.55 0.571429 0
vt 0.65 0.571429 0
vt 0.85 0.714286 0
vt 0.75 0.714286 0
vt 0.95 0.714286 0
vt 0.05 0.714286 0
vt 0.15 0.714286 0
vt 0.25 0.714286 0
vt 0.35 0.714286 0
vt 0.45 0.714286 0
vt 0.55 0.714286 0
vt 0.65 0.714286 0
vt 0.85 0.857143 0
vt 0.75 0.857143 0
vt 0.95 0.857143 0
vt 0.0499998 0.857143 0
vt 0.15 0.857143 0
vt 0.25 0.857143 0
vt 0.35 0.857143 0
vt 0.45 0.857143 0
vt 0.55 0.857143 0
vt 0.65 0.857143 0
vt 0.515991 1 0
vn 0 1 0
vn -0.253972 0.901834 0.349563
vn 0 0.901834 0.432083
vn -0.410935 0.901834 0.133521
vn -0.410935 0.901834 -0.133521
vn -0.253972 0.901834 -0.349563
vn 0 0.901834 -0.432083
vn 0.253972 0.901834 -0.349563
vn 0.410935 0.901834 -0.133521
vn 0.410935 0.901834 0.133521
vn 0.253972 0.901834 0.349563
vn -0.458669 0.625362 0.631304
vn 0 0.625362 0.780335
vn -0.742142 0.625362 0.241137
vn -0.742142 0.625362 -0.241137
vn -0.458669 0.625362 -0.631304
vn 0 0.625362 -0.780335
vn 0.458669 0.625362 -0.631304
vn 0.742142 0.625362 -0.241137
vn 0.742142 0.625362 0.241137
vn 0.458669 0.625362 0.631304
vn -0.572912 0.22353 0.788547
vn 0 0.22353 0.974697
vn -0.926992 0.22353 0.301198
vn -0.926992 0.22353 -0.301198
vn -0.572912 0.22353 -0.788547
vn 0 0.22353 -0.974697
vn 0.572912 0.22353 -0.788547
vn 0.926992 0.22353 -0.301198
vn 0.926992 0.22353 0.301198
vn 0.572912 0.22353 0.788547
vn -0.572912 -0.22353 0.788547
vn 0 -0.22353 0.974697
vn -0.926992 -0.22353 0.301198
vn -0.926992 -0.22353 -0.301198
vn -0.572912 -0.22353 -0.788547
vn 0 -0.22353 -0.974697
vn 0.572912 -0.22353 -0.788547
vn 0.926992 -0.22353 -0.301198
vn 0.926992 -0.22353 0.301198
vn 0.572912 -0.22353 0.788547
vn -0.458669 -0.625362 0.631304
vn 0 -0.625362 0.780335
vn -0.742142 -0.625362 0.241137
vn -0.742142 -0.625362 -0.241137
vn -0.458669 -0.625362 -0.631304
vn 0 -0.625362 -0.780335
vn 0.458669 -0.625362 -0.631304
vn 0.742142 -0.625362 -0.241137
vn 0.742142 -0.625362 0.241137
vn 0.458669 -0.625362 0.631304
vn -0.253972 -0.901834 0.349563
vn 0 -0.901834 0.432083
vn -0.410935 -0.901834 0.133521
vn -0.410935 -0.901834 -0.133521
vn -0.253972 -0.901834 -0.349563
vn 0 -0.901834 -0.432083
vn 0.253972 -0.901834 -0.349563
vn 0.410935 -0.901834 -0.133521
vn 0.410935 -0.901834 0.133521
vn 0.253972 -0.901834 0.349563
vn 0 -1 0
f 1/1/1 2/2/2 3/3/3
f 1/1/1 4/4/4 2/2/2
f 1/1/1 5/5/5 4/4/4
f 1/1/1 6/6/6 5/5/5
f 1/1/1 7/7/7 6/6/6
f 1/1/1 8/8/8 7/7/7
f 1/1/1 9/9/9 8/8/8
f 1/1/1 10/10/10 9/9/9
f 1/1/1 11/11/11 10/10/10
f 1/1/1 3/3/3 11/11/11
f 3/3/3 2/2/2 12/12/12 13/13/13
f 2/2/2 4/4/4 14/14/14 12/12/12
f 4/4/4 5/5/5 15/15/15 14/14/14
f 5/5/5 6/6/6 16/16/16 15/15/15
f 6/6/6 7/7/7 17/17/17 16/16/16
f 7/7/7 8/8/8 18/18/18 17/17/17
f 8/8/8 9/9/9 19/19/19 18/18/18
f 9/9/9 10/10/10 20/20/20 19/19/19
f 10/10/10 11/11/11 21/21/21 20/20/20
f 11/11/11 3/3/3 13/13/13 21/21/21
f 13/13/13 12/12/12 22/22/22 23/23/23
f 12/12/12 14/14/14 24/24/24 22/22/22
f 14/14/14 15/15/15 25/25/25 24/24/24
f 15/15/15 16/16/16 26/26/26 25/25/25
f 16/16/16 17/17/17 27/27/27 26/26/26
f 17/17/17 18/18/18 28/28/28 27/27/27
f 18/18/18 19/19/19 29/29/29 28/28/28
f 19/19/19 20/20/20 30/30/30 29/29/29
f 20/20/20 21/21/21 31/31/31 30/30/30
f 21/21/21 13/13/13 23/23/23 31/31/31
f 23/23/23 22/22/22 32/32/32 33/33/33
f 22/22/22 24/24/24 34/34/34 32/32/32
f 24/24/24 25/25/25 35/35/35 34/34/34
f 25/25/25 26/26/26 36/36/36 35/35/35
f 26/26/26 27/27/27 37/37/37 36/36/36
f 27/27/27 28/28/28 38/38/38 37/37/37
f 28/28/28 29/29/29 39/39/39 38/38/38
f 29/29/29 30/30/30 40/40/40 39/39/39
f 30/30/30 31/31/31 41/41/41 40/40/40
f 31/31/31 23/23/23 33/33/33 41/41/41
f 33/33/33 32/32/32 42/42/42 43/43/43
f 32/32/32 34/34/34 44/44/44 42/42/42
f 34/34/34 35/35/35 45/45/45 44/44/44
f 35/35/35 36/36/36 46/46/46 45/45/45
f 36/36/36 37/37/37 47/47/47 46/46/46
f 37/37/37 38/38/38 48/48/48 47/47/47
f 38/38/38 39/39/39 49/49/49 48/48/48
f 39/39/39 40/40/40 50/50/50 49/49/49
f 40/40/40 41/41/41 51/51/51 50/50/50
f 41/41/41 33/33/33 43/43/43 51/51/51
f 43/43/43 42/42/42 52/52/52 53/53/53
f 42/42/42 44/44/44 54/54/54 52/52/52
f 44/44/44 45/45/45 55/55/55 54/54/54
f 45/45/45 46/46/46 56/56/56 55/55/55
f 46/46/46 47/47/47 57/57/57 56/56/56
f 47/47/47 48/48/48 58/58/58 57/57/57
f 48/48/48 49/49/49 59/59/59 58/58/58
f 49/49/49 50/50/50 60/60/60 59/59/59
f 50/50/50 51/51/51 61/61/61 60/60/60
f 51/51/51 43/43/43 53/53/53 61/61/61
f 62/62/62 60/60/60 61/61/61
f 62/62/62 59/59/59 60/60/60
f 62/62/62 58/58/58 59/59/59
f 62/62/62 57/57/57 58/58/58
f 62/62/62 56/56/56 57/57/57
f 62/62/62 55/55/55 56/56/56
f 62/62/62 54/54/54 55/55/55
f 62/62/62 52/52/52 54/54/54
f 62/62/62 53/53/53 52/52/52
f 62/62/62 61/61/61 53/53/53
