# Blender 4.0.2
# www.blender.org
o RCcarBody
v -0.282756 0.024763 0.028159
v -0.281548 -0.030485 0.028159
v -0.385523 -0.020936 -0.044841
v -0.385523 0.023499 -0.044841
v -0.292959 0.057316 -0.044841
v -0.273904 0.078127 -0.041841
v -0.273904 0.078127 -0.044841
v 0.031058 0.062954 -0.044841
v 0.079378 0.054521 -0.044841
v 0.079198 0.053969 -0.009841
v 0.117679 0.012605 -0.009841
v 0.117679 -0.008395 -0.009841
v -0.281822 -0.076854 -0.041841
v -0.281822 -0.076854 -0.044841
v 0.036800 -0.061194 -0.044841
v 0.170353 0.012605 -0.014361
v 0.166500 -0.020395 0.004907
v 0.165740 -0.020395 0.009680
v 0.165740 0.021605 0.009680
v 0.166500 0.021605 0.004907
v 0.210758 0.021605 0.031833
v 0.210758 -0.020395 0.031833
v 0.211598 -0.020395 0.027187
v 0.211598 0.021605 0.027187
v 0.139065 -0.034974 0.079216
v 0.139065 -0.032950 0.081513
v 0.154065 -0.034974 0.079216
v 0.154065 -0.032950 0.081513
v 0.154065 0.035513 0.081513
v 0.154065 0.037538 0.079216
v 0.139065 0.035513 0.081513
v 0.139065 0.037538 0.079216
v 0.163094 -0.018449 -0.014115
v 0.162437 -0.020936 -0.044841
v 0.162437 0.023499 -0.044841
v 0.082495 -0.053876 -0.044841
v -0.284302 -0.070494 -0.044841
v -0.047601 -0.042808 0.001159
v 0.008609 0.064117 -0.041841
v -0.281218 0.070386 -0.014841
v -0.417342 -0.031395 0.101265
v -0.417342 0.023605 0.101265
v -0.406839 -0.031395 0.110497
v -0.406839 0.023605 0.110497
vn -0.2840 -0.7657 0.5771
vn 0.2866 -0.7624 -0.5801
vn -0.3410 -0.6353 0.6929
vn 0.1828 -0.8498 0.4945
vn 0.5789 -0.4229 0.6971
vn 0.1435 -0.4754 0.8680
vn 0.2684 0.7048 0.6567
vn 0.7714 0.3458 0.5342
vn -0.0000 -0.0000 1.0000
vn 0.8309 -0.0000 0.5564
vn -0.0000 -0.0000 -1.0000
vn 0.1591 -0.0879 0.9833
vn -0.1297 -0.9692 -0.2094
vn -0.1360 -0.5331 -0.8351
vn -0.0000 -0.7503 0.6611
vn -0.0000 0.7501 0.6613
vn 0.9840 -0.0000 0.1779
vn -0.2840 0.7657 0.5771
vn 0.2866 0.7624 -0.5801
vn 0.3445 0.6287 -0.6972
vn 0.3445 -0.6287 -0.6972
vn 0.3123 0.9446 0.1009
vn -0.2710 -0.5466 0.7923
vn -0.8632 0.2676 0.4281
vn -0.6005 0.7268 0.3335
vn -0.3410 0.6353 0.6929
vn -0.7845 0.5879 0.1973
vn -0.7371 0.6757 -0.0053
vn -0.6201 0.7763 0.1136
vn 0.9898 -0.0136 0.1416
vn 0.5363 0.2227 0.8141
vn 0.0339 0.8612 0.5071
vn -0.2448 0.6707 0.7002
vn 0.0566 -0.8661 0.4967
vn 0.2122 -0.8560 0.4715
vn 0.7352 -0.6337 0.2406
vn -0.0623 0.9609 -0.2698
vn -0.0623 0.9609 -0.2697
vn -0.4649 -0.8707 -0.1603
vn -0.9743 -0.0000 0.2252
vn -0.9771 -0.0000 -0.2128
vn -0.7867 0.2311 0.5724
vn -0.3595 0.9298 -0.0791
vn 0.1605 0.2781 0.9470
vn -0.1409 -0.6346 -0.7599
vn -0.0142 -0.0007 -0.9999
vn 0.7319 0.6814 0.0026
vn -0.2168 -0.5953 0.7737
vn 0.4786 0.7434 0.4673
vn 0.9479 -0.3187 0.0050
vn 0.0396 -0.8659 0.4986
vn -0.9629 0.2351 -0.1322
vn -0.3450 0.8056 0.4817
vn -0.3596 0.9298 -0.0791
s 1
f 18//1 23//2 22//3
f 36//4 33//5 38//6
f 10//7 33//5 16//8
f 26//9 29//10 31//9
f 8//11 9//11 15//11
s 0
f 38//12 36//12 10//12
s 1
f 18//13 12//14 17//13
f 26//15 27//15 28//15
f 29//16 32//16 31//16
s 0
f 24//17 22//17 23//17
s 1
f 19//18 24//19 20//20
f 24//19 17//21 20//20
f 9//22 8//22 10//7
f 41//23 44//24 42//25
f 19//18 22//3 21//26
f 6//27 5//28 40//29
s 0
f 20//30 19//30 18//30
f 1//31 44//31 43//31
s 1
f 39//32 7//33 6//27
f 2//34 41//23 13//35
f 34//36 16//8 33//5
f 20//37 16//38 11//38
s 0
f 3//39 13//39 41//39
f 25//40 32//40 12//40
s 1
f 3//41 42//42 4//41
s 0
f 40//43 5//43 4//43
s 1
f 18//1 17//21 23//2
f 38//6 15//4 36//4
f 36//4 34//36 33//5
f 10//7 38//6 33//5
f 26//9 28//44 29//10
f 9//11 35//11 34//11
f 34//11 36//11 9//11
f 36//11 15//11 9//11
f 15//11 14//11 37//11
f 37//11 3//11 5//11
f 3//11 4//11 5//11
f 5//11 7//11 37//11
f 7//11 8//11 15//11
f 37//11 7//11 15//11
s 0
f 10//12 1//12 38//12
f 1//12 2//12 38//12
s 1
f 18//13 27//13 25//13
f 25//13 12//14 18//13
f 12//14 33//45 17//13
f 26//15 25//15 27//15
f 29//16 30//16 32//16
s 0
f 24//17 21//17 22//17
s 1
f 19//18 21//26 24//19
s 0
f 15//46 39//46 8//46
s 1
f 24//19 23//2 17//21
f 39//22 10//7 8//22
f 10//7 16//8 35//47
f 9//22 10//7 35//47
f 41//23 43//48 44//24
f 19//18 18//1 22//3
f 6//27 7//33 5//28
s 0
f 19//30 30//30 29//49
f 29//49 28//50 19//30
f 28//50 27//30 18//30
f 19//30 28//50 18//30
f 18//30 17//30 20//30
f 17//30 33//30 16//30
f 16//30 20//30 17//30
f 43//31 2//31 1//31
f 1//31 40//31 44//31
s 1
f 1//32 10//32 39//32
f 39//32 8//32 7//33
f 6//27 40//29 39//32
f 40//29 1//32 39//32
f 2//34 43//48 41//23
f 2//34 13//35 38//51
f 13//35 14//51 38//51
f 14//51 15//51 38//51
f 34//36 35//47 16//8
f 11//38 32//38 19//38
f 32//38 30//38 19//38
f 19//38 20//37 11//38
s 0
f 3//39 14//39 13//39
f 25//40 26//40 31//40
f 31//40 32//40 25//40
f 32//40 11//40 12//40
s 1
f 3//41 41//41 42//42
s 0
f 42//52 44//53 4//54
f 44//53 40//43 4//43
f 5//11 14//11 3//11
