<?xml version="1.0" encoding="UTF-8" standalone="no"?>
<!-- Generator: Adobe Illustrator 17.0.2, SVG Export Plug-In . SVG Version: 6.00 Build 0)  -->

<svg
   version="1.1"
   id="Layer_1"
   x="0px"
   y="0px"
   width="283.55957"
   height="192.49792"
   viewBox="0 0 283.55958 192.49793"
   enable-background="new 0 0 42 32"
   xml:space="preserve"
   sodipodi:docname="fmu_forge_3.svg"
   inkscape:version="1.4.2 (f4327f4, 2025-05-13)"
   inkscape:export-filename="foo.png"
   inkscape:export-xdpi="1840.87"
   inkscape:export-ydpi="1840.87"
   xmlns:inkscape="http://www.inkscape.org/namespaces/inkscape"
   xmlns:sodipodi="http://sodipodi.sourceforge.net/DTD/sodipodi-0.dtd"
   xmlns:xlink="http://www.w3.org/1999/xlink"
   xmlns="http://www.w3.org/2000/svg"
   xmlns:svg="http://www.w3.org/2000/svg"><defs
   id="defs4"><linearGradient
   id="linearGradient24"
   inkscape:collect="always"><stop
     style="stop-color:#76b0f1;stop-opacity:1;"
     offset="0"
     id="stop24" /><stop
     style="stop-color:#0f4d92;stop-opacity:1;"
     offset="1"
     id="stop25" /></linearGradient>
	
	
	
	
<linearGradient
   inkscape:collect="always"
   xlink:href="#linearGradient24"
   id="linearGradient25"
   x1="7.3966131"
   y1="-22.75185"
   x2="62.715885"
   y2="-22.75185"
   gradientUnits="userSpaceOnUse" /><linearGradient
   inkscape:collect="always"
   xlink:href="#linearGradient24"
   id="linearGradient6"
   gradientUnits="userSpaceOnUse"
   x1="7.3966131"
   y1="-22.75185"
   x2="62.715885"
   y2="-22.75185" /><linearGradient
   inkscape:collect="always"
   xlink:href="#linearGradient24"
   id="linearGradient7"
   gradientUnits="userSpaceOnUse"
   x1="7.3966131"
   y1="-22.75185"
   x2="62.715885"
   y2="-22.75185" /><linearGradient
   inkscape:collect="always"
   xlink:href="#linearGradient24"
   id="linearGradient8"
   gradientUnits="userSpaceOnUse"
   x1="7.3966131"
   y1="-22.75185"
   x2="62.715885"
   y2="-22.75185" /><linearGradient
   inkscape:collect="always"
   xlink:href="#linearGradient24"
   id="linearGradient9"
   gradientUnits="userSpaceOnUse"
   x1="7.3966131"
   y1="-22.75185"
   x2="62.715885"
   y2="-22.75185" /><linearGradient
   inkscape:collect="always"
   xlink:href="#linearGradient24"
   id="linearGradient10"
   gradientUnits="userSpaceOnUse"
   x1="7.3966131"
   y1="-22.75185"
   x2="62.715885"
   y2="-22.75185" /><linearGradient
   inkscape:collect="always"
   xlink:href="#linearGradient24"
   id="linearGradient11"
   gradientUnits="userSpaceOnUse"
   x1="7.3966131"
   y1="-22.75185"
   x2="62.715885"
   y2="-22.75185" /></defs><sodipodi:namedview
   id="namedview4"
   pagecolor="#ffffff"
   bordercolor="#000000"
   borderopacity="0.25"
   inkscape:showpageshadow="2"
   inkscape:pageopacity="0.0"
   inkscape:pagecheckerboard="0"
   inkscape:deskcolor="#d1d1d1"
   inkscape:zoom="3.5449218"
   inkscape:cx="312.41874"
   inkscape:cy="60.791186"
   inkscape:window-width="3602"
   inkscape:window-height="1800"
   inkscape:window-x="4721"
   inkscape:window-y="111"
   inkscape:window-maximized="0"
   inkscape:current-layer="g22"
   inkscape:export-bgcolor="#ffffff00" />

<g
   inkscape:groupmode="layer"
   id="layer1"
   inkscape:label="Layer 1"
   transform="translate(-9.1688199,115.51466)"><g
     id="g22"><path
       d=""
       style="stroke-width:2"
       id="path19" /><g
       id="g23"
       style="fill:url(#linearGradient25);stroke-width:0.195089"
       transform="matrix(5.125873,0,0,5.125873,-28.745279,62.519998)"><path
         d="m 60.196355,-24.331408 a 2.5183132,2.5183132 0 0 0 -2.517578,2.519531 2.5183132,2.5183132 0 0 0 2.517578,2.517578 2.5183132,2.5183132 0 0 0 2.519531,-2.517578 2.5183132,2.5183132 0 0 0 -2.519531,-2.519531 z"
         style="fill:url(#linearGradient6);fill-rule:evenodd;stroke-width:0.12826"
         id="path22" /><path
         d="m 11.031571,-24.362107 -1.2285158,1.578125 7.9101558,6.148437 h 8.810547 v -2 h -8.125 z"
         style="baseline-shift:baseline;display:inline;overflow:visible;opacity:1;vector-effect:none;fill:url(#linearGradient7);stroke-width:0.12826;enable-background:accumulate;stop-color:#000000;stop-opacity:1"
         id="path21" /><path
         d="m 9.9141914,-26.673867 a 2.5183132,2.5183132 0 0 0 -2.5175781,2.517578 2.5183132,2.5183132 0 0 0 2.5175781,2.519531 2.5183132,2.5183132 0 0 0 2.5195316,-2.519531 2.5183132,2.5183132 0 0 0 -2.5195316,-2.517578 z"
         style="fill:url(#linearGradient8);fill-rule:evenodd;stroke-width:0.12826"
         id="path20" /><path
         d="m 43.363695,-29.44804 v 2 h 8.126953 l 7.367187,5.726563 1.226563,-1.578125 -7.908203,-6.148438 z"
         style="baseline-shift:baseline;display:inline;overflow:visible;opacity:1;vector-effect:none;fill:url(#linearGradient9);stroke-width:0.12826;enable-background:accumulate;stop-color:#000000;stop-opacity:1"
         id="path18" /><path
         d="m 41.358464,-34.73205 c -0.270931,-0.01019 -0.554981,0.135137 -0.693359,0.367188 l -0.742187,1.251953 c -0.05005,0.08467 -0.200548,0.173659 -0.314454,0.177734 l -0.49414,0.04687 c -0.08962,0.01385 -0.26586,-0.04906 -0.326172,-0.117187 l -0.960938,-1.091797 c -0.199466,-0.225459 -0.577313,-0.316446 -0.875,-0.179688 l -0.804687,0.427735 c -0.267221,0.161534 -0.408698,0.511999 -0.332031,0.814453 l 0.357422,1.408203 c 0.02412,0.09506 -0.02008,0.265476 -0.09766,0.349609 l -0.316406,0.38086 c -0.05791,0.07883 -0.214352,0.152903 -0.3125,0.146484 l -1.455078,-0.08984 c -0.308034,-0.01947 -0.626338,0.18117 -0.744141,0.466797 0.0011,3.24e-4 -0.07284,0.175235 -0.15625,0.445313 -0.08342,0.270077 -0.122887,0.454558 -0.123047,0.455078 -0.06415,0.301629 0.08831,0.648494 0.353516,0.80664 l 1.251953,0.742188 c 0.08467,0.05005 0.17366,0.202499 0.177735,0.316406 l 0.04687,0.492188 c 0.01504,0.09681 -0.04561,0.26322 -0.119141,0.328125 l -1.091797,0.96289 c -0.233899,0.206531 -0.312365,0.576797 -0.175781,0.875 l 0.425781,0.802735 c 0.155272,0.256184 0.520276,0.407004 0.8125,0.333984 l 1.412109,-0.359375 c 0.08839,-0.02277 0.252175,0.01076 0.347657,0.09766 l 0.380859,0.316406 c 0.07883,0.05791 0.152903,0.214352 0.146484,0.3125 l -0.0918,1.453125 c -0.01947,0.308034 0.181169,0.630244 0.466796,0.748047 0,0 0.177189,0.07088 0.447266,0.154297 0.270077,0.08342 0.454558,0.124839 0.455078,0.125 0.30163,0.06415 0.649014,-0.0901 0.806641,-0.355469 l 0.74414,-1.251953 c 0.04989,-0.08416 0.200548,-0.171706 0.314454,-0.175781 l 0.49414,-0.04883 c 0.0891,-0.01401 0.266018,0.05049 0.326172,0.119141 l 0.960938,1.09375 c 0.08467,0.09613 0.199589,0.166125 0.332031,0.207031 0.179186,0.05534 0.373348,0.04718 0.544922,-0.03125 l 0.800781,-0.425781 c 0.267222,-0.161534 0.412616,-0.511997 0.335937,-0.814454 l -0.359375,-1.410156 c -0.02412,-0.09506 0.0201,-0.263515 0.09766,-0.347656 l 0.316406,-0.382813 c 0.05791,-0.07883 0.214352,-0.152904 0.3125,-0.146484 l 1.453125,0.0918 c 0.308033,0.01947 0.630245,-0.179217 0.748047,-0.464844 0,0 0.07088,-0.177188 0.154297,-0.447265 0.08342,-0.270079 0.122887,-0.456512 0.123047,-0.457032 0.06415,-0.301629 -0.08832,-0.648494 -0.353516,-0.80664 l -1.25,-0.742188 c -0.08467,-0.05005 -0.175614,-0.200547 -0.179688,-0.314453 l -0.04492,-0.494141 c -0.01504,-0.09681 0.04362,-0.261278 0.117187,-0.326171 l 1.091797,-0.960938 c 0.233899,-0.206532 0.312367,-0.57875 0.175781,-0.876953 l -0.423828,-0.802734 c -0.155631,-0.256864 -0.523114,-0.407829 -0.814453,-0.333985 l -1.410156,0.359375 c -0.08822,0.02225 -0.254776,-0.01051 -0.34961,-0.09766 l -0.382812,-0.316406 c -0.07883,-0.05791 -0.15095,-0.216306 -0.144531,-0.314453 l 0.08984,-1.453125 c 0.01947,-0.308034 -0.18117,-0.628292 -0.466797,-0.746094 -0.0012,1.94e-4 -0.177188,-0.07088 -0.447265,-0.154297 -0.270078,-0.08342 -0.452606,-0.122887 -0.453125,-0.123047 -0.0377,-0.008 -0.07653,-0.01416 -0.115235,-0.01563 z m -1.521484,3.996094 c 0.28463,-8.41e-4 0.573439,0.04059 0.859375,0.128906 1.524988,0.471009 2.383118,2.096104 1.912109,3.621094 -0.471009,1.52499 -2.096105,2.381165 -3.621093,1.910156 -1.524991,-0.47101 -2.381166,-2.094151 -1.910157,-3.619141 0.382695,-1.239053 1.526366,-2.037374 2.759766,-2.041015 z"
         style="fill:url(#linearGradient10);stroke-width:0.390177"
         id="path17" /><path
         d="m 31.292058,-24.864862 -0.910156,0.01758 c -0.311368,0.02345 -0.595881,0.271692 -0.664063,0.576172 l -0.316406,1.417968 c -0.02142,0.0957 -0.138878,0.227548 -0.246094,0.267578 l -0.455078,0.197266 c -0.08726,0.04418 -0.259079,0.04029 -0.34375,-0.0098 l -1.257812,-0.738281 c -0.266041,-0.15648 -0.640905,-0.119611 -0.875,0.08203 8.31e-4,7.84e-4 -0.143457,0.122871 -0.339844,0.326172 -0.196394,0.203297 -0.316028,0.349218 -0.316406,0.34961 -0.19345,0.24015 -0.214032,0.619992 -0.04883,0.880859 l 0.783203,1.226563 c 0.05294,0.0829 0.06342,0.25981 0.01563,0.363281 l -0.181641,0.458984 c -0.03027,0.09318 -0.15899,0.215531 -0.253906,0.240235 l -1.408203,0.365234 c -0.301958,0.07864 -0.539932,0.373427 -0.552735,0.701172 l 0.01758,0.908203 c 0.02284,0.298692 0.280513,0.599197 0.574218,0.666016 l 1.421875,0.316406 c 0.08915,0.01961 0.219678,0.123484 0.265625,0.24414 l 0.197266,0.455078 c 0.04418,0.08726 0.04029,0.25908 -0.0098,0.34375 l -0.738281,1.25586 c -0.156481,0.266041 -0.123557,0.644803 0.07813,0.878906 0,0 0.12678,0.143452 0.330078,0.339844 0.203297,0.196395 0.349218,0.316028 0.34961,0.316406 0.24015,0.193452 0.618428,0.212459 0.878906,0.04687 l 1.230469,-0.78125 c 0.08252,-0.05257 0.255904,-0.06146 0.359375,-0.01367 l 0.46289,0.179688 c 0.08582,0.02775 0.215612,0.163536 0.238281,0.251953 l 0.363282,1.410156 c 0.03214,0.124008 0.101477,0.239631 0.201172,0.335938 0.134882,0.130295 0.313452,0.20929 0.501953,0.216796 l 0.90625,-0.01758 c 0.311368,-0.02345 0.599795,-0.269732 0.667968,-0.574218 l 0.314454,-1.421875 c 0.02142,-0.0957 0.136938,-0.225578 0.24414,-0.265625 l 0.457031,-0.199219 c 0.08726,-0.04419 0.259081,-0.03833 0.34375,0.01172 l 1.25586,0.738281 c 0.26604,0.156479 0.642867,0.12348 0.876953,-0.07813 0,0 0.143452,-0.124826 0.339844,-0.328125 0.196395,-0.203297 0.316029,-0.353125 0.316406,-0.353516 0.193451,-0.240151 0.214022,-0.618043 0.04883,-0.878906 l -0.78125,-1.226563 c -0.05294,-0.0829 -0.06538,-0.257857 -0.01758,-0.361328 l 0.183594,-0.460937 c 0.03027,-0.09318 0.157011,-0.213605 0.251953,-0.238281 l 1.408203,-0.365235 c 0.301959,-0.07865 0.539931,-0.375381 0.552734,-0.703125 l -0.01563,-0.908203 c -0.02286,-0.299461 -0.282885,-0.598381 -0.576172,-0.664062 l -1.419921,-0.316407 c -0.08875,-0.02004 -0.224276,-0.125505 -0.269532,-0.246093 l -0.197265,-0.455078 c -0.04418,-0.08726 -0.03833,-0.261033 0.01172,-0.345704 l 0.736329,-1.255859 c 0.15648,-0.266043 0.123493,-0.642865 -0.07813,-0.876953 -0.0012,-3.67e-4 -0.126781,-0.143452 -0.330079,-0.339844 -0.203297,-0.196395 -0.349218,-0.314076 -0.349609,-0.314453 -0.03002,-0.02417 -0.06182,-0.04568 -0.0957,-0.06445 -0.237129,-0.131444 -0.554946,-0.130884 -0.783203,0.01367 l -1.228516,0.78125 c -0.0829,0.05294 -0.255905,0.06538 -0.359375,0.01758 l -0.46289,-0.181641 c -0.08621,-0.02815 -0.215237,-0.163931 -0.238282,-0.251953 L 31.9932,-24.310214 c -0.07615,-0.291238 -0.37381,-0.542272 -0.701172,-0.554687 z m -0.341797,4.154296 c 0.451697,-0.0025 0.903115,0.09898 1.316407,0.306641 0.254334,0.12779 0.493749,0.29598 0.708984,0.503906 1.147925,1.108921 1.179235,2.945824 0.07031,4.09375 -1.108923,1.147927 -2.943872,1.179233 -4.091796,0.07031 -1.147927,-1.108923 -1.179237,-2.943871 -0.07031,-4.091797 0.563125,-0.582931 1.313578,-0.878666 2.066406,-0.882813 z"
         style="fill:url(#linearGradient11);stroke-width:0.390177"
         id="path16" /></g><text
       xml:space="preserve"
       style="font-size:9.33333px;text-align:start;writing-mode:lr-tb;direction:ltr;text-anchor:start;fill:#0f4d92;stroke-width:0;fill-opacity:1"
       x="9.2915812"
       y="63.204613"
       id="text1"><tspan
         sodipodi:role="line"
         id="tspan1"
         x="9.2915812"
         y="63.204613"
         style="font-style:normal;font-variant:normal;font-weight:bold;font-stretch:normal;font-size:58.6667px;font-family:'Nirmala UI';-inkscape-font-specification:'Nirmala UI, Bold';font-variant-ligatures:normal;font-variant-caps:normal;font-variant-numeric:normal;font-variant-east-asian:normal;fill:#0f4d92;fill-opacity:1">fmu-forge</tspan></text></g></g></svg>
