# Wavefront .OBJ file for tesselated shape: anchor-1/anchor_ruby-1 path: C:\Users\SB\Documents\CAD\CAD_swiss_escapement\anchor_ruby.sldprt

g body_1
v 0.051561 -0.103257 -0.012000
v 0.043825 -0.077755 -0.012000
v 0.043825 -0.077755 0.002000
v 0.051561 -0.103257 0.002000
v 0.040078 -0.106740 -0.012000
v 0.051561 -0.103257 -0.012000
v 0.051561 -0.103257 0.002000
v 0.040078 -0.106740 0.002000
v 0.032093 -0.080421 -0.012000
v 0.040078 -0.106740 -0.012000
v 0.040078 -0.106740 0.002000
v 0.032093 -0.080421 0.002000
v 0.043825 -0.077755 -0.012000
v 0.032093 -0.080421 -0.012000
v 0.032093 -0.080421 0.002000
v 0.043825 -0.077755 0.002000
v 0.040078 -0.106740 -0.012000
v 0.032093 -0.080421 -0.012000
v 0.043825 -0.077755 -0.012000
v 0.051561 -0.103257 -0.012000
v 0.040078 -0.106740 0.002000
v 0.051561 -0.103257 0.002000
v 0.043825 -0.077755 0.002000
v 0.032093 -0.080421 0.002000
vn 0.957 0.290 0.000
vn 0.957 0.290 0.000
vn 0.957 0.290 0.000
vn 0.957 0.290 0.000
vn 0.290 -0.957 0.000
vn 0.290 -0.957 0.000
vn 0.290 -0.957 0.000
vn 0.290 -0.957 0.000
vn -0.957 -0.290 0.000
vn -0.957 -0.290 0.000
vn -0.957 -0.290 0.000
vn -0.957 -0.290 0.000
vn -0.222 0.975 0.000
vn -0.222 0.975 0.000
vn -0.222 0.975 0.000
vn -0.222 0.975 0.000
vn 0.000 0.000 -1.000
vn 0.000 0.000 -1.000
vn 0.000 0.000 -1.000
vn 0.000 0.000 -1.000
vn 0.000 0.000 1.000
vn 0.000 0.000 1.000
vn 0.000 0.000 1.000
vn 0.000 0.000 1.000
vt -0.0266 0.0000 0
vt 0.0000 0.0000 0
vt 0.0000 0.0140 0
vt -0.0266 0.0140 0
vt -0.0120 0.0000 0
vt 0.0000 0.0000 0
vt 0.0000 0.0140 0
vt -0.0120 0.0140 0
vt -0.0275 0.0000 0
vt 0.0000 0.0000 0
vt 0.0000 0.0140 0
vt -0.0275 0.0140 0
vt -0.0120 0.0000 0
vt 0.0000 0.0000 0
vt 0.0000 0.0140 0
vt -0.0120 0.0140 0
vt 0.0115 -0.0035 0
vt 0.0195 0.0228 0
vt 0.0077 0.0255 0
vt 0.0000 0.0000 0
vt 0.0115 -0.0035 0
vt 0.0000 0.0000 0
vt 0.0077 0.0255 0
vt 0.0195 0.0228 0
f 1/1/1 3/3/3 4/4/4
f 3/3/3 1/1/1 2/2/2
f 7/7/7 5/5/5 6/6/6
f 5/5/5 7/7/7 8/8/8
f 11/11/11 9/9/9 10/10/10
f 9/9/9 11/11/11 12/12/12
f 13/13/13 15/15/15 16/16/16
f 15/15/15 13/13/13 14/14/14
f 17/17/17 19/19/19 20/20/20
f 19/19/19 17/17/17 18/18/18
f 23/23/23 21/21/21 22/22/22
f 21/21/21 23/23/23 24/24/24
g body_2
v -0.048379 -0.085003 -0.012000
v -0.056150 -0.075659 -0.012000
v -0.056150 -0.075659 0.002000
v -0.048379 -0.085003 0.002000
v -0.066624 -0.105899 -0.012000
v -0.048379 -0.085003 -0.012000
v -0.048379 -0.085003 0.002000
v -0.066624 -0.105899 0.002000
v -0.075663 -0.098007 -0.012000
v -0.066624 -0.105899 -0.012000
v -0.066624 -0.105899 0.002000
v -0.075663 -0.098007 0.002000
v -0.056150 -0.075659 -0.012000
v -0.075663 -0.098007 -0.012000
v -0.075663 -0.098007 0.002000
v -0.056150 -0.075659 0.002000
v -0.075663 -0.098007 -0.012000
v -0.056150 -0.075659 -0.012000
v -0.048379 -0.085003 -0.012000
v -0.066624 -0.105899 -0.012000
v -0.075663 -0.098007 0.002000
v -0.066624 -0.105899 0.002000
v -0.048379 -0.085003 0.002000
v -0.056150 -0.075659 0.002000
vn 0.769 0.639 0.000
vn 0.769 0.639 0.000
vn 0.769 0.639 0.000
vn 0.769 0.639 0.000
vn 0.753 -0.658 0.000
vn 0.753 -0.658 0.000
vn 0.753 -0.658 0.000
vn 0.753 -0.658 0.000
vn -0.658 -0.753 0.000
vn -0.658 -0.753 0.000
vn -0.658 -0.753 0.000
vn -0.658 -0.753 0.000
vn -0.753 0.658 0.000
vn -0.753 0.658 0.000
vn -0.753 0.658 0.000
vn -0.753 0.658 0.000
vn 0.000 0.000 -1.000
vn 0.000 0.000 -1.000
vn 0.000 0.000 -1.000
vn 0.000 0.000 -1.000
vn 0.000 0.000 1.000
vn 0.000 0.000 1.000
vn 0.000 0.000 1.000
vn 0.000 0.000 1.000
vt -0.0122 0.0000 0
vt 0.0000 0.0000 0
vt 0.0000 0.0140 0
vt -0.0122 0.0140 0
vt -0.0277 0.0000 0
vt 0.0000 0.0000 0
vt 0.0000 0.0140 0
vt -0.0277 0.0140 0
vt -0.0120 0.0000 0
vt 0.0000 0.0000 0
vt 0.0000 0.0140 0
vt -0.0120 0.0140 0
vt -0.0297 0.0000 0
vt 0.0000 0.0000 0
vt 0.0000 0.0140 0
vt -0.0297 0.0140 0
vt 0.0273 -0.0130 0
vt 0.0078 0.0093 0
vt 0.0000 0.0000 0
vt 0.0182 -0.0209 0
vt 0.0273 -0.0130 0
vt 0.0182 -0.0209 0
vt 0.0000 0.0000 0
vt 0.0078 0.0093 0
f 25/25/25 27/27/27 28/28/28
f 27/27/27 25/25/25 26/26/26
f 31/31/31 29/29/29 30/30/30
f 29/29/29 31/31/31 32/32/32
f 35/35/35 33/33/33 34/34/34
f 33/33/33 35/35/35 36/36/36
f 37/37/37 39/39/39 40/40/40
f 39/39/39 37/37/37 38/38/38
f 41/41/41 43/43/43 44/44/44
f 43/43/43 41/41/41 42/42/42
f 47/47/47 45/45/45 46/46/46
f 45/45/45 47/47/47 48/48/48
