# Blender v2.82 (sub 7) OBJ File: 'hallway_contact.blend'
# www.blender.org
mtllib hallway_contact.mtl
o Hallway_V1
v 7.083355 0.350911 -0.008546
v 7.083355 0.185911 -0.008546
v 8.273355 0.185911 -0.008546
v 8.273355 0.350911 -0.008546
v 8.568356 0.350911 -0.008546
v 8.568356 0.185911 -0.008546
v 9.758355 0.185911 -0.008546
v 9.758355 0.350911 -0.008546
v 14.194857 0.350911 -0.008546
v 14.194857 0.185911 -0.008546
v 15.384856 0.185911 -0.008546
v 15.384856 0.350911 -0.008546
v 15.679857 0.350911 -0.008546
v 15.679857 0.185911 -0.008546
v 16.869858 0.185911 -0.008546
v 16.869858 0.350911 -0.008546
v 22.609858 0.350911 -0.008546
v 22.609858 0.020911 -0.008546
v 24.030859 0.020911 -0.008546
v 24.030859 0.350911 -0.008546
v 0.070852 0.350911 -0.008546
v 25.020859 0.350911 -0.008546
v 25.020859 4.345912 -0.008546
v 24.608358 4.345912 -0.008546
v 24.608358 4.840912 -0.008546
v 23.830858 4.840912 -0.008546
v 23.830858 4.180912 -0.008546
v 23.040859 4.180912 -0.008546
v 23.040859 4.840912 -0.008546
v 21.025858 4.840912 -0.008546
v 21.025858 4.345912 -0.008546
v 20.400858 4.345912 -0.008546
v 20.400858 4.840912 -0.008546
v 6.753355 4.840912 -0.008546
v 6.753355 4.345912 -0.008546
v 6.128353 4.345912 -0.008546
v 6.128353 4.840912 -0.008546
v 0.070852 4.840912 -0.008546
v 7.183355 0.285911 0.091454
v 7.183355 0.450911 0.091454
v 8.173355 0.285911 0.091454
v 8.173355 0.450911 0.091454
v 8.668354 0.285911 0.091454
v 8.668354 0.450911 0.091454
v 9.658355 0.285911 0.091454
v 9.658355 0.450911 0.091454
v 14.294857 0.285911 0.091454
v 14.294857 0.450911 0.091454
v 15.284857 0.285911 0.091454
v 15.284857 0.450911 0.091454
v 15.779857 0.285911 0.091454
v 15.779857 0.450911 0.091454
v 16.769857 0.285911 0.091454
v 16.769857 0.450911 0.091454
v 22.709858 0.120911 0.091454
v 22.709858 0.450911 0.091454
v 23.930859 0.120911 0.091454
v 23.930859 0.450911 0.091454
v 24.920858 0.450911 0.091454
v 0.170853 0.450911 0.091454
v 24.920858 4.245912 0.091454
v 24.508358 4.245912 0.091454
v 24.508358 4.740912 0.091454
v 23.930859 4.740912 0.091454
v 23.930859 4.080912 0.091454
v 22.940859 4.080912 0.091454
v 22.940859 4.740912 0.091454
v 21.125858 4.740912 0.091454
v 21.125858 4.245912 0.091454
v 20.300858 4.245912 0.091454
v 20.300858 4.740912 0.091454
v 6.853354 4.740912 0.091454
v 6.853354 4.245912 0.091454
v 6.028355 4.245912 0.091454
v 6.028355 4.740912 0.091454
v 0.170853 4.740912 0.091454
vt 0.107949 0.091570
vt 0.107949 -0.002052
vt 1.002384 -0.002052
vt 0.107949 1.046512
vt 0.107949 0.904661
vt 0.144891 0.268033
vt -0.002876 0.268033
vt -0.002876 0.091570
vt 1.076268 0.222640
vt 1.076268 0.545153
vt 1.002384 0.222640
vt 1.002384 0.545153
vt 0.144891 0.447333
vt -0.002876 0.447333
vt -0.002876 0.904661
vt -0.002875 4.143975
vt -0.002876 1.046513
vt 1.002385 1.847914
vt 1.039326 1.847914
vt 1.039326 2.117999
vt 1.002385 2.117999
vt 1.039326 2.184953
vt 1.039326 2.455038
vt 1.002385 2.184953
vt 1.002385 2.455038
vt 1.039327 3.461954
vt 1.039327 3.732039
vt 1.002385 3.461954
vt 1.002385 3.732039
vt 0.107950 4.143975
vt 0.107950 4.285826
vt 1.002385 3.798993
vt -0.002875 5.660648
vt -0.002875 4.285826
vt 1.002385 5.660648
vt 1.002385 4.069077
vt 1.039327 4.069077
vt 1.039327 3.798993
vt 2.110634 1.046512
vt 2.110634 4.098583
vt 1.999809 4.098583
vt 2.110634 4.285827
vt 2.110634 5.615256
vt 1.999809 4.285827
vt 1.150152 5.615256
vt 1.150151 4.023685
vt 1.150151 3.686647
vt 1.113210 3.686647
vt 1.113210 3.461955
vt 1.150151 3.461955
vt 1.150151 2.409646
vt 1.150151 3.798993
vt 1.113210 3.798993
vt 1.113210 4.023685
vt 1.113210 2.072607
vt 1.113210 1.847915
vt 1.150151 2.072607
vt 1.150151 1.847915
vt 1.150151 0.499761
vt 1.999808 -0.002052
vt 1.999808 0.091570
vt 1.150151 -0.002052
vt 1.150151 0.222641
vt 1.076268 0.222641
vt 1.076268 0.499761
vt 2.110633 0.091570
vt 2.110633 0.222640
vt 1.962867 0.222640
vt 1.962867 0.447333
vt 1.113210 2.409646
vt 1.113210 2.184953
vt 1.150151 2.184953
vt 1.999809 1.046512
vt 1.999809 0.859269
vt 2.110633 0.859269
vt 2.110633 0.447333
vn 0.0000 0.0000 -1.0000
vn 0.0000 0.0000 1.0000
usemtl Material.001
s off
f 24/1/1 23/2/1 22/3/1
f 32/4/1 31/5/1 22/3/1
f 27/6/1 26/7/1 25/8/1
f 19/9/1 18/10/1 20/11/1
f 20/11/1 18/10/1 17/12/1
f 25/8/1 24/1/1 27/6/1
f 27/6/1 24/1/1 22/3/1
f 27/6/1 22/3/1 28/13/1
f 28/13/1 22/3/1 31/5/1
f 28/13/1 31/5/1 29/14/1
f 29/14/1 31/5/1 30/15/1
f 34/16/1 33/17/1 32/4/1
f 16/18/1 15/19/1 14/20/1
f 14/20/1 13/21/1 16/18/1
f 16/18/1 13/21/1 34/16/1
f 16/18/1 34/16/1 17/12/1
f 17/12/1 34/16/1 32/4/1
f 17/12/1 32/4/1 20/11/1
f 20/11/1 32/4/1 22/3/1
f 11/22/1 10/23/1 12/24/1
f 12/24/1 10/23/1 9/25/1
f 7/26/1 6/27/1 8/28/1
f 8/28/1 6/27/1 5/29/1
f 13/21/1 12/24/1 34/16/1
f 34/16/1 12/24/1 9/25/1
f 34/16/1 9/25/1 35/30/1
f 35/30/1 9/25/1 8/28/1
f 35/30/1 8/28/1 36/31/1
f 36/31/1 8/28/1 5/29/1
f 36/31/1 5/29/1 4/32/1
f 38/33/1 37/34/1 21/35/1
f 21/35/1 37/34/1 36/31/1
f 21/35/1 36/31/1 1/36/1
f 1/36/1 36/31/1 4/32/1
f 1/36/1 4/32/1 2/37/1
f 2/37/1 4/32/1 3/38/1
f 71/39/2 72/40/2 73/41/2
f 75/42/2 76/43/2 74/44/2
f 74/44/2 76/43/2 60/45/2
f 74/44/2 60/45/2 73/41/2
f 73/41/2 60/45/2 40/46/2
f 73/41/2 40/46/2 71/39/2
f 44/47/2 43/48/2 45/49/2
f 46/50/2 48/51/2 71/39/2
f 45/49/2 46/50/2 44/47/2
f 44/47/2 46/50/2 71/39/2
f 44/47/2 71/39/2 42/52/2
f 42/52/2 71/39/2 40/46/2
f 42/52/2 40/46/2 41/53/2
f 41/53/2 40/46/2 39/54/2
f 51/55/2 53/56/2 52/57/2
f 52/57/2 53/56/2 54/58/2
f 56/59/2 61/60/2 54/58/2
f 54/58/2 61/60/2 62/61/2
f 59/62/2 61/60/2 58/63/2
f 58/63/2 61/60/2 56/59/2
f 58/63/2 56/59/2 57/64/2
f 57/64/2 56/59/2 55/65/2
f 63/66/2 64/67/2 62/61/2
f 62/61/2 64/67/2 65/68/2
f 62/61/2 65/68/2 54/58/2
f 54/58/2 65/68/2 66/69/2
f 47/70/2 49/71/2 48/51/2
f 48/51/2 49/71/2 50/72/2
f 48/51/2 50/72/2 71/39/2
f 71/39/2 50/72/2 52/57/2
f 71/39/2 52/57/2 70/73/2
f 70/73/2 52/57/2 54/58/2
f 70/73/2 54/58/2 69/74/2
f 69/74/2 54/58/2 66/69/2
f 69/74/2 66/69/2 68/75/2
f 68/75/2 66/69/2 67/76/2
