# Wavefront .obj file exported from Realsoft3D
g rectangle2
v 15 6.6396e-005 -40
v 18.5302 0.321129 -40
v 19.9058 0.17809 -40
v 26 1.00007 -40
v 26 1.00007 -32
v 26 6.6396e-005 -32
v 26 6.6396e-005 -40
v 23 1.00007 -40
v 23 1.00007 -32
v 26 1.00007 -32
v 26 1.00007 -40
v 18.5302 0.321129 -40
v 18.5302 0.321129 -32
v 23 1.00007 -32
v 23 1.00007 -40
v 15 6.6396e-005 -40
v 15 6.6396e-005 -32
v 18.5302 0.321129 -32
v 18.5302 0.321129 -40
v 26 6.6396e-005 -40
v 26 6.6396e-005 -32
v 15 6.6396e-005 -32
v 15 6.6396e-005 -40
v 26 6.6396e-005 -32
v 26 1.00007 -32
v 19.8966 0.17809 -32
v -21.4 6.6396e-005 -40
v -21.4 0.100066 -40
v -20.9 0.100066 -40
v -20.9 0.200066 -40
v -20.4 0.200066 -40
v -20.4 0.300066 -40
v -19.9 0.300066 -40
v -19.9 0.400066 -40
v -19.4 0.400066 -40
v -19.4 0.500066 -40
v -18.9 0.500066 -40
v -18.9 0.600066 -40
v -18.4 0.600066 -40
v -17.4 0.600066 -40
v -17.4 0.700066 -40
v -16.9 0.700066 -40
v -16.9 0.800066 -40
v -16.4 0.800066 -40
v -16.4 0.900066 -40
v -15.4 0.900066 -40
v -10.1 6.6396e-005 -40
v -15.4 0.900066 -40
v -15.4 0.900066 -30.9
v -10.1 6.6396e-005 -30.9
v -10.1 6.6396e-005 -40
v -16.4 0.900066 -40
v -16.4 0.900066 -30.9
v -15.4 0.900066 -30.9
v -15.4 0.900066 -40
v -16.4 0.800066 -40
v -16.4 0.800066 -30.9
v -16.4 0.900066 -30.9
v -16.4 0.900066 -40
v -16.9 0.800066 -40
v -16.9 0.800066 -30.9
v -16.4 0.800066 -30.9
v -16.4 0.800066 -40
v -16.9 0.700066 -40
v -16.9 0.700066 -30.9
v -16.9 0.800066 -30.9
v -16.9 0.800066 -40
v -17.4 0.700066 -40
v -17.4 0.700066 -30.9
v -16.9 0.700066 -30.9
v -16.9 0.700066 -40
v -17.4 0.600066 -40
v -17.4 0.600066 -30.9
v -17.4 0.700066 -30.9
v -17.4 0.700066 -40
v -18.4 0.600066 -40
v -18.4 0.600066 -30.9
v -17.4 0.600066 -30.9
v -17.4 0.600066 -40
v -18.9 0.600066 -40
v -18.9 0.600066 -30.9
v -18.4 0.600066 -30.9
v -18.4 0.600066 -40
v -18.9 0.500066 -40
v -18.9 0.500066 -30.9
v -18.9 0.600066 -30.9
v -18.9 0.600066 -40
v -19.4 0.500066 -40
v -19.4 0.500066 -30.9
v -18.9 0.500066 -30.9
v -18.9 0.500066 -40
v -19.4 0.400066 -40
v -19.4 0.400066 -30.9
v -19.4 0.500066 -30.9
v -19.4 0.500066 -40
v -19.9 0.400066 -40
v -19.9 0.400066 -30.9
v -19.4 0.400066 -30.9
v -19.4 0.400066 -40
v -19.9 0.300066 -40
v -19.9 0.300066 -30.9
v -19.9 0.400066 -30.9
v -19.9 0.400066 -40
v -20.4 0.300066 -40
v -20.4 0.300066 -30.9
v -19.9 0.300066 -30.9
v -19.9 0.300066 -40
v -20.4 0.200066 -40
v -20.4 0.200066 -30.9
v -20.4 0.300066 -30.9
v -20.4 0.300066 -40
v -20.9 0.200066 -40
v -20.9 0.200066 -30.9
v -20.4 0.200066 -30.9
v -20.4 0.200066 -40
v -20.9 0.100066 -40
v -20.9 0.100066 -30.9
v -20.9 0.200066 -30.9
v -20.9 0.200066 -40
v -21.4 0.100066 -40
v -21.4 0.100066 -30.9
v -20.9 0.100066 -30.9
v -20.9 0.100066 -40
v -21.4 6.6396e-005 -40
v -21.4 6.6396e-005 -30.9
v -21.4 0.100066 -30.9
v -21.4 0.100066 -40
v -10.1 6.6396e-005 -40
v -10.1 6.6396e-005 -30.9
v -21.4 6.6396e-005 -30.9
v -21.4 6.6396e-005 -40
v -10.1 6.6396e-005 -30.9
v -15.4 0.900066 -30.9
v -16.4 0.900066 -30.9
v -16.4 0.800066 -30.9
v -16.9 0.800066 -30.9
v -16.9 0.700066 -30.9
v -17.4 0.700066 -30.9
v -17.4 0.600066 -30.9
v -18.4 0.600066 -30.9
v -18.9 0.600066 -30.9
v -18.9 0.500066 -30.9
v -19.4 0.500066 -30.9
v -19.4 0.400066 -30.9
v -19.9 0.400066 -30.9
v -19.9 0.300066 -30.9
v -20.4 0.300066 -30.9
v -20.4 0.200066 -30.9
v -20.9 0.200066 -30.9
v -20.9 0.100066 -30.9
v -21.4 0.100066 -30.9
v -21.4 6.6396e-005 -30.9
v -22 6.6396e-005 -40.2079
v -22 1.00007 -40.2079
v -13.1238 1.00007 -40.2079
v -9.65148 0.44062 -40.2079
v -9.65148 -0.0295901 -40.2079
v -9.65148 0.44062 -40.2079
v -9.65148 0.44062 -40.0283
v -9.65148 -0.0295901 -40.0283
v -9.65148 -0.0295901 -40.2079
v -13.1238 1.00007 -40.2079
v -13.1238 1.00007 -40.0283
v -9.65148 0.44062 -40.0283
v -9.65148 0.44062 -40.2079
v -22 1.00007 -40.2079
v -22 1.00007 -40.0283
v -13.1238 1.00007 -40.0283
v -13.1238 1.00007 -40.2079
v -22 6.6396e-005 -40.2079
v -22 6.6396e-005 -40.0283
v -22 1.00007 -40.0283
v -22 1.00007 -40.2079
v -9.65148 -0.0295901 -40.2079
v -9.65148 -0.0295901 -40.0283
v -22 6.6396e-005 -40.0283
v -22 6.6396e-005 -40.2079
v -9.65148 -0.0295901 -40.0283
v -9.65148 0.44062 -40.0283
v -13.1238 1.00007 -40.0283
v -22 1.00007 -40.0283
v -22 6.6396e-005 -40.0283
v -22 6.6396e-005 -30.8424
v -22 1.00007 -30.8424
v -13.1238 1.00007 -30.8424
v -9.65148 0.44062 -30.8424
v -9.65148 -0.0295901 -30.8424
v -9.65148 0.44062 -30.8424
v -9.65148 0.44062 -29.7187
v -9.65148 -0.0295901 -29.7187
v -9.65148 -0.0295901 -30.8424
v -13.1238 1.00007 -30.8424
v -13.1238 1.00007 -29.7187
v -9.65148 0.44062 -29.7187
v -9.65148 0.44062 -30.8424
v -22 1.00007 -30.8424
v -22 1.00007 -29.7187
v -13.1238 1.00007 -29.7187
v -13.1238 1.00007 -30.8424
v -22 6.6396e-005 -30.8424
v -22 6.6396e-005 -29.7187
v -22 1.00007 -29.7187
v -22 1.00007 -30.8424
v -9.65148 -0.0295901 -30.8424
v -9.65148 -0.0295901 -29.7187
v -22 6.6396e-005 -29.7187
v -22 6.6396e-005 -30.8424
v -9.65148 -0.0295901 -29.7187
v -9.65148 0.44062 -29.7187
v -13.1238 1.00007 -29.7187
v -22 1.00007 -29.7187
v -22 6.6396e-005 -29.7187
v -40 6.6396e-005 -2
v -28 6.6396e-005 -2
v -28 6.6396e-005 -10
v -32 6.6396e-005 -10
v -32 6.6396e-005 -20
v -40 6.6396e-005 -20
v -28 6.6396e-005 -2
v -28 3.00007 -2
v -40 3.00007 -2
v -40 6.6396e-005 -2
v -28 6.6396e-005 -10
v -28 3.00007 -10
v -28 3.00007 -2
v -28 6.6396e-005 -2
v -32 6.6396e-005 -10
v -32 3.00007 -10
v -28 3.00007 -10
v -28 6.6396e-005 -10
v -32 6.6396e-005 -20
v -32 3.00007 -20
v -32 3.00007 -10
v -32 6.6396e-005 -10
v -40 6.6396e-005 -20
v -40 3.00007 -20
v -32 3.00007 -20
v -32 6.6396e-005 -20
v -40 6.6396e-005 -2
v -40 3.00007 -2
v -40 3.00007 -20
v -40 6.6396e-005 -20
v -40 3.00007 -20
v -32 3.00007 -20
v -32 3.00007 -10
v -28 3.00007 -10
v -28 3.00007 -2
v -40 3.00007 -2
v -29 6.6396e-005 -20
v -28 6.6396e-005 -20
v -28 6.6396e-005 -19
v -29 6.6396e-005 -19
v -29 6.6396e-005 -20
v -29 3.00007 -20
v -28 3.00007 -20
v -28 6.6396e-005 -20
v -28 6.6396e-005 -20
v -28 3.00007 -20
v -28 3.00007 -19
v -28 6.6396e-005 -19
v -28 6.6396e-005 -19
v -28 3.00007 -19
v -29 3.00007 -19
v -29 6.6396e-005 -19
v -29 6.6396e-005 -19
v -29 3.00007 -19
v -29 3.00007 -20
v -29 6.6396e-005 -20
v -29 3.00007 -19
v -28 3.00007 -19
v -28 3.00007 -20
v -29 3.00007 -20
v -29 6.6396e-005 -15
v -28 6.6396e-005 -15
v -28 6.6396e-005 -14
v -29 6.6396e-005 -14
v -29 6.6396e-005 -15
v -29 3.00007 -15
v -28 3.00007 -15
v -28 6.6396e-005 -15
v -28 6.6396e-005 -15
v -28 3.00007 -15
v -28 3.00007 -14
v -28 6.6396e-005 -14
v -28 6.6396e-005 -14
v -28 3.00007 -14
v -29 3.00007 -14
v -29 6.6396e-005 -14
v -29 6.6396e-005 -14
v -29 3.00007 -14
v -29 3.00007 -15
v -29 6.6396e-005 -15
v -29 3.00007 -14
v -28 3.00007 -14
v -28 3.00007 -15
v -29 3.00007 -15
v -41 3.00007 -21
v -34 5.00007 -11
v -27 3.00007 -21
v -27 3.00007 -21
v -34 5.00007 -11
v -27 3.00007 -1
v -27 3.00007 -1
v -34 5.00007 -11
v -41 3.00007 -1
v -41 3.00007 -1
v -34 5.00007 -11
v -41 3.00007 -21
v -41 3.00007 -21
v -27 3.00007 -21
v -27 3.00007 -1
v -41 3.00007 -1
v -31 3.00007 -3
v -30 3.00007 -3
v -30 3.00007 -2
v -31 3.00007 -2
v -31 3.00007 -3
v -31 4.00007 -3
v -30 4.00007 -3
v -30 3.00007 -3
v -30 3.00007 -3
v -30 4.00007 -3
v -30 4.00007 -2
v -30 3.00007 -2
v -30 3.00007 -2
v -30 4.00007 -2
v -31 4.00007 -2
v -31 3.00007 -2
v -31 3.00007 -2
v -31 4.00007 -2
v -31 4.00007 -3
v -31 3.00007 -3
v -31 4.00007 -2
v -30 4.00007 -2
v -30 4.00007 -3
v -31 4.00007 -3
v -39 3.00007 -19
v -38 3.00007 -19
v -38 3.00007 -18
v -39 3.00007 -18
v -39 3.00007 -19
v -39 4.00007 -19
v -38 4.00007 -19
v -38 3.00007 -19
v -38 3.00007 -19
v -38 4.00007 -19
v -38 4.00007 -18
v -38 3.00007 -18
v -38 3.00007 -18
v -38 4.00007 -18
v -39 4.00007 -18
v -39 3.00007 -18
v -39 3.00007 -18
v -39 4.00007 -18
v -39 4.00007 -19
v -39 3.00007 -19
v -39 4.00007 -18
v -38 4.00007 -18
v -38 4.00007 -19
v -39 4.00007 -19
v 47.3333 6.6396e-005 41
v 47.3333 6.6396e-005 29
v 39.3333 6.6396e-005 29
v 39.3333 6.6396e-005 33
v 29.3333 6.6396e-005 33
v 29.3333 6.6396e-005 41
v 47.3333 6.6396e-005 29
v 47.3333 3.00007 29
v 47.3333 3.00007 41
v 47.3333 6.6396e-005 41
v 39.3333 6.6396e-005 29
v 39.3333 3.00007 29
v 47.3333 3.00007 29
v 47.3333 6.6396e-005 29
v 39.3333 6.6396e-005 33
v 39.3333 3.00007 33
v 39.3333 3.00007 29
v 39.3333 6.6396e-005 29
v 29.3333 6.6396e-005 33
v 29.3333 3.00007 33
v 39.3333 3.00007 33
v 39.3333 6.6396e-005 33
v 29.3333 6.6396e-005 41
v 29.3333 3.00007 41
v 29.3333 3.00007 33
v 29.3333 6.6396e-005 33
v 47.3333 6.6396e-005 41
v 47.3333 3.00007 41
v 29.3333 3.00007 41
v 29.3333 6.6396e-005 41
v 29.3333 3.00007 41
v 29.3333 3.00007 33
v 39.3333 3.00007 33
v 39.3333 3.00007 29
v 47.3333 3.00007 29
v 47.3333 3.00007 41
v 29.3333 6.6396e-005 30
v 29.3333 6.6396e-005 29
v 30.3333 6.6396e-005 29
v 30.3333 6.6396e-005 30
v 29.3333 6.6396e-005 30
v 29.3333 3.00007 30
v 29.3333 3.00007 29
v 29.3333 6.6396e-005 29
v 29.3333 6.6396e-005 29
v 29.3333 3.00007 29
v 30.3333 3.00007 29
v 30.3333 6.6396e-005 29
v 30.3333 6.6396e-005 29
v 30.3333 3.00007 29
v 30.3333 3.00007 30
v 30.3333 6.6396e-005 30
v 30.3333 6.6396e-005 30
v 30.3333 3.00007 30
v 29.3333 3.00007 30
v 29.3333 6.6396e-005 30
v 30.3333 3.00007 30
v 30.3333 3.00007 29
v 29.3333 3.00007 29
v 29.3333 3.00007 30
v 34.3333 6.6396e-005 30
v 34.3333 6.6396e-005 29
v 35.3333 6.6396e-005 29
v 35.3333 6.6396e-005 30
v 34.3333 6.6396e-005 30
v 34.3333 3.00007 30
v 34.3333 3.00007 29
v 34.3333 6.6396e-005 29
v 34.3333 6.6396e-005 29
v 34.3333 3.00007 29
v 35.3333 3.00007 29
v 35.3333 6.6396e-005 29
v 35.3333 6.6396e-005 29
v 35.3333 3.00007 29
v 35.3333 3.00007 30
v 35.3333 6.6396e-005 30
v 35.3333 6.6396e-005 30
v 35.3333 3.00007 30
v 34.3333 3.00007 30
v 34.3333 6.6396e-005 30
v 35.3333 3.00007 30
v 35.3333 3.00007 29
v 34.3333 3.00007 29
v 34.3333 3.00007 30
v 28.3333 3.00007 42
v 38.3333 5.00007 35
v 28.3333 3.00007 28
v 28.3333 3.00007 28
v 38.3333 5.00007 35
v 48.3333 3.00007 28
v 48.3333 3.00007 28
v 38.3333 5.00007 35
v 48.3333 3.00007 42
v 48.3333 3.00007 42
v 38.3333 5.00007 35
v 28.3333 3.00007 42
v 28.3333 3.00007 42
v 28.3333 3.00007 28
v 48.3333 3.00007 28
v 48.3333 3.00007 42
v 46.3333 3.00007 32
v 46.3333 3.00007 31
v 47.3333 3.00007 31
v 47.3333 3.00007 32
v 46.3333 3.00007 32
v 46.3333 4.00007 32
v 46.3333 4.00007 31
v 46.3333 3.00007 31
v 46.3333 3.00007 31
v 46.3333 4.00007 31
v 47.3333 4.00007 31
v 47.3333 3.00007 31
v 47.3333 3.00007 31
v 47.3333 4.00007 31
v 47.3333 4.00007 32
v 47.3333 3.00007 32
v 47.3333 3.00007 32
v 47.3333 4.00007 32
v 46.3333 4.00007 32
v 46.3333 3.00007 32
v 47.3333 4.00007 32
v 47.3333 4.00007 31
v 46.3333 4.00007 31
v 46.3333 4.00007 32
v 30.3333 3.00007 40
v 30.3333 3.00007 39
v 31.3333 3.00007 39
v 31.3333 3.00007 40
v 30.3333 3.00007 40
v 30.3333 4.00007 40
v 30.3333 4.00007 39
v 30.3333 3.00007 39
v 30.3333 3.00007 39
v 30.3333 4.00007 39
v 31.3333 4.00007 39
v 31.3333 3.00007 39
v 31.3333 3.00007 39
v 31.3333 4.00007 39
v 31.3333 4.00007 40
v 31.3333 3.00007 40
v 31.3333 3.00007 40
v 31.3333 4.00007 40
v 30.3333 4.00007 40
v 30.3333 3.00007 40
v 31.3333 4.00007 40
v 31.3333 4.00007 39
v 30.3333 4.00007 39
v 30.3333 4.00007 40
v 26 1.00007 -32
v 23 1.00007 -32
v 19.8966 0.17809 -32
v 23 1.00007 -32
v 18.5302 0.321129 -32
v 19.8966 0.17809 -32
v 18.5302 0.321129 -32
v 15 6.6396e-005 -32
v 19.8966 0.17809 -32
v 15 6.6396e-005 -32
v 26 6.6396e-005 -32
v 19.8966 0.17809 -32
v 18.5302 0.321129 -40
v 23 1.00007 -40
v 19.9058 0.17809 -40
v 23 1.00007 -40
v 26 1.00007 -40
v 19.9058 0.17809 -40
v 26 1.00007 -40
v 26 6.6396e-005 -40
v 19.9058 0.17809 -40
v 26 6.6396e-005 -40
v 15 6.6396e-005 -40
v 19.9058 0.17809 -40
vn 0 0 -1
vn 0 0 -1
vn 0 0 -1
vn 1 0 0
vn 1 0 0
vn 1 0 0
vn 1 0 0
vn 0 1 0
vn 0 1 0
vn 0 1 0
vn 0 1 0
vn -0.150173 0.98866 0
vn -0.150173 0.98866 0
vn -0.150173 0.98866 0
vn -0.150173 0.98866 0
vn -0.0905736 0.99589 0
vn -0.0905736 0.99589 0
vn -0.0905736 0.99589 0
vn -0.0905736 0.99589 0
vn 0 -1 0
vn 0 -1 0
vn 0 -1 0
vn 0 -1 0
vn 0 0 1
vn 0 0 1
vn 0 0 1
vn 0 0 -1
vn 0 0 -1
vn 0 0 -1
vn 0 0 -1
vn 0 0 -1
vn 0 0 -1
vn 0 0 -1
vn 0 0 -1
vn 0 0 -1
vn 0 0 -1
vn 0 0 -1
vn 0 0 -1
vn 0 0 -1
vn 0 0 -1
vn 0 0 -1
vn 0 0 -1
vn 0 0 -1
vn 0 0 -1
vn 0 0 -1
vn 0 0 -1
vn 0 0 -1
vn 0.167415 0.985887 0
vn 0.167415 0.985887 0
vn 0.167415 0.985887 0
vn 0.167415 0.985887 0
vn 0 1 0
vn 0 1 0
vn 0 1 0
vn 0 1 0
vn -1 0 0
vn -1 0 0
vn -1 0 0
vn -1 0 0
vn 0 1 0
vn 0 1 0
vn 0 1 0
vn 0 1 0
vn -1 0 0
vn -1 0 0
vn -1 0 0
vn -1 0 0
vn 0 1 0
vn 0 1 0
vn 0 1 0
vn 0 1 0
vn -1 0 0
vn -1 0 0
vn -1 0 0
vn -1 0 0
vn 0 1 0
vn 0 1 0
vn 0 1 0
vn 0 1 0
vn 0 1 0
vn 0 1 0
vn 0 1 0
vn 0 1 0
vn -1 0 0
vn -1 0 0
vn -1 0 0
vn -1 0 0
vn 0 1 0
vn 0 1 0
vn 0 1 0
vn 0 1 0
vn -1 0 0
vn -1 0 0
vn -1 0 0
vn -1 0 0
vn 0 1 0
vn 0 1 0
vn 0 1 0
vn 0 1 0
vn -1 0 0
vn -1 0 0
vn -1 0 0
vn -1 0 0
vn 0 1 0
vn 0 1 0
vn 0 1 0
vn 0 1 0
vn -1 0 0
vn -1 0 0
vn -1 0 0
vn -1 0 0
vn 0 1 0
vn 0 1 0
vn 0 1 0
vn 0 1 0
vn -1 0 0
vn -1 0 0
vn -1 0 0
vn -1 0 0
vn 0 1 0
vn 0 1 0
vn 0 1 0
vn 0 1 0
vn -1 0 0
vn -1 0 0
vn -1 0 0
vn -1 0 0
vn 0 -1 0
vn 0 -1 0
vn 0 -1 0
vn 0 -1 0
vn -1.0726e-014 1.1577e-013 1
vn -1.0726e-014 1.1577e-013 1
vn -1.0726e-014 1.1577e-013 1
vn -1.0726e-014 1.1577e-013 1
vn -1.0726e-014 1.1577e-013 1
vn -1.0726e-014 1.1577e-013 1
vn -1.0726e-014 1.1577e-013 1
vn -1.0726e-014 1.1577e-013 1
vn -1.0726e-014 1.1577e-013 1
vn -1.0726e-014 1.1577e-013 1
vn -1.0726e-014 1.1577e-013 1
vn -1.0726e-014 1.1577e-013 1
vn -1.0726e-014 1.1577e-013 1
vn -1.0726e-014 1.1577e-013 1
vn -1.0726e-014 1.1577e-013 1
vn -1.0726e-014 1.1577e-013 1
vn -1.0726e-014 1.1577e-013 1
vn -1.0726e-014 1.1577e-013 1
vn -1.0726e-014 1.1577e-013 1
vn -1.0726e-014 1.1577e-013 1
vn -1.0726e-014 1.1577e-013 1
vn 0 0 -1
vn 0 0 -1
vn 0 0 -1
vn 0 0 -1
vn 0 0 -1
vn 1 0 0
vn 1 0 0
vn 1 0 0
vn 1 0 0
vn 0.159066 0.987268 0
vn 0.159066 0.987268 0
vn 0.159066 0.987268 0
vn 0.159066 0.987268 0
vn 0 1 0
vn 0 1 0
vn 0 1 0
vn 0 1 0
vn -1 0 0
vn -1 0 0
vn -1 0 0
vn -1 0 0
vn -0.00240162 -0.999997 -2.47675e-031
vn -0.00240162 -0.999997 -2.47675e-031
vn -0.00240162 -0.999997 -2.47675e-031
vn -0.00240162 -0.999997 -2.47675e-031
vn 0 0 1
vn 0 0 1
vn 0 0 1
vn 0 0 1
vn 0 0 1
vn 1.49057e-016 7.66667e-016 -1
vn 1.49057e-016 7.66667e-016 -1
vn 1.49057e-016 7.66667e-016 -1
vn 1.49057e-016 7.66667e-016 -1
vn 1.49057e-016 7.66667e-016 -1
vn 1 0 0
vn 1 0 0
vn 1 0 0
vn 1 0 0
vn 0.159066 0.987268 0
vn 0.159066 0.987268 0
vn 0.159066 0.987268 0
vn 0.159066 0.987268 0
vn 0 1 0
vn 0 1 0
vn 0 1 0
vn 0 1 0
vn -1 0 0
vn -1 0 0
vn -1 0 0
vn -1 0 0
vn -0.00240162 -0.999997 -3.08149e-033
vn -0.00240162 -0.999997 -3.08149e-033
vn -0.00240162 -0.999997 -3.08149e-033
vn -0.00240162 -0.999997 -3.08149e-033
vn -1.49057e-016 -7.66667e-016 1
vn -1.49057e-016 -7.66667e-016 1
vn -1.49057e-016 -7.66667e-016 1
vn -1.49057e-016 -7.66667e-016 1
vn -1.49057e-016 -7.66667e-016 1
vn 2.66815e-021 1 -5.05427e-021
vn 2.66815e-021 1 -5.05427e-021
vn 2.66815e-021 1 -5.05427e-021
vn 2.66815e-021 1 -5.05427e-021
vn 2.66815e-021 1 -5.05427e-021
vn 2.66815e-021 1 -5.05427e-021
vn 0 0 1
vn 0 0 1
vn 0 0 1
vn 0 0 1
vn 1 0 0
vn 1 0 0
vn 1 0 0
vn 1 0 0
vn 0 0 -1
vn 0 0 -1
vn 0 0 -1
vn 0 0 -1
vn 1 0 0
vn 1 0 0
vn 1 0 0
vn 1 0 0
vn 0 0 -1
vn 0 0 -1
vn 0 0 -1
vn 0 0 -1
vn -1 0 0
vn -1 0 0
vn -1 0 0
vn -1 0 0
vn -8.74301e-017 -1 1.65618e-016
vn -8.74301e-017 -1 1.65618e-016
vn -8.74301e-017 -1 1.65618e-016
vn -8.74301e-017 -1 1.65618e-016
vn -8.74301e-017 -1 1.65618e-016
vn -8.74301e-017 -1 1.65618e-016
vn 0 -1 0
vn 0 -1 0
vn 0 -1 0
vn 0 -1 0
vn 0 0 -1
vn 0 0 -1
vn 0 0 -1
vn 0 0 -1
vn 1 0 0
vn 1 0 0
vn 1 0 0
vn 1 0 0
vn 0 0 1
vn 0 0 1
vn 0 0 1
vn 0 0 1
vn -1 0 0
vn -1 0 0
vn -1 0 0
vn -1 0 0
vn 0 1 0
vn 0 1 0
vn 0 1 0
vn 0 1 0
vn 0 -1 0
vn 0 -1 0
vn 0 -1 0
vn 0 -1 0
vn 0 0 -1
vn 0 0 -1
vn 0 0 -1
vn 0 0 -1
vn 1 0 0
vn 1 0 0
vn 1 0 0
vn 1 0 0
vn 0 0 1
vn 0 0 1
vn 0 0 1
vn 0 0 1
vn -1 0 0
vn -1 0 0
vn -1 0 0
vn -1 0 0
vn 0 1 0
vn 0 1 0
vn 0 1 0
vn 0 1 0
vn 0 0.980581 -0.196116
vn 0 0.980581 -0.196116
vn 0 0.980581 -0.196116
vn 0.274721 0.961524 0
vn 0.274721 0.961524 0
vn 0.274721 0.961524 0
vn 0 0.980581 0.196116
vn 0 0.980581 0.196116
vn 0 0.980581 0.196116
vn -0.274721 0.961524 0
vn -0.274721 0.961524 0
vn -0.274721 0.961524 0
vn 0 -1 0
vn 0 -1 0
vn 0 -1 0
vn 0 -1 0
vn 0 -1 0
vn 0 -1 0
vn 0 -1 0
vn 0 -1 0
vn 0 0 -1
vn 0 0 -1
vn 0 0 -1
vn 0 0 -1
vn 1 0 0
vn 1 0 0
vn 1 0 0
vn 1 0 0
vn 0 0 1
vn 0 0 1
vn 0 0 1
vn 0 0 1
vn -1 0 0
vn -1 0 0
vn -1 0 0
vn -1 0 0
vn 0 1 0
vn 0 1 0
vn 0 1 0
vn 0 1 0
vn 0 -1 0
vn 0 -1 0
vn 0 -1 0
vn 0 -1 0
vn 0 0 -1
vn 0 0 -1
vn 0 0 -1
vn 0 0 -1
vn 1 0 0
vn 1 0 0
vn 1 0 0
vn 1 0 0
vn 0 0 1
vn 0 0 1
vn 0 0 1
vn 0 0 1
vn -1 0 0
vn -1 0 0
vn -1 0 0
vn -1 0 0
vn 0 1 0
vn 0 1 0
vn 0 1 0
vn 0 1 0
vn -5.05427e-021 1 -2.66815e-021
vn -5.05427e-021 1 -2.66815e-021
vn -5.05427e-021 1 -2.66815e-021
vn -5.05427e-021 1 -2.66815e-021
vn -5.05427e-021 1 -2.66815e-021
vn -5.05427e-021 1 -2.66815e-021
vn 1 0 0
vn 1 0 0
vn 1 0 0
vn 1 0 0
vn 0 0 -1
vn 0 0 -1
vn 0 0 -1
vn 0 0 -1
vn -1 0 0
vn -1 0 0
vn -1 0 0
vn -1 0 0
vn 0 0 -1
vn 0 0 -1
vn 0 0 -1
vn 0 0 -1
vn -1 0 0
vn -1 0 0
vn -1 0 0
vn -1 0 0
vn 0 0 1
vn 0 0 1
vn 0 0 1
vn 0 0 1
vn 1.65618e-016 -1 8.74301e-017
vn 1.65618e-016 -1 8.74301e-017
vn 1.65618e-016 -1 8.74301e-017
vn 1.65618e-016 -1 8.74301e-017
vn 1.65618e-016 -1 8.74301e-017
vn 1.65618e-016 -1 8.74301e-017
vn 0 -1 0
vn 0 -1 0
vn 0 -1 0
vn 0 -1 0
vn -1 0 0
vn -1 0 0
vn -1 0 0
vn -1 0 0
vn 0 0 -1
vn 0 0 -1
vn 0 0 -1
vn 0 0 -1
vn 1 0 0
vn 1 0 0
vn 1 0 0
vn 1 0 0
vn 0 0 1
vn 0 0 1
vn 0 0 1
vn 0 0 1
vn 0 1 0
vn 0 1 0
vn 0 1 0
vn 0 1 0
vn 0 -1 0
vn 0 -1 0
vn 0 -1 0
vn 0 -1 0
vn -1 0 0
vn -1 0 0
vn -1 0 0
vn -1 0 0
vn 0 0 -1
vn 0 0 -1
vn 0 0 -1
vn 0 0 -1
vn 1 0 0
vn 1 0 0
vn 1 0 0
vn 1 0 0
vn 0 0 1
vn 0 0 1
vn 0 0 1
vn 0 0 1
vn 0 1 0
vn 0 1 0
vn 0 1 0
vn 0 1 0
vn -0.196116 0.980581 0
vn -0.196116 0.980581 0
vn -0.196116 0.980581 0
vn 0 0.961524 -0.274721
vn 0 0.961524 -0.274721
vn 0 0.961524 -0.274721
vn 0.196116 0.980581 0
vn 0.196116 0.980581 0
vn 0.196116 0.980581 0
vn 0 0.961524 0.274721
vn 0 0.961524 0.274721
vn 0 0.961524 0.274721
vn 0 -1 0
vn 0 -1 0
vn 0 -1 0
vn 0 -1 0
vn 0 -1 0
vn 0 -1 0
vn 0 -1 0
vn 0 -1 0
vn -1 0 0
vn -1 0 0
vn -1 0 0
vn -1 0 0
vn 0 0 -1
vn 0 0 -1
vn 0 0 -1
vn 0 0 -1
vn 1 0 0
vn 1 0 0
vn 1 0 0
vn 1 0 0
vn 0 0 1
vn 0 0 1
vn 0 0 1
vn 0 0 1
vn 0 1 0
vn 0 1 0
vn 0 1 0
vn 0 1 0
vn 0 -1 0
vn 0 -1 0
vn 0 -1 0
vn 0 -1 0
vn -1 0 0
vn -1 0 0
vn -1 0 0
vn -1 0 0
vn 0 0 -1
vn 0 0 -1
vn 0 0 -1
vn 0 0 -1
vn 1 0 0
vn 1 0 0
vn 1 0 0
vn 1 0 0
vn 0 0 1
vn 0 0 1
vn 0 0 1
vn 0 0 1
vn 0 1 0
vn 0 1 0
vn 0 1 0
vn 0 1 0
vn 0 0 1
vn 0 0 1
vn 0 0 1
vn 0 0 1
vn 0 0 1
vn 0 0 1
vn 0 0 1
vn 0 0 1
vn 0 0 1
vn 0 0 1
vn 0 0 1
vn 0 0 1
vn 0 0 -1
vn 0 0 -1
vn 0 0 -1
vn 0 0 -1
vn 0 0 -1
vn 0 0 -1
vn 0 0 -1
vn 0 0 -1
vn 0 0 -1
vn 0 0 -1
vn 0 0 -1
vn 0 0 -1
f 1//1 2//2 3//3
f 4//4 5//5 6//6 7//7
f 8//8 9//9 10//10 11//11
f 12//12 13//13 14//14 15//15
f 16//16 17//17 18//18 19//19
f 20//20 21//21 22//22 23//23
f 24//24 25//25 26//26
f 27//27 28//28 29//29 30//30 31//31 32//32 33//33 34//34 35//35 36//36 37//37 38//38 39//39 40//40 41//41 42//42 43//43 44//44 45//45 46//46 47//47
f 48//48 49//49 50//50 51//51
f 52//52 53//53 54//54 55//55
f 56//56 57//57 58//58 59//59
f 60//60 61//61 62//62 63//63
f 64//64 65//65 66//66 67//67
f 68//68 69//69 70//70 71//71
f 72//72 73//73 74//74 75//75
f 76//76 77//77 78//78 79//79
f 80//80 81//81 82//82 83//83
f 84//84 85//85 86//86 87//87
f 88//88 89//89 90//90 91//91
f 92//92 93//93 94//94 95//95
f 96//96 97//97 98//98 99//99
f 100//100 101//101 102//102 103//103
f 104//104 105//105 106//106 107//107
f 108//108 109//109 110//110 111//111
f 112//112 113//113 114//114 115//115
f 116//116 117//117 118//118 119//119
f 120//120 121//121 122//122 123//123
f 124//124 125//125 126//126 127//127
f 128//128 129//129 130//130 131//131
f 132//132 133//133 134//134 135//135 136//136 137//137 138//138 139//139 140//140 141//141 142//142 143//143 144//144 145//145 146//146 147//147 148//148 149//149 150//150 151//151 152//152
f 153//153 154//154 155//155 156//156 157//157
f 158//158 159//159 160//160 161//161
f 162//162 163//163 164//164 165//165
f 166//166 167//167 168//168 169//169
f 170//170 171//171 172//172 173//173
f 174//174 175//175 176//176 177//177
f 178//178 179//179 180//180 181//181 182//182
f 183//183 184//184 185//185 186//186 187//187
f 188//188 189//189 190//190 191//191
f 192//192 193//193 194//194 195//195
f 196//196 197//197 198//198 199//199
f 200//200 201//201 202//202 203//203
f 204//204 205//205 206//206 207//207
f 208//208 209//209 210//210 211//211 212//212
f 213//213 214//214 215//215 216//216 217//217 218//218
f 219//219 220//220 221//221 222//222
f 223//223 224//224 225//225 226//226
f 227//227 228//228 229//229 230//230
f 231//231 232//232 233//233 234//234
f 235//235 236//236 237//237 238//238
f 239//239 240//240 241//241 242//242
f 243//243 244//244 245//245 246//246 247//247 248//248
f 249//249 250//250 251//251 252//252
f 253//253 254//254 255//255 256//256
f 257//257 258//258 259//259 260//260
f 261//261 262//262 263//263 264//264
f 265//265 266//266 267//267 268//268
f 269//269 270//270 271//271 272//272
f 273//273 274//274 275//275 276//276
f 277//277 278//278 279//279 280//280
f 281//281 282//282 283//283 284//284
f 285//285 286//286 287//287 288//288
f 289//289 290//290 291//291 292//292
f 293//293 294//294 295//295 296//296
f 297//297 298//298 299//299
f 300//300 301//301 302//302
f 303//303 304//304 305//305
f 306//306 307//307 308//308
f 309//309 310//310 311//311 312//312
f 313//313 314//314 315//315 316//316
f 317//317 318//318 319//319 320//320
f 321//321 322//322 323//323 324//324
f 325//325 326//326 327//327 328//328
f 329//329 330//330 331//331 332//332
f 333//333 334//334 335//335 336//336
f 337//337 338//338 339//339 340//340
f 341//341 342//342 343//343 344//344
f 345//345 346//346 347//347 348//348
f 349//349 350//350 351//351 352//352
f 353//353 354//354 355//355 356//356
f 357//357 358//358 359//359 360//360
f 361//361 362//362 363//363 364//364 365//365 366//366
f 367//367 368//368 369//369 370//370
f 371//371 372//372 373//373 374//374
f 375//375 376//376 377//377 378//378
f 379//379 380//380 381//381 382//382
f 383//383 384//384 385//385 386//386
f 387//387 388//388 389//389 390//390
f 391//391 392//392 393//393 394//394 395//395 396//396
f 397//397 398//398 399//399 400//400
f 401//401 402//402 403//403 404//404
f 405//405 406//406 407//407 408//408
f 409//409 410//410 411//411 412//412
f 413//413 414//414 415//415 416//416
f 417//417 418//418 419//419 420//420
f 421//421 422//422 423//423 424//424
f 425//425 426//426 427//427 428//428
f 429//429 430//430 431//431 432//432
f 433//433 434//434 435//435 436//436
f 437//437 438//438 439//439 440//440
f 441//441 442//442 443//443 444//444
f 445//445 446//446 447//447
f 448//448 449//449 450//450
f 451//451 452//452 453//453
f 454//454 455//455 456//456
f 457//457 458//458 459//459 460//460
f 461//461 462//462 463//463 464//464
f 465//465 466//466 467//467 468//468
f 469//469 470//470 471//471 472//472
f 473//473 474//474 475//475 476//476
f 477//477 478//478 479//479 480//480
f 481//481 482//482 483//483 484//484
f 485//485 486//486 487//487 488//488
f 489//489 490//490 491//491 492//492
f 493//493 494//494 495//495 496//496
f 497//497 498//498 499//499 500//500
f 501//501 502//502 503//503 504//504
f 505//505 506//506 507//507 508//508
f 509//509 510//510 511//511
f 512//512 513//513 514//514
f 515//515 516//516 517//517
f 518//518 519//519 520//520
f 521//521 522//522 523//523
f 524//524 525//525 526//526
f 527//527 528//528 529//529
f 530//530 531//531 532//532
