# Blender v2.82 (sub 7) OBJ File: ''
# www.blender.org
mtllib m1078_rear.mtl
o m1078_rear
v -4.786690 0.395000 0.566000
v -4.786690 -0.395000 0.566000
v -4.786690 -0.395000 0.556000
v -4.786690 0.395000 0.556000
v -4.901290 -0.395000 0.566000
v -4.901290 -0.395000 0.556000
v -4.901290 0.395000 0.566000
v -4.901290 0.395000 0.556000
v -1.752080 -0.445000 0.566000
v -4.901290 -0.445000 0.566000
v -4.901290 -0.445000 0.366000
v -1.752080 -0.445000 0.366000
v -4.901290 -0.435000 0.566000
v -4.901290 -0.435000 0.366000
v -1.752080 -0.435000 0.566000
v -1.752080 -0.435000 0.366000
v -1.752080 0.435000 0.566000
v -4.901290 0.435000 0.566000
v -4.901290 0.435000 0.366000
v -1.752080 0.435000 0.366000
v -4.901290 0.445000 0.566000
v -4.901290 0.445000 0.366000
v -1.752080 0.445000 0.566000
v -1.752080 0.445000 0.366000
v -1.752080 -0.435000 0.376000
v -4.901290 -0.435000 0.376000
v -4.901290 -0.435000 0.366000
v -1.752080 -0.435000 0.366000
v -4.901290 -0.395000 0.376000
v -4.901290 -0.395000 0.366000
v -1.752080 -0.395000 0.376000
v -1.752080 -0.395000 0.366000
v -1.752080 -0.435000 0.566000
v -4.901290 -0.435000 0.566000
v -4.901290 -0.435000 0.556000
v -1.752080 -0.435000 0.556000
v -4.901290 -0.395000 0.566000
v -4.901290 -0.395000 0.556000
v -1.752080 -0.395000 0.566000
v -1.752080 -0.395000 0.556000
v -1.752080 0.395000 0.376000
v -4.901290 0.395000 0.376000
v -4.901290 0.395000 0.366000
v -1.752080 0.395000 0.366000
v -4.901290 0.435000 0.376000
v -4.901290 0.435000 0.366000
v -1.752080 0.435000 0.376000
v -1.752080 0.435000 0.366000
v -1.752080 0.395000 0.566000
v -4.901290 0.395000 0.566000
v -4.901290 0.395000 0.556000
v -1.752080 0.395000 0.556000
v -4.901290 0.435000 0.566000
v -4.901290 0.435000 0.556000
v -1.752080 0.435000 0.566000
v -1.752080 0.435000 0.556000
v -4.901290 -0.395000 0.366000
v -4.901290 0.395000 0.366000
v -4.786690 0.395000 0.366000
v -4.786690 -0.395000 0.366000
v -4.786690 0.395000 0.376000
v -4.786690 -0.395000 0.376000
v -4.901290 0.395000 0.376000
v -4.901290 -0.395000 0.376000
v -3.956980 -0.395000 0.366000
v -3.956980 0.395000 0.366000
v -3.842380 0.395000 0.366000
v -3.842380 -0.395000 0.366000
v -3.842380 0.395000 0.376000
v -3.842380 -0.395000 0.376000
v -3.956980 0.395000 0.376000
v -3.956980 -0.395000 0.376000
v -2.810980 -0.395000 0.366000
v -2.810980 0.395000 0.366000
v -2.696380 0.395000 0.366000
v -2.696380 -0.395000 0.366000
v -2.696380 0.395000 0.376000
v -2.696380 -0.395000 0.376000
v -2.810980 0.395000 0.376000
v -2.810980 -0.395000 0.376000
v -4.902430 -0.440000 0.376000
v -4.902430 0.440000 0.376000
v -4.890970 0.440000 0.376000
v -4.890970 -0.440000 0.376000
v -4.890970 0.440000 0.556000
v -4.890970 -0.440000 0.556000
v -4.902430 0.440000 0.556000
v -4.902430 -0.440000 0.556000
v -3.905410 -0.440000 0.376000
v -3.905410 0.440000 0.376000
v -3.893950 0.440000 0.376000
v -3.893950 -0.440000 0.376000
v -3.893950 0.440000 0.556000
v -3.893950 -0.440000 0.556000
v -3.905410 0.440000 0.556000
v -3.905410 -0.440000 0.556000
v -2.759410 -0.440000 0.376000
v -2.759410 0.440000 0.376000
v -2.747950 0.440000 0.376000
v -2.747950 -0.440000 0.376000
v -2.747950 0.440000 0.556000
v -2.747950 -0.440000 0.556000
v -2.759410 0.440000 0.556000
v -2.759410 -0.440000 0.556000
v -2.810980 -0.395000 0.556000
v -2.810980 0.395000 0.556000
v -2.696380 0.395000 0.556000
v -2.696380 -0.395000 0.556000
v -2.696380 0.395000 0.566000
v -2.696380 -0.395000 0.566000
v -2.810980 0.395000 0.566000
v -2.810980 -0.395000 0.566000
v -3.956980 -0.395000 0.556000
v -3.956980 0.395000 0.556000
v -3.842380 0.395000 0.556000
v -3.842380 -0.395000 0.556000
v -3.842380 0.395000 0.566000
v -3.842380 -0.395000 0.566000
v -3.956980 0.395000 0.566000
v -3.956980 -0.395000 0.566000
v -4.900000 -0.450000 0.746000
v -4.900000 0.450000 0.746000
v -4.900000 0.450000 0.566000
v -4.900000 -0.450000 0.566000
v -1.100000 0.450000 0.746000
v -1.100000 0.450000 0.566000
v -1.100000 -0.450000 0.746000
v -1.100000 -0.450000 0.566000
v -4.860000 1.110000 1.456000
v -4.860000 1.150000 1.456000
v -4.860000 1.150000 1.446000
v -4.860000 1.110000 1.446000
v -1.140000 1.150000 1.456000
v -1.140000 1.150000 1.446000
v -1.140000 1.110000 1.456000
v -1.140000 1.110000 1.446000
v -4.900000 1.150000 0.766000
v -4.900000 -1.150000 0.766000
v -1.100000 -1.150000 0.766000
v -1.100000 1.150000 0.766000
v -4.900000 -1.150000 0.746000
v -1.100000 -1.150000 0.746000
v -4.900000 1.150000 0.746000
v -1.100000 1.150000 0.746000
v -3.015000 -1.150000 1.446000
v -3.015000 -1.120000 1.446000
v -3.015000 -1.120000 0.766000
v -3.015000 -1.150000 0.766000
v -2.985000 -1.120000 1.446000
v -2.985000 -1.120000 0.766000
v -2.985000 -1.150000 1.446000
v -2.985000 -1.150000 0.766000
v -3.015000 1.120000 1.446000
v -3.015000 1.150000 1.446000
v -3.015000 1.150000 0.766000
v -3.015000 1.120000 0.766000
v -2.985000 1.150000 1.446000
v -2.985000 1.150000 0.766000
v -2.985000 1.120000 1.446000
v -2.985000 1.120000 0.766000
v -1.130000 1.120000 1.446000
v -1.130000 1.150000 1.446000
v -1.130000 1.150000 0.766000
v -1.130000 1.120000 0.766000
v -1.100000 1.150000 1.446000
v -1.100000 1.150000 0.766000
v -1.100000 1.120000 1.446000
v -1.100000 1.120000 0.766000
v -4.900000 1.120000 1.446000
v -4.900000 1.150000 1.446000
v -4.900000 1.150000 0.766000
v -4.900000 1.120000 0.766000
v -4.870000 1.150000 1.446000
v -4.870000 1.150000 0.766000
v -4.870000 1.120000 1.446000
v -4.870000 1.120000 0.766000
v -4.900000 -1.150000 1.446000
v -4.900000 -1.120000 1.446000
v -4.900000 -1.120000 0.766000
v -4.900000 -1.150000 0.766000
v -4.870000 -1.120000 1.446000
v -4.870000 -1.120000 0.766000
v -4.870000 -1.150000 1.446000
v -4.870000 -1.150000 0.766000
v -1.130000 -1.150000 1.446000
v -1.130000 -1.120000 1.446000
v -1.130000 -1.120000 0.766000
v -1.130000 -1.150000 0.766000
v -1.100000 -1.120000 1.446000
v -1.100000 -1.120000 0.766000
v -1.100000 -1.150000 1.446000
v -1.100000 -1.150000 0.766000
v -1.130000 -0.015000 1.446000
v -1.130000 0.015000 1.446000
v -1.130000 0.015000 0.766000
v -1.130000 -0.015000 0.766000
v -1.100000 0.015000 1.446000
v -1.100000 0.015000 0.766000
v -1.100000 -0.015000 1.446000
v -1.100000 -0.015000 0.766000
v -4.900000 -0.015000 1.446000
v -4.900000 0.015000 1.446000
v -4.900000 0.015000 0.766000
v -4.900000 -0.015000 0.766000
v -4.870000 0.015000 1.446000
v -4.870000 0.015000 0.766000
v -4.870000 -0.015000 1.446000
v -4.870000 -0.015000 0.766000
v -4.870000 -1.120000 1.446000
v -4.870000 1.120000 1.446000
v -4.870000 1.120000 0.766000
v -4.870000 -1.120000 0.766000
v -4.860000 1.120000 1.446000
v -4.860000 1.120000 0.766000
v -4.860000 -1.120000 1.446000
v -4.860000 -1.120000 0.766000
v -1.140000 -1.120000 1.446000
v -1.140000 1.120000 1.446000
v -1.140000 1.120000 0.766000
v -1.140000 -1.120000 0.766000
v -1.130000 1.120000 1.446000
v -1.130000 1.120000 0.766000
v -1.130000 -1.120000 1.446000
v -1.130000 -1.120000 0.766000
v -4.870000 -1.120000 1.446000
v -4.870000 -1.110000 1.446000
v -4.870000 -1.110000 0.766000
v -4.870000 -1.120000 0.766000
v -1.130000 -1.110000 1.446000
v -1.130000 -1.110000 0.766000
v -1.130000 -1.120000 1.446000
v -1.130000 -1.120000 0.766000
v -4.870000 1.110000 1.446000
v -4.870000 1.120000 1.446000
v -4.870000 1.120000 0.766000
v -4.870000 1.110000 0.766000
v -1.130000 1.120000 1.446000
v -1.130000 1.120000 0.766000
v -1.130000 1.110000 1.446000
v -1.130000 1.110000 0.766000
v -1.140000 -1.150000 1.456000
v -1.140000 1.150000 1.456000
v -1.140000 1.150000 1.446000
v -1.140000 -1.150000 1.446000
v -1.100000 1.150000 1.456000
v -1.100000 1.150000 1.446000
v -1.100000 -1.150000 1.456000
v -1.100000 -1.150000 1.446000
v -4.900000 -1.150000 1.456000
v -4.900000 1.150000 1.456000
v -4.900000 1.150000 1.446000
v -4.900000 -1.150000 1.446000
v -4.860000 1.150000 1.456000
v -4.860000 1.150000 1.446000
v -4.860000 -1.150000 1.456000
v -4.860000 -1.150000 1.446000
v -4.860000 -1.150000 1.456000
v -4.860000 -1.110000 1.456000
v -4.860000 -1.110000 1.446000
v -4.860000 -1.150000 1.446000
v -1.140000 -1.110000 1.456000
v -1.140000 -1.110000 1.446000
v -1.140000 -1.150000 1.456000
v -1.140000 -1.150000 1.446000
vn 1.0000 0.0000 0.0000
vn 0.0000 -1.0000 0.0000
vn -1.0000 0.0000 0.0000
vn 0.0000 1.0000 0.0000
vn 0.0000 0.0000 -1.0000
vn 0.0000 0.0000 1.0000
usemtl Exterior_Tan
s off
f 1//1 2//1 3//1
f 1//1 3//1 4//1
f 2//2 5//2 6//2
f 2//2 6//2 3//2
f 5//3 7//3 8//3
f 5//3 8//3 6//3
f 7//4 1//4 4//4
f 7//4 4//4 8//4
f 6//5 8//5 4//5
f 6//5 4//5 3//5
f 2//6 1//6 7//6
f 2//6 7//6 5//6
f 9//2 10//2 11//2
f 9//2 11//2 12//2
f 10//3 13//3 14//3
f 10//3 14//3 11//3
f 9//6 15//6 13//6
f 9//6 13//6 10//6
f 15//1 9//1 12//1
f 15//1 12//1 16//1
f 13//4 15//4 16//4
f 13//4 16//4 14//4
f 11//5 14//5 16//5
f 11//5 16//5 12//5
f 17//2 18//2 19//2
f 17//2 19//2 20//2
f 18//3 21//3 22//3
f 18//3 22//3 19//3
f 17//6 23//6 21//6
f 17//6 21//6 18//6
f 23//1 17//1 20//1
f 23//1 20//1 24//1
f 21//4 23//4 24//4
f 21//4 24//4 22//4
f 19//5 22//5 24//5
f 19//5 24//5 20//5
f 25//2 26//2 27//2
f 25//2 27//2 28//2
f 26//3 29//3 30//3
f 26//3 30//3 27//3
f 25//6 31//6 29//6
f 25//6 29//6 26//6
f 31//1 25//1 28//1
f 31//1 28//1 32//1
f 29//4 31//4 32//4
f 29//4 32//4 30//4
f 27//5 30//5 32//5
f 27//5 32//5 28//5
f 33//2 34//2 35//2
f 33//2 35//2 36//2
f 34//3 37//3 38//3
f 34//3 38//3 35//3
f 33//6 39//6 37//6
f 33//6 37//6 34//6
f 39//1 33//1 36//1
f 39//1 36//1 40//1
f 37//4 39//4 40//4
f 37//4 40//4 38//4
f 35//5 38//5 40//5
f 35//5 40//5 36//5
f 41//2 42//2 43//2
f 41//2 43//2 44//2
f 42//3 45//3 46//3
f 42//3 46//3 43//3
f 41//6 47//6 45//6
f 41//6 45//6 42//6
f 47//1 41//1 44//1
f 47//1 44//1 48//1
f 45//4 47//4 48//4
f 45//4 48//4 46//4
f 43//5 46//5 48//5
f 43//5 48//5 44//5
f 49//2 50//2 51//2
f 49//2 51//2 52//2
f 50//3 53//3 54//3
f 50//3 54//3 51//3
f 49//6 55//6 53//6
f 49//6 53//6 50//6
f 55//1 49//1 52//1
f 55//1 52//1 56//1
f 53//4 55//4 56//4
f 53//4 56//4 54//4
f 51//5 54//5 56//5
f 51//5 56//5 52//5
f 57//5 58//5 59//5
f 57//5 59//5 60//5
f 61//1 62//1 60//1
f 61//1 60//1 59//1
f 63//4 61//4 59//4
f 63//4 59//4 58//4
f 64//3 63//3 58//3
f 64//3 58//3 57//3
f 62//6 61//6 63//6
f 62//6 63//6 64//6
f 62//2 64//2 57//2
f 62//2 57//2 60//2
f 65//5 66//5 67//5
f 65//5 67//5 68//5
f 69//1 70//1 68//1
f 69//1 68//1 67//1
f 71//4 69//4 67//4
f 71//4 67//4 66//4
f 72//3 71//3 66//3
f 72//3 66//3 65//3
f 70//6 69//6 71//6
f 70//6 71//6 72//6
f 70//2 72//2 65//2
f 70//2 65//2 68//2
f 73//5 74//5 75//5
f 73//5 75//5 76//5
f 77//1 78//1 76//1
f 77//1 76//1 75//1
f 79//4 77//4 75//4
f 79//4 75//4 74//4
f 80//3 79//3 74//3
f 80//3 74//3 73//3
f 78//6 77//6 79//6
f 78//6 79//6 80//6
f 78//2 80//2 73//2
f 78//2 73//2 76//2
f 81//5 82//5 83//5
f 81//5 83//5 84//5
f 85//1 86//1 84//1
f 85//1 84//1 83//1
f 87//4 85//4 83//4
f 87//4 83//4 82//4
f 88//3 87//3 82//3
f 88//3 82//3 81//3
f 86//6 85//6 87//6
f 86//6 87//6 88//6
f 86//2 88//2 81//2
f 86//2 81//2 84//2
f 89//5 90//5 91//5
f 89//5 91//5 92//5
f 93//1 94//1 92//1
f 93//1 92//1 91//1
f 95//4 93//4 91//4
f 95//4 91//4 90//4
f 96//3 95//3 90//3
f 96//3 90//3 89//3
f 94//6 93//6 95//6
f 94//6 95//6 96//6
f 94//2 96//2 89//2
f 94//2 89//2 92//2
f 97//5 98//5 99//5
f 97//5 99//5 100//5
f 101//1 102//1 100//1
f 101//1 100//1 99//1
f 103//4 101//4 99//4
f 103//4 99//4 98//4
f 104//3 103//3 98//3
f 104//3 98//3 97//3
f 102//6 101//6 103//6
f 102//6 103//6 104//6
f 102//2 104//2 97//2
f 102//2 97//2 100//2
f 105//5 106//5 107//5
f 105//5 107//5 108//5
f 109//1 110//1 108//1
f 109//1 108//1 107//1
f 111//4 109//4 107//4
f 111//4 107//4 106//4
f 112//3 111//3 106//3
f 112//3 106//3 105//3
f 110//6 109//6 111//6
f 110//6 111//6 112//6
f 110//2 112//2 105//2
f 110//2 105//2 108//2
f 113//5 114//5 115//5
f 113//5 115//5 116//5
f 117//1 118//1 116//1
f 117//1 116//1 115//1
f 119//4 117//4 115//4
f 119//4 115//4 114//4
f 120//3 119//3 114//3
f 120//3 114//3 113//3
f 118//6 117//6 119//6
f 118//6 119//6 120//6
f 118//2 120//2 113//2
f 118//2 113//2 116//2
f 121//3 122//3 123//3
f 121//3 123//3 124//3
f 122//4 125//4 126//4
f 122//4 126//4 123//4
f 125//1 127//1 128//1
f 125//1 128//1 126//1
f 127//2 121//2 124//2
f 127//2 124//2 128//2
f 126//5 128//5 124//5
f 126//5 124//5 123//5
f 122//6 121//6 127//6
f 122//6 127//6 125//6
f 129//3 130//3 131//3
f 129//3 131//3 132//3
f 130//4 133//4 134//4
f 130//4 134//4 131//4
f 133//1 135//1 136//1
f 133//1 136//1 134//1
f 135//2 129//2 132//2
f 135//2 132//2 136//2
f 134//5 136//5 132//5
f 134//5 132//5 131//5
f 130//6 129//6 135//6
f 130//6 135//6 133//6
f 137//6 138//6 139//6
f 137//6 139//6 140//6
f 139//2 138//2 141//2
f 139//2 141//2 142//2
f 138//3 137//3 143//3
f 138//3 143//3 141//3
f 144//5 142//5 141//5
f 144//5 141//5 143//5
f 140//1 139//1 142//1
f 140//1 142//1 144//1
f 137//4 140//4 144//4
f 137//4 144//4 143//4
f 145//3 146//3 147//3
f 145//3 147//3 148//3
f 146//4 149//4 150//4
f 146//4 150//4 147//4
f 149//1 151//1 152//1
f 149//1 152//1 150//1
f 151//2 145//2 148//2
f 151//2 148//2 152//2
f 150//5 152//5 148//5
f 150//5 148//5 147//5
f 146//6 145//6 151//6
f 146//6 151//6 149//6
f 153//3 154//3 155//3
f 153//3 155//3 156//3
f 154//4 157//4 158//4
f 154//4 158//4 155//4
f 157//1 159//1 160//1
f 157//1 160//1 158//1
f 159//2 153//2 156//2
f 159//2 156//2 160//2
f 158//5 160//5 156//5
f 158//5 156//5 155//5
f 154//6 153//6 159//6
f 154//6 159//6 157//6
f 161//3 162//3 163//3
f 161//3 163//3 164//3
f 162//4 165//4 166//4
f 162//4 166//4 163//4
f 165//1 167//1 168//1
f 165//1 168//1 166//1
f 167//2 161//2 164//2
f 167//2 164//2 168//2
f 166//5 168//5 164//5
f 166//5 164//5 163//5
f 162//6 161//6 167//6
f 162//6 167//6 165//6
f 169//3 170//3 171//3
f 169//3 171//3 172//3
f 170//4 173//4 174//4
f 170//4 174//4 171//4
f 173//1 175//1 176//1
f 173//1 176//1 174//1
f 175//2 169//2 172//2
f 175//2 172//2 176//2
f 174//5 176//5 172//5
f 174//5 172//5 171//5
f 170//6 169//6 175//6
f 170//6 175//6 173//6
f 177//3 178//3 179//3
f 177//3 179//3 180//3
f 178//4 181//4 182//4
f 178//4 182//4 179//4
f 181//1 183//1 184//1
f 181//1 184//1 182//1
f 183//2 177//2 180//2
f 183//2 180//2 184//2
f 182//5 184//5 180//5
f 182//5 180//5 179//5
f 178//6 177//6 183//6
f 178//6 183//6 181//6
f 185//3 186//3 187//3
f 185//3 187//3 188//3
f 186//4 189//4 190//4
f 186//4 190//4 187//4
f 189//1 191//1 192//1
f 189//1 192//1 190//1
f 191//2 185//2 188//2
f 191//2 188//2 192//2
f 190//5 192//5 188//5
f 190//5 188//5 187//5
f 186//6 185//6 191//6
f 186//6 191//6 189//6
f 193//3 194//3 195//3
f 193//3 195//3 196//3
f 194//4 197//4 198//4
f 194//4 198//4 195//4
f 197//1 199//1 200//1
f 197//1 200//1 198//1
f 199//2 193//2 196//2
f 199//2 196//2 200//2
f 198//5 200//5 196//5
f 198//5 196//5 195//5
f 194//6 193//6 199//6
f 194//6 199//6 197//6
f 201//3 202//3 203//3
f 201//3 203//3 204//3
f 202//4 205//4 206//4
f 202//4 206//4 203//4
f 205//1 207//1 208//1
f 205//1 208//1 206//1
f 207//2 201//2 204//2
f 207//2 204//2 208//2
f 206//5 208//5 204//5
f 206//5 204//5 203//5
f 202//6 201//6 207//6
f 202//6 207//6 205//6
f 209//3 210//3 211//3
f 209//3 211//3 212//3
f 210//4 213//4 214//4
f 210//4 214//4 211//4
f 213//1 215//1 216//1
f 213//1 216//1 214//1
f 215//2 209//2 212//2
f 215//2 212//2 216//2
f 214//5 216//5 212//5
f 214//5 212//5 211//5
f 210//6 209//6 215//6
f 210//6 215//6 213//6
f 217//3 218//3 219//3
f 217//3 219//3 220//3
f 218//4 221//4 222//4
f 218//4 222//4 219//4
f 221//1 223//1 224//1
f 221//1 224//1 222//1
f 223//2 217//2 220//2
f 223//2 220//2 224//2
f 222//5 224//5 220//5
f 222//5 220//5 219//5
f 218//6 217//6 223//6
f 218//6 223//6 221//6
f 225//3 226//3 227//3
f 225//3 227//3 228//3
f 226//4 229//4 230//4
f 226//4 230//4 227//4
f 229//1 231//1 232//1
f 229//1 232//1 230//1
f 231//2 225//2 228//2
f 231//2 228//2 232//2
f 230//5 232//5 228//5
f 230//5 228//5 227//5
f 226//6 225//6 231//6
f 226//6 231//6 229//6
f 233//3 234//3 235//3
f 233//3 235//3 236//3
f 234//4 237//4 238//4
f 234//4 238//4 235//4
f 237//1 239//1 240//1
f 237//1 240//1 238//1
f 239//2 233//2 236//2
f 239//2 236//2 240//2
f 238//5 240//5 236//5
f 238//5 236//5 235//5
f 234//6 233//6 239//6
f 234//6 239//6 237//6
f 241//3 242//3 243//3
f 241//3 243//3 244//3
f 242//4 245//4 246//4
f 242//4 246//4 243//4
f 245//1 247//1 248//1
f 245//1 248//1 246//1
f 247//2 241//2 244//2
f 247//2 244//2 248//2
f 246//5 248//5 244//5
f 246//5 244//5 243//5
f 242//6 241//6 247//6
f 242//6 247//6 245//6
f 249//3 250//3 251//3
f 249//3 251//3 252//3
f 250//4 253//4 254//4
f 250//4 254//4 251//4
f 253//1 255//1 256//1
f 253//1 256//1 254//1
f 255//2 249//2 252//2
f 255//2 252//2 256//2
f 254//5 256//5 252//5
f 254//5 252//5 251//5
f 250//6 249//6 255//6
f 250//6 255//6 253//6
f 257//3 258//3 259//3
f 257//3 259//3 260//3
f 258//4 261//4 262//4
f 258//4 262//4 259//4
f 261//1 263//1 264//1
f 261//1 264//1 262//1
f 263//2 257//2 260//2
f 263//2 260//2 264//2
f 262//5 264//5 260//5
f 262//5 260//5 259//5
f 258//6 257//6 263//6
f 258//6 263//6 261//6
