####
#
# OBJ File Generated by Meshlab
#
####
# Object rock2.obj
#
# Vertices: 56
# Faces: 108
#
####
vn -2.285145 -2.875142 2.483394
v -0.400000 -0.400000 0.500000
vn -2.392435 -1.961287 -1.698847
v -0.400000 -0.400000 -0.500000
vn 2.880559 -2.289355 -2.733111
v 0.375694 -0.298182 -0.514771
vn 2.446490 -1.697189 1.741045
v 0.400077 -0.399627 0.499476
vn -2.639714 2.123414 1.329045
v -0.398332 0.386854 0.491621
vn -2.364784 2.931193 -2.462987
v -0.394500 0.395311 -0.489547
vn 2.461412 1.917801 -1.580995
v 0.365370 0.471714 -0.471910
vn 2.132734 3.057223 2.495566
v 0.401029 0.399872 0.485548
vn -4.142246 3.841764 0.744474
v -0.450541 0.360851 0.101189
vn -3.986369 3.735603 -0.451138
v -0.462428 0.462597 -0.164480
vn -3.968278 1.073698 -3.467726
v -0.463578 0.133333 -0.579472
vn -3.922812 -1.131269 -3.413753
v -0.463578 -0.133333 -0.579472
vn -3.583360 -3.737556 -0.930005
v -0.463578 -0.463578 -0.166667
vn -3.732385 -3.769474 0.770711
v -0.463578 -0.463578 0.166667
vn -3.943344 -1.029387 3.479049
v -0.463578 -0.133333 0.579472
vn -3.976710 1.220128 3.306096
v -0.463578 0.133333 0.579472
vn -0.765007 4.010257 -3.464950
v -0.133333 0.463578 -0.579472
vn 1.280067 3.958328 -3.193641
v 0.129642 0.471223 -0.576478
vn 4.035192 1.168552 -3.620739
v 0.403964 0.257473 -0.531577
vn 4.178175 -0.405357 -3.705932
v 0.400849 0.045056 -0.561070
vn 0.858081 -3.679307 -3.756232
v 0.128951 -0.445101 -0.582216
vn -1.203675 -3.954437 -3.656712
v -0.130285 -0.390952 -0.590503
vn 3.611691 3.838720 -0.681211
v 0.447564 0.455955 -0.181599
vn 3.738773 3.783420 0.739588
v 0.463578 0.463578 0.166667
vn 3.763022 0.722992 3.479601
v 0.464060 0.136963 0.575677
vn 3.764340 -0.897490 3.625101
v 0.468299 -0.100010 0.543165
vn 3.835741 -3.610904 0.583564
v 0.463574 -0.463559 0.166664
vn 3.989185 -3.341466 -1.272768
v 0.455243 -0.428435 -0.171884
vn 0.849076 4.196145 3.477318
v 0.137657 0.463041 0.518715
vn -1.620932 3.945124 3.117511
v -0.132920 0.463527 0.573670
vn -0.393544 -3.735303 3.569310
v -0.133334 -0.463578 0.579473
vn 1.377083 -3.444126 3.617250
v 0.134862 -0.463663 0.571989
vn -5.643086 1.263987 0.708947
v -0.568286 0.154526 0.210295
vn -5.729722 -0.963150 0.802827
v -0.568286 -0.154526 0.210295
vn -5.647567 1.151025 -0.661506
v -0.568286 0.154526 -0.210295
vn -5.731934 -0.963638 -0.787065
v -0.568286 -0.154526 -0.210295
vn -1.114849 1.260079 -5.493106
v -0.168236 0.154526 -0.710357
vn -1.080835 -1.145459 -5.516136
v -0.168236 -0.154526 -0.710357
vn 1.374378 1.371849 -5.439721
v 0.134136 0.225142 -0.682696
vn 1.570546 -0.694962 -5.453483
v 0.151538 -0.103438 -0.707872
vn 5.675123 1.000461 -1.092552
v 0.546411 0.200343 -0.192897
vn 5.665663 -0.688314 -1.342503
v 0.546796 -0.074890 -0.216400
vn 5.708657 0.984622 0.706530
v 0.568286 0.154529 0.210292
vn 5.744415 -0.873992 0.641548
v 0.569076 -0.148570 0.204068
vn 1.304206 0.896235 5.437652
v 0.168885 0.154473 0.704991
vn 1.389011 -1.250975 5.665592
v 0.187116 -0.155500 0.617912
vn -0.872481 1.158311 5.414033
v -0.168236 0.154526 0.710357
vn -0.724320 -1.296550 5.544948
v -0.166992 -0.154596 0.704266
vn -0.952174 -5.731307 0.782467
v -0.154526 -0.568286 0.210295
vn 1.066341 -5.690934 0.705808
v 0.154526 -0.568286 0.210295
vn -1.024645 -5.661724 -1.074182
v -0.154516 -0.568054 -0.210330
vn 1.263398 -5.457999 -1.128352
v 0.153906 -0.565671 -0.210683
vn 0.975538 5.715223 0.844590
v 0.154723 0.568261 0.207532
vn -1.357503 5.520113 1.005714
v -0.154526 0.568288 0.210296
vn 0.895406 5.767486 -0.719474
v 0.154526 0.568286 -0.210295
vn -1.156986 5.642824 -0.660171
v -0.154261 0.568060 -0.209792
# 56 vertices, 0 vertices normals

f 36//36 12//12 2//2
f 36//36 2//2 13//13
f 40//40 20//20 3//3
f 40//40 3//3 21//21
f 44//44 26//26 4//4
f 44//44 4//4 27//27
f 48//48 15//15 1//1
f 48//48 1//1 31//31
f 52//52 21//21 3//3
f 52//52 3//3 28//28
f 56//56 17//17 6//6
f 56//56 6//6 10//10
f 15//15 34//34 14//14
f 15//15 14//14 1//1
f 34//34 36//36 13//13
f 34//34 13//13 14//14
f 5//5 9//9 33//33
f 5//5 33//33 16//16
f 16//16 33//33 34//34
f 16//16 34//34 15//15
f 9//9 10//10 35//35
f 9//9 35//35 33//33
f 33//33 35//35 36//36
f 33//33 36//36 34//34
f 10//10 6//6 11//11
f 10//10 11//11 35//35
f 35//35 11//11 12//12
f 35//35 12//12 36//36
f 12//12 38//38 22//22
f 12//12 22//22 2//2
f 38//38 40//40 21//21
f 38//38 21//21 22//22
f 6//6 17//17 37//37
f 6//6 37//37 11//11
f 11//11 37//37 38//38
f 11//11 38//38 12//12
f 17//17 18//18 39//39
f 17//17 39//39 37//37
f 37//37 39//39 40//40
f 37//37 40//40 38//38
f 18//18 7//7 19//19
f 18//18 19//19 39//39
f 39//39 19//19 20//20
f 39//39 20//20 40//40
f 20//20 42//42 28//28
f 20//20 28//28 3//3
f 42//42 44//44 27//27
f 42//42 27//27 28//28
f 7//7 23//23 41//41
f 7//7 41//41 19//19
f 19//19 41//41 42//42
f 19//19 42//42 20//20
f 23//23 24//24 43//43
f 23//23 43//43 41//41
f 41//41 43//43 44//44
f 41//41 44//44 42//42
f 24//24 8//8 25//25
f 24//24 25//25 43//43
f 43//43 25//25 26//26
f 43//43 26//26 44//44
f 26//26 46//46 32//32
f 26//26 32//32 4//4
f 46//46 48//48 31//31
f 46//46 31//31 32//32
f 8//8 29//29 45//45
f 8//8 45//45 25//25
f 25//25 45//45 46//46
f 25//25 46//46 26//26
f 29//29 30//30 47//47
f 29//29 47//47 45//45
f 45//45 47//47 48//48
f 45//45 48//48 46//46
f 30//30 5//5 16//16
f 30//30 16//16 47//47
f 47//47 16//16 15//15
f 47//47 15//15 48//48
f 32//32 50//50 27//27
f 32//32 27//27 4//4
f 50//50 52//52 28//28
f 50//50 28//28 27//27
f 1//1 14//14 49//49
f 1//1 49//49 31//31
f 31//31 49//49 50//50
f 31//31 50//50 32//32
f 14//14 13//13 51//51
f 14//14 51//51 49//49
f 49//49 51//51 52//52
f 49//49 52//52 50//50
f 13//13 2//2 22//22
f 13//13 22//22 51//51
f 51//51 22//22 21//21
f 51//51 21//21 52//52
f 30//30 54//54 9//9
f 30//30 9//9 5//5
f 54//54 56//56 10//10
f 54//54 10//10 9//9
f 8//8 24//24 53//53
f 8//8 53//53 29//29
f 29//29 53//53 54//54
f 29//29 54//54 30//30
f 24//24 23//23 55//55
f 24//24 55//55 53//53
f 53//53 55//55 56//56
f 53//53 56//56 54//54
f 23//23 7//7 18//18
f 23//23 18//18 55//55
f 55//55 18//18 17//17
f 55//55 17//17 56//56
# 108 faces, 0 coords texture

# End of File
