####
#
# OBJ File Generated by Meshlab
#
####
# Object capitate_lvs.obj
#
# Vertices: 90
# Faces: 176
#
####
vn -4.083219 -2.246706 0.119351
v -0.013803 -0.026908 0.003993
vn -3.103657 1.447299 3.504162
v -0.011822 -0.023896 0.008425
vn -5.790642 1.413994 1.595055
v -0.013661 -0.025863 0.004057
vn -4.949066 -1.327364 -1.015724
v -0.013905 -0.026050 0.002741
vn -3.414906 -2.910585 1.341676
v -0.012682 -0.027714 0.006819
vn -0.448463 -5.610734 0.313992
v -0.010398 -0.028567 0.006015
vn -1.394592 -5.265769 -1.887318
v -0.011745 -0.027669 0.002485
vn -2.090135 -4.268396 -2.900044
v -0.011697 -0.026265 -0.000328
vn -5.049893 3.203992 1.628964
v -0.012024 -0.022477 0.003478
vn -1.298740 -1.137300 2.735608
v -0.011910 -0.027010 0.009027
vn -3.141084 2.260204 3.042618
v -0.010435 -0.020082 0.007488
vn 1.071412 0.354751 5.815161
v -0.009268 -0.022702 0.008323
vn -4.548848 1.917669 -0.190539
v -0.013424 -0.022140 0.000880
vn -5.185687 -0.843130 -2.828414
v -0.012616 -0.024168 -0.000911
vn 1.505219 -3.321364 3.294922
v -0.009081 -0.027998 0.007584
vn -0.193985 -5.987842 -1.740563
v -0.005247 -0.027214 0.002928
vn 1.842600 -4.217615 2.216944
v -0.004244 -0.027459 0.004371
vn -2.946038 -4.295410 -2.860827
v -0.003405 -0.024908 -0.003243
vn -2.764043 -1.593320 -3.161490
v -0.011494 -0.024014 -0.003175
vn -2.429098 -2.742584 -4.886791
v -0.003557 -0.022498 -0.005508
vn -3.894143 3.341839 -0.792816
v -0.011637 -0.019667 -0.000295
vn -2.988889 2.504675 3.040594
v -0.007323 -0.014970 0.006505
vn -5.741187 1.145227 -0.971103
v -0.006878 -0.014404 0.004275
vn -4.609292 3.963874 0.269781
v -0.008640 -0.017907 0.001675
vn -0.621154 1.685693 5.927522
v -0.004688 -0.014503 0.006745
vn 2.939065 -1.897915 5.192465
v -0.001620 -0.024554 0.003862
vn 1.111856 -0.611239 5.981113
v -0.002948 -0.016417 0.006924
vn -4.665702 2.625359 -3.080475
v -0.011125 -0.021380 -0.002219
vn 0.215829 -4.353339 1.832125
v -0.002214 -0.027800 0.002398
vn -0.596727 -2.910723 -2.765322
v 0.000716 -0.029113 -0.006303
vn -0.774858 -4.192908 -1.157524
v 0.000702 -0.029953 -0.004556
vn -2.644891 0.724266 -3.486351
v -0.010003 -0.021571 -0.004733
vn -1.654296 -1.768815 -5.658867
v -0.002754 -0.020649 -0.006465
vn -2.454556 0.481339 -3.968237
v -0.005615 -0.019156 -0.006846
vn -1.002930 -1.400983 -4.438811
v 0.000138 -0.027014 -0.007157
vn -5.169729 2.705418 -1.629608
v -0.006393 -0.015370 -0.000483
vn -4.231777 3.462316 -2.959374
v -0.006390 -0.015810 -0.001282
vn -4.469641 2.027117 -1.975285
v -0.003838 -0.016383 -0.004267
vn -4.596246 1.740499 1.220780
v -0.007103 -0.013523 0.004834
vn -2.834123 3.072889 4.613605
v -0.004837 -0.012741 0.005838
vn -5.623312 -1.682967 -1.705034
v -0.006147 -0.012992 -0.000610
vn -2.341989 3.373834 3.621078
v -0.002895 -0.009789 0.005437
vn 0.073824 -0.334295 6.081717
v 0.000477 -0.013368 0.006868
vn 3.374496 -2.530875 4.357307
v 0.001478 -0.025646 0.001873
vn 2.411196 -2.517605 4.956622
v 0.003186 -0.014688 0.005971
vn 3.356589 -2.262591 4.402444
v 0.003067 -0.016721 0.004963
vn 3.194958 -3.659486 3.081343
v 0.001377 -0.028923 -0.000399
vn -0.214312 -4.671988 1.146889
v 0.000486 -0.029865 -0.001249
vn 3.660462 -4.036534 0.024082
v 0.002655 -0.029199 -0.003518
vn 3.366362 -2.112274 -3.295141
v 0.002639 -0.028099 -0.005935
vn -0.599801 -1.544503 -6.022190
v -0.001701 -0.018797 -0.007322
vn -0.397149 -0.444051 -5.975204
v -0.000225 -0.021341 -0.007428
vn -2.655794 0.548579 -3.061953
v -0.004373 -0.017152 -0.007763
vn 4.904232 -0.081322 -3.553629
v 0.002701 -0.020423 -0.006324
vn 2.748776 -0.888626 -5.506253
v 0.001681 -0.021416 -0.006890
vn -5.153997 -0.892513 -2.549323
v -0.004951 -0.014096 -0.002447
vn -5.314329 -0.524109 -2.807099
v -0.003800 -0.015528 -0.004281
vn -5.722980 0.354086 -0.898357
v -0.003356 -0.014774 -0.005632
vn -4.110385 1.003581 0.584604
v -0.007375 -0.012289 0.003101
vn -3.940429 1.168442 -1.010047
v -0.006894 -0.011255 -0.001543
vn -0.064125 3.831949 4.010707
v 0.002452 -0.008688 0.006459
vn -1.923874 5.258348 1.895175
v -0.000168 -0.007025 0.002638
vn -0.359484 0.670313 5.728107
v 0.002393 -0.010394 0.007203
vn 2.060285 1.569493 4.213405
v 0.004049 -0.009966 0.007045
vn 3.054073 -1.091382 3.822043
v 0.005027 -0.012240 0.006566
vn 4.843193 -1.560144 3.228279
v 0.004406 -0.019733 0.002237
vn 4.801690 -2.978732 2.570175
v 0.004847 -0.014447 0.004353
vn 5.826249 -1.619727 0.907307
v 0.005129 -0.016008 0.001241
vn 5.208944 -0.143635 -0.023318
v 0.005578 -0.019518 -0.000184
vn 4.896537 -1.464426 -0.224694
v 0.004435 -0.026331 -0.003310
vn 1.187177 -0.075824 -5.377997
v 0.001265 -0.015036 -0.008488
vn 2.916694 -1.077918 -4.572939
v 0.002095 -0.019074 -0.007308
vn -1.961526 2.031963 -5.469541
v -0.001663 -0.013427 -0.007558
vn -3.486238 2.297265 -4.669014
v -0.002683 -0.014074 -0.007181
vn -5.107175 1.090665 -2.755312
v -0.003250 -0.013934 -0.006653
vn -4.041041 0.544578 -2.770164
v -0.005424 -0.012075 -0.004458
vn -3.814533 0.800079 -4.185138
v -0.003336 -0.013121 -0.006533
vn -1.890628 5.220977 -0.575762
v 0.000162 -0.006194 -0.000696
vn -1.654470 3.805088 -3.760771
v -0.001251 -0.009225 -0.005493
vn 2.269479 4.500152 2.084568
v 0.004049 -0.007243 0.003664
vn 1.237396 5.337626 0.622907
v 0.003330 -0.005896 0.000086
vn 5.019812 1.322403 1.584060
v 0.006673 -0.010579 0.003715
vn 5.673504 -1.421968 1.234956
v 0.006642 -0.011715 0.003326
vn 4.972555 0.199413 -1.609095
v 0.006810 -0.011927 -0.003525
vn 4.339680 -1.439610 -2.411449
v 0.005528 -0.014984 -0.005418
vn 0.403620 1.576943 -5.256546
v 0.000932 -0.013540 -0.008327
vn 3.304785 1.802832 -4.679304
v 0.004651 -0.011557 -0.005686
vn -2.931148 1.968714 -5.114311
v -0.002479 -0.013306 -0.007087
vn 0.824508 4.448889 -2.810972
v 0.004036 -0.006438 -0.002998
vn 3.103283 3.217565 -1.668128
v 0.005030 -0.006711 -0.002757
# 90 vertices, 0 vertices normals

f 1//1 2//2 3//3
f 1//1 3//3 4//4
f 5//5 2//2 1//1
f 6//6 1//1 7//7
f 1//1 6//6 5//5
f 1//1 8//8 7//7
f 1//1 4//4 8//8
f 2//2 9//9 3//3
f 2//2 5//5 10//10
f 9//9 2//2 11//11
f 12//12 2//2 10//10
f 11//11 2//2 12//12
f 13//13 3//3 9//9
f 3//3 13//13 4//4
f 4//4 13//13 14//14
f 14//14 8//8 4//4
f 6//6 10//10 5//5
f 10//10 6//6 15//15
f 16//16 6//6 7//7
f 6//6 16//16 17//17
f 17//17 15//15 6//6
f 8//8 16//16 7//7
f 18//18 16//16 8//8
f 14//14 19//19 8//8
f 19//19 20//20 8//8
f 8//8 20//20 18//18
f 13//13 9//9 21//21
f 22//22 9//9 11//11
f 23//23 9//9 22//22
f 9//9 23//23 24//24
f 21//21 9//9 24//24
f 12//12 10//10 15//15
f 22//22 11//11 12//12
f 25//25 22//22 12//12
f 12//12 15//15 26//26
f 27//27 25//25 12//12
f 26//26 27//27 12//12
f 13//13 21//21 28//28
f 14//14 13//13 28//28
f 19//19 14//14 28//28
f 17//17 26//26 15//15
f 29//29 17//17 16//16
f 16//16 18//18 29//29
f 17//17 29//29 26//26
f 18//18 20//20 30//30
f 18//18 30//30 31//31
f 18//18 31//31 29//29
f 19//19 28//28 32//32
f 19//19 32//32 20//20
f 33//33 20//20 34//34
f 32//32 34//34 20//20
f 35//35 20//20 33//33
f 20//20 35//35 30//30
f 21//21 24//24 36//36
f 21//21 36//36 37//37
f 38//38 28//28 21//21
f 38//38 21//21 37//37
f 22//22 39//39 23//23
f 40//40 39//39 22//22
f 25//25 40//40 22//22
f 23//23 36//36 24//24
f 36//36 23//23 41//41
f 41//41 23//23 39//39
f 40//40 25//25 42//42
f 43//43 42//42 25//25
f 25//25 27//27 43//43
f 26//26 44//44 27//27
f 26//26 29//29 44//44
f 43//43 27//27 45//45
f 27//27 46//46 45//45
f 44//44 46//46 27//27
f 32//32 28//28 38//38
f 47//47 44//44 29//29
f 48//48 47//47 29//29
f 29//29 31//31 48//48
f 30//30 49//49 31//31
f 30//30 50//50 49//49
f 50//50 30//30 35//35
f 31//31 49//49 48//48
f 38//38 34//34 32//32
f 34//34 51//51 33//33
f 52//52 33//33 51//51
f 33//33 52//52 35//35
f 34//34 38//38 53//53
f 53//53 51//51 34//34
f 50//50 35//35 54//54
f 35//35 55//55 54//54
f 35//35 52//52 55//55
f 56//56 36//36 41//41
f 37//37 36//36 56//56
f 38//38 37//37 57//57
f 57//57 37//37 56//56
f 53//53 38//38 58//58
f 57//57 58//58 38//38
f 59//59 41//41 39//39
f 39//39 40//40 59//59
f 40//40 42//42 59//59
f 59//59 60//60 41//41
f 60//60 56//56 41//41
f 61//61 62//62 42//42
f 42//42 62//62 59//59
f 42//42 63//63 61//61
f 63//63 42//42 43//43
f 43//43 64//64 63//63
f 43//43 65//65 64//64
f 45//45 65//65 43//43
f 44//44 47//47 66//66
f 44//44 66//66 46//46
f 46//46 67//67 45//45
f 65//65 45//45 67//67
f 46//46 66//66 68//68
f 67//67 46//46 68//68
f 66//66 47//47 69//69
f 69//69 47//47 70//70
f 47//47 49//49 70//70
f 48//48 49//49 47//47
f 50//50 70//70 49//49
f 54//54 70//70 50//50
f 71//71 51//51 53//53
f 72//72 51//51 71//71
f 52//52 51//51 72//72
f 52//52 72//72 55//55
f 73//73 53//53 74//74
f 75//75 53//53 58//58
f 75//75 74//74 53//53
f 73//73 71//71 53//53
f 54//54 68//68 69//69
f 68//68 54//54 72//72
f 54//54 69//69 70//70
f 55//55 72//72 54//54
f 56//56 60//60 76//76
f 56//56 76//76 57//57
f 57//57 77//77 58//58
f 57//57 76//76 77//77
f 77//77 75//75 58//58
f 59//59 62//62 78//78
f 59//59 78//78 60//60
f 60//60 78//78 79//79
f 76//76 60//60 79//79
f 61//61 80//80 62//62
f 80//80 61//61 64//64
f 64//64 61//61 63//63
f 81//81 78//78 62//62
f 80//80 81//81 62//62
f 82//82 64//64 65//65
f 64//64 82//82 80//80
f 83//83 65//65 67//67
f 82//82 65//65 83//83
f 69//69 68//68 66//66
f 67//67 68//68 83//83
f 68//68 84//84 83//83
f 85//85 68//68 72//72
f 68//68 85//85 84//84
f 71//71 73//73 86//86
f 86//86 87//87 71//71
f 87//87 85//85 71//71
f 71//71 85//85 72//72
f 88//88 73//73 74//74
f 79//79 86//86 73//73
f 79//79 73//73 88//88
f 75//75 88//88 74//74
f 77//77 88//88 75//75
f 76//76 79//79 77//77
f 77//77 79//79 88//88
f 89//89 78//78 81//81
f 89//89 79//79 78//78
f 86//86 79//79 89//89
f 90//90 81//81 80//80
f 80//80 82//82 90//90
f 81//81 90//90 89//89
f 82//82 84//84 90//90
f 84//84 82//82 83//83
f 90//90 84//84 87//87
f 87//87 84//84 85//85
f 90//90 87//87 86//86
f 86//86 89//89 90//90
# 176 faces, 0 coords texture

# End of File
