####
#
# OBJ File Generated by Meshlab
#
####
# Object capitate_rvs.obj
#
# Vertices: 90
# Faces: 176
#
####
vn -5.790642 1.413994 -1.595055
v -0.013661 -0.025863 -0.004057
vn -3.103657 1.447299 -3.504162
v -0.011822 -0.023896 -0.008425
vn -4.083219 -2.246705 -0.119351
v -0.013803 -0.026908 -0.003993
vn -4.949066 -1.327364 1.015724
v -0.013905 -0.026050 -0.002741
vn -5.049893 3.203992 -1.628965
v -0.012024 -0.022477 -0.003478
vn -4.548848 1.917669 0.190539
v -0.013424 -0.022140 -0.000880
vn -1.298740 -1.137300 -2.735608
v -0.011910 -0.027010 -0.009027
vn -3.414906 -2.910585 -1.341676
v -0.012682 -0.027714 -0.006819
vn -3.141084 2.260204 -3.042618
v -0.010435 -0.020082 -0.007488
vn 1.071412 0.354751 -5.815161
v -0.009268 -0.022702 -0.008323
vn -1.394592 -5.265769 1.887319
v -0.011745 -0.027669 -0.002485
vn -0.448463 -5.610734 -0.313992
v -0.010398 -0.028567 -0.006015
vn -2.090135 -4.268396 2.900044
v -0.011697 -0.026265 0.000328
vn -5.185688 -0.843130 2.828414
v -0.012616 -0.024168 0.000911
vn -3.894143 3.341839 0.792816
v -0.011637 -0.019667 0.000295
vn -2.988889 2.504675 -3.040594
v -0.007323 -0.014970 -0.006505
vn -5.741187 1.145227 0.971103
v -0.006878 -0.014404 -0.004275
vn -4.609292 3.963874 -0.269781
v -0.008640 -0.017907 -0.001675
vn -4.665702 2.625359 3.080475
v -0.011125 -0.021380 0.002219
vn 1.505219 -3.321364 -3.294922
v -0.009081 -0.027998 -0.007584
vn -0.621154 1.685693 -5.927522
v -0.004688 -0.014503 -0.006745
vn 2.939065 -1.897915 -5.192465
v -0.001620 -0.024554 -0.003862
vn 1.111857 -0.611239 -5.981113
v -0.002948 -0.016417 -0.006924
vn -0.193985 -5.987842 1.740563
v -0.005247 -0.027214 -0.002928
vn 1.842600 -4.217615 -2.216944
v -0.004244 -0.027459 -0.004371
vn -2.946038 -4.295410 2.860827
v -0.003405 -0.024908 0.003243
vn -2.764043 -1.593320 3.161491
v -0.011494 -0.024014 0.003175
vn -2.429098 -2.742584 4.886791
v -0.003557 -0.022498 0.005508
vn -5.169729 2.705418 1.629608
v -0.006393 -0.015370 0.000483
vn -4.231777 3.462316 2.959374
v -0.006390 -0.015810 0.001282
vn -4.469641 2.027117 1.975285
v -0.003838 -0.016383 0.004267
vn -4.596246 1.740499 -1.220780
v -0.007103 -0.013523 -0.004834
vn -2.834123 3.072889 -4.613605
v -0.004837 -0.012741 -0.005838
vn -5.623312 -1.682967 1.705034
v -0.006147 -0.012992 0.000610
vn -2.644891 0.724266 3.486352
v -0.010003 -0.021571 0.004733
vn -2.341989 3.373834 -3.621078
v -0.002895 -0.009789 -0.005437
vn 0.073824 -0.334295 -6.081717
v 0.000477 -0.013368 -0.006868
vn 0.215829 -4.353338 -1.832125
v -0.002214 -0.027800 -0.002398
vn 3.374496 -2.530875 -4.357307
v 0.001478 -0.025646 -0.001873
vn 2.411196 -2.517604 -4.956622
v 0.003186 -0.014688 -0.005971
vn 3.356589 -2.262591 -4.402444
v 0.003067 -0.016721 -0.004963
vn -0.596727 -2.910723 2.765322
v 0.000716 -0.029113 0.006303
vn -0.774858 -4.192908 1.157525
v 0.000702 -0.029953 0.004556
vn -2.454556 0.481339 3.968236
v -0.005615 -0.019156 0.006846
vn -1.654296 -1.768815 5.658867
v -0.002754 -0.020649 0.006465
vn -1.002930 -1.400983 4.438812
v 0.000138 -0.027014 0.007157
vn -5.153998 -0.892513 2.549323
v -0.004951 -0.014096 0.002447
vn -5.314329 -0.524109 2.807099
v -0.003800 -0.015528 0.004281
vn -2.655794 0.548579 3.061954
v -0.004373 -0.017152 0.007763
vn -5.722980 0.354086 0.898357
v -0.003356 -0.014774 0.005632
vn -4.110385 1.003581 -0.584604
v -0.007375 -0.012289 -0.003101
vn -3.940429 1.168442 1.010047
v -0.006894 -0.011255 0.001543
vn -1.923874 5.258348 -1.895175
v -0.000168 -0.007025 -0.002638
vn -0.064125 3.831949 -4.010707
v 0.002452 -0.008688 -0.006459
vn -0.359484 0.670313 -5.728107
v 0.002393 -0.010394 -0.007203
vn 2.060285 1.569493 -4.213405
v 0.004049 -0.009966 -0.007045
vn 3.054073 -1.091381 -3.822043
v 0.005027 -0.012240 -0.006566
vn 3.194958 -3.659486 -3.081343
v 0.001377 -0.028923 0.000399
vn -0.214312 -4.671988 -1.146889
v 0.000486 -0.029865 0.001249
vn 4.843193 -1.560144 -3.228279
v 0.004406 -0.019733 -0.002237
vn 4.801690 -2.978732 -2.570175
v 0.004847 -0.014447 -0.004353
vn 5.826249 -1.619727 -0.907307
v 0.005129 -0.016008 -0.001241
vn 3.660463 -4.036534 -0.024082
v 0.002655 -0.029199 0.003518
vn 3.366362 -2.112274 3.295141
v 0.002639 -0.028099 0.005935
vn -0.599801 -1.544503 6.022190
v -0.001701 -0.018797 0.007322
vn -0.397149 -0.444051 5.975204
v -0.000225 -0.021341 0.007428
vn 4.904232 -0.081322 3.553629
v 0.002701 -0.020423 0.006324
vn 2.748777 -0.888626 5.506253
v 0.001681 -0.021416 0.006890
vn -4.041041 0.544578 2.770164
v -0.005424 -0.012075 0.004458
vn -3.814533 0.800079 4.185138
v -0.003336 -0.013121 0.006533
vn -3.486238 2.297265 4.669014
v -0.002683 -0.014074 0.007181
vn -1.961526 2.031963 5.469541
v -0.001663 -0.013427 0.007558
vn -5.107175 1.090665 2.755312
v -0.003250 -0.013934 0.006653
vn 1.187177 -0.075824 5.377997
v 0.001265 -0.015036 0.008488
vn -1.890628 5.220977 0.575762
v 0.000162 -0.006194 0.000696
vn -1.654469 3.805088 3.760770
v -0.001251 -0.009225 0.005493
vn 2.269479 4.500152 -2.084568
v 0.004049 -0.007243 -0.003664
vn 1.237396 5.337626 -0.622907
v 0.003330 -0.005896 -0.000086
vn 5.019812 1.322403 -1.584060
v 0.006673 -0.010579 -0.003715
vn 5.673504 -1.421968 -1.234956
v 0.006642 -0.011715 -0.003326
vn 5.208944 -0.143635 0.023318
v 0.005578 -0.019518 0.000184
vn 4.896537 -1.464426 0.224694
v 0.004435 -0.026331 0.003310
vn 4.972555 0.199413 1.609095
v 0.006810 -0.011927 0.003525
vn 2.916694 -1.077918 4.572939
v 0.002095 -0.019074 0.007308
vn 4.339680 -1.439610 2.411449
v 0.005528 -0.014984 0.005418
vn -2.931147 1.968714 5.114311
v -0.002479 -0.013306 0.007087
vn 0.403620 1.576944 5.256546
v 0.000932 -0.013540 0.008327
vn 3.304785 1.802832 4.679304
v 0.004651 -0.011557 0.005686
vn 0.824507 4.448889 2.810972
v 0.004036 -0.006438 0.002998
vn 3.103283 3.217565 1.668128
v 0.005030 -0.006711 0.002757
# 90 vertices, 0 vertices normals

f 1//1 2//2 3//3
f 4//4 1//1 3//3
f 1//1 5//5 2//2
f 5//5 1//1 6//6
f 4//4 6//6 1//1
f 7//7 8//8 2//2
f 3//3 2//2 8//8
f 9//9 2//2 5//5
f 7//7 2//2 10//10
f 10//10 2//2 9//9
f 11//11 3//3 12//12
f 8//8 12//12 3//3
f 11//11 13//13 3//3
f 13//13 4//4 3//3
f 14//14 6//6 4//4
f 4//4 13//13 14//14
f 15//15 5//5 6//6
f 9//9 5//5 16//16
f 16//16 5//5 17//17
f 18//18 17//17 5//5
f 18//18 5//5 15//15
f 19//19 15//15 6//6
f 19//19 6//6 14//14
f 8//8 7//7 12//12
f 20//20 12//12 7//7
f 20//20 7//7 10//10
f 10//10 9//9 16//16
f 10//10 16//16 21//21
f 22//22 20//20 10//10
f 10//10 21//21 23//23
f 10//10 23//23 22//22
f 11//11 12//12 24//24
f 11//11 24//24 13//13
f 25//25 24//24 12//12
f 12//12 20//20 25//25
f 13//13 24//24 26//26
f 13//13 27//27 14//14
f 13//13 28//28 27//27
f 26//26 28//28 13//13
f 19//19 14//14 27//27
f 29//29 18//18 15//15
f 30//30 29//29 15//15
f 15//15 19//19 31//31
f 30//30 15//15 31//31
f 17//17 32//32 16//16
f 16//16 32//32 33//33
f 16//16 33//33 21//21
f 18//18 29//29 17//17
f 34//34 17//17 29//29
f 32//32 17//17 34//34
f 35//35 19//19 27//27
f 31//31 19//19 35//35
f 20//20 22//22 25//25
f 36//36 21//21 33//33
f 21//21 36//36 37//37
f 37//37 23//23 21//21
f 22//22 38//38 25//25
f 23//23 39//39 22//22
f 39//39 38//38 22//22
f 40//40 23//23 37//37
f 40//40 41//41 23//23
f 23//23 41//41 39//39
f 24//24 25//25 38//38
f 38//38 26//26 24//24
f 42//42 28//28 26//26
f 43//43 42//42 26//26
f 38//38 43//43 26//26
f 28//28 35//35 27//27
f 44//44 28//28 45//45
f 28//28 44//44 35//35
f 45//45 28//28 46//46
f 42//42 46//46 28//28
f 34//34 29//29 47//47
f 47//47 29//29 30//30
f 48//48 30//30 31//31
f 47//47 30//30 48//48
f 35//35 44//44 31//31
f 49//49 31//31 44//44
f 50//50 31//31 49//49
f 31//31 50//50 48//48
f 32//32 34//34 51//51
f 51//51 33//33 32//32
f 51//51 36//36 33//33
f 34//34 52//52 51//51
f 34//34 47//47 52//52
f 36//36 53//53 54//54
f 51//51 53//53 36//36
f 54//54 55//55 36//36
f 37//37 36//36 55//55
f 55//55 56//56 37//37
f 56//56 57//57 37//37
f 37//37 57//57 40//40
f 38//38 39//39 58//58
f 38//38 58//58 59//59
f 59//59 43//43 38//38
f 60//60 58//58 39//39
f 41//41 60//60 39//39
f 40//40 61//61 41//41
f 61//61 40//40 57//57
f 62//62 60//60 41//41
f 62//62 41//41 61//61
f 43//43 63//63 42//42
f 63//63 64//64 42//42
f 46//46 42//42 64//64
f 59//59 63//63 43//43
f 44//44 65//65 49//49
f 45//45 65//65 44//44
f 65//65 45//45 66//66
f 46//46 66//66 45//45
f 67//67 46//46 64//64
f 67//67 68//68 46//46
f 68//68 66//66 46//46
f 69//69 52//52 47//47
f 48//48 69//69 47//47
f 50//50 70//70 48//48
f 70//70 69//69 48//48
f 71//71 49//49 72//72
f 50//50 49//49 73//73
f 49//49 71//71 73//73
f 49//49 74//74 72//72
f 49//49 65//65 74//74
f 50//50 73//73 70//70
f 75//75 53//53 51//51
f 52//52 75//75 51//51
f 76//76 75//75 52//52
f 76//76 52//52 69//69
f 53//53 77//77 54//54
f 53//53 75//75 78//78
f 53//53 78//78 77//77
f 56//56 54//54 77//77
f 55//55 54//54 56//56
f 57//57 56//56 79//79
f 77//77 79//79 56//56
f 61//61 57//57 80//80
f 80//80 57//57 79//79
f 81//81 58//58 60//60
f 82//82 58//58 81//81
f 82//82 63//63 58//58
f 58//58 63//63 59//59
f 60//60 62//62 81//81
f 80//80 62//62 61//61
f 80//80 83//83 62//62
f 81//81 62//62 67//67
f 84//84 67//67 62//62
f 84//84 62//62 85//85
f 83//83 85//85 62//62
f 63//63 82//82 64//64
f 64//64 82//82 67//67
f 74//74 65//65 84//84
f 84//84 65//65 66//66
f 68//68 84//84 66//66
f 82//82 81//81 67//67
f 67//67 84//84 68//68
f 70//70 76//76 69//69
f 73//73 86//86 70//70
f 86//86 76//76 70//70
f 71//71 72//72 86//86
f 71//71 86//86 73//73
f 87//87 72//72 74//74
f 72//72 87//87 76//76
f 86//86 72//72 76//76
f 74//74 88//88 87//87
f 74//74 85//85 88//88
f 84//84 85//85 74//74
f 78//78 75//75 89//89
f 75//75 76//76 89//89
f 89//89 76//76 87//87
f 77//77 78//78 90//90
f 90//90 79//79 77//77
f 89//89 90//90 78//78
f 90//90 83//83 79//79
f 80//80 79//79 83//83
f 88//88 83//83 90//90
f 85//85 83//83 88//88
f 87//87 88//88 90//90
f 90//90 89//89 87//87
# 176 faces, 0 coords texture

# End of File
