####
#
# OBJ File Generated by Meshlab
#
####
# Object hamate_rvs.obj
#
# Vertices: 76
# Faces: 148
#
####
vn 4.588013 -0.847773 -3.677801
v 0.011837 -0.027606 -0.013920
vn 2.613610 2.572020 0.079068
v 0.011978 -0.024048 -0.013129
vn 4.833320 -0.218282 0.019653
v 0.013153 -0.027423 -0.011730
vn 4.243452 -1.912455 -4.147993
v 0.011282 -0.030205 -0.013014
vn 2.832124 -1.434746 -4.768455
v 0.009949 -0.027268 -0.015843
vn 3.497239 0.908081 -4.267542
v 0.010017 -0.024562 -0.016094
vn 2.329885 4.005411 -1.443107
v 0.009850 -0.023029 -0.015227
vn 1.500101 2.036127 2.542323
v 0.012284 -0.025571 -0.010450
vn -0.964208 2.526369 5.451725
v 0.009619 -0.026446 -0.010750
vn 0.664186 4.555768 3.679510
v 0.007890 -0.023343 -0.012944
vn 3.903550 -2.261047 0.293060
v 0.011997 -0.031455 -0.011629
vn 1.714043 -0.382249 4.299816
v 0.011636 -0.028957 -0.009720
vn 2.394727 -2.893506 -2.204894
v 0.010573 -0.032806 -0.012931
vn 0.629507 -3.854608 -3.739924
v 0.008639 -0.032783 -0.013619
vn 1.427283 1.153665 -5.080891
v 0.007088 -0.024189 -0.017411
vn 1.295782 -3.900194 -4.345428
v 0.003617 -0.027265 -0.017143
vn -1.621733 -3.566778 -3.192981
v 0.006625 -0.032062 -0.014172
vn 0.029552 -3.227907 -5.325678
v 0.006034 -0.029231 -0.015393
vn 1.780330 4.477649 -1.730877
v 0.008497 -0.022631 -0.015673
vn -0.887794 -0.138868 6.147321
v 0.006671 -0.029148 -0.010929
vn 0.900035 2.207926 5.692006
v 0.005891 -0.025423 -0.011701
vn 1.907385 4.537553 3.483701
v 0.006540 -0.022767 -0.013387
vn 0.600801 -2.311324 4.446320
v 0.010124 -0.031797 -0.010261
vn 0.638757 -3.977406 1.559485
v 0.009014 -0.033568 -0.011510
vn -1.037587 -3.325068 1.499559
v 0.008067 -0.033575 -0.011532
vn 2.745363 1.167197 -5.072231
v 0.003943 -0.024186 -0.018107
vn -2.716812 -4.354284 -3.050411
v 0.004384 -0.029845 -0.014579
vn 2.919847 -0.804833 -3.852790
v 0.000902 -0.025326 -0.021120
vn -1.523281 -5.573168 -1.852756
v 0.002511 -0.027977 -0.015623
vn 1.084015 -5.552123 -1.754558
v -0.001078 -0.027651 -0.019175
vn -2.279783 -3.128329 2.439191
v 0.005318 -0.031501 -0.011535
vn 3.145602 5.347269 -0.401114
v 0.004162 -0.021312 -0.014654
vn 2.047793 4.548896 -3.550270
v 0.004303 -0.021891 -0.016289
vn 1.342985 0.037565 6.074640
v 0.004888 -0.028300 -0.010896
vn -2.155438 -1.907886 5.570925
v 0.009042 -0.031902 -0.010798
vn 3.371207 1.868807 4.813107
v 0.003312 -0.023886 -0.011316
vn 3.152924 0.440616 5.351468
v 0.002650 -0.026596 -0.010144
vn 5.338690 2.229292 1.313965
v 0.002453 -0.020300 -0.012426
vn 3.029378 3.723646 -3.983821
v 0.003000 -0.021806 -0.016911
vn -2.104990 -5.726703 -0.169507
v 0.001015 -0.027758 -0.012976
vn 2.505234 2.622389 -4.951936
v -0.001988 -0.023670 -0.022217
vn 1.841646 -0.904295 -4.089975
v -0.001518 -0.025396 -0.022817
vn 2.818117 3.193491 -4.320649
v -0.000881 -0.017294 -0.016903
vn -1.553537 -2.143862 -3.722753
v -0.006514 -0.026669 -0.022935
vn 1.003545 -2.367234 -4.436982
v -0.004078 -0.026030 -0.023303
vn -0.453959 -2.414461 3.311195
v -0.000896 -0.027339 -0.007023
vn -1.951682 -1.972854 1.970564
v -0.011247 -0.027510 -0.010638
vn -1.525194 -3.535866 -1.840250
v -0.008255 -0.028631 -0.020303
vn -2.498570 -3.216828 -0.695878
v -0.009484 -0.028543 -0.018376
vn 0.205591 -3.623315 3.180029
v 0.002104 -0.028192 -0.010042
vn 4.944081 3.070171 -1.757688
v 0.001827 -0.019356 -0.014453
vn 5.590120 0.181836 2.295020
v 0.001863 -0.022641 -0.010025
vn 1.567048 -3.564266 1.630607
v 0.000861 -0.027948 -0.008652
vn 5.461226 0.028493 2.262982
v 0.001858 -0.020304 -0.008115
vn 6.071208 0.308887 1.505824
v 0.001604 -0.017382 -0.008758
vn 5.749390 1.234713 -0.554900
v 0.001713 -0.012777 -0.010930
vn 0.846981 -2.432265 1.862168
v 0.000206 -0.027817 -0.007411
vn -0.764836 1.169891 -4.267311
v -0.005547 -0.023301 -0.023691
vn -0.498507 4.198082 -4.571584
v -0.002283 -0.014538 -0.015063
vn -2.257964 1.980131 -3.122606
v -0.008251 -0.018952 -0.020510
vn 1.239231 2.880763 -2.642760
v 0.000289 -0.011602 -0.013463
vn -5.154857 -0.228732 -2.960089
v -0.009138 -0.026921 -0.019862
vn 1.325953 0.479224 4.352096
v 0.000807 -0.019774 -0.006673
vn -4.131558 0.216614 1.721697
v -0.011885 -0.023717 -0.011429
vn 4.104348 -0.837538 4.307820
v 0.000644 -0.025300 -0.007462
vn -4.361793 -2.323113 -0.586820
v -0.011575 -0.027396 -0.012939
vn 2.464057 0.487194 3.487548
v 0.001312 -0.015350 -0.007531
vn 0.688376 1.840577 0.450844
v 0.000832 -0.009279 -0.009405
vn -5.351864 0.120850 -3.227761
v -0.007795 -0.022396 -0.020671
vn -2.033734 4.995422 -3.121096
v -0.002126 -0.012808 -0.013180
vn -3.432607 2.560426 -1.829344
v -0.010289 -0.015154 -0.014141
vn -6.010479 0.839200 -1.555650
v -0.010650 -0.016771 -0.012496
vn -2.979597 0.898984 1.729206
v -0.011228 -0.015132 -0.009572
vn -1.830210 2.098943 2.572751
v -0.009903 -0.013983 -0.009047
vn -1.208370 3.151144 2.423326
v -0.001704 -0.010813 -0.008542
vn -3.428202 4.060421 -1.316757
v -0.010059 -0.014240 -0.012035
# 76 vertices, 0 vertices normals

f 1//1 2//2 3//3
f 4//4 1//1 3//3
f 1//1 5//5 2//2
f 4//4 5//5 1//1
f 5//5 6//6 2//2
f 2//2 6//6 7//7
f 2//2 8//8 3//3
f 2//2 9//9 8//8
f 2//2 10//10 9//9
f 7//7 10//10 2//2
f 11//11 4//4 3//3
f 12//12 3//3 8//8
f 3//3 12//12 11//11
f 11//11 13//13 4//4
f 5//5 4//4 14//14
f 13//13 14//14 4//4
f 15//15 6//6 5//5
f 15//15 5//5 16//16
f 5//5 14//14 17//17
f 18//18 5//5 17//17
f 16//16 5//5 18//18
f 6//6 15//15 7//7
f 19//19 7//7 15//15
f 7//7 19//19 10//10
f 8//8 9//9 12//12
f 20//20 9//9 21//21
f 20//20 12//12 9//9
f 10//10 21//21 9//9
f 10//10 19//19 22//22
f 22//22 21//21 10//10
f 23//23 11//11 12//12
f 13//13 11//11 24//24
f 23//23 24//24 11//11
f 23//23 12//12 20//20
f 24//24 14//14 13//13
f 25//25 14//14 24//24
f 14//14 25//25 17//17
f 15//15 16//16 26//26
f 19//19 15//15 26//26
f 18//18 27//27 16//16
f 28//28 26//26 16//16
f 16//16 27//27 29//29
f 30//30 28//28 16//16
f 30//30 16//16 29//29
f 31//31 17//17 25//25
f 27//27 17//17 31//31
f 17//17 27//27 18//18
f 32//32 22//22 19//19
f 33//33 32//32 19//19
f 33//33 19//19 26//26
f 34//34 20//20 21//21
f 23//23 20//20 35//35
f 35//35 20//20 25//25
f 34//34 31//31 20//20
f 31//31 25//25 20//20
f 36//36 21//21 22//22
f 21//21 36//36 37//37
f 34//34 21//21 37//37
f 38//38 36//36 22//22
f 22//22 32//32 38//38
f 23//23 35//35 24//24
f 24//24 35//35 25//25
f 33//33 26//26 39//39
f 26//26 28//28 39//39
f 29//29 27//27 40//40
f 27//27 31//31 40//40
f 41//41 28//28 42//42
f 28//28 30//30 42//42
f 43//43 28//28 41//41
f 28//28 43//43 39//39
f 30//30 29//29 40//40
f 44//44 45//45 30//30
f 30//30 46//46 47//47
f 48//48 30//30 49//49
f 30//30 48//48 44//44
f 47//47 49//49 30//30
f 45//45 42//42 30//30
f 46//46 30//30 40//40
f 31//31 34//34 50//50
f 50//50 40//40 31//31
f 51//51 32//32 33//33
f 51//51 38//38 32//32
f 51//51 33//33 39//39
f 37//37 50//50 34//34
f 37//37 36//36 52//52
f 52//52 36//36 38//38
f 52//52 53//53 37//37
f 50//50 37//37 53//53
f 54//54 38//38 55//55
f 52//52 38//38 54//54
f 51//51 56//56 38//38
f 55//55 38//38 56//56
f 51//51 39//39 43//43
f 40//40 53//53 57//57
f 40//40 57//57 46//46
f 40//40 50//50 53//53
f 42//42 45//45 41//41
f 58//58 41//41 45//45
f 41//41 58//58 43//43
f 59//59 43//43 60//60
f 43//43 58//58 60//60
f 43//43 59//59 61//61
f 51//51 43//43 61//61
f 48//48 62//62 44//44
f 62//62 58//58 44//44
f 44//44 58//58 45//45
f 63//63 64//64 46//46
f 57//57 65//65 46//46
f 46//46 65//65 63//63
f 46//46 64//64 47//47
f 64//64 66//66 47//47
f 49//49 47//47 66//66
f 48//48 49//49 62//62
f 49//49 66//66 64//64
f 49//49 64//64 62//62
f 61//61 56//56 51//51
f 54//54 53//53 52//52
f 57//57 53//53 65//65
f 54//54 65//65 53//53
f 54//54 63//63 65//65
f 55//55 63//63 54//54
f 67//67 63//63 55//55
f 56//56 67//67 55//55
f 68//68 67//67 56//56
f 61//61 68//68 56//56
f 69//69 58//58 62//62
f 58//58 69//69 60//60
f 61//61 59//59 70//70
f 59//59 71//71 70//70
f 60//60 71//71 59//59
f 60//60 69//69 64//64
f 60//60 72//72 71//71
f 64//64 72//72 60//60
f 61//61 70//70 68//68
f 69//69 62//62 64//64
f 67//67 64//64 63//63
f 73//73 72//72 64//64
f 74//74 64//64 67//67
f 64//64 74//74 73//73
f 74//74 67//67 75//75
f 67//67 68//68 75//75
f 68//68 70//70 75//75
f 71//71 75//75 70//70
f 76//76 75//75 71//71
f 71//71 72//72 76//76
f 73//73 76//76 72//72
f 74//74 76//76 73//73
f 75//75 76//76 74//74
# 148 faces, 0 coords texture

# End of File
