####
#
# OBJ File Generated by Meshlab
#
####
# Object l_talus.obj
#
# Vertices: 99
# Faces: 194
#
####
vn -5.553329 1.955833 1.961489
v -0.015336 -0.001709 0.005020
vn -5.417770 0.676580 2.781378
v -0.014889 -0.004263 0.007677
vn -5.714882 0.066774 1.022582
v -0.017534 -0.005773 0.001672
vn -5.543653 2.461614 -0.002622
v -0.016408 -0.000916 -0.001140
vn -4.050670 2.477829 3.748516
v -0.008588 0.000363 0.016332
vn -2.753152 3.808652 1.125337
v -0.009812 0.008402 0.009034
vn -5.172717 -1.921905 2.313276
v -0.015134 -0.009392 0.006469
vn -2.212954 1.171861 4.057051
v -0.008109 -0.002378 0.019176
vn -3.088466 -3.593163 -0.362374
v -0.016145 -0.011160 0.000750
vn -2.905938 -2.520606 -2.198164
v -0.016894 -0.008737 -0.003632
vn -4.040967 -0.164072 -2.450135
v -0.017213 -0.004306 -0.005621
vn -2.926579 4.321790 -1.106300
v -0.011834 0.006489 -0.002472
vn -1.390676 1.774647 4.834972
v -0.001819 0.005958 0.018558
vn -0.579399 1.095896 6.090725
v -0.001849 0.000709 0.018580
vn -1.926278 4.841234 2.028615
v -0.002403 0.009072 0.015098
vn -0.759616 6.211918 -0.434937
v -0.004040 0.008542 0.005741
vn -1.533436 -2.002274 2.948917
v -0.008156 -0.010315 0.019210
vn -0.632717 -4.133170 0.740112
v -0.009509 -0.013840 0.011591
vn 0.894257 -4.893089 -2.555326
v -0.011753 -0.011069 -0.001350
vn -1.622461 -3.543254 -4.787214
v -0.012790 -0.004464 -0.007535
vn -3.267409 1.311079 -3.135235
v -0.013200 0.000903 -0.010083
vn -2.724431 5.276911 -1.329324
v -0.006053 0.006568 -0.005703
vn -1.718931 4.362876 2.681751
v 0.004224 0.010541 0.016663
vn -0.639019 1.321633 6.009021
v 0.004404 0.008107 0.017781
vn 0.158116 -1.722199 3.618122
v -0.001458 -0.007908 0.021141
vn 1.490205 -0.354523 5.609037
v 0.004365 0.001357 0.017810
vn 2.786627 0.286090 3.635100
v 0.004701 -0.003949 0.019925
vn -1.600373 5.947053 -0.260487
v 0.002786 0.009264 0.008480
vn -1.873855 5.841224 0.899418
v 0.001097 0.009358 -0.001186
vn 2.703392 -5.634699 -0.055781
v -0.002952 -0.009810 0.012653
vn 2.829834 -5.325447 -1.496852
v -0.003984 -0.009892 0.006743
vn 1.713465 -5.308980 -1.599002
v -0.005343 -0.006355 -0.001153
vn -1.067815 -4.810943 -3.282394
v -0.006902 -0.002759 -0.010219
vn -0.965022 -1.867656 -4.280665
v -0.007451 -0.000894 -0.013429
vn -2.449377 2.886048 -4.130971
v -0.007312 0.002795 -0.012766
vn -3.856974 0.775304 -4.619812
v -0.001113 0.006381 -0.013734
vn -3.606027 2.850376 -1.984374
v -0.000964 0.011758 -0.013080
vn -2.520874 5.173005 1.012209
v -0.000284 0.012208 -0.009203
vn 0.288988 3.110380 1.987989
v 0.010816 0.013197 0.017977
vn -0.098567 0.918860 5.571599
v 0.011067 0.008327 0.019597
vn 0.220820 5.383622 -0.856808
v 0.009372 0.012608 0.009729
vn -1.239181 -3.052115 4.319952
v 0.010820 0.001011 0.018459
vn 2.633218 -3.366193 1.860324
v 0.004377 -0.007954 0.018219
vn -0.809810 -3.815577 3.291958
v 0.009790 -0.000758 0.012617
vn -0.511418 -5.331293 2.512622
v 0.008875 -0.006587 0.007593
vn -0.492170 6.151135 0.483731
v 0.007844 0.010954 0.001054
vn -0.008658 5.945220 1.099089
v 0.006297 0.013113 -0.007881
vn 0.909453 -5.915375 -0.862347
v 0.002490 -0.006676 0.007377
vn -0.290941 -4.967242 0.104870
v 0.001319 -0.004636 0.000596
vn -2.483179 -5.244641 1.839876
v 0.000020 -0.008159 -0.006716
vn -4.722888 -3.530298 -0.594167
v -0.001083 -0.009117 -0.012991
vn -4.421877 -0.331227 -3.824971
v -0.001320 -0.007122 -0.014416
vn -2.097154 0.022237 -4.860168
v -0.000879 -0.001614 -0.012100
vn -1.016032 0.896201 -5.550447
v 0.004587 -0.002166 -0.017112
vn -1.268606 -0.396675 -5.139015
v 0.004393 0.005266 -0.018499
vn -0.624682 2.376153 -2.257388
v 0.004559 0.013894 -0.017860
vn 2.670908 4.545043 1.996342
v 0.016815 0.009905 0.016115
vn 1.677580 1.983463 4.728573
v 0.017353 0.006290 0.019331
vn -0.727923 -1.392236 4.795789
v 0.017451 -0.000895 0.020162
vn -1.072489 -5.912651 0.697390
v 0.008122 -0.008226 0.003352
vn -2.299458 -4.314548 3.787353
v 0.016136 -0.007106 0.012861
vn 1.973718 5.879772 0.298684
v 0.013560 0.010656 -0.002543
vn 2.555588 5.429240 -0.160507
v 0.011494 0.012555 -0.014434
vn 0.574965 -5.473912 1.990860
v 0.006425 -0.009819 -0.006307
vn 0.064249 -2.875803 -0.162362
v 0.004808 -0.016224 -0.015331
vn -0.393893 -1.757355 -2.524516
v 0.004027 -0.013425 -0.019898
vn -0.581048 0.504730 -4.149383
v 0.003969 -0.008552 -0.020410
vn 2.006206 0.210432 -5.374227
v 0.011431 -0.002194 -0.014249
vn 2.359674 -1.451475 -5.577819
v 0.011223 0.000865 -0.015554
vn 2.376519 -0.165296 -5.457927
v 0.010979 0.007109 -0.017182
vn 2.148855 3.022601 -2.687013
v 0.011171 0.012550 -0.016281
vn 3.580701 3.842780 3.178092
v 0.022744 0.006111 0.013885
vn 2.217141 5.850564 -0.216508
v 0.020859 0.007388 0.003044
vn 2.942068 5.369545 0.811211
v 0.022406 0.007167 0.011911
vn 3.354854 0.516828 4.541827
v 0.023483 -0.002124 0.018414
vn 1.531819 -2.194068 2.683041
v 0.023415 -0.006313 0.018186
vn -1.540321 -4.248641 1.689707
v 0.015590 -0.010241 0.009858
vn -0.368468 -5.843942 -0.673794
v 0.014124 -0.007268 0.001350
vn 1.438189 -4.236416 1.382774
v 0.022780 -0.008386 0.014624
vn 2.155529 -5.233621 1.480284
v 0.022242 -0.008646 0.011547
vn 3.552935 4.971025 -1.047350
v 0.018882 0.007665 -0.008285
vn 4.006346 2.106222 -3.328771
v 0.018275 0.006965 -0.011730
vn 1.733176 -5.372899 0.375665
v 0.012082 -0.006681 -0.010352
vn 3.070259 -1.406152 -3.458604
v 0.011014 -0.007763 -0.016441
vn 2.424757 1.734961 -5.440868
v 0.011147 -0.005011 -0.015775
vn 1.948654 0.157035 -5.393387
v 0.017952 -0.004539 -0.013159
vn 1.681997 2.085295 -5.237060
v 0.018189 -0.002472 -0.011876
vn 3.740837 -0.110514 -5.022638
v 0.018252 0.003153 -0.011715
vn 3.828500 1.635024 1.290879
v 0.028566 0.003878 0.010972
vn 3.634078 3.434842 -1.192427
v 0.026307 0.005710 -0.002026
vn 4.692048 -3.629937 -0.164443
v 0.027208 -0.004271 0.003496
vn 1.732923 -4.273064 0.615131
v 0.021713 -0.010781 0.008600
vn 1.324463 -5.343421 -1.482912
v 0.020847 -0.009610 0.003608
vn 4.158148 2.868997 -3.655761
v 0.025728 0.002451 -0.005214
vn 2.296694 -5.596297 -0.356474
v 0.018541 -0.006527 -0.009704
vn 1.717870 -3.719302 -1.345268
v 0.018140 -0.007222 -0.011979
vn 1.570312 0.451060 -2.123933
v 0.024665 -0.001069 -0.011172
vn 5.061681 -1.633040 -0.338057
v 0.028607 -0.002347 0.002356
vn 4.289114 -1.185062 -1.690648
v 0.027173 -0.000936 -0.005899
# 99 vertices, 0 vertices normals

f 3//3 2//2 1//1
f 3//3 1//1 4//4
f 1//1 2//2 5//5
f 1//1 5//5 6//6
f 4//4 1//1 6//6
f 3//3 7//7 2//2
f 2//2 8//8 5//5
f 2//2 7//7 8//8
f 3//3 9//9 7//7
f 3//3 10//10 9//9
f 3//3 11//11 10//10
f 3//3 4//4 11//11
f 11//11 4//4 12//12
f 4//4 6//6 12//12
f 6//6 5//5 13//13
f 5//5 14//14 13//13
f 5//5 8//8 14//14
f 6//6 13//13 15//15
f 12//12 6//6 16//16
f 6//6 15//15 16//16
f 7//7 17//17 8//8
f 7//7 18//18 17//17
f 7//7 9//9 18//18
f 8//8 17//17 14//14
f 9//9 19//19 18//18
f 9//9 10//10 19//19
f 10//10 20//20 19//19
f 10//10 11//11 20//20
f 11//11 21//21 20//20
f 11//11 12//12 21//21
f 21//21 12//12 22//22
f 12//12 16//16 22//22
f 15//15 13//13 23//23
f 13//13 24//24 23//23
f 13//13 14//14 24//24
f 17//17 25//25 14//14
f 14//14 26//26 24//24
f 14//14 27//27 26//26
f 14//14 25//25 27//27
f 16//16 15//15 28//28
f 15//15 23//23 28//28
f 22//22 16//16 29//29
f 16//16 28//28 29//29
f 17//17 18//18 25//25
f 18//18 30//30 25//25
f 18//18 31//31 30//30
f 18//18 19//19 31//31
f 19//19 32//32 31//31
f 19//19 33//33 32//32
f 19//19 20//20 33//33
f 20//20 34//34 33//33
f 20//20 21//21 34//34
f 21//21 35//35 34//34
f 21//21 22//22 35//35
f 35//35 22//22 36//36
f 22//22 37//37 36//36
f 22//22 38//38 37//37
f 22//22 29//29 38//38
f 23//23 40//40 39//39
f 23//23 24//24 40//40
f 28//28 23//23 41//41
f 23//23 39//39 41//41
f 24//24 42//42 40//40
f 24//24 26//26 42//42
f 25//25 43//43 27//27
f 25//25 30//30 43//43
f 26//26 44//44 42//42
f 26//26 45//45 44//44
f 26//26 27//27 45//45
f 27//27 43//43 45//45
f 29//29 28//28 46//46
f 28//28 41//41 46//46
f 38//38 29//29 47//47
f 29//29 46//46 47//47
f 30//30 48//48 43//43
f 30//30 31//31 48//48
f 31//31 49//49 48//48
f 31//31 32//32 49//49
f 32//32 50//50 49//49
f 32//32 33//33 50//50
f 33//33 51//51 50//50
f 33//33 52//52 51//51
f 33//33 53//53 52//52
f 33//33 34//34 53//53
f 34//34 36//36 53//53
f 34//34 35//35 36//36
f 53//53 36//36 54//54
f 36//36 55//55 54//54
f 36//36 37//37 55//55
f 37//37 56//56 55//55
f 37//37 38//38 56//56
f 38//38 47//47 56//56
f 39//39 40//40 57//57
f 41//41 39//39 57//57
f 40//40 58//58 57//57
f 40//40 42//42 58//58
f 46//46 41//41 57//57
f 42//42 59//59 58//58
f 42//42 44//44 59//59
f 43//43 48//48 45//45
f 44//44 45//45 59//59
f 48//48 60//60 45//45
f 45//45 61//61 59//59
f 45//45 60//60 61//61
f 47//47 46//46 62//62
f 46//46 57//57 62//62
f 56//56 47//47 63//63
f 47//47 62//62 63//63
f 48//48 49//49 60//60
f 49//49 64//64 60//60
f 49//49 50//50 64//64
f 50//50 65//65 64//64
f 50//50 51//51 65//65
f 51//51 66//66 65//65
f 51//51 52//52 66//66
f 52//52 67//67 66//66
f 52//52 53//53 67//67
f 53//53 54//54 67//67
f 67//67 54//54 68//68
f 54//54 69//69 68//68
f 54//54 55//55 69//69
f 55//55 70//70 69//69
f 55//55 56//56 70//70
f 56//56 71//71 70//70
f 56//56 63//63 71//71
f 57//57 58//58 72//72
f 62//62 57//57 73//73
f 57//57 74//74 73//73
f 57//57 72//72 74//74
f 58//58 75//75 72//72
f 58//58 59//59 75//75
f 59//59 76//76 75//75
f 59//59 61//61 76//76
f 60//60 77//77 61//61
f 60//60 78//78 77//77
f 60//60 64//64 78//78
f 61//61 79//79 76//76
f 61//61 80//80 79//79
f 61//61 77//77 80//80
f 63//63 62//62 81//81
f 62//62 73//73 81//81
f 71//71 63//63 82//82
f 63//63 81//81 82//82
f 64//64 83//83 78//78
f 64//64 65//65 83//83
f 65//65 84//84 83//83
f 65//65 66//66 84//84
f 66//66 85//85 84//84
f 66//66 67//67 85//85
f 67//67 68//68 85//85
f 85//85 68//68 86//86
f 68//68 87//87 86//86
f 68//68 69//69 87//87
f 69//69 88//88 87//87
f 69//69 70//70 88//88
f 70//70 82//82 88//88
f 70//70 71//71 82//82
f 72//72 75//75 89//89
f 74//74 72//72 89//89
f 81//81 73//73 90//90
f 73//73 74//74 90//90
f 74//74 89//89 90//90
f 75//75 76//76 89//89
f 76//76 91//91 89//89
f 76//76 79//79 91//91
f 77//77 92//92 80//80
f 77//77 93//93 92//92
f 77//77 78//78 93//93
f 78//78 83//83 93//93
f 79//79 80//80 91//91
f 80//80 92//92 91//91
f 82//82 81//81 94//94
f 81//81 90//90 94//94
f 88//88 82//82 94//94
f 83//83 95//95 93//93
f 83//83 96//96 95//95
f 83//83 84//84 96//96
f 84//84 85//85 96//96
f 85//85 86//86 96//96
f 96//96 86//86 97//97
f 86//86 87//87 97//97
f 87//87 94//94 97//97
f 87//87 88//88 94//94
f 89//89 91//91 98//98
f 90//90 89//89 99//99
f 89//89 98//98 99//99
f 94//94 90//90 99//99
f 92//92 93//93 91//91
f 93//93 97//97 91//91
f 91//91 97//97 98//98
f 93//93 95//95 97//97
f 97//97 94//94 99//99
f 95//95 96//96 97//97
f 97//97 99//99 98//98
# 194 faces, 0 coords texture

# End of File
