####
#
# OBJ File Generated by Meshlab
#
####
# Object l_tibia_SOMEINVERTEDFACES.obj
#
# Vertices: 186
# Faces: 390
#
####
vn 3.726111 -1.994612 -2.018153
v 0.010922 -0.363436 -0.002219
vn -2.224524 -3.521812 -3.091449
v -0.012580 -0.378615 -0.010840
vn -0.031617 -1.163635 0.097669
v 0.013028 -0.361501 0.010207
vn -5.365815 1.508562 1.270910
v 0.014869 -0.374283 0.005666
vn 5.510657 0.053515 -2.232228
v 0.010621 -0.347760 -0.003305
vn -0.989745 2.179195 -1.300231
v 0.010069 -0.377819 -0.003167
vn 0.443394 -1.726225 -2.942989
v -0.000308 -0.360418 0.016358
vn -0.920291 -5.380766 1.051015
v -0.006346 -0.379841 -0.013175
vn 4.096115 0.661516 -4.495780
v 0.003682 -0.361470 -0.012434
vn -4.129166 0.838640 -3.006866
v -0.009659 -0.360930 -0.009915
vn -2.678187 0.855697 -1.910372
v -0.023961 -0.371674 -0.006636
vn -2.262974 -0.769242 0.020063
v -0.025528 -0.382030 -0.001151
vn 0.491291 -5.655244 -1.409153
v -0.011550 -0.380779 -0.003173
vn -0.855991 0.114071 -3.452253
v -0.005035 -0.374491 -0.022569
vn -1.567301 1.290730 -4.345606
v -0.005737 -0.361650 -0.017028
vn -1.038131 -1.718742 -1.459798
v -0.000653 -0.383591 -0.019223
vn -1.117016 -5.762003 0.607315
v -0.002628 -0.381091 0.001317
vn -4.588863 -1.161709 -2.361183
v 0.013407 -0.372391 0.016609
vn 4.518360 0.938098 2.956920
v 0.010583 -0.347739 0.007277
vn -4.193616 2.637640 2.672583
v 0.010415 -0.383661 0.014051
vn -1.752720 6.423971 1.683222
v 0.006594 -0.382844 0.007332
vn 5.380839 -0.251934 -0.113203
v 0.012552 -0.311245 -0.003082
vn 2.940838 0.333037 -5.237777
v 0.002598 -0.348052 -0.012083
vn 2.329772 0.489943 -2.670262
v 0.004080 -0.377988 -0.017879
vn -3.133359 -0.048148 0.736782
v 0.005021 -0.384506 -0.003179
vn -1.842850 -2.997329 -4.965905
v 0.004017 -0.371453 0.022386
vn 2.138704 -1.756377 -3.950471
v -0.007979 -0.358241 0.014363
vn 1.612293 -0.027751 -0.278563
v 0.000122 -0.346804 0.011943
vn -3.462308 1.062097 -0.490468
v -0.013929 -0.359259 -0.001802
vn -5.670474 0.819091 -2.443294
v -0.009217 -0.346808 -0.006274
vn -2.390631 0.688498 -4.893684
v -0.004934 -0.347149 -0.013062
vn -2.087506 1.002872 0.655377
v -0.025944 -0.375295 -0.002650
vn -2.270679 -2.084945 1.238567
v -0.022728 -0.383380 0.003792
vn -1.747766 -2.625081 1.697473
v -0.019548 -0.382377 0.010302
vn 0.622413 -6.188505 -0.057588
v -0.010412 -0.382237 0.005919
vn 0.372350 -0.626228 0.523975
v 0.000813 -0.380338 0.011055
vn -3.490360 -0.032636 -2.104883
v 0.013275 -0.381353 0.023056
vn 4.313692 0.429214 4.326124
v 0.009738 -0.310616 0.001585
vn -1.736080 2.445454 1.585845
v 0.009499 -0.391664 0.015893
vn 4.542723 -0.000000 4.293751
v 0.012186 -0.272811 -0.003367
vn 2.506336 -0.504886 -4.952329
v 0.006367 -0.309975 -0.012646
vn 4.325091 -0.424106 -0.725378
v 0.016911 -0.273492 -0.009697
vn -1.217601 -0.867671 -5.722170
v 0.004218 -0.380620 0.026306
vn 1.603855 -2.343680 -4.365199
v -0.006341 -0.368215 0.022416
vn -2.856994 1.161190 1.929995
v -0.015627 -0.370062 0.012609
vn -0.695252 0.501128 0.068313
v -0.012851 -0.358486 0.005685
vn 3.167746 -1.194749 -4.244996
v -0.007396 -0.346820 0.011405
vn 1.794201 -0.077750 -0.033322
v 0.002155 -0.309802 0.006051
vn -4.158514 2.351936 2.143490
v -0.020772 -0.370421 0.005289
vn -0.983889 0.167549 -1.435904
v -0.010907 -0.346302 0.001281
vn -3.207514 0.226804 -3.858253
v -0.004671 -0.310279 -0.012319
vn -6.169037 0.533800 -0.480020
v -0.006749 -0.310454 -0.003541
vn -3.251026 -2.351852 1.861903
v -0.014418 -0.381415 0.016293
vn 0.040111 -0.792740 0.248292
v -0.003142 -0.389712 0.018480
vn -3.426495 2.509948 -2.649531
v 0.010066 -0.388819 0.023227
vn 2.451496 0.140494 5.572177
v 0.005470 -0.271875 0.002145
vn 0.666237 2.992751 0.962842
v 0.002113 -0.393971 0.018331
vn 3.307924 -0.142425 5.228826
v 0.009280 -0.235310 0.000377
vn 5.224041 -0.232425 2.997728
v 0.016557 -0.235724 -0.006425
vn 0.898580 -0.342789 -5.630757
v 0.009621 -0.273405 -0.014661
vn 3.406118 -0.169600 -2.472931
v 0.018371 -0.236235 -0.014541
vn -1.851199 2.461286 -3.708720
v 0.006510 -0.389673 0.025499
vn -1.270609 -0.854362 -1.143609
v -0.004577 -0.378822 0.026643
vn -2.026326 -0.148872 -2.958503
v -0.005797 -0.309708 0.005621
vn 3.145791 -0.101635 2.085708
v -0.002709 -0.272642 0.003260
vn -3.856128 0.234055 -4.249321
v -0.002314 -0.277144 -0.011128
vn 0.049420 -0.058075 -1.735797
v -0.004813 -0.274020 -0.005348
vn -3.039834 -2.077536 1.816360
v -0.010369 -0.386008 0.022478
vn -1.029532 0.092905 -1.762414
v 0.001086 -0.389067 0.027378
vn -1.452497 0.164857 4.608497
v 0.001871 -0.234927 0.003415
vn -1.611879 -0.121709 5.202658
v 0.003288 -0.201111 0.003004
vn 3.044139 -0.285552 5.194255
v 0.011879 -0.200371 0.001014
vn 5.169926 -0.289989 3.341381
v 0.018174 -0.201650 -0.005657
vn -0.476765 -0.087252 -6.143944
v 0.009639 -0.237066 -0.015518
vn 3.517140 -0.205308 -1.772220
v 0.021522 -0.202025 -0.013578
vn -0.016015 0.017170 -6.166765
v 0.012236 -0.201693 -0.015474
vn 0.075756 0.095595 2.581861
v -0.002233 -0.234240 -0.003499
vn 1.494698 -0.059723 -2.207458
v 0.002032 -0.235506 -0.013490
vn -5.511958 0.031200 1.812370
v -0.001645 -0.201309 -0.002500
vn 0.954367 -0.141576 5.458095
v 0.008501 -0.162860 0.004565
vn -3.200971 -0.166623 5.284390
v 0.001244 -0.163112 0.001983
vn 4.219595 -0.079416 4.622813
v 0.013828 -0.163501 0.000436
vn 5.243089 -0.140944 3.185925
v 0.018499 -0.163802 -0.004554
vn -2.349446 0.181784 -5.697561
v 0.003049 -0.201444 -0.013638
vn 3.016137 -0.020550 -2.257144
v 0.021684 -0.164268 -0.014614
vn -1.605843 0.183400 -5.826118
v 0.009763 -0.162391 -0.014612
vn -4.153726 0.159352 -2.726844
v -0.000905 -0.201942 -0.011156
vn -5.143479 -0.123725 2.031479
v -0.002206 -0.161544 -0.000953
vn 3.247300 -0.018481 5.253043
v 0.010220 -0.127426 0.003470
vn -0.958918 -0.191839 5.294527
v 0.004528 -0.128390 0.005645
vn -5.229561 -0.521405 1.269887
v -0.004529 -0.126103 -0.002711
vn 4.411513 -0.084111 4.469818
v 0.015920 -0.127031 -0.001800
vn 5.452302 -0.083104 2.045503
v 0.022417 -0.127245 -0.008705
vn -4.848913 0.042070 -3.052645
v -0.001329 -0.162442 -0.007579
vn 3.409829 -0.097993 -3.146552
v 0.022344 -0.126254 -0.013492
vn -0.899928 -0.462299 -6.102018
v 0.009423 -0.125652 -0.014215
vn -4.132933 -0.631548 -3.854653
v -0.002257 -0.126255 -0.009909
vn 2.980756 -0.436558 5.345550
v 0.009279 -0.086546 0.005402
vn -1.581426 -1.021658 5.262101
v -0.001220 -0.087399 0.007904
vn -5.399705 -0.923277 1.764560
v -0.007620 -0.087060 0.001351
vn -5.843049 -0.431816 -1.910450
v -0.006384 -0.087861 -0.009350
vn 5.115757 -0.620557 2.904290
v 0.021123 -0.086484 -0.005013
vn 3.658098 -0.705250 -3.153115
v 0.021862 -0.087027 -0.015523
vn 0.151766 -0.770362 -6.197057
v 0.006991 -0.087075 -0.017777
vn -3.155448 -0.767330 -4.523090
v -0.002449 -0.087303 -0.016794
vn -0.614725 -1.056413 5.226627
v -0.001443 -0.072884 0.011429
vn 3.334127 -1.088829 5.203427
v 0.010728 -0.060527 0.006860
vn 3.617922 -0.785601 4.923505
v 0.015472 -0.072087 0.000469
vn -4.867652 -3.250167 1.044063
v -0.012993 -0.059754 0.005494
vn -6.040706 -1.056224 -1.346684
v -0.008379 -0.072367 -0.006316
vn 5.323279 -0.368937 0.663018
v 0.027614 -0.066578 -0.008546
vn 4.122973 -0.737377 4.185540
v 0.023990 -0.069170 -0.003045
vn 0.844882 -1.367457 -5.964622
v 0.013465 -0.076048 -0.018190
vn 1.281033 -1.410779 -5.814673
v 0.016271 -0.068571 -0.020322
vn 4.190848 -0.649387 -4.040908
v 0.023884 -0.068999 -0.016651
vn -2.161662 -2.432523 -5.157454
v -0.004197 -0.058263 -0.021763
vn 0.076629 -2.366201 -5.756547
v 0.010486 -0.055770 -0.023892
vn -4.881877 -2.283215 -2.851787
v -0.008932 -0.058651 -0.017528
vn 0.153329 -2.191818 4.420044
v -0.002444 -0.062354 0.013969
vn 3.750606 -1.653172 4.942699
v 0.008601 -0.050922 0.010497
vn 4.350957 -0.425233 4.225814
v 0.020707 -0.058850 0.000576
vn -4.374114 -4.036504 -1.231276
v -0.017281 -0.046399 -0.012085
vn -5.360377 -2.182203 -0.164763
v -0.025220 -0.039599 -0.012092
vn -4.842858 -3.582752 0.179137
v -0.024312 -0.047352 0.006660
vn -4.631014 -3.526278 1.832032
v -0.022501 -0.047520 0.013659
vn -2.239118 -2.628593 2.976587
v -0.015444 -0.049644 0.022141
vn 4.928610 -0.378429 -3.341657
v 0.024991 -0.059978 -0.016785
vn 5.001612 1.290977 -0.037744
v 0.027320 -0.055113 -0.010888
vn 3.380280 -0.901923 -3.985143
v 0.020106 -0.052754 -0.024507
vn -3.920982 -4.545810 -1.328801
v -0.015335 -0.047665 -0.020146
vn -1.322878 -4.017617 -4.192461
v -0.011751 -0.045080 -0.030203
vn 1.938411 -0.477088 -4.569517
v 0.009818 -0.036497 -0.035847
vn 1.238852 -1.408374 3.684166
v -0.005567 -0.048463 0.024633
vn 5.033843 -0.450623 3.039678
v 0.018731 -0.041654 0.006256
vn 2.882782 6.663632 0.802254
v -0.005969 -0.020983 -0.007567
vn 1.571948 7.105724 0.435229
v 0.003491 -0.022903 -0.013355
vn 5.972147 1.101852 1.019152
v 0.021708 -0.045672 -0.003313
vn -4.820106 2.120387 0.318893
v -0.026132 -0.029804 -0.013680
vn -4.452474 2.502383 0.433081
v -0.024591 -0.026755 -0.009538
vn -4.577906 2.037970 -0.143329
v -0.027334 -0.031321 -0.020901
vn -3.512411 -2.639327 -1.184470
v -0.025935 -0.042262 -0.025309
vn -5.504519 2.590549 1.253098
v -0.022256 -0.028325 -0.003211
vn -4.561450 -0.437907 -0.656515
v -0.029693 -0.039725 0.001130
vn -2.995361 1.937505 0.286057
v -0.029898 -0.031001 0.015542
vn -2.084655 1.073595 2.399935
v -0.024302 -0.032661 0.027351
vn -2.647528 1.017583 1.329947
v -0.029304 -0.032299 0.021214
vn 0.234482 1.656163 2.445065
v -0.004724 -0.027221 0.030642
vn -0.855071 1.322751 2.951037
v -0.017391 -0.031483 0.030560
vn 5.802097 1.509729 -1.696824
v 0.021936 -0.050659 -0.018686
vn 4.915927 1.789042 -2.033885
v 0.017861 -0.031780 -0.025507
vn -0.558617 -1.608010 -3.933666
v -0.015780 -0.036723 -0.036975
vn 0.648684 0.947443 -4.962496
v -0.000725 -0.028391 -0.038227
vn 3.208200 3.638586 -2.199683
v 0.012097 -0.024951 -0.028332
vn 4.204699 -0.373129 3.857437
v 0.011616 -0.033646 0.018150
vn 3.622166 3.015784 0.904445
v 0.017004 -0.023963 0.005333
vn 0.778405 5.925790 -0.935875
v -0.000781 -0.022569 -0.000859
vn -0.117723 6.182339 -0.289772
v -0.003705 -0.023207 -0.020273
vn 0.253829 5.301754 -0.634839
v -0.011229 -0.017999 -0.006176
vn 1.629259 5.421969 -1.129684
v -0.006783 -0.021303 0.000190
vn 1.378366 5.909911 -0.022262
v 0.010805 -0.021791 0.004012
vn 2.483151 5.665941 -0.788503
v 0.014997 -0.025327 -0.009315
vn 1.228612 6.117756 0.345242
v 0.008001 -0.023806 -0.020111
vn -2.316803 5.697648 -0.889167
v -0.015875 -0.025531 -0.021316
vn -3.604893 4.510978 -0.476699
v -0.019581 -0.021936 -0.007251
vn -4.056910 2.385360 -1.330911
v -0.025701 -0.030119 -0.027613
vn -3.161102 -1.009803 -2.827271
v -0.021813 -0.035128 -0.033512
vn -3.043077 4.669616 2.335003
v -0.016965 -0.026964 0.009694
vn -4.097434 3.393955 1.608288
v -0.018365 -0.021573 0.002464
vn -2.697601 4.328928 -2.915966
v -0.026769 -0.032244 0.007493
vn -1.819127 5.799263 -0.335826
v -0.024404 -0.029841 0.011716
vn -1.117696 5.934186 1.526996
v -0.017870 -0.029831 0.015996
vn -1.605426 5.424479 1.858159
v -0.007328 -0.028057 0.016846
vn 1.155363 3.515079 2.468186
v 0.001064 -0.025650 0.025397
vn 4.674613 4.113747 -0.733376
v 0.015654 -0.026898 -0.016169
vn -1.066624 3.997922 -2.616640
v -0.007720 -0.022541 -0.034432
vn -1.798485 2.539690 -2.104506
v -0.019921 -0.027247 -0.034638
vn 0.476201 4.570489 -1.779747
v -0.000771 -0.020941 -0.032431
vn 1.759108 5.542093 0.262510
v 0.007350 -0.022269 -0.025866
vn 1.644778 3.533972 2.466405
v 0.007234 -0.023226 0.019105
vn 1.813954 5.848825 0.996617
v 0.010728 -0.023133 0.009250
vn 0.311346 5.154040 0.482190
v -0.004017 -0.018622 0.005979
vn -1.064934 4.749744 1.460141
v -0.012712 -0.018280 0.004089
vn 1.118792 6.032726 -1.126161
v 0.002919 -0.021066 0.005078
vn -1.120512 5.961422 -0.905513
v -0.010658 -0.024319 -0.021210
vn 0.166008 5.429883 0.172238
v -0.011984 -0.017938 -0.001904
vn 0.421280 5.670675 1.532753
v 0.005050 -0.021305 0.012326
# 186 vertices, 0 vertices normals

f 3//3 2//2 1//1
f 4//4 3//3 1//1
f 3//3 1//1 5//5
f 4//4 1//1 6//6
f 1//1 7//7 6//6
f 6//6 7//7 1//1
f 1//1 6//6 8//8
f 6//6 9//9 1//1
f 1//1 9//9 5//5
f 2//2 11//11 10//10
f 13//13 12//12 2//2
f 12//12 11//11 2//2
f 15//15 14//14 2//2
f 14//14 16//16 2//2
f 8//8 2//2 16//16
f 2//2 8//8 17//17
f 13//13 2//2 17//17
f 2//2 10//10 15//15
f 4//4 18//18 3//3
f 3//3 18//18 7//7
f 7//7 3//3 19//19
f 19//19 3//3 5//5
f 4//4 21//21 20//20
f 4//4 20//20 18//18
f 4//4 6//6 21//21
f 4//4 17//17 21//21
f 19//19 5//5 22//22
f 5//5 9//9 23//23
f 5//5 23//23 22//22
f 16//16 24//24 6//6
f 21//21 6//6 25//25
f 6//6 24//24 9//9
f 25//25 6//6 24//24
f 18//18 26//26 7//7
f 7//7 26//26 27//27
f 28//28 7//7 27//27
f 28//28 7//7 19//19
f 17//17 8//8 16//16
f 24//24 15//15 9//9
f 9//9 15//15 23//23
f 29//29 10//10 11//11
f 10//10 29//29 11//11
f 10//10 29//29 30//30
f 31//31 15//15 10//10
f 31//31 10//10 30//30
f 29//29 11//11 32//32
f 12//12 32//32 11//11
f 12//12 11//11 32//32
f 13//13 33//33 12//12
f 13//13 12//12 33//33
f 32//32 12//12 34//34
f 33//33 34//34 12//12
f 13//13 35//35 33//33
f 35//35 13//13 17//17
f 24//24 14//14 15//15
f 14//14 24//24 16//16
f 23//23 15//15 31//31
f 16//16 25//25 17//17
f 24//24 16//16 25//25
f 36//36 35//35 17//17
f 25//25 36//36 17//17
f 18//18 20//20 37//37
f 18//18 37//37 26//26
f 28//28 19//19 38//38
f 38//38 19//19 22//22
f 21//21 36//36 20//20
f 39//39 37//37 20//20
f 20//20 36//36 39//39
f 36//36 21//21 25//25
f 40//40 38//38 22//22
f 22//22 23//23 41//41
f 40//40 22//22 42//42
f 42//42 22//22 41//41
f 23//23 31//31 41//41
f 37//37 43//43 26//26
f 26//26 43//43 44//44
f 26//26 44//44 27//27
f 45//45 27//27 44//44
f 27//27 45//45 46//46
f 46//46 45//45 27//27
f 28//28 27//27 47//47
f 47//47 27//27 46//46
f 48//48 28//28 47//47
f 48//48 28//28 38//38
f 29//29 32//32 49//49
f 49//49 46//46 29//29
f 46//46 49//49 29//29
f 30//30 29//29 50//50
f 29//29 46//46 50//50
f 31//31 30//30 51//51
f 51//51 30//30 52//52
f 30//30 50//50 52//52
f 41//41 31//31 51//51
f 34//34 49//49 32//32
f 32//32 49//49 34//34
f 35//35 34//34 33//33
f 34//34 35//35 53//53
f 49//49 34//34 45//45
f 34//34 53//53 45//45
f 35//35 36//36 53//53
f 54//54 53//53 36//36
f 54//54 39//39 36//36
f 39//39 55//55 37//37
f 37//37 55//55 43//43
f 56//56 48//48 38//38
f 56//56 38//38 40//40
f 39//39 54//54 57//57
f 57//57 55//55 39//39
f 58//58 56//56 40//40
f 58//58 40//40 59//59
f 59//59 40//40 42//42
f 42//42 41//41 60//60
f 60//60 41//41 51//51
f 59//59 42//42 61//61
f 61//61 42//42 60//60
f 55//55 62//62 43//43
f 43//43 62//62 63//63
f 43//43 63//63 44//44
f 44//44 63//63 45//45
f 49//49 45//45 46//46
f 49//49 45//45 46//46
f 53//53 63//63 45//45
f 47//47 46//46 50//50
f 64//64 47//47 50//50
f 48//48 47//47 64//64
f 48//48 64//64 65//65
f 65//65 48//48 56//56
f 52//52 50//50 64//64
f 60//60 51//51 66//66
f 66//66 51//51 52//52
f 66//66 52//52 67//67
f 67//67 52//52 64//64
f 68//68 53//53 54//54
f 53//53 68//68 63//63
f 57//57 54//54 69//69
f 54//54 69//69 68//68
f 57//57 62//62 55//55
f 70//70 65//65 56//56
f 70//70 56//56 58//58
f 57//57 69//69 62//62
f 71//71 70//70 58//58
f 71//71 58//58 72//72
f 72//72 58//58 59//59
f 72//72 59//59 73//73
f 73//73 59//59 61//61
f 61//61 60//60 74//74
f 74//74 60//60 66//66
f 73//73 61//61 75//75
f 75//75 61//61 76//76
f 76//76 61//61 74//74
f 62//62 69//69 63//63
f 69//69 63//63 68//68
f 65//65 64//64 67//67
f 65//65 67//67 77//77
f 77//77 65//65 70//70
f 74//74 66//66 78//78
f 78//78 66//66 67//67
f 77//77 67//67 78//78
f 79//79 77//77 70//70
f 79//79 70//70 71//71
f 80//80 71//71 72//72
f 81//81 79//79 71//71
f 81//81 71//71 80//80
f 80//80 72//72 82//82
f 82//82 72//72 73//73
f 82//82 73//73 83//83
f 83//83 73//73 75//75
f 76//76 74//74 84//84
f 84//84 74//74 78//78
f 83//83 75//75 85//85
f 85//85 75//75 76//76
f 85//85 76//76 86//86
f 86//86 76//76 84//84
f 77//77 78//78 87//87
f 87//87 77//77 79//79
f 84//84 78//78 87//87
f 88//88 87//87 79//79
f 88//88 79//79 81//81
f 89//89 80//80 82//82
f 90//90 81//81 80//80
f 90//90 80//80 89//89
f 91//91 88//88 81//81
f 91//91 81//81 90//90
f 89//89 82//82 92//92
f 92//92 82//82 83//83
f 92//92 83//83 93//93
f 93//93 83//83 85//85
f 94//94 84//84 87//87
f 86//86 84//84 94//94
f 93//93 85//85 95//95
f 95//95 85//85 86//86
f 95//95 86//86 96//96
f 96//96 86//86 94//94
f 94//94 87//87 88//88
f 97//97 94//94 88//88
f 97//97 88//88 91//91
f 98//98 89//89 92//92
f 99//99 90//90 89//89
f 99//99 89//89 98//98
f 100//100 91//91 90//90
f 100//100 90//90 99//99
f 101//101 97//97 91//91
f 101//101 91//91 100//100
f 98//98 92//92 102//102
f 102//102 92//92 93//93
f 102//102 93//93 103//103
f 103//103 93//93 95//95
f 96//96 94//94 97//97
f 103//103 95//95 104//104
f 104//104 95//95 96//96
f 105//105 96//96 97//97
f 104//104 96//96 105//105
f 105//105 97//97 101//101
f 99//99 98//98 106//106
f 98//98 107//107 106//106
f 107//107 98//98 108//108
f 98//98 102//102 108//108
f 100//100 99//99 109//109
f 109//109 99//99 106//106
f 100//100 109//109 110//110
f 101//101 100//100 110//110
f 105//105 101//101 110//110
f 103//103 111//111 102//102
f 102//102 111//111 112//112
f 102//102 112//112 108//108
f 113//113 103//103 104//104
f 113//113 114//114 103//103
f 103//103 115//115 111//111
f 115//115 103//103 114//114
f 104//104 105//105 116//116
f 117//117 104//104 116//116
f 113//113 104//104 117//117
f 116//116 105//105 118//118
f 118//118 105//105 110//110
f 119//119 109//109 106//106
f 107//107 119//119 106//106
f 107//107 121//121 120//120
f 119//119 107//107 120//120
f 121//121 107//107 108//108
f 112//112 121//121 108//108
f 118//118 109//109 122//122
f 109//109 123//123 122//122
f 109//109 124//124 123//123
f 109//109 125//125 124//124
f 109//109 126//126 125//125
f 109//109 119//119 126//126
f 109//109 118//118 110//110
f 127//127 111//111 115//115
f 111//111 127//127 128//128
f 112//112 111//111 121//121
f 111//111 128//128 121//121
f 113//113 117//117 114//114
f 127//127 114//114 129//129
f 114//114 117//117 129//129
f 127//127 115//115 114//114
f 116//116 118//118 130//130
f 116//116 130//130 131//131
f 117//117 116//116 131//131
f 132//132 117//117 131//131
f 129//129 117//117 132//132
f 130//130 118//118 122//122
f 119//119 133//133 126//126
f 126//126 133//133 119//119
f 133//133 119//119 120//120
f 121//121 134//134 120//120
f 120//120 136//136 135//135
f 134//134 133//133 120//120
f 121//121 137//137 134//134
f 121//121 128//128 137//137
f 130//130 122//122 123//123
f 123//123 139//139 138//138
f 123//123 138//138 140//140
f 123//123 140//140 141//141
f 142//142 139//139 123//123
f 142//142 123//123 143//143
f 123//123 124//124 143//143
f 130//130 123//123 141//141
f 124//124 144//144 143//143
f 124//124 125//125 144//144
f 126//126 145//145 125//125
f 145//145 146//146 125//125
f 125//125 146//146 144//144
f 126//126 133//133 147//147
f 126//126 147//147 148//148
f 126//126 148//148 145//145
f 149//149 128//128 127//127
f 149//149 127//127 129//129
f 149//149 137//137 128//128
f 150//150 129//129 132//132
f 149//149 129//129 150//150
f 131//131 130//130 141//141
f 152//152 131//131 151//151
f 131//131 141//141 151//151
f 152//152 151//151 131//131
f 132//132 131//131 152//152
f 152//152 131//131 151//151
f 152//152 153//153 132//132
f 150//150 132//132 153//153
f 154//154 147//147 133//133
f 154//154 133//133 134//134
f 154//154 134//134 155//155
f 137//137 155//155 134//134
f 135//135 136//136 156//156
f 136//136 135//135 156//156
f 136//136 135//135 156//156
f 157//157 135//135 136//136
f 157//157 158//158 135//135
f 159//159 156//156 135//135
f 159//159 135//135 158//158
f 136//136 156//156 160//160
f 136//136 160//160 161//161
f 157//157 136//136 162//162
f 162//162 136//136 161//161
f 137//137 150//150 155//155
f 149//149 150//150 137//137
f 138//138 139//139 163//163
f 140//140 138//138 163//163
f 139//139 164//164 163//163
f 142//142 164//164 139//139
f 141//141 140//140 165//165
f 165//165 140//140 163//163
f 166//166 141//141 165//165
f 166//166 151//151 141//141
f 142//142 143//143 167//167
f 142//142 167//167 168//168
f 142//142 168//168 164//164
f 169//169 167//167 143//143
f 169//169 143//143 144//144
f 169//169 144//144 170//170
f 171//171 170//170 144//144
f 171//171 144//144 146//146
f 171//171 146//146 145//145
f 171//171 145//145 148//148
f 172//172 148//148 147//147
f 172//172 147//147 173//173
f 154//154 173//173 147//147
f 172//172 171//171 148//148
f 150//150 174//174 155//155
f 174//174 150//150 153//153
f 151//151 175//175 152//152
f 166//166 176//176 151//151
f 176//176 175//175 151//151
f 151//151 176//176 166//166
f 152//152 177//177 153//153
f 175//175 177//177 152//152
f 153//153 162//162 161//161
f 178//178 153//153 177//177
f 178//178 162//162 153//153
f 161//161 174//174 153//153
f 154//154 155//155 179//179
f 154//154 179//179 173//173
f 161//161 160//160 155//155
f 180//180 155//155 160//160
f 174//174 161//161 155//155
f 180//180 179//179 155//155
f 182//182 181//181 156//156
f 159//159 182//182 156//156
f 183//183 160//160 156//156
f 183//183 156//156 181//181
f 157//157 184//184 158//158
f 157//157 162//162 178//178
f 157//157 178//178 177//177
f 157//157 177//177 175//175
f 157//157 175//175 184//184
f 158//158 184//184 163//163
f 164//164 158//158 163//163
f 159//159 158//158 185//185
f 185//185 158//158 164//164
f 159//159 185//185 182//182
f 183//183 186//186 160//160
f 180//180 160//160 186//186
f 176//176 165//165 163//163
f 175//175 176//176 163//163
f 184//184 175//175 163//163
f 182//182 185//185 164//164
f 168//168 182//182 164//164
f 164//164 182//182 168//168
f 182//182 164//164 168//168
f 166//166 165//165 176//176
f 182//182 168//168 167//167
f 169//169 170//170 167//167
f 167//167 170//170 171//171
f 172//172 182//182 167//167
f 172//172 167//167 171//171
f 172//172 186//186 181//181
f 172//172 181//181 182//182
f 172//172 173//173 179//179
f 172//172 179//179 186//186
f 180//180 186//186 179//179
f 183//183 181//181 186//186
# 390 faces, 0 coords texture

# End of File
