####
#
# OBJ File Generated by Meshlab
#
####
# Object little_medial_rvs.obj
#
# Vertices: 120
# Faces: 236
#
####
vn -2.554792 -3.956820 2.409163
v 0.031547 -0.132250 -0.045774
vn -4.235880 -4.466955 -0.339514
v 0.030906 -0.131724 -0.046719
vn -0.161357 -5.078579 -0.551041
v 0.033384 -0.133430 -0.046929
vn -3.602049 -3.347462 3.901036
v 0.030091 -0.130211 -0.045145
vn -2.310951 -2.817013 4.660828
v 0.030553 -0.130215 -0.044688
vn -3.953328 -3.928815 2.125891
v 0.029985 -0.130611 -0.045603
vn 1.854042 -0.705735 4.584656
v 0.034343 -0.130799 -0.044425
vn -1.722358 -4.294782 2.750214
v 0.033132 -0.133203 -0.045935
vn -3.088450 -3.886654 -2.540732
v 0.032556 -0.132318 -0.051070
vn -4.350102 -4.464010 -0.625227
v 0.029923 -0.130544 -0.047012
vn 0.425077 -4.330535 2.411891
v 0.033701 -0.133297 -0.045882
vn 0.760278 -5.588329 -0.996014
v 0.033290 -0.133002 -0.048849
vn 5.050930 -2.573158 -0.367682
v 0.034730 -0.132038 -0.048507
vn 4.079412 -2.736893 -0.066306
v 0.035028 -0.132689 -0.046251
vn -3.748842 -4.171576 2.663809
v 0.028352 -0.128582 -0.045321
vn -2.169969 -1.227601 5.255603
v 0.029851 -0.129287 -0.044698
vn -1.491719 0.373378 5.228960
v 0.030905 -0.129261 -0.044227
vn -3.847446 -4.350999 -1.211314
v 0.026151 -0.127343 -0.048065
vn 2.280559 -3.301652 3.042709
v 0.034661 -0.132731 -0.045510
vn 2.435084 -1.919883 3.710967
v 0.034822 -0.131879 -0.044982
vn 1.079636 -0.269614 5.288713
v 0.033341 -0.129915 -0.044109
vn -0.364205 0.040295 4.991263
v 0.032012 -0.129361 -0.044005
vn 4.239782 2.377800 2.409382
v 0.034683 -0.130225 -0.044910
vn 0.393369 -3.685374 -2.326863
v 0.033591 -0.132680 -0.051344
vn -4.263436 -3.817434 -2.320467
v 0.029788 -0.129707 -0.049626
vn -4.172062 -2.201899 -3.348202
v 0.030514 -0.130069 -0.050694
vn -1.335756 -1.783767 -5.173021
v 0.033123 -0.131996 -0.051645
vn 5.603247 2.302095 0.339878
v 0.034600 -0.130472 -0.048188
vn 5.488923 0.188394 0.043504
v 0.035137 -0.130914 -0.049886
vn 2.394815 -2.325148 -2.685344
v 0.034478 -0.132063 -0.051550
vn 5.244573 0.130161 1.296896
v 0.035219 -0.131331 -0.045492
vn 5.723039 1.428536 -0.892002
v 0.034999 -0.130567 -0.046674
vn -3.223224 -4.926495 1.792402
v 0.023801 -0.124851 -0.044249
vn -1.618452 -3.880905 4.393686
v 0.026191 -0.126102 -0.043915
vn -1.584745 -2.847992 4.895266
v 0.028618 -0.128265 -0.044723
vn 0.561864 3.794306 4.346524
v 0.030401 -0.128480 -0.044928
vn 2.367388 1.886102 3.547324
v 0.029354 -0.127576 -0.044609
vn 0.150589 4.282748 2.855509
v 0.031404 -0.128384 -0.044599
vn -2.132116 -1.976624 -4.828074
v 0.026589 -0.126486 -0.049550
vn -3.895764 -4.842312 -0.497800
v 0.022455 -0.124133 -0.047608
vn -3.562131 -4.278598 -2.773556
v 0.021730 -0.123323 -0.048203
vn -1.873675 -2.645761 -4.987904
v 0.020694 -0.121411 -0.049291
vn 2.224253 3.420911 2.910320
v 0.033310 -0.129100 -0.044366
vn 4.616778 3.645071 -0.267594
v 0.034782 -0.130065 -0.046387
vn 3.231982 5.150836 0.127383
v 0.033488 -0.128983 -0.046086
vn 1.450866 0.306455 -5.090320
v 0.034338 -0.130663 -0.051907
vn -3.281845 -1.896974 -4.586815
v 0.029500 -0.128792 -0.050212
vn -3.170896 0.448956 -4.793311
v 0.030364 -0.128927 -0.050812
vn -1.965169 -0.129992 -5.467896
v 0.031157 -0.129392 -0.051284
vn -2.641840 -1.485279 -5.276992
v 0.031311 -0.130396 -0.051128
vn 4.373097 3.778661 0.450159
v 0.034498 -0.129552 -0.049628
vn 3.457924 5.158173 0.117152
v 0.033194 -0.128941 -0.047808
vn 4.550761 -0.004295 -2.700821
v 0.034831 -0.130902 -0.051545
vn 4.610757 2.273214 -2.605702
v 0.034630 -0.130218 -0.051473
vn -0.791336 -3.708627 4.429452
v 0.024440 -0.124325 -0.042895
vn -2.110148 -4.161948 3.411839
v 0.020002 -0.121340 -0.040567
vn 0.747344 -3.044179 4.879103
v 0.020997 -0.120911 -0.040011
vn -3.882518 -4.181043 1.832622
v 0.017999 -0.120751 -0.042263
vn 1.204686 -0.910900 5.861089
v 0.027768 -0.126547 -0.044091
vn 1.505700 5.790778 1.282984
v 0.030528 -0.128046 -0.046048
vn 2.148746 1.963647 -3.663517
v 0.023217 -0.121677 -0.049451
vn 5.125080 3.567399 -0.472886
v 0.023749 -0.121178 -0.044723
vn 2.945362 5.441781 -0.399464
v 0.029924 -0.127448 -0.048745
vn 4.625293 2.997974 2.349705
v 0.025445 -0.123350 -0.043461
vn -0.261092 2.166170 -5.816949
v 0.029290 -0.127964 -0.050020
vn 1.972745 3.123306 -4.274135
v 0.028822 -0.127000 -0.049700
vn -3.873452 -4.437264 -0.829486
v 0.017661 -0.121020 -0.046200
vn -3.757746 -2.791550 -3.600735
v 0.018003 -0.119767 -0.048821
vn -1.722991 -1.407154 -5.311486
v 0.019078 -0.119467 -0.049694
vn 0.480132 0.049206 -6.042514
v 0.022052 -0.120962 -0.049501
vn 0.825085 1.872799 -4.688390
v 0.033776 -0.129639 -0.051820
vn -0.454193 4.101470 -2.845083
v 0.031092 -0.128065 -0.050751
vn 0.954148 4.739191 -3.524661
v 0.029792 -0.127710 -0.049828
vn -1.077417 1.861559 -5.177880
v 0.031725 -0.128808 -0.051394
vn 0.056299 2.275440 -4.781380
v 0.032696 -0.128939 -0.051582
vn 3.637976 3.544743 -2.181754
v 0.034277 -0.129547 -0.051377
vn 1.697456 4.880033 -1.950391
v 0.032701 -0.128462 -0.051039
vn 3.818007 -0.731664 4.735343
v 0.022709 -0.121271 -0.041053
vn 2.715490 -0.236265 5.045112
v 0.025142 -0.123962 -0.042868
vn -3.842985 0.018063 2.301820
v 0.018440 -0.119941 -0.040670
vn -0.874886 -2.275760 5.166591
v 0.020213 -0.119994 -0.039516
vn 2.492179 -0.214246 5.235560
v 0.021345 -0.119317 -0.039583
vn -2.613620 0.601228 0.715254
v 0.016517 -0.119801 -0.044385
vn -3.298285 1.079917 1.517484
v 0.017325 -0.119998 -0.042567
vn 3.660048 2.337137 -3.767143
v 0.022064 -0.120211 -0.049293
vn 3.912867 3.486546 -2.102112
v 0.021276 -0.117629 -0.048342
vn 3.947305 3.828074 1.227991
v 0.021669 -0.117220 -0.041519
vn 5.206796 2.092428 2.041703
v 0.023495 -0.120827 -0.042094
vn -2.741824 1.067413 -0.137193
v 0.016458 -0.119393 -0.046474
vn -3.239508 0.843327 -1.185641
v 0.016657 -0.119386 -0.047116
vn -2.789587 1.410174 -2.580587
v 0.018130 -0.118333 -0.049431
vn -3.561894 1.762141 -1.301119
v 0.017253 -0.119041 -0.048201
vn 0.303795 1.157135 -5.713735
v 0.019740 -0.118771 -0.049771
vn 2.055604 2.867948 -4.595365
v 0.020539 -0.117974 -0.049287
vn 4.164755 1.343369 3.418946
v 0.022097 -0.118948 -0.040147
vn -5.387416 3.156668 0.129184
v 0.020261 -0.117256 -0.041229
vn -2.807246 3.132809 3.345714
v 0.019863 -0.118184 -0.039927
vn -5.357304 1.894190 0.585125
v 0.020279 -0.117730 -0.043343
vn -5.292572 2.389644 1.157416
v 0.019951 -0.118038 -0.044262
vn -1.824333 1.001703 3.721483
v 0.019631 -0.118983 -0.039364
vn -3.127815 5.410806 -0.004736
v 0.018733 -0.119179 -0.044518
vn -4.466232 4.054951 0.574112
v 0.019406 -0.118800 -0.044248
vn 0.483537 0.131408 5.827237
v 0.020476 -0.119261 -0.039364
vn 0.071215 1.990548 5.011582
v 0.020730 -0.118559 -0.039505
vn -2.489085 5.265709 1.054428
v 0.018583 -0.119328 -0.045342
vn -0.940766 3.781533 -1.801088
v 0.019499 -0.116860 -0.048670
vn -1.076230 2.727458 -0.424179
v 0.019665 -0.116296 -0.047604
vn -0.982770 2.236872 0.458594
v 0.020246 -0.116158 -0.043152
vn 2.911709 3.323646 3.819557
v 0.021377 -0.117952 -0.040138
vn -1.181837 3.306885 0.870476
v 0.020539 -0.116478 -0.041844
vn -0.660725 4.654245 1.972176
v 0.020526 -0.116995 -0.040868
vn -2.585473 5.484532 1.314024
v 0.018057 -0.118925 -0.047232
vn -2.265427 2.384640 -1.111448
v 0.018517 -0.117422 -0.049057
vn -4.850724 3.181146 1.530248
v 0.019428 -0.118141 -0.046511
vn -1.682383 2.913032 1.810911
v 0.020226 -0.117217 -0.040365
vn -5.850479 0.185167 2.050874
v 0.020110 -0.117601 -0.043979
vn -4.789103 3.234280 1.240839
v 0.019497 -0.118362 -0.044610
vn -6.050148 0.303430 1.163493
v 0.019880 -0.117122 -0.044489
vn -5.095042 2.394627 0.741665
v 0.019861 -0.118019 -0.044910
vn -4.642145 3.629861 0.694958
v 0.019309 -0.118838 -0.044923
# 120 vertices, 0 vertices normals

f 1//1 2//2 3//3
f 4//4 1//1 5//5
f 1//1 6//6 2//2
f 7//7 1//1 8//8
f 5//5 1//1 7//7
f 3//3 8//8 1//1
f 6//6 1//1 4//4
f 3//3 2//2 9//9
f 9//9 2//2 10//10
f 6//6 10//10 2//2
f 3//3 11//11 8//8
f 12//12 3//3 9//9
f 12//12 13//13 3//3
f 13//13 14//14 3//3
f 14//14 11//11 3//3
f 15//15 4//4 16//16
f 5//5 16//16 4//4
f 6//6 4//4 15//15
f 16//16 5//5 17//17
f 17//17 5//5 7//7
f 18//18 10//10 6//6
f 6//6 15//15 18//18
f 8//8 11//11 7//7
f 11//11 19//19 7//7
f 19//19 20//20 7//7
f 21//21 22//22 7//7
f 22//22 17//17 7//7
f 7//7 23//23 21//21
f 23//23 7//7 20//20
f 9//9 24//24 12//12
f 10//10 25//25 9//9
f 26//26 9//9 25//25
f 27//27 9//9 26//26
f 27//27 24//24 9//9
f 18//18 25//25 10//10
f 14//14 19//19 11//11
f 13//13 12//12 24//24
f 14//14 13//13 28//28
f 13//13 29//29 28//28
f 29//29 13//13 30//30
f 13//13 24//24 30//30
f 31//31 19//19 14//14
f 31//31 14//14 32//32
f 32//32 14//14 28//28
f 33//33 15//15 34//34
f 33//33 18//18 15//15
f 16//16 35//35 15//15
f 35//35 34//34 15//15
f 36//36 37//37 16//16
f 35//35 16//16 37//37
f 17//17 36//36 16//16
f 38//38 17//17 22//22
f 36//36 17//17 38//38
f 25//25 18//18 39//39
f 18//18 33//33 40//40
f 41//41 18//18 40//40
f 39//39 18//18 42//42
f 18//18 41//41 42//42
f 31//31 20//20 19//19
f 31//31 23//23 20//20
f 22//22 21//21 43//43
f 21//21 23//23 43//43
f 22//22 43//43 38//38
f 44//44 45//45 23//23
f 23//23 31//31 44//44
f 43//43 23//23 45//45
f 24//24 46//46 30//30
f 27//27 46//46 24//24
f 39//39 47//47 25//25
f 48//48 26//26 25//25
f 25//25 47//47 48//48
f 49//49 50//50 26//26
f 49//49 26//26 48//48
f 50//50 27//27 26//26
f 50//50 46//46 27//27
f 29//29 51//51 28//28
f 28//28 51//51 52//52
f 44//44 28//28 45//45
f 28//28 52//52 45//45
f 44//44 32//32 28//28
f 53//53 54//54 29//29
f 29//29 54//54 51//51
f 53//53 29//29 30//30
f 53//53 30//30 46//46
f 32//32 44//44 31//31
f 55//55 33//33 34//34
f 56//56 33//33 57//57
f 57//57 33//33 55//55
f 33//33 56//56 58//58
f 40//40 33//33 58//58
f 34//34 35//35 59//59
f 34//34 59//59 55//55
f 37//37 59//59 35//35
f 36//36 60//60 37//37
f 36//36 38//38 60//60
f 37//37 61//61 62//62
f 63//63 61//61 37//37
f 37//37 60//60 63//63
f 37//37 62//62 64//64
f 64//64 59//59 37//37
f 63//63 38//38 43//43
f 63//63 60//60 38//38
f 39//39 65//65 47//47
f 42//42 66//66 39//39
f 39//39 66//66 65//65
f 67//67 41//41 40//40
f 58//58 67//67 40//40
f 68//68 41//41 67//67
f 42//42 41//41 68//68
f 42//42 68//68 69//69
f 42//42 69//69 70//70
f 42//42 70//70 61//61
f 61//61 66//66 42//42
f 43//43 45//45 63//63
f 45//45 52//52 63//63
f 46//46 50//50 71//71
f 71//71 54//54 46//46
f 53//53 46//46 54//54
f 65//65 48//48 47//47
f 72//72 49//49 48//48
f 73//73 72//72 48//48
f 73//73 48//48 65//65
f 49//49 72//72 74//74
f 50//50 49//49 74//74
f 75//75 50//50 74//74
f 71//71 50//50 75//75
f 51//51 54//54 76//76
f 76//76 77//77 51//51
f 77//77 52//52 51//51
f 63//63 52//52 77//77
f 71//71 76//76 54//54
f 57//57 55//55 78//78
f 79//79 78//78 55//55
f 59//59 79//79 55//55
f 80//80 58//58 56//56
f 80//80 56//56 81//81
f 56//56 57//57 81//81
f 81//81 57//57 82//82
f 57//57 78//78 82//82
f 67//67 58//58 83//83
f 58//58 84//84 83//83
f 84//84 58//58 80//80
f 64//64 79//79 59//59
f 85//85 61//61 70//70
f 66//66 61//61 63//63
f 61//61 85//85 62//62
f 62//62 85//85 86//86
f 87//87 62//62 86//86
f 62//62 88//88 64//64
f 87//87 88//88 62//62
f 63//63 77//77 73//73
f 73//73 66//66 63//63
f 78//78 79//79 64//64
f 64//64 88//88 78//78
f 66//66 73//73 65//65
f 67//67 83//83 89//89
f 90//90 68//68 67//67
f 90//90 67//67 89//89
f 91//91 68//68 92//92
f 90//90 92//92 68//68
f 91//91 69//69 68//68
f 69//69 91//91 93//93
f 70//70 69//69 93//93
f 70//70 94//94 85//85
f 70//70 93//93 94//94
f 71//71 75//75 76//76
f 72//72 77//77 74//74
f 72//72 73//73 77//77
f 77//77 75//75 74//74
f 77//77 76//76 75//75
f 95//95 78//78 88//88
f 82//82 78//78 95//95
f 96//96 80//80 97//97
f 80//80 98//98 99//99
f 97//97 80//80 100//100
f 80//80 81//81 100//100
f 101//101 84//84 80//80
f 98//98 80//80 96//96
f 101//101 80//80 102//102
f 99//99 102//102 80//80
f 103//103 100//100 81//81
f 81//81 82//82 103//103
f 103//103 82//82 104//104
f 104//104 82//82 95//95
f 83//83 84//84 89//89
f 84//84 105//105 89//89
f 101//101 105//105 84//84
f 86//86 85//85 94//94
f 106//106 86//86 94//94
f 86//86 106//106 107//107
f 107//107 108//108 86//86
f 86//86 108//108 87//87
f 87//87 109//109 95//95
f 110//110 87//87 108//108
f 95//95 88//88 87//87
f 109//109 87//87 111//111
f 110//110 111//111 87//87
f 89//89 112//112 90//90
f 105//105 112//112 89//89
f 112//112 92//92 90//90
f 93//93 91//91 113//113
f 112//112 91//91 92//92
f 112//112 114//114 91//91
f 114//114 113//113 91//91
f 113//113 94//94 93//93
f 106//106 94//94 113//113
f 104//104 95//95 109//109
f 110//110 98//98 96//96
f 110//110 96//96 111//111
f 115//115 111//111 96//96
f 96//96 97//97 115//115
f 100//100 103//103 97//97
f 103//103 115//115 97//97
f 98//98 116//116 99//99
f 110//110 108//108 98//98
f 116//116 98//98 108//108
f 102//102 99//99 117//117
f 116//116 118//118 99//99
f 119//119 99//99 118//118
f 99//99 119//119 117//117
f 105//105 101//101 102//102
f 102//102 120//120 105//105
f 120//120 102//102 117//117
f 103//103 104//104 115//115
f 104//104 109//109 115//115
f 114//114 112//112 105//105
f 114//114 105//105 120//120
f 107//107 106//106 114//114
f 106//106 113//113 114//114
f 108//108 107//107 118//118
f 107//107 114//114 119//119
f 118//118 107//107 119//119
f 116//116 108//108 118//118
f 111//111 115//115 109//109
f 114//114 120//120 117//117
f 119//119 114//114 117//117
# 236 faces, 0 coords texture

# End of File
