####
#
# OBJ File Generated by Meshlab
#
####
# Object lunate_rvs.obj
#
# Vertices: 68
# Faces: 132
#
####
vn 0.459497 -4.273549 2.187146
v 0.004990 -0.007899 -0.004332
vn 0.556992 -4.694189 1.083384
v 0.004551 -0.009215 -0.007804
vn 4.806677 -2.684126 1.294399
v 0.006942 -0.005752 -0.003262
vn 1.390006 -3.343781 3.269963
v 0.006033 -0.004796 -0.000427
vn -1.934564 -4.836547 3.315298
v 0.002158 -0.005212 -0.003514
vn -2.084315 -4.486179 3.857681
v 0.004042 -0.004393 -0.001085
vn 0.812117 -4.444408 -0.406958
v 0.003113 -0.009773 -0.011046
vn 0.077129 -5.111982 2.381667
v -0.000578 -0.007111 -0.009213
vn 4.556302 -2.523428 -0.607809
v 0.006404 -0.007793 -0.008042
vn 6.018191 -0.211833 0.093569
v 0.007614 -0.002037 -0.003447
vn 4.237209 -3.163705 3.341864
v 0.006342 -0.003671 0.000093
vn 4.047007 -1.281155 2.943752
v 0.006544 -0.002501 0.001122
vn 0.890416 -4.149734 4.186555
v 0.005858 -0.003116 0.000983
vn -1.239692 -4.172702 4.469193
v -0.000299 -0.003177 -0.001685
vn 1.445242 -4.913081 3.429203
v -0.001827 -0.005571 -0.004185
vn 1.358471 -5.580370 2.072893
v -0.001032 -0.006029 -0.005978
vn -0.999543 -3.953508 4.508388
v 0.004787 -0.001913 0.002186
vn 4.206310 -2.391135 -2.581107
v 0.005024 -0.008322 -0.010713
vn 0.790107 -4.648845 -0.536230
v 0.001146 -0.009880 -0.012837
vn 3.506032 -4.939822 1.281943
v -0.006068 -0.008869 -0.005982
vn 0.002156 -4.409540 -1.570816
v -0.003959 -0.010357 -0.013294
vn 0.577987 -5.253505 -0.409218
v -0.001239 -0.009940 -0.013497
vn 4.695712 1.155690 -2.923790
v 0.006156 -0.002218 -0.009622
vn 4.910275 2.164780 0.099547
v 0.007499 0.000208 -0.003468
vn 1.971071 -1.810169 4.550624
v 0.005355 -0.001842 0.002250
vn 4.298493 1.860530 3.275567
v 0.005920 -0.000466 0.001626
vn -2.948443 0.319508 4.226064
v -0.000779 -0.001288 -0.000454
vn -0.335419 0.646506 2.929056
v 0.003712 -0.000111 0.003238
vn 1.262584 -3.723943 4.715096
v -0.002451 -0.004004 -0.002572
vn 3.392044 -4.300015 2.737651
v -0.003713 -0.006798 -0.004233
vn 2.792235 -1.718645 -4.121666
v 0.001071 -0.008110 -0.015063
vn 0.652191 -3.276887 -4.631224
v -0.001184 -0.008367 -0.015727
vn -0.942349 -4.350416 -0.259666
v -0.007919 -0.010191 -0.005715
vn 3.030590 -4.096250 1.790313
v -0.008240 -0.010453 -0.001912
vn -1.789197 -2.383648 -5.014075
v -0.003415 -0.007365 -0.016033
vn -3.685729 -0.165815 -4.004725
v -0.006551 -0.006564 -0.014344
vn -1.125606 -2.701223 -0.525825
v -0.007614 -0.011666 -0.010857
vn 3.641916 3.646113 -2.296815
v 0.005113 0.002271 -0.007105
vn 0.951235 5.035429 -1.816585
v 0.001903 0.003545 -0.008247
vn 1.559688 1.928022 -4.884384
v -0.000797 -0.003036 -0.015591
vn 1.477873 3.632180 -3.095157
v 0.001456 0.001924 -0.011834
vn 0.770613 0.245541 -5.195092
v -0.001790 -0.005907 -0.016647
vn 2.343255 4.312656 2.259353
v 0.005204 0.001387 0.000508
vn 2.477538 5.213399 0.153798
v 0.004310 0.003200 -0.005352
vn -3.575796 4.640758 0.981732
v -0.005242 0.000603 -0.007437
vn -1.402156 1.128082 4.451840
v -0.002935 -0.002121 -0.001354
vn -1.409465 4.795511 1.267675
v 0.000322 0.003815 -0.004819
vn 0.463736 1.325332 3.816142
v -0.006766 -0.005057 -0.000604
vn -0.938250 -3.540263 0.686942
v -0.009550 -0.010868 -0.001413
vn -4.873493 -2.440822 -0.239805
v -0.010717 -0.009418 -0.001235
vn -5.510110 0.621027 -0.878852
v -0.010224 -0.005679 -0.005620
vn -5.080828 -2.712645 1.235468
v -0.008295 -0.008931 -0.009303
vn 2.689257 -3.510847 3.902716
v -0.009415 -0.009672 -0.000114
vn -2.311699 0.823544 -5.057991
v -0.003753 -0.005716 -0.016229
vn -4.870690 -1.859947 -0.548172
v -0.008908 -0.008834 -0.010165
vn -5.066340 1.472576 -2.856896
v -0.008272 -0.005152 -0.011412
vn -3.708228 3.602961 -2.983496
v -0.005538 -0.000838 -0.011710
vn -2.827600 4.854252 -1.469533
v -0.003832 0.001584 -0.009732
vn -1.919533 2.919595 -4.783867
v -0.002896 -0.002622 -0.015122
vn -1.283933 3.971486 -4.033481
v -0.002234 0.000131 -0.013307
vn -3.998203 3.956396 0.936392
v -0.007745 -0.001415 -0.006820
vn -4.519286 3.467416 -1.639196
v -0.007489 -0.001578 -0.009417
vn 1.129830 1.541195 2.364104
v -0.008141 -0.006093 0.000629
vn -4.761633 2.433647 0.719434
v -0.010560 -0.006233 -0.002709
vn -0.545646 -0.036206 1.350813
v -0.010533 -0.007362 0.002683
vn -4.828835 1.220117 0.398030
v -0.011090 -0.007688 -0.000310
vn -5.222752 -0.754776 -0.877765
v -0.009761 -0.006815 -0.008669
vn 0.223912 1.076802 1.208476
v -0.009718 -0.006413 0.002336
# 68 vertices, 0 vertices normals

f 1//1 2//2 3//3
f 1//1 3//3 4//4
f 5//5 1//1 6//6
f 6//6 1//1 4//4
f 2//2 1//1 7//7
f 1//1 8//8 7//7
f 8//8 1//1 5//5
f 9//9 2//2 7//7
f 3//3 2//2 9//9
f 3//3 9//9 10//10
f 3//3 11//11 4//4
f 3//3 12//12 11//11
f 12//12 3//3 10//10
f 6//6 4//4 13//13
f 11//11 13//13 4//4
f 5//5 6//6 14//14
f 15//15 5//5 14//14
f 5//5 15//15 16//16
f 5//5 16//16 8//8
f 14//14 6//6 17//17
f 6//6 13//13 17//17
f 9//9 7//7 18//18
f 19//19 18//18 7//7
f 19//19 7//7 8//8
f 20//20 8//8 16//16
f 21//21 8//8 20//20
f 22//22 19//19 8//8
f 21//21 22//22 8//8
f 9//9 18//18 23//23
f 10//10 9//9 23//23
f 12//12 10//10 24//24
f 23//23 24//24 10//10
f 12//12 13//13 11//11
f 12//12 25//25 13//13
f 26//26 25//25 12//12
f 24//24 26//26 12//12
f 17//17 13//13 25//25
f 27//27 14//14 28//28
f 14//14 17//17 28//28
f 29//29 14//14 27//27
f 29//29 15//15 14//14
f 30//30 15//15 29//29
f 15//15 30//30 20//20
f 20//20 16//16 15//15
f 17//17 25//25 28//28
f 18//18 31//31 23//23
f 19//19 31//31 18//18
f 31//31 19//19 32//32
f 19//19 22//22 32//32
f 33//33 20//20 34//34
f 30//30 34//34 20//20
f 21//21 20//20 33//33
f 21//21 35//35 32//32
f 35//35 21//21 36//36
f 21//21 32//32 22//22
f 36//36 21//21 37//37
f 21//21 33//33 37//37
f 23//23 38//38 24//24
f 23//23 39//39 38//38
f 40//40 41//41 23//23
f 40//40 23//23 42//42
f 23//23 31//31 42//42
f 41//41 39//39 23//23
f 43//43 26//26 24//24
f 38//38 44//44 24//24
f 44//44 43//43 24//24
f 25//25 26//26 28//28
f 43//43 28//28 26//26
f 45//45 27//27 28//28
f 46//46 27//27 45//45
f 27//27 46//46 29//29
f 43//43 47//47 28//28
f 47//47 45//45 28//28
f 48//48 29//29 46//46
f 48//48 30//30 29//29
f 34//34 30//30 48//48
f 32//32 42//42 31//31
f 35//35 42//42 32//32
f 49//49 50//50 33//33
f 33//33 51//51 52//52
f 50//50 51//51 33//33
f 37//37 33//33 52//52
f 49//49 33//33 34//34
f 48//48 53//53 34//34
f 49//49 34//34 53//53
f 35//35 36//36 54//54
f 42//42 35//35 54//54
f 55//55 56//56 36//36
f 36//36 56//56 57//57
f 36//36 57//57 54//54
f 37//37 55//55 36//36
f 55//55 37//37 52//52
f 38//38 39//39 44//44
f 39//39 47//47 44//44
f 58//58 47//47 39//39
f 58//58 39//39 41//41
f 40//40 59//59 41//41
f 59//59 40//40 54//54
f 40//40 42//42 54//54
f 60//60 41//41 59//59
f 41//41 60//60 58//58
f 43//43 44//44 47//47
f 61//61 45//45 62//62
f 58//58 57//57 45//45
f 62//62 45//45 57//57
f 47//47 58//58 45//45
f 61//61 46//46 45//45
f 48//48 46//46 61//61
f 63//63 48//48 64//64
f 61//61 64//64 48//48
f 48//48 63//63 53//53
f 65//65 50//50 49//49
f 65//65 49//49 53//53
f 64//64 51//51 50//50
f 64//64 50//50 66//66
f 66//66 50//50 65//65
f 51//51 62//62 67//67
f 52//52 51//51 67//67
f 51//51 64//64 61//61
f 62//62 51//51 61//61
f 52//52 67//67 55//55
f 63//63 68//68 53//53
f 65//65 53//53 68//68
f 59//59 54//54 57//57
f 56//56 55//55 67//67
f 62//62 57//57 56//56
f 67//67 62//62 56//56
f 60//60 59//59 57//57
f 57//57 58//58 60//60
f 63//63 66//66 68//68
f 66//66 63//63 64//64
f 68//68 66//66 65//65
# 132 faces, 0 coords texture

# End of File
