####
#
# OBJ File Generated by Meshlab
#
####
# Object middle_distal_lvs.obj
#
# Vertices: 142
# Faces: 280
#
####
vn -0.006777 -4.890016 -3.110241
v 0.058993 -0.170264 0.009820
vn -0.999658 -5.863202 -1.702772
v 0.060256 -0.170253 0.010058
vn -0.492917 -6.207179 0.349575
v 0.061452 -0.170771 0.012174
vn -0.672096 -5.830837 0.573517
v 0.057861 -0.170777 0.012484
vn -1.486752 -4.940219 -3.390952
v 0.058681 -0.169426 0.009075
vn -0.657305 -5.385561 -2.645967
v 0.057091 -0.170229 0.010259
vn 0.213040 -5.248515 -1.579297
v 0.061592 -0.170769 0.010243
vn -0.126245 -4.438152 -3.223948
v 0.060613 -0.170055 0.008789
vn 1.057964 -5.645537 -0.188795
v 0.062248 -0.170902 0.011754
vn -1.039044 -5.357240 2.699557
v 0.058004 -0.170592 0.013045
vn 1.327593 -5.735486 1.424927
v 0.062414 -0.170597 0.013366
vn -0.622657 -6.033942 -0.910415
v 0.051142 -0.169351 0.010325
vn -1.408975 -4.941264 3.376241
v 0.056759 -0.170268 0.012984
vn -1.418336 -5.535153 2.378474
v 0.054495 -0.169765 0.012685
vn -1.630244 -4.036286 -3.961061
v 0.057646 -0.168431 0.007843
vn -0.837609 -4.717010 -3.524732
v 0.057148 -0.168632 0.008724
vn -2.769966 -1.666358 -4.137651
v 0.056768 -0.168307 0.008340
vn 1.464454 -1.851170 -4.311463
v 0.053678 -0.168291 0.008108
vn 0.404881 -0.342561 -4.661497
v 0.055754 -0.168515 0.008471
vn 3.539545 -1.182751 -0.198124
v 0.063367 -0.170386 0.011962
vn 3.333766 -0.779506 -1.460962
v 0.062950 -0.170104 0.010159
vn 1.944460 -4.557243 -3.823952
v 0.062078 -0.170120 0.009632
vn 1.135483 -0.158305 -4.226156
v 0.059883 -0.168560 0.007645
vn 2.955361 -0.905031 -3.477457
v 0.061945 -0.169477 0.008803
vn 1.929277 -4.405235 -3.876951
v 0.061803 -0.169829 0.009246
vn -0.242109 0.392373 -4.537076
v 0.057770 -0.167831 0.007434
vn 1.614074 -3.449233 3.171916
v 0.061869 -0.170381 0.014311
vn -0.479615 -5.050792 3.527315
v 0.060831 -0.169963 0.014977
vn -1.461510 -4.528090 3.855372
v 0.059028 -0.169498 0.015193
vn -2.755203 -4.538336 3.242822
v 0.056958 -0.168994 0.014266
vn 2.927407 -0.892967 2.476444
v 0.062661 -0.170272 0.013932
vn 3.503681 -1.321887 1.325913
v 0.063165 -0.170362 0.012969
vn 1.833656 -5.117352 -2.678189
v 0.049910 -0.168094 0.006320
vn -0.267070 -6.245211 -0.095484
v 0.047070 -0.168727 0.008464
vn -0.920648 -5.966452 1.346020
v 0.050987 -0.169244 0.012005
vn -2.405596 -3.913473 3.393257
v 0.056464 -0.168631 0.014218
vn -0.769612 -4.225400 4.465389
v 0.055247 -0.169172 0.013774
vn -0.221025 -3.257872 5.241005
v 0.056033 -0.168990 0.014002
vn -0.278415 -2.336932 4.638772
v 0.052914 -0.168450 0.014276
vn -2.470568 0.621228 -3.733078
v 0.057251 -0.167732 0.007587
vn -0.142517 0.122284 -0.020062
v 0.056824 -0.167770 0.007847
vn -2.719722 4.941501 -2.166214
v 0.056553 -0.167918 0.008900
vn 2.730062 -3.237318 -4.583206
v 0.050504 -0.167408 0.006007
vn 3.782700 0.383762 -4.855855
v 0.051761 -0.167180 0.006767
vn 3.171021 4.259022 -2.542814
v 0.053906 -0.167153 0.008831
vn 0.628073 5.548626 -2.460314
v 0.055898 -0.167904 0.009196
vn 4.310314 3.737779 0.753954
v 0.063064 -0.169825 0.012451
vn 3.273209 -0.850387 -2.549125
v 0.062648 -0.169908 0.009641
vn 3.193240 3.708521 -1.866086
v 0.061568 -0.168652 0.008881
vn 1.808936 3.736353 -4.322513
v 0.059102 -0.167910 0.007735
vn 2.431884 4.834859 -1.838289
v 0.059784 -0.167912 0.008187
vn 1.284856 5.141576 -1.873296
v 0.058114 -0.167352 0.007987
vn -1.357833 3.843374 -1.603003
v 0.057368 -0.167240 0.007925
vn 2.034684 -1.751833 3.787015
v 0.061287 -0.169793 0.015205
vn 3.948656 3.440922 2.073136
v 0.061736 -0.169347 0.014363
vn 3.602648 2.376098 2.951854
v 0.061371 -0.169286 0.015054
vn 0.547041 -1.159537 4.895943
v 0.059878 -0.169063 0.015767
vn -2.635015 -4.843349 2.397711
v 0.056373 -0.168340 0.015052
vn -0.567011 -0.267617 4.737818
v 0.058490 -0.168581 0.015789
vn 3.075547 -3.530023 -3.741709
v 0.049600 -0.167790 0.005569
vn 3.449743 -1.625073 -4.669611
v 0.050015 -0.167211 0.005542
vn 0.806253 -4.913809 -2.627229
v 0.048073 -0.168560 0.005527
vn -0.012255 -5.598372 -0.966274
v 0.047590 -0.168820 0.006305
vn -1.970165 -5.274767 -1.162897
v 0.046138 -0.168728 0.007345
vn -2.077216 -0.479512 -0.304652
v 0.044665 -0.168404 0.009794
vn -0.806411 -4.927355 3.498806
v 0.051017 -0.168606 0.013538
vn -0.234493 -4.907306 3.700284
v 0.048819 -0.168241 0.013680
vn -2.097601 -0.659995 0.710804
v 0.044838 -0.168384 0.012032
vn -3.112611 -2.191707 1.738363
v 0.045753 -0.167978 0.013633
vn -3.357019 0.612809 -1.151239
v 0.055943 -0.168023 0.014571
vn -2.048393 0.810895 4.712530
v 0.055811 -0.168353 0.014211
vn -0.068502 -0.224163 5.541481
v 0.055084 -0.168601 0.014124
vn 0.427307 -2.444973 5.614969
v 0.050412 -0.167374 0.014341
vn 0.944849 3.321523 5.125911
v 0.054712 -0.168195 0.013984
vn 1.515048 1.348433 5.746648
v 0.053153 -0.167726 0.014194
vn -1.405986 6.057367 0.058863
v 0.056941 -0.167673 0.009616
vn 3.275218 2.679705 -3.793479
v 0.049107 -0.164891 0.004956
vn 3.423076 4.972157 -0.865954
v 0.049566 -0.163561 0.008380
vn 2.884120 5.219257 1.678291
v 0.054308 -0.167386 0.012856
vn 1.440744 5.004078 -2.132720
v 0.048661 -0.163684 0.006378
vn 0.554721 6.219815 0.248180
v 0.056174 -0.167574 0.011533
vn 1.734456 3.414151 3.019187
v 0.060006 -0.168551 0.015591
vn 1.197016 6.051968 0.450591
v 0.058477 -0.167697 0.011918
vn -1.752303 -0.222575 0.748317
v 0.055753 -0.168034 0.015189
vn -0.083979 0.674057 3.329069
v 0.057043 -0.168082 0.015605
vn 0.802220 -2.026989 -5.018088
v 0.047917 -0.167276 0.004268
vn 0.847191 1.030903 -4.734570
v 0.048271 -0.165753 0.004117
vn -2.959032 -3.531631 -3.194988
v 0.046996 -0.168133 0.005248
vn -0.402332 -3.484621 -4.179532
v 0.047665 -0.167854 0.004639
vn -3.864281 -1.448190 -1.957178
v 0.046415 -0.168372 0.006363
vn -3.161382 -0.521085 -1.065714
v 0.045068 -0.168441 0.008703
vn -3.702228 -0.168306 -2.020727
v 0.045597 -0.168415 0.007596
vn -4.658486 4.014646 -0.234909
v 0.046812 -0.166777 0.010174
vn -4.477415 4.369079 0.510924
v 0.045087 -0.168103 0.011627
vn -5.225924 3.350625 -0.271619
v 0.045977 -0.167297 0.013214
vn 0.346670 -2.247651 5.376375
v 0.047429 -0.166272 0.015530
vn -2.797421 -2.146347 2.532440
v 0.046000 -0.167088 0.014897
vn -3.029932 -2.169080 2.334830
v 0.045935 -0.167568 0.014354
vn -5.684348 1.686663 -0.132503
v 0.045824 -0.167420 0.013736
vn -0.612776 3.366150 1.305370
v 0.056445 -0.167396 0.015105
vn -0.109011 5.124749 3.235360
v 0.055349 -0.168014 0.013720
vn -1.955638 5.792953 -0.194179
v 0.056483 -0.167794 0.013768
vn 2.058196 2.458073 4.158178
v 0.052320 -0.166609 0.014205
vn 2.505193 1.364971 4.947021
v 0.051337 -0.166020 0.014395
vn 2.345852 4.794049 3.192148
v 0.054191 -0.167712 0.013594
vn 0.873124 3.949332 -4.087242
v 0.048633 -0.164701 0.004856
vn 2.157434 4.727319 1.711913
v 0.049106 -0.163342 0.014058
vn 1.467907 6.032870 0.084993
v 0.048922 -0.163289 0.009224
vn 1.297993 5.595436 -0.632472
v 0.049021 -0.163260 0.008370
vn -2.878359 2.936147 -1.328444
v 0.047631 -0.163818 0.006205
vn -2.386558 0.667812 -5.334972
v 0.047556 -0.166264 0.004240
vn -2.800517 -0.553928 -4.334626
v 0.047307 -0.166944 0.004289
vn -3.459911 2.175926 -2.825273
v 0.047465 -0.165381 0.004570
vn -4.725593 -0.255484 -2.288881
v 0.046878 -0.167294 0.004896
vn -5.407872 2.598633 -0.477904
v 0.047348 -0.166280 0.008653
vn -5.270396 2.585504 -0.117684
v 0.047142 -0.166374 0.010753
vn -6.011137 1.492095 -0.524794
v 0.047321 -0.165575 0.010164
vn -5.545306 2.139947 -1.464580
v 0.046132 -0.166954 0.013629
vn -2.974022 -0.285376 1.758028
v 0.045566 -0.165515 0.015386
vn -0.421533 0.249508 5.684166
v 0.046926 -0.165397 0.015715
vn 1.622452 0.584650 5.700458
v 0.048790 -0.164868 0.015405
vn -6.148877 0.518199 -0.264466
v 0.046021 -0.167017 0.014255
vn -5.800107 0.735235 -1.566323
v 0.045716 -0.164988 0.014874
vn 2.461981 2.883224 4.476596
v 0.048966 -0.164189 0.015124
vn -3.154232 1.452373 -1.242016
v 0.047473 -0.164790 0.005028
vn 0.566757 3.528970 4.399879
v 0.048308 -0.163910 0.015170
vn -0.959859 5.350994 1.055329
v 0.047371 -0.163055 0.013748
vn -1.904385 5.155017 -0.401900
v 0.047244 -0.163073 0.010900
vn -1.873413 5.679118 -0.877474
v 0.047371 -0.163212 0.010001
vn -3.338265 1.716111 -0.795635
v 0.047095 -0.163494 0.008769
vn -5.974209 -0.301669 -0.194536
v 0.047690 -0.164699 0.007954
vn -5.756577 -1.038645 -0.526524
v 0.047651 -0.164614 0.009046
vn -5.562301 0.130119 -1.653231
v 0.047580 -0.165044 0.009686
vn -5.547536 1.079992 -2.127933
v 0.047152 -0.165368 0.012365
vn -5.869185 -2.031685 -0.539957
v 0.047248 -0.164184 0.009995
vn -5.599063 0.500655 0.167372
v 0.047547 -0.165006 0.010829
vn -3.052765 2.186177 2.212717
v 0.045820 -0.164494 0.015182
vn -4.393739 2.540033 -0.637141
v 0.046342 -0.163713 0.013689
vn -5.325092 -1.102262 -1.277532
v 0.047445 -0.164629 0.011785
vn -1.995306 4.105533 3.404538
v 0.046325 -0.164043 0.014986
vn -2.478674 3.518396 0.267233
v 0.046925 -0.163341 0.014241
vn -4.844162 1.128043 -0.624431
v 0.046962 -0.163506 0.010082
# 142 vertices, 0 vertices normals

f 1//1 2//2 3//3
f 1//1 3//3 4//4
f 1//1 5//5 2//2
f 6//6 1//1 4//4
f 6//6 5//5 1//1
f 3//3 2//2 7//7
f 2//2 5//5 8//8
f 2//2 8//8 7//7
f 3//3 7//7 9//9
f 3//3 10//10 4//4
f 3//3 11//11 10//10
f 11//11 3//3 9//9
f 6//6 4//4 12//12
f 4//4 10//10 13//13
f 4//4 13//13 14//14
f 12//12 4//4 14//14
f 8//8 5//5 15//15
f 16//16 5//5 6//6
f 5//5 17//17 15//15
f 5//5 16//16 17//17
f 18//18 6//6 12//12
f 19//19 6//6 18//18
f 6//6 17//17 16//16
f 6//6 19//19 17//17
f 9//9 7//7 20//20
f 20//20 7//7 21//21
f 7//7 8//8 22//22
f 7//7 22//22 21//21
f 8//8 23//23 24//24
f 25//25 8//8 24//24
f 23//23 8//8 26//26
f 26//26 8//8 15//15
f 22//22 8//8 25//25
f 9//9 20//20 11//11
f 10//10 27//27 28//28
f 10//10 28//28 29//29
f 30//30 10//10 29//29
f 30//30 13//13 10//10
f 10//10 11//11 27//27
f 31//31 11//11 32//32
f 27//27 11//11 31//31
f 32//32 11//11 20//20
f 33//33 18//18 12//12
f 34//34 33//33 12//12
f 12//12 14//14 35//35
f 34//34 12//12 35//35
f 36//36 13//13 30//30
f 37//37 14//14 13//13
f 13//13 36//36 38//38
f 13//13 38//38 37//37
f 39//39 35//35 14//14
f 14//14 37//37 39//39
f 15//15 40//40 26//26
f 15//15 41//41 40//40
f 17//17 41//41 15//15
f 17//17 40//40 41//41
f 40//40 17//17 42//42
f 19//19 42//42 17//17
f 18//18 33//33 43//43
f 18//18 43//43 44//44
f 45//45 18//18 44//44
f 19//19 18//18 45//45
f 46//46 19//19 45//45
f 19//19 46//46 42//42
f 47//47 20//20 21//21
f 47//47 32//32 20//20
f 21//21 22//22 48//48
f 49//49 47//47 21//21
f 49//49 21//21 48//48
f 48//48 22//22 25//25
f 49//49 24//24 23//23
f 23//23 26//26 50//50
f 51//51 49//49 23//23
f 50//50 51//51 23//23
f 48//48 25//25 24//24
f 48//48 24//24 49//49
f 50//50 26//26 52//52
f 40//40 53//53 26//26
f 52//52 26//26 53//53
f 27//27 54//54 28//28
f 31//31 55//55 27//27
f 55//55 56//56 27//27
f 27//27 56//56 54//54
f 28//28 54//54 57//57
f 28//28 57//57 29//29
f 29//29 58//58 30//30
f 57//57 59//59 29//29
f 59//59 58//58 29//29
f 36//36 30//30 58//58
f 47//47 31//31 32//32
f 31//31 47//47 55//55
f 33//33 60//60 61//61
f 62//62 60//60 33//33
f 61//61 43//43 33//33
f 63//63 62//62 33//33
f 34//34 63//63 33//33
f 63//63 34//34 64//64
f 34//34 35//35 65//65
f 64//64 34//34 65//65
f 35//35 39//39 66//66
f 35//35 66//66 67//67
f 35//35 68//68 65//65
f 35//35 69//69 68//68
f 35//35 67//67 69//69
f 70//70 71//71 36//36
f 36//36 58//58 70//70
f 38//38 36//36 71//71
f 72//72 37//37 38//38
f 72//72 39//39 37//37
f 72//72 38//38 71//71
f 73//73 66//66 39//39
f 74//74 39//39 72//72
f 75//75 73//73 39//39
f 74//74 75//75 39//39
f 53//53 40//40 42//42
f 53//53 42//42 76//76
f 46//46 76//76 42//42
f 61//61 44//44 43//43
f 45//45 44//44 77//77
f 77//77 44//44 61//61
f 45//45 78//78 79//79
f 80//80 45//45 77//77
f 80//80 78//78 45//45
f 45//45 81//81 46//46
f 45//45 79//79 81//81
f 76//76 46//46 81//81
f 55//55 47//47 49//49
f 82//82 55//55 49//49
f 49//49 51//51 83//83
f 82//82 49//49 83//83
f 52//52 51//51 50//50
f 83//83 51//51 52//52
f 83//83 52//52 53//53
f 53//53 76//76 83//83
f 54//54 82//82 57//57
f 82//82 54//54 56//56
f 55//55 82//82 56//56
f 82//82 59//59 57//57
f 84//84 58//58 85//85
f 59//59 85//85 58//58
f 70//70 58//58 84//84
f 85//85 59//59 82//82
f 61//61 60//60 86//86
f 86//86 60//60 62//62
f 61//61 86//86 87//87
f 61//61 87//87 77//77
f 62//62 88//88 89//89
f 88//88 62//62 63//63
f 62//62 89//89 86//86
f 90//90 63//63 64//64
f 90//90 88//88 63//63
f 65//65 91//91 64//64
f 64//64 92//92 90//90
f 91//91 92//92 64//64
f 65//65 93//93 91//91
f 65//65 68//68 94//94
f 95//95 65//65 94//94
f 65//65 95//95 93//93
f 73//73 67//67 66//66
f 96//96 97//97 67//67
f 67//67 98//98 69//69
f 67//67 97//97 98//98
f 96//96 67//67 73//73
f 68//68 69//69 94//94
f 95//95 94//94 69//69
f 99//99 95//95 69//69
f 98//98 99//99 69//69
f 100//100 71//71 70//70
f 70//70 84//84 100//100
f 71//71 101//101 72//72
f 101//101 71//71 102//102
f 100//100 102//102 71//71
f 74//74 72//72 101//101
f 73//73 75//75 103//103
f 104//104 96//96 73//73
f 103//103 104//104 73//73
f 105//105 75//75 74//74
f 101//101 105//105 74//74
f 75//75 105//105 103//103
f 81//81 83//83 76//76
f 106//106 80//80 77//77
f 87//87 106//106 77//77
f 79//79 78//78 107//107
f 108//108 107//107 78//78
f 109//109 108//108 78//78
f 80//80 109//109 78//78
f 79//79 103//103 105//105
f 79//79 104//104 103//103
f 104//104 79//79 107//107
f 81//81 79//79 105//105
f 110//110 109//109 80//80
f 80//80 106//106 110//110
f 83//83 81//81 102//102
f 101//101 102//102 81//81
f 105//105 101//101 81//81
f 82//82 83//83 85//85
f 83//83 100//100 85//85
f 102//102 100//100 83//83
f 85//85 100//100 84//84
f 111//111 87//87 86//86
f 86//86 112//112 111//111
f 112//112 86//86 89//89
f 113//113 87//87 111//111
f 87//87 113//113 106//106
f 114//114 89//89 88//88
f 88//88 90//90 114//114
f 114//114 112//112 89//89
f 115//115 114//114 90//90
f 115//115 90//90 92//92
f 115//115 92//92 91//91
f 91//91 93//93 115//115
f 95//95 116//116 93//93
f 117//117 115//115 93//93
f 117//117 93//93 116//116
f 118//118 95//95 99//99
f 95//95 118//118 116//116
f 96//96 119//119 97//97
f 120//120 119//119 96//96
f 96//96 104//104 121//121
f 120//120 96//96 121//121
f 98//98 97//97 122//122
f 123//123 122//122 97//97
f 123//123 97//97 119//119
f 99//99 98//98 122//122
f 99//99 122//122 118//118
f 121//121 104//104 124//124
f 104//104 107//107 124//124
f 106//106 125//125 110//110
f 106//106 113//113 125//125
f 124//124 107//107 126//126
f 127//127 126//126 107//107
f 107//107 128//128 127//127
f 128//128 107//107 108//108
f 109//109 129//129 108//108
f 128//128 108//108 129//129
f 130//130 109//109 110//110
f 129//129 109//109 130//130
f 113//113 110//110 125//125
f 131//131 110//110 113//113
f 130//130 110//110 131//131
f 112//112 113//113 111//111
f 112//112 114//114 113//113
f 113//113 114//114 131//131
f 115//115 131//131 114//114
f 132//132 115//115 133//133
f 115//115 132//132 131//131
f 117//117 133//133 115//115
f 118//118 134//134 116//116
f 134//134 117//117 116//116
f 117//117 135//135 133//133
f 136//136 135//135 117//117
f 117//117 134//134 136//136
f 123//123 118//118 122//122
f 118//118 123//123 134//134
f 119//119 137//137 123//123
f 119//119 120//120 137//137
f 120//120 121//121 126//126
f 120//120 126//126 137//137
f 126//126 121//121 124//124
f 137//137 138//138 123//123
f 123//123 138//138 139//139
f 134//134 123//123 139//139
f 140//140 137//137 126//126
f 126//126 141//141 140//140
f 127//127 141//141 126//126
f 141//141 127//127 137//137
f 137//137 127//127 138//138
f 138//138 127//127 128//128
f 128//128 142//142 138//138
f 129//129 142//142 128//128
f 129//129 130//130 142//142
f 131//131 132//132 130//130
f 130//130 132//132 135//135
f 130//130 135//135 142//142
f 133//133 135//135 132//132
f 134//134 139//139 136//136
f 139//139 142//142 135//135
f 136//136 139//139 135//135
f 137//137 140//140 141//141
f 138//138 142//142 139//139
# 280 faces, 0 coords texture

# End of File
