####
#
# OBJ File Generated by Meshlab
#
####
# Object middle_proximal_lvs.obj
#
# Vertices: 133
# Faces: 262
#
####
vn -5.522279 -2.804793 0.946997
v 0.015985 -0.141798 0.003754
vn -4.766077 -3.413949 0.193860
v 0.017121 -0.144953 0.000453
vn -4.072285 -4.439837 -0.315700
v 0.017779 -0.145721 0.000389
vn -5.260828 -2.430884 1.120207
v 0.016845 -0.144163 0.003943
vn -5.219187 -3.409434 0.075941
v 0.015066 -0.140363 0.001725
vn -4.545959 -1.712469 3.149975
v 0.017397 -0.143157 0.007393
vn -5.407042 -2.098220 2.250047
v 0.016305 -0.141223 0.006030
vn -4.395048 -3.967983 0.973994
v 0.017818 -0.145253 0.005041
vn -5.272624 -3.266853 -0.433768
v 0.013588 -0.138396 0.001516
vn -5.046229 -2.847867 1.121625
v 0.007036 -0.128181 0.003058
vn -4.232140 -2.315334 3.758791
v 0.008507 -0.128673 0.005097
vn -2.526397 -2.960927 -3.201141
v 0.017952 -0.145679 -0.000405
vn -3.711265 -2.078996 -2.924440
v 0.016430 -0.143360 -0.000574
vn -0.909984 -3.515029 -2.914284
v 0.019801 -0.146668 -0.000574
vn -1.221884 -5.447495 0.205373
v 0.019483 -0.146880 0.001213
vn -4.912139 -1.733321 -2.784168
v 0.015812 -0.141665 -0.000440
vn -3.855489 -3.043295 2.754546
v 0.018669 -0.145332 0.007707
vn -4.641475 -0.853854 3.759249
v 0.016825 -0.140499 0.007457
vn -2.377439 0.443238 5.398770
v 0.018297 -0.139077 0.008741
vn -1.695445 -1.918686 5.095407
v 0.020041 -0.145167 0.008810
vn -2.508802 0.009390 5.337279
v 0.016468 -0.137826 0.007459
vn -0.818191 -5.969705 0.394043
v 0.019665 -0.146304 0.004054
vn -1.117100 -5.273500 0.187878
v 0.020116 -0.146729 0.006646
vn -1.359813 -4.124494 2.809459
v 0.020199 -0.146407 0.008056
vn -4.530964 -2.513138 -3.162164
v 0.012632 -0.136178 0.000492
vn -4.626805 -2.612038 -0.384647
v 0.005501 -0.125594 0.002385
vn -5.412476 -2.924852 0.858849
v 0.002736 -0.119519 0.002547
vn -2.134054 -1.572999 5.581204
v 0.003030 -0.113122 0.006877
vn -4.460075 -2.043747 3.423019
v -0.001185 -0.110648 0.005109
vn 0.873656 -3.448822 -3.430865
v 0.022023 -0.146271 -0.001032
vn -2.625507 -0.829648 -5.150220
v 0.016887 -0.140507 -0.001714
vn 2.714116 -4.511313 -0.389240
v 0.022612 -0.146487 0.000156
vn -2.187720 -0.012146 -5.596863
v 0.016543 -0.138781 -0.001519
vn -2.431007 1.876185 5.246972
v 0.017860 -0.138542 0.008407
vn 1.421146 -1.398637 4.923716
v 0.023295 -0.143758 0.009506
vn 0.027465 1.833483 5.153911
v 0.020065 -0.138540 0.009158
vn 1.525169 0.601992 5.038427
v 0.023448 -0.141802 0.009646
vn -1.782721 3.711247 4.384210
v 0.018585 -0.137556 0.008170
vn 1.041618 -4.402418 3.484364
v 0.021263 -0.146267 0.008138
vn 1.329450 3.900929 3.976247
v 0.018235 -0.136921 0.007155
vn -1.972447 4.083520 4.317310
v 0.017792 -0.137527 0.007635
vn 3.121348 -5.276400 0.174005
v 0.022233 -0.145661 0.003825
vn 1.419893 -5.693602 0.818938
v 0.021314 -0.146539 0.007380
vn 2.897574 -4.889436 0.346960
v 0.022516 -0.146157 0.007047
vn -1.536510 -1.760484 -5.308802
v 0.010180 -0.124153 -0.003109
vn -3.185133 -3.189851 -4.131407
v 0.004254 -0.118890 -0.002662
vn -4.886892 -3.308864 -1.778774
v 0.002816 -0.119339 -0.000100
vn -5.040877 -3.403573 -0.974878
v -0.000168 -0.114811 -0.001487
vn -5.452157 -1.947313 0.837019
v -0.002363 -0.111065 0.002191
vn 2.327476 0.723993 4.534302
v 0.007966 -0.114833 0.007327
vn 0.180671 -1.190000 6.129766
v 0.004524 -0.111220 0.007529
vn -0.878129 -1.210146 5.555216
v 0.002352 -0.107814 0.008618
vn -4.158914 -1.052233 3.734551
v -0.001491 -0.106380 0.007048
vn -5.035648 1.425010 0.426313
v -0.002758 -0.105662 0.004103
vn 1.042657 -0.334321 -5.155347
v 0.022777 -0.141392 -0.002730
vn 1.726709 -2.421019 -4.334606
v 0.023021 -0.144813 -0.001692
vn -0.274468 1.519659 -5.155716
v 0.019482 -0.138684 -0.002508
vn 4.681826 -2.220120 -1.903098
v 0.024145 -0.144254 -0.000873
vn 5.398640 -2.281177 0.948462
v 0.024266 -0.144008 0.001537
vn 5.049004 -3.503938 -0.009404
v 0.023058 -0.144786 0.003760
vn -1.405404 3.173978 -3.889751
v 0.018386 -0.138184 -0.002090
vn 1.280890 4.197684 -3.551355
v 0.018564 -0.137650 -0.000946
vn 2.895679 -3.878433 2.688132
v 0.023193 -0.145162 0.008501
vn 4.602981 0.633008 2.421113
v 0.024376 -0.141826 0.008887
vn 4.186400 -2.358939 2.433475
v 0.023924 -0.144252 0.008764
vn 1.089471 4.187135 2.271339
v 0.020105 -0.137231 0.008235
vn 3.605976 3.052236 2.855798
v 0.023717 -0.140529 0.008807
vn 2.862523 5.364245 -0.639609
v 0.020975 -0.137641 0.005969
vn 4.097352 4.344676 1.049581
v 0.019345 -0.136877 0.005588
vn 5.734191 1.865502 1.310036
v 0.009497 -0.115209 0.004434
vn 5.112053 -2.342140 -0.435028
v 0.024397 -0.144107 0.006185
vn -0.296256 -2.004190 -5.785555
v 0.007572 -0.117586 -0.004487
vn 3.133496 0.703022 -4.009109
v 0.011379 -0.123796 -0.003041
vn 1.840823 -0.725991 -5.905343
v 0.008549 -0.117179 -0.004410
vn -1.291355 -3.270544 -4.990396
v 0.004552 -0.113036 -0.006609
vn -3.954513 -2.958519 -3.072518
v 0.000265 -0.114713 -0.002979
vn -5.343071 -2.513469 -1.536001
v -0.001015 -0.113155 -0.001906
vn -4.789017 1.516685 -0.467714
v -0.003141 -0.106331 -0.001052
vn 3.386356 0.275075 4.402532
v 0.006757 -0.110634 0.007280
vn 2.394128 -0.000081 5.408866
v 0.005816 -0.106220 0.008185
vn -0.867866 1.788922 5.169118
v 0.001474 -0.101935 0.008671
vn -2.892537 0.537515 4.755199
v -0.000151 -0.103393 0.008390
vn -4.721543 1.895300 0.718647
v -0.002150 -0.104198 0.005810
vn -3.629332 2.796558 1.142940
v -0.000828 -0.101933 0.007135
vn -3.504162 4.986825 -0.426928
v 0.003199 -0.102253 -0.000879
vn 4.545112 0.222144 -2.526291
v 0.024388 -0.141929 -0.001531
vn 2.937419 2.617897 -2.586578
v 0.023290 -0.139503 -0.002022
vn 1.591382 4.577775 -2.185975
v 0.020722 -0.137778 -0.001521
vn 5.723482 0.644858 0.285248
v 0.024696 -0.142017 0.000940
vn 6.037951 0.392459 -0.163905
v 0.024078 -0.141931 0.003614
vn 3.582319 4.543602 -1.107352
v 0.019345 -0.137149 0.000941
vn 5.481202 1.042064 -0.239390
v 0.024749 -0.141630 0.006145
vn 4.169001 4.196733 0.072115
v 0.023129 -0.139051 0.006229
vn 4.701056 3.952377 -0.177172
v 0.023211 -0.139812 0.003473
vn 6.130157 0.934066 0.518892
v 0.008568 -0.106940 0.000044
vn 5.454698 0.221655 -2.160524
v 0.008948 -0.111220 -0.004396
vn 2.854665 -1.081001 -5.312671
v 0.007926 -0.115355 -0.005006
vn -0.725328 -2.120325 -4.781584
v 0.002937 -0.108787 -0.009369
vn -3.885479 -1.109786 -3.932953
v -0.000020 -0.107567 -0.008051
vn -3.659249 -3.111731 -3.975200
v 0.000129 -0.112720 -0.003852
vn -4.393943 -2.136384 -2.782514
v -0.001288 -0.110263 -0.005076
vn -4.583726 1.383701 -3.149693
v -0.000822 -0.104739 -0.006790
vn -3.787341 3.691789 -1.012383
v -0.000554 -0.103263 -0.005844
vn 4.293134 1.208037 2.687035
v 0.007313 -0.104176 0.006887
vn 3.702137 3.118334 2.458282
v 0.006040 -0.101879 0.006855
vn 1.705420 2.393069 4.324169
v 0.003944 -0.101579 0.008375
vn -2.301315 3.957706 1.715416
v 0.000789 -0.100738 0.007549
vn -0.759136 4.904709 2.319138
v 0.001903 -0.100435 0.007488
vn -3.220493 4.122625 -1.672735
v 0.001236 -0.102209 -0.006900
vn -1.711007 5.880640 0.289554
v 0.003908 -0.100962 -0.006541
vn 0.646380 5.311192 0.002538
v 0.005749 -0.100690 -0.003734
vn -2.054503 5.878163 0.734373
v 0.004527 -0.101148 -0.004219
vn -2.431299 5.286568 -0.875281
v 0.001615 -0.100461 0.006454
vn -0.293401 5.858918 -0.539907
v 0.003606 -0.100265 0.004773
vn 4.415177 3.773006 0.306217
v 0.023683 -0.139703 0.000751
vn 4.420044 2.672878 -1.015771
v 0.007806 -0.102128 -0.005023
vn 4.369855 0.288414 -3.859841
v 0.006972 -0.105449 -0.007903
vn 2.733548 -0.547494 -5.253211
v 0.005353 -0.106912 -0.009019
vn -1.679506 0.369363 -5.269275
v 0.002129 -0.106406 -0.009569
vn 1.286593 -0.457165 -5.970980
v 0.003918 -0.107279 -0.009424
vn -2.725878 3.266649 -4.196852
v 0.002391 -0.102215 -0.008006
vn 2.542093 5.348260 1.135184
v 0.004454 -0.100553 0.005892
vn 2.551813 5.480485 0.222840
v 0.004835 -0.100487 0.002770
vn 0.940927 5.094488 2.088736
v 0.002916 -0.100299 0.007228
vn -0.221762 6.150132 0.101390
v 0.002701 -0.100260 0.006688
vn -1.507847 4.804010 -2.211980
v 0.003406 -0.101164 -0.007454
vn 1.232976 5.541722 -0.652821
v 0.005746 -0.100806 -0.004993
vn 0.279908 5.696871 -1.476013
v 0.004284 -0.100921 -0.006927
vn 3.355562 2.584279 -3.623519
v 0.006000 -0.102272 -0.008040
vn 2.571320 5.015782 -2.425743
v 0.005482 -0.101428 -0.007212
vn 1.680435 2.285052 -4.871518
v 0.004974 -0.102457 -0.008734
vn -0.367088 2.093836 -5.190258
v 0.003948 -0.102803 -0.009025
vn 0.837100 4.598244 -3.717638
v 0.004618 -0.101520 -0.007947
# 133 vertices, 0 vertices normals

f 1//1 2//2 3//3
f 4//4 1//1 3//3
f 2//2 1//1 5//5
f 6//6 7//7 1//1
f 8//8 1//1 4//4
f 9//9 5//5 1//1
f 10//10 9//9 1//1
f 11//11 10//10 1//1
f 1//1 7//7 11//11
f 6//6 1//1 8//8
f 2//2 12//12 3//3
f 13//13 12//12 2//2
f 2//2 5//5 13//13
f 3//3 14//14 15//15
f 3//3 12//12 14//14
f 3//3 8//8 4//4
f 8//8 3//3 15//15
f 5//5 16//16 13//13
f 16//16 5//5 9//9
f 8//8 17//17 6//6
f 6//6 18//18 7//7
f 19//19 18//18 6//6
f 6//6 20//20 19//19
f 6//6 17//17 20//20
f 11//11 7//7 21//21
f 7//7 18//18 21//21
f 15//15 22//22 8//8
f 22//22 23//23 8//8
f 8//8 23//23 24//24
f 24//24 17//17 8//8
f 25//25 9//9 10//10
f 9//9 25//25 16//16
f 26//26 25//25 10//10
f 11//11 26//26 10//10
f 11//11 27//27 26//26
f 11//11 21//21 28//28
f 27//27 11//11 29//29
f 29//29 11//11 28//28
f 30//30 12//12 13//13
f 30//30 14//14 12//12
f 30//30 13//13 31//31
f 31//31 13//13 16//16
f 15//15 14//14 32//32
f 14//14 30//30 32//32
f 32//32 22//22 15//15
f 33//33 31//31 16//16
f 33//33 16//16 25//25
f 17//17 24//24 20//20
f 18//18 19//19 21//21
f 19//19 34//34 21//21
f 19//19 20//20 35//35
f 36//36 19//19 37//37
f 19//19 35//35 37//37
f 36//36 38//38 19//19
f 34//34 19//19 38//38
f 24//24 39//39 20//20
f 39//39 35//35 20//20
f 21//21 40//40 28//28
f 21//21 41//41 40//40
f 21//21 34//34 41//41
f 22//22 32//32 42//42
f 23//23 22//22 42//42
f 23//23 43//43 24//24
f 44//44 23//23 42//42
f 44//44 43//43 23//23
f 24//24 43//43 39//39
f 25//25 45//45 33//33
f 45//45 25//25 26//26
f 45//45 26//26 46//46
f 46//46 26//26 47//47
f 47//47 26//26 27//27
f 48//48 47//47 27//27
f 27//27 49//49 48//48
f 29//29 49//49 27//27
f 50//50 51//51 28//28
f 52//52 29//29 28//28
f 51//51 52//52 28//28
f 28//28 40//40 50//50
f 52//52 53//53 29//29
f 49//49 29//29 54//54
f 54//54 29//29 53//53
f 30//30 55//55 56//56
f 55//55 30//30 57//57
f 30//30 31//31 57//57
f 32//32 30//30 56//56
f 33//33 57//57 31//31
f 58//58 59//59 32//32
f 60//60 32//32 59//59
f 60//60 42//42 32//32
f 32//32 56//56 58//58
f 33//33 61//61 57//57
f 62//62 33//33 45//45
f 33//33 62//62 61//61
f 34//34 38//38 41//41
f 35//35 39//39 63//63
f 35//35 64//64 37//37
f 64//64 35//35 65//65
f 35//35 63//63 65//65
f 37//37 66//66 36//36
f 36//36 66//66 38//38
f 64//64 67//67 37//37
f 67//67 66//66 37//37
f 38//38 66//66 40//40
f 41//41 38//38 40//40
f 43//43 63//63 39//39
f 40//40 68//68 69//69
f 40//40 69//69 70//70
f 40//40 70//70 50//50
f 66//66 68//68 40//40
f 60//60 71//71 42//42
f 44//44 42//42 71//71
f 63//63 43//43 44//44
f 44//44 71//71 65//65
f 63//63 44//44 65//65
f 45//45 46//46 72//72
f 45//45 73//73 62//62
f 45//45 74//74 73//73
f 45//45 72//72 74//74
f 46//46 75//75 72//72
f 46//46 76//76 75//75
f 46//46 47//47 48//48
f 76//76 46//46 48//48
f 76//76 48//48 77//77
f 77//77 48//48 49//49
f 77//77 49//49 78//78
f 54//54 78//78 49//49
f 51//51 50//50 79//79
f 50//50 70//70 79//79
f 51//51 79//79 80//80
f 52//52 51//51 80//80
f 52//52 80//80 81//81
f 82//82 53//53 52//52
f 82//82 52//52 81//81
f 53//53 83//83 54//54
f 84//84 53//53 82//82
f 84//84 83//83 53//53
f 85//85 78//78 54//54
f 85//85 54//54 83//83
f 56//56 55//55 86//86
f 87//87 55//55 57//57
f 87//87 86//86 55//55
f 56//56 86//86 58//58
f 57//57 61//61 88//88
f 57//57 88//88 87//87
f 58//58 89//89 59//59
f 89//89 58//58 86//86
f 90//90 59//59 89//89
f 59//59 90//90 60//60
f 71//71 60//60 90//90
f 88//88 61//61 62//62
f 91//91 88//88 62//62
f 73//73 91//91 62//62
f 64//64 65//65 92//92
f 92//92 67//67 64//64
f 92//92 65//65 71//71
f 66//66 93//93 68//68
f 93//93 66//66 67//67
f 92//92 93//93 67//67
f 94//94 69//69 68//68
f 93//93 94//94 68//68
f 94//94 88//88 69//69
f 69//69 88//88 91//91
f 69//69 91//91 70//70
f 95//95 79//79 70//70
f 96//96 95//95 70//70
f 73//73 96//96 70//70
f 70//70 91//91 73//73
f 92//92 71//71 90//90
f 72//72 75//75 97//97
f 72//72 97//97 74//74
f 96//96 73//73 74//74
f 74//74 97//97 96//96
f 98//98 75//75 99//99
f 76//76 100//100 75//75
f 100//100 101//101 75//75
f 98//98 97//97 75//75
f 101//101 99//99 75//75
f 77//77 100//100 76//76
f 77//77 101//101 100//100
f 77//77 78//78 101//101
f 102//102 101//101 78//78
f 85//85 103//103 78//78
f 102//102 78//78 103//103
f 104//104 80//80 79//79
f 104//104 79//79 95//95
f 80//80 105//105 106//106
f 105//105 80//80 104//104
f 81//81 80//80 106//106
f 82//82 81//81 107//107
f 108//108 107//107 81//81
f 106//106 108//108 81//81
f 107//107 84//84 82//82
f 85//85 83//83 84//84
f 85//85 84//84 107//107
f 109//109 85//85 110//110
f 85//85 111//111 112//112
f 85//85 109//109 103//103
f 85//85 113//113 114//114
f 85//85 107//107 113//113
f 112//112 110//110 85//85
f 114//114 111//111 85//85
f 86//86 115//115 89//89
f 115//115 86//86 87//87
f 115//115 87//87 88//88
f 88//88 94//94 115//115
f 90//90 89//89 94//94
f 89//89 115//115 94//94
f 94//94 92//92 90//90
f 92//92 94//94 93//93
f 95//95 116//116 104//104
f 96//96 116//116 95//95
f 117//117 116//116 96//96
f 118//118 117//117 96//96
f 96//96 97//97 118//118
f 98//98 118//118 97//97
f 119//119 98//98 99//99
f 118//118 98//98 120//120
f 120//120 98//98 119//119
f 99//99 101//101 102//102
f 119//119 99//99 102//102
f 121//121 102//102 103//103
f 121//121 119//119 102//102
f 103//103 109//109 121//121
f 116//116 105//105 104//104
f 122//122 106//106 105//105
f 122//122 105//105 123//123
f 123//123 105//105 111//111
f 116//116 111//111 105//105
f 108//108 106//106 124//124
f 106//106 122//122 124//124
f 125//125 107//107 108//108
f 125//125 113//113 107//107
f 125//125 108//108 124//124
f 126//126 109//109 110//110
f 121//121 109//109 126//126
f 127//127 110//110 112//112
f 110//110 128//128 126//126
f 110//110 127//127 128//128
f 127//127 112//112 111//111
f 123//123 111//111 114//114
f 116//116 127//127 111//111
f 125//125 114//114 113//113
f 114//114 122//122 123//123
f 114//114 125//125 122//122
f 116//116 117//117 129//129
f 130//130 116//116 129//129
f 116//116 130//130 127//127
f 118//118 129//129 117//117
f 129//129 118//118 131//131
f 120//120 132//132 118//118
f 131//131 118//118 132//132
f 119//119 121//121 132//132
f 132//132 120//120 119//119
f 126//126 132//132 121//121
f 125//125 124//124 122//122
f 126//126 133//133 132//132
f 133//133 126//126 128//128
f 130//130 128//128 127//127
f 130//130 133//133 128//128
f 129//129 133//133 130//130
f 133//133 129//129 131//131
f 132//132 133//133 131//131
# 262 faces, 0 coords texture

# End of File
