####
#
# OBJ File Generated by Meshlab
#
####
# Object pisiform_lvs.obj
#
# Vertices: 34
# Faces: 64
#
####
vn -1.273703 2.812810 5.299470
v 0.006563 -0.008432 0.026074
vn -2.113647 0.521792 5.858155
v 0.004025 -0.010821 0.025805
vn -1.714963 0.703628 5.657796
v 0.006025 -0.011087 0.026877
vn 0.870076 1.571474 5.362413
v 0.008373 -0.009841 0.026966
vn -3.304960 0.204656 2.890783
v 0.002161 -0.009758 0.025320
vn -3.146354 1.627319 1.299832
v 0.001440 -0.007377 0.023499
vn 0.188811 4.378200 3.434798
v 0.007672 -0.006837 0.025205
vn -4.054878 -1.236717 2.855410
v 0.002976 -0.012780 0.025374
vn -0.927788 -1.181619 5.749158
v 0.006856 -0.013298 0.026956
vn 3.156522 3.045322 2.673624
v 0.008917 -0.007862 0.025656
vn 2.005617 -1.258728 4.851471
v 0.009679 -0.013579 0.026831
vn 4.053387 1.727073 2.744437
v 0.010479 -0.010566 0.026051
vn -4.909755 -2.120704 -2.060218
v 0.003715 -0.015198 0.020397
vn 0.951106 4.183948 -0.656210
v 0.006499 -0.005626 0.022297
vn -1.952684 1.880434 -1.188339
v 0.001767 -0.006394 0.020584
vn 2.817812 3.730416 1.865006
v 0.008430 -0.007049 0.025186
vn -4.056791 -2.546525 1.958336
v 0.004647 -0.017995 0.024424
vn -1.460586 -3.302941 2.626664
v 0.005401 -0.018710 0.024596
vn 5.649249 2.549232 -0.126095
v 0.011129 -0.011699 0.023587
vn 0.498849 -4.168554 0.981830
v 0.007194 -0.019645 0.023202
vn 4.050216 -1.119450 1.970979
v 0.012078 -0.014729 0.024456
vn -3.621131 -4.374732 -1.126595
v 0.005385 -0.018720 0.022524
vn -1.536346 0.959239 -3.805897
v 0.003537 -0.009196 0.018351
vn -0.687551 -0.687348 -4.417068
v 0.005959 -0.014570 0.017626
vn -2.631873 -4.063215 -3.043313
v 0.006032 -0.018178 0.020312
vn 4.340364 3.278688 -2.155100
v 0.009118 -0.008541 0.021620
vn 2.445376 2.859501 -4.561191
v 0.007386 -0.008732 0.019803
vn 4.676592 -0.625611 -1.065267
v 0.012292 -0.014974 0.022050
vn 4.676313 1.566955 -2.787895
v 0.011253 -0.012746 0.021015
vn 0.760302 -4.642349 -2.236770
v 0.007783 -0.019071 0.020933
vn 3.790749 -3.664206 -1.086585
v 0.010719 -0.017318 0.021035
vn 3.475126 1.388999 -4.689888
v 0.010038 -0.012272 0.020017
vn 0.204524 -2.001565 -4.428765
v 0.006931 -0.016271 0.018140
vn 3.336848 -1.994488 -3.951629
v 0.010497 -0.016841 0.020255
# 34 vertices, 0 vertices normals

f 1//1 2//2 3//3
f 3//3 4//4 1//1
f 5//5 2//2 1//1
f 6//6 1//1 7//7
f 1//1 6//6 5//5
f 7//7 1//1 4//4
f 2//2 8//8 3//3
f 8//8 2//2 5//5
f 8//8 9//9 3//3
f 9//9 4//4 3//3
f 4//4 10//10 7//7
f 4//4 9//9 11//11
f 4//4 11//11 12//12
f 10//10 4//4 12//12
f 8//8 5//5 13//13
f 13//13 5//5 6//6
f 14//14 6//6 7//7
f 6//6 14//14 15//15
f 6//6 15//15 13//13
f 16//16 7//7 10//10
f 7//7 16//16 14//14
f 8//8 13//13 17//17
f 8//8 17//17 18//18
f 9//9 8//8 18//18
f 18//18 11//11 9//9
f 12//12 19//19 10//10
f 10//10 19//19 16//16
f 20//20 11//11 18//18
f 20//20 21//21 11//11
f 11//11 21//21 12//12
f 19//19 12//12 21//21
f 13//13 22//22 17//17
f 23//23 24//24 13//13
f 13//13 25//25 22//22
f 24//24 25//25 13//13
f 13//13 15//15 23//23
f 26//26 14//14 16//16
f 14//14 23//23 15//15
f 23//23 14//14 27//27
f 27//27 14//14 26//26
f 16//16 19//19 26//26
f 22//22 18//18 17//17
f 22//22 20//20 18//18
f 28//28 19//19 21//21
f 19//19 28//28 29//29
f 26//26 19//19 29//29
f 25//25 20//20 22//22
f 25//25 30//30 20//20
f 30//30 31//31 20//20
f 31//31 21//21 20//20
f 21//21 31//31 28//28
f 27//27 24//24 23//23
f 32//32 24//24 27//27
f 32//32 33//33 24//24
f 24//24 33//33 25//25
f 33//33 30//30 25//25
f 26//26 32//32 27//27
f 32//32 26//26 29//29
f 31//31 34//34 28//28
f 34//34 29//29 28//28
f 34//34 32//32 29//29
f 33//33 34//34 30//30
f 31//31 30//30 34//34
f 33//33 32//32 34//34
# 64 faces, 0 coords texture

# End of File
