####
#
# OBJ File Generated by Meshlab
#
####
# Object r_fibula.obj
#
# Vertices: 122
# Faces: 240
#
####
vn 0.000049 -0.000233 -0.000268
v -0.016014 -0.400747 0.020869
vn -2.753057 -0.645063 0.645619
v -0.021024 -0.407066 0.021717
vn -1.793171 -1.162476 -1.514606
v -0.021445 -0.399877 0.018225
vn -0.657089 -1.651524 -2.377654
v -0.019393 -0.392631 0.014918
vn 0.102223 -1.521738 -2.553406
v -0.015249 -0.392526 0.014196
vn 1.559598 -0.993217 -2.154321
v -0.009856 -0.395169 0.014426
vn 2.435860 -0.770792 0.260934
v -0.004985 -0.397859 0.018958
vn 1.643780 -1.104755 2.079406
v -0.010007 -0.401116 0.023805
vn 0.712162 -1.475259 2.487108
v -0.014948 -0.404321 0.022692
vn -0.209330 -1.403128 2.594793
v -0.016224 -0.404354 0.022915
vn -1.785733 -0.879542 1.993462
v -0.018448 -0.405716 0.023461
vn -5.445859 -1.369882 1.191357
v -0.021767 -0.397634 0.021885
vn -5.202108 -0.669060 -1.396453
v -0.024712 -0.391143 0.016799
vn -3.487471 -2.441896 3.336358
v -0.021048 -0.396184 0.025984
vn -2.200002 -0.460407 -4.437297
v -0.022529 -0.384512 0.009429
vn 0.518392 -0.310336 -4.949435
v -0.014559 -0.384309 0.008040
vn 2.969745 0.132330 -3.979982
v -0.007083 -0.385299 0.011405
vn 4.906902 0.276416 -0.601930
v -0.002937 -0.386399 0.018647
vn 4.787928 -0.909037 2.887286
v -0.006381 -0.390453 0.025794
vn 2.131474 -2.810442 4.394467
v -0.012243 -0.394525 0.028327
vn -0.753859 -3.246706 4.601773
v -0.017344 -0.394655 0.029216
vn -5.742061 -0.683561 0.080221
v -0.025901 -0.386656 0.022650
vn -5.250056 0.147118 -2.070461
v -0.024268 -0.380218 0.017235
vn -4.632410 -1.373056 2.392780
v -0.024630 -0.387497 0.029535
vn -3.054078 1.107267 -4.195666
v -0.020215 -0.373741 0.014378
vn -1.476726 -1.985619 4.528838
v -0.018312 -0.388206 0.034973
vn 1.045281 1.543187 -5.180351
v -0.015591 -0.373623 0.013572
vn 4.149412 1.438524 -3.223012
v -0.012445 -0.370804 0.016695
vn 5.045577 1.232855 -1.943114
v -0.012152 -0.368056 0.020328
vn 5.445912 0.449494 0.724208
v -0.008093 -0.377941 0.025205
vn 3.264105 -1.162541 3.718638
v -0.009705 -0.387987 0.033474
vn -5.821223 0.684106 0.549279
v -0.024001 -0.369007 0.022390
vn -5.139374 0.432565 -2.326148
v -0.023001 -0.364387 0.018172
vn -4.021638 1.234026 3.117456
v -0.024380 -0.375103 0.029073
vn -2.635031 0.389719 -5.058942
v -0.019938 -0.359729 0.015651
vn -0.057110 1.858795 4.726193
v -0.018595 -0.381049 0.035811
vn 0.750005 0.359889 -5.637296
v -0.016112 -0.359632 0.014985
vn 2.466346 1.703181 3.273689
v -0.009508 -0.380818 0.034228
vn 4.254215 0.243149 -3.678189
v -0.013294 -0.346871 0.017175
vn 5.478206 0.165771 -2.246523
v -0.012448 -0.334167 0.020516
vn 3.834381 0.304761 0.466495
v -0.007996 -0.357408 0.025663
vn -5.462633 0.472542 0.364113
v -0.022430 -0.359191 0.022156
vn -4.632532 0.047718 -2.742030
v -0.022110 -0.342698 0.019041
vn -2.647103 1.472847 3.644974
v -0.021893 -0.368502 0.026399
vn -2.502664 0.016015 -5.150572
v -0.020130 -0.326175 0.017084
vn 0.117519 2.640748 4.741157
v -0.017861 -0.377726 0.030133
vn 1.434774 0.112831 -5.087969
v -0.017099 -0.326098 0.016556
vn 0.517341 1.524647 5.366912
v -0.012281 -0.377584 0.029161
vn 4.291723 0.188250 -3.544553
v -0.015421 -0.280931 0.018281
vn 2.382479 0.322029 2.709486
v -0.011918 -0.306649 0.024754
vn 5.328237 0.229209 -0.483515
v -0.015063 -0.235804 0.021370
vn -5.294589 -0.265061 0.433123
v -0.026907 -0.301616 0.023169
vn -4.409139 -0.245906 -3.658496
v -0.026074 -0.280371 0.018344
vn -2.230780 0.033786 4.864764
v -0.022541 -0.330059 0.026434
vn -2.084702 -0.156497 -5.504826
v -0.022839 -0.259085 0.015552
vn 0.822327 0.483086 5.851627
v -0.017768 -0.358463 0.026402
vn 2.019896 -0.050567 -4.553225
v -0.018376 -0.258971 0.014774
vn 0.320311 0.310316 5.833448
v -0.014579 -0.358382 0.025846
vn 5.211535 0.032944 -1.129865
v -0.017273 -0.199821 0.018853
vn 2.546664 0.142295 3.133127
v -0.015992 -0.249537 0.023898
vn 4.686427 0.092956 -1.331675
v -0.019406 -0.140746 0.022511
vn -4.662365 -0.137765 1.625094
v -0.029507 -0.236171 0.023887
vn -4.802292 -0.098964 -3.145376
v -0.028865 -0.208081 0.018419
vn -0.969121 -0.048875 5.376340
v -0.023829 -0.264904 0.026687
vn -2.349106 -0.002938 -5.322127
v -0.025349 -0.179939 0.015045
vn 1.266542 0.038173 5.858898
v -0.019062 -0.293623 0.025120
vn 1.322981 0.021212 -5.202677
v -0.020089 -0.179805 0.014129
vn 1.625345 0.015889 5.720615
v -0.016991 -0.293570 0.024759
vn 5.102040 -0.141004 -1.244305
v -0.017154 -0.143912 0.017809
vn 3.164253 -0.061151 0.337872
v -0.016689 -0.200832 0.024529
vn 4.867508 -0.184149 -1.134481
v -0.017350 -0.108102 0.022285
vn -4.610201 -0.051992 1.932163
v -0.030671 -0.187638 0.024286
vn -4.968644 0.004098 -2.842957
v -0.029561 -0.159376 0.019050
vn -1.004696 -0.038636 5.385851
v -0.025748 -0.192436 0.027471
vn -2.550742 0.096800 -5.159287
v -0.026030 -0.131076 0.016373
vn 1.135857 -0.027728 5.888347
v -0.021447 -0.197214 0.026432
vn -0.193323 0.064740 -5.821627
v -0.021406 -0.130959 0.015567
vn 1.576120 -0.066960 5.665630
v -0.019055 -0.197153 0.026015
vn 3.650974 -0.519740 -3.467167
v -0.016689 -0.106247 0.016707
vn 2.977231 -0.304096 1.107970
v -0.015692 -0.139383 0.026244
vn 5.362357 -0.738178 -1.821284
v -0.013081 -0.081593 0.021648
vn -4.879346 0.071585 2.509500
v -0.030310 -0.138090 0.024423
vn -4.946515 -0.021660 -2.353139
v -0.029556 -0.110493 0.020028
vn -1.949446 -0.014000 5.022687
v -0.026575 -0.135090 0.027378
vn -2.530739 -0.181557 -5.161450
v -0.026695 -0.082864 0.017695
vn 0.341839 -0.158277 5.902641
v -0.023009 -0.132069 0.026967
vn -0.975055 -0.175835 -5.906812
v -0.022710 -0.082763 0.017000
vn 0.620470 -0.236558 5.946597
v -0.020616 -0.132008 0.026550
vn 1.650403 -0.276260 -5.038658
v -0.015113 -0.076857 0.014599
vn 2.605308 -0.452891 2.675457
v -0.013188 -0.101532 0.028227
vn 4.701949 -0.606777 -0.826204
v -0.005851 -0.070981 0.020430
vn -5.180135 0.023652 2.356683
v -0.028519 -0.105125 0.024244
vn -4.799971 -0.575514 -1.143003
v -0.029656 -0.086707 0.020454
vn -3.839555 -0.282169 2.819895
v -0.027165 -0.102838 0.027455
vn -2.310464 -2.110767 -4.291512
v -0.027782 -0.068213 0.016427
vn -1.159823 -0.730833 5.187780
v -0.024061 -0.100497 0.029301
vn 0.422655 -1.847520 -5.038417
v -0.022839 -0.068088 0.015566
vn 1.384345 -0.759988 5.527915
v -0.020394 -0.100404 0.028662
vn 1.584814 0.505100 -5.042618
v -0.015073 -0.063328 0.014333
vn 3.942628 -0.163463 4.062254
v -0.013009 -0.079532 0.028754
vn 4.028039 0.868108 -0.759763
v -0.006664 -0.058616 0.020622
vn -5.303696 -0.010844 0.987631
v -0.027306 -0.069569 0.024176
vn -5.068507 0.138944 0.759116
v -0.031653 -0.067194 0.019865
vn -5.264534 -0.013301 0.593959
v -0.030927 -0.063842 0.030691
vn -2.726799 -0.319071 -3.820918
v -0.030440 -0.064653 0.011596
vn -2.134045 0.487414 3.886807
v -0.026523 -0.057945 0.039763
vn 0.739880 -0.604949 -4.428554
v -0.022150 -0.064442 0.010151
vn 2.648781 1.212537 4.257433
v -0.016640 -0.057694 0.038041
vn 2.769146 1.470348 -4.283094
v -0.016014 -0.058306 0.015222
vn 4.609078 2.030375 2.313524
v -0.012541 -0.054917 0.029474
vn 3.744201 3.104110 -1.826778
v -0.014558 -0.052297 0.022023
vn -2.650196 0.076714 -0.126838
v -0.028134 -0.056553 0.024373
vn -2.550041 0.227643 1.080784
v -0.029595 -0.054932 0.021118
vn -2.785549 0.572196 0.147435
v -0.027706 -0.049884 0.027138
vn -2.096075 0.877471 -1.163280
v -0.028018 -0.053229 0.016781
vn -0.673873 1.403980 1.884088
v -0.025361 -0.043164 0.029254
vn -0.057548 1.367351 -2.594062
v -0.023236 -0.053107 0.015947
vn 1.526642 1.743002 1.626174
v -0.022013 -0.043079 0.028671
vn 1.057469 1.613347 -2.240865
v -0.020033 -0.050450 0.019235
vn 2.188133 1.901025 0.163351
v -0.019942 -0.045453 0.026037
vn 1.766834 1.905696 -1.302490
v -0.019826 -0.047868 0.022960
vn -0.000134 0.000196 -0.000122
v -0.024375 -0.051895 0.023737
# 122 vertices, 0 vertices normals

f 1//1 2//2 3//3
f 1//1 3//3 4//4
f 1//1 4//4 5//5
f 1//1 5//5 6//6
f 1//1 6//6 7//7
f 1//1 7//7 8//8
f 1//1 8//8 9//9
f 1//1 9//9 10//10
f 1//1 10//10 11//11
f 1//1 11//11 2//2
f 2//2 12//12 13//13
f 2//2 13//13 3//3
f 11//11 14//14 12//12
f 11//11 12//12 2//2
f 3//3 13//13 15//15
f 3//3 15//15 4//4
f 4//4 15//15 16//16
f 4//4 16//16 5//5
f 5//5 16//16 17//17
f 5//5 17//17 6//6
f 6//6 17//17 18//18
f 6//6 18//18 7//7
f 7//7 18//18 19//19
f 7//7 19//19 8//8
f 8//8 19//19 20//20
f 8//8 20//20 9//9
f 9//9 20//20 21//21
f 9//9 21//21 10//10
f 10//10 21//21 14//14
f 10//10 14//14 11//11
f 12//12 22//22 23//23
f 12//12 23//23 13//13
f 14//14 24//24 22//22
f 14//14 22//22 12//12
f 13//13 23//23 25//25
f 13//13 25//25 15//15
f 21//21 26//26 24//24
f 21//21 24//24 14//14
f 15//15 25//25 27//27
f 15//15 27//27 16//16
f 16//16 27//27 28//28
f 16//16 28//28 17//17
f 17//17 28//28 29//29
f 17//17 29//29 18//18
f 18//18 29//29 30//30
f 18//18 30//30 19//19
f 19//19 30//30 31//31
f 19//19 31//31 20//20
f 20//20 31//31 26//26
f 20//20 26//26 21//21
f 22//22 32//32 33//33
f 22//22 33//33 23//23
f 24//24 34//34 32//32
f 24//24 32//32 22//22
f 23//23 33//33 35//35
f 23//23 35//35 25//25
f 26//26 36//36 34//34
f 26//26 34//34 24//24
f 25//25 35//35 37//37
f 25//25 37//37 27//27
f 31//31 38//38 36//36
f 31//31 36//36 26//26
f 27//27 37//37 39//39
f 27//27 39//39 28//28
f 28//28 39//39 40//40
f 28//28 40//40 29//29
f 29//29 40//40 41//41
f 29//29 41//41 30//30
f 30//30 41//41 38//38
f 30//30 38//38 31//31
f 32//32 42//42 43//43
f 32//32 43//43 33//33
f 34//34 44//44 42//42
f 34//34 42//42 32//32
f 33//33 43//43 45//45
f 33//33 45//45 35//35
f 36//36 46//46 44//44
f 36//36 44//44 34//34
f 35//35 45//45 47//47
f 35//35 47//47 37//37
f 38//38 48//48 46//46
f 38//38 46//46 36//36
f 37//37 47//47 49//49
f 37//37 49//49 39//39
f 41//41 50//50 48//48
f 41//41 48//48 38//38
f 39//39 49//49 51//51
f 39//39 51//51 40//40
f 40//40 51//51 50//50
f 40//40 50//50 41//41
f 42//42 52//52 53//53
f 42//42 53//53 43//43
f 44//44 54//54 52//52
f 44//44 52//52 42//42
f 43//43 53//53 55//55
f 43//43 55//55 45//45
f 46//46 56//56 54//54
f 46//46 54//54 44//44
f 45//45 55//55 57//57
f 45//45 57//57 47//47
f 48//48 58//58 56//56
f 48//48 56//56 46//46
f 47//47 57//57 59//59
f 47//47 59//59 49//49
f 50//50 60//60 58//58
f 50//50 58//58 48//48
f 49//49 59//59 61//61
f 49//49 61//61 51//51
f 51//51 61//61 60//60
f 51//51 60//60 50//50
f 52//52 62//62 63//63
f 52//52 63//63 53//53
f 54//54 64//64 62//62
f 54//54 62//62 52//52
f 53//53 63//63 65//65
f 53//53 65//65 55//55
f 56//56 66//66 64//64
f 56//56 64//64 54//54
f 55//55 65//65 67//67
f 55//55 67//67 57//57
f 58//58 68//68 66//66
f 58//58 66//66 56//56
f 57//57 67//67 69//69
f 57//57 69//69 59//59
f 60//60 70//70 68//68
f 60//60 68//68 58//58
f 59//59 69//69 71//71
f 59//59 71//71 61//61
f 61//61 71//71 70//70
f 61//61 70//70 60//60
f 62//62 72//72 73//73
f 62//62 73//73 63//63
f 64//64 74//74 72//72
f 64//64 72//72 62//62
f 63//63 73//73 75//75
f 63//63 75//75 65//65
f 66//66 76//76 74//74
f 66//66 74//74 64//64
f 65//65 75//75 77//77
f 65//65 77//77 67//67
f 68//68 78//78 76//76
f 68//68 76//76 66//66
f 67//67 77//77 79//79
f 67//67 79//79 69//69
f 70//70 80//80 78//78
f 70//70 78//78 68//68
f 69//69 79//79 81//81
f 69//69 81//81 71//71
f 71//71 81//81 80//80
f 71//71 80//80 70//70
f 72//72 82//82 83//83
f 72//72 83//83 73//73
f 74//74 84//84 82//82
f 74//74 82//82 72//72
f 73//73 83//83 85//85
f 73//73 85//85 75//75
f 76//76 86//86 84//84
f 76//76 84//84 74//74
f 75//75 85//85 87//87
f 75//75 87//87 77//77
f 78//78 88//88 86//86
f 78//78 86//86 76//76
f 77//77 87//87 89//89
f 77//77 89//89 79//79
f 80//80 90//90 88//88
f 80//80 88//88 78//78
f 79//79 89//89 91//91
f 79//79 91//91 81//81
f 81//81 91//91 90//90
f 81//81 90//90 80//80
f 82//82 92//92 93//93
f 82//82 93//93 83//83
f 84//84 94//94 92//92
f 84//84 92//92 82//82
f 83//83 93//93 95//95
f 83//83 95//95 85//85
f 86//86 96//96 94//94
f 86//86 94//94 84//84
f 85//85 95//95 97//97
f 85//85 97//97 87//87
f 88//88 98//98 96//96
f 88//88 96//96 86//86
f 87//87 97//97 99//99
f 87//87 99//99 89//89
f 90//90 100//100 98//98
f 90//90 98//98 88//88
f 89//89 99//99 101//101
f 89//89 101//101 91//91
f 91//91 101//101 100//100
f 91//91 100//100 90//90
f 92//92 102//102 103//103
f 92//92 103//103 93//93
f 94//94 104//104 102//102
f 94//94 102//102 92//92
f 93//93 103//103 105//105
f 93//93 105//105 95//95
f 96//96 106//106 104//104
f 96//96 104//104 94//94
f 95//95 105//105 107//107
f 95//95 107//107 97//97
f 98//98 108//108 106//106
f 98//98 106//106 96//96
f 97//97 107//107 109//109
f 97//97 109//109 99//99
f 100//100 110//110 108//108
f 100//100 108//108 98//98
f 99//99 109//109 111//111
f 99//99 111//111 101//101
f 101//101 111//111 110//110
f 101//101 110//110 100//100
f 102//102 112//112 113//113
f 102//102 113//113 103//103
f 104//104 114//114 112//112
f 104//104 112//112 102//102
f 103//103 113//113 115//115
f 103//103 115//115 105//105
f 106//106 116//116 114//114
f 106//106 114//114 104//104
f 105//105 115//115 117//117
f 105//105 117//117 107//107
f 108//108 118//118 116//116
f 108//108 116//116 106//106
f 107//107 117//117 119//119
f 107//107 119//119 109//109
f 110//110 120//120 118//118
f 110//110 118//118 108//108
f 109//109 119//119 121//121
f 109//109 121//121 111//111
f 111//111 121//121 120//120
f 111//111 120//120 110//110
f 112//112 122//122 113//113
f 114//114 122//122 112//112
f 113//113 122//122 115//115
f 116//116 122//122 114//114
f 115//115 122//122 117//117
f 118//118 122//122 116//116
f 117//117 122//122 119//119
f 120//120 122//122 118//118
f 119//119 122//122 121//121
f 121//121 122//122 120//120
# 240 faces, 0 coords texture

# End of File
