####
#
# OBJ File Generated by Meshlab
#
####
# Object ring_distal_rvs.obj
#
# Vertices: 125
# Faces: 246
#
####
vn -0.362105 -5.759855 1.778700
v 0.060663 -0.162418 -0.028044
vn -0.343025 -5.991926 -0.995537
v 0.062625 -0.162587 -0.029903
vn 0.084706 -4.508642 3.510736
v 0.061751 -0.161772 -0.026194
vn -1.061320 -5.400187 2.450587
v 0.056047 -0.161276 -0.027507
vn -1.108121 -5.822019 0.302822
v 0.058974 -0.162445 -0.028973
vn -0.944831 -4.108654 4.118649
v 0.060459 -0.161124 -0.025728
vn -0.790307 -2.418583 5.189869
v 0.057141 -0.160399 -0.026383
vn -2.648071 -2.844795 4.107915
v 0.057786 -0.160296 -0.026170
vn 0.035444 -5.430202 1.171882
v 0.063336 -0.162713 -0.028203
vn 2.899286 -4.330326 -0.978491
v 0.064185 -0.162522 -0.029573
vn -1.114284 -5.126885 -3.393541
v 0.060317 -0.161820 -0.030937
vn -0.966032 -5.365879 -2.540624
v 0.059537 -0.162301 -0.030051
vn 1.512338 -3.402455 -3.207264
v 0.063434 -0.162331 -0.030820
vn -0.623684 -5.163849 -3.310473
v 0.062424 -0.161933 -0.031430
vn 1.857861 -0.051545 4.344932
v 0.062155 -0.160906 -0.025664
vn 2.624781 -0.547343 1.860414
v 0.064163 -0.161995 -0.027275
vn -0.104723 -5.661687 2.201734
v 0.052889 -0.160143 -0.025951
vn 0.364057 -3.939080 4.833265
v 0.055399 -0.160444 -0.026591
vn -0.104713 -6.194875 -0.797863
v 0.048893 -0.159822 -0.030862
vn -1.623362 -5.825482 -0.822799
v 0.056645 -0.161718 -0.029505
vn 0.667200 0.693658 3.885927
v 0.059410 -0.159784 -0.024980
vn -0.382616 0.295085 4.472449
v 0.058123 -0.159411 -0.024991
vn -0.854281 0.163976 0.254147
v 0.057512 -0.159324 -0.025102
vn -3.833587 -1.582376 0.976871
v 0.057813 -0.159667 -0.025377
vn 1.166138 0.864459 4.961510
v 0.055917 -0.159831 -0.026273
vn 0.214694 3.523732 4.815318
v 0.056927 -0.159878 -0.026477
vn -2.181303 5.116050 2.007183
v 0.057727 -0.159666 -0.026540
vn 2.973045 -0.998906 0.153793
v 0.064730 -0.162332 -0.028770
vn 2.585031 -0.954095 -1.903159
v 0.064194 -0.162269 -0.030471
vn 4.567059 2.517534 -1.020570
v 0.064459 -0.161852 -0.029217
vn -1.343895 -4.758617 -3.148092
v 0.058060 -0.160510 -0.031381
vn 0.963595 0.203444 -2.570974
v 0.061525 -0.161122 -0.032219
vn -2.028279 -3.976611 -3.592016
v 0.058682 -0.160582 -0.032177
vn -0.451319 -0.867578 -5.270025
v 0.056682 -0.160433 -0.031303
vn -0.947243 -3.082023 -5.108080
v 0.057264 -0.160583 -0.031254
vn -0.520144 -4.098781 -4.421213
v 0.055131 -0.160731 -0.030866
vn 1.582141 -0.225637 -2.778832
v 0.062892 -0.161819 -0.031599
vn 1.316517 3.505500 -2.402379
v 0.063270 -0.161427 -0.030892
vn 3.112928 3.625378 2.117193
v 0.062668 -0.160596 -0.026272
vn 3.029310 5.158928 -0.306072
v 0.063084 -0.160721 -0.028432
vn 1.409602 -3.671356 4.747973
v 0.053566 -0.159911 -0.025797
vn 1.842471 -4.921444 3.133266
v 0.050977 -0.159556 -0.024431
vn 0.482024 -6.144233 0.799833
v 0.050277 -0.159981 -0.025368
vn 3.682785 0.238216 4.702768
v 0.053355 -0.158910 -0.025270
vn -0.180762 -5.069305 -3.343992
v 0.050915 -0.159998 -0.031331
vn -0.248407 -6.074965 -0.734173
v 0.047088 -0.160084 -0.030072
vn -0.337890 -5.699370 -2.514521
v 0.049301 -0.159645 -0.031696
vn -0.348363 -5.853369 0.931910
v 0.048466 -0.160170 -0.024386
vn -0.871155 3.884058 0.784931
v 0.058209 -0.158989 -0.025393
vn -1.097723 6.083665 -0.423672
v 0.058169 -0.159491 -0.027156
vn 0.283270 5.845385 1.979537
v 0.057095 -0.159629 -0.026894
vn 2.201606 5.336665 2.198660
v 0.056025 -0.159259 -0.027052
vn 3.180067 4.688826 2.162021
v 0.055074 -0.158827 -0.026720
vn -3.725010 -1.673041 -1.448344
v 0.057660 -0.160127 -0.031996
vn 0.248961 -1.197465 -5.092982
v 0.059432 -0.160333 -0.032563
vn 2.015076 3.882826 -2.768199
v 0.059524 -0.159800 -0.032356
vn 1.525018 5.976882 -0.533440
v 0.059867 -0.159685 -0.029121
vn -0.274510 4.949885 -3.385915
v 0.056909 -0.159885 -0.030993
vn -3.366609 4.428319 -1.944901
v 0.057644 -0.159938 -0.031350
vn -0.827554 3.304051 -2.817661
v 0.056288 -0.160038 -0.031198
vn -0.216049 0.050391 -6.001163
v 0.055644 -0.160223 -0.031117
vn 1.185580 -1.706676 -5.750552
v 0.053752 -0.159656 -0.031413
vn 3.895776 -1.614020 4.298082
v 0.051620 -0.158275 -0.023730
vn -0.057198 -5.063584 2.481025
v 0.048846 -0.159910 -0.023384
vn 0.329001 -1.976573 4.196234
v 0.049561 -0.158921 -0.022315
vn -0.639066 -2.990688 3.769270
v 0.049134 -0.159425 -0.022691
vn 4.678476 1.461091 3.916339
v 0.052896 -0.158192 -0.025064
vn 3.891525 3.778156 2.838679
v 0.053506 -0.157991 -0.025970
vn 1.458526 -2.737933 -5.372628
v 0.051682 -0.158591 -0.032357
vn 1.287017 -4.210010 -4.076553
v 0.049996 -0.159049 -0.032716
vn -2.429749 -1.159564 -1.486017
v 0.046943 -0.159528 -0.031873
vn -1.905419 -0.524605 -0.615763
v 0.045933 -0.159893 -0.030274
vn -2.308766 -0.747447 0.498246
v 0.046038 -0.159865 -0.026954
vn -3.171640 -3.889280 2.045455
v 0.047705 -0.159944 -0.024371
vn 0.820726 6.173254 -0.332239
v 0.057566 -0.159440 -0.028938
vn 2.773076 5.394855 -1.245407
v 0.055723 -0.158924 -0.029558
vn 3.860340 4.831497 -0.705179
v 0.053913 -0.157927 -0.030249
vn 2.248134 5.506386 0.747837
v 0.050208 -0.155316 -0.026603
vn -0.872808 -0.792199 -3.918324
v 0.058040 -0.159900 -0.032621
vn -0.914277 4.170916 -1.351293
v 0.058099 -0.159414 -0.032295
vn -0.639302 0.132401 -0.135455
v 0.057209 -0.159701 -0.032426
vn 0.674219 2.267632 -4.998663
v 0.058810 -0.159824 -0.032604
vn -1.395534 6.005396 0.058579
v 0.058037 -0.159732 -0.031021
vn 1.809436 3.845662 -4.155432
v 0.055729 -0.159558 -0.030859
vn 2.929314 2.894951 -4.153162
v 0.054791 -0.159039 -0.030995
vn 2.645300 -1.038086 -5.535653
v 0.051534 -0.157374 -0.032803
vn 2.937413 0.315675 4.579542
v 0.050526 -0.157658 -0.022456
vn 4.157857 2.561232 2.760303
v 0.051540 -0.157064 -0.023667
vn -3.126600 -2.681925 3.808913
v 0.048340 -0.159649 -0.023335
vn 0.273479 1.520862 4.926767
v 0.049805 -0.157403 -0.022222
vn -3.802450 0.407799 4.022959
v 0.048837 -0.157721 -0.022553
vn -4.786392 0.090732 2.960755
v 0.047995 -0.159333 -0.023588
vn 0.828476 -1.458210 -5.012928
v 0.049126 -0.157903 -0.034008
vn -2.051402 -1.744374 -2.654034
v 0.047919 -0.158865 -0.033390
vn -4.641795 4.168976 -0.572275
v 0.047464 -0.158427 -0.028324
vn -5.582644 0.699566 0.100083
v 0.048987 -0.156266 -0.029745
vn -5.067763 3.679264 0.177829
v 0.048123 -0.157616 -0.028291
vn -5.951641 1.701644 -0.360042
v 0.048188 -0.157617 -0.032850
vn -5.280802 2.984601 0.805375
v 0.048280 -0.158231 -0.025145
vn 2.837692 4.146049 -2.816187
v 0.050661 -0.155483 -0.032947
vn 2.872427 4.771601 -1.023083
v 0.050876 -0.155283 -0.032207
vn -2.445163 2.908148 -0.069300
v 0.048719 -0.154913 -0.029205
vn -0.341817 5.530559 1.609481
v 0.049048 -0.155387 -0.024826
vn 2.757801 5.013596 2.058214
v 0.050380 -0.156110 -0.023833
vn 1.938837 2.158091 -4.494379
v 0.050354 -0.155820 -0.033507
vn 3.326377 3.150068 3.377902
v 0.051051 -0.156847 -0.023228
vn 0.801402 4.189045 3.873577
v 0.049923 -0.156382 -0.023035
vn -3.313531 1.727605 3.369607
v 0.048799 -0.157054 -0.022719
vn -6.112609 0.801676 0.734989
v 0.048490 -0.157610 -0.023934
vn -2.515356 1.347963 -3.029161
v 0.048399 -0.156450 -0.033827
vn -3.195433 0.178926 -3.371929
v 0.048267 -0.157531 -0.033899
vn -1.664196 1.391186 -0.810779
v 0.048702 -0.155940 -0.033684
vn -5.192945 3.509445 0.378065
v 0.048479 -0.157083 -0.028334
vn -4.276664 2.524047 -0.634113
v 0.048368 -0.155497 -0.032252
vn -5.750599 1.360309 -0.268313
v 0.048791 -0.156591 -0.028656
vn -6.061422 -1.123106 -0.484833
v 0.048621 -0.155931 -0.028263
vn -5.525902 -0.172888 0.038959
v 0.048903 -0.156366 -0.027285
vn -5.354007 1.678962 -0.006534
v 0.048821 -0.156655 -0.027883
vn 1.203004 5.337962 -2.579740
v 0.050097 -0.155307 -0.032948
vn -0.789495 5.275598 -1.079544
v 0.049301 -0.154896 -0.032157
vn -3.804172 1.809794 0.096488
v 0.048384 -0.155292 -0.027096
vn 0.893193 5.226526 2.602153
v 0.049775 -0.155905 -0.023726
vn -3.308809 2.350461 1.971463
v 0.048410 -0.156009 -0.023879
vn -3.824970 2.021042 0.104747
v 0.048251 -0.155543 -0.025509
vn -1.540347 3.984435 -2.993161
v 0.049139 -0.155493 -0.033391
# 125 vertices, 0 vertices normals

f 1//1 2//2 3//3
f 4//4 5//5 1//1
f 1//1 3//3 6//6
f 4//4 1//1 7//7
f 8//8 7//7 1//1
f 5//5 2//2 1//1
f 8//8 1//1 6//6
f 3//3 2//2 9//9
f 2//2 10//10 9//9
f 11//11 2//2 12//12
f 2//2 5//5 12//12
f 10//10 2//2 13//13
f 11//11 14//14 2//2
f 14//14 13//13 2//2
f 6//6 3//3 15//15
f 16//16 3//3 9//9
f 15//15 3//3 16//16
f 17//17 4//4 18//18
f 19//19 4//4 17//17
f 7//7 18//18 4//4
f 20//20 5//5 4//4
f 19//19 20//20 4//4
f 5//5 20//20 12//12
f 6//6 15//15 21//21
f 22//22 23//23 6//6
f 23//23 24//24 6//6
f 6//6 21//21 22//22
f 6//6 24//24 8//8
f 18//18 7//7 25//25
f 7//7 26//26 25//25
f 26//26 7//7 8//8
f 8//8 27//27 26//26
f 8//8 24//24 27//27
f 9//9 28//28 16//16
f 10//10 28//28 9//9
f 10//10 13//13 29//29
f 10//10 29//29 30//30
f 28//28 10//10 30//30
f 11//11 12//12 31//31
f 32//32 14//14 11//11
f 33//33 32//32 11//11
f 31//31 33//33 11//11
f 34//34 35//35 12//12
f 20//20 36//36 12//12
f 12//12 36//36 34//34
f 31//31 12//12 35//35
f 14//14 37//37 13//13
f 13//13 37//37 38//38
f 13//13 38//38 29//29
f 32//32 37//37 14//14
f 15//15 39//39 21//21
f 39//39 15//15 16//16
f 16//16 28//28 30//30
f 16//16 40//40 39//39
f 30//30 40//40 16//16
f 18//18 41//41 17//17
f 41//41 42//42 17//17
f 43//43 17//17 42//42
f 17//17 43//43 19//19
f 25//25 44//44 18//18
f 41//41 18//18 44//44
f 45//45 20//20 19//19
f 19//19 46//46 47//47
f 47//47 45//45 19//19
f 48//48 46//46 19//19
f 48//48 19//19 43//43
f 36//36 20//20 45//45
f 21//21 49//49 22//22
f 49//49 21//21 39//39
f 22//22 49//49 23//23
f 23//23 49//49 24//24
f 50//50 24//24 49//49
f 27//27 24//24 50//50
f 26//26 51//51 25//25
f 52//52 25//25 51//51
f 52//52 53//53 25//25
f 53//53 44//44 25//25
f 27//27 51//51 26//26
f 27//27 50//50 51//51
f 38//38 30//30 29//29
f 40//40 30//30 38//38
f 31//31 54//54 33//33
f 31//31 35//35 54//54
f 55//55 32//32 33//33
f 37//37 32//32 40//40
f 32//32 55//55 56//56
f 56//56 57//57 32//32
f 32//32 57//57 40//40
f 33//33 54//54 55//55
f 34//34 58//58 59//59
f 34//34 59//59 35//35
f 58//58 34//34 60//60
f 34//34 36//36 61//61
f 60//60 34//34 61//61
f 54//54 35//35 59//59
f 45//45 62//62 36//36
f 62//62 61//61 36//36
f 40//40 38//38 37//37
f 57//57 39//39 40//40
f 49//49 39//39 57//57
f 63//63 42//42 41//41
f 44//44 63//63 41//41
f 48//48 43//43 42//42
f 64//64 48//48 42//42
f 65//65 66//66 42//42
f 66//66 64//64 42//42
f 65//65 42//42 63//63
f 67//67 44//44 68//68
f 63//63 44//44 67//67
f 68//68 44//44 53//53
f 69//69 62//62 45//45
f 70//70 69//69 45//45
f 70//70 45//45 47//47
f 71//71 47//47 46//46
f 46//46 72//72 71//71
f 72//72 46//46 73//73
f 73//73 46//46 74//74
f 46//46 48//48 74//74
f 70//70 47//47 71//71
f 74//74 48//48 64//64
f 49//49 57//57 50//50
f 75//75 51//51 50//50
f 50//50 57//57 75//75
f 51//51 76//76 77//77
f 51//51 77//77 52//52
f 51//51 75//75 76//76
f 77//77 53//53 52//52
f 78//78 53//53 77//77
f 68//68 53//53 78//78
f 54//54 79//79 55//55
f 54//54 59//59 80//80
f 79//79 54//54 81//81
f 81//81 54//54 80//80
f 82//82 56//56 55//55
f 79//79 82//82 55//55
f 56//56 80//80 57//57
f 82//82 80//80 56//56
f 57//57 83//83 75//75
f 57//57 80//80 83//83
f 75//75 58//58 84//84
f 83//83 59//59 58//58
f 75//75 83//83 58//58
f 61//61 84//84 58//58
f 61//61 58//58 60//60
f 59//59 83//83 80//80
f 62//62 85//85 61//61
f 61//61 85//85 84//84
f 62//62 86//86 85//85
f 69//69 86//86 62//62
f 87//87 65//65 63//63
f 88//88 63//63 67//67
f 87//87 63//63 88//88
f 66//66 89//89 64//64
f 74//74 64//64 89//89
f 65//65 87//87 90//90
f 66//66 65//65 91//91
f 91//91 65//65 90//90
f 92//92 89//89 66//66
f 91//91 92//92 66//66
f 88//88 67//67 68//68
f 88//88 68//68 78//78
f 69//69 70//70 86//86
f 93//93 70//70 94//94
f 71//71 94//94 70//70
f 86//86 70//70 93//93
f 72//72 95//95 71//71
f 96//96 71//71 97//97
f 94//94 71//71 98//98
f 96//96 98//98 71//71
f 71//71 95//95 97//97
f 73//73 95//95 72//72
f 92//92 73//73 74//74
f 92//92 99//99 73//73
f 95//95 73//73 97//97
f 73//73 99//99 97//97
f 92//92 74//74 89//89
f 84//84 76//76 75//75
f 77//77 76//76 85//85
f 84//84 85//85 76//76
f 100//100 77//77 85//85
f 77//77 100//100 101//101
f 77//77 101//101 78//78
f 102//102 78//78 101//101
f 78//78 102//102 103//103
f 78//78 103//103 104//104
f 78//78 104//104 88//88
f 79//79 81//81 82//82
f 81//81 80//80 82//82
f 86//86 105//105 85//85
f 105//105 100//100 85//85
f 86//86 93//93 105//105
f 87//87 88//88 106//106
f 106//106 107//107 87//87
f 90//90 87//87 107//107
f 88//88 104//104 106//106
f 90//90 107//107 108//108
f 108//108 91//91 90//90
f 92//92 91//91 109//109
f 91//91 108//108 109//109
f 109//109 99//99 92//92
f 110//110 93//93 111//111
f 94//94 111//111 93//93
f 112//112 93//93 110//110
f 112//112 105//105 93//93
f 111//111 94//94 98//98
f 96//96 97//97 113//113
f 102//102 114//114 96//96
f 115//115 96//96 113//113
f 98//98 96//96 114//114
f 116//116 102//102 96//96
f 96//96 115//115 116//116
f 97//97 99//99 117//117
f 118//118 97//97 117//117
f 97//97 118//118 113//113
f 111//111 98//98 110//110
f 114//114 110//110 98//98
f 117//117 99//99 109//109
f 100//100 105//105 119//119
f 101//101 100//100 120//120
f 100//100 119//119 120//120
f 120//120 102//102 101//101
f 102//102 120//120 114//114
f 121//121 103//103 102//102
f 102//102 116//116 121//121
f 122//122 104//104 103//103
f 123//123 122//122 103//103
f 123//123 103//103 124//124
f 121//121 124//124 103//103
f 106//106 104//104 122//122
f 125//125 119//119 105//105
f 125//125 105//105 112//112
f 107//107 106//106 122//122
f 107//107 122//122 123//123
f 123//123 108//108 107//107
f 123//123 109//109 108//108
f 124//124 109//109 123//123
f 109//109 124//124 117//117
f 125//125 112//112 110//110
f 114//114 120//120 110//110
f 110//110 120//120 125//125
f 118//118 115//115 113//113
f 115//115 118//118 116//116
f 116//116 117//117 121//121
f 117//117 116//116 118//118
f 117//117 124//124 121//121
f 119//119 125//125 120//120
# 246 faces, 0 coords texture

# End of File
