####
#
# OBJ File Generated by Meshlab
#
####
# Object thumb_proximal_lvs.obj
#
# Vertices: 143
# Faces: 282
#
####
vn -0.420647 -0.067919 -5.103600
v 0.024320 -0.086802 -0.058527
vn 0.370272 -0.900370 -5.233584
v 0.024971 -0.088199 -0.058362
vn -3.075735 -2.083972 -4.793617
v 0.023482 -0.088596 -0.057583
vn -4.737895 -0.218071 -3.896277
v 0.020930 -0.086621 -0.055907
vn 3.309156 -2.265100 -3.033860
v 0.028529 -0.089046 -0.056372
vn 1.768066 1.995183 -5.121933
v 0.025271 -0.083367 -0.057624
vn 0.403640 1.993781 -5.903413
v 0.024275 -0.083407 -0.057690
vn -2.153407 -0.057453 -5.560720
v 0.021708 -0.081255 -0.057173
vn -4.454509 -1.285943 -4.179238
v 0.019351 -0.080269 -0.055407
vn -2.068174 -3.964862 -3.776023
v 0.023941 -0.089220 -0.057456
vn 1.196877 -2.024401 -3.656445
v 0.026051 -0.089274 -0.058004
vn -3.914846 0.024135 -3.314641
v 0.020920 -0.087187 -0.056084
vn -3.628270 -3.042047 -3.956597
v 0.022635 -0.088682 -0.056836
vn -4.849031 -1.770494 -3.285180
v 0.020702 -0.088128 -0.055181
vn -5.607351 -1.464820 -2.388484
v 0.019285 -0.081936 -0.054522
vn -5.955812 -1.168388 -1.104532
v 0.019345 -0.085321 -0.052841
vn -5.661015 -0.738734 -2.288599
v 0.020057 -0.087117 -0.054304
vn 4.653084 0.156649 -2.747620
v 0.029752 -0.085843 -0.055516
vn 4.181712 -1.580495 -2.752609
v 0.029047 -0.088479 -0.056044
vn 4.307756 1.236141 -2.838792
v 0.029643 -0.085166 -0.055543
vn 2.899419 2.703857 -3.297281
v 0.028573 -0.083967 -0.055996
vn 2.178721 3.526636 -3.742322
v 0.026105 -0.082795 -0.056859
vn 1.855653 -5.122279 -0.642996
v 0.027485 -0.089984 -0.055773
vn 3.585104 -4.675442 0.601911
v 0.028441 -0.089346 -0.055220
vn 1.889403 3.060658 -4.944432
v 0.025141 -0.082847 -0.057285
vn 1.786771 0.588505 -4.983775
v 0.023440 -0.077564 -0.057188
vn -2.906775 -0.758348 -5.275280
v 0.018301 -0.075162 -0.055818
vn -4.842727 -1.500257 -3.057374
v 0.015977 -0.073823 -0.054080
vn -2.208716 -4.490682 -3.182266
v 0.022055 -0.089277 -0.055598
vn -0.874384 -5.552984 -1.940619
v 0.024786 -0.089745 -0.056983
vn -4.482621 -1.985923 -2.741290
v 0.020610 -0.089488 -0.054421
vn -5.896636 -1.084658 -1.830834
v 0.020522 -0.088926 -0.054300
vn -5.315802 -1.216249 1.250134
v 0.018475 -0.082029 -0.051836
vn -5.244963 -0.308044 2.336320
v 0.019317 -0.084771 -0.050245
vn -5.879601 -1.322166 -1.713063
v 0.020529 -0.090146 -0.053394
vn -5.280570 -2.135628 -1.125615
v 0.020307 -0.090594 -0.052609
vn -2.474857 -3.271574 0.296521
v 0.020358 -0.090748 -0.051906
vn 4.824043 -0.698716 1.494826
v 0.029917 -0.086817 -0.054094
vn 4.559145 1.556219 1.924035
v 0.029714 -0.084894 -0.054091
vn 4.623830 -3.235713 0.899887
v 0.029217 -0.088512 -0.054708
vn 4.112597 3.917965 -0.855617
v 0.029235 -0.084062 -0.054870
vn 1.813625 5.785349 0.696237
v 0.026985 -0.082947 -0.054945
vn 3.175315 4.097607 1.534830
v 0.028910 -0.083778 -0.054143
vn 2.453640 4.730926 -1.633126
v 0.026746 -0.082776 -0.056353
vn 3.654814 3.855206 -2.407515
v 0.025585 -0.082468 -0.056387
vn 0.630031 -5.737690 0.769922
v 0.026149 -0.090134 -0.054532
vn 3.001906 -4.379766 2.862013
v 0.027690 -0.088926 -0.053068
vn 4.844941 1.396735 0.860848
v 0.025090 -0.079183 -0.055065
vn 1.399008 0.186892 -5.508444
v 0.023063 -0.073736 -0.056868
vn 4.843308 0.595345 -3.726878
v 0.023829 -0.073951 -0.056252
vn 5.519647 0.592082 -2.326218
v 0.024355 -0.075921 -0.055854
vn 1.963370 -1.301759 -5.262930
v 0.023464 -0.069849 -0.057123
vn -2.293151 -1.589046 -5.405642
v 0.017755 -0.067962 -0.056981
vn -4.860579 -1.370723 -3.577138
v 0.015136 -0.070790 -0.053837
vn -5.448086 -2.532303 -0.543234
v 0.013855 -0.070093 -0.051462
vn -5.410643 -2.211153 1.548076
v 0.017657 -0.079359 -0.051599
vn 0.166246 -5.253333 -2.408638
v 0.021539 -0.090979 -0.053261
vn -2.447292 -4.175408 -3.484642
v 0.021021 -0.090332 -0.054009
vn 2.137604 -5.279215 -0.747890
v 0.023413 -0.090909 -0.052161
vn 1.316421 -5.907863 -0.351109
v 0.024627 -0.089918 -0.053299
vn -2.661998 -3.391720 -0.161251
v 0.020529 -0.091132 -0.052423
vn -4.342812 1.395657 4.307160
v 0.019809 -0.083553 -0.050149
vn -1.470737 1.110779 5.439239
v 0.019881 -0.081905 -0.050521
vn -2.574294 -2.321760 4.236376
v 0.021727 -0.088547 -0.048265
vn -3.033331 -0.559618 3.869904
v 0.020848 -0.086017 -0.047746
vn -1.488525 3.581787 3.524817
v 0.021054 -0.084518 -0.048310
vn -3.534969 -3.981549 2.912994
v 0.020858 -0.090814 -0.051321
vn 2.909430 2.467708 4.541012
v 0.027647 -0.084613 -0.052422
vn 3.765949 -1.310369 3.902691
v 0.028461 -0.087542 -0.052445
vn 1.734766 5.038805 2.486793
v 0.027499 -0.083347 -0.053605
vn 2.673777 3.942718 3.291194
v 0.025417 -0.083157 -0.053586
vn 3.351050 4.542142 0.780623
v 0.026111 -0.082713 -0.055364
vn 3.269663 -4.693492 2.219478
v 0.025877 -0.089167 -0.051989
vn 4.269668 -1.804064 3.948496
v 0.026291 -0.087942 -0.051135
vn 2.427625 2.472990 5.103130
v 0.021720 -0.081717 -0.050962
vn 2.810574 2.014530 4.950731
v 0.022081 -0.082633 -0.050652
vn 3.350142 0.544390 5.114094
v 0.019192 -0.078821 -0.050948
vn 5.056288 0.242980 2.539420
v 0.024419 -0.075969 -0.054553
vn 5.617115 -0.930031 -2.147985
v 0.024418 -0.071786 -0.055422
vn 6.099458 -0.719113 0.088535
v 0.024567 -0.071807 -0.054479
vn 5.401485 -0.093022 0.866477
v 0.024422 -0.073977 -0.054808
vn 0.239800 -0.099604 -5.982993
v 0.022345 -0.063811 -0.058624
vn 2.919741 -0.382005 -4.613667
v 0.024745 -0.063741 -0.058222
vn -4.529483 -2.230460 -3.612888
v 0.014344 -0.068689 -0.053791
vn -3.653242 0.490394 -4.043885
v 0.014741 -0.065093 -0.056007
vn -1.028718 -0.235327 -4.927307
v 0.019276 -0.064824 -0.058591
vn -4.443130 -1.329431 1.667745
v 0.011828 -0.066475 -0.047756
vn -5.479973 0.783095 -1.260228
v 0.012063 -0.064817 -0.051271
vn -2.032470 -2.880543 3.895530
v 0.015567 -0.071244 -0.048266
vn -4.592728 -0.267795 -2.550339
v 0.012732 -0.065914 -0.053779
vn -0.774200 -1.078286 4.087346
v 0.018355 -0.079144 -0.050291
vn -0.450323 -4.841724 1.739296
v 0.021882 -0.091235 -0.050974
vn 3.118896 -4.104567 2.168410
v 0.024625 -0.089977 -0.050297
vn -0.435922 3.811386 3.853853
v 0.020755 -0.083824 -0.049113
vn 1.043633 2.566867 5.169479
v 0.021104 -0.082595 -0.050301
vn 2.629619 3.634778 4.090922
v 0.021419 -0.083539 -0.050077
vn 1.095480 -2.007419 4.874554
v 0.022833 -0.088699 -0.048173
vn -0.118262 -4.232286 3.664815
v 0.022505 -0.090237 -0.049464
vn 0.257882 1.676930 3.690601
v 0.021716 -0.085094 -0.047481
vn 2.862483 3.088142 3.523684
v 0.023603 -0.084895 -0.048968
vn 2.731419 3.677253 3.782263
v 0.022313 -0.083720 -0.050495
vn 3.829655 1.783412 4.483517
v 0.025969 -0.086153 -0.050881
vn 1.534984 4.359118 3.894720
v 0.026967 -0.083779 -0.052780
vn 2.653106 4.383779 3.519273
v 0.024746 -0.084390 -0.051438
vn 3.344732 -1.171582 3.795293
v 0.025016 -0.088403 -0.049124
vn 2.766056 -1.401567 5.310340
v 0.019194 -0.072829 -0.049581
vn 5.286302 0.013802 -1.838379
v 0.026277 -0.063227 -0.056076
vn 5.159390 -1.908479 2.477266
v 0.025259 -0.065781 -0.052506
vn 4.848692 -1.456949 3.182112
v 0.024352 -0.071836 -0.053660
vn -0.509877 2.953460 -4.964067
v 0.021915 -0.062311 -0.058270
vn 1.923953 2.498852 -3.310990
v 0.024702 -0.062011 -0.058028
vn -3.502680 4.034466 -1.676056
v 0.012803 -0.064138 -0.052302
vn -2.754469 3.919244 -2.422014
v 0.015916 -0.063285 -0.055900
vn -2.290215 4.270291 -3.269652
v 0.019904 -0.061662 -0.056987
vn -5.952892 1.323197 0.093857
v 0.011969 -0.064160 -0.048782
vn -3.217838 3.180373 0.902032
v 0.012292 -0.063384 -0.047818
vn -3.709268 1.356831 4.072889
v 0.013250 -0.064136 -0.046050
vn -2.092815 -1.644663 4.978885
v 0.015097 -0.065915 -0.044824
vn -3.444652 4.092631 -0.794551
v 0.012216 -0.063586 -0.048993
vn 3.150446 -2.296368 4.830133
v 0.019134 -0.069438 -0.048493
vn 1.346602 -1.203095 4.573661
v 0.017213 -0.065544 -0.044348
vn 4.487947 3.350143 -1.661017
v 0.025972 -0.061927 -0.055565
vn 5.460552 -0.508548 0.060481
v 0.026649 -0.063007 -0.053886
vn 3.292179 1.250177 2.375620
v 0.025722 -0.061847 -0.050411
vn 1.677842 5.047886 -3.143418
v 0.023869 -0.061251 -0.056601
vn 0.125064 4.728909 -3.804323
v 0.022478 -0.060673 -0.056546
vn -1.405301 4.910066 -3.273831
v 0.021244 -0.061102 -0.056890
vn 1.757481 5.383139 0.080902
v 0.024561 -0.060478 -0.053966
vn -2.214130 5.778759 0.388874
v 0.020468 -0.062084 -0.051420
vn 0.436802 4.682826 2.404002
v 0.020812 -0.061883 -0.047870
vn -2.274997 5.529796 -0.510747
v 0.021661 -0.060465 -0.055611
vn -2.121394 4.566803 2.207234
v 0.013598 -0.063146 -0.046594
vn -1.171114 4.837350 3.017793
v 0.015524 -0.063075 -0.045588
vn -1.897032 1.871790 4.832160
v 0.015203 -0.064086 -0.044767
vn 0.834781 1.749727 4.817623
v 0.017109 -0.064161 -0.044415
vn 2.983871 1.148156 4.562986
v 0.019415 -0.063393 -0.046107
vn 4.356789 3.067450 0.416283
v 0.026286 -0.061565 -0.053068
vn 1.167014 4.731285 2.294625
v 0.024138 -0.061054 -0.050168
vn 2.328471 4.272690 -3.042543
v 0.023421 -0.060430 -0.056087
vn 0.366451 5.126740 -0.868064
v 0.023029 -0.060030 -0.055576
vn -1.594093 5.686113 1.344691
v 0.022277 -0.060285 -0.054909
vn -1.105825 5.947363 1.532545
v 0.022906 -0.060895 -0.053180
vn 0.412162 4.794692 3.614148
v 0.017090 -0.063046 -0.045492
# 143 vertices, 0 vertices normals

f 1//1 2//2 3//3
f 1//1 3//3 4//4
f 2//2 1//1 5//5
f 6//6 1//1 7//7
f 5//5 1//1 6//6
f 7//7 1//1 8//8
f 1//1 4//4 9//9
f 8//8 1//1 9//9
f 3//3 2//2 10//10
f 2//2 5//5 11//11
f 10//10 2//2 11//11
f 4//4 3//3 12//12
f 3//3 13//13 12//12
f 13//13 3//3 10//10
f 14//14 4//4 12//12
f 4//4 15//15 9//9
f 4//4 16//16 15//15
f 17//17 16//16 4//4
f 4//4 14//14 17//17
f 5//5 18//18 19//19
f 18//18 5//5 20//20
f 5//5 21//21 20//20
f 5//5 22//22 21//21
f 5//5 6//6 22//22
f 11//11 5//5 23//23
f 24//24 5//5 19//19
f 24//24 23//23 5//5
f 7//7 25//25 6//6
f 22//22 6//6 25//25
f 25//25 7//7 8//8
f 8//8 26//26 25//25
f 26//26 8//8 27//27
f 8//8 9//9 28//28
f 28//28 27//27 8//8
f 15//15 28//28 9//9
f 29//29 13//13 10//10
f 11//11 30//30 10//10
f 10//10 30//30 29//29
f 30//30 11//11 23//23
f 14//14 12//12 13//13
f 13//13 29//29 14//14
f 14//14 29//29 31//31
f 17//17 14//14 32//32
f 31//31 32//32 14//14
f 33//33 15//15 16//16
f 28//28 15//15 33//33
f 34//34 33//33 16//16
f 35//35 36//36 16//16
f 17//17 35//35 16//16
f 16//16 37//37 34//34
f 16//16 36//36 37//37
f 35//35 17//17 32//32
f 19//19 18//18 38//38
f 20//20 39//39 18//18
f 39//39 38//38 18//18
f 19//19 38//38 40//40
f 24//24 19//19 40//40
f 39//39 20//20 41//41
f 41//41 20//20 21//21
f 42//42 43//43 21//21
f 22//22 44//44 21//21
f 21//21 44//44 42//42
f 21//21 43//43 41//41
f 25//25 45//45 22//22
f 22//22 45//45 44//44
f 30//30 23//23 46//46
f 46//46 23//23 24//24
f 47//47 24//24 40//40
f 46//46 24//24 47//47
f 48//48 25//25 26//26
f 25//25 48//48 45//45
f 27//27 49//49 26//26
f 50//50 26//26 49//49
f 26//26 51//51 48//48
f 26//26 50//50 51//51
f 52//52 27//27 53//53
f 27//27 52//52 49//49
f 54//54 53//53 27//27
f 27//27 28//28 54//54
f 54//54 28//28 55//55
f 56//56 55//55 28//28
f 28//28 33//33 56//56
f 57//57 58//58 29//29
f 29//29 30//30 46//46
f 58//58 31//31 29//29
f 59//59 29//29 60//60
f 59//59 57//57 29//29
f 46//46 60//60 29//29
f 31//31 58//58 61//61
f 35//35 31//31 61//61
f 35//35 32//32 31//31
f 33//33 34//34 62//62
f 33//33 62//62 63//63
f 63//63 56//56 33//33
f 34//34 37//37 64//64
f 65//65 34//34 64//64
f 65//65 66//66 34//34
f 62//62 34//34 66//66
f 36//36 35//35 61//61
f 67//67 37//37 36//36
f 67//67 36//36 61//61
f 67//67 64//64 37//37
f 38//38 68//68 69//69
f 69//69 40//40 38//38
f 68//68 38//38 39//39
f 39//39 43//43 68//68
f 43//43 39//39 41//41
f 40//40 69//69 47//47
f 43//43 42//42 70//70
f 42//42 71//71 70//70
f 71//71 42//42 72//72
f 42//42 44//44 72//72
f 68//68 43//43 70//70
f 45//45 72//72 44//44
f 45//45 48//48 72//72
f 73//73 46//46 47//47
f 73//73 60//60 46//46
f 47//47 74//74 73//73
f 74//74 47//47 69//69
f 48//48 75//75 76//76
f 71//71 48//48 76//76
f 77//77 75//75 48//48
f 78//78 77//77 48//48
f 48//48 71//71 72//72
f 51//51 78//78 48//48
f 49//49 79//79 50//50
f 79//79 49//49 52//52
f 50//50 80//80 81//81
f 51//51 50//50 81//81
f 80//80 50//50 79//79
f 78//78 51//51 81//81
f 53//53 82//82 52//52
f 82//82 83//83 52//52
f 79//79 52//52 83//83
f 84//84 53//53 54//54
f 85//85 53//53 84//84
f 53//53 86//86 82//82
f 53//53 85//85 86//86
f 84//84 54//54 55//55
f 87//87 88//88 55//55
f 89//89 55//55 56//56
f 90//90 84//84 55//55
f 55//55 88//88 90//90
f 89//89 87//87 55//55
f 56//56 63//63 91//91
f 56//56 91//91 89//89
f 57//57 61//61 58//58
f 57//57 92//92 61//61
f 92//92 57//57 59//59
f 93//93 59//59 60//60
f 92//92 59//59 93//93
f 73//73 93//93 60//60
f 61//61 92//92 67//67
f 62//62 94//94 63//63
f 62//62 66//66 94//94
f 91//91 63//63 77//77
f 63//63 76//76 75//75
f 63//63 95//95 76//76
f 96//96 63//63 94//94
f 96//96 95//95 63//63
f 77//77 63//63 75//75
f 92//92 64//64 67//67
f 97//97 64//64 98//98
f 65//65 64//64 97//97
f 64//64 92//92 98//98
f 65//65 97//97 99//99
f 65//65 99//99 66//66
f 94//94 66//66 96//96
f 100//100 66//66 99//99
f 100//100 101//101 66//66
f 96//96 66//66 101//101
f 69//69 68//68 102//102
f 102//102 68//68 103//103
f 68//68 70//70 103//103
f 74//74 69//69 102//102
f 70//70 71//71 103//103
f 71//71 76//76 101//101
f 71//71 101//101 104//104
f 103//103 71//71 104//104
f 73//73 105//105 93//93
f 105//105 73//73 74//74
f 102//102 105//105 74//74
f 95//95 101//101 76//76
f 106//106 89//89 77//77
f 77//77 78//78 106//106
f 77//77 89//89 91//91
f 78//78 81//81 106//106
f 79//79 83//83 107//107
f 108//108 80//80 79//79
f 108//108 79//79 107//107
f 81//81 80//80 109//109
f 80//80 108//108 109//109
f 106//106 81//81 109//109
f 82//82 86//86 110//110
f 82//82 110//110 111//111
f 82//82 111//111 83//83
f 107//107 83//83 111//111
f 85//85 84//84 90//90
f 112//112 85//85 90//90
f 112//112 113//113 85//85
f 86//86 85//85 113//113
f 110//110 86//86 114//114
f 114//114 86//86 113//113
f 87//87 115//115 88//88
f 87//87 116//116 115//115
f 116//116 87//87 117//117
f 87//87 89//89 118//118
f 87//87 118//118 117//117
f 119//119 88//88 115//115
f 112//112 90//90 88//88
f 88//88 119//119 112//112
f 89//89 106//106 120//120
f 89//89 121//121 118//118
f 120//120 121//121 89//89
f 92//92 93//93 98//98
f 98//98 93//93 105//105
f 101//101 95//95 96//96
f 97//97 98//98 105//105
f 97//97 100//100 99//99
f 97//97 105//105 100//100
f 104//104 101//101 100//100
f 102//102 104//104 100//100
f 100//100 105//105 102//102
f 102//102 103//103 104//104
f 106//106 109//109 108//108
f 120//120 106//106 108//108
f 111//111 122//122 107//107
f 108//108 107//107 123//123
f 123//123 107//107 122//122
f 108//108 124//124 120//120
f 123//123 124//124 108//108
f 125//125 110//110 126//126
f 125//125 111//111 110//110
f 114//114 127//127 110//110
f 126//126 110//110 127//127
f 111//111 125//125 128//128
f 122//122 111//111 128//128
f 113//113 112//112 129//129
f 130//130 112//112 119//119
f 130//130 129//129 112//112
f 114//114 113//113 131//131
f 129//129 131//131 113//113
f 127//127 114//114 131//131
f 115//115 116//116 119//119
f 130//130 119//119 116//116
f 116//116 117//117 132//132
f 130//130 116//116 132//132
f 132//132 117//117 133//133
f 117//117 118//118 134//134
f 133//133 117//117 134//134
f 118//118 135//135 134//134
f 135//135 118//118 121//121
f 136//136 120//120 124//124
f 120//120 136//136 121//121
f 121//121 136//136 135//135
f 128//128 137//137 122//122
f 137//137 123//123 122//122
f 124//124 123//123 137//137
f 130//130 124//124 138//138
f 130//130 136//136 124//124
f 128//128 124//124 137//137
f 124//124 128//128 138//138
f 126//126 139//139 125//125
f 125//125 139//139 128//128
f 126//126 127//127 140//140
f 126//126 140//140 139//139
f 127//127 131//131 140//140
f 139//139 140//140 128//128
f 128//128 140//140 141//141
f 138//138 128//128 142//142
f 142//142 128//128 141//141
f 129//129 141//141 131//131
f 129//129 142//142 141//141
f 130//130 142//142 129//129
f 143//143 136//136 130//130
f 133//133 130//130 132//132
f 130//130 133//133 143//143
f 138//138 142//142 130//130
f 141//141 140//140 131//131
f 133//133 134//134 135//135
f 143//143 133//133 135//135
f 136//136 143//143 135//135
# 282 faces, 0 coords texture

# End of File
