####
#
# OBJ File Generated by Meshlab
#
####
# Object trapezoid_lvs.obj
#
# Vertices: 65
# Faces: 126
#
####
vn -1.694677 4.044536 -2.491926
v -0.008342 -0.018183 -0.014597
vn -2.554552 4.920302 1.383829
v -0.009152 -0.018579 -0.011381
vn 0.554383 3.905954 -1.519115
v -0.005640 -0.017322 -0.013969
vn 0.467042 2.597098 -5.469184
v -0.007001 -0.018645 -0.014963
vn -4.513103 3.370275 0.203966
v -0.012866 -0.021554 -0.012787
vn -2.185457 2.009931 -3.712940
v -0.012424 -0.022626 -0.016288
vn 0.422692 5.979705 1.571158
v -0.005005 -0.017888 -0.012336
vn -0.649497 5.155577 2.939248
v -0.007020 -0.018929 -0.009347
vn -0.494377 4.046415 4.193405
v -0.007563 -0.020459 -0.007417
vn -1.917916 3.349159 3.891370
v -0.010093 -0.022503 -0.006132
vn -4.515392 3.246780 2.700062
v -0.011256 -0.023327 -0.006809
vn 2.148684 4.322924 -3.301596
v -0.001362 -0.019175 -0.013396
vn 1.899532 5.934471 0.170787
v -0.004191 -0.018032 -0.013093
vn 0.577689 2.088055 -5.848126
v -0.003985 -0.022220 -0.015605
vn -5.627664 1.072595 0.903133
v -0.015117 -0.028125 -0.009671
vn -2.030092 -0.454192 -2.483861
v -0.013952 -0.025192 -0.016289
vn 0.072934 -1.040322 -5.899248
v -0.008494 -0.023872 -0.016299
vn 0.219375 0.531534 -6.068996
v -0.005123 -0.023686 -0.016152
vn 1.309672 5.663014 0.365271
v -0.002906 -0.018125 -0.011902
vn 0.946364 5.175806 3.022125
v -0.002581 -0.018806 -0.010179
vn -1.909957 1.802201 4.541007
v -0.011297 -0.026951 -0.003743
vn 1.851034 2.205878 5.233419
v -0.003941 -0.023957 -0.005821
vn 1.103510 4.019688 4.603405
v -0.004254 -0.020008 -0.008510
vn -3.546519 0.413434 4.126168
v -0.012474 -0.028571 -0.004128
vn -5.207332 0.665553 2.461593
v -0.014417 -0.028937 -0.007008
vn 2.238081 5.465231 -0.835854
v -0.001115 -0.018735 -0.011972
vn 1.254480 4.300259 -4.176421
v -0.000022 -0.020573 -0.014252
vn 1.434422 -0.339620 -5.956330
v -0.001224 -0.025076 -0.015969
vn 0.415753 1.715014 -5.132608
v -0.000670 -0.022598 -0.016138
vn -2.352233 -2.239749 -1.705465
v -0.015018 -0.029889 -0.011884
vn -2.064125 -2.879807 -0.342851
v -0.014657 -0.031399 -0.008937
vn -0.064903 -3.863414 -4.904696
v -0.009016 -0.025610 -0.015160
vn -1.202164 -3.545511 -4.573181
v -0.005093 -0.026480 -0.015521
vn 0.359148 -1.938586 -4.352919
v -0.002014 -0.026752 -0.016319
vn 1.509213 5.293824 1.815805
v -0.000975 -0.018851 -0.010678
vn 0.958035 3.344095 5.099964
v 0.000393 -0.020715 -0.009054
vn 1.305802 5.183381 3.040014
v 0.000162 -0.019606 -0.010179
vn 1.516775 -1.435617 4.170652
v -0.008555 -0.028758 -0.003451
vn -0.059967 -2.273287 4.756265
v -0.010598 -0.029688 -0.003593
vn 2.211548 1.516126 5.575161
v -0.000543 -0.023223 -0.007838
vn 3.006288 -0.172233 5.498752
v 0.000435 -0.025272 -0.008175
vn 2.094995 -0.928114 4.469352
v -0.005145 -0.026982 -0.004535
vn 3.314692 -0.077968 5.268283
v -0.002120 -0.025547 -0.006657
vn -1.233842 -3.220345 3.280226
v -0.012061 -0.030866 -0.004507
vn -1.639964 -3.215400 1.122352
v -0.013586 -0.031691 -0.006527
vn 2.061589 5.732895 -0.563697
v 0.000064 -0.019271 -0.011494
vn 2.810302 1.837498 -1.075640
v 0.003124 -0.020047 -0.012583
vn 2.844892 0.414038 -4.115347
v 0.001188 -0.023096 -0.015732
vn 3.793272 -0.909247 -4.816342
v 0.000251 -0.026604 -0.014827
vn -0.361742 -5.561581 -2.675550
v -0.005381 -0.027753 -0.013416
vn 1.265173 -5.994354 -0.104003
v -0.004604 -0.028868 -0.008963
vn 1.756939 -2.392625 -2.442467
v 0.000311 -0.028088 -0.014934
vn 3.245664 0.806561 1.941080
v 0.003134 -0.020914 -0.009476
vn 2.661217 2.267230 1.305708
v 0.003037 -0.020042 -0.009983
vn 2.326860 -4.823070 3.118636
v -0.009495 -0.029858 -0.004318
vn 1.777694 -5.404717 1.668876
v -0.010578 -0.030830 -0.005160
vn 2.980270 -2.976799 4.323305
v -0.002701 -0.027032 -0.006592
vn 3.974128 -1.490057 2.219858
v 0.002668 -0.026728 -0.009571
vn 2.063408 -5.212594 2.703118
v -0.003522 -0.028118 -0.007517
vn 4.920558 -1.278638 -3.289221
v 0.001687 -0.025174 -0.014231
vn 3.028932 -3.614234 -1.362127
v 0.001560 -0.028112 -0.012979
vn 0.704808 -5.912173 0.384846
v -0.001446 -0.028733 -0.010162
vn 5.536883 -1.194504 -1.601211
v 0.002534 -0.026384 -0.012282
vn 1.859702 -4.954619 2.778445
v -0.000805 -0.028194 -0.008836
vn 3.421262 -3.552302 1.488125
v 0.002377 -0.027334 -0.009885
# 65 vertices, 0 vertices normals

f 1//1 2//2 3//3
f 1//1 3//3 4//4
f 2//2 1//1 5//5
f 4//4 6//6 1//1
f 1//1 6//6 5//5
f 2//2 7//7 3//3
f 8//8 2//2 9//9
f 10//10 9//9 2//2
f 11//11 10//10 2//2
f 11//11 2//2 5//5
f 7//7 2//2 8//8
f 12//12 3//3 13//13
f 3//3 12//12 4//4
f 13//13 3//3 7//7
f 14//14 4//4 12//12
f 6//6 4//4 14//14
f 15//15 5//5 16//16
f 16//16 5//5 6//6
f 15//15 11//11 5//5
f 17//17 16//16 6//6
f 18//18 17//17 6//6
f 18//18 6//6 14//14
f 13//13 7//7 19//19
f 7//7 8//8 19//19
f 9//9 20//20 8//8
f 8//8 20//20 19//19
f 9//9 10//10 21//21
f 22//22 23//23 9//9
f 22//22 9//9 21//21
f 9//9 23//23 20//20
f 10//10 11//11 21//21
f 21//21 11//11 24//24
f 15//15 25//25 11//11
f 24//24 11//11 25//25
f 13//13 19//19 12//12
f 19//19 26//26 12//12
f 12//12 26//26 27//27
f 12//12 27//27 14//14
f 14//14 28//28 18//18
f 14//14 29//29 28//28
f 27//27 29//29 14//14
f 30//30 15//15 16//16
f 30//30 31//31 15//15
f 15//15 31//31 25//25
f 30//30 16//16 32//32
f 16//16 17//17 32//32
f 33//33 32//32 17//17
f 17//17 18//18 33//33
f 18//18 34//34 33//33
f 18//18 28//28 34//34
f 26//26 19//19 20//20
f 20//20 35//35 26//26
f 20//20 23//23 36//36
f 35//35 20//20 37//37
f 20//20 36//36 37//37
f 38//38 21//21 39//39
f 39//39 21//21 24//24
f 38//38 22//22 21//21
f 23//23 22//22 40//40
f 40//40 22//22 41//41
f 38//38 42//42 22//22
f 22//22 42//42 43//43
f 41//41 22//22 43//43
f 40//40 36//36 23//23
f 44//44 24//24 45//45
f 25//25 45//45 24//24
f 39//39 24//24 44//44
f 31//31 45//45 25//25
f 46//46 26//26 35//35
f 26//26 46//46 27//27
f 47//47 29//29 27//27
f 27//27 46//46 47//47
f 48//48 49//49 28//28
f 49//49 34//34 28//28
f 48//48 28//28 29//29
f 29//29 47//47 48//48
f 50//50 30//30 32//32
f 51//51 31//31 30//30
f 30//30 50//50 51//51
f 31//31 51//51 45//45
f 32//32 33//33 50//50
f 33//33 34//34 50//50
f 34//34 49//49 52//52
f 34//34 52//52 50//50
f 37//37 46//46 35//35
f 36//36 40//40 53//53
f 36//36 54//54 37//37
f 36//36 53//53 54//54
f 46//46 37//37 54//54
f 55//55 38//38 39//39
f 55//55 42//42 38//38
f 39//39 44//44 56//56
f 55//55 39//39 56//56
f 40//40 41//41 53//53
f 41//41 43//43 57//57
f 41//41 58//58 53//53
f 41//41 57//57 58//58
f 42//42 55//55 59//59
f 57//57 43//43 42//42
f 59//59 57//57 42//42
f 45//45 56//56 44//44
f 45//45 51//51 56//56
f 46//46 54//54 47//47
f 47//47 54//54 60//60
f 60//60 48//48 47//47
f 49//49 48//48 60//60
f 52//52 49//49 61//61
f 60//60 61//61 49//49
f 62//62 51//51 50//50
f 50//50 52//52 62//62
f 56//56 51//51 59//59
f 59//59 51//51 62//62
f 52//52 61//61 62//62
f 53//53 58//58 54//54
f 58//58 63//63 54//54
f 60//60 54//54 63//63
f 55//55 56//56 59//59
f 64//64 57//57 59//59
f 64//64 58//58 57//57
f 63//63 58//58 65//65
f 64//64 65//65 58//58
f 64//64 59//59 62//62
f 61//61 60//60 63//63
f 61//61 63//63 65//65
f 65//65 62//62 61//61
f 62//62 65//65 64//64
# 126 faces, 0 coords texture

# End of File
