####
#
# OBJ File Generated by Meshlab
#
####
# Object triquetrum_rvs.obj
#
# Vertices: 83
# Faces: 162
#
####
vn -1.906461 4.783720 2.846166
v -0.006227 -0.005999 -0.019078
vn -1.373583 0.010763 3.247697
v -0.008368 -0.012117 -0.013576
vn 0.283134 0.060798 4.349768
v -0.002791 -0.010802 -0.013712
vn 1.501641 4.313784 2.786771
v -0.001091 -0.006372 -0.017515
vn -3.934015 2.480237 1.045566
v -0.009177 -0.009207 -0.017151
vn -3.011802 4.120117 -0.121929
v -0.006400 -0.005650 -0.020172
vn -0.357384 5.544126 2.635678
v -0.003519 -0.005579 -0.019102
vn -1.588148 -1.579219 1.742769
v -0.009708 -0.014488 -0.015533
vn 1.499250 -4.579040 3.783372
v -0.007909 -0.012536 -0.014026
vn 1.846027 -4.951715 3.034439
v -0.007617 -0.012699 -0.014688
vn 1.192237 0.147309 4.652176
v -0.000987 -0.010584 -0.014097
vn 1.058433 -4.361283 4.356587
v -0.000494 -0.012897 -0.016195
vn 3.068753 2.871912 3.769871
v 0.001978 -0.010222 -0.015438
vn 4.831745 2.261065 1.339716
v 0.003013 -0.010693 -0.016508
vn 4.240606 4.009690 0.441751
v -0.000791 -0.005790 -0.020325
vn 1.790477 5.597042 2.032202
v -0.001689 -0.005491 -0.019841
vn -5.623743 1.355439 -1.956690
v -0.009096 -0.011887 -0.020008
vn -1.868740 5.037724 -0.552499
v -0.005218 -0.005167 -0.020918
vn -2.542691 4.267695 -3.491673
v -0.004644 -0.005772 -0.022469
vn -4.191220 2.382316 -2.924669
v -0.006913 -0.007970 -0.022782
vn 1.074609 5.649875 1.964046
v -0.002003 -0.005135 -0.020423
vn -5.484772 0.960363 -1.333647
v -0.010015 -0.014486 -0.019839
vn -2.042163 -2.177459 1.118397
v -0.010097 -0.016565 -0.018456
vn -2.315038 -3.727004 0.669150
v -0.009056 -0.017487 -0.020225
vn 3.104804 0.146296 4.666240
v 0.002216 -0.010920 -0.015356
vn 2.703484 -2.687980 4.197239
v 0.002385 -0.011413 -0.015601
vn 2.250648 -3.261978 4.624524
v 0.003258 -0.016033 -0.020187
vn 4.094328 -2.134888 3.059411
v 0.003239 -0.012300 -0.017176
vn 5.324689 1.169521 -0.274069
v 0.003476 -0.011808 -0.017776
vn 4.652726 0.056647 3.326461
v 0.002814 -0.011144 -0.015953
vn 3.708103 3.184883 -2.438042
v -0.000745 -0.006716 -0.023729
vn 3.818312 2.003325 -3.517386
v 0.002424 -0.016092 -0.027901
vn 2.744461 4.414268 -0.147589
v -0.001315 -0.005069 -0.021285
vn 4.965923 -0.089479 1.287292
v 0.003732 -0.015708 -0.020432
vn -4.981188 -0.277355 -3.594435
v -0.007653 -0.011263 -0.022316
vn -4.471813 0.920474 -4.195738
v -0.008356 -0.012954 -0.021333
vn -1.765194 4.258734 -4.018211
v -0.003552 -0.005604 -0.022888
vn -0.502824 5.308311 -2.384106
v -0.002989 -0.005079 -0.022427
vn 0.206978 5.909187 -0.112370
v -0.002607 -0.004869 -0.021445
vn -2.577449 1.873691 -4.984157
v -0.004808 -0.009255 -0.025027
vn -3.828600 -0.779037 -3.959000
v -0.006451 -0.011171 -0.024242
vn -3.881174 -0.568578 -3.169222
v -0.009092 -0.016033 -0.022175
vn -3.798947 -0.652139 -3.859981
v -0.007076 -0.016816 -0.023808
vn -3.019957 -4.135262 -0.408128
v -0.008198 -0.018093 -0.021001
vn -0.438885 -4.423743 4.274364
v -0.006940 -0.018561 -0.021244
vn 3.362959 -1.496683 3.700747
v 0.004109 -0.019388 -0.022363
vn -0.544061 -3.832569 4.835779
v -0.003027 -0.020575 -0.022666
vn 0.921445 4.532589 -3.272664
v -0.002104 -0.005485 -0.023104
vn 2.040288 1.884794 -4.338046
v 0.001621 -0.014616 -0.027841
vn 0.477423 3.134126 -4.765048
v -0.001692 -0.007977 -0.025261
vn 3.381289 0.932248 -3.176627
v 0.003153 -0.017429 -0.027982
vn 1.722729 -1.294435 -5.470789
v 0.002323 -0.018405 -0.028242
vn 1.381541 0.835540 -5.831674
v 0.002073 -0.016547 -0.028148
vn 5.124428 -0.644009 -2.475820
v 0.003779 -0.020365 -0.026713
vn 5.487498 -0.726177 -0.400186
v 0.004536 -0.021513 -0.024183
vn -2.705327 0.007205 -5.081012
v -0.005184 -0.013940 -0.023544
vn -0.839802 1.390722 -5.306281
v -0.000978 -0.011626 -0.027022
vn -3.123049 -2.319888 -4.888658
v -0.003518 -0.012404 -0.025346
vn -2.650977 -4.437300 0.002648
v -0.004869 -0.020067 -0.022683
vn -2.946428 2.707458 -4.178608
v -0.004911 -0.016507 -0.025546
vn -2.478227 -5.257180 -1.001490
v -0.002708 -0.021179 -0.023933
vn -2.165396 -2.702869 -3.244119
v -0.002433 -0.019899 -0.028090
vn 4.292152 -2.500052 1.849649
v 0.004300 -0.022027 -0.023604
vn 1.619700 -3.193396 3.941263
v 0.003804 -0.022214 -0.023276
vn -1.577369 -5.098015 2.171008
v -0.002635 -0.021163 -0.023152
vn -0.421829 -3.388131 2.567527
v 0.002064 -0.022265 -0.023175
vn 0.741566 1.201917 -6.076581
v 0.001685 -0.017078 -0.028214
vn -1.355404 1.796493 -5.772448
v -0.000290 -0.014894 -0.027606
vn 1.610119 -2.664633 -3.877224
v 0.003351 -0.020710 -0.027076
vn -0.681896 -5.375470 -2.649583
v 0.000956 -0.021507 -0.025801
vn 0.222090 -3.384081 -3.854820
v -0.000378 -0.020255 -0.028184
vn 0.822941 0.445337 -5.799942
v 0.000936 -0.017747 -0.028623
vn 4.930384 -2.580756 -2.621263
v 0.004065 -0.021356 -0.025394
vn 2.047649 -4.160791 -3.012404
v 0.003565 -0.021688 -0.025807
vn 4.206795 -3.508184 -1.784217
v 0.004235 -0.022046 -0.024398
vn -1.667386 0.903834 -2.727194
v -0.002814 -0.015117 -0.023811
vn -4.395562 -0.156404 -4.325169
v -0.001664 -0.013749 -0.026419
vn -2.955903 2.117910 -3.588879
v -0.003015 -0.016826 -0.027882
vn -1.869519 0.094771 -5.173541
v -0.002162 -0.018023 -0.028592
vn 1.597524 -4.854816 0.658637
v 0.003819 -0.022497 -0.023781
vn 1.044156 -5.096926 -1.744885
v 0.003651 -0.022426 -0.024456
vn -0.802113 2.552167 -5.267278
v -0.000637 -0.016111 -0.028194
vn -4.382504 3.144189 -2.694118
v -0.002091 -0.015488 -0.026291
# 83 vertices, 0 vertices normals

f 1//1 2//2 3//3
f 4//4 1//1 3//3
f 1//1 5//5 2//2
f 6//6 5//5 1//1
f 1//1 4//4 7//7
f 7//7 6//6 1//1
f 2//2 5//5 8//8
f 3//3 2//2 9//9
f 9//9 2//2 8//8
f 3//3 9//9 10//10
f 3//3 11//11 4//4
f 11//11 3//3 12//12
f 10//10 12//12 3//3
f 4//4 13//13 14//14
f 4//4 14//14 15//15
f 4//4 15//15 16//16
f 4//4 16//16 7//7
f 11//11 13//13 4//4
f 8//8 5//5 17//17
f 17//17 5//5 6//6
f 18//18 19//19 6//6
f 18//18 6//6 7//7
f 20//20 17//17 6//6
f 20//20 6//6 19//19
f 18//18 7//7 21//21
f 21//21 7//7 16//16
f 17//17 22//22 8//8
f 22//22 23//23 8//8
f 10//10 9//9 8//8
f 23//23 10//10 8//8
f 23//23 24//24 10//10
f 10//10 24//24 12//12
f 11//11 25//25 13//13
f 12//12 26//26 11//11
f 11//11 26//26 25//25
f 24//24 27//27 12//12
f 28//28 26//26 12//12
f 28//28 12//12 27//27
f 25//25 14//14 13//13
f 15//15 14//14 29//29
f 29//29 14//14 30//30
f 30//30 14//14 25//25
f 31//31 15//15 32//32
f 33//33 15//15 31//31
f 33//33 21//21 15//15
f 21//21 16//16 15//15
f 15//15 34//34 32//32
f 34//34 15//15 29//29
f 17//17 20//20 35//35
f 36//36 22//22 17//17
f 35//35 36//36 17//17
f 37//37 19//19 18//18
f 38//38 37//37 18//18
f 18//18 39//39 38//38
f 18//18 21//21 39//39
f 19//19 40//40 20//20
f 37//37 40//40 19//19
f 41//41 35//35 20//20
f 40//40 41//41 20//20
f 39//39 21//21 33//33
f 42//42 23//23 22//22
f 36//36 42//42 22//22
f 24//24 23//23 42//42
f 24//24 43//43 44//44
f 24//24 45//45 27//27
f 42//42 43//43 24//24
f 24//24 44//44 45//45
f 26//26 30//30 25//25
f 26//26 28//28 30//30
f 46//46 34//34 27//27
f 45//45 47//47 27//27
f 27//27 34//34 28//28
f 46//46 27//27 47//47
f 30//30 28//28 29//29
f 34//34 29//29 28//28
f 31//31 48//48 33//33
f 31//31 32//32 49//49
f 48//48 31//31 50//50
f 50//50 31//31 49//49
f 32//32 51//51 52//52
f 49//49 32//32 53//53
f 32//32 52//52 53//53
f 51//51 32//32 34//34
f 39//39 33//33 48//48
f 51//51 34//34 54//54
f 55//55 54//54 34//34
f 55//55 34//34 46//46
f 35//35 56//56 36//36
f 56//56 35//35 41//41
f 56//56 42//42 36//36
f 48//48 37//37 38//38
f 50//50 37//37 48//48
f 40//40 37//37 50//50
f 39//39 48//48 38//38
f 57//57 40//40 50//50
f 57//57 41//41 40//40
f 41//41 58//58 56//56
f 57//57 58//58 41//41
f 42//42 56//56 43//43
f 59//59 44//44 43//43
f 43//43 56//56 60//60
f 61//61 59//59 43//43
f 62//62 61//61 43//43
f 60//60 62//62 43//43
f 44//44 59//59 45//45
f 59//59 47//47 45//45
f 46//46 63//63 55//55
f 64//64 63//63 46//46
f 47//47 64//64 46//46
f 65//65 66//66 47//47
f 66//66 64//64 47//47
f 65//65 47//47 59//59
f 67//67 68//68 49//49
f 67//67 49//49 53//53
f 49//49 57//57 50//50
f 49//49 68//68 57//57
f 52//52 51//51 69//69
f 54//54 69//69 51//51
f 69//69 70//70 52//52
f 52//52 67//67 53//53
f 71//71 52//52 70//70
f 72//72 52//52 71//71
f 67//67 52//52 72//72
f 55//55 73//73 54//54
f 69//69 54//54 74//74
f 54//54 73//73 74//74
f 63//63 75//75 55//55
f 75//75 73//73 55//55
f 76//76 60//60 56//56
f 76//76 56//56 58//58
f 77//77 58//58 57//57
f 68//68 77//77 57//57
f 77//77 76//76 58//58
f 61//61 65//65 59//59
f 60//60 78//78 62//62
f 76//76 78//78 60//60
f 62//62 71//71 61//61
f 65//65 61//61 66//66
f 71//71 70//70 61//61
f 70//70 66//66 61//61
f 78//78 79//79 62//62
f 62//62 79//79 71//71
f 64//64 80//80 63//63
f 80//80 75//75 63//63
f 80//80 64//64 66//66
f 70//70 81//81 66//66
f 81//81 80//80 66//66
f 68//68 67//67 72//72
f 82//82 77//77 68//68
f 68//68 72//72 82//82
f 69//69 74//74 70//70
f 70//70 74//74 81//81
f 72//72 71//71 79//79
f 79//79 82//82 72//72
f 74//74 73//73 81//81
f 75//75 81//81 73//73
f 80//80 81//81 75//75
f 78//78 76//76 83//83
f 83//83 76//76 77//77
f 82//82 83//83 77//77
f 78//78 83//83 82//82
f 79//79 78//78 82//82
# 162 faces, 0 coords texture

# End of File
