####
#
# OBJ File Generated by Meshlab
#
####
# Object triquetrum_lvs.obj
#
# Vertices: 83
# Faces: 162
#
####
vn 0.283134 0.060798 -4.349769
v -0.002791 -0.010802 0.013712
vn -1.373583 0.010763 -3.247697
v -0.008368 -0.012117 0.013576
vn -1.906461 4.783720 -2.846166
v -0.006227 -0.005999 0.019078
vn 1.501641 4.313784 -2.786771
v -0.001091 -0.006372 0.017515
vn 1.499249 -4.579040 -3.783372
v -0.007909 -0.012536 0.014026
vn 1.846027 -4.951715 -3.034439
v -0.007617 -0.012699 0.014688
vn 1.192237 0.147309 -4.652176
v -0.000987 -0.010584 0.014097
vn 1.058433 -4.361283 -4.356587
v -0.000494 -0.012897 0.016195
vn -3.934015 2.480237 -1.045566
v -0.009177 -0.009207 0.017151
vn -1.588148 -1.579219 -1.742769
v -0.009708 -0.014488 0.015533
vn -3.011802 4.120117 0.121929
v -0.006400 -0.005650 0.020172
vn -0.357384 5.544126 -2.635678
v -0.003519 -0.005579 0.019102
vn 4.831745 2.261065 -1.339716
v 0.003013 -0.010693 0.016508
vn 3.068752 2.871912 -3.769871
v 0.001978 -0.010222 0.015438
vn 4.240606 4.009690 -0.441751
v -0.000791 -0.005790 0.020325
vn 1.790477 5.597043 -2.032202
v -0.001689 -0.005491 0.019841
vn -2.042164 -2.177459 -1.118397
v -0.010097 -0.016565 0.018456
vn -2.315038 -3.727004 -0.669150
v -0.009056 -0.017487 0.020225
vn 3.104804 0.146296 -4.666240
v 0.002216 -0.010920 0.015356
vn 2.703484 -2.687980 -4.197239
v 0.002385 -0.011413 0.015601
vn 2.250648 -3.261978 -4.624524
v 0.003258 -0.016033 0.020187
vn 4.094327 -2.134888 -3.059411
v 0.003239 -0.012300 0.017176
vn -5.623743 1.355439 1.956689
v -0.009096 -0.011887 0.020008
vn -5.484772 0.960363 1.333647
v -0.010015 -0.014486 0.019839
vn -2.542691 4.267695 3.491673
v -0.004644 -0.005772 0.022469
vn -1.868740 5.037724 0.552499
v -0.005218 -0.005167 0.020918
vn -4.191220 2.382316 2.924669
v -0.006913 -0.007970 0.022782
vn 1.074609 5.649875 -1.964046
v -0.002003 -0.005135 0.020423
vn 5.324690 1.169521 0.274069
v 0.003476 -0.011808 0.017776
vn 4.652726 0.056647 -3.326460
v 0.002814 -0.011144 0.015953
vn 3.818312 2.003325 3.517386
v 0.002424 -0.016092 0.027901
vn 3.708103 3.184883 2.438042
v -0.000745 -0.006716 0.023729
vn 2.744461 4.414268 0.147589
v -0.001315 -0.005069 0.021285
vn 4.965923 -0.089479 -1.287292
v 0.003732 -0.015708 0.020432
vn -3.881174 -0.568578 3.169222
v -0.009092 -0.016033 0.022175
vn -3.019957 -4.135262 0.408128
v -0.008198 -0.018093 0.021001
vn -3.798947 -0.652139 3.859981
v -0.007076 -0.016816 0.023808
vn -0.438885 -4.423743 -4.274364
v -0.006940 -0.018561 0.021244
vn 3.362959 -1.496683 -3.700747
v 0.004109 -0.019388 0.022363
vn -0.544062 -3.832569 -4.835779
v -0.003027 -0.020575 0.022666
vn -4.981187 -0.277355 3.594435
v -0.007653 -0.011263 0.022316
vn -4.471813 0.920474 4.195737
v -0.008356 -0.012954 0.021333
vn -1.765194 4.258734 4.018211
v -0.003552 -0.005604 0.022888
vn -2.577449 1.873691 4.984157
v -0.004808 -0.009255 0.025027
vn -0.502824 5.308311 2.384106
v -0.002989 -0.005079 0.022427
vn 0.206978 5.909187 0.112370
v -0.002607 -0.004869 0.021445
vn -3.828600 -0.779037 3.959000
v -0.006451 -0.011171 0.024242
vn 2.040288 1.884794 4.338045
v 0.001621 -0.014616 0.027841
vn 1.722729 -1.294435 5.470789
v 0.002323 -0.018405 0.028242
vn 3.381289 0.932248 3.176627
v 0.003153 -0.017429 0.027982
vn 1.381541 0.835540 5.831674
v 0.002073 -0.016547 0.028148
vn 0.921445 4.532589 3.272664
v -0.002104 -0.005485 0.023104
vn 0.477424 3.134126 4.765048
v -0.001692 -0.007977 0.025261
vn 5.124428 -0.644009 2.475820
v 0.003779 -0.020365 0.026713
vn 5.487498 -0.726177 0.400187
v 0.004536 -0.021513 0.024183
vn -2.705327 0.007205 5.081012
v -0.005184 -0.013940 0.023544
vn -2.650977 -4.437300 -0.002649
v -0.004869 -0.020067 0.022683
vn -2.946428 2.707458 4.178608
v -0.004911 -0.016507 0.025546
vn -2.478227 -5.257180 1.001490
v -0.002708 -0.021179 0.023933
vn -2.165396 -2.702869 3.244119
v -0.002433 -0.019899 0.028090
vn 4.292152 -2.500052 -1.849649
v 0.004300 -0.022027 0.023604
vn 1.619700 -3.193396 -3.941263
v 0.003804 -0.022214 0.023276
vn -0.421829 -3.388131 -2.567527
v 0.002064 -0.022265 0.023175
vn -1.577368 -5.098015 -2.171008
v -0.002635 -0.021163 0.023152
vn -0.839802 1.390722 5.306281
v -0.000978 -0.011626 0.027022
vn -3.123049 -2.319888 4.888658
v -0.003518 -0.012404 0.025346
vn -1.355404 1.796493 5.772449
v -0.000290 -0.014894 0.027606
vn 0.741566 1.201918 6.076581
v 0.001685 -0.017078 0.028214
vn 1.610118 -2.664632 3.877224
v 0.003351 -0.020710 0.027076
vn -0.681896 -5.375470 2.649583
v 0.000956 -0.021507 0.025801
vn 0.222090 -3.384081 3.854820
v -0.000378 -0.020255 0.028184
vn 0.822941 0.445337 5.799942
v 0.000936 -0.017747 0.028623
vn 4.930384 -2.580756 2.621263
v 0.004065 -0.021356 0.025394
vn 2.047649 -4.160790 3.012404
v 0.003565 -0.021688 0.025807
vn 4.206795 -3.508184 1.784217
v 0.004235 -0.022046 0.024398
vn -1.667386 0.903834 2.727194
v -0.002814 -0.015117 0.023811
vn -2.955903 2.117910 3.588879
v -0.003015 -0.016826 0.027882
vn -1.869519 0.094771 5.173541
v -0.002162 -0.018023 0.028592
vn 1.597524 -4.854816 -0.658637
v 0.003819 -0.022497 0.023781
vn 1.044156 -5.096926 1.744885
v 0.003651 -0.022426 0.024456
vn -4.395563 -0.156404 4.325169
v -0.001664 -0.013749 0.026419
vn -0.802113 2.552167 5.267277
v -0.000637 -0.016111 0.028194
vn -4.382504 3.144189 2.694118
v -0.002091 -0.015488 0.026291
# 83 vertices, 0 vertices normals

f 1//1 2//2 3//3
f 1//1 3//3 4//4
f 5//5 2//2 1//1
f 6//6 5//5 1//1
f 4//4 7//7 1//1
f 8//8 1//1 7//7
f 1//1 8//8 6//6
f 2//2 9//9 3//3
f 10//10 9//9 2//2
f 10//10 2//2 5//5
f 3//3 9//9 11//11
f 12//12 4//4 3//3
f 3//3 11//11 12//12
f 13//13 14//14 4//4
f 15//15 13//13 4//4
f 16//16 15//15 4//4
f 12//12 16//16 4//4
f 4//4 14//14 7//7
f 10//10 5//5 6//6
f 10//10 6//6 17//17
f 6//6 18//18 17//17
f 8//8 18//18 6//6
f 14//14 19//19 7//7
f 7//7 20//20 8//8
f 19//19 20//20 7//7
f 8//8 21//21 18//18
f 8//8 20//20 22//22
f 21//21 8//8 22//22
f 23//23 9//9 10//10
f 11//11 9//9 23//23
f 10//10 24//24 23//23
f 10//10 17//17 24//24
f 11//11 25//25 26//26
f 12//12 11//11 26//26
f 11//11 23//23 27//27
f 25//25 11//11 27//27
f 28//28 12//12 26//26
f 16//16 12//12 28//28
f 14//14 13//13 19//19
f 29//29 13//13 15//15
f 30//30 13//13 29//29
f 19//19 13//13 30//30
f 31//31 15//15 32//32
f 32//32 15//15 33//33
f 15//15 28//28 33//33
f 15//15 16//16 28//28
f 31//31 34//34 15//15
f 29//29 15//15 34//34
f 24//24 17//17 35//35
f 35//35 17//17 18//18
f 36//36 37//37 18//18
f 21//21 38//38 18//18
f 18//18 37//37 35//35
f 38//38 36//36 18//18
f 19//19 30//30 20//20
f 30//30 22//22 20//20
f 21//21 34//34 39//39
f 21//21 40//40 38//38
f 22//22 34//34 21//21
f 40//40 21//21 39//39
f 29//29 22//22 30//30
f 22//22 29//29 34//34
f 41//41 27//27 23//23
f 23//23 24//24 42//42
f 23//23 42//42 41//41
f 24//24 35//35 42//42
f 26//26 25//25 43//43
f 27//27 44//44 25//25
f 25//25 44//44 43//43
f 26//26 43//43 45//45
f 45//45 46//46 26//26
f 46//46 28//28 26//26
f 27//27 41//41 47//47
f 27//27 47//47 44//44
f 33//33 28//28 46//46
f 48//48 31//31 32//32
f 49//49 50//50 31//31
f 51//51 31//31 48//48
f 51//51 49//49 31//31
f 34//34 31//31 50//50
f 33//33 52//52 32//32
f 53//53 32//32 52//52
f 48//48 32//32 53//53
f 52//52 33//33 46//46
f 54//54 34//34 50//50
f 34//34 54//54 55//55
f 39//39 34//34 55//55
f 42//42 35//35 56//56
f 37//37 56//56 35//35
f 37//37 36//36 57//57
f 38//38 57//57 36//36
f 58//58 56//56 37//37
f 37//37 57//57 59//59
f 37//37 59//59 60//60
f 37//37 60//60 58//58
f 38//38 40//40 57//57
f 55//55 61//61 39//39
f 39//39 61//61 62//62
f 39//39 62//62 40//40
f 40//40 63//63 64//64
f 40//40 62//62 63//63
f 57//57 40//40 64//64
f 42//42 56//56 41//41
f 47//47 41//41 56//56
f 45//45 43//43 52//52
f 52//52 43//43 53//53
f 53//53 43//43 44//44
f 53//53 44//44 65//65
f 44//44 47//47 65//65
f 45//45 52//52 46//46
f 56//56 66//66 47//47
f 47//47 66//66 65//65
f 48//48 67//67 68//68
f 51//51 48//48 68//68
f 53//53 65//65 48//48
f 65//65 67//67 48//48
f 69//69 50//50 49//49
f 49//49 70//70 69//69
f 51//51 68//68 49//49
f 70//70 49//49 71//71
f 71//71 49//49 72//72
f 72//72 49//49 68//68
f 50//50 69//69 54//54
f 54//54 73//73 55//55
f 74//74 54//54 69//69
f 74//74 73//73 54//54
f 55//55 75//75 61//61
f 55//55 73//73 75//75
f 56//56 58//58 76//76
f 66//66 56//56 76//76
f 57//57 64//64 59//59
f 60//60 77//77 58//58
f 58//58 77//77 76//76
f 59//59 71//71 60//60
f 63//63 59//59 64//64
f 59//59 70//70 71//71
f 59//59 63//63 70//70
f 60//60 78//78 77//77
f 71//71 78//78 60//60
f 61//61 79//79 62//62
f 61//61 75//75 79//79
f 63//63 62//62 79//79
f 63//63 80//80 70//70
f 63//63 79//79 80//80
f 65//65 66//66 81//81
f 65//65 81//81 67//67
f 66//66 76//76 81//81
f 72//72 68//68 67//67
f 67//67 81//81 82//82
f 82//82 72//72 67//67
f 70//70 74//74 69//69
f 80//80 74//74 70//70
f 78//78 71//71 72//72
f 72//72 82//82 78//78
f 80//80 73//73 74//74
f 73//73 80//80 75//75
f 75//75 80//80 79//79
f 83//83 76//76 77//77
f 81//81 76//76 83//83
f 82//82 83//83 77//77
f 82//82 77//77 78//78
f 81//81 83//83 82//82
# 162 faces, 0 coords texture

# End of File
