# Wavefront .OBJ file for tesselated shape: Truss-2 path: D:\workspace\chrono-solidworks\testDrawings\CrankSlider\Truss.SLDPRT

g body_1
v -0.002415 -0.000647 -0.005000
v -0.002500 0.000000 -0.005000
v -0.002500 0.000000 0.005000
v -0.002165 -0.001250 -0.005000
v -0.002415 -0.000647 0.005000
v -0.001768 -0.001768 -0.005000
v -0.002165 -0.001250 0.005000
v -0.001250 -0.002165 -0.005000
v -0.001768 -0.001768 0.005000
v -0.000647 -0.002415 -0.005000
v -0.001250 -0.002165 0.005000
v 0.000000 -0.002500 -0.005000
v -0.000647 -0.002415 0.005000
v 0.000647 -0.002415 -0.005000
v 0.000000 -0.002500 0.005000
v 0.001250 -0.002165 -0.005000
v 0.000647 -0.002415 0.005000
v 0.001768 -0.001768 -0.005000
v 0.001250 -0.002165 0.005000
v 0.002165 -0.001250 -0.005000
v 0.001768 -0.001768 0.005000
v 0.002415 -0.000647 -0.005000
v 0.002165 -0.001250 0.005000
v 0.002500 0.000000 -0.005000
v 0.002415 -0.000647 0.005000
v 0.002415 0.000647 -0.005000
v 0.002500 0.000000 0.005000
v 0.002165 0.001250 -0.005000
v 0.002415 0.000647 0.005000
v 0.001768 0.001768 -0.005000
v 0.002165 0.001250 0.005000
v 0.001250 0.002165 -0.005000
v 0.001768 0.001768 0.005000
v 0.000647 0.002415 -0.005000
v 0.001250 0.002165 0.005000
v 0.000000 0.002500 -0.005000
v 0.000647 0.002415 0.005000
v -0.000647 0.002415 -0.005000
v 0.000000 0.002500 0.005000
v -0.001250 0.002165 -0.005000
v -0.000647 0.002415 0.005000
v -0.001768 0.001768 -0.005000
v -0.001250 0.002165 0.005000
v -0.002165 0.001250 -0.005000
v -0.001768 0.001768 0.005000
v -0.002415 0.000647 -0.005000
v -0.002165 0.001250 0.005000
v -0.002415 0.000647 0.005000
v 0.060437 0.021288 0.005000
v 0.000647 0.002415 0.005000
v 0.001250 0.002165 0.005000
v -0.060437 0.021288 0.005000
v 0.000000 0.002500 0.005000
v -0.001250 0.002165 0.005000
v -0.000647 0.002415 0.005000
v 0.002165 0.001250 0.005000
v 0.002415 0.000647 0.005000
v 0.001768 0.001768 0.005000
v -0.060437 -0.021288 0.005000
v 0.000000 -0.002500 0.005000
v -0.000647 -0.002415 0.005000
v 0.060437 -0.021288 0.005000
v 0.001768 -0.001768 0.005000
v 0.001250 -0.002165 0.005000
v -0.001768 0.001768 0.005000
v -0.001250 -0.002165 0.005000
v -0.001768 -0.001768 0.005000
v 0.000647 -0.002415 0.005000
v 0.002165 -0.001250 0.005000
v -0.002415 0.000647 0.005000
v -0.002165 0.001250 0.005000
v -0.002500 0.000000 0.005000
v -0.002165 -0.001250 0.005000
v 0.002415 -0.000647 0.005000
v 0.002500 0.000000 0.005000
v -0.002415 -0.000647 0.005000
v -0.060437 0.021288 -0.005000
v 0.000000 0.002500 -0.005000
v -0.000647 0.002415 -0.005000
v 0.060437 0.021288 -0.005000
v 0.002500 0.000000 -0.005000
v 0.002415 0.000647 -0.005000
v 0.060437 -0.021288 -0.005000
v 0.002415 -0.000647 -0.005000
v -0.001768 0.001768 -0.005000
v -0.002165 0.001250 -0.005000
v -0.001250 0.002165 -0.005000
v 0.000647 0.002415 -0.005000
v -0.002415 0.000647 -0.005000
v 0.001768 0.001768 -0.005000
v 0.001250 0.002165 -0.005000
v 0.002165 -0.001250 -0.005000
v 0.002165 0.001250 -0.005000
v 0.001768 -0.001768 -0.005000
v 0.000647 -0.002415 -0.005000
v 0.001250 -0.002165 -0.005000
v -0.060437 -0.021288 -0.005000
v -0.000647 -0.002415 -0.005000
v 0.000000 -0.002500 -0.005000
v -0.001768 -0.001768 -0.005000
v -0.001250 -0.002165 -0.005000
v -0.002415 -0.000647 -0.005000
v -0.002165 -0.001250 -0.005000
v -0.002500 0.000000 -0.005000
v 0.060437 -0.021288 0.005000
v 0.060437 -0.021288 -0.005000
v 0.060437 0.021288 -0.005000
v 0.060437 0.021288 0.005000
v 0.060437 0.021288 0.005000
v 0.060437 0.021288 -0.005000
v -0.060437 0.021288 -0.005000
v -0.060437 0.021288 0.005000
v -0.060437 0.021288 0.005000
v -0.060437 0.021288 -0.005000
v -0.060437 -0.021288 -0.005000
v -0.060437 -0.021288 0.005000
v -0.060437 -0.021288 0.005000
v -0.060437 -0.021288 -0.005000
v 0.060437 -0.021288 -0.005000
v 0.060437 -0.021288 0.005000
vn 0.966 0.259 0.000
vn 1.000 0.000 0.000
vn 1.000 0.000 0.000
vn 0.866 0.500 0.000
vn 0.966 0.259 0.000
vn 0.707 0.707 0.000
vn 0.866 0.500 0.000
vn 0.500 0.866 0.000
vn 0.707 0.707 0.000
vn 0.259 0.966 0.000
vn 0.500 0.866 0.000
vn 0.000 1.000 0.000
vn 0.259 0.966 0.000
vn -0.259 0.966 0.000
vn 0.000 1.000 0.000
vn -0.500 0.866 0.000
vn -0.259 0.966 0.000
vn -0.707 0.707 0.000
vn -0.500 0.866 0.000
vn -0.866 0.500 0.000
vn -0.707 0.707 0.000
vn -0.966 0.259 0.000
vn -0.866 0.500 0.000
vn -1.000 0.000 0.000
vn -0.966 0.259 0.000
vn -0.966 -0.259 0.000
vn -1.000 0.000 0.000
vn -0.866 -0.500 0.000
vn -0.966 -0.259 0.000
vn -0.707 -0.707 0.000
vn -0.866 -0.500 0.000
vn -0.500 -0.866 0.000
vn -0.707 -0.707 0.000
vn -0.259 -0.966 0.000
vn -0.500 -0.866 0.000
vn 0.000 -1.000 0.000
vn -0.259 -0.966 0.000
vn 0.259 -0.966 0.000
vn 0.000 -1.000 0.000
vn 0.500 -0.866 0.000
vn 0.259 -0.966 0.000
vn 0.707 -0.707 0.000
vn 0.500 -0.866 0.000
vn 0.866 -0.500 0.000
vn 0.707 -0.707 0.000
vn 0.966 -0.259 0.000
vn 0.866 -0.500 0.000
vn 0.966 -0.259 0.000
vn 0.000 0.000 1.000
vn 0.000 0.000 1.000
vn 0.000 0.000 1.000
vn 0.000 0.000 1.000
vn 0.000 0.000 1.000
vn 0.000 0.000 1.000
vn 0.000 0.000 1.000
vn 0.000 0.000 1.000
vn 0.000 0.000 1.000
vn 0.000 0.000 1.000
vn 0.000 0.000 1.000
vn 0.000 0.000 1.000
vn 0.000 0.000 1.000
vn 0.000 0.000 1.000
vn 0.000 0.000 1.000
vn 0.000 0.000 1.000
vn 0.000 0.000 1.000
vn 0.000 0.000 1.000
vn 0.000 0.000 1.000
vn 0.000 0.000 1.000
vn 0.000 0.000 1.000
vn 0.000 0.000 1.000
vn 0.000 0.000 1.000
vn 0.000 0.000 1.000
vn 0.000 0.000 1.000
vn 0.000 0.000 1.000
vn 0.000 0.000 1.000
vn 0.000 0.000 1.000
vn 0.000 0.000 -1.000
vn 0.000 0.000 -1.000
vn 0.000 0.000 -1.000
vn 0.000 0.000 -1.000
vn 0.000 0.000 -1.000
vn 0.000 0.000 -1.000
vn 0.000 0.000 -1.000
vn 0.000 0.000 -1.000
vn 0.000 0.000 -1.000
vn 0.000 0.000 -1.000
vn 0.000 0.000 -1.000
vn 0.000 0.000 -1.000
vn 0.000 0.000 -1.000
vn 0.000 0.000 -1.000
vn 0.000 0.000 -1.000
vn 0.000 0.000 -1.000
vn 0.000 0.000 -1.000
vn 0.000 0.000 -1.000
vn 0.000 0.000 -1.000
vn 0.000 0.000 -1.000
vn 0.000 0.000 -1.000
vn 0.000 0.000 -1.000
vn 0.000 0.000 -1.000
vn 0.000 0.000 -1.000
vn 0.000 0.000 -1.000
vn 0.000 0.000 -1.000
vn 0.000 0.000 -1.000
vn 0.000 0.000 -1.000
vn 1.000 0.000 0.000
vn 1.000 0.000 0.000
vn 1.000 0.000 0.000
vn 1.000 0.000 0.000
vn 0.000 1.000 0.000
vn 0.000 1.000 0.000
vn 0.000 1.000 0.000
vn 0.000 1.000 0.000
vn -1.000 0.000 0.000
vn -1.000 0.000 0.000
vn -1.000 0.000 0.000
vn -1.000 0.000 0.000
vn 0.000 -1.000 0.000
vn 0.000 -1.000 0.000
vn 0.000 -1.000 0.000
vn 0.000 -1.000 0.000
vt -0.2618 0.0100 0
vt 0.0000 0.0100 0
vt 0.0000 0.0000 0
vt 5.7596 0.0100 0
vt -0.2618 0.0000 0
vt 5.4978 0.0100 0
vt 5.7596 0.0000 0
vt 5.2360 0.0100 0
vt 5.4978 0.0000 0
vt 4.9742 0.0100 0
vt 5.2360 0.0000 0
vt 4.7124 0.0100 0
vt 4.9742 0.0000 0
vt 4.4506 0.0100 0
vt 4.7124 0.0000 0
vt 4.1888 0.0100 0
vt 4.4506 0.0000 0
vt 3.9270 0.0100 0
vt 4.1888 0.0000 0
vt 3.6652 0.0100 0
vt 3.9270 0.0000 0
vt 3.4034 0.0100 0
vt 3.6652 0.0000 0
vt 3.1416 0.0100 0
vt 3.4034 0.0000 0
vt 2.8798 0.0100 0
vt 3.1416 0.0000 0
vt 2.6180 0.0100 0
vt 2.8798 0.0000 0
vt 2.3562 0.0100 0
vt 2.6180 0.0000 0
vt 2.0944 0.0100 0
vt 2.3562 0.0000 0
vt 1.8326 0.0100 0
vt 2.0944 0.0000 0
vt 1.5708 0.0100 0
vt 1.8326 0.0000 0
vt 1.3090 0.0100 0
vt 1.5708 0.0000 0
vt 1.0472 0.0100 0
vt 1.3090 0.0000 0
vt 0.7854 0.0100 0
vt 1.0472 0.0000 0
vt 0.5236 0.0100 0
vt 0.7854 0.0000 0
vt 0.2618 0.0100 0
vt 0.5236 0.0000 0
vt 0.2618 0.0000 0
vt 0.0604 0.0213 0
vt 0.0006 0.0024 0
vt 0.0013 0.0022 0
vt -0.0604 0.0213 0
vt 0.0000 0.0025 0
vt -0.0013 0.0022 0
vt -0.0006 0.0024 0
vt 0.0022 0.0013 0
vt 0.0024 0.0006 0
vt 0.0018 0.0018 0
vt -0.0604 -0.0213 0
vt 0.0000 -0.0025 0
vt -0.0006 -0.0024 0
vt 0.0604 -0.0213 0
vt 0.0018 -0.0018 0
vt 0.0013 -0.0022 0
vt -0.0018 0.0018 0
vt -0.0013 -0.0022 0
vt -0.0018 -0.0018 0
vt 0.0006 -0.0024 0
vt 0.0022 -0.0013 0
vt -0.0024 0.0006 0
vt -0.0022 0.0013 0
vt -0.0025 0.0000 0
vt -0.0022 -0.0013 0
vt 0.0024 -0.0006 0
vt 0.0025 0.0000 0
vt -0.0024 -0.0006 0
vt -0.0604 0.0213 0
vt 0.0000 0.0025 0
vt -0.0006 0.0024 0
vt 0.0604 0.0213 0
vt 0.0025 0.0000 0
vt 0.0024 0.0006 0
vt 0.0604 -0.0213 0
vt 0.0024 -0.0006 0
vt -0.0018 0.0018 0
vt -0.0022 0.0013 0
vt -0.0013 0.0022 0
vt 0.0006 0.0024 0
vt -0.0024 0.0006 0
vt 0.0018 0.0018 0
vt 0.0013 0.0022 0
vt 0.0022 -0.0013 0
vt 0.0022 0.0013 0
vt 0.0018 -0.0018 0
vt 0.0006 -0.0024 0
vt 0.0013 -0.0022 0
vt -0.0604 -0.0213 0
vt -0.0006 -0.0024 0
vt 0.0000 -0.0025 0
vt -0.0018 -0.0018 0
vt -0.0013 -0.0022 0
vt -0.0024 -0.0006 0
vt -0.0022 -0.0013 0
vt -0.0025 0.0000 0
vt 0.0000 -0.0426 0
vt -0.0100 -0.0426 0
vt -0.0100 0.0000 0
vt 0.0000 0.0000 0
vt 0.0000 0.1209 0
vt 0.0100 0.1209 0
vt 0.0100 0.0000 0
vt 0.0000 0.0000 0
vt 0.0000 0.0000 0
vt 0.0100 0.0000 0
vt 0.0100 -0.0426 0
vt 0.0000 -0.0426 0
vt 0.0000 0.0000 0
vt -0.0100 0.0000 0
vt -0.0100 0.1209 0
vt 0.0000 0.1209 0
f 49/49/49 58/58/58 56/56/56
f 64/64/64 62/62/62 63/63/63
f 61/61/61 59/59/59 60/60/60
f 52/52/52 55/55/55 53/53/53
f 49/49/49 51/51/51 58/58/58
f 57/57/57 49/49/49 56/56/56
f 55/55/55 52/52/52 54/54/54
f 53/53/53 49/49/49 52/52/52
f 51/51/51 49/49/49 50/50/50
f 59/59/59 61/61/61 66/66/66
f 59/59/59 66/66/66 67/67/67
f 60/60/60 62/62/62 68/68/68
f 63/63/63 62/62/62 69/69/69
f 49/49/49 53/53/53 50/50/50
f 71/71/71 52/52/52 70/70/70
f 72/72/72 52/52/52 59/59/59
f 73/73/73 59/59/59 67/67/67
f 62/62/62 60/60/60 59/59/59
f 69/69/69 62/62/62 74/74/74
f 75/75/75 62/62/62 49/49/49
f 52/52/52 71/71/71 65/65/65
f 72/72/72 59/59/59 76/76/76
f 62/62/62 75/75/75 74/74/74
f 52/52/52 72/72/72 70/70/70
f 62/62/62 64/64/64 68/68/68
f 59/59/59 73/73/73 76/76/76
f 49/49/49 57/57/57 75/75/75
f 54/54/54 52/52/52 65/65/65
f 82/82/82 80/80/80 81/81/81
f 81/81/81 83/83/83 84/84/84
f 86/86/86 77/77/77 85/85/85
f 77/77/77 79/79/79 87/87/87
f 78/78/78 80/80/80 88/88/88
f 83/83/83 81/81/81 80/80/80
f 77/77/77 86/86/86 89/89/89
f 80/80/80 78/78/78 77/77/77
f 91/91/91 80/80/80 90/90/90
f 84/84/84 83/83/83 92/92/92
f 77/77/77 87/87/87 85/85/85
f 90/90/90 80/80/80 93/93/93
f 92/92/92 83/83/83 94/94/94
f 96/96/96 83/83/83 95/95/95
f 99/99/99 97/97/97 98/98/98
f 101/101/101 97/97/97 100/100/100
f 80/80/80 91/91/91 88/88/88
f 83/83/83 96/96/96 94/94/94
f 97/97/97 101/101/101 98/98/98
f 80/80/80 82/82/82 93/93/93
f 97/97/97 99/99/99 83/83/83
f 83/83/83 99/99/99 95/95/95
f 103/103/103 97/97/97 102/102/102
f 97/97/97 103/103/103 100/100/100
f 104/104/104 97/97/97 77/77/77
f 97/97/97 104/104/104 102/102/102
f 77/77/77 89/89/89 104/104/104
f 79/79/79 77/77/77 78/78/78
f 105/105/105 107/107/107 108/108/108
f 107/107/107 105/105/105 106/106/106
f 109/109/109 111/111/111 112/112/112
f 111/111/111 109/109/109 110/110/110
f 113/113/113 115/115/115 116/116/116
f 115/115/115 113/113/113 114/114/114
f 117/117/117 119/119/119 120/120/120
f 119/119/119 117/117/117 118/118/118
f 14/14/14 15/15/15 17/17/17
f 16/16/16 17/17/17 19/19/19
f 18/18/18 19/19/19 21/21/21
f 20/20/20 21/21/21 23/23/23
f 22/22/22 23/23/23 25/25/25
f 24/24/24 25/25/25 27/27/27
f 26/26/26 27/27/27 29/29/29
f 28/28/28 29/29/29 31/31/31
f 30/30/30 31/31/31 33/33/33
f 32/32/32 33/33/33 35/35/35
f 34/34/34 35/35/35 37/37/37
f 36/36/36 37/37/37 39/39/39
f 38/38/38 39/39/39 41/41/41
f 40/40/40 41/41/41 43/43/43
f 42/42/42 43/43/43 45/45/45
f 44/44/44 45/45/45 47/47/47
f 46/46/46 47/47/47 48/48/48
f 2/2/2 48/48/48 3/3/3
f 48/48/48 2/2/2 46/46/46
f 12/12/12 13/13/13 15/15/15
f 45/45/45 44/44/44 42/42/42
f 43/43/43 42/42/42 40/40/40
f 41/41/41 40/40/40 38/38/38
f 39/39/39 38/38/38 36/36/36
f 37/37/37 36/36/36 34/34/34
f 35/35/35 34/34/34 32/32/32
f 33/33/33 32/32/32 30/30/30
f 31/31/31 30/30/30 28/28/28
f 29/29/29 28/28/28 26/26/26
f 27/27/27 26/26/26 24/24/24
f 25/25/25 24/24/24 22/22/22
f 23/23/23 22/22/22 20/20/20
f 21/21/21 20/20/20 18/18/18
f 19/19/19 18/18/18 16/16/16
f 17/17/17 16/16/16 14/14/14
f 15/15/15 14/14/14 12/12/12
f 13/13/13 12/12/12 10/10/10
f 11/11/11 10/10/10 8/8/8
f 9/9/9 8/8/8 6/6/6
f 7/7/7 6/6/6 4/4/4
f 8/8/8 9/9/9 11/11/11
f 10/10/10 11/11/11 13/13/13
f 4/4/4 5/5/5 7/7/7
f 6/6/6 7/7/7 9/9/9
f 47/47/47 46/46/46 44/44/44
f 1/1/1 3/3/3 5/5/5
f 5/5/5 4/4/4 1/1/1
f 3/3/3 1/1/1 2/2/2
